<?xml version="1.0" encoding="utf-8"?>
<!-- Generator: Adobe Illustrator 19.2.1, SVG Export Plug-In . SVG Version: 6.00 Build 0)  -->
<svg version="1.1" id="Capa_1" xmlns="http://www.w3.org/2000/svg" xmlns:xlink="http://www.w3.org/1999/xlink" x="0px" y="0px"
	 viewBox="0 0 149.3 150" style="enable-background:new 0 0 149.3 150;" xml:space="preserve">
<style type="text/css">
	.st0{fill:#F18523;}
</style>
<g>
	<g>
		<path d="M28.2,90.4h-25V76.2L26.8,4.5H43v71.8h7.5v14.2H43v23.9H28.2V90.4z M16.9,76.2h11.2V38.6h-0.9l-0.9,3.3L16.9,76.2z"/>
	</g>
	<path class="st0" d="M63.6,61.4c0.6-0.5,1.2-0.6,1.5-0.6c2.3,0,6,3.8,6,6.4c0,0.3-0.3-0.1-1-0.2c-1.5-0.2-4.9,3.8-8.1,7.9
		c-1.3,1.6-5.5,7.7-5.5,7.7c8.5-9.3,26.9-22.7,31.8-21c1.3,0.5,4.7,4.2,4.7,5.7c0,8.8-19.2,32.4-32.7,32.4c-3.8,0-8.3-2.5-8.3-5.7
		c0-0.5,0.5-0.7,0.5-0.4c0,1,1.7,2.8,3.7,2.8c9.9,0,27.6-25.4,28.8-30.9c-1.5,0-17.3,7.9-34.4,25.8c-9.5,13.7-23.4,34.6-25.8,49.1
		c-0.5,2.5-0.5,4.4,1.8,4.7c-4.5,1.8-8.9-1.9-8.2-7.9C20.4,120.7,40.1,90,55,70.8C57.7,67.5,61.6,63,63.6,61.4z"/>
	<path class="st0" d="M96,68.9c4-2,16-17.2,16-18.6c0-0.5,0.7-0.9,1.3-0.9c2.2,0,4.8,3.1,4.8,5c0,2.8-13.7,15-22,15
		C95.9,69.4,95.7,69.1,96,68.9z"/>
	<path class="st0" d="M113,78.4c-0.4,1.7,2,3.2,2.9,4.1c15.7-8.8,28.3-11,29.6-11c0.2,0,0.6,0.2,0.6,0.5c0.9,0.3-18.6,5.4-29.3,11.8
		c1.3,1,3.7,3.8,3.4,5.9c-1.4,6.4-14.3,11.6-20.7,11.6c-2.2,0-3.2-1.8-3.7-3.9c0.3-4.2,14.7-12.5,18.2-13.8c-1.1-1.4-6.9-4.9-6-9.2
		c1.6-7.5,15.7-14.8,24.4-14.8c2.8,0,4,4.5,3.7,7.4c-0.1,1.4-6.3,7.3-8.9,7.3c-0.1,0-0.3-0.4-0.2-0.4c0.3,0,6.9-6.9,7.1-8.8
		C129.5,64.4,114.3,73.8,113,78.4z M98.4,96.3c3.8-1.1,16-7.4,16-11.1C108.5,88.5,101.2,93.4,98.4,96.3z"/>
</g>
</svg>
