<?xml version="1.0" encoding="utf-8"?>
<!-- Generator: Adobe Illustrator 19.2.1, SVG Export Plug-In . SVG Version: 6.00 Build 0)  -->
<svg version="1.1" id="Capa_1" xmlns="http://www.w3.org/2000/svg" xmlns:xlink="http://www.w3.org/1999/xlink" x="0px" y="0px"
	 viewBox="0 0 400 400" style="enable-background:new 0 0 400 400;" xml:space="preserve">
<style type="text/css">
	.st0{fill:#F08100;}
</style>
<g>
	<g>
		<path d="M120.2,262.4H54.5V225l62.2-188.9h42.5V225h19.7v37.4h-19.7v63h-39V262.4z M90.7,225h29.5v-99.2h-2.4l-2.4,8.7L90.7,225z"
			/>
	</g>
	<g>
		<path class="st0" d="M161,291.8c-2.7-0.2-5.4-0.9-8-2.2c-2.6-1.3-4.6-3-6.2-5.3c-8.6,10.3-17.3,21-26.3,32.2
			c-9,11.2-18.7,24.4-29.1,39.6c-0.9,1.2-1.6,2.5-2.3,3.8c-0.7,1.4-1.7,2.4-3.1,3.1c-2.2,0.9-4.5,1-6.8,0.4
			c-2.3-0.6-4.1-1.8-5.5-3.7c-1.7-2.4-2.2-4.6-1.5-6.7c0.5-1.5,1.2-3,2.2-4.4c0.9-1.4,1.8-2.7,2.7-4.1
			c10.3-16.1,21.2-31.2,32.7-45.3c11.5-14.1,23.1-28.1,34.5-42l40.3-49.3c0.7-1,1.4-1.9,2.1-2.6c0.7-0.7,1.7-1.1,3.1-1.3
			c1.4-0.2,2.7,0,4.1,0.5c1.4,0.5,3,1.6,4.9,3.3c4.4-2.6,8.4-4.5,11.8-5.8c3.4-1.3,7.2-1.7,11.3-1.2c4.1,0.3,7.6,1.9,10.4,4.6
			c2.8,2.7,4.5,5.9,5,9.5c0.7,5,0.2,9.8-1.4,14.5c-1.6,4.7-3.7,9-6.3,13c-5.3,8.2-11.5,16-18.7,23.3c-7.2,7.4-15.1,13.5-23.9,18.5
			c-3.9,2.2-8,4.1-12.3,5.5C170.3,291.6,165.7,292.1,161,291.8z M184.3,264.8c4.3-3.4,8.2-7,11.9-10.8c3.7-3.8,7.2-7.8,10.6-12.1
			c1.9-2.2,3.7-4.5,5.4-6.8c1.7-2.3,3.2-4.7,4.6-7.3c0.2-0.5,0.6-1.4,1.2-2.6c0.6-1.2,1-2.4,1.3-3.6c0.3-1.2,0.3-2.3,0.1-3.3
			c-0.2-1-0.9-1.7-2.1-2.1c-1.4-0.2-3,0.2-4.9,1c-1.9,0.9-3.8,2-5.8,3.5c-2,1.5-3.8,2.9-5.5,4.4c-1.7,1.5-3.1,2.6-4.1,3.5
			c-7.2,6.5-13.9,13.3-20.3,20.5c-6.3,7.2-12.5,14.6-18.5,22.3c-0.2,1.4,0,2.6,0.5,3.7c0.5,1.1,1.5,1.7,2.8,1.7
			c3.4,0,7.2-1.3,11.3-4C177.1,270.3,180.9,267.6,184.3,264.8z"/>
		<path class="st0" d="M268.6,171.7c-0.2-2.6,0.8-4.3,2.8-5.3c2.1-0.9,4.3-1.1,6.8-0.5c2.5,0.6,4.7,1.9,6.7,4c2,2.1,2.9,4.8,2.7,8.2
			c-0.3,4.5-2.2,9.2-5.5,14.1c-3.3,5-7.2,9.3-11.7,13c-4.4,3.7-8.8,6.2-13.1,7.7c-4.3,1.5-7.4,0.9-9.5-1.7c-1-1.4-0.5-3.3,1.5-5.8
			c2.1-2.5,4.5-5.5,7.4-9c2.9-3.5,5.6-7.4,8.2-11.5C267.5,180.7,268.7,176.3,268.6,171.7z"/>
		<path class="st0" d="M275.8,240.2c2.9-2.9,5.7-5.8,8.3-8.6c2.6-2.8,5.3-5.8,7.8-8.9c2.4-2.9,4.8-5.9,7.2-9.1c2.4-3.2,5-6.8,8-10.9
			c1.4-5.5,3.4-10.4,6.2-14.9c2.6-3.9,5.9-7.2,9.9-9.9c4-2.6,8.5-4,13.5-4c2.4,0,4.4,0.6,6.2,1.8c1.7,1.2,2.6,2.9,2.8,5.1
			c0,1.5-0.3,2.8-0.9,3.8c-0.6,1-1.4,1.9-2.4,2.7c-1,0.8-2.1,1.4-3.3,1.9c-1.2,0.5-2.3,1.1-3.3,1.8c-2.9,1.9-5.2,4.2-6.8,6.9
			c-1.6,2.7-2.8,5.6-3.5,8.5c-1.7,7.2-2.7,14.5-2.8,21.9c-0.2,7.4-0.7,14.8-1.5,22.2c-0.5,5.8-1.9,11.3-4.2,16.3
			c-2.3,5-5.3,9.5-8.9,13.2c-3.6,3.8-7.8,6.7-12.6,8.9c-4.8,2.1-10.1,3-15.9,2.7c-5-0.2-9.5-1.3-13.6-3.5c-4.1-2.1-7.5-4.9-10.1-8.2
			c-2.6-3.3-4.4-7.2-5.1-11.5c-0.8-4.4-0.3-8.9,1.4-13.5c0.7-2.1,2-3.4,4-4.1c2-0.7,3.8-0.8,5.6-0.4c1.8,0.4,3.3,1.4,4.5,2.8
			c1.2,1.5,1.5,3.2,0.8,5.3c-1.7,5.5-1.1,9.8,1.9,13.1c3,3.3,7,4.9,11.9,4.9c3.9,0,7.7-1.5,11.3-4.5c3.6-3,6.2-6.3,7.7-9.9
			c0.7-1.4,1.2-2.9,1.5-4.5c0.3-1.6,0.6-3.5,0.9-5.8c0.3-2.2,0.5-4.9,0.6-8.1c0.2-3.2,0.4-7.1,0.8-11.7c-3.1,3.8-6.1,7.3-9.1,10.5
			c-3,3.3-5.9,6.2-8.9,8.7c-1.7,1.5-3.5,2.1-5.3,1.7c-1.8-0.4-3.3-1.3-4.5-2.7c-1.2-1.4-1.9-3-2.1-5
			C273.5,243.5,274.2,241.7,275.8,240.2z"/>
	</g>
	<path class="st0" d="M182.7,331.7c-1.9,0-3.7-0.8-5-2.3c-2.3-2.8-1.9-6.9,0.8-9.2c27.8-23.1,55.6-20.5,80.1-18.2
		c14.9,1.4,28.9,2.7,41.6-1.8c3.4-1.2,7.1,0.6,8.3,4c1.2,3.4-0.6,7.1-4,8.3c-15.4,5.4-31.5,3.9-47.2,2.5
		c-24.1-2.3-46.9-4.4-70.6,15.3C185.7,331.2,184.2,331.7,182.7,331.7z"/>
</g>
</svg>
