<?xml version="1.0" encoding="utf-8"?>
<!-- Generator: Adobe Illustrator 15.0.0, SVG Export Plug-In . SVG Version: 6.00 Build 0)  -->
<!DOCTYPE svg PUBLIC "-//W3C//DTD SVG 1.1//EN" "http://www.w3.org/Graphics/SVG/1.1/DTD/svg11.dtd">
<svg version="1.1" id="Layer_1" xmlns="http://www.w3.org/2000/svg" xmlns:xlink="http://www.w3.org/1999/xlink" x="0px" y="0px"
	 width="200px" height="200px" viewBox="0 0 200 200" enable-background="new 0 0 200 200" xml:space="preserve">
<g>
	<path fill="#F58220" d="M31.587,93.091c0.519-0.573,0.814-0.913,0.887-1.021c0.788-0.968,1.541-1.863,2.258-2.688
		c0.716-0.824,1.344-1.541,1.881-2.151c0.646-0.717,1.218-1.379,1.72-1.989c0.25-0.286,0.376-0.572,0.376-0.86
		c0-0.322-0.08-0.582-0.242-0.779c-0.161-0.196-0.341-0.376-0.538-0.537c-0.198-0.162-0.376-0.305-0.538-0.431
		c-0.161-0.125-0.242-0.26-0.242-0.403c0-0.035,0.036-0.089,0.108-0.161c0.035,0,0.089-0.018,0.161-0.054
		c0.25-0.035,0.431-0.116,0.538-0.242c0.108-0.125,0.161-0.241,0.161-0.35c0-0.43-0.198-0.787-0.591-1.075
		c-0.395-0.286-0.843-0.519-1.344-0.698c-0.573-0.215-1.219-0.395-1.936-0.538c-2.868,0-5.708,0.529-8.521,1.586
		c-2.814,1.058-5.494,2.446-8.038,4.167c-2.546,1.721-4.893,3.683-7.043,5.887c-2.15,2.205-4.015,4.463-5.592,6.774
		c-1.577,2.312-2.813,4.569-3.709,6.774C0.449,106.506,0,108.468,0,110.188c0,0.825,0.072,1.596,0.215,2.312
		c0.144,0.716,0.369,1.343,0.673,1.882c0.305,0.537,0.708,0.957,1.209,1.263c0.502,0.305,1.11,0.457,1.828,0.457
		c0.25,0,0.492-0.019,0.726-0.054c0.233-0.036,0.438-0.09,0.618-0.162c0.179-0.071,0.358-0.144,0.538-0.214
		c1.685-0.86,3.234-1.874,4.651-3.038c1.415-1.164,2.643-2.285,3.682-3.359c1.218-1.219,2.33-2.492,3.334-3.817
		c0.179-0.18,0.304-0.27,0.376-0.27c0.035,0,0.054,0.036,0.054,0.107c0,0.036,0.066,0.072,0.048,0.108
		c-0.019,0.036,0.048,0.072,0.048,0.107v0.106c0,0.718-0.559,1.552-0.774,2.501c-0.215,0.95-0.36,1.837-0.36,2.66
		c0,1.148,0.125,2.385,0.411,3.711c0.287,1.325,0.726,2.553,1.335,3.682c0.61,1.129,1.375,2.079,2.308,2.851
		c0.932,0.771,2.059,1.156,3.385,1.156c0.25,0,0.375-0.056,0.375-0.162c-0.251-0.251-0.503-0.735-0.753-1.452
		s-0.483-1.586-0.699-2.606c-0.215-1.022-0.386-2.151-0.511-3.388c-0.126-1.236-0.188-2.5-0.188-3.791
		c0-1.396,0.233-2.822,0.699-4.272c0.465-1.452,1.057-2.851,1.774-4.194c0.716-1.345,1.496-2.615,2.339-3.817
		c0.842-1.2,1.631-2.258,2.365-3.172C30.438,94.408,31.066,93.665,31.587,93.091z M24.893,93.521
		c-2.222,2.224-4.203,4.168-5.941,5.834c-1.738,1.667-3.288,3.11-4.65,4.327c-1.362,1.22-2.545,2.241-3.548,3.064
		c-1.004,0.825-1.847,1.506-2.527,2.043c-1.686,1.219-2.832,1.901-3.44,2.044c-0.145,0-0.215-0.072-0.215-0.216
		c0-0.716,0.42-1.854,1.263-3.414c0.842-1.559,1.998-3.313,3.468-5.268c1.469-1.953,3.198-3.997,5.188-6.13
		c1.989-2.132,4.122-4.121,6.398-5.967c2.275-1.846,4.641-3.441,7.096-4.785c2.455-1.344,4.901-2.213,7.339-2.607
		c0.179,0,0.269,0.054,0.269,0.161s-0.126,0.287-0.376,0.537L24.893,93.521z"/>
	<path fill="#F58220" d="M141.612,97.822c-0.072-0.107-0.143-0.196-0.216-0.269c-3.548,2.616-6.8,4.919-9.758,6.908
		c-2.956,1.988-5.457,3.468-7.5,4.436c0.036-0.466,0.207-0.968,0.512-1.505c0.305-0.539,0.761-1.192,1.37-1.963
		c0.61-0.77,1.372-1.694,2.286-2.769c0.913-1.075,1.996-2.384,3.252-3.925c0.322-0.286,0.529-0.538,0.619-0.753
		c0.088-0.215,0.134-0.394,0.134-0.538c0-0.286-0.117-0.527-0.35-0.725c-0.233-0.197-0.439-0.313-0.618-0.35
		c-0.215-0.251-0.376-0.422-0.484-0.512c-0.107-0.088-0.251-0.134-0.431-0.134c-0.143,0-0.276,0.027-0.402,0.08
		c-0.126,0.054-0.241,0.117-0.35,0.188c-0.144,0.108-0.251,0.198-0.321,0.269c-0.182-0.394-0.396-0.733-0.646-1.021
		c-0.252-0.285-0.573-0.43-0.968-0.43c-1.254,0-2.626,0.314-4.112,0.941c-1.488,0.626-2.976,1.451-4.462,2.473
		c-0.883,0.606-1.74,1.27-2.584,1.964c-2.528,1.791-4.767,3.34-6.69,4.622c-2.043,1.362-3.898,2.481-5.564,3.36
		s-3.199,1.514-4.598,1.909c-1.397,0.394-2.795,0.59-4.193,0.59c-0.574,0-0.861-0.376-0.861-1.129c0-0.681,0.358-1.63,1.076-2.849
		c0.717-1.218,1.666-2.446,2.849-3.683c1.183-1.237,2.545-2.357,4.087-3.36c1.54-1.003,3.153-1.631,4.838-1.882
		c0.18,0,0.27,0.107,0.27,0.323c0,0.072-0.01,0.134-0.026,0.187c-0.02,0.055-0.027,0.1-0.027,0.136l-0.055,0.107
		c-0.215,0.287-0.547,0.618-0.994,0.994c-0.449,0.377-0.905,0.708-1.372,0.995c-0.537,0.395-1.11,0.752-1.72,1.075
		c-0.322,0.106-0.483,0.27-0.483,0.483c0,0.396,0.17,0.628,0.511,0.699c0.34,0.072,0.636,0.107,0.887,0.107
		c1.183,0,2.266-0.188,3.254-0.564c0.984-0.376,1.826-0.852,2.525-1.425s1.254-1.19,1.667-1.855c0.412-0.662,0.618-1.28,0.618-1.854
		c-0.036-0.394-0.179-0.752-0.43-1.074c-0.216-0.287-0.546-0.538-0.995-0.753c-0.449-0.216-1.103-0.323-1.963-0.323
		c-1.073,0-2.285,0.18-3.628,0.538c-1.344,0.358-2.716,0.869-4.113,1.531c-0.665,0.316-1.321,0.665-1.97,1.037
		c-0.05-0.021-0.098-0.041-0.126-0.041c-0.596,0.42-1.157,0.806-1.736,1.209c-0.084,0.057-0.17,0.103-0.254,0.161
		c-0.075,0.052-0.14,0.112-0.214,0.165c-1.619,1.125-3.195,2.207-4.678,3.195c-2.151,1.435-4.086,2.671-5.807,3.71
		c-1.72,1.039-3.172,1.854-4.355,2.446c-1.183,0.59-2.025,0.887-2.526,0.887c-0.181,0-0.27-0.054-0.27-0.161
		c0-0.502,0.242-1.075,0.726-1.722c0.483-0.644,1.093-1.307,1.828-1.988c0.735-0.681,1.533-1.354,2.393-2.017
		c0.86-0.662,1.676-1.272,2.446-1.828c0.771-0.555,1.443-1.021,2.017-1.396c0.572-0.376,0.913-0.619,1.021-0.726
		c0.431-0.287,0.646-0.593,0.646-0.915c0-0.143-0.072-0.321-0.215-0.537c-0.144-0.216-0.521-0.717-1.129-1.506
		c-0.251-0.251-0.664-0.377-1.236-0.377c-0.789,0-1.523,0.154-2.204,0.458c-0.682,0.305-1.345,0.457-1.99,0.457
		c-0.466,0-1.048-0.152-1.748-0.457c-0.698-0.304-1.416-0.636-2.15-0.995c-0.735-0.357-1.416-0.689-2.043-0.994
		c-0.627-0.305-1.102-0.457-1.424-0.457c-0.933,0-1.658,0.099-2.178,0.296c-0.52,0.196-0.779,0.69-0.779,1.479
		c0,0.107,0.153,0.448,0.458,1.021c0.304,0.574,0.941,1.183,1.909,1.828c-1.148,0.825-2.232,1.595-3.253,2.312
		c-1.021,0.718-1.999,1.415-2.93,2.096c-0.215,0.144-0.37,0.281-0.497,0.417c-0.338,0.222-0.684,0.45-1.008,0.659
		c-2.115,1.362-4.042,2.481-5.779,3.36c-1.739,0.879-3.333,1.514-4.785,1.909c-1.452,0.394-2.876,0.59-4.274,0.59
		c-0.43-0.143-0.645-0.464-0.645-0.967c0-0.359,0.089-0.762,0.269-1.209c0.179-0.449,0.385-0.87,0.619-1.265
		c0.232-0.395,0.466-0.725,0.699-0.994s0.421-0.403,0.564-0.403c0.108,0,0.233,0.036,0.376,0.107
		c0.072,0.036,0.125,0.054,0.162,0.054c0.179,0.322,0.376,0.538,0.591,0.646c0.215,0.106,0.412,0.16,0.591,0.16
		c0.323,0,0.833-0.134,1.532-0.403c0.699-0.268,1.478-0.626,2.339-1.075c0.86-0.447,1.748-0.967,2.661-1.558
		c0.914-0.592,1.747-1.219,2.5-1.882s1.371-1.345,1.854-2.044c0.484-0.698,0.726-1.37,0.726-2.016c0-0.287-0.099-0.609-0.295-0.967
		c-0.198-0.358-0.458-0.69-0.779-0.996c-0.323-0.304-0.691-0.555-1.103-0.753c-0.413-0.195-0.852-0.295-1.317-0.295
		c-0.968,0-2.034,0.215-3.199,0.645c-1.166,0.431-2.339,1.014-3.521,1.748c-0.179,0.111-0.352,0.244-0.529,0.36
		c-0.003-0.003-0.006-0.008-0.009-0.011c-0.197,0.136-0.38,0.271-0.574,0.407c-0.277,0.193-0.556,0.382-0.83,0.589
		c-0.085,0.062-0.178,0.125-0.263,0.187c-0.538,0.395-1.058,0.771-1.56,1.129c-2.725,1.935-5.107,3.585-7.151,4.946
		c-2.042,1.362-3.898,2.481-5.564,3.36c-1.667,0.879-3.199,1.514-4.597,1.909c-1.398,0.394-2.796,0.59-4.193,0.59
		c-0.574,0-0.86-0.376-0.86-1.129c0-0.681,0.357-1.63,1.075-2.849c0.717-1.218,1.667-2.446,2.85-3.683
		c1.183-1.237,2.544-2.357,4.086-3.36c1.541-1.003,3.153-1.631,4.838-1.882c0.179,0,0.269,0.107,0.269,0.323
		c0,0.072-0.009,0.134-0.027,0.187c-0.019,0.055-0.027,0.1-0.027,0.136l-0.054,0.107c-0.215,0.287-0.546,0.618-0.995,0.994
		c-0.449,0.377-0.905,0.708-1.371,0.995c-0.538,0.395-1.111,0.752-1.721,1.075c-0.322,0.106-0.483,0.27-0.483,0.483
		c0,0.396,0.169,0.628,0.51,0.699c0.34,0.072,0.636,0.107,0.887,0.107c1.183,0,2.267-0.188,3.253-0.564
		c0.985-0.376,1.828-0.852,2.526-1.425c0.699-0.573,1.254-1.19,1.667-1.855c0.412-0.662,0.618-1.28,0.618-1.854
		c-0.036-0.394-0.18-0.752-0.43-1.074c-0.215-0.287-0.547-0.538-0.995-0.753c-0.449-0.216-1.103-0.323-1.962-0.323
		c-1.076,0-2.285,0.18-3.629,0.538S40,96.434,38.602,97.096c-1.397,0.665-2.76,1.452-4.086,2.366
		c-1.326,0.915-2.519,1.944-3.575,3.091c-1.058,1.148-1.9,2.375-2.527,3.684c-0.627,1.309-0.941,2.679-0.941,4.112
		c0,0.932,0.125,1.685,0.376,2.258c0.25,0.573,0.583,1.022,0.995,1.346c0.412,0.321,0.86,0.537,1.344,0.644
		c0.484,0.107,0.958,0.162,1.425,0.162c1.254,0,2.661-0.269,4.22-0.806c1.559-0.539,3.172-1.256,4.839-2.151
		c1.667-0.896,3.333-1.899,5-3.012c1.388-0.924,2.697-1.855,3.961-2.793c-0.047,0.098-0.099,0.195-0.143,0.294
		c-0.521,1.165-0.78,2.304-0.78,3.414c0,3.369,1.379,5.054,4.14,5.054c1.255,0,2.661-0.269,4.22-0.806
		c1.559-0.539,3.173-1.256,4.839-2.151c1.667-0.896,3.333-1.899,5-3.012c1.667-1.11,3.244-2.229,4.731-3.359
		c1.487-1.129,2.84-2.222,4.06-3.28c0.579-0.502,1.102-0.968,1.575-1.401c0.148,0.13,0.328,0.258,0.575,0.381
		c0.394,0.197,0.824,0.367,1.29,0.511c0.465,0.143,0.915,0.252,1.344,0.322c0.43,0.072,0.77,0.107,1.021,0.107
		c-1.577,1.148-2.832,2.151-3.763,3.011c-0.933,0.86-1.649,1.64-2.151,2.339c-0.502,0.699-0.833,1.344-0.995,1.936
		c-0.161,0.591-0.242,1.192-0.242,1.8c0,0.789,0.116,1.436,0.35,1.936c0.232,0.503,0.537,0.889,0.914,1.156
		c0.376,0.27,0.789,0.449,1.237,0.539c0.447,0.088,0.869,0.134,1.263,0.134c0.86,0,1.998-0.369,3.414-1.103
		c1.416-0.734,2.921-1.666,4.517-2.796c1.569-1.11,3.156-2.328,4.761-3.646c-0.32,0.96-0.487,1.95-0.487,2.975
		c0,0.932,0.125,1.685,0.376,2.258c0.25,0.573,0.583,1.022,0.995,1.346c0.412,0.321,0.861,0.537,1.344,0.644
		c0.483,0.107,0.958,0.162,1.425,0.162c1.254,0,2.661-0.269,4.22-0.806c1.559-0.539,3.171-1.256,4.839-2.151
		c1.666-0.896,3.333-1.899,5-3.012c0.135-0.09,0.26-0.181,0.394-0.271c-0.105,0.171-0.217,0.344-0.312,0.513
		c-0.646,1.13-0.969,2.053-0.969,2.77c0,0.682,0.126,1.209,0.376,1.586c0.252,0.376,0.521,0.672,0.807,0.887
		c0.359,0.25,0.753,0.43,1.183,0.538c0.933,0,1.943-0.35,3.038-1.049c1.093-0.699,2.142-1.46,3.146-2.285
		c1.146-0.967,2.312-2.077,3.494-3.332c0.144-0.144,0.251-0.216,0.323-0.216c0.034,0,0.054,0.053,0.054,0.162
		c0,0.106-0.027,0.294-0.08,0.563c-0.056,0.27-0.109,0.573-0.163,0.913c-0.053,0.342-0.099,0.691-0.134,1.049
		c-0.036,0.359-0.053,0.663-0.053,0.914c0,1.148,0.15,1.928,0.456,2.339c0.305,0.412,0.761,0.619,1.37,0.619
		c0.359,0,0.923-0.216,1.695-0.646c0.77-0.43,1.656-0.993,2.66-1.692c1.003-0.699,2.088-1.506,3.253-2.419
		c1.164-0.915,2.32-1.837,3.469-2.77c2.723-2.222,5.679-4.73,8.869-7.527c0.323-0.286,0.485-0.608,0.485-0.967
		c0-0.144-0.028-0.27-0.082-0.376C141.747,97.983,141.684,97.895,141.612,97.822z M59.49,100.511
		c0.878-0.753,1.765-1.434,2.661-2.043c0.896-0.609,1.614-0.914,2.151-0.914c0.216,0,0.323,0.09,0.323,0.269
		c0,0.216-0.17,0.521-0.511,0.914c-0.341,0.395-0.771,0.824-1.29,1.291c-0.52,0.466-1.094,0.932-1.721,1.397
		c-0.628,0.467-1.246,0.896-1.854,1.29c-0.61,0.396-1.175,0.717-1.694,0.967c-0.52,0.252-0.906,0.377-1.156,0.377
		c-0.108,0-0.161-0.035-0.161-0.107c0-0.18,0.323-0.609,0.968-1.29C57.85,101.981,58.611,101.263,59.49,100.511z M121.29,104.005
		c-0.789,0.646-1.568,1.29-2.339,1.936c-0.771,0.646-1.488,1.209-2.151,1.692c-0.663,0.485-1.227,0.879-1.693,1.184
		c-0.466,0.305-0.789,0.458-0.967,0.458c-0.072,0-0.108-0.036-0.108-0.108c0-0.287,0.232-0.753,0.699-1.397
		c0.466-0.646,1.066-1.372,1.802-2.178c0.733-0.807,1.576-1.63,2.526-2.473c0.949-0.843,1.926-1.622,2.931-2.339
		c1.003-0.716,1.979-1.299,2.93-1.748c0.949-0.447,1.782-0.672,2.501-0.672c0.106,0,0.16,0.019,0.16,0.055
		c0,0.072-0.072,0.18-0.216,0.322C125.143,100.708,123.118,102.465,121.29,104.005z"/>
	<path fill="#F58220" d="M199.92,98.092c-0.056-0.108-0.118-0.197-0.189-0.27c-0.072-0.107-0.144-0.196-0.214-0.269
		c-0.575,0.395-1.129,0.789-1.668,1.183c-0.537,0.395-1.057,0.771-1.56,1.129c-2.725,1.935-5.144,3.585-7.257,4.946
		c-2.115,1.362-4.041,2.481-5.78,3.36c-1.738,0.879-3.334,1.514-4.784,1.909c-1.452,0.394-2.878,0.59-4.274,0.59
		c-0.43-0.143-0.646-0.464-0.646-0.967c0-0.359,0.09-0.762,0.269-1.209c0.179-0.449,0.385-0.87,0.618-1.265
		c0.232-0.395,0.466-0.725,0.699-0.994c0.232-0.27,0.42-0.403,0.565-0.403c0.106,0,0.231,0.036,0.376,0.107
		c0.071,0.036,0.124,0.054,0.161,0.054c0.179,0.322,0.376,0.538,0.592,0.646c0.214,0.106,0.411,0.16,0.591,0.16
		c0.322,0,0.833-0.134,1.532-0.403c0.699-0.268,1.479-0.626,2.339-1.075c0.859-0.447,1.746-0.967,2.661-1.558
		c0.914-0.592,1.747-1.219,2.5-1.882s1.371-1.345,1.855-2.044c0.483-0.698,0.726-1.37,0.726-2.016c0-0.287-0.1-0.609-0.296-0.967
		c-0.197-0.358-0.457-0.69-0.779-0.996c-0.323-0.304-0.69-0.555-1.103-0.753c-0.413-0.195-0.853-0.295-1.317-0.295
		c-0.969,0-2.034,0.215-3.198,0.645c-1.166,0.431-2.339,1.014-3.521,1.748s-2.331,1.587-3.441,2.554
		c-0.125,0.108-0.231,0.227-0.353,0.337c-1.295,0.881-2.559,1.73-3.786,2.54c-2.366,1.559-4.48,2.902-6.346,4.031
		c-1.863,1.129-3.386,2.008-4.568,2.635c-1.184,0.627-1.883,0.94-2.099,0.94c-0.143,0-0.214-0.054-0.214-0.16
		c0-0.681,0.331-1.586,0.994-2.716c0.663-1.129,1.515-2.338,2.555-3.63c1.039-1.29,2.176-2.616,3.414-3.978
		c1.236-1.361,2.446-2.616,3.629-3.764c0.931-0.896,1.962-1.863,3.091-2.903c1.13-1.039,2.276-2.096,3.441-3.172
		c1.164-1.075,2.293-2.141,3.387-3.198c1.093-1.058,2.07-2.07,2.931-3.038c0.859-0.968,1.55-1.882,2.069-2.742
		s0.779-1.612,0.779-2.258c0-0.573-0.306-0.86-0.913-0.86c-1.005,0-2.178,0.439-3.521,1.317c-1.345,0.879-2.742,1.989-4.194,3.333
		c-1.452,1.345-2.885,2.805-4.301,4.382c-1.416,1.578-2.681,3.047-3.791,4.409s-1.998,2.509-2.66,3.44
		c-0.664,0.932-0.995,1.451-0.995,1.559c-0.18-0.357-0.396-0.689-0.646-0.993c-0.251-0.306-0.573-0.458-0.968-0.458
		c-1.255,0-2.627,0.322-4.113,0.968s-2.975,1.471-4.462,2.473c-1.488,1.005-2.921,2.143-4.301,3.414
		c-1.38,1.272-2.608,2.535-3.683,3.791c-1.075,1.255-1.936,2.445-2.581,3.574c-0.646,1.13-0.969,2.053-0.969,2.77
		c0,0.682,0.126,1.209,0.377,1.586c0.252,0.376,0.521,0.672,0.808,0.887c0.357,0.25,0.751,0.43,1.183,0.538
		c0.931,0,1.943-0.35,3.036-1.049c1.094-0.699,2.143-1.46,3.146-2.285c1.146-0.967,2.312-2.077,3.495-3.332
		c0.143-0.144,0.25-0.216,0.322-0.216c0.035,0,0.054,0.053,0.054,0.162c0,0.106-0.046,0.33-0.134,0.671
		c-0.09,0.342-0.18,0.718-0.27,1.129c-0.09,0.413-0.18,0.833-0.269,1.263c-0.09,0.431-0.135,0.772-0.135,1.022
		c0,0.825,0.323,1.442,0.969,1.855c0.645,0.411,1.271,0.653,1.881,0.726c0.286,0,0.556-0.009,0.807-0.026
		c0.25-0.019,0.466-0.046,0.646-0.082c0.216-0.036,0.43-0.09,0.646-0.16c0.681-0.216,1.486-0.593,2.419-1.13
		s1.936-1.183,3.012-1.936c1.074-0.753,2.176-1.566,3.306-2.445c0.895-0.696,1.76-1.402,2.621-2.11
		c-0.36,0.964-0.552,1.91-0.552,2.836c0,3.369,1.38,5.054,4.141,5.054c1.253,0,2.66-0.269,4.219-0.806
		c1.56-0.539,3.172-1.256,4.84-2.151c1.666-0.896,3.333-1.899,4.999-3.012c1.668-1.11,3.244-2.229,4.732-3.359
		c1.487-1.129,2.84-2.222,4.059-3.28c1.218-1.057,2.205-1.962,2.958-2.715c0.321-0.286,0.483-0.608,0.483-0.967
		C200,98.324,199.974,98.198,199.92,98.092z M155.859,104.005c-0.787,0.646-1.567,1.29-2.339,1.936
		c-0.77,0.646-1.486,1.209-2.149,1.692c-0.663,0.485-1.229,0.879-1.693,1.184c-0.466,0.305-0.789,0.458-0.969,0.458
		c-0.072,0-0.106-0.036-0.106-0.108c0-0.287,0.224-0.753,0.672-1.397c0.447-0.646,1.048-1.372,1.801-2.178
		c0.753-0.807,1.603-1.63,2.555-2.473c0.947-0.843,1.926-1.622,2.929-2.339c1.004-0.716,1.972-1.299,2.904-1.748
		c0.931-0.447,1.773-0.672,2.526-0.672c0.107,0,0.16,0.019,0.16,0.055c0,0.072-0.07,0.18-0.214,0.322
		C159.713,100.708,157.688,102.465,155.859,104.005z M183.01,98.468c0.896-0.609,1.612-0.914,2.151-0.914
		c0.214,0,0.323,0.09,0.323,0.269c0,0.216-0.172,0.521-0.513,0.914c-0.34,0.395-0.77,0.824-1.289,1.291
		c-0.521,0.466-1.094,0.932-1.721,1.397c-0.628,0.467-1.245,0.896-1.854,1.29c-0.609,0.396-1.175,0.717-1.693,0.967
		c-0.521,0.252-0.905,0.377-1.156,0.377c-0.108,0-0.162-0.035-0.162-0.107c0-0.18,0.323-0.609,0.969-1.29
		c0.645-0.68,1.406-1.398,2.285-2.15C181.227,99.758,182.113,99.077,183.01,98.468z"/>
</g>
</svg>
