<?xml version="1.0" encoding="utf-8"?>
<!-- Generator: Adobe Illustrator 19.2.1, SVG Export Plug-In . SVG Version: 6.00 Build 0)  -->
<svg version="1.1" id="Capa_1" xmlns="http://www.w3.org/2000/svg" xmlns:xlink="http://www.w3.org/1999/xlink" x="0px" y="0px"
	 viewBox="0 0 400 400" style="enable-background:new 0 0 400 400;" xml:space="preserve">
<style type="text/css">
	.st0{fill:#FFFFFF;}
	.st1{fill:#F08100;}
</style>
<g>
	<g>
		<g>
			<path class="st0" d="M343.9,242.6c-0.1,0.6-0.3,1.2-0.8,1.8c-0.5,0.6-1,1.2-1.7,1.8c-0.7,0.6-1.3,1.1-2,1.6
				c-0.7,0.4-1.2,0.7-1.6,0.8c-1.9,0.6-3.7,0.2-5.3-1.1c-1.6-1.3-2.5-2.9-2.6-4.6c0-0.8,0.1-1.5,0.5-2.1c0.4-0.6,0.8-1.2,1.3-1.7
				c0.9-1,2-2,3.3-2.9c1.3-0.9,2.6-1.1,4.1-0.7c1.5,0.4,2.6,1.3,3.5,2.7C343.6,239.5,344,241,343.9,242.6z M385,181.2
				c0.1,1-0.3,1.9-1.2,2.7c-1,0.8-1.7,1.5-2.3,2.2c-6.5,6-12.4,12.7-17.6,20.1c-5.3,7.4-10.1,14.6-14.5,21.5
				c-0.4,0.8-0.9,1.5-1.4,2.1c-0.5,0.6-1.2,0.8-2.2,0.7c-1-0.1-1.9-0.5-2.8-1.1c-0.9-0.6-1.5-1.3-2.1-2.2c-0.5-0.8-0.5-1.7,0-2.6
				c0.5-0.8,1-1.7,1.5-2.5c2.7-4.4,5.3-8.7,7.9-12.9c2.6-4.2,5.2-8.1,7.8-11.9c2.7-3.8,5.5-7.4,8.4-10.8c2.9-3.4,6.1-6.6,9.4-9.6
				c0.9-0.8,1.9-1.3,2.9-1.3c1-0.1,1.9,0.1,2.8,0.6c0.8,0.4,1.6,1.1,2.1,2C384.3,179.2,384.7,180.1,385,181.2z"/>
		</g>
		<g>
			<g>
				<path class="st1" d="M56,131.5c-1.6-0.2-2.9-0.9-3.9-2c-1-1.2-1.4-2.5-1.1-4c0.3-1.5,0.7-2.9,1.2-4.2c0.3-0.6,0.6-1.3,1-1.9
					c0.4-0.6,0.9-1.1,1.6-1.4c1.6-0.7,3.4-0.5,5.3,0.4c1.9,0.9,3,2.3,3.3,4.3c0.1,0.4,0,1-0.1,1.8c-0.1,0.8-0.3,1.6-0.6,2.4
					c-0.3,0.8-0.6,1.6-1,2.3c-0.4,0.7-0.8,1.2-1.3,1.5C59.1,131.4,57.6,131.7,56,131.5z M19.7,195.3c-1-0.1-2-0.5-2.7-1.1
					c-0.8-0.6-1.3-1.3-1.7-2.3c-0.4-0.9-0.4-2-0.1-3.2c1.3-4.3,2.8-8.5,4.7-12.6c1.8-4.1,3.9-8.2,6.2-12.2c2.3-4,4.8-8.1,7.5-12.2
					c2.7-4.1,5.5-8.3,8.3-12.6c0.5-0.7,1.1-1.5,1.6-2.4c0.5-0.8,1.3-1.2,2.3-1.1c1,0.1,1.9,0.4,2.8,1c0.9,0.5,1.6,1.2,2.2,2
					c0.5,0.8,0.7,1.6,0.3,2.3c-0.3,0.7-0.8,1.4-1.3,2.2c-4.4,6.9-8.8,14.3-13.3,22.3c-4.5,7.9-8,16.1-10.7,24.5
					c-0.3,0.8-0.6,1.8-1,3c-0.3,1.2-1,2-1.9,2.3C21.9,195.4,20.8,195.5,19.7,195.3z"/>
			</g>
		</g>
		<g>
			<path class="st0" d="M88.5,229.9c-2.4,3.5-5.4,6.5-8.8,9.1c-3.5,2.6-7.2,4.5-11.2,5.9c2.1,2.8,2.9,5.9,2.5,9.3
				c-0.4,3.3-1.4,6.4-2.9,9.3c-1.4,2.6-3.2,4.9-5.3,7.2c-2.1,2.2-4.5,4.2-7.1,5.8c-2.6,1.6-5.4,3-8.2,4.1c-2.9,1.1-5.8,1.7-8.7,1.9
				c-2.4,0.2-4.9-0.1-7.4-0.7c-2.5-0.6-4.4-2.1-5.8-4.3c-0.8-1.3-1.2-2.6-1.3-4.1c-0.1-1.5-0.1-2.9,0.2-4.4c0.2-1.5,0.6-3,1.1-4.4
				c0.5-1.4,1.1-2.7,1.6-4c-1.3-0.1-2.5-0.4-3.7-0.8c-1.2-0.4-2.2-1-3.1-1.9c-1-0.9-1.8-2.1-2.4-3.4c-0.6-1.3-0.9-2.7-1-4.2
				c-0.3-3.1,0.1-6.2,1.1-9.3c1-3.1,2.1-6.1,3.4-8.8c2.2-4.7,4.8-9.3,7.9-13.8c3.1-4.5,6.5-8.6,10.4-12.4c3.9-3.7,8.1-7,12.8-9.6
				c4.7-2.7,9.7-4.5,15-5.5c2.3-0.4,4.6-0.6,7-0.6c2.4,0,4.8,0.4,7.1,1c2.3,0.7,4.4,1.6,6.3,3c1.9,1.3,3.6,3.1,4.9,5.2
				c1.4,2.2,2.2,4.6,2.4,7.2c0.2,2.5,0.1,5-0.3,7.5c-0.4,2.6-1.1,5.2-2.1,7.8C91.6,224.6,90.2,227.2,88.5,229.9z M27,246.4
				c-0.1,0.3-0.1,0.8-0.2,1.4c-0.1,0.6-0.1,1.3-0.1,1.9c0,0.6,0,1.2,0,1.7c0,0.5,0.1,0.8,0.3,0.8c0.5,0.2,1.2,0.3,2,0.4
				c0.8,0,1.4-0.1,1.9-0.3c4.8-8.6,9.5-16.6,14.1-23.8c4.6-7.2,9.1-14.5,13.6-21.8c0.6-0.9,1.1-1.7,1.5-2.6c0.5-0.8,1-1.7,1.7-2.4
				c-2,0.9-4,1.9-5.8,3.1c-1.8,1.2-3.6,2.5-5.4,3.9c-3,2.4-5.7,5.1-8.1,8.1c-2.4,3-4.7,6.1-6.7,9.4c-2,3.1-3.8,6.4-5.4,9.8
				C28.8,239.3,27.7,242.8,27,246.4z M62.2,237.5c2.5-0.9,5-1.9,7.3-3.2c2.4-1.3,4.8-3.2,7.3-5.7c2.2-2.3,4-5,5.4-8.1
				c1.4-3.1,2.3-6.2,2.8-9.4c0.2-1.7,0.2-3.5,0-5.3c-0.3-1.8-1-3.4-2.3-4.7c-1-1.1-2.3-1.9-3.9-2.2c-1.5-0.4-3.1-0.5-4.6-0.5
				c-1.8,0.1-3.4,0.3-4.8,0.6c-1.5,0.4-2.9,0.8-4.3,1.3c1.4,0,2.6,0.4,3.8,1.1c1.2,0.7,1.9,1.7,2.1,3.1c0.1,0.8,0,1.4-0.2,1.9
				c-0.3,0.5-0.6,1-1,1.5c-0.4,0.8-0.8,1.6-1.3,2.3c-0.5,0.7-1,1.4-1.4,2.2l-10.8,16.8c-3.1,5-6.2,9.9-9.3,14.9
				c-3.1,4.9-5.9,10.1-8.4,15.5c-0.6,1.2-1.2,2.4-1.8,3.6c-0.6,1.3-1,2.6-1.4,3.9c-0.2,0.3-0.3,0.8-0.6,1.6
				c-0.2,0.7-0.4,1.5-0.5,2.4c-0.1,0.9-0.1,1.6,0,2.2c0.1,0.6,0.4,0.9,1,1c2.7,0,5.5-0.6,8.2-1.8c2.7-1.2,5.1-2.6,7.3-4.1
				c2-1.5,3.9-3.2,5.6-5.3c1.7-2.1,3-4.3,4-6.7c0.4-1.2,0.7-2.6,0.8-4c0.1-1.4-0.2-2.7-1.1-3.9c-0.6-1-1.5-1.6-2.6-1.9
				c-1.1-0.3-2-0.9-2.7-1.7c-0.7-0.9-1.1-1.8-1-2.9c0-1,0.6-1.9,1.6-2.5c0.4-0.3,0.9-0.5,1.5-0.6c0.5-0.1,1.1-0.2,1.6-0.3
				c0.8-0.2,1.4-0.4,2.1-0.4C60.9,238,61.6,237.8,62.2,237.5z"/>
			<path class="st0" d="M125.5,252c-1.7,0.1-3.4-0.1-5.1-0.7c-1.6-0.6-3-1.7-3.9-3.2c-0.5-0.7-0.9-1.5-1.1-2.3
				c-0.2-0.8-0.4-1.5-0.5-2.3c-2.1,2.1-4.5,4.2-7.3,6.2c-1.3,0.9-2.7,1.7-4.3,2.6c-1.6,0.9-3.4,1.4-5.3,1.5
				c-1.6,0.1-3.3-0.1-4.9-0.8c-1.6-0.6-2.9-1.6-3.9-3c-1.2-1.9-1.7-3.8-1.6-5.9c0.1-2.1,0.5-4.1,1.1-6c0.8-2.6,2.1-5.4,3.8-8.4
				c1.7-3,3.7-5.9,5.7-8.9c2.1-2.9,4.2-5.7,6.4-8.3c2.2-2.6,4.2-5,6-7.1c0.6-0.6,1.3-1.3,2-2.1c0.7-0.8,1.5-1.2,2.5-1.4
				c1.6-0.1,3,0.4,4.2,1.7c1.2,1.2,1.8,2.4,1.9,3.6c0.1,1.4-0.3,2.5-1.1,3.4c-3,3.7-5.9,7.3-8.8,10.8c-2.9,3.5-5.7,7.2-8.2,11.1
				c-0.8,1-1.6,2.2-2.4,3.5c-0.8,1.3-1.5,2.6-2.1,3.8c-0.6,1.2-1,2.3-1.2,3.2c-0.2,0.9-0.1,1.5,0.3,1.8c0.4,0.3,1.2,0.1,2.3-0.4
				c1.1-0.6,2.8-1.7,5-3.6c4-3.4,7.8-7.1,11.2-11.1c3.4-4,6.7-8.1,9.9-12.4l10.6-13.7c0.5-0.7,1.1-1.4,1.8-2.2
				c0.7-0.7,1.5-1.2,2.5-1.3c1.6-0.1,3,0.4,4.1,1.6c1.1,1.2,1.7,2.5,2,3.8c0.1,0.8,0,1.4-0.2,1.8c-0.2,0.4-0.5,1-1.1,1.6
				c-1.3,1.5-2.5,3.1-3.8,4.6c-1.3,1.5-2.6,3.1-3.8,4.9c-2.6,3.3-4.9,6.4-7,9.5c-2.1,3-3.7,6.1-5,9.3c-0.3,0.5-0.5,1.2-0.7,1.9
				c-0.2,0.8-0.4,1.5-0.4,2.2c-0.1,0.7,0.1,1.2,0.5,1.5c0.4,0.3,1.1,0.1,2.1-0.5c1.2-0.8,2.3-1.6,3.3-2.6c1-0.9,2-1.9,3-3l11.4-13
				c0.5-0.6,1.1-1.3,1.8-2.1c0.6-0.8,1.3-1.4,2.1-1.8c1.5-0.7,2.9-0.6,4.3,0.4c1.3,0.9,2,2.2,1.9,3.9c-0.1,1-0.5,1.8-1.1,2.5
				c-0.6,0.7-1.1,1.4-1.7,2.1c-2.1,2.4-4,4.7-5.9,6.8c-1.8,2.2-3.8,4.3-5.8,6.4c-1,1-2,2.1-3.1,3.2c-1.1,1.1-2.3,2.1-3.5,3.1
				c-1.2,1-2.6,1.8-4,2.5C128.6,251.5,127.1,251.9,125.5,252z"/>
			<path class="st0" d="M147.4,221.2c2.7-3,5.2-6.1,7.6-9.1c2.4-3.1,4.7-6.2,7-9.4c0.2-0.4,0.4-0.8,0.7-1.1c0.3-0.4,0.6-0.7,0.7-1.1
				c-0.3-1-0.4-2-0.3-3.2c0.1-1.2,0.3-2.3,0.6-3.3c0.4-1,0.9-1.8,1.7-2.5c0.8-0.7,1.7-1.1,2.9-1.3c1.4-0.2,2.7,0.2,3.9,1
				c1.1,0.9,1.8,2.1,2.1,3.5c0.2,1,0.1,1.9-0.1,2.8c-0.2,0.9-0.6,1.9-1,2.8l1.6,0.6c1.5,0.6,3,0.8,4.4,0.8c1.4,0,2.8,0.3,4.2,0.9
				c1.3,0.7,2.3,1.7,3,3c0.7,1.3,0.6,2.5-0.3,3.7c-2.8,3.6-5.3,7-7.5,10.2c-2.3,3.2-4.4,6.5-6.4,9.7c-0.3,0.6-0.9,1.6-1.5,3.1
				c-0.7,1.5-1.2,2.9-1.7,4.2c-0.4,1.3-0.6,2.4-0.4,3.2c0.2,0.8,1,0.7,2.4-0.2c2.8-1.7,5.5-4.1,8-7.1c2.5-3,5.8-6.8,9.7-11.3
				c0.5-0.7,1.1-1.5,1.7-2.2c0.6-0.8,1.3-1.4,2.1-1.8c1.5-0.7,2.9-0.6,4.3,0.4c1.4,0.9,2,2.2,1.8,3.9c-0.1,1-0.5,1.8-1.1,2.5
				c-0.6,0.7-1.1,1.4-1.7,2.1c-1.6,1.9-3,3.5-4.2,4.9c-1.2,1.4-2.2,2.6-3.1,3.6c-0.9,1-1.7,1.9-2.4,2.6c-0.7,0.8-1.3,1.5-2,2.2
				c-1,1-2,2.1-3.1,3.2c-1.1,1.1-2.3,2.1-3.5,3.1c-1.2,1-2.6,1.8-4,2.4c-1.4,0.6-2.9,1-4.4,1.1c-2,0.1-3.8-0.2-5.3-0.9
				c-1.5-0.7-2.7-1.7-3.6-3c-0.9-1.3-1.4-2.7-1.7-4.5c-0.3-1.7-0.2-3.5,0.1-5.3c0.7-3.8,2.1-7.4,4.1-10.8c2.1-3.4,4.2-6.6,6.4-9.8
				c0.6-0.9,1.2-1.8,1.8-2.7c0.6-0.9,1.2-1.8,1.9-2.8c-0.6-0.2-1.3-0.4-2.2-0.7c-0.8-0.3-1.5-0.7-2-1c-0.6,0.9-1.3,1.9-2,2.8
				c-0.7,1-1.5,2.1-2.5,3.3c-0.9,1.2-2.1,2.7-3.4,4.3c-1.3,1.6-2.9,3.6-4.8,5.9c-0.5,0.6-1.1,1.3-1.6,2c-0.5,0.7-1.2,1.3-1.9,1.7
				c-1,0.7-2,0.8-3,0.6c-1-0.3-1.8-0.8-2.4-1.5c-0.6-0.7-1-1.6-1.1-2.6C146.4,223.1,146.7,222.1,147.4,221.2z"/>
			<path class="st0" d="M236.8,245.9c-2.1-2.4-3.2-5.1-3.3-8.1c-0.2-3.1,0.2-6,1.1-8.9c0.9-2.7,2.1-5.3,3.6-7.7
				c1.4-2.4,3.1-4.7,4.9-6.9c1.8-2.2,3.8-4.1,5.8-6c2.1-1.8,4.2-3.5,6.3-5.1c1.6-1.1,3.5-2.2,5.7-3.3c2.2-1.1,4.6-1.9,7-2.4
				c2.4-0.5,4.7-0.6,6.8-0.2c2.1,0.4,3.9,1.5,5.2,3.3c1.2,1.6,1.6,3.5,1.2,5.4c-0.4,2-1,3.8-1.9,5.6c-1.8,3.6-4.3,6.8-7.3,9.8
				c-3.1,2.9-6.4,5.3-9.9,7.1c-2.7,1.3-5.5,2.2-8.4,2.8c-2.9,0.5-5.7,0.4-8.5-0.4c-0.5,1.1-0.9,2.2-1.1,3.2c-0.3,1-0.3,2-0.1,3
				c0.2,1,0.6,1.8,1.2,2.6c0.7,0.8,1.7,1.3,3.1,1.7c2.5,0.7,5.3,0.3,8.4-1.2c3.1-1.4,6.1-3.3,9.1-5.6c3-2.3,5.7-4.7,8.1-7.2
				c2.5-2.5,4.4-4.5,5.7-6c0.6-0.7,1.3-1.5,1.9-2.4c0.7-0.9,1.4-1.6,2.2-2c0.8-0.4,1.7-0.5,2.5-0.4c0.8,0.1,1.5,0.5,2.1,1
				c0.6,0.5,1.1,1.1,1.4,1.8c0.3,0.7,0.3,1.4,0.1,2.1c-0.2,0.9-0.7,1.8-1.4,2.7c-0.8,0.9-1.4,1.7-2,2.4c-3.4,3.8-6,6.6-7.8,8.3
				c-1.8,1.8-3.5,3.3-5.1,4.6c-2.3,2-5,3.9-8.2,5.8c-3.2,1.9-6.5,3.3-9.9,4.2c-3.4,0.9-6.7,1.2-9.9,0.8
				C242,250.2,239.1,248.7,236.8,245.9z M253.6,222.9c3.5-0.9,6.7-2.5,9.5-4.9c2.8-2.4,5.1-4.9,6.9-7.5c0.7-0.9,1.2-1.9,1.4-2.9
				c0.3-1,0.1-1.6-0.4-1.9c-2.5,0.9-4.7,2.1-6.9,3.5c-2.1,1.5-4.1,3-6,4.8c-3.3,2.8-6.1,5.9-8.4,9.2
				C251,223.3,252.3,223.2,253.6,222.9z"/>
			<path class="st0" d="M277.9,223c2.7-3,5.3-6,7.6-9.1c2.4-3.1,4.7-6.2,7-9.4c0.2-0.4,0.4-0.8,0.7-1.1c0.3-0.4,0.6-0.7,0.7-1.1
				c-0.3-1-0.3-2-0.3-3.2c0.1-1.2,0.3-2.3,0.7-3.3c0.4-1,0.9-1.8,1.7-2.5c0.8-0.7,1.8-1.1,2.9-1.3c1.4-0.2,2.7,0.2,3.9,1.1
				c1.1,0.9,1.8,2.1,2.1,3.5c0.2,1,0.1,1.9-0.1,2.8c-0.2,0.9-0.6,1.9-1,2.8l1.6,0.6c1.5,0.6,2.9,0.9,4.4,0.8c1.4,0,2.8,0.3,4.2,1
				c1.3,0.7,2.3,1.7,3,3c0.7,1.3,0.6,2.5-0.3,3.7c-2.8,3.6-5.3,7-7.6,10.2c-2.3,3.2-4.4,6.4-6.4,9.7c-0.3,0.6-0.9,1.6-1.5,3.1
				c-0.7,1.5-1.2,2.9-1.7,4.2c-0.4,1.3-0.6,2.4-0.4,3.2c0.2,0.8,1,0.7,2.4-0.2c2.8-1.7,5.5-4.1,8-7.1c2.5-3,5.8-6.7,9.8-11.3
				c0.5-0.7,1.1-1.5,1.7-2.2c0.6-0.8,1.3-1.4,2.1-1.8c1.5-0.7,3-0.6,4.3,0.4c1.4,0.9,2,2.2,1.8,3.9c-0.1,1-0.5,1.8-1.1,2.5
				c-0.6,0.7-1.2,1.4-1.7,2.1c-1.6,1.9-3,3.5-4.2,4.9c-1.2,1.4-2.2,2.6-3.1,3.6c-0.9,1-1.7,1.9-2.4,2.6c-0.7,0.8-1.3,1.5-2,2.2
				c-1,1-2.1,2.1-3.1,3.2c-1.1,1.1-2.3,2.1-3.5,3.1c-1.3,1-2.6,1.7-4,2.4c-1.4,0.6-2.9,1-4.4,1.1c-2,0.1-3.8-0.2-5.3-0.9
				c-1.5-0.7-2.7-1.7-3.6-3c-0.9-1.3-1.4-2.7-1.7-4.5c-0.3-1.7-0.2-3.5,0.2-5.3c0.7-3.8,2.1-7.4,4.2-10.8c2.1-3.3,4.2-6.6,6.4-9.8
				c0.6-0.9,1.2-1.8,1.8-2.7c0.6-0.9,1.2-1.8,1.9-2.8c-0.6-0.2-1.3-0.4-2.2-0.7c-0.8-0.3-1.5-0.7-2-1c-0.6,0.9-1.3,1.9-2,2.8
				c-0.7,1-1.5,2.1-2.5,3.3c-0.9,1.2-2.1,2.7-3.4,4.3c-1.3,1.6-2.9,3.6-4.8,5.9c-0.5,0.6-1.1,1.3-1.6,2c-0.5,0.7-1.2,1.3-1.9,1.7
				c-1,0.7-2,0.8-3,0.6c-1-0.3-1.8-0.8-2.4-1.5c-0.6-0.7-1-1.6-1-2.6C276.8,224.9,277.2,224,277.9,223z"/>
		</g>
		<g>
			<g>
				<path class="st1" d="M299.1,179.7c-1.2,0.1-2.2-0.1-3-0.5c-0.9-0.4-1.5-1-2-1.8c-0.3-0.5-0.5-1.1-0.6-1.9
					c-0.7,0.6-1.4,1.1-2,1.6c-0.7,0.5-1.4,0.9-2.1,1.4c-1.2,0.6-2.4,1-3.6,1.1c-1.2,0.1-2.4-0.1-3.5-0.7c-1-0.5-1.7-1.3-2-2.2
					c-0.3-1-0.4-2-0.3-3.1c0.1-1.1,0.4-2.1,0.8-3.2c0.4-1,0.9-1.9,1.3-2.6c1.6-2.3,3.3-4.5,5.3-6.6c2-2.1,4.2-3.8,6.7-5.2
					c1.1-0.6,2.3-1.1,3.4-1.5c1.2-0.4,2.4-0.6,3.6-0.4c1.9,0.2,3.3,0.9,4.2,2.2c0.3-0.4,0.7-0.8,1.1-1.1c0.5-0.4,0.9-0.6,1.3-0.6
					c0.7,0,1.4,0.3,1.9,0.9c0.5,0.5,0.8,1.1,0.9,1.8c0,0.7-0.2,1.3-0.7,1.8c-0.7,0.7-1.4,1.4-2.1,2.1c-0.7,0.7-1.4,1.4-2.1,2.3
					c-1.6,1.9-2.9,3.5-4,4.8c-1,1.3-1.9,2.7-2.7,4.1c-0.2,0.4-0.4,0.8-0.5,1.2c-0.1,0.4-0.2,0.8-0.1,1.1c0,0.3,0.2,0.5,0.4,0.6
					c0.2,0.1,0.6,0,1.2-0.2c0.6-0.3,1.2-0.7,1.7-1.2c0.5-0.5,1.1-0.9,1.6-1.5l6-6c0.3-0.3,0.6-0.6,0.9-1c0.3-0.4,0.7-0.6,1-0.8
					c0.8-0.3,1.5-0.2,2.1,0.3c0.6,0.5,0.9,1.1,0.8,2c-0.1,0.5-0.3,0.9-0.6,1.1c-0.3,0.3-0.6,0.6-0.9,0.9c-1.7,1.7-3,3-3.8,3.9
					c-0.9,0.9-1.6,1.6-2.3,2.3c-1,1-2.1,1.9-3.4,2.8C302.1,179,300.7,179.5,299.1,179.7z M295,161.7c-1.7,1.4-3.5,3-5.2,4.9
					c-1.7,1.9-3.1,3.7-4,5.5c-0.1,0.1-0.2,0.4-0.4,0.8c-0.2,0.4-0.3,0.7-0.4,1.1c-0.1,0.4-0.1,0.7-0.1,1c0,0.3,0.3,0.4,0.7,0.4
					c1.1-0.1,2.2-0.5,3.1-1.3c1-0.8,1.9-1.5,2.6-2.1c2.1-1.9,4-3.8,5.7-5.8c1.7-2,3.5-4.1,5.2-6.1c0.1-1-0.2-1.4-0.8-1.4
					c-0.7,0-1.4,0.2-2.3,0.6c-0.9,0.4-1.7,0.9-2.5,1.4C295.7,161.1,295.2,161.5,295,161.7z"/>
				<path class="st1" d="M298.7,180.7c-1.1,0-2.1-0.2-3-0.6c-1.1-0.5-1.9-1.2-2.5-2.2c-0.1-0.2-0.2-0.4-0.3-0.6
					c-0.3,0.2-0.6,0.4-0.8,0.6c-0.7,0.5-1.5,1-2.2,1.4c-1.3,0.7-2.6,1.1-4,1.3c-1.5,0.2-2.8-0.1-4.1-0.8c-1.2-0.7-2.1-1.6-2.5-2.8
					c-0.3-1.1-0.5-2.3-0.4-3.5c0.1-1.2,0.4-2.4,0.9-3.5c0.5-1.1,0.9-2,1.4-2.7c1.6-2.4,3.4-4.7,5.5-6.8c2.1-2.1,4.4-3.9,6.9-5.3
					c1.2-0.6,2.4-1.1,3.6-1.5c1.3-0.4,2.7-0.6,4.1-0.5c1.7,0.1,3.1,0.7,4.2,1.7c0.1-0.1,0.3-0.3,0.5-0.4c0.6-0.5,1.2-0.7,1.8-0.8
					l0.1,0l0.1,0c1,0,1.9,0.4,2.7,1.2c0.7,0.7,1.1,1.6,1.1,2.5c0.1,1-0.3,1.9-0.9,2.6c-0.7,0.7-1.4,1.5-2.1,2.2
					c-0.7,0.7-1.4,1.4-2,2.2c-1.6,1.9-2.9,3.5-3.9,4.8c-1,1.3-1.9,2.6-2.6,3.9c-0.2,0.4-0.4,0.7-0.5,1c0,0.1-0.1,0.2-0.1,0.2
					c0.6-0.3,1.1-0.6,1.5-1c0.5-0.4,1-0.9,1.5-1.4l6-6c0.3-0.3,0.6-0.6,0.9-0.9c0.4-0.5,0.9-0.8,1.4-1.1l0.1,0
					c1.1-0.4,2.2-0.2,3.1,0.4c0.9,0.7,1.4,1.7,1.2,2.9c-0.1,0.8-0.4,1.3-0.9,1.8c-0.3,0.3-0.5,0.6-0.8,0.9c-1.7,1.8-3,3.1-3.9,3.9
					l-2.3,2.3c-1,1-2.2,2-3.5,2.9c-1.4,1-3,1.7-4.8,1.8C299,180.7,298.8,180.7,298.7,180.7z M294.3,173.5l0.2,1.9
					c0.1,0.6,0.2,1.1,0.4,1.5c0.4,0.6,0.9,1.1,1.5,1.4c0.7,0.3,1.5,0.4,2.5,0.4c1.4-0.1,2.6-0.6,3.7-1.4c1.2-0.9,2.3-1.8,3.3-2.8
					l2.3-2.3c0.9-0.9,2.1-2.1,3.8-3.9c0.3-0.3,0.6-0.6,0.9-0.9c0.1-0.1,0.2-0.3,0.3-0.6c0-0.4-0.1-0.7-0.4-0.9
					c-0.4-0.3-0.7-0.3-1.1-0.2c-0.2,0.1-0.5,0.3-0.7,0.6c-0.3,0.4-0.7,0.7-1,1l-6,6c-0.5,0.5-1.1,1.1-1.7,1.5
					c-0.6,0.5-1.2,0.9-1.9,1.3c-0.9,0.5-1.5,0.5-2.1,0.3c-0.6-0.3-0.9-0.8-0.9-1.4c0-0.4,0-0.9,0.2-1.4c0.1-0.5,0.4-1,0.7-1.5
					c0.7-1.4,1.6-2.8,2.7-4.1c1-1.3,2.4-2.9,4-4.8c0.7-0.8,1.4-1.6,2.2-2.3c0.7-0.7,1.4-1.4,2.1-2.1c0.3-0.3,0.4-0.6,0.4-1.1
					c0-0.4-0.2-0.8-0.6-1.2c-0.4-0.4-0.7-0.5-1.1-0.6c-0.1,0-0.4,0.1-0.7,0.4c-0.4,0.3-0.7,0.6-0.9,0.9l-0.9,1.1l-0.8-1.2
					c-0.7-1-1.9-1.6-3.5-1.7c-1.1-0.1-2.2,0-3.2,0.4c-1.1,0.4-2.2,0.9-3.3,1.4c-2.3,1.3-4.5,3-6.4,5c-1.9,2-3.7,4.2-5.2,6.5
					c-0.4,0.6-0.8,1.4-1.2,2.4c-0.4,0.9-0.6,1.9-0.7,2.9c-0.1,0.9,0,1.8,0.3,2.7c0.2,0.7,0.7,1.2,1.5,1.6c0.9,0.5,1.9,0.7,2.9,0.6
					c1.1-0.1,2.2-0.5,3.2-1c0.6-0.4,1.3-0.8,2-1.3c0.6-0.4,1.3-0.9,2-1.5L294.3,173.5z M285.6,176.4c-1.2,0-1.6-0.7-1.7-1.3
					c-0.1-0.4,0-0.9,0.1-1.4c0.1-0.4,0.3-0.8,0.5-1.2c0.2-0.4,0.3-0.6,0.4-0.8c1-1.9,2.4-3.8,4.1-5.7c1.8-1.9,3.6-3.6,5.3-5
					c0.3-0.2,0.8-0.6,1.6-1.2c0.9-0.6,1.8-1.1,2.7-1.5c1-0.4,1.8-0.6,2.6-0.7l0.1,0c0.7,0,1.1,0.3,1.4,0.6c0.4,0.5,0.6,1.1,0.5,2
					l0,0.3l-0.2,0.2c-1.7,2-3.5,4-5.2,6.1c-1.8,2.1-3.7,4.1-5.8,5.9c-0.7,0.6-1.6,1.4-2.6,2.2C288.1,175.7,286.9,176.2,285.6,176.4z
					 M301.2,159.6c-0.5,0-1,0.2-1.7,0.5c-0.8,0.4-1.6,0.8-2.4,1.3c-0.8,0.6-1.3,0.9-1.6,1.1c-1.7,1.3-3.4,2.9-5.1,4.8
					c-1.7,1.8-3,3.6-3.8,5.3l-0.1,0.1c-0.1,0.1-0.2,0.3-0.3,0.6c-0.1,0.3-0.3,0.6-0.3,0.9c0,0,0,0,0,0c0.7-0.1,1.4-0.5,2.1-1
					c1-0.8,1.8-1.5,2.5-2.1c2-1.8,3.9-3.7,5.6-5.7C297.8,163.4,299.5,161.5,301.2,159.6L301.2,159.6z"/>
			</g>
			<g>
				<path class="st1" d="M336.6,167.6c0.3-0.3,0.6-0.7,0.9-1c0.3-0.3,0.7-0.5,1.1-0.7c0.8-0.2,1.4-0.1,2,0.4
					c0.6,0.5,0.8,1.1,0.6,1.9c-0.1,0.4-0.3,0.8-0.6,1.1c-0.3,0.3-0.6,0.6-0.9,0.9c-2.5,2.5-4.7,4.5-6.6,6c-1.9,1.4-3.7,2.5-5.1,3.1
					c-1.5,0.7-2.8,1-3.9,1.1c-1.1,0-2,0-2.8-0.2c-1.1-0.3-1.9-0.8-2.6-1.4c-0.6-0.7-1.1-1.4-1.4-2.4c-0.3-0.9-0.4-2-0.3-3.1
					c0.1-1.1,0.3-2.3,0.7-3.5c0.7-2,1.6-4.1,2.7-6.3c1.1-2.2,2.4-4.3,3.8-6.3c1.4-2.1,2.8-4,4.2-5.9c1.5-1.8,2.8-3.5,4.1-4.9
					c1.4-1.5,2.9-3,4.4-4.5c1.5-1.5,3.2-2.7,5.1-3.7c0.6-0.3,1.4-0.7,2.3-1c0.9-0.3,1.8-0.5,2.7-0.6c0.9-0.1,1.7,0,2.5,0.3
					c0.8,0.3,1.5,0.8,2,1.7c0.6,0.9,0.8,1.8,0.7,2.8c-0.1,1-0.4,1.9-0.9,2.9c-0.5,0.9-1,1.8-1.6,2.7c-0.6,0.8-1.2,1.6-1.7,2.2
					c-1.4,1.7-2.9,3.2-4.4,4.7c-1.5,1.5-3.1,2.9-4.7,4.3c-1.1,0.9-2.2,1.7-3.4,2.6c-1.2,0.9-2.4,1.7-3.5,2.5
					c-1.2,0.8-2.4,1.6-3.5,2.2c-1.2,0.7-2.3,1.3-3.4,1.8c-0.4,0.5-0.7,0.9-1,1.4c-0.3,0.5-0.6,0.9-0.8,1.3c-0.9,1.6-1.2,3-1.1,4.1
					c0.1,1.1,0.5,1.8,1.1,2c0.5,0.2,1.2,0.1,2.1-0.2c0.9-0.3,1.9-0.9,3.1-1.6c1.2-0.7,2.4-1.7,3.8-2.8
					C333.7,170.4,335.1,169.1,336.6,167.6z M333.4,157.3c2-1.5,3.9-3.1,5.7-4.8c1.8-1.6,3.6-3.4,5.2-5.3c0.7-0.8,1.3-1.6,1.9-2.4
					c0.6-0.8,1.1-1.7,1.5-2.6c0.1-0.4,0.1-0.6-0.1-0.6c-0.2,0-0.5,0-0.9,0.2c-0.4,0.1-0.8,0.3-1.2,0.6c-0.4,0.2-0.8,0.5-1,0.6
					c-1.9,1.4-3.6,2.9-5.3,4.5c-1.6,1.6-3.1,3.3-4.5,5.1c-1,1.2-1.9,2.5-2.8,3.7c-0.9,1.2-1.8,2.5-2.6,3.9c0.7-0.5,1.4-0.9,2-1.4
					C332.1,158.3,332.7,157.8,333.4,157.3z"/>
				<path class="st1" d="M324,181.6c-1.1,0-2.1-0.1-2.9-0.3c-1.2-0.3-2.3-0.9-3-1.7c-0.8-0.8-1.3-1.7-1.6-2.8
					c-0.3-1.1-0.4-2.2-0.4-3.4c0.1-1.2,0.3-2.4,0.8-3.7c0.7-2.1,1.6-4.2,2.8-6.4c1.2-2.2,2.4-4.3,3.8-6.4c1.4-2.1,2.8-4.1,4.3-5.9
					c1.4-1.8,2.9-3.5,4.2-5c1.4-1.6,2.9-3.1,4.5-4.5c1.6-1.5,3.4-2.8,5.3-3.8c0.7-0.4,1.5-0.7,2.4-1.1c1-0.4,2-0.6,2.9-0.7
					c1.1-0.1,2,0,3,0.3c1,0.3,1.9,1.1,2.5,2.2c0.7,1,1,2.2,0.8,3.4c-0.1,1.1-0.5,2.2-1,3.2c-0.5,1-1.1,1.9-1.7,2.8
					c-0.6,0.8-1.2,1.6-1.7,2.2c-1.4,1.7-3,3.3-4.5,4.8c-1.5,1.4-3.1,2.9-4.8,4.3c-1.1,0.9-2.2,1.8-3.4,2.6c-1.2,0.9-2.4,1.7-3.6,2.5
					c-1.2,0.8-2.4,1.6-3.6,2.3c-1.1,0.7-2.2,1.2-3.2,1.7c-0.3,0.4-0.6,0.8-0.8,1.1c-0.3,0.4-0.5,0.9-0.8,1.3c-0.8,1.4-1.1,2.6-1,3.5
					c0.1,0.7,0.3,1.1,0.5,1.2c0.1,0,0.4,0.1,1.3-0.2c0.8-0.3,1.8-0.8,2.9-1.5c1.1-0.7,2.4-1.6,3.7-2.7c1.3-1.1,2.8-2.4,4.2-3.9
					c0.3-0.3,0.6-0.6,0.9-1c0.4-0.4,0.9-0.7,1.5-0.9c1.2-0.4,2.2-0.1,3,0.6c0.8,0.8,1.2,1.7,1,2.9c-0.1,0.6-0.4,1.2-0.8,1.6
					c-0.3,0.4-0.6,0.7-0.9,1c-2.5,2.5-4.7,4.6-6.7,6c-2,1.5-3.8,2.6-5.3,3.3c-1.6,0.7-3,1.1-4.3,1.1L324,181.6z M347.7,137.8
					c-0.1,0-0.3,0-0.4,0c-0.8,0.1-1.6,0.3-2.4,0.6c-0.8,0.3-1.6,0.6-2.2,0.9c-1.7,0.9-3.4,2.1-4.8,3.5c-1.5,1.4-3,2.9-4.4,4.4
					c-1.3,1.4-2.7,3.1-4.1,4.9c-1.4,1.8-2.8,3.8-4.2,5.8c-1.3,2-2.6,4.1-3.7,6.2c-1.1,2.1-2,4.2-2.7,6.1c-0.4,1.1-0.6,2.2-0.7,3.2
					c-0.1,1,0,1.9,0.3,2.7c0.2,0.8,0.6,1.4,1.1,2c0.5,0.5,1.2,0.9,2.1,1.1c0.6,0.2,1.4,0.2,2.3,0.2l0.2,0c1,0,2.2-0.4,3.5-1
					c1.4-0.6,3.1-1.7,4.9-3c1.9-1.4,4.1-3.4,6.5-5.8c0.3-0.3,0.6-0.6,0.8-0.9c0.2-0.2,0.3-0.4,0.4-0.7c0.1-0.4,0-0.6-0.3-0.9
					c-0.3-0.3-0.6-0.3-1-0.2c-0.3,0.1-0.5,0.2-0.7,0.4c-0.3,0.3-0.6,0.6-0.9,0.9c-1.6,1.6-3,2.9-4.4,4.1c-1.4,1.2-2.7,2.1-3.9,2.9
					c-1.2,0.8-2.3,1.3-3.3,1.7c-0.7,0.2-1.2,0.4-1.7,0.4l0,0c-0.4,0-0.8-0.1-1.1-0.2c-1-0.4-1.6-1.3-1.8-2.9
					c-0.2-1.3,0.2-2.9,1.2-4.7c0.3-0.5,0.5-0.9,0.8-1.4c0.3-0.5,0.7-1,1.1-1.5l0.2-0.2l0.2-0.1c1-0.5,2.1-1,3.3-1.7
					c1.2-0.7,2.3-1.4,3.5-2.2c1.2-0.8,2.3-1.6,3.5-2.5c1.2-0.8,2.3-1.7,3.3-2.5c1.6-1.4,3.2-2.8,4.7-4.2c1.5-1.4,2.9-3,4.3-4.6
					c0.5-0.6,1-1.3,1.6-2.1c0.6-0.8,1.1-1.6,1.5-2.5c0.4-0.8,0.7-1.7,0.8-2.6c0.1-0.7-0.1-1.4-0.5-2.1c-0.4-0.7-0.9-1.1-1.4-1.3
					C348.8,137.9,348.2,137.8,347.7,137.8z M325.8,163.9l2.6-4.3c0.8-1.4,1.7-2.7,2.7-4c0.9-1.2,1.9-2.5,2.8-3.8
					c1.4-1.9,3-3.6,4.6-5.2c1.6-1.6,3.5-3.2,5.4-4.6c0.3-0.2,0.6-0.4,1.1-0.7c0.5-0.3,0.9-0.5,1.3-0.6c0.5-0.2,1-0.3,1.4-0.2
					c0.4,0.1,0.7,0.3,0.9,0.6c0.3,0.6,0.1,1.2,0,1.4c-0.4,1.1-1,2-1.6,2.9c-0.6,0.8-1.3,1.6-1.9,2.4c-1.7,1.9-3.5,3.8-5.3,5.4
					c-1.9,1.7-3.8,3.3-5.8,4.8c-0.7,0.5-1.4,1-2.1,1.5c-0.7,0.4-1.3,0.9-2,1.4L325.8,163.9z M346.1,143.2
					C346.1,143.2,346.1,143.2,346.1,143.2c-0.5,0.3-0.7,0.4-0.9,0.6c-1.9,1.4-3.6,2.8-5.2,4.4c-1.6,1.6-3.1,3.2-4.4,5
					c-0.7,0.9-1.4,1.8-2.1,2.7c1.7-1.3,3.3-2.7,4.9-4.1c1.8-1.6,3.5-3.4,5.1-5.2c0.7-0.8,1.3-1.6,1.9-2.4
					C345.7,143.9,345.9,143.5,346.1,143.2z"/>
			</g>
			<g>
				<path class="st1" d="M351.6,181.1c-1.2,0.1-2.2-0.1-3-0.4c-0.9-0.4-1.5-1-2-1.8c-0.3-0.5-0.5-1.1-0.6-1.9
					c-0.7,0.6-1.4,1.1-2,1.6c-0.7,0.5-1.4,0.9-2.1,1.4c-1.2,0.6-2.4,1-3.6,1.1c-1.2,0.1-2.4-0.1-3.5-0.7c-1-0.5-1.7-1.3-2-2.2
					c-0.3-1-0.4-2-0.3-3.1c0.1-1.1,0.4-2.1,0.8-3.2c0.4-1,0.9-1.9,1.3-2.6c1.6-2.3,3.3-4.6,5.3-6.6c2-2.1,4.2-3.8,6.7-5.2
					c1.1-0.6,2.3-1.1,3.4-1.5c1.2-0.4,2.4-0.6,3.6-0.4c1.9,0.2,3.3,0.9,4.2,2.2c0.3-0.4,0.7-0.8,1.1-1.1c0.5-0.4,0.9-0.6,1.3-0.6
					c0.7,0,1.4,0.3,1.9,0.9c0.5,0.5,0.8,1.1,0.9,1.8c0,0.7-0.2,1.3-0.7,1.8c-0.7,0.7-1.4,1.4-2.1,2.1c-0.7,0.7-1.4,1.4-2.1,2.3
					c-1.6,1.9-2.9,3.5-4,4.8c-1,1.3-1.9,2.7-2.7,4.1c-0.2,0.4-0.4,0.8-0.5,1.2c-0.1,0.4-0.2,0.8-0.2,1.1c0,0.3,0.2,0.5,0.4,0.6
					c0.2,0.1,0.6,0,1.2-0.2c0.6-0.3,1.2-0.7,1.7-1.2c0.5-0.5,1.1-0.9,1.6-1.5l6-6c0.3-0.3,0.6-0.6,0.9-1c0.3-0.4,0.7-0.6,1-0.8
					c0.8-0.3,1.5-0.2,2.1,0.3c0.6,0.5,0.9,1.1,0.8,2c-0.1,0.5-0.3,0.9-0.6,1.2c-0.3,0.3-0.6,0.6-0.9,0.9c-1.7,1.7-3,3-3.8,3.9
					c-0.9,0.9-1.6,1.6-2.3,2.3c-1,1-2.1,1.9-3.4,2.8C354.6,180.4,353.2,181,351.6,181.1z M347.4,163.1c-1.7,1.4-3.5,3-5.2,4.9
					c-1.7,1.9-3.1,3.7-4,5.5c-0.1,0.1-0.2,0.4-0.4,0.8c-0.2,0.4-0.3,0.7-0.4,1.1c-0.1,0.4-0.1,0.7-0.1,1c0,0.3,0.3,0.4,0.6,0.4
					c1.1-0.1,2.2-0.5,3.1-1.3c1-0.8,1.8-1.5,2.6-2.1c2.1-1.9,4-3.8,5.7-5.8c1.7-2,3.5-4.1,5.2-6.1c0.1-1-0.2-1.4-0.8-1.4
					c-0.7,0-1.4,0.2-2.3,0.6c-0.9,0.4-1.7,0.9-2.5,1.4C348.2,162.6,347.7,162.9,347.4,163.1z"/>
				<path class="st1" d="M351.1,182.2c-1.1,0-2.1-0.2-3-0.6c-1.1-0.5-1.9-1.2-2.5-2.2c-0.1-0.2-0.2-0.4-0.3-0.6
					c-0.3,0.2-0.6,0.4-0.8,0.6c-0.7,0.5-1.5,1-2.2,1.4c-1.3,0.7-2.6,1.1-4,1.3c-1.4,0.2-2.8-0.1-4.1-0.8c-1.2-0.7-2.1-1.6-2.5-2.8
					c-0.4-1.1-0.5-2.3-0.4-3.5c0.1-1.2,0.4-2.4,0.9-3.5c0.5-1.1,0.9-2,1.4-2.7c1.6-2.4,3.4-4.7,5.5-6.8c2.1-2.1,4.4-3.9,6.9-5.3
					c1.2-0.6,2.4-1.1,3.6-1.5c1.3-0.4,2.7-0.6,4.1-0.5c1.7,0.1,3.1,0.7,4.2,1.7c0.1-0.1,0.3-0.3,0.5-0.4c0.6-0.5,1.2-0.7,1.8-0.8
					l0.1,0l0.1,0c1,0,1.9,0.4,2.7,1.2c0.7,0.7,1.1,1.6,1.1,2.5c0.1,1-0.3,1.9-0.9,2.6c-0.7,0.7-1.4,1.5-2.2,2.2
					c-0.7,0.7-1.4,1.4-2,2.2c-1.6,1.9-2.9,3.5-3.9,4.8c-1,1.2-1.8,2.6-2.6,3.9c-0.2,0.4-0.4,0.7-0.5,1c0,0.1,0,0.2-0.1,0.3
					c0.6-0.3,1.1-0.6,1.5-1c0.5-0.4,1-0.9,1.5-1.4l6-6c0.3-0.3,0.6-0.6,0.9-0.9c0.4-0.5,0.9-0.8,1.4-1.1l0.1,0
					c1.1-0.4,2.2-0.3,3.1,0.4c0.9,0.7,1.4,1.7,1.2,2.9c-0.2,0.8-0.4,1.3-0.9,1.8c-0.3,0.3-0.5,0.6-0.8,0.9c-1.7,1.8-3,3.1-3.9,3.9
					l-2.3,2.3c-1,1-2.2,2-3.5,2.9c-1.4,1-3,1.7-4.8,1.8C351.5,182.2,351.3,182.2,351.1,182.2z M346.8,174.9l0.2,1.9
					c0.1,0.6,0.2,1.1,0.4,1.5c0.4,0.6,0.9,1.1,1.5,1.4c0.7,0.3,1.6,0.4,2.5,0.4c1.4-0.1,2.6-0.6,3.7-1.4c1.2-0.9,2.3-1.8,3.3-2.8
					l2.3-2.3c0.9-0.9,2.1-2.1,3.8-3.9c0.3-0.3,0.6-0.6,0.9-0.9c0.1-0.1,0.2-0.3,0.3-0.6c0-0.4-0.1-0.7-0.4-0.9
					c-0.4-0.3-0.7-0.3-1.1-0.2c-0.2,0.1-0.5,0.3-0.7,0.6c-0.3,0.4-0.7,0.7-1,1l-6,6c-0.5,0.5-1.1,1-1.6,1.5
					c-0.6,0.5-1.2,0.9-1.9,1.3c-0.9,0.5-1.6,0.5-2.1,0.3c-0.6-0.3-0.9-0.8-1-1.5c0-0.4,0-0.9,0.2-1.4c0.1-0.5,0.4-1,0.7-1.5
					c0.7-1.4,1.6-2.8,2.7-4.1c1-1.3,2.4-2.9,4-4.8c0.7-0.8,1.4-1.6,2.2-2.3c0.7-0.7,1.4-1.4,2.1-2.1c0.3-0.3,0.4-0.6,0.4-1.1
					c0-0.4-0.2-0.8-0.6-1.2c-0.4-0.4-0.7-0.6-1.1-0.6c-0.1,0-0.4,0.1-0.7,0.4c-0.4,0.3-0.7,0.6-0.9,0.9l-0.9,1.1l-0.8-1.2
					c-0.7-1-1.9-1.6-3.5-1.7c-1.1-0.1-2.2,0-3.2,0.4c-1.1,0.4-2.2,0.9-3.3,1.4c-2.3,1.3-4.5,3-6.4,5c-1.9,2-3.7,4.2-5.2,6.5
					c-0.4,0.6-0.8,1.4-1.2,2.4c-0.4,0.9-0.6,1.9-0.7,2.9c-0.1,0.9,0,1.8,0.3,2.7c0.2,0.7,0.7,1.2,1.5,1.6c0.9,0.5,1.9,0.7,2.9,0.6
					c1.1-0.1,2.2-0.5,3.2-1c0.6-0.4,1.3-0.8,2-1.3c0.6-0.5,1.3-1,2-1.5L346.8,174.9z M338,177.8c-1.2,0-1.6-0.7-1.7-1.3
					c-0.1-0.4,0-0.9,0.1-1.4c0.1-0.4,0.3-0.8,0.5-1.2c0.2-0.4,0.3-0.6,0.4-0.8c1-1.9,2.4-3.8,4.1-5.7c1.8-1.9,3.6-3.6,5.3-5
					c0.3-0.2,0.8-0.6,1.6-1.2c0.9-0.6,1.8-1.1,2.7-1.5c1-0.4,1.8-0.6,2.6-0.7l0.1,0c0.7,0,1.1,0.3,1.4,0.6c0.4,0.5,0.6,1.1,0.5,2
					l0,0.3l-0.2,0.2c-1.7,2-3.5,4-5.2,6.1c-1.8,2.1-3.7,4.1-5.8,5.9c-0.7,0.6-1.6,1.4-2.6,2.2C340.6,177.2,339.4,177.7,338,177.8z
					 M353.6,161c-0.5,0-1,0.2-1.7,0.5c-0.8,0.4-1.6,0.8-2.4,1.3c-0.8,0.6-1.3,0.9-1.5,1.1c-1.7,1.3-3.4,2.9-5.1,4.8
					c-1.7,1.8-3,3.6-3.8,5.3l-0.1,0.1c-0.1,0.1-0.2,0.3-0.3,0.6c-0.1,0.3-0.3,0.6-0.3,0.9c0,0,0,0,0,0c0.7-0.1,1.4-0.5,2.1-1
					c1-0.8,1.8-1.5,2.5-2.1c2-1.8,3.9-3.7,5.6-5.7C350.3,164.9,352,162.9,353.6,161L353.6,161z"/>
			</g>
		</g>
		<g>
			<path class="st1" d="M87.9,184.3c-2.3,0.3-4.4,0.1-6.1-0.6c-1.8-0.7-3.2-1.9-4.2-3.5c-0.6-0.9-1.1-2.2-1.3-3.7
				c-1.3,1.2-2.6,2.3-4,3.3c-1.3,1-2.7,2-4.1,2.9c-2.3,1.3-4.7,2.2-7.1,2.6c-2.5,0.4-4.8,0-7.1-1.1c-2.1-1-3.5-2.4-4.2-4.4
				c-0.7-1.9-1-4-0.9-6.2c0.1-2.2,0.6-4.3,1.4-6.5c0.8-2.1,1.6-3.9,2.4-5.3c2.9-4.9,6.3-9.5,10.2-13.8c3.9-4.3,8.2-8,13.1-11
				c2.2-1.2,4.5-2.3,6.8-3.2c2.3-0.9,4.8-1.3,7.3-1.2c3.9,0.2,6.8,1.5,8.7,4.1c0.6-0.8,1.3-1.6,2.2-2.3c0.9-0.8,1.7-1.2,2.5-1.3
				c1.5-0.1,2.8,0.5,4,1.6c1.1,1,1.7,2.2,1.9,3.6c0.1,1.4-0.2,2.7-1.2,3.8c-1.3,1.5-2.7,3-4.1,4.4c-1.4,1.5-2.8,3-4,4.7
				c-3.1,3.9-5.6,7.2-7.6,10c-2,2.7-3.7,5.5-5,8.4c-0.5,0.8-0.8,1.6-1,2.5c-0.2,0.9-0.3,1.6-0.2,2.2c0.1,0.6,0.4,1,0.8,1.2
				c0.5,0.2,1.3,0,2.3-0.6c1.2-0.7,2.4-1.6,3.4-2.5c1-1,2.1-2,3.1-3.1l11.6-12.5c0.6-0.6,1.1-1.3,1.7-2c0.6-0.8,1.3-1.3,2-1.7
				c1.5-0.6,3-0.5,4.3,0.4c1.3,0.9,1.9,2.2,1.8,3.9c-0.2,1-0.5,1.8-1.1,2.4c-0.6,0.6-1.1,1.3-1.7,2c-3.3,3.6-5.7,6.3-7.4,8.1
				c-1.7,1.8-3.2,3.4-4.5,4.8c-2,2-4.2,4-6.6,6C93.9,182.7,91.1,183.9,87.9,184.3z M78,148.4c-3.4,2.9-6.8,6.4-10.1,10.3
				c-3.4,3.9-5.9,7.7-7.6,11.5c-0.2,0.3-0.4,0.8-0.7,1.6c-0.3,0.7-0.6,1.5-0.7,2.2c-0.2,0.7-0.2,1.4-0.1,2c0.1,0.6,0.6,0.9,1.3,0.8
				c2.2-0.3,4.3-1.2,6.2-2.9c1.9-1.7,3.6-3.2,5-4.5c4-3.9,7.7-8,11.1-12.3c3.3-4.2,6.7-8.5,10-12.7c0.1-1.9-0.5-2.9-1.8-2.8
				c-1.3,0-2.8,0.5-4.5,1.3c-1.7,0.8-3.4,1.9-5,3.1C79.5,147.2,78.5,148,78,148.4z"/>
			<path class="st1" d="M148.7,178.3c-1.1-1.8-1.6-3.8-1.5-5.8c0.2-2.1,0.6-4,1.3-5.8c1.6-3.8,4.1-7.7,7.4-11.6
				c3.4-3.9,7.4-8.4,12-13.5c0.8-0.9,1.4-1.7,1.8-2.5c0.4-0.7-0.3-0.8-1.9-0.3c-2.3,0.9-4.5,2.1-6.5,3.6c-2,1.5-3.9,3.1-5.7,4.7
				c-4.6,4.2-8.7,8.5-12.3,12.9c-3.6,4.5-7.1,9.1-10.4,14l-1.7,2.4c-0.6,0.8-1.5,1.3-2.4,1.5c-1,0.2-1.9,0.2-2.9,0
				c-1-0.3-1.9-0.7-2.7-1.4c-0.8-0.6-1.3-1.4-1.4-2.3c-0.2-0.8-0.2-1.5,0.2-2.3c0.4-0.7,0.7-1.5,1.1-2.2c2.3-4.2,4.8-8,7.6-11.4
				c2.8-3.4,5.6-6.9,8.5-10.4c0.1-0.1,0.6-0.7,1.5-1.7c0.9-1,1.7-2.1,2.6-3.2c0.8-1.1,1.4-2,1.8-2.8c0.4-0.7,0.1-0.9-0.9-0.6
				c-2.4,0.9-4.6,2-6.7,3.5c-2.1,1.5-4.1,3-5.9,4.7c-2.1,1.7-4,3.6-5.9,5.5c-1.9,2-3.7,3.9-5.5,6c-2.6,2.9-4.9,5.9-6.9,8.8
				c-2,3-3.8,6.1-5.4,9.2c-0.5,0.7-0.9,1.4-1.2,2.2c-0.4,0.7-0.9,1.3-1.7,1.6c-1.4,0.5-2.9,0.4-4.5-0.3c-1.6-0.7-2.6-1.8-3.2-3.2
				c-0.3-0.8-0.3-1.5-0.1-2.2c0.3-0.7,0.6-1.3,1-1.9c2-3.6,3.9-6.8,5.6-9.8c1.7-3,3.5-5.9,5.3-8.6c1.8-2.8,3.8-5.6,5.9-8.4
				c2.1-2.8,4.6-5.8,7.5-9.2c1.6-1.8,2.7-3,3.4-3.7c0.7-0.7,1.2-1.1,1.7-1.3c1.3-0.5,2.7-0.4,3.9,0.4c1.3,0.8,2.2,1.9,2.7,3.2
				c2.1-1.5,4.2-2.8,6.3-3.9c2.1-1,4.3-1.7,6.6-2c1.9-0.3,3.8-0.1,5.5,0.5c1.7,0.6,3,1.9,3.7,3.8c0.1,0.3,0.2,0.6,0.2,0.8
				c0.1,0.2,0.1,0.5,0.1,0.8c2.5-2,5.3-3.8,8.3-5.3c3-1.5,6-2,9.3-1.6c2.8,0.4,4.8,1.8,6,4.3c0.5,1.2,0.7,2.5,0.6,3.8
				c-0.1,1.3-0.4,2.5-0.9,3.7c-0.5,1.2-1.1,2.4-1.8,3.6c-0.7,1.1-1.5,2.2-2.2,3.2c-2.4,3.2-4.9,6.2-7.5,8.9c-2.6,2.8-5,5.6-7.3,8.6
				c-1.7,2.2-2.7,3.8-3.2,4.9c-0.5,1-0.6,1.7-0.4,2.1c0.2,0.3,0.7,0.3,1.5,0c0.8-0.3,1.6-0.8,2.6-1.3c0.9-0.6,1.9-1.2,2.8-2
				c0.9-0.8,1.7-1.4,2.3-1.9c2.4-2,4.7-4.2,6.6-6.4c2-2.3,4-4.4,6.2-6.6c0.6-0.6,1.2-1.3,1.8-2.1c0.7-0.8,1.4-1.4,2.1-1.8
				c1.5-0.6,3-0.5,4.3,0.5c1.3,1,1.9,2.3,1.8,3.9c-0.2,1-0.6,1.8-1.2,2.4c-0.7,0.7-1.3,1.3-1.8,2c-1.7,1.9-3.1,3.5-4.4,4.8
				c-1.3,1.3-2.4,2.5-3.3,3.5c-0.9,1-1.8,1.9-2.5,2.6c-0.8,0.7-1.5,1.4-2.1,2c-2.5,2.4-5.1,4.4-7.6,6c-2.6,1.5-5,2.6-7.2,3.1
				c-2.2,0.5-4.3,0.5-6.1,0.1C151.2,181,149.8,179.9,148.7,178.3z"/>
			<path class="st1" d="M214.2,163.1c-2.7,3.3-5.2,6.1-7.6,8.3c-2.3,2.2-4.8,4.1-7.2,5.5c-2.8,1.6-5.9,2.7-9.3,3.5
				c-3.5,0.8-6.6,0.4-9.5-1.1c-2-1.2-3.3-2.7-4-4.4c-0.7-1.8-1-3.7-1-5.6c0-2,0.3-4,0.9-6c0.6-2,1.3-3.8,2-5.4
				c2.5-5.3,5.6-10.3,9.4-14.9c3.7-4.6,8-8.3,12.9-11c2.8-1.7,5.8-2.9,9.3-3.5c3.4-0.6,6.6-0.2,9.4,1.2c1.9,1.1,3.2,2.6,3.9,4.4
				c0.7,1.8,1.1,3.7,1,5.7c-0.1,2-0.4,4-1,6c-0.6,2-1.3,3.8-2,5.2l-2,4c3.9-0.2,7.1-1.6,9.8-4.1c0.7-0.8,1.5-1.5,2.3-2
				c0.8-0.5,1.8-0.6,3-0.4c1.1,0.3,1.9,0.8,2.5,1.7c0.6,0.9,0.8,1.9,0.7,3c-0.2,1.2-0.7,2.2-1.7,3c-1,0.9-1.9,1.7-2.8,2.4
				c-2.9,2.3-6,3.8-9.3,4.5C220.5,163.8,217.3,163.8,214.2,163.1z M185.9,167.8c-0.5,2-0.5,3.2-0.1,3.8c0.5,0.6,1.1,0.8,2.1,0.6
				c0.9-0.2,1.9-0.6,3.1-1.3c1.1-0.7,2.1-1.4,3-2c2.2-1.6,4.1-3.4,5.9-5.2c1.8-1.9,3.5-3.8,5-5.8c-1.7-1.6-3-3.4-3.9-5.5
				c-0.9-2.1-1.5-4.2-1.8-6.4c-2.9,3.2-5.6,6.7-8.1,10.4C188.6,160,186.9,163.9,185.9,167.8z M208.2,138.6c-0.2,0.6-0.3,1.3-0.4,2.3
				c-0.1,0.9-0.1,1.9,0,3.1c0,1.1,0.2,2.3,0.6,3.4c0.3,1.2,0.8,2.2,1.4,3.2c1.2-1.7,2.1-3.3,2.7-4.8c0.6-1.5,1-3,1.4-4.3
				c0.2-1.3,0.3-2.2,0-2.9c-0.2-0.7-0.6-1.1-1.2-1.2c-0.6-0.1-1.3,0-2.1,0.2C209.7,137.7,208.9,138.1,208.2,138.6z"/>
			<path class="st1" d="M230.1,149.9c2.8-2.9,5.4-5.9,7.9-8.9c2.5-3,4.9-6.1,7.3-9.2c0.2-0.4,0.4-0.8,0.8-1.1
				c0.3-0.3,0.6-0.7,0.8-1.1c-0.2-1-0.3-2-0.2-3.2c0.1-1.2,0.4-2.2,0.8-3.2c0.4-1,1-1.8,1.8-2.5c0.8-0.7,1.8-1.1,2.9-1.2
				c1.4-0.1,2.7,0.2,3.8,1.2c1.1,0.9,1.8,2.1,2,3.6c0.1,1,0.1,1.9-0.2,2.8c-0.3,0.9-0.6,1.8-1.1,2.7l1.6,0.7
				c1.5,0.6,2.9,0.9,4.3,0.9c1.4,0,2.8,0.4,4.2,1.1c1.3,0.7,2.3,1.8,3,3.1c0.7,1.3,0.6,2.6-0.4,3.7c-2.9,3.5-5.5,6.8-7.9,10
				c-2.4,3.1-4.6,6.3-6.7,9.5c-0.4,0.6-0.9,1.6-1.6,3c-0.7,1.4-1.3,2.8-1.8,4.1c-0.5,1.3-0.6,2.4-0.5,3.2c0.2,0.8,1,0.7,2.4-0.1
				c2.9-1.7,5.6-3.9,8.2-6.9c2.6-2.9,6-6.6,10.1-11c0.6-0.7,1.2-1.4,1.8-2.2c0.7-0.8,1.4-1.3,2.1-1.8c1.5-0.6,3-0.5,4.3,0.5
				c1.3,1,1.9,2.3,1.7,3.9c-0.2,1-0.5,1.8-1.1,2.4c-0.6,0.7-1.2,1.3-1.7,2c-1.7,1.8-3.1,3.4-4.3,4.7c-1.2,1.4-2.3,2.5-3.2,3.5
				c-0.9,1-1.8,1.8-2.5,2.6c-0.7,0.8-1.4,1.5-2,2.2c-1,1-2.1,2-3.2,3.1c-1.1,1.1-2.3,2-3.6,3c-1.3,0.9-2.6,1.7-4.1,2.3
				c-1.4,0.6-2.9,0.9-4.5,1c-2,0.1-3.8-0.3-5.3-1c-1.5-0.8-2.6-1.8-3.5-3.1c-0.8-1.3-1.3-2.8-1.5-4.5c-0.2-1.7-0.1-3.5,0.3-5.3
				c0.8-3.8,2.3-7.4,4.5-10.6c2.2-3.3,4.4-6.5,6.7-9.6c0.6-0.9,1.3-1.8,1.9-2.7c0.6-0.9,1.3-1.8,2-2.7c-0.6-0.2-1.3-0.4-2.1-0.8
				c-0.8-0.4-1.5-0.7-2-1.1c-0.6,0.9-1.3,1.8-2.1,2.8c-0.7,1-1.6,2-2.6,3.2c-1,1.2-2.1,2.6-3.5,4.2c-1.3,1.6-3,3.5-5,5.7
				c-0.6,0.6-1.1,1.3-1.7,2c-0.6,0.7-1.2,1.3-2,1.7c-1,0.6-2.1,0.8-3,0.5c-1-0.3-1.8-0.8-2.4-1.6c-0.6-0.8-0.9-1.6-1-2.7
				C229,151.7,229.4,150.8,230.1,149.9z"/>
		</g>
		<path class="st0" d="M235,233.2c-4.4,3.8-9,7-13.9,9.4l-1.4,0.7l0.7-1.4c2.1-4.3,4.3-9,6.5-13.7c2.2-4.8,4.4-9.4,6.4-13.8
			c0.5-1,0.5-1.9,0-2.7c-0.6-0.9-1.4-1.5-2.4-1.9c-1-0.4-2.1-0.5-3.2-0.3c-1.1,0.2-1.9,0.8-2.5,1.7c-2.2,3.7-4.5,7.1-6.8,10.2
			c-2.3,3.1-4.6,5.8-6.8,7.9c-2.2,2.2-4.4,3.7-6.5,4.6c-2.2,0.9-4.2,1-6,0.1c-1.2-0.6-1.9-1.7-2.1-3.5c-0.2-1.6,0.1-3.5,0.7-5.6
			c0.6-2.1,1.7-4.3,3.2-6.5c1.5-2.3,3.3-4.4,5.6-6.2c2.2-1.9,4.8-3.4,7.5-4.7c2.8-1.2,6-1.9,9.4-1.9c2.7,0,4.9,0.3,6.7,1
			c1.8,0.7,3.4,1.7,4.6,3c0.4,0.4,1,0.5,1.7,0.2c0.8-0.3,1.5-1,2.1-1.8c0.6-0.9,0.9-1.9,0.9-3.1c0-1.2-0.5-2.3-1.6-3.5
			c-1.1-1.2-2.9-2.2-5.5-3.1c-2.4-0.8-5.2-1.2-8.3-1.2l-0.5,0c-3.3,0-7,0.7-10.8,1.8c-3.8,1.1-7.6,3.2-11.2,6
			c-3.6,2.9-6.8,6-9.3,9.4c-2.5,3.4-4.4,6.8-5.6,10.2c-1.2,3.4-1.6,6.6-1.2,9.7c0.4,3,1.6,5.7,3.8,7.9c1.6,1.7,3.4,2.7,5.3,3.1
			c2,0.4,4.1,0.3,6.1-0.1c2.1-0.5,4.1-1.3,6-2.4c2-1.1,3.7-2.4,5.1-3.7l3.5-3.2l-8.6,12.5l-0.2,0.1c-1.7,0.5-3.6,0.8-5.7,0.9
			c-2.1,0.1-4.6-0.1-7.3-0.6c-1.4-0.3-2.8-0.5-4.1-0.5c-2.3,0-4.5,0.5-6.5,1.5c-3.1,1.5-5.3,3.5-6.6,5.8c-1.3,2.3-1.4,4.6-0.4,7.1
			c1,2.5,3.7,4.3,7.9,5.4c3.3,1,6.6,1.3,9.6,1.1c3-0.2,5.9-0.8,8.4-1.9c2.6-1,4.8-2.4,6.8-4.1c1.9-1.7,3.4-3.6,4.5-5.8l1.6-3.3
			l0.2-0.1c2.7-0.9,5.8-2.2,9.3-3.9c3.5-1.7,7.1-3.9,10.6-6.4c1.4-1,2.9-2.1,4.3-3.2c-0.2-0.1-0.3-0.3-0.5-0.4
			C236.6,238.4,235.3,235.9,235,233.2z M200.2,257c-1.7,1.4-3.6,2.5-5.7,3.1c-1.2,0.4-2.5,0.6-3.6,0.6c-0.8,0-1.7-0.1-2.5-0.3
			c-1.7-0.4-2.8-1-3.3-1.7c-0.6-0.8-0.5-1.7,0.1-2.3c0.6-0.6,1.6-1,3.1-1.2c1.4-0.2,3.2-0.1,5.3,0.3c1.2,0.2,2.4,0.3,3.4,0.4
			c1.1,0.1,2,0.1,2.9,0.1h1.4L200.2,257z"/>
	</g>
	<path class="st0" d="M77.2,281.1c-1.3,0-2.6-0.6-3.5-1.7c-1.6-1.9-1.4-4.8,0.6-6.5c19.6-16.3,39.3-14.5,56.6-12.9
		c10.5,1,20.4,1.9,29.4-1.2c2.4-0.8,5,0.4,5.9,2.8c0.8,2.4-0.4,5-2.8,5.9c-10.9,3.8-22.3,2.8-33.3,1.7c-17-1.6-33.1-3.1-49.8,10.8
		C79.2,280.7,78.2,281.1,77.2,281.1z"/>
</g>
</svg>
