<?xml version="1.0" encoding="utf-8"?>
<!-- Generator: Adobe Illustrator 15.0.0, SVG Export Plug-In . SVG Version: 6.00 Build 0)  -->
<!DOCTYPE svg PUBLIC "-//W3C//DTD SVG 1.1//EN" "http://www.w3.org/Graphics/SVG/1.1/DTD/svg11.dtd">
<svg version="1.1" id="Layer_1" xmlns="http://www.w3.org/2000/svg" xmlns:xlink="http://www.w3.org/1999/xlink" x="0px" y="0px"
	 width="200px" height="200px" viewBox="0 0 200 200" enable-background="new 0 0 200 200" xml:space="preserve">
<g>
	<path fill="#F5841F" d="M198.18,102.728v-0.212c0-0.223-0.031-0.388-0.09-0.497c-0.062-0.109-0.166-0.19-0.311-0.252
		c0.176-0.059,0.297-0.163,0.375-0.31c0.077-0.146,0.115-0.291,0.115-0.442c0-0.127-0.02-0.237-0.06-0.335s-0.094-0.186-0.158-0.266
		c-0.085-0.099-0.182-0.172-0.3-0.224c-0.115-0.05-0.28-0.077-0.498-0.083h-1.521v3.175h0.647v-1.243h0.649
		c0.185,0,0.31,0.032,0.378,0.101c0.068,0.066,0.104,0.203,0.105,0.406l0.003,0.293c0.003,0.095,0.011,0.185,0.028,0.274
		c0.009,0.043,0.025,0.101,0.044,0.169h0.732v-0.079c-0.063-0.04-0.106-0.098-0.121-0.18
		C198.186,102.969,198.18,102.872,198.18,102.728 M197.416,101.461c-0.071,0.035-0.178,0.053-0.319,0.053h-0.716v-0.853h0.734
		c0.136,0,0.24,0.019,0.306,0.056c0.122,0.064,0.183,0.193,0.183,0.388C197.604,101.283,197.541,101.402,197.416,101.461"/>
	<path fill="#F5841F" d="M196.953,98.633c-1.673,0.008-3.029,1.373-3.023,3.047c0.007,1.674,1.376,3.028,3.05,3.022
		c1.67-0.008,3.028-1.374,3.021-3.045C199.994,99.981,198.626,98.626,196.953,98.633 M196.977,104.196
		c-1.396,0.005-2.533-1.126-2.539-2.519c-0.006-1.396,1.123-2.53,2.52-2.536c1.391-0.006,2.532,1.12,2.536,2.516
		C199.498,103.049,198.368,104.189,196.977,104.196"/>
	<path fill="#F5841F" d="M44.199,90.708c-0.258-0.71-0.623-1.324-1.098-1.84c-0.472-0.517-1.02-0.945-1.644-1.29
		c-0.623-0.345-1.301-0.667-2.034-0.969c-0.087,0-0.151-0.021-0.193-0.064c-0.129-0.043-0.193-0.13-0.193-0.258
		c0-0.171,0.15-0.3,0.452-0.387c0.131-0.086,0.699-0.44,1.709-1.064c1.011-0.622,2.107-1.429,3.293-2.42
		c1.182-0.988,2.258-2.098,3.226-3.322c0.966-1.226,1.451-2.485,1.451-3.775c0-0.431-0.151-1.15-0.45-2.161
		c-0.302-1.013-0.969-2.032-2.002-3.063c-1.033-1.033-2.527-1.95-4.485-2.744c-1.955-0.796-4.57-1.193-7.839-1.193
		c-1.892,0-4.066,0.225-6.516,0.676c-2.452,0.452-4.948,1.096-7.485,1.937c-2.539,0.84-5.033,1.817-7.487,2.937
		c-2.451,1.118-4.634,2.346-6.548,3.677c-1.916,1.335-3.451,2.743-4.613,4.228C0.581,81.093,0,82.587,0,84.094
		c0,0.345,0.108,0.807,0.322,1.39c0.218,0.579,0.549,1.149,1,1.708s1.022,1.054,1.71,1.484c0.688,0.43,1.525,0.644,2.517,0.644
		c0.602,0,1.44-0.214,2.516-0.644c1.073-0.431,2.236-1.054,3.485-1.872c1.248-0.816,2.483-1.806,3.709-2.969
		c1.228-1.161,2.27-2.474,3.128-3.937c-0.126-0.215-0.257-0.322-0.384-0.322c-0.259,0-0.646,0.194-1.164,0.58
		c-0.215,0.174-0.86,0.55-1.935,1.131c-1.076,0.58-2.291,1.183-3.646,1.807c-1.354,0.623-2.71,1.183-4.064,1.677
		C5.839,85.266,4.774,85.514,4,85.514c-0.216,0-0.322-0.086-0.322-0.258c0-0.215,0.376-0.699,1.13-1.453
		c0.751-0.751,1.827-1.623,3.223-2.611c1.4-0.99,3.108-2.024,5.132-3.098c2.021-1.075,4.303-2.076,6.84-3.001
		c2.538-0.925,5.313-1.68,8.325-2.259c3.009-0.58,6.215-0.87,9.613-0.87c0.385,0,1.074,0.009,2.064,0.031
		c0.989,0.022,1.999,0.108,3.031,0.259c1.034,0.15,1.946,0.377,2.743,0.678c0.795,0.3,1.195,0.73,1.195,1.29
		c0,0.774-0.464,1.613-1.39,2.517c-0.925,0.902-2.086,1.827-3.483,2.774c-1.398,0.946-2.946,1.87-4.646,2.774
		c-1.699,0.903-3.323,1.7-4.872,2.388c-1.548,0.688-2.926,1.248-4.13,1.677c-1.205,0.431-2.022,0.646-2.452,0.646
		c-0.127,0-0.193-0.043-0.193-0.13c0-0.043,0.041-0.151,0.131-0.323l4.385-4.774c0.56-0.601,1.108-1.193,1.646-1.775
		c0.538-0.58,1.022-1.105,1.453-1.579c0.428-0.474,0.784-0.861,1.064-1.162c0.277-0.299,0.46-0.474,0.547-0.516
		c0.388-0.215,0.582-0.495,0.582-0.837c-0.044-0.302-0.151-0.583-0.322-0.841c-0.129-0.214-0.313-0.41-0.55-0.582
		c-0.234-0.171-0.527-0.257-0.871-0.257c-0.301,0-1.053,0.482-2.257,1.453c-1.205,0.965-2.658,2.203-4.355,3.708
		c-1.701,1.506-3.507,3.185-5.422,5.035c-1.913,1.848-3.731,3.644-5.451,5.387c-1.72,1.741-3.216,3.356-4.484,4.838
		c-1.271,1.485-2.098,2.593-2.484,3.325c-0.948,1.333-1.807,2.624-2.582,3.87c-0.646,1.076-1.236,2.194-1.774,3.355
		c-0.54,1.162-0.807,2.172-0.807,3.031c0,0.088,0.074,0.357,0.227,0.808c0.15,0.451,0.354,0.945,0.612,1.484
		c0.258,0.537,0.57,1.021,0.936,1.451c0.365,0.431,0.742,0.645,1.13,0.645c0.299,0,0.516-0.214,0.645-0.645v0.065
		c0.044,0,0.194-0.291,0.452-0.872c0.257-0.581,0.536-1.224,0.838-1.935c0.3-0.71,0.603-1.365,0.905-1.969
		c0.299-0.602,0.557-0.902,0.771-0.902c0.13,0,0.281,0.106,0.453,0.321c0.431,0.774,0.988,1.442,1.676,2.001
		c0.604,0.475,1.377,0.915,2.324,1.323c0.945,0.407,2.131,0.612,3.55,0.612c0.687,0,1.817-0.172,3.388-0.517
		c1.568-0.343,3.3-0.86,5.193-1.549c1.894-0.687,3.861-1.527,5.904-2.517c2.042-0.988,3.904-2.13,5.579-3.419
		c1.68-1.291,3.056-2.721,4.133-4.29c1.075-1.57,1.612-3.258,1.612-5.066C44.586,92.268,44.458,91.418,44.199,90.708 M40.038,93.773
		c-0.927,1.118-2.15,2.247-3.679,3.387c-1.527,1.14-3.27,2.248-5.228,3.322c-1.957,1.078-3.977,2.033-6.063,2.872
		c-2.087,0.84-4.143,1.516-6.162,2.032c-2.023,0.517-3.871,0.775-5.55,0.775h-0.582h-0.191c-0.646,0-1.076-0.194-1.291-0.582v-0.063
		c1.935-2.624,3.697-4.99,5.29-7.099c0.688-0.903,1.357-1.795,2.001-2.677c0.645-0.883,1.236-1.679,1.774-2.389
		c0.537-0.71,0.988-1.31,1.355-1.807c0.364-0.493,0.612-0.807,0.739-0.934l0.195-0.196c0.172-0.17,0.343-0.258,0.518-0.258
		c0.257,0,0.429,0.076,0.516,0.227c0.085,0.15,0.182,0.323,0.291,0.516c0.106,0.194,0.267,0.366,0.484,0.518
		c0.212,0.151,0.58,0.226,1.096,0.226c0.129,0,0.635-0.131,1.517-0.389c0.88-0.258,1.937-0.525,3.161-0.806
		c1.227-0.278,2.55-0.549,3.97-0.808c1.419-0.258,2.731-0.387,3.937-0.387c0.599,0,1.137,0.064,1.612,0.194
		c0.43,0.086,0.817,0.236,1.16,0.451c0.346,0.215,0.519,0.497,0.519,0.839C41.426,91.644,40.961,92.653,40.038,93.773"/>
	<path fill="#F5841F" d="M198.864,90.289c0-0.259-0.163-0.474-0.485-0.646c-0.319-0.17-0.677-0.3-1.061-0.388
		c-0.478-0.129-0.972-0.234-1.486-0.323c-0.217,0-0.412,0.056-0.578,0.162c-0.174,0.107-0.307,0.205-0.391,0.291
		c-0.128,0.173-0.237,0.322-0.322,0.451c-1.292,1.419-2.766,2.85-4.419,4.291c-1.657,1.441-3.216,2.722-4.681,3.841
		c-1.719,1.333-3.461,2.603-5.227,3.807c-0.771,0.471-1.312,0.708-1.613,0.708c-0.258,0-0.385-0.129-0.385-0.388
		c0-0.687,0.407-1.601,1.227-2.739c0.814-1.141,1.729-2.281,2.74-3.421s1.969-2.161,2.875-3.067
		c0.901-0.901,1.458-1.461,1.675-1.676c0.173-0.171,0.259-0.365,0.259-0.579c0-0.215-0.096-0.41-0.293-0.582
		c-0.189-0.173-0.396-0.301-0.612-0.388c-0.257-0.128-0.558-0.237-0.901-0.321c-0.172-0.087-0.324-0.13-0.453-0.13
		c-0.56,0-1.279,0.332-2.162,1.001c-0.881,0.667-1.805,1.527-2.774,2.579c-0.342,0.374-0.688,0.786-1.035,1.189
		c-2.332,1.666-4.555,3.215-6.645,4.619c-3.546,2.387-6.549,4.162-9,5.321c0.043-0.557,0.249-1.159,0.614-1.807
		c0.363-0.643,0.913-1.429,1.645-2.354c0.732-0.925,1.646-2.031,2.742-3.321c1.098-1.292,2.398-2.86,3.904-4.711
		c0.387-0.345,0.635-0.646,0.741-0.903c0.107-0.258,0.163-0.473,0.163-0.646c0-0.343-0.141-0.635-0.421-0.869
		c-0.28-0.236-0.524-0.377-0.741-0.421c-0.258-0.302-0.453-0.505-0.582-0.612c-0.128-0.107-0.299-0.164-0.516-0.164
		c-0.172,0-0.333,0.035-0.484,0.099c-0.151,0.065-0.289,0.141-0.418,0.228c-0.174,0.127-0.302,0.236-0.389,0.321
		c-0.214-0.473-0.472-0.88-0.773-1.228c-0.302-0.341-0.688-0.514-1.162-0.514c-1.504,0-3.15,0.377-4.936,1.129
		c-1.783,0.753-3.57,1.741-5.356,2.969c-0.686,0.469-1.354,0.983-2.021,1.499c-1.93,1.319-3.817,2.602-5.623,3.791
		c-2.842,1.873-5.379,3.486-7.614,4.84c-2.239,1.354-4.065,2.409-5.484,3.161c-1.421,0.753-2.258,1.13-2.517,1.13
		c-0.172,0-0.259-0.065-0.259-0.194c0-0.818,0.397-1.904,1.193-3.26c0.797-1.354,1.817-2.804,3.066-4.354
		c1.246-1.549,2.613-3.141,4.098-4.774c1.485-1.636,2.934-3.14,4.354-4.517c1.118-1.076,2.355-2.238,3.711-3.486
		c1.356-1.247,2.731-2.516,4.129-3.807c1.398-1.292,2.752-2.57,4.066-3.84c1.31-1.268,2.486-2.481,3.516-3.646
		c1.031-1.162,1.86-2.257,2.485-3.288c0.621-1.033,0.936-1.938,0.936-2.712c0-0.687-0.366-1.032-1.097-1.032
		c-1.205,0-2.615,0.528-4.227,1.582c-1.613,1.053-3.291,2.386-5.034,3.999c-1.741,1.613-3.463,3.367-5.16,5.26
		c-1.7,1.892-3.218,3.656-4.55,5.29c-1.335,1.637-2.399,3.011-3.195,4.13c-0.796,1.118-1.192,1.742-1.192,1.871
		c-0.215-0.43-0.476-0.827-0.775-1.194c-0.303-0.365-0.689-0.547-1.16-0.547c-1.507,0-3.154,0.388-4.935,1.16
		c-1.711,0.741-3.418,1.685-5.127,2.818c-0.05-0.02-0.104-0.043-0.134-0.043c-2.926,2.064-5.679,3.958-8.26,5.677
		c-2.58,1.724-4.904,3.206-6.969,4.453c-2.062,1.247-3.808,2.225-5.225,2.937c-1.42,0.709-2.432,1.063-3.034,1.063
		c-0.217,0-0.322-0.065-0.322-0.193c0-0.602,0.291-1.29,0.87-2.064c0.582-0.774,1.312-1.568,2.195-2.387
		c0.883-0.816,1.84-1.623,2.871-2.419c1.034-0.797,2.011-1.527,2.936-2.197c0.925-0.663,1.731-1.224,2.419-1.676
		c0.688-0.451,1.098-0.742,1.227-0.871c0.517-0.343,0.775-0.711,0.775-1.097c0-0.171-0.087-0.387-0.259-0.646
		c-0.172-0.258-0.624-0.859-1.354-1.806c-0.303-0.302-0.799-0.452-1.484-0.452c-0.947,0-1.829,0.185-2.645,0.55
		c-0.817,0.366-1.614,0.548-2.39,0.548c-0.559,0-1.258-0.182-2.096-0.548c-0.839-0.365-1.702-0.765-2.582-1.194
		c-0.883-0.428-1.7-0.827-2.452-1.193c-0.752-0.365-1.321-0.549-1.709-0.549c-1.119,0-1.989,0.118-2.613,0.354
		c-0.624,0.238-0.937,0.828-0.937,1.775c0,0.128,0.184,0.537,0.55,1.226c0.364,0.688,1.129,1.42,2.291,2.193
		c-1.379,0.991-2.678,1.915-3.905,2.772c-1.227,0.862-2.397,1.703-3.515,2.52c-0.258,0.171-0.441,0.334-0.596,0.496
		c-0.406,0.269-0.823,0.542-1.212,0.794c-2.538,1.636-4.851,2.979-6.937,4.033c-2.087,1.055-4,1.817-5.741,2.29
		c-1.743,0.474-3.455,0.709-5.132,0.709c-0.517-0.172-0.774-0.559-0.774-1.161c0-0.429,0.107-0.913,0.322-1.452
		c0.215-0.535,0.462-1.042,0.742-1.516c0.281-0.473,0.56-0.871,0.84-1.193c0.28-0.323,0.505-0.484,0.678-0.484
		c0.129,0,0.278,0.044,0.451,0.129c0.087,0.044,0.149,0.065,0.192,0.065c0.216,0.388,0.453,0.645,0.712,0.774
		c0.257,0.128,0.493,0.192,0.71,0.192c0.387,0,0.999-0.16,1.838-0.483s1.774-0.752,2.809-1.291c1.029-0.539,2.097-1.161,3.191-1.87
		c1.1-0.711,2.098-1.464,3.001-2.258c0.904-0.796,1.646-1.615,2.226-2.454c0.582-0.837,0.872-1.645,0.872-2.417
		c0-0.346-0.118-0.733-0.354-1.163c-0.237-0.429-0.548-0.828-0.937-1.193c-0.387-0.365-0.829-0.666-1.324-0.902
		c-0.493-0.236-1.021-0.355-1.578-0.355c-1.163,0-2.443,0.257-3.84,0.773c-1.399,0.516-2.807,1.216-4.226,2.097
		c-1.421,0.884-2.798,1.904-4.132,3.066c-1.309,1.141-2.47,2.367-3.491,3.675c-1.269,0.862-2.479,1.666-3.604,2.39
		c-2.541,1.636-4.852,2.979-6.938,4.033c-2.087,1.055-4.001,1.817-5.743,2.29c-1.741,0.474-3.452,0.709-5.129,0.709
		c-0.516-0.172-0.773-0.559-0.773-1.161c0-0.429,0.105-0.913,0.321-1.452c0.213-0.535,0.462-1.042,0.742-1.516
		c0.278-0.473,0.559-0.871,0.839-1.193c0.279-0.323,0.505-0.484,0.678-0.484c0.129,0,0.279,0.044,0.45,0.129
		c0.087,0.044,0.151,0.065,0.193,0.065c0.215,0.388,0.453,0.645,0.712,0.774c0.257,0.128,0.494,0.192,0.709,0.192
		c0.388,0,1.001-0.16,1.839-0.483c0.839-0.323,1.773-0.752,2.808-1.291c1.031-0.539,2.096-1.161,3.193-1.87
		c1.097-0.711,2.099-1.464,3-2.258c0.904-0.796,1.646-1.615,2.227-2.454c0.58-0.837,0.873-1.645,0.873-2.417
		c0-0.346-0.123-0.733-0.358-1.163c-0.236-0.429-0.548-0.828-0.934-1.193c-0.388-0.365-0.828-0.666-1.321-0.902
		c-0.497-0.236-1.024-0.355-1.583-0.355c-1.161,0-2.44,0.257-3.84,0.773c-1.396,0.516-2.806,1.216-4.227,2.097
		c-1.419,0.884-2.796,1.904-4.128,3.066c-1.336,1.162-2.516,2.409-3.549,3.742c-1.034,1.333-1.861,2.7-2.485,4.095
		c-0.624,1.4-0.935,2.766-0.935,4.099c0,4.045,1.654,6.065,4.969,6.065c1.504,0,3.191-0.322,5.064-0.968
		c1.871-0.646,3.807-1.504,5.807-2.581c2.001-1.074,4-2.278,6.002-3.611c0.687-0.461,1.344-0.922,2.008-1.382
		c-0.233,0.837-0.363,1.664-0.363,2.477c0,4.045,1.654,6.065,4.97,6.065c1.504,0,3.193-0.322,5.065-0.968
		c1.87-0.646,3.805-1.504,5.807-2.581c1.999-1.074,3.999-2.278,6.001-3.611c2-1.336,3.893-2.68,5.678-4.035
		c1.783-1.354,3.409-2.666,4.872-3.938c0.694-0.601,1.322-1.16,1.889-1.682c0.178,0.157,0.396,0.311,0.69,0.458
		c0.473,0.237,0.989,0.44,1.549,0.61c0.557,0.175,1.096,0.305,1.613,0.39c0.516,0.087,0.925,0.129,1.227,0.129
		c-1.895,1.376-3.399,2.582-4.517,3.614c-1.119,1.031-1.979,1.968-2.583,2.806c-0.603,0.839-0.999,1.612-1.192,2.323
		c-0.194,0.709-0.291,1.432-0.291,2.161c0,0.946,0.139,1.721,0.42,2.323c0.278,0.604,0.646,1.065,1.097,1.388
		c0.45,0.321,0.945,0.536,1.483,0.646c0.538,0.106,1.042,0.16,1.516,0.16c1.035,0,2.399-0.44,4.099-1.322
		c1.697-0.881,3.504-2,5.42-3.355c1.054-0.745,2.113-1.537,3.179-2.361c-0.764,1.341-1.147,2.443-1.147,3.297
		c0,0.818,0.153,1.453,0.453,1.902c0.299,0.454,0.623,0.808,0.966,1.064c0.433,0.304,0.905,0.518,1.421,0.646
		c1.119,0,2.333-0.42,3.646-1.257c1.311-0.838,2.568-1.753,3.773-2.742c1.377-1.163,2.775-2.497,4.195-4.003
		c0.17-0.17,0.3-0.256,0.386-0.256c0.044,0,0.065,0.063,0.065,0.191c0,0.13-0.055,0.4-0.161,0.807
		c-0.108,0.411-0.217,0.861-0.322,1.356c-0.107,0.495-0.216,1.001-0.323,1.516c-0.107,0.516-0.161,0.926-0.161,1.228
		c0,0.988,0.387,1.73,1.161,2.227c0.775,0.492,1.527,0.783,2.257,0.869c0.345,0,0.667-0.012,0.969-0.031
		c0.3-0.021,0.56-0.055,0.775-0.097c0.259-0.045,0.515-0.108,0.773-0.194c0.817-0.26,1.785-0.709,2.903-1.356
		c1.117-0.644,2.324-1.417,3.613-2.321c1.017-0.712,2.059-1.48,3.113-2.285c-0.56,1.086-0.854,2.006-0.854,2.736
		c0,0.818,0.151,1.453,0.451,1.902c0.304,0.454,0.625,0.808,0.968,1.064c0.433,0.304,0.905,0.518,1.42,0.646
		c1.117,0,2.332-0.42,3.646-1.257c1.312-0.838,2.57-1.753,3.775-2.742c1.376-1.163,2.773-2.497,4.194-4.003
		c0.172-0.17,0.299-0.256,0.388-0.256c0.041,0,0.064,0.063,0.064,0.191c0,0.13-0.032,0.354-0.1,0.68
		c-0.063,0.321-0.126,0.688-0.194,1.096c-0.062,0.41-0.116,0.828-0.158,1.259c-0.043,0.431-0.064,0.797-0.064,1.097
		c0,1.377,0.182,2.314,0.547,2.808c0.367,0.493,0.913,0.741,1.646,0.741c0.431,0,1.109-0.26,2.035-0.774
		c0.923-0.517,1.987-1.192,3.192-2.032c1.203-0.838,2.504-1.806,3.904-2.902c1.397-1.097,2.786-2.205,4.162-3.326
		c0.136-0.109,0.281-0.231,0.418-0.343c-0.521,0.914-0.992,1.803-1.354,2.636c-0.497,1.139-0.742,2.075-0.742,2.806
		c0,0.903,0.161,1.54,0.484,1.905c0.321,0.366,0.74,0.547,1.256,0.547c0.689,0,1.462-0.224,2.322-0.678
		c0.862-0.451,1.68-0.979,2.455-1.58c0.901-0.645,1.826-1.398,2.773-2.258l1.228-0.969c0.084,0,0.128,0.043,0.128,0.131v0.062
		c0,0.045-0.206,0.334-0.613,0.871c-0.408,0.539-0.914,1.186-1.517,1.935c-0.601,0.757-1.258,1.562-1.966,2.423
		c-0.712,0.857-1.4,1.664-2.067,2.42c-0.667,0.75-1.249,1.374-1.741,1.872c-0.495,0.491-0.828,0.738-1.002,0.738
		c-0.086,0-0.193-0.021-0.32-0.063c-0.347-0.087-0.689-0.129-1.034-0.129c-1.031,0.129-2.202,0.451-3.516,0.97
		c-1.312,0.513-2.668,1.171-4.065,1.968c-1.396,0.794-2.762,1.708-4.097,2.741c-1.332,1.031-2.528,2.139-3.581,3.323
		c-1.055,1.183-1.902,2.42-2.549,3.709c-0.646,1.29-0.968,2.581-0.968,3.872c0,0.559,0.128,1.042,0.387,1.453
		c0.258,0.407,0.591,0.751,0.999,1.033c0.41,0.276,0.861,0.491,1.356,0.644c0.494,0.15,0.999,0.227,1.517,0.227
		c1.934,0,3.773-0.477,5.517-1.421c1.741-0.946,3.505-2.303,5.292-4.065c1.785-1.764,3.667-3.902,5.646-6.42
		c1.978-2.516,4.16-5.354,6.549-8.518c2.387-3.162,5.042-6.602,7.969-10.323c2.926-3.72,6.261-7.647,10.001-11.776
		C198.692,90.934,198.864,90.591,198.864,90.289 M54.523,96.419c0.774-0.819,1.688-1.68,2.743-2.582
		c1.053-0.902,2.117-1.72,3.193-2.452c1.074-0.731,1.936-1.096,2.581-1.096c0.257,0,0.388,0.108,0.388,0.323
		c0,0.257-0.206,0.623-0.614,1.096c-0.408,0.475-0.924,0.99-1.547,1.548c-0.625,0.561-1.313,1.119-2.066,1.678
		c-0.753,0.561-1.493,1.076-2.228,1.548c-0.729,0.477-1.408,0.861-2.03,1.163c-0.624,0.301-1.087,0.451-1.39,0.451
		c-0.127,0-0.192-0.041-0.192-0.128C53.361,97.751,53.749,97.235,54.523,96.419 M83.946,91.385c1.075-0.731,1.936-1.096,2.583-1.096
		c0.257,0,0.385,0.108,0.385,0.323c0,0.257-0.203,0.623-0.611,1.096c-0.41,0.475-0.926,0.99-1.549,1.548
		c-0.624,0.561-1.313,1.119-2.066,1.678c-0.751,0.561-1.493,1.076-2.225,1.548c-0.733,0.477-1.409,0.861-2.032,1.163
		c-0.626,0.301-1.088,0.451-1.388,0.451c-0.129,0-0.193-0.041-0.193-0.128c0-0.217,0.388-0.732,1.161-1.549
		c0.774-0.819,1.688-1.68,2.742-2.582C81.805,92.935,82.871,92.117,83.946,91.385 M131.047,98.031
		c-0.946,0.774-1.883,1.549-2.806,2.322c-0.925,0.774-1.784,1.451-2.582,2.034c-0.795,0.579-1.473,1.053-2.032,1.42
		c-0.559,0.364-0.946,0.547-1.161,0.547c-0.085,0-0.131-0.045-0.131-0.131c0-0.341,0.27-0.901,0.807-1.676
		c0.541-0.773,1.261-1.646,2.163-2.613c0.905-0.969,1.925-1.958,3.066-2.968c1.139-1.01,2.312-1.947,3.516-2.809
		c1.205-0.857,2.364-1.557,3.483-2.096c1.119-0.537,2.131-0.808,3.033-0.808c0.13,0,0.196,0.022,0.196,0.065
		c0,0.086-0.089,0.217-0.257,0.388C135.671,94.072,133.243,96.183,131.047,98.031 M159.696,98.031
		c-0.946,0.774-1.88,1.549-2.805,2.322c-0.927,0.774-1.787,1.451-2.583,2.034c-0.795,0.579-1.473,1.053-2.031,1.42
		c-0.562,0.364-0.947,0.547-1.164,0.547c-0.084,0-0.125-0.045-0.125-0.131c0-0.341,0.275-0.901,0.837-1.676
		c0.558-0.773,1.28-1.646,2.162-2.613c0.878-0.969,1.891-1.958,3.032-2.968c1.139-1.01,2.312-1.947,3.517-2.809
		c1.202-0.857,2.378-1.557,3.517-2.096c1.14-0.537,2.138-0.808,3-0.808c0.128,0,0.193,0.022,0.193,0.065
		c0,0.086-0.086,0.217-0.259,0.388C164.32,94.072,161.891,96.183,159.696,98.031 M171.764,116.227
		c-1.979,2.452-3.894,4.71-5.744,6.776c-0.814,0.861-1.653,1.729-2.517,2.613c-0.857,0.879-1.708,1.687-2.549,2.419
		c-0.838,0.73-1.633,1.366-2.388,1.903c-0.75,0.538-1.449,0.893-2.096,1.065c-0.17,0-0.258-0.064-0.258-0.195
		c0-0.515,0.29-1.256,0.871-2.225c0.579-0.969,1.333-2.021,2.259-3.162c0.927-1.141,1.956-2.302,3.097-3.484
		c1.142-1.184,2.301-2.259,3.484-3.226c1.185-0.969,2.304-1.753,3.356-2.355c1.055-0.603,1.945-0.904,2.677-0.904
		c0.128,0,0.192,0.045,0.192,0.13C172.149,115.712,172.021,115.927,171.764,116.227"/>
</g>
</svg>
