<?xml version="1.0" encoding="utf-8"?>
<!-- Generator: Adobe Illustrator 19.2.1, SVG Export Plug-In . SVG Version: 6.00 Build 0)  -->
<svg version="1.1" id="Capa_1" xmlns="http://www.w3.org/2000/svg" xmlns:xlink="http://www.w3.org/1999/xlink" x="0px" y="0px"
	 viewBox="0 0 400 400" style="enable-background:new 0 0 400 400;" xml:space="preserve">
<style type="text/css">
	.st0{fill:#EE7700;}
</style>
<g>
	<g>
		<path class="st0" d="M388.4,165.2c0-0.1,0-0.2,0-0.5v-0.4c0-0.4-0.1-0.6-0.1-0.8c-0.1-0.2-0.3-0.3-0.5-0.4
			c0.3-0.1,0.5-0.3,0.6-0.5c0.1-0.2,0.2-0.5,0.2-0.7c0-0.2,0-0.4-0.1-0.5c-0.1-0.2-0.2-0.3-0.3-0.4c-0.1-0.2-0.3-0.3-0.5-0.4
			c-0.2-0.1-0.5-0.1-0.8-0.1h-2.5v5.2h1.1v-2h1.1c0.3,0,0.5,0.1,0.6,0.2c0.1,0.1,0.2,0.3,0.2,0.7l0,0.5c0,0.2,0,0.3,0,0.4
			c0,0.1,0,0.2,0.1,0.3h1.2v-0.1C388.5,165.4,388.4,165.3,388.4,165.2 M387.1,162.6c-0.1,0.1-0.3,0.1-0.5,0.1h-1.2v-1.4h1.2
			c0.2,0,0.4,0,0.5,0.1c0.2,0.1,0.3,0.3,0.3,0.6C387.4,162.3,387.3,162.5,387.1,162.6"/>
		<path class="st0" d="M386.4,157.9c-2.7,0-5,2.2-5,5c0,2.7,2.2,5,5,5c2.7,0,5-2.2,5-5C391.4,160.2,389.1,157.9,386.4,157.9
			 M386.4,167.1c-2.3,0-4.2-1.9-4.2-4.2c0-2.3,1.9-4.2,4.2-4.2c2.3,0,4.1,1.9,4.1,4.2C390.5,165.2,388.7,167.1,386.4,167.1"/>
	</g>
	<g>
		<g>
			<path class="st0" d="M93.1,178.8c-2.9,3.1-6.2,5.6-9.9,7.6c-3.7,2-7.7,3.4-11.8,4.2c1.6,3.1,2,6.2,1.2,9.4
				c-0.9,3.2-2.3,6.1-4.2,8.7c-1.7,2.3-3.8,4.4-6.2,6.3c-2.4,1.9-5,3.4-7.8,4.7c-2.8,1.2-5.7,2.2-8.6,2.8c-3,0.6-5.9,0.8-8.8,0.6
				c-2.4-0.2-4.8-0.8-7.1-1.7c-2.4-1-4.1-2.6-5.1-5c-0.6-1.3-0.8-2.7-0.7-4.2c0.1-1.4,0.4-2.9,0.8-4.3c0.4-1.4,1-2.8,1.7-4.1
				c0.7-1.3,1.4-2.5,2.1-3.7c-1.2-0.3-2.4-0.7-3.5-1.3c-1.1-0.6-2-1.3-2.8-2.3c-0.9-1.1-1.5-2.3-1.9-3.7c-0.4-1.4-0.5-2.8-0.4-4.2
				c0.2-3.1,1-6.1,2.4-9c1.4-2.9,2.9-5.6,4.5-8.1c2.8-4.3,6-8.5,9.6-12.4c3.6-4,7.6-7.5,11.9-10.6c4.3-3.1,8.9-5.7,13.9-7.6
				c4.9-2,10.1-3,15.5-3.2c2.3-0.1,4.6,0,7,0.4c2.3,0.4,4.6,1.1,6.8,2c2.2,1,4.1,2.2,5.7,3.8c1.7,1.6,3,3.5,4.1,5.8
				c1.1,2.4,1.5,4.8,1.4,7.3c-0.1,2.5-0.6,4.9-1.4,7.3c-0.8,2.5-1.8,4.9-3.2,7.3C97,174,95.2,176.4,93.1,178.8z M30.8,186.3
				c-0.1,0.3-0.2,0.7-0.4,1.4c-0.1,0.6-0.3,1.2-0.4,1.9c-0.1,0.6-0.2,1.2-0.2,1.7c0,0.5,0,0.8,0.2,0.9c0.5,0.3,1.1,0.5,1.9,0.6
				c0.8,0.1,1.4,0.1,1.9-0.1c5.9-7.8,11.7-14.9,17.2-21.3c5.5-6.4,10.9-12.9,16.3-19.4c0.7-0.8,1.3-1.5,1.9-2.3
				c0.6-0.8,1.2-1.5,2-2.2c-2.1,0.6-4.1,1.3-6.1,2.2c-2,0.9-3.9,1.9-5.8,3.1c-3.3,1.9-6.3,4.2-9.1,6.8c-2.8,2.6-5.4,5.3-7.9,8.2
				c-2.4,2.8-4.6,5.7-6.7,8.8C33.5,179.6,31.9,182.8,30.8,186.3z M66.4,182.6c2.6-0.5,5.1-1.2,7.6-2.1c2.5-0.9,5.1-2.4,7.9-4.5
				c2.5-1.9,4.6-4.3,6.4-7.1c1.8-2.8,3.1-5.8,4.1-8.8c0.5-1.6,0.7-3.4,0.7-5.2c0-1.8-0.5-3.4-1.6-4.9c-0.9-1.2-2-2.2-3.5-2.7
				c-1.4-0.6-2.9-1-4.5-1.2c-1.7-0.2-3.3-0.2-4.8-0.1c-1.5,0.1-2.9,0.4-4.4,0.6c1.3,0.2,2.5,0.7,3.6,1.6c1.1,0.9,1.6,2,1.6,3.3
				c0,0.8-0.2,1.4-0.5,1.8c-0.3,0.4-0.7,0.9-1.2,1.4c-0.5,0.8-1,1.5-1.6,2.1c-0.6,0.6-1.1,1.3-1.7,1.9l-12.9,15
				c-3.7,4.4-7.5,8.8-11.1,13.2c-3.7,4.4-7.2,9.1-10.4,13.9c-0.8,1.1-1.5,2.2-2.2,3.3c-0.7,1.1-1.4,2.3-1.9,3.6
				c-0.2,0.3-0.5,0.8-0.8,1.4c-0.3,0.7-0.6,1.4-0.9,2.2c-0.2,0.8-0.4,1.5-0.4,2.2c0,0.6,0.3,1,0.9,1.1c2.7,0.4,5.4,0.2,8.3-0.6
				c2.8-0.8,5.4-1.8,7.7-3c2.2-1.2,4.3-2.6,6.3-4.4c2-1.8,3.6-3.8,4.8-6c0.6-1.1,1-2.4,1.4-3.8c0.3-1.4,0.2-2.7-0.5-4
				c-0.5-1.1-1.2-1.8-2.3-2.2c-1.1-0.4-1.9-1.1-2.4-2.1c-0.6-1-0.8-1.9-0.6-2.9c0.2-1,0.8-1.7,1.9-2.2c0.5-0.2,1-0.3,1.5-0.4
				c0.5,0,1.1-0.1,1.7-0.1c0.8-0.1,1.5-0.1,2.1-0.1C65.1,182.8,65.7,182.8,66.4,182.6z"/>
			<path class="st0" d="M85.2,217.6c-1.8-2.5-2.7-5.2-2.6-8.3c0.1-3,0.7-5.9,1.9-8.7c1.1-2.6,2.5-5,4.2-7.3c1.6-2.3,3.4-4.4,5.4-6.3
				c2-2,4-3.8,6.3-5.4c2.2-1.6,4.4-3.1,6.6-4.5c1.6-1,3.6-1.9,5.9-2.7c2.3-0.9,4.6-1.4,7-1.7c2.4-0.3,4.6-0.1,6.7,0.4
				c2.1,0.6,3.7,1.8,4.8,3.7c1.1,1.7,1.3,3.5,0.7,5.5c-0.6,1.9-1.3,3.7-2.3,5.3c-2.1,3.4-4.8,6.4-8,9c-3.3,2.6-6.7,4.7-10.3,6.1
				c-2.8,1.1-5.6,1.7-8.5,2c-2.9,0.3-5.7-0.1-8.3-1.1c-0.6,1.1-1,2.1-1.4,3.1c-0.3,1-0.5,2-0.4,2.9c0.1,1,0.4,1.8,1,2.7
				c0.6,0.8,1.5,1.5,2.9,1.9c2.4,0.9,5.2,0.7,8.3-0.4c3.2-1.2,6.3-2.7,9.4-4.7c3.1-2,6-4.1,8.6-6.4c2.6-2.3,4.7-4,6.1-5.4
				c0.7-0.7,1.4-1.4,2.1-2.2c0.7-0.8,1.5-1.4,2.4-1.8c0.9-0.3,1.7-0.3,2.4-0.1c0.8,0.2,1.4,0.6,2,1.2c0.6,0.6,1,1.2,1.2,1.9
				c0.2,0.7,0.2,1.4-0.1,2.1c-0.3,0.9-0.8,1.7-1.7,2.5c-0.8,0.8-1.6,1.6-2.2,2.2c-3.6,3.5-6.4,6-8.4,7.5c-2,1.6-3.8,2.9-5.4,4.1
				c-2.4,1.7-5.2,3.4-8.6,5c-3.3,1.6-6.7,2.7-10.1,3.3c-3.4,0.6-6.7,0.6-9.8-0.1C90,222.3,87.3,220.5,85.2,217.6z M103.8,196.4
				c3.5-0.6,6.8-1.9,9.8-4c3-2.1,5.5-4.4,7.5-6.8c0.8-0.9,1.3-1.8,1.7-2.7c0.3-1,0.3-1.6-0.2-1.9c-2.5,0.7-4.8,1.6-7,2.9
				c-2.2,1.2-4.3,2.6-6.3,4.2c-3.5,2.5-6.5,5.3-9.1,8.3C101.2,196.6,102.4,196.6,103.8,196.4z"/>
			<path class="st0" d="M129.2,217.6c-1.8-2.5-2.7-5.2-2.6-8.3c0.1-3,0.7-5.9,1.9-8.7c1.1-2.6,2.5-5,4.2-7.3
				c1.6-2.3,3.4-4.4,5.4-6.3c2-2,4-3.8,6.3-5.4c2.2-1.6,4.4-3.1,6.6-4.5c1.6-1,3.6-1.9,5.9-2.7c2.3-0.9,4.6-1.4,7-1.7
				c2.4-0.3,4.6-0.1,6.7,0.4c2.1,0.6,3.7,1.8,4.8,3.7c1.1,1.7,1.3,3.5,0.7,5.5c-0.6,1.9-1.3,3.7-2.3,5.3c-2.1,3.4-4.8,6.4-8,9
				c-3.3,2.6-6.7,4.7-10.3,6.1c-2.8,1.1-5.6,1.7-8.5,2c-2.9,0.3-5.7-0.1-8.3-1.1c-0.6,1.1-1,2.1-1.4,3.1c-0.3,1-0.5,2-0.4,2.9
				c0.1,1,0.4,1.8,1,2.7c0.6,0.8,1.5,1.5,2.9,1.9c2.4,0.9,5.2,0.7,8.3-0.4c3.2-1.2,6.3-2.7,9.4-4.7c3.1-2,6-4.1,8.6-6.4
				c2.6-2.3,4.7-4,6.1-5.4c0.7-0.7,1.4-1.4,2.1-2.2c0.7-0.8,1.5-1.4,2.4-1.8c0.9-0.3,1.7-0.3,2.4-0.1c0.8,0.2,1.4,0.6,2,1.2
				c0.6,0.6,1,1.2,1.2,1.9c0.2,0.7,0.2,1.4-0.1,2.1c-0.3,0.9-0.8,1.7-1.7,2.5c-0.8,0.8-1.6,1.6-2.2,2.2c-3.6,3.5-6.4,6-8.4,7.5
				c-2,1.6-3.8,2.9-5.4,4.1c-2.4,1.7-5.2,3.4-8.6,5c-3.3,1.6-6.7,2.7-10.1,3.3c-3.4,0.6-6.7,0.6-9.8-0.1
				C134,222.3,131.3,220.5,129.2,217.6z M147.8,196.4c3.5-0.6,6.8-1.9,9.8-4c3-2.1,5.5-4.4,7.5-6.8c0.8-0.9,1.3-1.8,1.7-2.7
				c0.3-1,0.3-1.6-0.2-1.9c-2.5,0.7-4.8,1.6-7,2.9c-2.2,1.2-4.3,2.6-6.3,4.2c-3.5,2.5-6.5,5.3-9.1,8.3
				C145.2,196.6,146.4,196.6,147.8,196.4z"/>
			<path class="st0" d="M176.1,194.3c2.9-2.8,5.6-5.6,8.1-8.5c2.5-2.9,5.1-5.8,7.5-8.8c0.2-0.4,0.5-0.7,0.8-1.1
				c0.3-0.3,0.6-0.7,0.8-1.1c-0.2-1-0.2-2-0.1-3.2c0.1-1.2,0.4-2.2,0.9-3.2c0.4-1,1.1-1.7,1.9-2.4c0.8-0.6,1.8-1,2.9-1.1
				c1.4-0.1,2.7,0.3,3.7,1.3c1.1,1,1.7,2.2,1.9,3.6c0.1,1,0,1.9-0.3,2.8c-0.3,0.9-0.7,1.8-1.1,2.7l1.6,0.7c1.4,0.7,2.9,1,4.2,1.1
				c1.4,0.1,2.8,0.5,4.1,1.2c1.2,0.8,2.2,1.8,2.8,3.2c0.6,1.3,0.5,2.5-0.5,3.6c-3,3.4-5.7,6.5-8.1,9.6c-2.4,3-4.8,6.1-7,9.1
				c-0.4,0.6-1,1.6-1.7,2.9c-0.8,1.4-1.4,2.7-1.9,4c-0.5,1.3-0.7,2.3-0.6,3.1c0.1,0.8,0.9,0.8,2.4,0c2.9-1.5,5.7-3.7,8.3-6.5
				c2.7-2.8,6.1-6.3,10.4-10.5c0.6-0.7,1.2-1.4,1.9-2.1c0.7-0.7,1.4-1.3,2.2-1.7c1.5-0.6,2.9-0.4,4.2,0.6c1.3,1,1.8,2.3,1.5,4
				c-0.2,1-0.6,1.7-1.2,2.4c-0.6,0.6-1.2,1.3-1.8,1.9c-1.7,1.7-3.2,3.2-4.5,4.5c-1.2,1.3-2.3,2.4-3.3,3.3c-1,0.9-1.8,1.7-2.5,2.4
				c-0.7,0.7-1.4,1.4-2.1,2.1c-1.1,1-2.2,1.9-3.3,2.9c-1.1,1-2.4,1.9-3.7,2.8c-1.3,0.9-2.7,1.6-4.1,2.1c-1.4,0.5-2.9,0.8-4.5,0.8
				c-2,0-3.7-0.4-5.2-1.2c-1.4-0.8-2.5-1.9-3.3-3.2c-0.8-1.3-1.2-2.8-1.4-4.5c-0.1-1.7,0-3.4,0.5-5.2c1-3.7,2.6-7.2,4.8-10.4
				c2.3-3.2,4.6-6.2,7-9.2c0.7-0.9,1.3-1.7,1.9-2.6c0.6-0.9,1.3-1.7,2.1-2.6c-0.6-0.2-1.3-0.5-2.1-0.9c-0.8-0.4-1.5-0.8-1.9-1.1
				c-0.7,0.9-1.4,1.8-2.2,2.7c-0.8,0.9-1.7,1.9-2.7,3.1c-1,1.2-2.2,2.5-3.6,4c-1.4,1.5-3.1,3.4-5.1,5.5c-0.6,0.6-1.2,1.2-1.7,1.9
				c-0.6,0.7-1.2,1.2-2,1.6c-1.1,0.6-2.1,0.7-3,0.4c-1-0.3-1.7-0.9-2.3-1.7c-0.6-0.8-0.9-1.7-0.9-2.7
				C174.9,196.1,175.3,195.2,176.1,194.3z"/>
			<path class="st0" d="M253.3,172.5c1.6,0,3.3,0.4,4.9,1.1c1.6,0.7,2.9,1.7,3.9,3.1c3.1-3.4,6.2-6.7,9.3-10.1
				c3.1-3.4,6.2-6.7,9.3-10.1c2.6-2.8,5.2-5.5,7.8-8.3c2.6-2.7,5.3-5.3,8.1-7.8c0.6-0.5,1.1-1,1.7-1.7c0.6-0.6,1.2-1.2,2-1.7
				c0.9-0.6,1.8-0.7,2.7-0.4c1,0.3,1.8,0.8,2.5,1.6c0.7,0.8,1.3,1.6,1.7,2.6c0.4,1,0.6,1.8,0.4,2.6c-0.2,0.8-0.6,1.4-1.2,1.9
				c-0.6,0.5-1.2,1-1.7,1.5c-4.2,4.2-7.9,7.9-11,11c-3.1,3.1-6.2,6.3-9.3,9.6c-3.1,3.3-6.4,6.9-10,10.9c-3.6,4-8,9-13.3,15
				c-2.4,2.8-4.7,5.7-7,8.7c-2.3,3-4.2,6.2-5.6,9.6c-0.7,1.4-0.6,2.4,0.1,2.8c0.8,0.4,1.7,0.4,2.9-0.2c1.3-0.7,2.5-1.5,3.5-2.4
				c1-0.9,2-1.9,3.1-2.9c1.3-1.2,2.9-2.8,4.6-4.6c1.7-1.8,4.2-4.3,7.3-7.3c0.6-0.6,1.2-1.2,1.9-1.9c0.7-0.7,1.4-1.3,2.2-1.7
				c1.4-0.6,2.8-0.4,4.1,0.6c1.3,1,1.8,2.3,1.7,3.9c-0.1,1-0.4,1.7-1,2.3c-0.6,0.6-1.1,1.2-1.7,1.9c-2.3,2.3-4.4,4.5-6.4,6.5
				c-2,2-3.9,4-5.8,5.9c-1.1,1-2.2,1.9-3.3,2.9c-1.1,1-2.3,1.9-3.6,2.8c-1.2,0.9-2.6,1.6-4,2.2c-1.4,0.6-2.8,0.9-4.2,1
				c-3.7,0.3-6.6-0.6-8.6-2.6c-1.5-1.5-2.4-3.4-2.6-5.6c-1.6,1.3-3.4,2.6-5.2,3.9c-1.8,1.2-3.7,2.3-5.5,3c-1.9,0.8-3.8,1.2-5.8,1.3
				c-2,0.1-3.9-0.3-5.8-1.3c-2.5-1.5-4.1-3.8-4.7-6.8c-0.5-2.7-0.2-5.3,0.7-8c1-2.6,2.2-5.1,3.6-7.3c3-4.7,6.5-9.1,10.5-13.2
				c4-4.1,8.5-7.6,13.4-10.3c2.1-1.1,4.3-2.1,6.5-2.8C248.4,172.9,250.8,172.5,253.3,172.5z M228.4,200.2c-1.1,1.3-2.1,2.7-3,4
				c-1,1.3-1.8,2.7-2.6,4.1c-1.1,2-1.6,3.5-1.7,4.5c-0.1,1,0.2,1.5,0.9,1.7c0.6,0.2,1.5,0.1,2.6-0.4c1.1-0.4,2.3-1.1,3.7-1.9
				c1.4-0.9,3-2.1,4.7-3.6c1.7-1.5,3.5-3.2,5.3-5.1c1.8-1.9,3.7-3.8,5.5-5.9c1.9-2.1,3.7-4.1,5.4-6.1l6.2-7.3c0.2-1,0.1-1.7-0.1-2.2
				c-0.3-0.5-0.7-0.8-1.1-0.9c-1.7-0.3-3.8,0.2-6.1,1.4c-2.3,1.2-4.7,2.9-7.1,4.9c-2.4,2-4.7,4.2-6.9,6.5
				C231.8,196.2,229.9,198.3,228.4,200.2z"/>
			<path class="st0" d="M302.3,223.2c-2.3,0.2-4.3-0.1-6-0.9c-1.7-0.8-3.1-2-4-3.6c-0.6-1-1-2.2-1.2-3.7c-1.3,1.2-2.7,2.2-4,3.2
				c-1.3,1-2.7,1.9-4.2,2.7c-2.3,1.2-4.7,2-7.1,2.3c-2.4,0.3-4.8-0.1-7-1.3c-2-1.1-3.3-2.5-4-4.5c-0.6-1.9-0.8-4-0.6-6.1
				c0.2-2.2,0.7-4.3,1.6-6.3c0.9-2.1,1.7-3.8,2.6-5.1c3.1-4.7,6.6-9.1,10.6-13.2c4-4.1,8.4-7.6,13.3-10.3c2.2-1.1,4.5-2.1,6.8-2.9
				c2.3-0.8,4.8-1.1,7.3-0.9c3.8,0.3,6.7,1.7,8.5,4.3c0.6-0.8,1.3-1.5,2.2-2.2c0.9-0.7,1.7-1.1,2.5-1.2c1.4,0,2.7,0.6,3.9,1.7
				c1.1,1.1,1.6,2.3,1.7,3.7c0.1,1.4-0.3,2.6-1.3,3.7c-1.3,1.4-2.7,2.9-4.2,4.2c-1.4,1.4-2.8,2.9-4.2,4.5c-3.2,3.7-5.8,6.9-7.8,9.6
				c-2.1,2.6-3.8,5.3-5.2,8.1c-0.5,0.8-0.8,1.6-1.1,2.4c-0.2,0.9-0.3,1.6-0.3,2.2c0,0.6,0.3,1,0.8,1.2c0.5,0.2,1.2,0.1,2.3-0.5
				c1.2-0.7,2.4-1.5,3.4-2.4c1.1-0.9,2.1-1.9,3.2-2.9l11.9-11.9c0.6-0.6,1.2-1.2,1.8-1.9c0.6-0.7,1.3-1.3,2.1-1.7
				c1.5-0.6,2.9-0.4,4.2,0.6c1.3,1,1.8,2.3,1.7,3.9c-0.2,1-0.6,1.7-1.2,2.3c-0.6,0.6-1.1,1.2-1.7,1.9c-3.4,3.5-5.9,6-7.6,7.8
				c-1.7,1.7-3.3,3.3-4.6,4.6c-2,1.9-4.2,3.8-6.7,5.7C308.3,221.9,305.5,223,302.3,223.2z M293.8,187.4c-3.5,2.8-6.9,6-10.4,9.8
				c-3.5,3.7-6.1,7.4-7.9,11.1c-0.2,0.3-0.5,0.8-0.8,1.5c-0.3,0.7-0.6,1.4-0.8,2.2c-0.2,0.7-0.2,1.4-0.1,1.9
				c0.1,0.6,0.5,0.9,1.3,0.9c2.2-0.2,4.3-1.1,6.3-2.7c2-1.6,3.7-3,5.1-4.2c4.1-3.7,7.9-7.6,11.4-11.7c3.4-4.1,6.9-8.1,10.3-12.1
				c0.2-1.9-0.4-2.9-1.7-2.9c-1.3,0-2.8,0.4-4.5,1.1c-1.7,0.8-3.4,1.7-5,2.9C295.3,186.3,294.3,187.1,293.8,187.4z"/>
			<path class="st0" d="M377.8,179.8c0,0.4-0.1,0.7-0.3,1.1c-0.2,0.3-0.6,0.7-1.1,1.2c-0.5,0.5-1.2,1.1-1.9,1.9
				c-0.8,0.8-1.7,1.8-2.9,3.1c-4.6,4.9-8.7,9.6-12.4,14.2c-3.6,4.6-7.1,9.2-10.5,13.7c-5.3,7.2-10.2,14-14.7,20.4
				c-4.5,6.4-8.6,13-12.2,19.7c-0.5,0.8-0.9,1.6-1.4,2.4c-0.4,0.8-0.8,1.6-1.2,2.4c-0.4,0.7-0.7,1.3-1,1.9c-0.3,0.6-0.8,1-1.4,1.3
				c-1.3,0.5-2.7,0.5-4,0.1c-1.3-0.4-2.4-1.2-3.2-2.4c-0.9-1.2-0.9-2.6-0.1-4c0.4-0.8,0.7-1.5,1.1-2.2c0.3-0.7,0.7-1.5,1.2-2.2
				c0.9-1.6,1.7-3.3,2.7-5c0.9-1.7,1.8-3.3,2.8-5c4-6.7,8.4-13.4,13.1-20.1c-0.8,0.3-1.5,0.5-2.2,0.7c-0.7,0.2-1.5,0.3-2.2,0.3
				c-1.8,0-3.5-0.3-5.2-1c-1.6-0.7-2.9-1.8-3.7-3.3c-1.1-1.9-1.5-3.9-1.2-6c0.2-2.1,0.7-4,1.5-5.8c1-2.5,2.4-5.2,4.3-8
				c1.9-2.8,4-5.6,6.3-8.3c2.3-2.7,4.6-5.3,7-7.8c2.3-2.5,4.4-4.6,6.3-6.5c0.7-0.6,1.4-1.2,2.1-1.9c0.7-0.7,1.6-1.1,2.5-1.2
				c1.6,0,2.9,0.6,4,1.8c1,1.2,1.5,2.5,1.5,3.8c0.1,1.3-0.3,2.4-1.2,3.3c-3,3.2-5.4,5.8-7.4,8c-2,2.2-3.6,4-5,5.5
				c-1.3,1.5-2.5,2.8-3.4,3.9c-0.9,1.1-1.7,2.1-2.5,3.1c-0.5,0.6-1.2,1.5-2.1,2.7c-0.9,1.2-1.7,2.5-2.4,3.8
				c-0.7,1.3-1.3,2.5-1.7,3.6c-0.4,1.1-0.3,1.8,0.3,1.9c0.3,0.2,0.7,0.2,1.4-0.1c0.6-0.2,1.3-0.6,1.9-1c0.7-0.4,1.4-0.9,2.1-1.4
				c0.7-0.5,1.3-0.9,1.8-1.3c3.5-2.6,6.9-5.4,10-8.4c3.1-3,6.1-6.1,9-9.2c2.9-3.1,5.7-6.3,8.5-9.4c2.8-3.2,5.7-6.2,8.8-9.1
				c0.5-0.5,1-0.9,1.6-1.2c0.6-0.3,1.2-0.3,2-0.1c1.4,0.4,2.6,1.1,3.5,2.2C377.3,177,377.8,178.3,377.8,179.8z"/>
		</g>
	</g>
	<path class="st0" d="M13.2,260.5c-1.4,0-2.8-0.7-3.7-1.9c-1.5-2-1-4.9,1-6.4c36.7-26.7,90.2-21.7,146.8-16.5
		c49.2,4.5,100.1,9.2,150-3.5c2.5-0.6,5,0.9,5.6,3.3c0.6,2.5-0.9,5-3.3,5.6c-51.4,13.1-105.4,8.1-153.1,3.7
		c-57.2-5.3-106.6-9.8-140.5,14.8C15.1,260.2,14.2,260.5,13.2,260.5z"/>
</g>
</svg>
