<?xml version="1.0" encoding="utf-8"?>
<!-- Generator: Adobe Illustrator 15.0.0, SVG Export Plug-In . SVG Version: 6.00 Build 0)  -->
<!DOCTYPE svg PUBLIC "-//W3C//DTD SVG 1.1//EN" "http://www.w3.org/Graphics/SVG/1.1/DTD/svg11.dtd">
<svg version="1.1" id="Layer_1" xmlns="http://www.w3.org/2000/svg" xmlns:xlink="http://www.w3.org/1999/xlink" x="0px" y="0px"
	 width="200px" height="200px" viewBox="0 0 200 200" enable-background="new 0 0 200 200" xml:space="preserve">
<g>
	<path fill="#FFFFFF" d="M0,105.431V67.321h4.926c6.689,0,10.214,2.542,10.214,10.109c0,3.528-0.778,5.55-3.475,7.884
		c0,0,3.891,1.761,3.891,9.332c0,5.6-1.97,10.527-8.66,10.784H0z M5.6,72.87v10.162c1.036,0,4.148,0.157,4.148-5.08
		C9.748,72.714,6.636,72.87,5.6,72.87 M5.6,88.166v11.718c1.036,0,4.148,0.413,4.148-5.858C9.748,87.75,6.636,88.166,5.6,88.166"/>
	<path fill="#FFFFFF" d="M33.755,67.321v30.28c0,0,0.051,8.244-7.466,8.244c-7.518,0-7.467-8.244-7.467-8.244v-30.28h5.6v30.28
		c0,0-0.104,2.8,1.867,2.8c1.97,0,1.865-2.8,1.865-2.8v-30.28H33.755z"/>
	<path fill="#FFFFFF" d="M47.857,105.431l-2.902-16.073h-1.504v16.073h-5.599V67.321h5.599c6.636,0,9.542,3.838,9.542,10.991
		c0,3.786-0.988,7.207-3.112,8.658l3.577,18.46H47.857z M43.451,72.87v11.303c1.554,0,4.148-0.209,4.148-5.651
		C47.599,73.076,45.005,72.87,43.451,72.87"/>
	<path fill="#FFFFFF" d="M65.54,81.008v-5.859c0,0,0.104-2.798-1.868-2.798c-1.967,0-1.866,2.798-1.866,2.798v22.919
		c0,0-0.101,2.802,1.866,2.802c1.972,0,1.868-2.802,1.868-2.802v-6.894h-2.231v-4.721h7.832v18.978h-3.319l-0.675-1.815
		c-1.035,1.298-2.592,2.23-4.354,2.23c-7.104,0-6.584-8.244-6.584-8.244V75.148c0,0-0.052-8.241,7.464-8.241
		c7.52,0,7.469,8.241,7.469,8.241v5.859H65.54z"/>
	<polygon fill="#FFFFFF" points="75.236,67.321 88.042,67.321 88.042,73.076 80.833,73.076 80.833,83.085 86.019,83.085 
		86.019,89.202 80.833,89.202 80.833,99.675 88.042,99.675 88.042,105.431 75.236,105.431 	"/>
	<path fill="#FFFFFF" d="M101.16,105.431l-2.903-16.073h-1.505v16.073h-5.6V67.321h5.6c6.637,0,9.542,3.838,9.542,10.991
		c0,3.786-0.984,7.207-3.11,8.658l3.576,18.46H101.16z M96.752,72.87v11.303c1.556,0,4.149-0.209,4.149-5.651
		C100.902,73.076,98.309,72.87,96.752,72.87"/>
	<path fill="#F5841F" d="M138.939,82.503c0,0.584-0.36,1.553-1.081,2.903c-0.721,1.35-1.889,2.837-3.51,4.459
		c-1.625,1.62-3.729,3.241-6.317,4.862c-2.589,1.62-5.752,2.996-9.489,4.12c-0.404,0.089-0.788,0.159-1.147,0.203
		c-0.318,0.045-0.642,0.08-0.98,0.102c-0.339,0.022-0.641,0.033-0.911,0.033c-0.498,0-0.744-0.067-0.744-0.204
		c0-0.134,0.158-0.291,0.473-0.47c1.262-0.679,2.636-1.532,4.122-2.569c1.484-1.033,2.959-2.139,4.424-3.311
		c1.462-1.169,2.869-2.351,4.221-3.544c1.351-1.192,2.544-2.332,3.58-3.412c1.033-1.08,1.867-2.037,2.498-2.871
		c0.632-0.832,0.946-1.474,0.946-1.925c0-0.179-0.135-0.271-0.405-0.271c-0.229,0-0.541,0.07-0.944,0.204
		c-1.351,0.405-2.93,1.193-4.729,2.363c-1.532,1.038-3.368,2.546-5.505,4.526c-2.139,1.981-4.516,4.729-7.126,8.239
		c-2.162,2.973-4.167,5.721-6.012,8.242c-0.812,1.079-1.621,2.172-2.431,3.274c-0.812,1.105-1.602,2.15-2.365,3.142
		c-0.767,0.991-1.464,1.88-2.095,2.67c-0.631,0.786-1.147,1.404-1.555,1.857c-0.133,0.087-0.269,0.225-0.405,0.402
		c-0.134,0.137-0.269,0.295-0.402,0.475c-0.135,0.181-0.318,0.383-0.542,0.606c2.883,0.316,5.369,0.542,7.464,0.676
		c2.095,0.136,4.02,0.45,5.776,0.946c1.756,0.496,3.432,1.283,5.032,2.363c1.598,1.081,3.341,2.703,5.234,4.864
		c0.087,0.136,0.202,0.291,0.337,0.473c0.269,0.358,0.406,0.584,0.406,0.676c0,0.135-0.068,0.2-0.203,0.2
		c-0.226,0-0.518-0.088-0.878-0.27c-1.802-0.495-3.94-0.943-6.416-1.35c-2.119-0.362-4.674-0.678-7.668-0.947
		c-2.995-0.271-6.429-0.404-10.3-0.404h-2.837c-1.036,0-2.163,0.022-3.378,0.068c-1.215,1.169-2.734,2.296-4.559,3.375
		c-1.822,1.083-3.693,2.062-5.608,2.939c-1.913,0.88-3.77,1.575-5.569,2.093c-1.802,0.519-3.287,0.778-4.459,0.778
		c-0.811,0-1.712-0.124-2.702-0.372c-0.991-0.247-1.936-0.643-2.838-1.181c-0.899-0.54-1.655-1.206-2.261-1.992
		c-0.607-0.79-0.913-1.725-0.913-2.804c0-0.541,0.371-1.386,1.114-2.533c0.745-1.149,2.118-2.296,4.122-3.445
		c2.005-1.147,4.761-2.159,8.273-3.04c3.513-0.877,8.038-1.315,13.578-1.315c5.222-5.946,9.737-11.292,13.542-16.043
		c3.807-4.75,7.284-8.804,10.436-12.156c3.151-3.355,6.191-5.935,9.119-7.735c2.926-1.801,6.122-2.703,9.592-2.703
		c0.271,0,0.687,0.069,1.248,0.204c0.563,0.137,1.126,0.384,1.69,0.743c0.562,0.36,1.047,0.845,1.451,1.451
		C138.737,80.78,138.939,81.556,138.939,82.503 M83.485,124.042c-1.352,0-2.916,0.135-4.695,0.404
		c-1.778,0.271-3.477,0.63-5.099,1.081c-1.621,0.45-2.993,0.957-4.12,1.52c-1.125,0.563-1.688,1.115-1.688,1.656
		c0,0.448,0.541,0.743,1.62,0.877c0.811,0,1.665-0.032,2.567-0.103c0.902-0.065,1.914-0.28,3.041-0.642
		c1.125-0.357,2.375-0.911,3.748-1.654C80.23,126.438,81.773,125.393,83.485,124.042"/>
	<path fill="#F5841F" d="M153.865,104.25c0,0.452-0.202,0.858-0.607,1.219c-0.673,0.631-1.666,1.519-2.97,2.666
		c-1.308,1.147-2.748,2.298-4.323,3.445c-1.579,1.148-3.211,2.139-4.898,2.972c-1.688,0.831-3.255,1.249-4.693,1.249
		c-0.226,0-0.43-0.01-0.608-0.032c-0.18-0.023-0.383-0.058-0.609-0.102c-1.034,1.216-2.116,2.363-3.241,3.443
		c-1.124,1.08-2.262,2.017-3.41,2.805c-1.148,0.787-2.265,1.416-3.344,1.89c-1.082,0.473-2.118,0.708-3.106,0.708
		c-0.497-0.042-1.037-0.133-1.621-0.27c-0.587-0.133-1.139-0.382-1.655-0.743c-0.518-0.359-0.958-0.864-1.315-1.519
		c-0.362-0.651-0.542-1.518-0.542-2.601c0-1.351,0.417-2.939,1.252-4.761c0.83-1.824,2.024-3.671,3.577-5.541
		c1.553-1.867,3.444-3.646,5.673-5.333c2.23-1.69,4.74-3.053,7.53-4.088c0.586,0,0.912,0.102,0.983,0.305
		c0.066,0.2,0.278,0.327,0.641,0.372c0.312-0.045,0.551-0.16,0.706-0.339c0.159-0.179,0.486-0.293,0.981-0.338
		c0.225,0,0.482,0.057,0.778,0.169c0.291,0.113,0.617,0.348,0.976,0.708c0.183,0.181,0.361,0.384,0.542,0.609
		c0.137,0.226,0.26,0.46,0.372,0.708s0.17,0.53,0.17,0.845c0,1.261-0.351,2.748-1.047,4.458c-0.699,1.711-1.632,3.445-2.805,5.202
		c0.541,0,1.184-0.136,1.926-0.406c0.743-0.27,1.531-0.617,2.364-1.045c0.832-0.43,1.71-0.913,2.634-1.456
		c0.921-0.538,1.812-1.101,2.669-1.687c2.024-1.353,4.163-2.905,6.415-4.658c0.09,0.088,0.18,0.199,0.271,0.336
		c0.089,0.089,0.167,0.203,0.237,0.335C153.833,103.915,153.865,104.072,153.865,104.25 M131.171,113.437
		c-0.358-0.27-0.687-0.641-0.979-1.114c-0.293-0.473-0.563-0.946-0.811-1.416c-0.248-0.474-0.451-0.88-0.606-1.217
		c-0.159-0.341-0.26-0.507-0.305-0.507c-1.172,1.081-2.162,2.228-2.974,3.444c-0.809,1.217-1.464,2.328-1.958,3.342
		c-0.497,1.015-0.843,1.859-1.046,2.536c-0.205,0.675-0.306,1.057-0.306,1.146c0,0.361,0.111,0.54,0.337,0.54
		c0.812,0,1.701-0.293,2.669-0.876c0.967-0.585,1.892-1.271,2.771-2.062c0.877-0.785,1.62-1.554,2.229-2.297
		C130.801,114.215,131.125,113.708,131.171,113.437 M137.25,103.776c0-0.087-0.045-0.132-0.134-0.132
		c-0.228,0-0.609,0.213-1.15,0.642c-0.539,0.427-1.091,0.91-1.655,1.45c-0.562,0.542-1.058,1.094-1.484,1.656
		c-0.428,0.562-0.643,0.979-0.643,1.247c0,0.14,0.137,0.407,0.405,0.811c0.271,0.407,0.475,0.61,0.608,0.61
		c0.451,0,0.913-0.305,1.386-0.912c0.473-0.609,0.912-1.295,1.316-2.062c0.405-0.765,0.73-1.473,0.978-2.127
		C137.127,104.308,137.25,103.915,137.25,103.776"/>
	<path fill="#F5841F" d="M166.699,101.549c0,1.263-0.427,2.692-1.285,4.29c-0.854,1.598-1.979,3.253-3.376,4.965
		c-1.396,1.713-2.961,3.378-4.695,4.997c-1.732,1.623-3.479,3.057-5.232,4.306c-1.759,1.252-3.445,2.265-5.068,3.039
		c-1.619,0.775-2.994,1.167-4.119,1.167c-0.36,0-0.743-0.044-1.147-0.133c-0.406-0.089-0.788-0.245-1.149-0.467
		c-0.359-0.223-0.651-0.554-0.877-1c-0.225-0.443-0.337-1.021-0.337-1.731s0.178-1.525,0.533-2.449
		c0.358-0.918,0.824-1.887,1.404-2.9c0.577-1.012,1.234-2.036,1.968-3.07c0.736-1.036,1.506-2.028,2.308-2.975
		c1.846-2.252,3.961-4.593,6.351-7.025c0.271-0.314,0.517-0.585,0.741-0.811c0.226-0.226,0.449-0.416,0.676-0.575
		c0.226-0.155,0.452-0.233,0.676-0.233c0.136,0,0.359,0.021,0.676,0.065c0.314,0.047,0.642,0.127,0.98,0.239
		c0.335,0.11,0.628,0.269,0.876,0.473c0.247,0.2,0.373,0.459,0.373,0.776c0,0.179-0.046,0.371-0.137,0.573
		c-0.089,0.203-0.269,0.438-0.54,0.707c-1.35,1.443-2.657,2.907-3.918,4.393c-1.079,1.307-2.207,2.737-3.376,4.291
		c-1.172,1.552-2.139,3.048-2.904,4.49c-0.138,0.27-0.248,0.518-0.342,0.742c-0.086,0.227-0.154,0.452-0.2,0.675
		c-0.044,0.226-0.066,0.43-0.066,0.61c0,0.314,0.113,0.472,0.339,0.472c0.405,0,1.131-0.349,2.169-1.048
		c1.039-0.698,2.226-1.632,3.558-2.804c1.334-1.17,2.732-2.509,4.201-4.018c1.471-1.51,2.827-3.063,4.069-4.661
		c1.245-1.597,2.283-3.186,3.117-4.761c0.838-1.576,1.323-3.018,1.46-4.325c0-0.134,0.021-0.358,0.066-0.675
		c0.044-0.314,0.137-0.472,0.271-0.472s0.292,0.18,0.472,0.539c0.361,0.632,0.697,1.286,1.013,1.96
		C166.54,99.862,166.699,100.649,166.699,101.549"/>
	<path fill="#F5841F" d="M200,103.915c0,0.449-0.204,0.853-0.607,1.212c-0.946,0.947-2.186,2.085-3.716,3.412
		c-1.531,1.33-3.231,2.702-5.1,4.119c-1.871,1.42-3.852,2.827-5.943,4.225c-2.095,1.395-4.188,2.655-6.281,3.78
		c-2.097,1.127-4.119,2.027-6.079,2.703c-1.959,0.676-3.729,1.014-5.303,1.014c-3.47,0-5.201-2.116-5.201-6.35
		c0-1.395,0.325-2.824,0.978-4.288c0.654-1.465,1.521-2.893,2.601-4.292c1.08-1.394,2.319-2.699,3.717-3.916
		c1.394-1.215,2.837-2.284,4.321-3.208c1.488-0.922,2.962-1.655,4.425-2.194c1.463-0.541,2.803-0.811,4.021-0.811
		c0.584,0,1.135,0.124,1.654,0.371c0.517,0.248,0.978,0.563,1.386,0.945c0.403,0.383,0.73,0.8,0.979,1.249
		c0.246,0.452,0.369,0.855,0.369,1.219c0,0.81-0.304,1.65-0.909,2.531c-0.608,0.877-1.385,1.733-2.333,2.566
		c-0.943,0.834-1.992,1.62-3.14,2.362c-1.148,0.744-2.263,1.398-3.343,1.96c-1.082,0.563-2.06,1.014-2.937,1.352
		c-0.881,0.338-1.524,0.507-1.926,0.507c-0.228,0-0.473-0.069-0.744-0.202c-0.27-0.138-0.521-0.408-0.744-0.812
		c-0.045,0-0.113-0.021-0.202-0.067c-0.181-0.089-0.336-0.135-0.473-0.135c-0.182,0-0.415,0.168-0.708,0.506
		c-0.294,0.339-0.585,0.755-0.879,1.251c-0.292,0.495-0.55,1.023-0.777,1.587c-0.225,0.563-0.337,1.07-0.337,1.52
		c0,0.632,0.271,1.034,0.811,1.217c1.756,0,3.545-0.248,5.368-0.742c1.825-0.496,3.828-1.295,6.014-2.4
		c2.183-1.103,4.604-2.509,7.259-4.221c2.657-1.712,5.697-3.784,9.12-6.213c0.63-0.451,1.284-0.924,1.957-1.421
		c0.677-0.494,1.375-0.989,2.097-1.485c0.089,0.091,0.179,0.203,0.271,0.341c0.089,0.088,0.169,0.199,0.234,0.336
		C199.965,103.574,200,103.733,200,103.915 M181.763,103.105c0-0.228-0.134-0.341-0.405-0.341c-0.677,0-1.577,0.385-2.704,1.15
		c-1.123,0.766-2.237,1.619-3.342,2.566c-1.104,0.943-2.062,1.845-2.871,2.701c-0.809,0.855-1.217,1.396-1.217,1.621
		c0,0.089,0.067,0.133,0.205,0.133c0.314,0,0.798-0.154,1.451-0.473c0.65-0.314,1.362-0.719,2.128-1.213
		c0.767-0.497,1.541-1.036,2.33-1.623c0.787-0.584,1.509-1.169,2.16-1.756c0.652-0.585,1.193-1.125,1.624-1.622
		C181.548,103.756,181.763,103.375,181.763,103.105"/>
	<path fill="#F5841F" d="M198.32,113.936c-0.012-0.05-0.019-0.144-0.019-0.275v-0.2c0-0.206-0.027-0.362-0.083-0.462
		c-0.058-0.102-0.153-0.181-0.289-0.234c0.161-0.055,0.276-0.151,0.349-0.289c0.071-0.135,0.107-0.274,0.107-0.412
		c0-0.118-0.019-0.223-0.057-0.312c-0.037-0.092-0.086-0.175-0.149-0.25c-0.076-0.09-0.168-0.159-0.274-0.206
		c-0.109-0.048-0.264-0.071-0.468-0.076h-1.416v2.96h0.604v-1.162h0.604c0.173,0,0.29,0.033,0.352,0.094
		c0.064,0.066,0.098,0.188,0.1,0.38l0.001,0.275c0.004,0.087,0.012,0.171,0.029,0.255c0.006,0.039,0.021,0.092,0.038,0.158h0.687
		v-0.074C198.374,114.066,198.335,114.009,198.32,113.936 M197.59,112.479c-0.066,0.032-0.166,0.049-0.299,0.049h-0.666v-0.794
		h0.684c0.127,0,0.222,0.017,0.285,0.052c0.114,0.062,0.171,0.182,0.171,0.358C197.765,112.312,197.706,112.421,197.59,112.479"/>
	<path fill="#F5841F" d="M197.169,109.84c-1.561,0-2.83,1.271-2.83,2.832c0,1.559,1.27,2.829,2.83,2.829S200,114.23,200,112.672
		C200,111.111,198.729,109.84,197.169,109.84 M197.169,115.028c-1.3,0-2.357-1.06-2.357-2.356c0-1.301,1.058-2.359,2.357-2.359
		c1.299,0,2.356,1.059,2.356,2.359C199.525,113.969,198.468,115.028,197.169,115.028"/>
</g>
</svg>
