<?xml version="1.0" encoding="utf-8"?>
<!-- Generator: Adobe Illustrator 15.0.0, SVG Export Plug-In . SVG Version: 6.00 Build 0)  -->
<!DOCTYPE svg PUBLIC "-//W3C//DTD SVG 1.1//EN" "http://www.w3.org/Graphics/SVG/1.1/DTD/svg11.dtd">
<svg version="1.1" id="Layer_1" xmlns="http://www.w3.org/2000/svg" xmlns:xlink="http://www.w3.org/1999/xlink" x="0px" y="0px"
	 width="200px" height="200px" viewBox="0 0 200 200" enable-background="new 0 0 200 200" xml:space="preserve">
<g>
	<path d="M0.426,105.408V67.46h4.905c6.661,0,10.171,2.531,10.171,10.067c0,3.513-0.774,5.524-3.46,7.85
		c0,0,3.874,1.753,3.874,9.293c0,5.574-1.963,10.481-8.623,10.738H0.426z M6.003,72.986v10.118c1.032,0,4.13,0.155,4.13-5.059
		C10.133,72.83,7.035,72.986,6.003,72.986 M6.003,88.216v11.668c1.032,0,4.13,0.412,4.13-5.833
		C10.133,87.802,7.035,88.216,6.003,88.216"/>
	<path d="M34.039,67.46v30.151c0,0,0.052,8.211-7.435,8.211s-7.435-8.211-7.435-8.211V67.46h5.576v30.151
		c0,0-0.104,2.788,1.859,2.788c1.962,0,1.858-2.788,1.858-2.788V67.46H34.039z"/>
	<path d="M48.081,105.408L45.19,89.403h-1.498v16.005h-5.574V67.46h5.574c6.608,0,9.501,3.821,9.501,10.945
		c0,3.77-0.982,7.177-3.099,8.621l3.562,18.382H48.081z M43.692,72.985V84.24c1.55,0,4.131-0.208,4.131-5.628
		C47.823,73.19,45.242,72.985,43.692,72.985"/>
	<path d="M65.687,81.089v-5.834c0,0,0.104-2.787-1.859-2.787c-1.961,0-1.858,2.787-1.858,2.787v22.821c0,0-0.103,2.79,1.858,2.79
		c1.962,0,1.859-2.79,1.859-2.79v-6.865h-2.22v-4.699h7.797v18.896h-3.305l-0.67-1.807c-1.033,1.29-2.582,2.221-4.337,2.221
		c-7.074,0-6.557-8.21-6.557-8.21V75.255c0,0-0.052-8.207,7.434-8.207c7.487,0,7.436,8.207,7.436,8.207v5.834H65.687z"/>
	<polygon points="75.342,67.46 88.094,67.46 88.094,73.19 80.917,73.19 80.917,83.157 86.08,83.157 86.08,89.248 80.917,89.248 
		80.917,99.676 88.094,99.676 88.094,105.408 75.342,105.408 	"/>
	<path d="M101.155,105.408l-2.891-16.005h-1.498v16.005h-5.576V67.46h5.576c6.61,0,9.5,3.821,9.5,10.945
		c0,3.77-0.98,7.177-3.098,8.621l3.562,18.382H101.155z M96.767,72.985V84.24c1.549,0,4.131-0.208,4.131-5.628
		C100.898,73.19,98.316,72.985,96.767,72.985"/>
	<path fill="#F6851F" d="M138.773,82.577c0,0.582-0.357,1.546-1.074,2.892c-0.719,1.344-1.883,2.824-3.498,4.439
		c-1.615,1.613-3.711,3.227-6.289,4.843c-2.578,1.612-5.727,2.982-9.449,4.102c-0.402,0.089-0.785,0.158-1.143,0.203
		c-0.314,0.044-0.641,0.078-0.975,0.101c-0.34,0.022-0.641,0.032-0.91,0.032c-0.494,0-0.738-0.066-0.738-0.202
		c0-0.134,0.156-0.292,0.469-0.469c1.256-0.674,2.625-1.524,4.105-2.558c1.479-1.029,2.945-2.129,4.404-3.296
		c1.457-1.164,2.857-2.342,4.203-3.53c1.346-1.187,2.533-2.321,3.564-3.396c1.031-1.076,1.861-2.028,2.488-2.859
		c0.629-0.829,0.941-1.468,0.941-1.917c0-0.178-0.135-0.269-0.402-0.269c-0.227,0-0.539,0.069-0.941,0.202
		c-1.346,0.405-2.916,1.189-4.709,2.354c-1.525,1.033-3.354,2.536-5.482,4.507c-2.129,1.974-4.494,4.709-7.094,8.205
		c-2.152,2.96-4.148,5.695-5.988,8.207c-0.807,1.075-1.611,2.163-2.418,3.261c-0.809,1.101-1.594,2.142-2.355,3.128
		c-0.762,0.987-1.457,1.872-2.086,2.657c-0.627,0.784-1.141,1.401-1.547,1.851c-0.133,0.088-0.268,0.225-0.402,0.401
		c-0.135,0.136-0.27,0.294-0.403,0.472c-0.135,0.18-0.315,0.382-0.54,0.604c2.871,0.314,5.347,0.54,7.433,0.674
		c2.084,0.135,4.002,0.447,5.752,0.941c1.746,0.493,3.418,1.277,5.01,2.354c1.59,1.075,3.328,2.691,5.213,4.842
		c0.088,0.136,0.201,0.291,0.334,0.472c0.27,0.357,0.406,0.581,0.406,0.673c0,0.134-0.068,0.2-0.203,0.2
		c-0.225,0-0.516-0.089-0.875-0.27c-1.793-0.492-3.924-0.939-6.389-1.344c-2.107-0.36-4.652-0.674-7.635-0.942
		s-6.4-0.401-10.257-0.401H96.47c-1.032,0-2.152,0.021-3.363,0.066c-1.209,1.164-2.724,2.286-4.54,3.362
		c-1.815,1.078-3.676,2.052-5.583,2.925c-1.906,0.876-3.756,1.57-5.548,2.085c-1.793,0.516-3.272,0.774-4.439,0.774
		c-0.808,0-1.703-0.124-2.69-0.37s-1.928-0.639-2.826-1.177c-0.896-0.538-1.647-1.2-2.252-1.983
		c-0.606-0.787-0.909-1.717-0.909-2.792c0-0.538,0.369-1.38,1.11-2.521c0.74-1.144,2.107-2.286,4.103-3.432
		c1.996-1.143,4.741-2.15,8.239-3.025c3.498-0.874,8.003-1.312,13.519-1.312c5.2-5.92,9.696-11.243,13.485-15.975
		c3.789-4.729,7.254-8.765,10.391-12.104c3.139-3.34,6.166-5.908,9.08-7.702c2.916-1.793,6.098-2.691,9.551-2.691
		c0.27,0,0.684,0.069,1.244,0.203c0.561,0.136,1.121,0.382,1.684,0.739c0.559,0.36,1.043,0.842,1.443,1.446
		C138.572,80.862,138.773,81.634,138.773,82.577 M83.557,123.941c-1.346,0-2.904,0.134-4.675,0.401
		c-1.771,0.269-3.463,0.627-5.078,1.075c-1.615,0.45-2.981,0.952-4.103,1.515c-1.12,0.561-1.681,1.11-1.681,1.648
		c0,0.446,0.539,0.74,1.613,0.874c0.808,0,1.66-0.033,2.555-0.102c0.899-0.066,1.907-0.28,3.027-0.639
		c1.122-0.358,2.366-0.908,3.733-1.648C80.316,126.326,81.852,125.285,83.557,123.941"/>
	<path fill="#F6851F" d="M153.637,104.233c0,0.448-0.201,0.854-0.605,1.212c-0.672,0.628-1.66,1.511-2.959,2.655
		c-1.301,1.143-2.734,2.287-4.305,3.43c-1.568,1.145-3.195,2.132-4.875,2.96c-1.682,0.829-3.242,1.243-4.674,1.243
		c-0.225,0-0.428-0.009-0.605-0.031c-0.18-0.023-0.381-0.058-0.607-0.102c-1.029,1.211-2.107,2.354-3.227,3.429
		c-1.121,1.075-2.254,2.009-3.396,2.793c-1.145,0.784-2.254,1.411-3.33,1.883c-1.074,0.47-2.109,0.704-3.094,0.704
		c-0.492-0.044-1.031-0.133-1.613-0.269c-0.584-0.133-1.135-0.381-1.648-0.739s-0.951-0.861-1.311-1.513
		c-0.359-0.649-0.539-1.512-0.539-2.591c0-1.344,0.416-2.926,1.244-4.741s2.02-3.653,3.564-5.516
		c1.547-1.86,3.432-3.631,5.648-5.311c2.221-1.683,4.721-3.04,7.5-4.071c0.582,0,0.908,0.102,0.977,0.304
		c0.066,0.199,0.279,0.326,0.639,0.37c0.312-0.044,0.549-0.158,0.705-0.338c0.156-0.177,0.482-0.291,0.975-0.336
		c0.225,0,0.482,0.058,0.775,0.168c0.291,0.114,0.615,0.348,0.975,0.705c0.178,0.181,0.359,0.384,0.537,0.607
		c0.137,0.225,0.26,0.459,0.371,0.705c0.111,0.248,0.168,0.528,0.168,0.842c0,1.256-0.35,2.735-1.043,4.438
		c-0.695,1.705-1.625,3.432-2.791,5.182c0.539,0,1.178-0.136,1.916-0.404c0.74-0.27,1.525-0.616,2.355-1.042
		c0.83-0.427,1.703-0.908,2.623-1.448c0.918-0.538,1.805-1.097,2.656-1.68c2.018-1.348,4.146-2.894,6.389-4.641
		c0.09,0.09,0.18,0.2,0.27,0.336c0.09,0.089,0.168,0.202,0.236,0.336C153.605,103.897,153.637,104.057,153.637,104.233
		 M131.039,113.38c-0.359-0.269-0.686-0.639-0.975-1.109c-0.293-0.472-0.561-0.942-0.809-1.411
		c-0.246-0.472-0.447-0.876-0.605-1.212c-0.156-0.338-0.258-0.505-0.303-0.505c-1.166,1.078-2.15,2.22-2.959,3.431
		c-0.807,1.211-1.457,2.319-1.949,3.328c-0.496,1.01-0.84,1.851-1.043,2.523s-0.303,1.054-0.303,1.142
		c0,0.361,0.111,0.538,0.336,0.538c0.809,0,1.693-0.29,2.658-0.873c0.963-0.582,1.883-1.265,2.756-2.052
		c0.875-0.782,1.615-1.547,2.221-2.287C130.67,114.154,130.992,113.649,131.039,113.38 M137.092,103.763
		c0-0.09-0.045-0.134-0.133-0.134c-0.227,0-0.605,0.212-1.145,0.639c-0.539,0.428-1.088,0.908-1.648,1.446s-1.053,1.088-1.48,1.647
		c-0.426,0.561-0.637,0.974-0.637,1.243c0,0.136,0.135,0.404,0.402,0.807c0.27,0.405,0.471,0.607,0.605,0.607
		c0.449,0,0.908-0.304,1.377-0.908c0.473-0.607,0.91-1.29,1.314-2.053c0.402-0.762,0.727-1.468,0.973-2.118
		C136.969,104.291,137.092,103.897,137.092,103.763"/>
	<path fill="#F6851F" d="M166.416,101.542c0,1.259-0.428,2.682-1.279,4.273c-0.85,1.591-1.975,3.237-3.363,4.942
		s-2.947,3.362-4.674,4.976c-1.727,1.616-3.463,3.045-5.213,4.288c-1.748,1.246-3.428,2.254-5.043,3.025
		c-1.615,0.772-2.982,1.163-4.104,1.163c-0.359,0-0.74-0.045-1.143-0.133c-0.404-0.089-0.785-0.245-1.145-0.464
		c-0.357-0.223-0.648-0.553-0.873-0.997c-0.225-0.442-0.336-1.017-0.336-1.725s0.178-1.52,0.531-2.438
		c0.357-0.915,0.82-1.879,1.396-2.888s1.23-2.028,1.961-3.059c0.732-1.032,1.498-2.019,2.299-2.961
		c1.838-2.242,3.945-4.573,6.322-6.996c0.27-0.312,0.514-0.582,0.74-0.807c0.223-0.225,0.445-0.414,0.672-0.572
		c0.225-0.155,0.447-0.234,0.672-0.234c0.135,0,0.357,0.021,0.674,0.066c0.312,0.047,0.639,0.126,0.975,0.237
		c0.336,0.11,0.627,0.269,0.873,0.471c0.248,0.199,0.371,0.459,0.371,0.772c0,0.179-0.045,0.37-0.135,0.572
		s-0.268,0.437-0.539,0.706c-1.344,1.435-2.645,2.894-3.9,4.371c-1.076,1.302-2.197,2.726-3.361,4.272
		c-1.168,1.547-2.131,3.036-2.893,4.473c-0.135,0.269-0.248,0.515-0.338,0.74c-0.088,0.224-0.156,0.448-0.201,0.67
		c-0.045,0.225-0.066,0.427-0.066,0.606c0,0.314,0.113,0.472,0.338,0.472c0.404,0,1.123-0.348,2.158-1.044
		c1.035-0.695,2.217-1.626,3.545-2.791c1.326-1.166,2.721-2.5,4.184-4.002s2.812-3.05,4.049-4.641
		c1.24-1.591,2.275-3.172,3.107-4.741c0.832-1.568,1.314-3.005,1.451-4.305c0-0.135,0.021-0.357,0.068-0.673
		c0.043-0.313,0.133-0.472,0.268-0.472s0.293,0.181,0.471,0.538c0.359,0.629,0.693,1.28,1.01,1.951
		C166.258,99.862,166.416,100.646,166.416,101.542"/>
	<path fill="#F6851F" d="M199.574,103.897c0,0.449-0.203,0.851-0.605,1.209c-0.941,0.942-2.176,2.074-3.699,3.396
		c-1.525,1.325-3.217,2.692-5.078,4.103c-1.861,1.414-3.836,2.815-5.918,4.206c-2.086,1.389-4.172,2.645-6.256,3.765
		c-2.086,1.122-4.104,2.018-6.053,2.691c-1.951,0.674-3.711,1.009-5.279,1.009c-3.455,0-5.18-2.107-5.18-6.322
		c0-1.39,0.324-2.812,0.975-4.271s1.514-2.881,2.59-4.272c1.076-1.389,2.309-2.689,3.699-3.899c1.389-1.212,2.826-2.275,4.305-3.195
		c1.479-0.917,2.947-1.647,4.406-2.186c1.455-0.538,2.789-0.807,4.002-0.807c0.582,0,1.131,0.123,1.648,0.37
		c0.514,0.247,0.975,0.561,1.377,0.94c0.402,0.382,0.729,0.796,0.975,1.245c0.246,0.45,0.371,0.851,0.371,1.211
		c0,0.807-0.305,1.646-0.908,2.521c-0.605,0.872-1.379,1.728-2.32,2.556c-0.941,0.831-1.984,1.614-3.129,2.354
		c-1.141,0.74-2.252,1.391-3.328,1.95c-1.076,0.561-2.053,1.01-2.924,1.345c-0.877,0.338-1.516,0.506-1.918,0.506
		c-0.227,0-0.471-0.069-0.74-0.202c-0.27-0.136-0.516-0.404-0.74-0.807c-0.045,0-0.113-0.021-0.203-0.069
		c-0.178-0.088-0.334-0.133-0.471-0.133c-0.18,0-0.414,0.168-0.705,0.503c-0.291,0.338-0.584,0.752-0.875,1.246
		s-0.549,1.019-0.771,1.582c-0.227,0.559-0.336,1.064-0.336,1.512c0,0.629,0.27,1.031,0.805,1.211c1.75,0,3.531-0.246,5.348-0.74
		c1.816-0.493,3.811-1.288,5.986-2.388c2.174-1.099,4.584-2.499,7.23-4.203c2.645-1.705,5.67-3.768,9.08-6.187
		c0.627-0.45,1.279-0.921,1.949-1.414c0.674-0.494,1.369-0.986,2.086-1.48c0.09,0.092,0.178,0.202,0.27,0.338
		c0.09,0.09,0.168,0.2,0.234,0.336C199.539,103.56,199.574,103.718,199.574,103.897 M181.414,103.091
		c0-0.225-0.135-0.338-0.402-0.338c-0.674,0-1.572,0.383-2.691,1.145c-1.121,0.762-2.23,1.614-3.33,2.557
		c-1.098,0.939-2.051,1.838-2.857,2.688c-0.807,0.853-1.211,1.391-1.211,1.615c0,0.089,0.066,0.134,0.203,0.134
		c0.312,0,0.795-0.156,1.445-0.472c0.648-0.312,1.357-0.715,2.117-1.209c0.764-0.493,1.535-1.03,2.32-1.616
		c0.783-0.582,1.502-1.163,2.152-1.748c0.65-0.582,1.189-1.12,1.615-1.613C181.201,103.739,181.414,103.36,181.414,103.091"/>
	<path fill="#F6851F" d="M197.902,113.876c-0.014-0.049-0.018-0.141-0.018-0.273v-0.2c0-0.205-0.029-0.36-0.084-0.459
		c-0.057-0.102-0.154-0.181-0.289-0.233c0.162-0.055,0.275-0.151,0.348-0.287c0.07-0.136,0.105-0.273,0.105-0.411
		c0-0.117-0.016-0.223-0.053-0.312c-0.037-0.091-0.088-0.174-0.15-0.249c-0.076-0.089-0.166-0.157-0.275-0.205
		c-0.107-0.046-0.26-0.071-0.463-0.076h-1.41v2.947h0.602v-1.156h0.602c0.172,0,0.289,0.032,0.35,0.094
		c0.064,0.064,0.096,0.188,0.1,0.378l0.002,0.273c0.002,0.087,0.01,0.17,0.027,0.254c0.006,0.04,0.021,0.091,0.039,0.157h0.682
		v-0.073C197.955,114.008,197.916,113.95,197.902,113.876 M197.174,112.426c-0.066,0.032-0.166,0.05-0.297,0.05h-0.662v-0.792h0.68
		c0.127,0,0.221,0.017,0.283,0.052c0.115,0.062,0.17,0.18,0.17,0.357C197.348,112.26,197.289,112.369,197.174,112.426"/>
	<path fill="#F6851F" d="M196.756,109.798c-1.553,0-2.818,1.267-2.818,2.82c0,1.552,1.266,2.817,2.818,2.817
		s2.818-1.266,2.818-2.817C199.574,111.064,198.309,109.798,196.756,109.798 M196.756,114.964c-1.295,0-2.348-1.054-2.348-2.346
		c0-1.295,1.053-2.349,2.348-2.349c1.293,0,2.346,1.054,2.346,2.349C199.102,113.91,198.049,114.964,196.756,114.964"/>
</g>
</svg>
