<?xml version="1.0" encoding="utf-8"?>
<!-- Generator: Adobe Illustrator 19.2.1, SVG Export Plug-In . SVG Version: 6.00 Build 0)  -->
<svg version="1.1" id="Capa_1" xmlns="http://www.w3.org/2000/svg" xmlns:xlink="http://www.w3.org/1999/xlink" x="0px" y="0px"
	 viewBox="0 0 400 400" style="enable-background:new 0 0 400 400;" xml:space="preserve">
<style type="text/css">
	.st0{fill:#FFFFFF;}
</style>
<g>
	<path class="st0" d="M113.7,275.6l-22.5,22.5c-5.8-3.3-12.5-5.3-19.7-5.3c-21.8,0-39.4,17.7-39.4,39.4c0,21.8,17.7,39.4,39.4,39.4
		c21.8,0,39.4-17.7,39.4-39.4c0-6.1-1.4-11.9-3.9-17.1l18-18C118.9,291.7,114.8,284.1,113.7,275.6z M71.5,351.3
		c-10.6,0-19.1-8.6-19.1-19.1c0-10.6,8.6-19.1,19.1-19.1c10.6,0,19.1,8.6,19.1,19.1C90.6,342.8,82.1,351.3,71.5,351.3z"/>
	<path class="st0" d="M53.8,117.5l34.7,34.7l11.9-11.9c-1.8-5.7-1.8-11.8,0.1-17.5l23,23c2.3-2.8,4.7-5.5,7.2-8.1
		c3-3,6.1-5.7,9.4-8.2L116.4,106c6-2.4,12.7-2.6,18.9-0.6l13.2-13.2l-34.7-34.7c-2.4-2.4-17.8,9.1-34.4,25.7
		C62.9,99.8,51.4,115.1,53.8,117.5z M84.9,88.7c5-5,13.2-5,18.2,0c2.2,2.2,3.4,4.9,3.7,7.7c0.4,3.7-0.8,7.6-3.7,10.5
		c-4.1,4.1-10.3,4.9-15.2,2.3c-1.1-0.6-2.1-1.3-3-2.3C79.9,101.8,79.9,93.7,84.9,88.7z"/>
	<path class="st0" d="M38.9,102.7C38.9,102.7,38.9,102.7,38.9,102.7l4,4l2.6,2.6c-2.4-2.4,9.1-17.8,25.7-34.4
		c16.6-16.6,32-28.1,34.4-25.7l-2-2l-0.8-0.8L99,42.7c0,0,0,0,0,0l-3-3l-3.6-3.6c-2.4-2.4-17.8,9.1-34.4,25.7
		C41.5,78.4,30,93.8,32.4,96.2L38.9,102.7z"/>
	<path class="st0" d="M93.5,103.6c1.7,0.2,3.4-0.4,4.7-1.7c1.3-1.3,1.8-3,1.7-4.7c-0.1-1.3-0.7-2.6-1.7-3.6c-2.3-2.3-6-2.3-8.3,0
		c-2.3,2.3-2.3,6,0,8.3C90.9,102.9,92.1,103.5,93.5,103.6z"/>
	<path class="st0" d="M283.4,105.9l-22.8,22.8c3.7,2.8,7.1,5.8,10.4,9.1c2.3,2.3,4.4,4.6,6.4,7l22.2-22.2c2,5.7,2,11.9,0.2,17.7
		l11.9,11.9l34.7-34.7c2.4-2.4-9.1-17.8-25.7-34.4c-16.6-16.6-32-28.1-34.4-25.7l-34.7,34.7l13.2,13.2
		C270.8,103.4,277.4,103.6,283.4,105.9z M293.7,95.6c0.4-2.4,1.6-4.8,3.5-6.7c4.9-4.9,12.8-4.9,17.7,0c4.9,4.9,4.9,12.8,0,17.7
		c-0.3,0.3-0.6,0.6-1,0.9c-4.9,4-12.1,3.7-16.7-0.9C294.2,103.6,293,99.5,293.7,95.6z"/>
	<path class="st0" d="M294.5,49.2c2.4-2.4,17.8,9.1,34.4,25.7c16.6,16.6,28.1,32,25.7,34.4l3.7-3.7l0,0l2.9-2.9c0,0,0,0,0,0l6.5-6.5
		c2.4-2.4-9.1-17.8-25.7-34.4c-16.6-16.6-32-28.1-34.4-25.7l-4.5,4.5l0,0l-0.3,0.3l-1.7,1.7c0,0,0,0,0,0l-0.6,0.6L294.5,49.2z"/>
	<path class="st0" d="M309.1,102.7c0.4-0.2,0.7-0.5,1-0.8c2.3-2.3,2.3-6,0-8.3c-2.3-2.3-6-2.3-8.3,0c-0.3,0.3-0.6,0.7-0.8,1
		c-1.5,2.3-1.2,5.3,0.8,7.3C303.8,103.9,306.9,104.2,309.1,102.7z"/>
	<path class="st0" d="M200.8,248.9c-9.6,0-17.4,7.8-17.4,17.4c0,4.1,3.3,7.4,7.4,7.4c4.1,0,7.4-3.3,7.4-7.4c0-1.5,1.2-2.7,2.7-2.7
		c1.5,0,2.7,1.2,2.7,2.7c0,4.1,3.3,7.4,7.4,7.4s7.4-3.3,7.4-7.4C218.2,256.8,210.4,248.9,200.8,248.9z"/>
	<path class="st0" d="M186.6,235.6c3.2-3.9,5.1-8.9,5.1-14.4c0-3.1-0.6-6.1-1.8-8.9c-1.1-2.5-2.6-4.8-4.4-6.8
		c-2.2-2.4-4.9-4.3-7.9-5.5c-2.7-1.1-5.7-1.8-8.9-1.8c-12.7,0-23,10.3-23,23c0,6.6,2.8,12.6,7.3,16.8c4.1,3.8,9.6,6.2,15.7,6.2
		c5.5,0,10.5-1.9,14.4-5.1C184.4,238,185.6,236.8,186.6,235.6z"/>
	<path class="st0" d="M232.9,198.2c-4.7,0-9.1,1.4-12.7,3.8c-1.8,1.2-3.5,2.7-4.9,4.4c-0.5,0.6-1,1.3-1.5,2c-2.4,3.6-3.9,8-3.9,12.7
		c0,12.7,10.3,23,23,23c5.6,0,10.7-2,14.7-5.4c5-4.2,8.2-10.5,8.2-17.6C255.8,208.5,245.5,198.2,232.9,198.2z"/>
	<path class="st0" d="M276.2,272.6c0-3-0.6-6-1.8-8.6c-0.8-1.7-1.7-3.3-2.9-4.7c10.7-14.7,16.6-32.6,16.6-51v-1.6
		c0-11.7-2.3-23-6.8-33.7c-3.1-7.3-7.1-14-12-20.1c-2-2.6-4.2-5-6.6-7.4c-3.2-3.2-6.6-6.1-10.2-8.8c-5.3-3.9-11.1-7.2-17.2-9.8
		c-10.7-4.5-22-6.8-33.7-6.8H200c-11.7,0-23,2.3-33.7,6.8c-6.6,2.8-12.7,6.3-18.3,10.6c-3.2,2.4-6.3,5.1-9.2,8
		c-2.7,2.7-5.1,5.5-7.4,8.4c-4.5,5.8-8.2,12.2-11.1,19.1c-4.5,10.7-6.8,22-6.8,33.7v1.6c0,18.4,5.8,36.2,16.6,50.9c0,0,0,0,0,0
		c-3,3.7-4.7,8.4-4.7,13.3v0.3c0,6.5,3,12.4,7.7,16.3c3.7,3,8.4,4.9,13.5,4.9h7.5v23.4c0,4.1,3.3,7.4,7.4,7.4h78.8
		c4.1,0,7.4-3.3,7.4-7.4V294h7.5c4.6,0,8.9-1.5,12.4-4c5.3-3.8,8.8-10.1,8.8-17.1V272.6z M260.2,249.7c-1.4,2-2.9,3.9-4.5,5.7
		c-1.5,1.7-2.1,4-1.7,6.3c0.1,0.4,0.2,0.7,0.3,1.1c0.6,1.6,1.6,2.9,3.1,3.8c0.2,0.1,0.3,0.2,0.5,0.3c2.2,1.1,3.5,3.3,3.5,5.7v0.3
		c0,3-2.1,5.5-4.9,6.2c-0.5,0.1-1,0.2-1.5,0.2h-14.9c-4.1,0-7.4,3.3-7.4,7.4v23.4h-13.5v-3.1v-14c0-3.4-2.7-6.1-6.1-6.1
		c-3.4,0-6.1,2.7-6.1,6.1v14v3.1h-12.5v-3.1v-14c0-3.4-2.7-6.1-6.1-6.1c-3.4,0-6.1,2.7-6.1,6.1v14v3.1h-13.5v-23.4
		c0-4.1-3.3-7.4-7.4-7.4h-14.9c-1,0-2-0.3-2.9-0.7c-2.1-1.1-3.5-3.2-3.5-5.7v-0.3c0-2.4,1.4-4.6,3.5-5.7c0.2-0.1,0.4-0.2,0.5-0.3
		c1.4-0.9,2.5-2.2,3.1-3.8c0.1-0.4,0.2-0.7,0.3-1.1c0.4-2.2-0.2-4.5-1.7-6.3c-1.9-2.2-3.6-4.4-5.2-6.8
		c-8.1-11.8-12.4-25.9-12.4-40.3v-1.6c0-15.4,4.8-30,13.7-42.2c2.2-3,4.6-5.9,7.3-8.5c2.9-2.9,6-5.5,9.3-7.8
		c12-8.6,26.4-13.2,41.5-13.2h1.6c14.6,0,28.6,4.4,40.4,12.4c3.7,2.5,7.2,5.4,10.4,8.6c2.3,2.3,4.5,4.8,6.5,7.4
		c9.4,12.4,14.5,27.5,14.5,43.3v1.6C273.4,223.2,268.7,237.7,260.2,249.7z"/>
	<path class="st0" d="M328.5,292.8c-7.3,0-14.1,2-19.9,5.4l-20.9-20.9c-1.5,8.3-5.9,15.6-12.1,20.8l17.3,17.3
		c-2.4,5.1-3.8,10.8-3.8,16.9c0,21.8,17.7,39.4,39.4,39.4c21.8,0,39.4-17.7,39.4-39.4C367.9,310.4,350.3,292.8,328.5,292.8z
		 M328.5,351.3c-10.6,0-19.1-8.6-19.1-19.1c0-10.6,8.6-19.1,19.1-19.1c10.6,0,19.1,8.6,19.1,19.1
		C347.6,342.8,339.1,351.3,328.5,351.3z"/>
	<g>
		<g>
			<path class="st0" d="M365.8,30.5c-1.4-1.4-3.2-2.1-5.3-2.1c-2.1,0-3.9,0.7-5.3,2.2c-1.5,1.4-2.2,3.2-2.2,5.3
				c0,2.1,0.7,3.9,2.1,5.3c1.4,1.4,3.2,2.1,5.3,2.1c2.1,0,3.9-0.7,5.4-2.2c1.5-1.4,2.2-3.2,2.2-5.3
				C367.9,33.6,367.2,31.9,365.8,30.5 M364.6,40c-1.1,1.1-2.4,1.6-4.1,1.6c-1.7,0-3-0.5-4.1-1.7c-1.1-1.1-1.6-2.5-1.6-4.2
				c0-1.7,0.5-3.1,1.6-4.2c1.1-1.1,2.4-1.6,4.1-1.6c1.7,0,3.1,0.5,4.2,1.7c1.1,1.1,1.6,2.5,1.6,4.2C366.2,37.5,365.6,38.9,364.6,40"
				/>
			<path class="st0" d="M364,34.4c0-0.9-0.3-1.6-0.9-2.1c-0.6-0.5-1.4-0.7-2.4-0.7h-3.3v8.1h2.3v-2.6h0.6l1.2,2.6h2.4l-1.4-2.9
				C363.5,36.3,364,35.5,364,34.4 M360.6,35.4h-0.9v-1.8h0.9c0.8,0,1.1,0.3,1.1,0.9C361.7,35.1,361.3,35.4,360.6,35.4"/>
		</g>
	</g>
</g>
</svg>
