<?xml version="1.0" encoding="utf-8"?>
<!-- Generator: Adobe Illustrator 15.0.0, SVG Export Plug-In . SVG Version: 6.00 Build 0)  -->
<!DOCTYPE svg PUBLIC "-//W3C//DTD SVG 1.1//EN" "http://www.w3.org/Graphics/SVG/1.1/DTD/svg11.dtd">
<svg version="1.1" id="Layer_1" xmlns="http://www.w3.org/2000/svg" xmlns:xlink="http://www.w3.org/1999/xlink" x="0px" y="0px"
	 width="200px" height="200px" viewBox="0 0 200 200" enable-background="new 0 0 200 200" xml:space="preserve">
<g>
	<path fill="#F48120" d="M181.908,99.817l-25.886-71.343c-0.923-2.558-3.742-3.882-6.301-2.959L21.918,71.623
		c-2.558,0.925-3.884,3.677-2.959,6.235L36.813,127h83.884l58.251-20.947C181.506,105.131,182.832,102.375,181.908,99.817z
		 M30.351,96.846l-5.339-14.885l129.591-46.482l5.339,14.885L30.351,96.846z"/>
	<polygon points="0,146 15,146 15,168 52,168 52,175 0,175 10.698,159.57 	"/>
	<polygon points="200,146 184,146 184,168 147,168 147,175 200,175 189.303,159.57 	"/>
	<g>
		<path d="M74.385,147.086c-0.532-0.385-1.153-0.325-1.419-0.325v6.685c0.267,0,0.887,0.06,1.419-0.325
			c0.533-0.384,0.947-1.242,0.947-3.017C75.332,148.328,74.918,147.47,74.385,147.086z"/>
		<path d="M74.385,138.359c-0.532-0.355-1.153-0.325-1.419-0.325v5.798c0.267,0,0.887,0.029,1.419-0.325
			c0.533-0.355,0.947-1.065,0.947-2.574S74.918,138.715,74.385,138.359z"/>
		<path d="M19.535,127.135v37.209h160.93v-37.209H19.535z M48.297,142.323h-2.988v-2.987c0-0.592-0.148-1.006-0.474-1.361
			c-0.147-0.147-0.414-0.236-0.739-0.236c-0.562,0-0.828,0.414-0.976,0.799c-0.089,0.236-0.118,0.503-0.148,0.799v12.808
			c0.03,0.622,0.208,1.036,0.503,1.361c0.148,0.147,0.355,0.237,0.621,0.237c0.68,0,0.946-0.355,1.095-0.799
			c0.088-0.207,0.118-0.474,0.118-0.8v-2.986h2.988v2.986c-0.03,0.888-0.208,1.687-0.533,2.367c-0.266,0.592-0.68,1.153-1.271,1.598
			c-0.592,0.473-1.391,0.739-2.456,0.739s-1.893-0.267-2.484-0.739c-0.592-0.444-0.977-1.006-1.243-1.598
			c-0.325-0.681-0.502-1.479-0.532-2.367v-12.808c0.03-0.858,0.207-1.657,0.532-2.338c0.267-0.591,0.651-1.183,1.243-1.627
			c0.591-0.443,1.419-0.739,2.484-0.739s1.864,0.296,2.456,0.739c0.591,0.444,1.005,1.036,1.271,1.627
			c0.325,0.681,0.503,1.479,0.533,2.338V142.323z M57.644,156.61h-7.425v-21.741h3.195v18.783h4.229V156.61z M67.435,152.144
			c-0.029,0.888-0.207,1.687-0.532,2.367c-0.266,0.592-0.681,1.153-1.272,1.598c-0.591,0.473-1.39,0.739-2.455,0.739
			s-1.893-0.267-2.485-0.739c-0.591-0.444-0.976-1.006-1.242-1.598c-0.325-0.681-0.503-1.479-0.532-2.367v-17.274h3.194v17.274
			c0,0.622,0.148,1.036,0.444,1.361c0.148,0.147,0.355,0.237,0.621,0.237c0.562,0,0.828-0.355,0.947-0.799
			c0.088-0.207,0.118-0.474,0.118-0.8v-17.274h3.195V152.144z M77.609,154.658c-0.739,1.125-2.011,1.864-3.904,1.952h-3.935v-21.741
			h2.811c1.893,0,3.372,0.355,4.348,1.271c0.976,0.917,1.479,2.337,1.479,4.497c0,1.035-0.089,1.804-0.414,2.514
			c-0.326,0.71-0.829,1.302-1.568,1.982c0.798,0.443,1.39,1.271,1.864,2.662c0.236,0.681,0.354,1.567,0.354,2.662
			C78.645,152.085,78.349,153.534,77.609,154.658z M92.133,146.494c-1.065,1.006-2.455,1.42-3.845,1.42v8.696h-3.195v-21.741h3.195
			c1.39,0,2.78,0.355,3.845,1.36c1.065,1.006,1.775,2.662,1.775,5.147C93.908,143.861,93.198,145.488,92.133,146.494z
			 M98.699,156.61h-3.195v-21.741h3.195V156.61z M104.792,142.058c0.474,0.827,1.095,1.686,1.716,2.603
			c0.739,1.095,1.479,2.219,2.04,3.313c0.562,1.095,0.947,2.218,0.947,3.401c0,1.449-0.236,2.811-0.917,3.815
			c-0.681,1.006-1.774,1.657-3.52,1.657c-2.042,0-3.195-0.77-3.846-1.952c-0.651-1.184-0.799-2.752-0.799-4.379l3.135-0.295
			c0,0.917,0.03,1.834,0.267,2.515c0.207,0.709,0.562,1.183,1.243,1.183c0.946,0,1.301-1.006,1.301-2.396
			c0-0.71-0.354-1.539-0.828-2.396c-0.266-0.414-0.532-0.857-0.828-1.302c-0.621-0.888-1.302-1.894-2.012-2.988
			c-0.709-1.094-1.242-2.218-1.568-3.372c-0.176-0.561-0.266-1.153-0.266-1.745c0-1.183,0.266-2.455,0.947-3.431
			c0.68-0.946,1.715-1.627,3.225-1.657c1.922-0.029,3.047,0.77,3.667,1.924c0.621,1.183,0.799,2.632,0.799,3.845l-3.136,0.296
			c0-0.71-0.029-1.509-0.236-2.13c-0.207-0.592-0.532-1.006-1.036-1.006c-0.827,0.03-1.094,0.888-1.094,2.159
			C103.993,140.46,104.318,141.229,104.792,142.058z M119.315,138.152h-3.018v18.458h-3.194v-18.458h-3.019v-3.283h9.23V138.152z
			 M128.869,152.144c-0.03,0.888-0.207,1.687-0.532,2.367c-0.267,0.592-0.681,1.153-1.272,1.598
			c-0.591,0.473-1.391,0.739-2.455,0.739s-1.894-0.267-2.484-0.739c-0.592-0.444-0.977-1.006-1.243-1.598
			c-0.325-0.681-0.502-1.479-0.532-2.367v-12.808c0.03-0.858,0.207-1.657,0.532-2.338c0.267-0.591,0.651-1.183,1.243-1.627
			c0.591-0.443,1.42-0.739,2.484-0.739s1.864,0.296,2.455,0.739c0.592,0.444,1.006,1.036,1.272,1.627
			c0.325,0.681,0.502,1.479,0.532,2.338V152.144z M140.346,156.61h-2.84l-3.105-11.329l-0.267-1.005h-0.178v12.334h-2.928v-21.741
			h2.84l3.104,11.329l0.268,1.006h0.177v-12.335h2.929V156.61z M150.019,138.152h-4.113v5.709h2.959v3.49h-2.959v5.976h4.113v3.283
			h-7.308v-21.741h7.308V138.152z M155.52,142.058c0.473,0.827,1.094,1.686,1.715,2.603c0.74,1.095,1.479,2.219,2.042,3.313
			c0.562,1.095,0.946,2.218,0.946,3.401c0,1.449-0.237,2.811-0.917,3.815c-0.681,1.006-1.774,1.657-3.521,1.657
			c-2.041,0-3.194-0.77-3.845-1.952c-0.651-1.184-0.8-2.752-0.8-4.379l3.137-0.295c0,0.917,0.028,1.834,0.266,2.515
			c0.207,0.709,0.562,1.183,1.242,1.183c0.946,0,1.302-1.006,1.302-2.396c0-0.71-0.355-1.539-0.828-2.396
			c-0.267-0.414-0.532-0.857-0.828-1.302c-0.621-0.888-1.302-1.894-2.012-2.988c-0.71-1.094-1.242-2.218-1.567-3.372
			c-0.178-0.561-0.268-1.153-0.268-1.745c0-1.183,0.268-2.455,0.947-3.431c0.681-0.946,1.716-1.627,3.225-1.657
			c1.922-0.029,3.047,0.77,3.668,1.924c0.622,1.183,0.799,2.632,0.799,3.845l-3.136,0.296c0-0.71-0.03-1.509-0.237-2.13
			c-0.206-0.592-0.532-1.006-1.035-1.006c-0.828,0.03-1.094,0.888-1.094,2.159C154.721,140.46,155.046,141.229,155.52,142.058z"/>
		<path d="M88.288,138.123v6.537c0.976,0,1.597-0.177,1.952-0.681c0.355-0.473,0.444-1.271,0.444-2.484s-0.089-2.071-0.444-2.604
			S89.264,138.123,88.288,138.123z"/>
		<path d="M124.609,137.738c-0.562,0-0.828,0.414-0.946,0.799c-0.089,0.236-0.118,0.503-0.118,0.799v12.808
			c0,0.622,0.146,1.036,0.443,1.361c0.147,0.147,0.354,0.237,0.621,0.237c0.562,0,0.828-0.355,0.946-0.799
			c0.089-0.207,0.118-0.474,0.118-0.8v-12.808c0-0.592-0.118-1.006-0.414-1.361C125.112,137.827,124.876,137.738,124.609,137.738z"
			/>
	</g>
</g>
</svg>
