<?xml version="1.0" encoding="utf-8"?>
<!-- Generator: Adobe Illustrator 15.0.0, SVG Export Plug-In . SVG Version: 6.00 Build 0)  -->
<!DOCTYPE svg PUBLIC "-//W3C//DTD SVG 1.1//EN" "http://www.w3.org/Graphics/SVG/1.1/DTD/svg11.dtd">
<svg version="1.1" id="Layer_1" xmlns="http://www.w3.org/2000/svg" xmlns:xlink="http://www.w3.org/1999/xlink" x="0px" y="0px"
	 width="200px" height="200px" viewBox="0 0 200 200" enable-background="new 0 0 200 200" xml:space="preserve">
<g>
	<g>
		<path fill="#F5841F" d="M15.749,105.568v4.867c-0.049,1.446-0.338,2.747-0.868,3.856c-0.434,0.964-1.108,1.88-2.072,2.603
			c-0.964,0.771-2.266,1.205-4.001,1.205s-3.085-0.434-4.049-1.205c-0.964-0.723-1.591-1.639-2.024-2.603
			c-0.53-1.109-0.819-2.41-0.867-3.856V89.565c0.048-1.398,0.337-2.699,0.867-3.808c0.434-0.964,1.061-1.928,2.024-2.651
			s2.313-1.205,4.049-1.205s3.037,0.481,4.001,1.205s1.639,1.687,2.072,2.651c0.53,1.108,0.819,2.41,0.868,3.808v4.869h-4.868
			v-4.869c0-0.964-0.241-1.639-0.771-2.217c-0.241-0.241-0.675-0.385-1.205-0.385c-0.916,0-1.35,0.674-1.591,1.301
			c-0.145,0.386-0.192,0.819-0.241,1.301v20.871c0.049,1.012,0.338,1.688,0.819,2.217c0.241,0.241,0.579,0.387,1.013,0.387
			c1.108,0,1.542-0.579,1.783-1.302c0.145-0.338,0.193-0.771,0.193-1.302v-4.867H15.749z"/>
		<path fill="#F5841F" d="M18.881,82.287h5.206v30.607h6.893v4.82H18.881V82.287z"/>
		<path fill="#F5841F" d="M46.934,82.287v28.149c-0.048,1.446-0.337,2.747-0.868,3.856c-0.434,0.964-1.108,1.88-2.072,2.603
			c-0.964,0.771-2.266,1.205-4,1.205c-1.735,0-3.085-0.434-4.05-1.205c-0.964-0.723-1.59-1.639-2.023-2.603
			c-0.53-1.109-0.82-2.41-0.868-3.856V82.287h5.206v28.149c0,1.012,0.241,1.688,0.723,2.217c0.241,0.241,0.578,0.387,1.013,0.387
			c0.915,0,1.35-0.579,1.542-1.302c0.145-0.338,0.192-0.771,0.192-1.302V82.287H46.934z"/>
		<path fill="#F5841F" d="M50.741,117.714V82.287h4.579c3.085,0,5.495,0.578,7.085,2.072c1.591,1.495,2.41,3.808,2.41,7.327
			c0,1.687-0.145,2.94-0.675,4.097c-0.529,1.156-1.349,2.121-2.555,3.229c1.302,0.723,2.266,2.072,3.037,4.338
			c0.386,1.108,0.579,2.555,0.579,4.338c0,2.651-0.482,5.013-1.688,6.844c-1.205,1.832-3.278,3.037-6.363,3.182H50.741z
			 M55.947,96.891c0.434,0,1.445,0.048,2.313-0.53c0.867-0.578,1.542-1.735,1.542-4.193c0-2.458-0.675-3.615-1.542-4.193
			c-0.868-0.579-1.88-0.531-2.313-0.531V96.891z M55.947,112.557c0.434,0,1.445,0.096,2.313-0.53
			c0.867-0.627,1.542-2.024,1.542-4.917c0-2.892-0.675-4.289-1.542-4.916c-0.868-0.627-1.88-0.53-2.313-0.53V112.557z"/>
		<path fill="#F5841F" d="M75.708,82.287h5.206c2.266,0,4.531,0.578,6.267,2.217c1.735,1.639,2.892,4.338,2.892,8.387
			c0,4.048-1.156,6.7-2.892,8.338s-4.001,2.313-6.267,2.313v14.171h-5.206V82.287z M80.914,98.241c1.591,0,2.604-0.289,3.182-1.109
			c0.578-0.771,0.723-2.072,0.723-4.048c0-1.977-0.145-3.375-0.723-4.242c-0.578-0.867-1.591-1.253-3.182-1.253V98.241z"/>
		<path fill="#F5841F" d="M92.675,82.287h5.206v35.427h-5.206V82.287z"/>
		<path fill="#F5841F" d="M110.363,91.782c0-1.157-0.048-2.458-0.386-3.471c-0.338-0.964-0.867-1.639-1.688-1.639
			c-1.349,0.048-1.782,1.446-1.782,3.519c0,1.205,0.529,2.458,1.301,3.808s1.783,2.748,2.796,4.242
			c1.205,1.783,2.41,3.615,3.325,5.398c0.916,1.783,1.543,3.615,1.543,5.542c0,2.362-0.386,4.58-1.494,6.219
			c-1.108,1.64-2.893,2.699-5.736,2.699c-3.325,0-5.206-1.253-6.266-3.182c-1.061-1.928-1.302-4.482-1.302-7.133l5.109-0.482
			c0,1.494,0.049,2.988,0.434,4.097c0.338,1.157,0.916,1.929,2.024,1.929c1.543,0,2.121-1.639,2.121-3.904
			c0-1.157-0.578-2.508-1.35-3.904c-0.434-0.675-0.868-1.397-1.35-2.121c-1.013-1.445-2.121-3.084-3.277-4.868
			c-1.157-1.783-2.025-3.615-2.555-5.495c-0.29-0.916-0.434-1.88-0.434-2.844c0-1.928,0.434-4.001,1.542-5.592
			c1.108-1.542,2.796-2.651,5.254-2.699c3.133-0.048,4.965,1.253,5.977,3.133c1.013,1.928,1.302,4.29,1.302,6.266L110.363,91.782z"
			/>
		<path fill="#F5841F" d="M116.436,87.637v-5.35h15.039v5.35h-4.916v30.077h-5.206V87.637H116.436z"/>
		<path fill="#F5841F" d="M147.043,110.436c-0.048,1.446-0.337,2.747-0.867,3.856c-0.434,0.964-1.109,1.88-2.072,2.603
			c-0.965,0.771-2.266,1.205-4.001,1.205s-3.085-0.434-4.049-1.205c-0.965-0.723-1.592-1.639-2.025-2.603
			c-0.529-1.109-0.819-2.41-0.867-3.856V89.565c0.048-1.398,0.338-2.699,0.867-3.808c0.434-0.964,1.061-1.928,2.025-2.651
			c0.964-0.723,2.313-1.205,4.049-1.205s3.036,0.481,4.001,1.205c0.963,0.723,1.639,1.687,2.072,2.651
			c0.53,1.108,0.819,2.41,0.867,3.808V110.436z M141.838,89.565c0-0.964-0.193-1.639-0.676-2.217
			c-0.24-0.241-0.626-0.385-1.06-0.385c-0.916,0-1.35,0.674-1.543,1.301c-0.145,0.386-0.192,0.819-0.192,1.301v20.871
			c0,1.012,0.24,1.688,0.723,2.217c0.241,0.241,0.579,0.387,1.013,0.387c0.916,0,1.35-0.579,1.542-1.302
			c0.145-0.338,0.193-0.771,0.193-1.302V89.565z"/>
		<path fill="#F5841F" d="M156.056,99.253l-0.434-1.639h-0.289v20.1h-4.772V82.287h4.627l5.062,18.461l0.435,1.639h0.288v-20.1
			h4.772v35.427h-4.627L156.056,99.253z"/>
		<path fill="#F5841F" d="M169.6,82.287h11.906v5.35h-6.7v9.303h4.819v5.688h-4.819v9.736h6.7v5.351H169.6V82.287z"/>
		<path fill="#F5841F" d="M193.023,91.782c0-1.157-0.048-2.458-0.385-3.471c-0.338-0.964-0.868-1.639-1.688-1.639
			c-1.35,0.048-1.783,1.446-1.783,3.519c0,1.205,0.53,2.458,1.302,3.808c0.771,1.35,1.783,2.748,2.796,4.242
			c1.204,1.783,2.409,3.615,3.325,5.398s1.542,3.615,1.542,5.542c0,2.362-0.386,4.58-1.494,6.219
			c-1.108,1.64-2.893,2.699-5.735,2.699c-3.326,0-5.206-1.253-6.267-3.182c-1.061-1.928-1.302-4.482-1.302-7.133l5.109-0.482
			c0,1.494,0.049,2.988,0.434,4.097c0.338,1.157,0.916,1.929,2.025,1.929c1.542,0,2.12-1.639,2.12-3.904
			c0-1.157-0.578-2.508-1.35-3.904c-0.434-0.675-0.867-1.397-1.35-2.121c-1.013-1.445-2.12-3.084-3.277-4.868
			c-1.157-1.783-2.024-3.615-2.555-5.495c-0.289-0.916-0.434-1.88-0.434-2.844c0-1.928,0.434-4.001,1.542-5.592
			c1.108-1.542,2.797-2.651,5.254-2.699c3.134-0.048,4.965,1.253,5.977,3.133c1.013,1.928,1.302,4.29,1.302,6.266L193.023,91.782z"
			/>
	</g>
</g>
</svg>
