<?xml version="1.0" encoding="utf-8"?>
<!-- Generator: Adobe Illustrator 15.0.0, SVG Export Plug-In . SVG Version: 6.00 Build 0)  -->
<!DOCTYPE svg PUBLIC "-//W3C//DTD SVG 1.1//EN" "http://www.w3.org/Graphics/SVG/1.1/DTD/svg11.dtd">
<svg version="1.1" id="Layer_1" xmlns="http://www.w3.org/2000/svg" xmlns:xlink="http://www.w3.org/1999/xlink" x="0px" y="0px"
	 width="200px" height="200px" viewBox="0 0 200 200" enable-background="new 0 0 200 200" xml:space="preserve">
<g>
	<path fill="#F58220" d="M40.802,107.468c0.648-1.192,0.973-1.894,0.973-2.101c0-0.103-0.053-0.155-0.156-0.155
		c-0.104,0-0.182,0.026-0.233,0.078c-0.053,0.052-0.13,0.104-0.234,0.154c-0.104,0.105-0.208,0.183-0.311,0.234
		c-4.305,2.594-8.362,4.836-12.174,6.729c-3.812,1.894-7.196,3.462-10.152,4.707c-2.957,1.244-5.381,2.179-7.273,2.801
		c-1.894,0.622-3.073,0.934-3.54,0.934c-0.727,0-1.181-0.195-1.362-0.584c-0.182-0.389-0.272-0.765-0.272-1.128
		c0-1.504,0.623-3.604,1.868-6.302c1.244-2.696,2.968-5.627,5.173-8.789c2.204-3.163,4.835-6.38,7.896-9.646
		c3.06-3.268,6.43-6.224,10.113-8.869c3.682-2.645,7.597-4.81,11.747-6.495c4.149-1.686,8.402-2.529,12.758-2.529
		c0.881,0,1.451,0.117,1.711,0.351c0.259,0.233,0.389,0.48,0.389,0.739c0,0.416-0.389,1.038-1.167,1.867
		c-0.778,0.83-1.764,1.75-2.956,2.762c-1.194,1.011-2.489,2.061-3.89,3.15c-1.4,1.089-2.75,2.062-4.045,2.917
		c-1.296,0.855-2.438,1.569-3.423,2.14c-0.985,0.571-1.634,0.855-1.945,0.855l-0.078-0.078c0-0.104,0.129-0.259,0.389-0.467
		c0.259-0.207,0.751-0.595,1.479-1.167c1.14-0.622,1.867-1.153,2.178-1.595c0.311-0.439,0.467-0.765,0.467-0.972
		c0-0.415-0.104-0.623-0.311-0.623c-0.104,0-0.221,0.039-0.35,0.117c-0.13,0.078-0.247,0.169-0.35,0.272l-0.389,0.389
		c-0.882,0.622-1.894,1.232-3.034,1.828c-1.141,0.597-2.23,1.155-3.267,1.672c-1.245,0.571-2.464,1.116-3.657,1.634
		c-0.727,0.416-1.219,0.777-1.478,1.09c-0.26,0.311-0.389,0.622-0.389,0.933c0,0.778,0.246,1.453,0.739,2.022
		c0.492,0.572,1.076,1.025,1.751,1.362c0.673,0.338,1.387,0.597,2.139,0.777c0.751,0.183,1.412,0.272,1.984,0.272
		c1.556,0,3.279-0.297,5.173-0.895c1.893-0.596,3.785-1.388,5.679-2.372c1.893-0.985,3.721-2.113,5.484-3.384
		c1.763-1.271,3.332-2.606,4.707-4.007c1.374-1.4,2.476-2.787,3.306-4.162c0.829-1.373,1.245-2.657,1.245-3.851
		c0-1.606-0.428-2.929-1.284-3.967c-0.856-1.037-1.919-1.867-3.189-2.49c-1.271-0.622-2.632-1.05-4.084-1.283
		c-1.453-0.233-2.75-0.35-3.889-0.35c-3.631,0-7.404,0.558-11.319,1.672c-3.917,1.116-7.768,2.659-11.553,4.629
		c-3.786,1.972-7.39,4.292-10.813,6.962c-3.422,2.672-6.431,5.537-9.024,8.597c-2.594,3.061-4.656,6.276-6.185,9.646
		c-1.53,3.371-2.322,6.716-2.372,10.034c0.103,2.75,0.595,5.161,1.478,7.234c0.362,0.935,0.817,1.829,1.362,2.685
		c0.544,0.855,1.231,1.62,2.061,2.295c0.829,0.673,1.79,1.218,2.878,1.634c1.089,0.415,2.36,0.622,3.812,0.622
		c3.007,0,5.835-0.532,8.479-1.595c2.645-1.063,5.082-2.411,7.312-4.045c2.229-1.635,4.24-3.396,6.029-5.289
		c1.789-1.895,3.306-3.669,4.551-5.331C39.207,110.087,40.152,108.661,40.802,107.468z"/>
	<path fill="#F58220" d="M115.441,94.243c0.206,0.156,0.439,0.26,0.7,0.312c1.036,0,1.995-0.234,2.879-0.7
		c0.88-0.467,1.684-0.984,2.41-1.557c0.83-0.673,1.582-1.451,2.257-2.333c0.258-0.26,0.414-0.506,0.467-0.739
		c0.05-0.233,0.077-0.479,0.077-0.739c0-0.311-0.077-0.608-0.233-0.895c-0.156-0.284-0.44-0.687-0.855-1.206
		c-0.104-0.103-0.207-0.155-0.312-0.155s-0.208-0.025-0.311-0.077c-0.156,0-0.286-0.025-0.39-0.078
		c-0.519,0-1.193,0.194-2.021,0.583c-0.832,0.39-1.647,0.895-2.452,1.518c-0.805,0.622-1.49,1.349-2.06,2.178
		c-0.572,0.83-0.857,1.66-0.857,2.489C114.74,93.518,114.974,93.984,115.441,94.243z"/>
	<path fill="#F58220" d="M199.883,101.867c-0.078-0.156-0.169-0.285-0.272-0.39c-0.104-0.155-0.208-0.284-0.312-0.389
		c-5.134,3.786-9.841,7.118-14.119,9.996s-7.896,5.018-10.852,6.418c0.051-0.674,0.297-1.4,0.739-2.178
		c0.439-0.779,1.101-1.725,1.983-2.839c0.881-1.115,1.984-2.452,3.306-4.008c1.323-1.555,2.891-3.448,4.707-5.679
		c0.467-0.413,0.765-0.778,0.895-1.089c0.129-0.312,0.194-0.569,0.194-0.778c0-0.415-0.17-0.764-0.506-1.05
		c-0.338-0.284-0.636-0.453-0.895-0.506c-0.311-0.362-0.544-0.609-0.7-0.739c-0.155-0.128-0.363-0.193-0.622-0.193
		c-0.208,0-0.402,0.038-0.584,0.116c-0.182,0.077-0.35,0.169-0.506,0.272c-0.207,0.156-0.363,0.286-0.466,0.389
		c-0.261-0.57-0.572-1.062-0.935-1.479c-0.363-0.413-0.829-0.622-1.4-0.622c-1.814,0-3.798,0.455-5.95,1.361
		c-2.152,0.907-4.305,2.101-6.456,3.578c-2.153,1.479-4.229,3.139-6.224,4.979c-1.089,1.004-2.106,2.004-3.065,3
		c-1.41,1.065-2.754,2.066-4.014,2.989c-1.944,1.428-3.76,2.697-5.444,3.812c-1.687,1.117-3.334,2.011-4.94,2.685
		c-1.4,0.622-2.335,0.935-2.801,0.935c-0.416,0-0.662-0.092-0.739-0.273c-0.077-0.181-0.116-0.324-0.116-0.428
		c0-1.141,0.182-2.165,0.545-3.073c0.362-0.906,1.012-1.97,1.943-3.188c0.935-1.219,2.205-2.684,3.813-4.395
		c1.606-1.712,3.655-3.968,6.144-6.769c0.208-0.26,0.312-0.545,0.312-0.856c0-0.206-0.038-0.375-0.116-0.506
		c-0.077-0.128-0.169-0.245-0.273-0.349c-0.155-0.105-0.285-0.208-0.388-0.312l-2.178-0.622c-0.157-0.103-0.39-0.155-0.7-0.155
		c-0.262,0-0.506,0.039-0.74,0.116c-0.232,0.078-0.454,0.169-0.661,0.272c-0.207,0.156-0.442,0.286-0.699,0.389
		c-2.179,1.816-4.591,3.696-7.235,5.64c-2.645,1.945-5.187,3.748-7.624,5.408l-0.389,0.232l-0.078-0.078
		c0-0.154,0.156-0.439,0.467-0.855c0.155-0.206,0.338-0.414,0.545-0.623l5.834-8.09c0.26-0.362,0.39-0.726,0.39-1.089
		c0-0.312-0.169-0.595-0.506-0.856c-0.338-0.258-0.714-0.466-1.128-0.622c-0.415-0.155-0.805-0.283-1.167-0.388
		c-0.363-0.104-0.598-0.156-0.7-0.156c-0.52,0-1.116,0.454-1.788,1.361c-0.602,0.809-1.258,1.792-1.961,2.932
		c-2.606,1.882-5.168,3.629-7.686,5.235c-3.371,2.153-6.406,4.033-9.102,5.641c-3.164,1.867-6.172,3.58-9.024,5.135
		c-0.882,0.312-1.504,0.466-1.866,0.466c-0.622,0-0.935-0.283-0.935-0.854c0-0.362,0.104-0.804,0.312-1.323
		c0.103-0.206,0.205-0.414,0.31-0.623c0.519-1.555,1.375-3.201,2.568-4.938c1.192-1.738,2.411-3.358,3.655-4.862
		c1.452-1.711,3.034-3.447,4.746-5.212c0.362-0.362,0.544-0.647,0.544-0.856c0-0.103-0.025-0.193-0.077-0.271
		c-0.053-0.078-0.104-0.168-0.156-0.273c-0.104-0.05-0.182-0.103-0.232-0.154c-0.467-0.208-1.077-0.362-1.828-0.468
		c-0.754-0.103-1.311-0.154-1.673-0.154c-0.312,0-0.622,0.052-0.934,0.154c-0.312,0.105-0.597,0.209-0.855,0.312
		c-0.311,0.155-0.597,0.285-0.855,0.389c-0.26,0.104-0.739,0.532-1.44,1.284c-0.561,0.603-1.19,1.326-1.885,2.162
		c-0.236,0.17-0.488,0.355-0.72,0.521c-3.942,2.8-7.391,5.187-10.347,7.157s-5.64,3.591-8.051,4.862
		c-2.412,1.271-4.628,2.19-6.651,2.762c-2.022,0.57-4.045,0.855-6.067,0.855c-0.831,0-1.245-0.545-1.245-1.634
		c0-0.984,0.518-2.359,1.556-4.123c1.037-1.763,2.412-3.54,4.123-5.329c1.711-1.79,3.682-3.41,5.912-4.861
		c2.229-1.452,4.563-2.359,7.001-2.724c0.259,0,0.389,0.155,0.389,0.468c0,0.104-0.014,0.193-0.039,0.271
		c-0.027,0.079-0.04,0.144-0.04,0.196l-0.077,0.155c-0.311,0.416-0.792,0.895-1.439,1.438c-0.65,0.545-1.311,1.024-1.984,1.439
		c-0.778,0.572-1.608,1.089-2.49,1.557c-0.466,0.154-0.7,0.389-0.7,0.699c0,0.572,0.246,0.908,0.739,1.012
		c0.492,0.105,0.92,0.155,1.283,0.155c1.711,0,3.28-0.271,4.707-0.815c1.425-0.545,2.645-1.233,3.656-2.062
		c1.012-0.83,1.815-1.723,2.412-2.685c0.596-0.958,0.895-1.853,0.895-2.684c-0.053-0.569-0.26-1.088-0.623-1.555
		c-0.312-0.415-0.792-0.778-1.439-1.09c-0.649-0.312-1.594-0.467-2.839-0.467c-1.556,0-3.306,0.26-5.251,0.778
		c-1.945,0.519-3.929,1.258-5.951,2.216c-0.737,0.351-1.466,0.733-2.19,1.132c-0.021-0.024-0.043-0.06-0.065-0.081
		c-0.184,0.144-0.362,0.276-0.544,0.418c-1.052,0.602-2.091,1.25-3.113,1.955c-1.293,0.891-2.491,1.865-3.607,2.91
		c-0.041,0.027-0.084,0.058-0.125,0.085c-0.985,0.675-2.01,1.322-3.073,1.944c-1.063,0.622-2.075,1.181-3.034,1.673
		c-0.96,0.494-1.867,0.896-2.723,1.205c-0.855,0.312-1.595,0.467-2.217,0.467c1.348-2.022,2.423-4.019,3.229-5.989
		c0.803-1.97,1.206-3.682,1.206-5.134c0-0.363-0.065-0.688-0.194-0.973c-0.13-0.284-0.272-0.558-0.428-0.817
		c-0.208-0.259-0.416-0.492-0.622-0.7c-0.416-0.415-0.792-0.687-1.128-0.816c-0.338-0.129-0.636-0.195-0.895-0.195
		c-0.571,0.053-0.947,0.183-1.128,0.39c-0.182,0.207-0.455,0.337-0.816,0.389c-0.416-0.052-0.662-0.195-0.74-0.428
		c-0.078-0.233-0.455-0.351-1.128-0.351c-3.216,1.194-6.106,2.762-8.674,4.707c-2.567,1.945-4.745,3.993-6.534,6.145
		c-1.79,2.153-3.165,4.28-4.123,6.38c-0.959,2.1-1.439,3.929-1.439,5.483c0,1.246,0.208,2.245,0.622,2.996
		c0.416,0.753,0.921,1.336,1.517,1.751c0.595,0.414,1.231,0.699,1.906,0.854c0.673,0.156,1.296,0.26,1.867,0.312
		c1.141,0,2.334-0.273,3.579-0.818c1.245-0.545,2.528-1.27,3.851-2.178c1.322-0.906,2.631-1.983,3.928-3.228
		c1.296-1.245,2.541-2.568,3.734-3.968c0.259,0.053,0.492,0.092,0.7,0.116c0.207,0.027,0.44,0.039,0.7,0.039
		c1.659,0,3.461-0.479,5.407-1.439c0.487-0.24,0.969-0.49,1.448-0.754c-0.829,1.817-1.255,3.712-1.255,5.693
		c0,1.35,0.181,2.438,0.545,3.269c0.362,0.829,0.842,1.478,1.439,1.944c0.596,0.466,1.245,0.778,1.945,0.934
		c0.7,0.154,1.387,0.233,2.062,0.233c1.814,0,3.851-0.389,6.106-1.167s4.589-1.814,7.001-3.111s4.823-2.748,7.235-4.357
		c2.411-1.606,4.693-3.228,6.846-4.86c0.084-0.064,0.163-0.127,0.247-0.19c-0.03,0.05-0.063,0.101-0.092,0.15
		c-0.805,1.4-1.466,2.735-1.984,4.007c-0.519,1.271-0.777,2.348-0.777,3.228c0,1.332,0.181,2.408,0.544,3.228
		c0.362,0.82,0.842,1.462,1.439,1.922c0.595,0.461,1.245,0.769,1.945,0.923c0.7,0.15,1.387,0.229,2.061,0.229
		c0.415,0,0.804-0.014,1.167-0.038c0.362-0.027,0.674-0.063,0.935-0.116c0.31-0.052,0.622-0.127,0.933-0.229
		c0.984-0.309,2.151-0.846,3.501-1.614c1.348-0.769,2.801-1.69,4.355-2.767c1.557-1.076,3.151-2.248,4.785-3.52
		c1.633-1.271,3.229-2.555,4.784-3.852c1.227-1.017,2.482-2.082,3.75-3.169c-0.312,0.37-0.627,0.729-0.95,1.067
		c-0.623,0.832-1.389,1.739-2.296,2.724c-0.908,0.986-1.802,1.92-2.683,2.801c-0.987,1.038-2.023,2.074-3.112,3.111
		c-0.259,0.416-0.389,0.883-0.389,1.4c0,0.935,0.271,1.557,0.816,1.866c0.545,0.312,1.128,0.468,1.75,0.468
		c0.26,0,0.467-0.012,0.622-0.039c0.156-0.025,0.312-0.063,0.467-0.116c0.156-0.052,0.312-0.13,0.468-0.233
		c0.414-0.206,1.152-0.688,2.217-1.439c1.062-0.752,2.358-1.711,3.89-2.878c1.529-1.167,3.255-2.516,5.174-4.045
		c1.917-1.529,3.914-3.151,5.989-4.863c0.312-0.258,0.466-0.362,0.466-0.311c0,0.053-0.025,0.117-0.077,0.194
		c-0.053,0.078-0.104,0.169-0.155,0.272c-0.104,0.156-0.182,0.286-0.233,0.389l-3.345,4.59c-0.728,1.039-1.22,1.997-1.479,2.878
		c-0.26,0.883-0.39,1.608-0.39,2.179c0,1.349,0.183,2.438,0.545,3.268s0.843,1.478,1.44,1.943c0.595,0.468,1.244,0.78,1.943,0.935
		c0.701,0.155,1.388,0.233,2.062,0.233c0.828,0,1.892-0.311,3.189-0.933c1.295-0.622,2.695-1.44,4.199-2.451
		c1.276-0.857,2.621-1.853,4.011-2.937c-0.073,0.34-0.12,0.661-0.12,0.953c0,0.985,0.182,1.75,0.544,2.295
		c0.364,0.544,0.752,0.973,1.167,1.282c0.519,0.362,1.09,0.622,1.712,0.778c1.348,0,2.812-0.505,4.395-1.517
		c1.581-1.012,3.099-2.112,4.551-3.307c1.659-1.399,3.345-3.007,5.057-4.822c0.207-0.207,0.362-0.312,0.467-0.312
		c0.052,0,0.077,0.077,0.077,0.233s-0.038,0.428-0.116,0.817c-0.078,0.389-0.155,0.829-0.233,1.321
		c-0.077,0.495-0.144,1.001-0.194,1.518c-0.053,0.52-0.078,0.96-0.078,1.322c0,1.661,0.221,2.789,0.661,3.384
		c0.439,0.596,1.102,0.896,1.983,0.896c0.519,0,1.336-0.312,2.451-0.935c1.114-0.622,2.398-1.438,3.851-2.449
		c1.451-1.012,3.021-2.179,4.706-3.5c1.686-1.324,3.358-2.657,5.019-4.008c3.939-3.214,8.219-6.846,12.835-10.892
		c0.468-0.413,0.701-0.881,0.701-1.399C200,102.204,199.96,102.021,199.883,101.867z M52.937,115.13
		c-0.7,0.856-1.556,1.738-2.567,2.646c-1.012,0.908-2.075,1.7-3.189,2.372c-1.116,0.675-2.139,1.012-3.073,1.012
		c-0.26,0-0.388-0.207-0.388-0.622c0-0.104,0.116-0.545,0.35-1.322c0.233-0.778,0.635-1.751,1.206-2.919
		c0.57-1.166,1.322-2.449,2.255-3.85c0.934-1.4,2.074-2.722,3.423-3.968c0.051,0,0.167,0.195,0.35,0.584
		c0.181,0.389,0.415,0.855,0.7,1.4c0.284,0.544,0.596,1.089,0.934,1.634c0.336,0.545,0.712,0.973,1.128,1.283
		C54.012,113.691,53.637,114.275,52.937,115.13z M59.51,106.066c-0.467,0.884-0.973,1.673-1.517,2.374
		c-0.544,0.7-1.077,1.049-1.595,1.049c-0.156,0-0.389-0.232-0.7-0.699s-0.467-0.777-0.467-0.934c0-0.311,0.246-0.789,0.739-1.438
		c0.492-0.647,1.062-1.283,1.711-1.906c0.647-0.622,1.283-1.18,1.906-1.673c0.622-0.492,1.062-0.739,1.322-0.739
		c0.103,0,0.155,0.052,0.155,0.156c0,0.155-0.144,0.609-0.428,1.361C60.352,104.369,59.976,105.186,59.51,106.066z M170.204,110.424
		c-1.141,0.935-2.269,1.866-3.384,2.801c-1.115,0.933-2.152,1.75-3.111,2.449c-0.96,0.701-1.776,1.271-2.45,1.712
		c-0.675,0.442-1.142,0.662-1.4,0.662c-0.104,0-0.156-0.052-0.156-0.156c0-0.415,0.338-1.09,1.012-2.022
		c0.674-0.934,1.543-1.983,2.606-3.15c1.062-1.167,2.281-2.358,3.656-3.578c1.373-1.219,2.787-2.347,4.239-3.384
		s2.865-1.88,4.24-2.529c1.373-0.647,2.579-0.972,3.617-0.972c0.155,0,0.233,0.025,0.233,0.078c0,0.104-0.104,0.26-0.312,0.466
		C175.779,105.653,172.85,108.195,170.204,110.424z"/>
</g>
</svg>
