<?xml version="1.0" encoding="utf-8"?>
<!-- Generator: Adobe Illustrator 19.2.1, SVG Export Plug-In . SVG Version: 6.00 Build 0)  -->
<svg version="1.1" id="Layer_1" xmlns="http://www.w3.org/2000/svg" xmlns:xlink="http://www.w3.org/1999/xlink" x="0px" y="0px"
	 viewBox="0 0 200 200" style="enable-background:new 0 0 200 200;" xml:space="preserve">
<style type="text/css">
	.st0{fill:#FFFFFF;}
</style>
<g>
	<path class="st0" d="M126.7,88.2c1.2,0,2.3-0.5,3.2-1.4s1.3-1.9,1.3-3.1c0-1.2-0.5-2.3-1.4-3.2c-0.9-0.9-2-1.3-3.1-1.3
		c-1.2,0-2.3,0.4-3.2,1.3c-0.9,0.9-1.3,1.9-1.3,3.2c0,1.2,0.4,2.2,1.3,3.1C124.5,87.8,125.5,88.2,126.7,88.2z"/>
	<path class="st0" d="M196.8,109.7c-0.9-0.7-1.9-0.8-3-0.4c-0.5,0.3-1,0.7-1.5,1.2c-0.4,0.5-0.9,1-1.3,1.4l-8.4,8.4
		c-0.7,0.7-1.5,1.4-2.2,2.1c-0.7,0.6-1.6,1.2-2.4,1.7c-0.7,0.4-1.3,0.5-1.6,0.4c-0.3-0.2-0.5-0.5-0.6-0.9s0-0.9,0.2-1.5
		c0.2-0.6,0.4-1.2,0.8-1.7c1-2,2.3-3.9,3.7-5.7c1.5-1.9,3.3-4.1,5.5-6.8c0.9-1.2,1.9-2.2,3-3.2c1-1,2-2,3-3c0.7-0.7,1-1.6,0.9-2.6
		c-0.1-1-0.5-1.8-1.2-2.6c-0.8-0.8-1.7-1.2-2.7-1.2c-0.5,0.1-1.1,0.4-1.8,0.9c-0.6,0.5-1.2,1-1.6,1.6c-1.3-1.8-3.3-2.8-6-3.1
		c-1.8-0.1-3.5,0.1-5.1,0.7c-1.7,0.6-3.3,1.3-4.8,2.1c-3.5,2-6.6,4.4-9.4,7.3c-1.7,1.8-3.3,3.6-4.8,5.5c-0.1,0.1-0.3,0.2-0.4,0.4
		c-0.5,0.5-0.9,1-1.3,1.4l-3.2,3.2c-0.8,0.8-1.7,1.7-2.6,2.5c-0.9,0.9-1.8,1.7-2.8,2.5c-1,0.8-1.9,1.6-3,2.2c-1,0.7-2,1.2-2.8,1.5
		c-0.6,0.3-1,0.3-1,0c-0.1-0.3,0-0.6,0.2-1.1c0.2-0.5,0.5-1,0.9-1.6c0.4-0.6,0.7-1.1,1-1.5c1.8-2.4,3.8-4.6,6-6.7
		c2.2-2.1,4.2-4.4,6.2-6.9c0.5-0.7,1-1.4,1.5-2.2c0.5-0.8,0.9-1.6,1.2-2.4c0.3-0.8,0.4-1.7,0.4-2.6c0-0.9-0.4-1.7-1-2.5
		c-0.5-0.7-1.3-1.3-2.1-1.7c-0.9-0.4-2.1-0.5-3.7-0.3c-2.2,0.3-4.2,0.9-6,1.8c-1.8,0.8-3.6,1.8-5.3,3c-0.1-1.2-0.7-2.2-1.7-3.1
		c-1-0.9-2.1-1.1-3.2-0.7c-0.3,0.1-0.7,0.3-1,0.6c-0.3,0.3-0.6,0.5-0.9,0.8c-2.4,2.8-4.6,5.3-6.4,7.4c-1.6,2-3.1,3.8-4.3,5.4
		c-0.3,0.2-0.6,0.5-0.9,0.7c-0.4,0.5-0.9,1-1.4,1.5c-2.4,2.4-4.2,4.2-5.3,5.3c-1.2,1.2-2.3,2.2-3.2,3.1c-1.8,1.6-3.1,2.6-4.1,3.1
		c-1,0.4-1.6,0.3-1.8-0.2c-0.2-0.5,0-1.5,0.5-2.7c0.5-1.3,1.5-2.8,2.7-4.6c1.8-2.6,3.8-5,5.9-7.3c2.1-2.3,4.3-4.6,6.5-7
		c0.3-0.4,0.6-0.8,0.8-1.1c0.2-0.3,0.3-0.7,0.3-1.3c-0.1-0.9-0.5-1.9-1.2-2.7c-0.7-0.9-1.6-1.3-2.7-1.3c-0.7,0.1-1.3,0.3-1.8,0.8
		c-0.5,0.5-1,1-1.5,1.4c-1.1,1-2.1,2.1-3.1,3.2c-1,1.1-2,2.3-2.9,3.4c-1.6,1.8-3.1,3.7-4.7,5.7c-0.3,0.2-0.7,0.5-1,0.9
		c-0.5,0.6-1,1.1-1.5,1.6c-3.6,3.5-6.8,6.1-9.5,7.9s-5.4,3.1-7.9,3.8c-0.7,0.2-1.7,0.4-2.8,0.6c-1.1,0.2-2.1,0.1-2.9-0.4
		c-1-0.5-1.4-1.3-1.5-2.3c0-1,0.1-1.9,0.4-2.9c0.3-1.2,0.8-2.2,1.4-3.2c0.6-1,1.3-1.9,1.9-2.9c1.9-2.5,4-4.7,6.2-6.7
		c0.3-0.3,0.8-0.7,1.7-1.4c0.8-0.7,1.8-1.4,2.7-2c1-0.7,1.9-1.2,2.9-1.7c0.9-0.4,1.6-0.6,2-0.4c0.2,0.1,0.2,0.4,0,0.8
		c-0.2,0.4-0.5,0.9-1,1.5c-0.5,0.6-1.1,1.2-1.7,1.8c-0.7,0.6-1.4,1.3-2.2,1.9c-0.3,0.3-0.7,0.6-1.1,0.9c-0.4,0.3-0.6,0.6-0.8,1
		c-0.3,0.5-0.4,1-0.3,1.6c0.1,0.6,0.3,1.1,0.5,1.5c0.3,0.6,0.8,1.1,1.3,1.6c0.5,0.4,1.1,0.7,1.8,0.9c0.7,0.1,1.4-0.1,2-0.6
		c0.6-0.5,1.2-1,1.6-1.4c0.6-0.6,1.2-1.2,1.8-1.9c0.6-0.6,1.1-1.3,1.7-2.1c0.5-0.6,0.9-1.3,1.4-2c0.4-0.7,0.8-1.5,1.1-2.3
		c0.3-0.8,0.5-1.6,0.6-2.4c0.1-0.8,0-1.6-0.3-2.4c-0.5-1.6-1.4-2.6-2.7-3.2c-1.3-0.5-2.7-0.9-4.2-1c-1.8-0.1-3.6,0.2-5.4,0.9
		c-1.8,0.7-3.4,1.6-4.8,2.5c-2.8,2-5.5,4.3-7.9,6.9c-1.5,1.6-2.7,3.3-3.8,5.1c-0.3,0.2-0.6,0.5-0.8,0.7c-1.9,1.7-4.2,2.6-6.9,2.6
		l1.5-2.7c0.5-1,1.1-2.2,1.5-3.6c0.5-1.4,0.8-2.8,0.9-4.2c0.1-1.4-0.1-2.7-0.6-4c-0.5-1.3-1.4-2.3-2.6-3.2c-2-1-4.2-1.4-6.6-1.1
		c-2.4,0.3-4.6,1-6.6,2.2c-3.5,1.8-6.5,4.2-9.3,7.3c-1.7,1.9-3.1,3.9-4.5,6c-0.3,0.2-0.5,0.5-0.7,0.7c-0.4,0.5-0.9,1-1.4,1.4
		c-0.5,0.5-1,0.9-1.5,1.4c-0.4,0.4-0.9,0.9-1.5,1.3c-2,1.8-4.2,3.4-6.4,4.9c-2.2,1.5-4.5,2.7-6.7,3.6c-1.4,0.5-2.7,0.9-4,1.1
		s-2.5,0.1-3.6-0.2c-1.1-0.3-1.9-1-2.4-2.1c-0.6-1.1-0.8-2.6-0.7-4.5c0.1-1.4,0.4-2.7,0.7-3.9c0.3-1.3,0.8-2.5,1.3-3.7
		c1-2.4,2.2-4.6,3.7-6.8c1.4-2.2,2.9-4.3,4.5-6.3c1.6-2,3.3-4,5.1-5.9c1.8-1.9,3.7-3.7,5.6-5.5c2-1.8,4-3.4,6.2-4.9
		c2.2-1.5,4.5-2.8,6.9-3.9c1.4-0.5,2.7-0.8,3.8-1c1.1-0.2,1.9-0.1,2.5,0.4c0.5,0.4,0.7,1.1,0.4,2.1c-0.3,1-1.2,2.4-2.6,4.3
		c-0.7,1-1.5,2-2.4,2.9c-0.8,0.9-1.7,1.8-2.7,2.7c-0.5,0.4-0.9,0.8-1.4,1.3c-0.4,0.4-0.9,0.8-1.5,1.2c-0.3,0.3-0.8,0.7-1.3,1.1
		c-0.5,0.4-0.9,0.8-1.1,1.3c-0.4,1.2-0.2,2.2,0.7,3c0.8,0.8,1.8,1.3,2.8,1.5c0.7,0.1,1.3-0.1,1.7-0.4c0.5-0.3,0.9-0.6,1.4-1l2.8-2.3
		c0.9-0.8,1.9-1.7,2.7-2.6c0.9-0.9,1.7-1.8,2.5-2.8c0.7-0.9,1.5-1.8,2.3-2.9c0.8-1.1,1.4-2.1,1.9-3.3c0.5-1.1,0.9-2.3,1.1-3.5
		c0.2-1.2,0.1-2.4-0.2-3.7c-0.6-2-1.8-3.5-3.7-4.4c-1.9-0.9-3.8-1.3-5.7-1.2c-2.6,0.1-5.1,0.7-7.5,1.7c-2.4,1-4.7,2.2-6.9,3.6
		c-2.2,1.4-4.3,3-6.3,4.6c-2,1.7-3.9,3.4-5.8,5.2c-1.8,1.8-3.6,3.7-5.2,5.6c-1.7,1.9-3.2,4-4.7,6.2c-1.6,2.1-3,4.3-4.3,6.6
		c-1.3,2.3-2.4,4.8-3.1,7.3c-0.7,2.4-1.2,5-1.3,7.7c-0.1,2.7,0.6,5.1,2.2,7.4c2.6,3.7,6.4,5.4,11.2,5.1c2.4-0.1,4.7-0.7,7-1.6
		c2.3-1,4.4-2,6.4-3.3c1.5-0.9,2.9-1.9,4.3-3c0,1.2,0.2,2.4,0.6,3.5c0.4,1.3,1.3,2.3,2.7,3.2c2,1.2,4.2,1.5,6.6,1
		c2.4-0.5,4.6-1.2,6.6-2.2c1.8-0.9,3.5-2.2,5.2-3.7c1.7-1.5,3.5-3.4,5.5-5.6c2.2,0.5,4.4,0.6,6.7,0.3c0.4-0.1,0.8-0.2,1.2-0.3
		c0,0.3-0.1,0.6-0.1,0.8c-0.3,2.2,0.1,4.2,1.1,6.2c1.2,2.2,2.9,3.6,5.1,4.2c2.2,0.5,4.5,0.6,6.9,0.1c2.4-0.5,4.8-1.3,7.2-2.3
		c2.4-1.1,4.4-2.2,6-3.4c0.5-0.3,1-0.7,1.5-1.1c-0.1,1.4,0.2,2.7,1,3.9c0.6,1.2,1.5,2,2.6,2.5c1.2,0.5,2.4,0.7,3.7,0.7
		c1.8-0.1,3.6-0.6,5.2-1.6c0.8-0.5,1.6-1.1,2.4-1.7c0.4,0.6,0.9,1.1,1.7,1.4c1.1,0.5,2.1,0.6,3.2,0.3c0.5-0.2,0.9-0.5,1.1-1
		c0.2-0.5,0.5-0.9,0.8-1.3c0.7-1,1.6-2.2,2.5-3.4c0.9-1.3,1.8-2.5,2.8-3.7c0.9-1.2,1.9-2.4,2.8-3.5c0.9-1.1,1.8-2.1,2.6-2.8
		c1.4-1.4,2.8-2.6,4.3-3.9c1.5-1.2,3.1-2.4,4.6-3.6c1.4-0.9,2.8-1.8,4.3-2.6c1.5-0.8,3-1.5,4.6-2c0.9-0.3,1.3-0.2,1.1,0.2
		c-0.1,0.4-0.5,1-1.1,1.7c-0.6,0.7-1.3,1.4-2,2.1c-0.7,0.7-1.3,1.2-1.5,1.5c-2,2-4,4.1-6,6.2c-2,2.1-3.6,4.5-4.7,7.1
		c-0.5,1.2-0.9,2.4-1,3.6c-0.1,1.3,0.1,2.4,0.5,3.5c0.4,1.1,1.1,1.9,2.1,2.6c1,0.6,2.3,0.9,3.8,0.9c2.4-0.1,4.7-0.8,6.7-2
		c2-1.2,3.8-2.6,5.5-4.1c0.1-0.1,0.1-0.1,0.2-0.2c0.1,0.8,0.2,1.6,0.5,2.3c0.4,1.4,1.4,2.4,2.8,3.2c1.6,0.8,3.2,1.1,4.9,0.9
		c1.7-0.2,3.4-0.7,5-1.6c1-0.6,2-1.3,3-1.9c0.9-0.7,1.9-1.4,2.8-2.2c0.1,1.1,0.4,2,0.8,2.6c0.7,1.2,1.6,2,2.8,2.5
		c1.2,0.5,2.6,0.7,4.3,0.6c2.2-0.2,4.2-1,6-2.3c1.7-1.3,3.3-2.7,4.7-4c0.9-0.9,2-2,3.3-3.3c1.2-1.2,3-3.1,5.4-5.5
		c0.4-0.5,0.8-0.9,1.2-1.3s0.7-0.9,0.8-1.6C198.1,111.3,197.7,110.4,196.8,109.7z M50.2,118.8c-1.3,1.3-2.7,2.4-4.3,3.5
		c-0.6,0.4-1.3,0.8-2.1,1.3c-0.8,0.5-1.5,0.8-2.2,0.9c-0.6,0.1-1.1-0.1-1.4-0.5s-0.3-1.3,0.2-2.6c0.7-2.7,2.1-5.3,3.9-7.9
		c1.9-2.5,3.8-4.9,6-7.1c0.1,1.6,0.5,3.1,1.1,4.5c0.6,1.5,1.4,2.8,2.6,3.9C52.7,116.3,51.5,117.6,50.2,118.8z M60.5,103.6
		c-0.3,1-0.6,2-1.1,3c-0.4,1.1-1.1,2.2-2,3.3c-0.4-0.7-0.7-1.4-0.9-2.2c-0.2-0.8-0.3-1.6-0.3-2.4c0-0.8,0-1.5,0.1-2.1
		c0.1-0.6,0.2-1.2,0.3-1.6c0.5-0.3,1.1-0.6,1.7-0.8c0.6-0.2,1.1-0.2,1.5-0.1c0.4,0.1,0.7,0.4,0.8,0.9
		C60.7,102.1,60.7,102.7,60.5,103.6z M173.4,111.3c-2.4,2.9-5.1,5.6-8,8.3c-1,0.9-2.2,1.9-3.6,3c-1.4,1.1-2.9,1.7-4.4,1.9
		c-0.5,0-0.8-0.2-0.9-0.6c-0.1-0.4,0-0.9,0.1-1.4c0.1-0.5,0.3-1,0.6-1.5c0.2-0.5,0.4-0.9,0.6-1.1c1.3-2.6,3.2-5.2,5.6-7.8
		c2.4-2.6,4.9-5,7.3-6.9c0.3-0.3,1.1-0.8,2.2-1.6c1.2-0.8,2.3-1.5,3.6-2c1.2-0.5,2.3-0.8,3.2-0.8s1.3,0.7,1.2,2
		C178.3,105.5,175.9,108.4,173.4,111.3z"/>
</g>
</svg>
