<?xml version="1.0" encoding="utf-8"?>
<!-- Generator: Adobe Illustrator 19.2.1, SVG Export Plug-In . SVG Version: 6.00 Build 0)  -->
<svg version="1.1" id="Capa_1" xmlns="http://www.w3.org/2000/svg" xmlns:xlink="http://www.w3.org/1999/xlink" x="0px" y="0px"
	 viewBox="0 0 400 400" style="enable-background:new 0 0 400 400;" xml:space="preserve">
<style type="text/css">
	.st0{fill:#F08100;}
</style>
<g>
	<g>
		<g>
			<path class="st0" d="M97.7,157.9c0.6,2,0.7,4,0.3,6.1c-0.3,2-0.9,4-1.8,5.8c-0.8,1.9-1.9,3.7-3.2,5.4c-1.3,1.7-2.6,3.3-3.8,4.8
				c-1.4,1.6-2.8,3.1-4.2,4.6c-1.5,1.5-3,3-4.6,4.3l-4.7,3.9c-0.8,0.6-1.6,1.1-2.4,1.6c-0.8,0.5-1.7,0.7-2.9,0.6
				c-1.7-0.2-3.2-1-4.6-2.4c-1.4-1.4-1.8-3.1-1.1-5c0.3-0.8,1-1.5,1.9-2.1c0.9-0.6,1.6-1.2,2.2-1.8c0.9-0.6,1.7-1.2,2.4-1.9
				c0.7-0.7,1.5-1.4,2.3-2.1c1.6-1.5,3.1-2.9,4.5-4.5c1.4-1.5,2.7-3.1,4-4.8c2.4-3,3.8-5.4,4.3-7.1c0.5-1.7,0.3-2.9-0.6-3.5
				c-0.9-0.7-2.3-0.9-4.1-0.6c-1.9,0.3-4,0.8-6.3,1.6c-4,1.8-7.9,3.9-11.5,6.4c-3.6,2.5-7,5.2-10.3,8.1c-3.3,2.9-6.4,6-9.4,9.1
				c-3,3.1-5.8,6.4-8.5,9.8c-2.6,3.4-5.1,6.9-7.4,10.5c-2.4,3.6-4.4,7.4-6.1,11.3c-0.9,2-1.6,4.1-2.2,6.2c-0.6,2.1-1,4.2-1.2,6.5
				c-0.2,3.3,0.1,5.8,1.1,7.5c1,1.7,2.3,2.9,4,3.5c1.7,0.6,3.7,0.7,5.9,0.3c2.2-0.3,4.4-1,6.7-1.9c3.7-1.5,7.4-3.4,11.1-5.9
				c3.7-2.5,7.3-5.2,10.6-8.1c0.9-0.7,1.7-1.4,2.4-2.1c0.7-0.7,1.5-1.5,2.4-2.3c0.8-0.7,1.5-1.4,2.3-2.3c0.7-0.8,1.5-1.5,2.4-2.1
				c1.4-0.9,2.6-1.1,3.8-0.7c1.2,0.4,2.2,1.3,3.1,2.5c0.7,1,1,1.9,1,2.7c0,0.8-0.2,1.5-0.6,2.3c-0.4,0.7-1,1.4-1.7,2.1
				c-0.7,0.7-1.4,1.3-2.1,1.9c-3,2.9-6.2,5.7-9.4,8.3c-3.3,2.6-6.7,5.1-10.3,7.3c-3.3,2-6.8,3.8-10.5,5.4c-3.8,1.6-7.6,2.5-11.6,2.7
				c-8,0.6-14.2-2.2-18.6-8.4c-2.6-3.7-3.8-7.8-3.6-12.2c0.2-4.4,0.9-8.7,2.1-12.7c1.2-4.3,3-8.3,5.1-12.1c2.2-3.8,4.6-7.5,7.2-11
				c2.5-3.6,5.1-7,7.8-10.2c2.8-3.2,5.7-6.3,8.7-9.4c3-3,6.2-5.9,9.5-8.7c3.3-2.8,6.8-5.3,10.4-7.7c3.6-2.2,7.4-4.2,11.4-5.9
				c4-1.7,8.1-2.6,12.4-2.9c3.3-0.1,6.4,0.6,9.5,2C94.7,152.1,96.7,154.6,97.7,157.9z"/>
			<path class="st0" d="M103.8,230.6c-3.3,3.7-6.3,6.8-9.1,9.3c-2.8,2.5-5.7,4.5-8.6,6.1c-3.3,1.7-6.9,2.9-11,3.7
				c-4,0.8-7.7,0.2-11-1.7c-2.2-1.5-3.7-3.2-4.5-5.3c-0.7-2.1-1-4.3-0.9-6.6c0.1-2.3,0.6-4.6,1.4-6.9c0.8-2.3,1.6-4.4,2.5-6.2
				c3.1-6.1,7-11.7,11.5-16.9c4.5-5.2,9.6-9.2,15.4-12.1c3.3-1.9,6.9-3.1,10.9-3.6c4-0.5,7.6,0.1,10.9,1.8c2.1,1.3,3.6,3.1,4.4,5.2
				c0.8,2.1,1.1,4.4,0.9,6.7c-0.2,2.3-0.6,4.6-1.4,6.9c-0.8,2.3-1.6,4.3-2.5,6l-2.5,4.6c4.5-0.1,8.3-1.6,11.5-4.4
				c0.9-0.9,1.8-1.6,2.8-2.2c1-0.6,2.1-0.7,3.5-0.3c1.2,0.3,2.2,1,2.9,2.1c0.7,1.1,0.9,2.2,0.7,3.5c-0.2,1.3-0.9,2.5-2.1,3.5
				c-1.2,1-2.3,1.8-3.3,2.6c-3.5,2.6-7.1,4.2-11,4.8C111.1,231.7,107.4,231.5,103.8,230.6z M70.9,234.9c-0.7,2.3-0.8,3.7-0.3,4.4
				c0.5,0.7,1.3,0.9,2.4,0.8c1.1-0.2,2.3-0.6,3.6-1.4c1.3-0.8,2.5-1.5,3.5-2.2c2.6-1.8,4.9-3.7,7.1-5.8c2.1-2.1,4.2-4.2,6.1-6.5
				c-1.9-1.9-3.3-4.1-4.3-6.5c-1-2.4-1.5-4.9-1.8-7.5c-3.5,3.6-6.8,7.5-9.9,11.7C74.3,226,72.1,230.4,70.9,234.9z M97.9,202
				c-0.2,0.7-0.4,1.5-0.5,2.6c-0.1,1.1-0.2,2.3-0.2,3.5c0,1.3,0.2,2.6,0.5,4c0.3,1.3,0.8,2.6,1.5,3.7c1.5-1.9,2.6-3.7,3.3-5.5
				c0.7-1.7,1.3-3.4,1.8-5c0.3-1.5,0.4-2.6,0.2-3.4c-0.2-0.8-0.7-1.3-1.4-1.4c-0.7-0.2-1.5-0.1-2.4,0.2
				C99.7,201,98.8,201.4,97.9,202z"/>
			<path class="st0" d="M166.9,245.5c-1.2-2.1-1.7-4.4-1.4-6.8c0.3-2.4,0.9-4.6,1.8-6.7c2-4.4,5.1-8.7,9.1-13.1
				c4-4.3,8.9-9.4,14.5-15.1c1-1,1.7-1.9,2.2-2.8c0.4-0.8-0.3-1-2.2-0.4c-2.7,0.9-5.3,2.2-7.7,3.9c-2.4,1.7-4.7,3.4-6.8,5.2
				c-5.5,4.6-10.5,9.4-14.8,14.4c-4.4,5-8.6,10.3-12.6,15.8l-2,2.7c-0.8,0.9-1.7,1.5-2.9,1.7c-1.1,0.2-2.3,0.2-3.4-0.2
				c-1.1-0.3-2.1-0.9-3-1.7c-0.9-0.8-1.4-1.7-1.5-2.7c-0.2-0.9-0.1-1.8,0.3-2.6c0.4-0.8,0.9-1.7,1.3-2.4c2.8-4.7,5.9-9,9.3-12.9
				c3.4-3.9,6.8-7.8,10.3-11.7c0.1-0.1,0.7-0.7,1.8-1.9c1.1-1.1,2.1-2.3,3.1-3.5c1-1.2,1.7-2.3,2.2-3.1c0.4-0.8,0.1-1.1-1-0.8
				c-2.8,0.9-5.5,2.2-7.9,3.8c-2.5,1.6-4.8,3.3-7.1,5.1c-2.5,1.9-4.8,4-7.1,6.2c-2.3,2.2-4.4,4.4-6.6,6.7c-3.1,3.3-5.9,6.6-8.3,10
				c-2.4,3.4-4.6,6.9-6.7,10.5c-0.6,0.8-1.1,1.6-1.5,2.4c-0.4,0.8-1.1,1.4-2,1.8c-1.7,0.6-3.4,0.4-5.2-0.5c-1.8-0.9-3-2.2-3.5-3.9
				c-0.3-0.9-0.3-1.7,0-2.5c0.3-0.8,0.7-1.5,1.2-2.2c2.5-4,4.8-7.8,6.9-11.1c2.1-3.4,4.3-6.6,6.5-9.8c2.2-3.1,4.6-6.3,7.2-9.4
				c2.6-3.1,5.6-6.6,9.1-10.3c1.9-2,3.3-3.4,4-4.1c0.8-0.7,1.5-1.2,2-1.4c1.6-0.6,3.1-0.3,4.6,0.7c1.5,1,2.5,2.3,3,3.9
				c2.5-1.7,5-3.1,7.5-4.2c2.5-1.1,5.1-1.8,7.7-2c2.2-0.2,4.4,0.1,6.3,0.8c2,0.8,3.3,2.3,4.1,4.6c0.1,0.3,0.2,0.6,0.3,0.9
				c0.1,0.3,0.1,0.6,0.1,0.9c3-2.2,6.3-4.2,9.8-5.8c3.5-1.6,7.1-2.1,10.8-1.4c3.3,0.6,5.5,2.3,6.7,5.2c0.6,1.5,0.8,2.9,0.6,4.4
				c-0.2,1.5-0.6,2.9-1.2,4.3c-0.6,1.4-1.4,2.8-2.3,4c-0.9,1.3-1.8,2.5-2.7,3.6c-2.9,3.6-5.9,6.9-9,10c-3.1,3.1-6,6.3-8.9,9.7
				c-2,2.5-3.3,4.3-4,5.5c-0.6,1.2-0.8,2-0.6,2.4c0.2,0.4,0.8,0.4,1.7,0.1c0.9-0.3,1.9-0.8,3-1.4c1.1-0.6,2.2-1.3,3.4-2.2
				c1.1-0.8,2-1.5,2.7-2.1c2.9-2.2,5.6-4.6,7.9-7.2c2.4-2.5,4.8-5,7.4-7.3c0.7-0.7,1.4-1.5,2.2-2.4c0.8-0.9,1.6-1.6,2.5-2
				c1.8-0.7,3.5-0.4,5,0.8c1.5,1.2,2.2,2.7,1.9,4.6c-0.2,1.1-0.7,2.1-1.5,2.8c-0.8,0.7-1.5,1.5-2.2,2.3c-2,2.1-3.8,3.9-5.3,5.4
				c-1.5,1.5-2.8,2.8-4,3.9c-1.1,1.1-2.1,2.1-3,2.9c-0.9,0.8-1.7,1.5-2.5,2.2c-3,2.7-6.1,4.9-9.1,6.6c-3,1.7-5.8,2.8-8.4,3.3
				c-2.6,0.5-4.9,0.4-7.1-0.2C169.6,248.7,168,247.4,166.9,245.5z"/>
			<path class="st0" d="M208.6,249.9c-2.1,0.1-4.2-0.3-6.1-1.1c-1.9-0.8-3.4-2.2-4.4-4.1c-1.2-2-1.8-4.2-1.6-6.6
				c0.2-2.4,0.6-4.6,1.4-6.7c1.6-4.8,4-9.3,7.2-13.4c3.2-4.1,6.4-8.1,9.7-11.9c1.6-1.9,3.2-3.8,4.8-5.7c1.6-1.9,3.3-3.6,5.1-5.3
				c0.8-0.8,1.6-1.6,2.4-2.4c0.8-0.8,1.8-1.2,3-1.4c1.9,0,3.4,0.7,4.6,2.2c1.1,1.5,1.8,3,2,4.6c0,0.9-0.1,1.6-0.4,2.1
				c-0.3,0.5-0.7,1.1-1.3,1.8c-3.7,3.9-7.3,7.8-10.8,11.6c-3.5,3.8-6.7,7.9-9.8,12.1c-2.1,2.9-3.7,5.5-4.6,7.6
				c-0.9,2.1-1.2,3.7-0.8,4.6c0.3,0.9,1.3,1,3,0.3c1.6-0.7,3.9-2.4,6.8-5.1c1.6-1.5,3.3-3.2,5.3-5.1c2-2,4.9-4.9,8.9-8.9
				c0.8-0.8,1.5-1.6,2.3-2.4c0.7-0.8,1.6-1.5,2.6-1.9c1.8-0.7,3.5-0.4,5,0.8c1.5,1.2,2.1,2.7,1.8,4.6c-0.2,1.1-0.7,2.1-1.4,2.8
				c-0.7,0.7-1.5,1.5-2.3,2.3l-4.9,5.1c-1.6,1.6-3.2,3.2-4.7,4.7c-1.6,1.6-3.2,3.1-4.9,4.7c-3.4,3.3-6.4,5.7-9.2,7.4
				C214.5,248.9,211.6,249.8,208.6,249.9z M243.5,187.2c-2,0-3.8-0.8-5.2-2.3c-1.5-1.5-2.2-3.2-2.2-5.1c0-2,0.7-3.8,2.2-5.2
				c1.5-1.5,3.2-2.2,5.2-2.2c1.9,0,3.6,0.7,5.1,2.2c1.5,1.5,2.3,3.2,2.3,5.2c0,1.9-0.7,3.6-2.2,5.1
				C247.3,186.5,245.5,187.2,243.5,187.2z"/>
			<path class="st0" d="M275.7,190.3c1.9,0,3.8,0.4,5.7,1.3c1.9,0.8,3.4,2.1,4.6,3.6c3.6-3.9,7.2-7.9,10.9-11.8
				c3.7-3.9,7.3-7.9,10.9-11.8c3-3.3,6.1-6.5,9.1-9.7c3-3.2,6.2-6.3,9.4-9.2c0.7-0.6,1.3-1.2,2-1.9c0.7-0.7,1.5-1.4,2.4-1.9
				c1-0.7,2.1-0.8,3.2-0.5c1.1,0.3,2.1,1,3,1.9c0.8,0.9,1.5,1.9,2,3c0.5,1.1,0.6,2.1,0.4,3c-0.2,0.9-0.7,1.7-1.4,2.3
				c-0.7,0.6-1.4,1.2-1.9,1.8c-4.9,4.9-9.2,9.3-12.9,12.9c-3.7,3.7-7.3,7.4-10.9,11.2c-3.6,3.8-7.5,8.1-11.7,12.7
				c-4.2,4.7-9.4,10.5-15.6,17.6c-2.8,3.3-5.6,6.7-8.3,10.2c-2.7,3.5-4.9,7.3-6.6,11.2c-0.8,1.7-0.7,2.8,0.2,3.3
				c0.9,0.5,2,0.4,3.4-0.3c1.6-0.8,3-1.7,4.1-2.8c1.2-1.1,2.4-2.2,3.6-3.5c1.6-1.5,3.4-3.3,5.4-5.4c2-2.1,4.9-5,8.6-8.6
				c0.7-0.7,1.4-1.4,2.2-2.3c0.8-0.8,1.6-1.5,2.5-1.9c1.7-0.7,3.3-0.4,4.8,0.7c1.5,1.1,2.2,2.6,1.9,4.6c-0.1,1.1-0.5,2-1.2,2.7
				c-0.7,0.7-1.4,1.4-2,2.2c-2.7,2.7-5.2,5.2-7.5,7.6c-2.3,2.4-4.6,4.7-6.8,6.9c-1.2,1.1-2.5,2.3-3.9,3.5c-1.3,1.2-2.8,2.3-4.2,3.3
				c-1.5,1-3,1.9-4.6,2.5c-1.6,0.7-3.3,1.1-5,1.2c-4.4,0.3-7.8-0.7-10.1-3c-1.8-1.8-2.8-4-3-6.6c-1.9,1.6-3.9,3.1-6.1,4.6
				c-2.1,1.5-4.3,2.6-6.5,3.5c-2.2,0.9-4.4,1.4-6.7,1.5c-2.3,0.1-4.6-0.4-6.8-1.5c-2.9-1.8-4.8-4.4-5.6-7.9
				c-0.6-3.1-0.3-6.3,0.8-9.4c1.1-3.1,2.5-5.9,4.2-8.5c3.5-5.5,7.6-10.7,12.3-15.5c4.7-4.8,10-8.9,15.7-12.1c2.5-1.3,5-2.4,7.7-3.3
				C270,190.7,272.8,190.3,275.7,190.3z M246.5,222.9c-1.2,1.6-2.4,3.1-3.5,4.6c-1.1,1.5-2.1,3.1-3,4.8c-1.2,2.4-1.9,4.1-1.9,5.2
				c-0.1,1.1,0.3,1.8,1,2c0.7,0.2,1.7,0.1,3-0.4c1.3-0.5,2.7-1.3,4.3-2.3c1.7-1,3.5-2.4,5.6-4.2c2-1.8,4.1-3.8,6.2-6
				c2.1-2.2,4.3-4.5,6.5-6.9c2.2-2.4,4.3-4.8,6.3-7.2l7.3-8.6c0.2-1.1,0.2-2-0.2-2.6c-0.3-0.6-0.8-1-1.3-1.1c-2-0.3-4.4,0.2-7.2,1.7
				c-2.8,1.5-5.5,3.4-8.3,5.7c-2.8,2.4-5.5,4.9-8.1,7.7C250.5,218.1,248.3,220.6,246.5,222.9z"/>
			<path class="st0" d="M333.2,249.9c-2.7,0.2-5.1-0.1-7.1-1c-2-0.9-3.6-2.3-4.7-4.2c-0.7-1.1-1.1-2.6-1.4-4.4
				c-1.6,1.3-3.1,2.6-4.7,3.7c-1.6,1.1-3.2,2.2-4.9,3.2c-2.7,1.5-5.5,2.4-8.4,2.7c-2.9,0.3-5.6-0.2-8.2-1.5c-2.4-1.2-3.9-3-4.6-5.2
				c-0.7-2.2-1-4.6-0.8-7.2c0.2-2.5,0.8-5,1.9-7.4c1-2.4,2-4.4,3-6c3.6-5.5,7.7-10.7,12.4-15.5c4.7-4.8,9.9-8.9,15.6-12.1
				c2.6-1.3,5.3-2.5,8-3.5c2.8-1,5.6-1.3,8.5-1.1c4.5,0.3,7.8,2,10,5.1c0.7-0.9,1.5-1.8,2.6-2.6c1.1-0.8,2.1-1.3,3-1.4
				c1.7,0,3.2,0.7,4.6,2c1.2,1.2,1.9,2.7,2,4.3c0.1,1.6-0.4,3.1-1.5,4.3c-1.6,1.7-3.2,3.3-4.9,5c-1.7,1.6-3.3,3.4-4.9,5.3
				c-3.7,4.4-6.8,8.1-9.2,11.2c-2.4,3.1-4.5,6.3-6.2,9.5c-0.6,0.9-1,1.9-1.3,2.9c-0.3,1-0.4,1.9-0.3,2.5c0.1,0.7,0.4,1.2,0.9,1.4
				c0.6,0.3,1.5,0.1,2.7-0.6c1.5-0.8,2.8-1.7,4-2.8c1.2-1.1,2.5-2.2,3.7-3.5l37.9-37.9c0.7-0.7,1.4-1.4,2.1-2.3
				c0.7-0.8,1.5-1.5,2.4-1.9c1.8-0.7,3.5-0.4,5,0.7c1.5,1.1,2.2,2.6,1.9,4.6c-0.2,1.1-0.7,2-1.3,2.7c-0.7,0.7-1.4,1.4-2,2.2
				c-3.9,4-30.8,31-32.9,33c-2,2-3.8,3.8-5.4,5.4c-2.4,2.3-5,4.5-7.8,6.7C340.2,248.3,336.9,249.5,333.2,249.9z M323.3,207.9
				c-4,3.3-8.1,7.1-12.1,11.5c-4,4.4-7.1,8.7-9.3,13c-0.2,0.3-0.5,0.9-0.9,1.8c-0.4,0.8-0.7,1.7-0.9,2.5c-0.2,0.8-0.3,1.6-0.2,2.3
				c0.1,0.7,0.6,1,1.5,1c2.6-0.2,5-1.3,7.3-3.1c2.3-1.9,4.3-3.5,6-5c4.8-4.4,9.3-9,13.3-13.7c4-4.8,8.1-9.5,12.1-14.3
				c0.2-2.2-0.4-3.4-1.9-3.4s-3.3,0.5-5.3,1.3c-2,0.9-4,2-5.9,3.4C325.1,206.5,323.8,207.4,323.3,207.9z"/>
		</g>
	</g>
	<g>
		<path d="M55.6,176.4v-14.3l2.2-37.6h7.1l2.3,37.6v14.3H55.6z M67.2,104.8v11.5H55.7v-11.5H67.2z"/>
		<path d="M107,162.7c0,8.7-5.8,14.3-16.4,14.3c-10.5,0-16.4-5.7-16.4-14.3v-44.2c0-8.6,5.8-14.3,16.4-14.3
			c10.5,0,16.4,5.6,16.4,14.3v11.9H95.7v-11.9c0.3-5.4-10.6-5.6-9.8,0v44.2c0,2.8,1.5,4.2,4.7,4.2c3,0,5.1-1.4,5.1-4.2v-11.9H107
			V162.7z"/>
		<path d="M134.8,104.5h11.7v57.9c0,8.6-5.8,14.3-16.4,14.3c-10.5,0-16.4-5.6-16.4-14.3v-57.9h11.6v57.9c0,2.8,1.6,4.2,4.8,4.2
			c3.2,0,4.7-1.4,4.7-4.2V104.5z"/>
		<path d="M154.6,176.4v-71.6h11.6v71.6H154.6z"/>
		<path d="M174.6,104.8h17c10.3,0,15.7,5.3,15.7,14v43.6c0,8.7-5.4,14-15.7,14h-17V104.8z M195.8,118.8c0-2.8-1.4-4.2-4.2-4.2h-5.4
			v51.9h5.4c2.8,0,4.2-1.4,4.2-4.2V118.8z"/>
		<path d="M236.5,176.7l-2.5-17.5h-9.4l-2.5,17.5h-11.5l13.1-72.1h11.6l12.9,72.1H236.5z M226,149.4h6.5l-3.3-23L226,149.4z"/>
		<path d="M252.8,104.8h17c10.3,0,15.7,5.3,15.7,14v43.6c0,8.7-5.4,14-15.7,14h-17V104.8z M274,118.8c0-2.8-1.4-4.2-4.2-4.2h-5.4
			v51.9h5.4c2.8,0,4.2-1.4,4.2-4.2V118.8z"/>
		<path d="M308.8,104.2c10.5,0,16.4,5.6,16.4,14.3v44.2c0,8.7-5.8,14.3-16.4,14.3c-10.5,0-16.4-5.7-16.4-14.3v-44.2
			C292.4,109.9,298.2,104.2,308.8,104.2z M304.1,118.5v44.2c-0.7,5.5,10.1,5.5,9.5,0v-44.2C314.2,113,303.3,113,304.1,118.5z"/>
		<path d="M344.4,104.8v30.7l-2.2,21.3h-7.1l-2.2-21.3v-30.7H344.4z M332.9,176.4V165h11.6v11.5H332.9z"/>
	</g>
	<g>
		<path d="M65.6,295.5l-1.6-9.1h-6.5l-1.6,9.1h-2.3l6.1-32.1h2.3l6,32.1H65.6z M57.8,284.4h5.8L60.7,268L57.8,284.4z"/>
		<path d="M75.9,293.5h8.4v2H73.6v-31.8h2.3V293.5z"/>
		<path d="M97.1,263.7v2h-4.7v29.8h-2.3v-29.8h-4.7v-2H97.1z"/>
		<path d="M112,295.5l-1.6-9.1h-6.5l-1.6,9.1h-2.3l6.1-32.1h2.3l6,32.1H112z M104.1,284.4h5.8L107,268L104.1,284.4z"/>
		<path d="M135.1,263.7h0.2v31.8H133v-17.4c0-2.9,0-5.7,0.2-8.5l-4.5,13.4h-2.1l-4.6-14.1c0.1,4,0.2,7.1,0.2,9.1v17.4H120v-31.8h2.4
			l5.3,16l5.3-16H135.1z"/>
		<path d="M153.6,265.7h-8.5v12.7h7v2h-7v13h8.5v2h-10.8v-31.8h10.8V265.7z"/>
		<path d="M170.2,263.7h2.1v31.8h-2.5l-8.2-26.1c0.1,3,0.2,5.8,0.2,8.7v17.4h-2.1v-31.8h2.5l8.2,26c-0.1-2.8-0.2-5.7-0.2-8.6V263.7z
			"/>
		<path d="M189.9,263.7v2h-4.7v29.8h-2.3v-29.8h-4.7v-2H189.9z"/>
		<path d="M206.6,265.7h-8.5v12.7h7v2h-7v13h8.5v2h-10.8v-31.8h10.8V265.7z"/>
		<path d="M232.1,295.5l-1.6-9.1h-6.5l-1.6,9.1H220l6.1-32.1h2.3l6,32.1H232.1z M224.3,284.4h5.8l-2.9-16.4L224.3,284.4z"/>
		<path d="M240.1,263.7h6.3c3.6,0,6,2,6,5.5V290c0,3.5-2.4,5.5-6,5.5h-6.3V263.7z M250.1,269.2c0-2-1.5-3.5-3.7-3.5h-4v27.8h4
			c2.2,0,3.7-1.4,3.7-3.5V269.2z"/>
		<path d="M259.5,295.5v-31.8h2.3v31.8H259.5z"/>
		<path d="M281.3,290.2c0,3.5-2.5,5.6-6.2,5.6c-3.6,0-6.1-2.1-6.1-5.6V269c0-3.5,2.5-5.6,6.1-5.6c3.6,0,6.2,2.1,6.2,5.6v6H279v-6
			c0-2-1.6-3.5-3.9-3.5c-2.3,0-3.8,1.5-3.8,3.5v21.2c0,2.1,1.5,3.5,3.8,3.5c2.3,0,3.9-1.4,3.9-3.5v-6h2.3V290.2z"/>
		<path d="M298.1,263.7v2h-4.7v29.8h-2.3v-29.8h-4.7v-2H298.1z"/>
		<path d="M304,295.5v-31.8h2.3v31.8H304z"/>
		<path d="M324.1,263.7h2.3l-6.1,32.1H318l-6-32.1h2.4l4.9,27.3L324.1,263.7z"/>
		<path d="M341.4,295.5l-1.6-9.1h-6.5l-1.6,9.1h-2.3l6.1-32.1h2.3l6,32.1H341.4z M333.6,284.4h5.8l-2.9-16.4L333.6,284.4z"/>
	</g>
	<path class="st0" d="M97.9,157.7c0.6,2,0.7,4.1,0.3,6.1c-0.3,2-0.9,4-1.8,5.8c-0.8,1.9-1.9,3.7-3.2,5.4c-1.3,1.7-2.6,3.3-3.8,4.8
		c-1.3,1.6-2.8,3.1-4.2,4.6c-1.5,1.5-3,3-4.6,4.3l-4.7,3.9c-0.8,0.6-1.6,1.1-2.4,1.6c-0.8,0.5-1.7,0.7-2.9,0.6
		c-1.7-0.2-3.2-1-4.6-2.4c-1.4-1.4-1.8-3.1-1.1-5c0.3-0.8,1-1.5,1.9-2.1c0.9-0.6,1.6-1.2,2.2-1.8c0.9-0.6,1.7-1.2,2.4-1.9
		c0.7-0.7,1.5-1.4,2.3-2.1c1.6-1.5,3.1-2.9,4.5-4.5c1.4-1.5,2.7-3.1,4-4.8c2.4-3,3.8-5.4,4.3-7.1c0.5-1.7,0.3-2.9-0.6-3.5
		c-0.9-0.7-2.3-0.9-4.1-0.6c-1.9,0.3-4,0.8-6.3,1.6c-4,1.8-7.9,3.9-11.5,6.4c-3.6,2.5-7,5.2-10.3,8.1c-3.3,2.9-6.4,6-9.4,9.1
		c-3,3.2-5.8,6.4-8.5,9.8c-2.6,3.4-5.1,6.9-7.4,10.5c-2.4,3.6-4.4,7.4-6.1,11.3c-0.9,2-1.6,4.1-2.2,6.2c-0.6,2.1-1,4.2-1.2,6.5
		c-0.2,3.3,0.1,5.8,1.1,7.5c1,1.7,2.3,2.9,4,3.5c1.7,0.6,3.7,0.7,5.9,0.3c2.2-0.3,4.4-1,6.7-1.9c3.7-1.5,7.4-3.4,11.1-5.9
		c3.7-2.5,7.3-5.2,10.6-8.1c0.9-0.7,1.7-1.4,2.4-2.1c0.7-0.7,1.5-1.5,2.4-2.3c0.8-0.7,1.5-1.4,2.3-2.3c0.7-0.8,1.5-1.5,2.4-2.1
		c1.4-0.9,2.6-1.1,3.8-0.7c1.2,0.5,2.2,1.3,3.1,2.5c0.7,1,1,1.9,1,2.7c0,0.8-0.2,1.5-0.6,2.3c-0.4,0.7-1,1.4-1.7,2.1
		c-0.7,0.7-1.4,1.3-2.1,1.9c-3,2.9-6.2,5.7-9.4,8.3c-3.3,2.6-6.7,5.1-10.3,7.3c-3.3,2-6.8,3.8-10.5,5.4c-3.8,1.6-7.6,2.5-11.6,2.7
		c-8,0.6-14.2-2.3-18.6-8.4c-2.6-3.7-3.8-7.8-3.6-12.2c0.2-4.4,0.9-8.7,2.1-12.7c1.2-4.3,3-8.3,5.1-12.1c2.2-3.8,4.6-7.5,7.2-11
		c2.5-3.6,5.1-7,7.8-10.2c2.8-3.2,5.7-6.3,8.7-9.4c3-3,6.2-5.9,9.5-8.7c3.3-2.8,6.8-5.3,10.4-7.7c3.6-2.2,7.4-4.2,11.4-5.9
		c4-1.7,8.1-2.6,12.4-2.9c3.3-0.1,6.4,0.6,9.5,2C94.8,151.9,96.8,154.3,97.9,157.7z"/>
</g>
</svg>
