<?xml version="1.0" encoding="utf-8"?>
<!-- Generator: Adobe Illustrator 15.0.0, SVG Export Plug-In . SVG Version: 6.00 Build 0)  -->
<!DOCTYPE svg PUBLIC "-//W3C//DTD SVG 1.1//EN" "http://www.w3.org/Graphics/SVG/1.1/DTD/svg11.dtd">
<svg version="1.1" id="Layer_1" xmlns="http://www.w3.org/2000/svg" xmlns:xlink="http://www.w3.org/1999/xlink" x="0px" y="0px"
	 width="200px" height="200px" viewBox="0 0 200 200" enable-background="new 0 0 200 200" xml:space="preserve">
<path fill="#EE8022" d="M39.266,51.607c0,8.426,4.009,12.357,11.506,12.582c6.973,0,10.649-3.971,10.649-12.766v-9.019h2.006v-4.79
	H52.441v4.901h2.006v7.868c0,6.383-1.487,7.271-3.748,7.271c-2.377,0-3.713-1.26-3.713-7.235v-8.016h2.005v-4.79H37.188v4.826h2.078
	V51.607z"/>
<polygon fill="#EE8022" points="77.249,58.624 74.947,58.624 74.947,42.517 77.249,42.517 77.249,37.615 64.927,37.615 
	64.927,42.517 67.268,42.517 67.268,58.624 64.927,58.624 64.927,63.56 77.249,63.56 "/>
<path fill="#EE8022" d="M104.531,50.234c0-7.089-5.122-12.619-14.101-12.619H79.112v4.901h2.298v16.107h-2.298v4.936h11.169
	C99.409,63.56,104.531,58.696,104.531,50.234 M89.018,42.517h1.413c3.932,0,5.566,3.748,5.566,7.718c0,4.64-1.634,8.314-5.566,8.39
	h-1.413V42.517z"/>
<path fill="#EE8022" d="M117.277,58.696h-2.896l0.778-2.522h7.606l0.779,2.522h-3.527v4.863H134.9v-4.863h-2.598l-6.568-21.081
	h-14.252v4.79h1.522l-5.008,16.291h-2.526v4.863h11.803v-4.863H117.277z M118.943,43.706l2.451,8.015h-4.86L118.943,43.706z"/>
<path fill="#EE8022" d="M161.822,50.234c0-7.089-5.118-12.619-14.1-12.619h-11.318v4.901h2.302v16.107h-2.302v4.936h11.166
	C156.704,63.56,161.822,58.696,161.822,50.234 M146.312,42.517h1.412c3.937,0,5.565,3.748,5.565,7.718
	c0,4.64-1.631,8.314-5.565,8.39h-1.412V42.517z"/>
<path fill="#EE8022" d="M176.057,64.227c8.383,0,13.062-5.123,13.062-13.507c0-8.354-4.23-13.809-13.323-13.809
	c-7.687,0-13.022,5.53-13.022,13.546C162.771,59.737,168.299,64.227,176.057,64.227 M175.756,42.626
	c2.859,0,4.082,3.602,4.082,8.094c0,4.603-1.447,7.681-3.781,7.681c-2.379,0-4.119-3.078-4.119-7.943
	C171.938,45.857,173.495,42.59,175.756,42.626"/>
<path fill="#EE8022" d="M24.816,64.151c4.863,0,8.721-2.448,11.246-5.232l-4.342-4.75c-0.337,0.372-2.783,3.636-5.902,3.636
	c-3.525,0-5.416-3.303-5.416-6.973c0-4.048,1.743-7.35,4.415-7.35c2.632,0,3.826,2.265,3.934,4.674h6.643V37.615h-5.827l-0.853,2.08
	c-0.332-0.445-2.004-2.525-5.717-2.525c-4.86,0-11.28,5.121-11.28,13.662C11.716,59.104,16.95,64.151,24.816,64.151"/>
<path fill="#EE8022" d="M194.959,63.595c2.71,0,4.416-1.742,4.416-3.823c0-2.115-1.781-3.934-4.416-3.934
	c-2.675,0-4.229,2.077-4.229,3.934C190.73,61.703,192.543,63.595,194.959,63.595"/>
<polygon fill="#EE8022" points="197.777,54.021 199.744,44.67 199.744,37.615 190.876,37.615 190.876,44.67 192.878,54.021 "/>
<path fill="#EE8022" d="M4.976,44.928c2.672,0,4.229-2.075,4.229-3.934c0-1.93-1.817-3.824-4.229-3.824
	c-2.709,0-4.419,1.746-4.419,3.824C0.557,43.111,2.34,44.928,4.976,44.928"/>
<polygon fill="#EE8022" points="9.059,56.096 7.052,46.744 2.156,46.744 0.189,56.096 0.189,63.15 9.059,63.15 "/>
<path fill="#EE8022" d="M16.95,147.521c0.279-0.309,0.438-0.488,0.476-0.545c0.42-0.521,0.827-0.998,1.209-1.442
	c0.381-0.438,0.718-0.822,1.004-1.147c0.348-0.386,0.653-0.74,0.923-1.066c0.133-0.15,0.202-0.307,0.202-0.459
	c0-0.174-0.045-0.312-0.132-0.418c-0.085-0.104-0.183-0.201-0.287-0.289c-0.105-0.086-0.199-0.158-0.289-0.229
	c-0.086-0.064-0.128-0.137-0.128-0.215c0-0.02,0.018-0.047,0.059-0.086c0.018,0,0.048-0.01,0.084-0.027
	c0.135-0.021,0.231-0.062,0.289-0.133c0.058-0.062,0.087-0.127,0.087-0.188c0-0.229-0.105-0.422-0.317-0.575
	c-0.211-0.152-0.451-0.279-0.72-0.371c-0.307-0.117-0.651-0.213-1.034-0.289c-1.537,0-3.056,0.283-4.562,0.849
	c-1.505,0.566-2.939,1.312-4.301,2.23c-1.362,0.921-2.618,1.973-3.771,3.15c-1.15,1.18-2.147,2.389-2.991,3.625
	c-0.845,1.235-1.505,2.445-1.985,3.625c-0.481,1.181-0.719,2.231-0.719,3.149c0,0.44,0.037,0.856,0.116,1.239
	c0.074,0.385,0.194,0.719,0.358,1.006c0.164,0.289,0.379,0.514,0.648,0.678c0.267,0.16,0.594,0.244,0.976,0.244
	c0.136,0,0.266-0.01,0.389-0.029c0.125-0.021,0.236-0.049,0.333-0.086c0.095-0.039,0.191-0.078,0.287-0.117
	c0.903-0.459,1.731-1.002,2.488-1.625c0.757-0.621,1.415-1.222,1.972-1.797c0.652-0.652,1.247-1.334,1.786-2.043
	c0.096-0.098,0.161-0.146,0.2-0.146c0.019,0,0.028,0.021,0.028,0.06c0,0.018-0.005,0.038-0.015,0.057
	c-0.01,0.021-0.014,0.039-0.014,0.06v0.06c-0.136,0.385-0.259,0.83-0.374,1.338c-0.116,0.508-0.173,0.982-0.173,1.424
	c0,0.613,0.076,1.277,0.23,1.984c0.152,0.711,0.394,1.367,0.719,1.973c0.326,0.604,0.739,1.113,1.237,1.527
	c0.499,0.41,1.103,0.617,1.814,0.617c0.132,0,0.201-0.031,0.201-0.087c-0.135-0.137-0.27-0.396-0.404-0.776
	c-0.133-0.387-0.258-0.85-0.374-1.396c-0.116-0.547-0.207-1.15-0.273-1.814c-0.066-0.66-0.101-1.336-0.101-2.027
	c0-0.746,0.125-1.512,0.374-2.287c0.248-0.773,0.567-1.523,0.949-2.243c0.386-0.72,0.803-1.403,1.252-2.044
	c0.45-0.643,0.874-1.207,1.265-1.697C16.336,148.227,16.671,147.827,16.95,147.521 M13.367,147.749
	c-1.19,1.19-2.249,2.231-3.179,3.124c-0.931,0.891-1.762,1.665-2.489,2.316c-0.731,0.647-1.362,1.197-1.899,1.641
	c-0.54,0.439-0.987,0.805-1.352,1.092c-0.903,0.652-1.516,1.018-1.843,1.094c-0.075,0-0.115-0.037-0.115-0.115
	c0-0.383,0.227-0.992,0.679-1.824c0.449-0.836,1.068-1.774,1.854-2.819c0.788-1.048,1.713-2.14,2.778-3.282
	c1.063-1.14,2.206-2.203,3.424-3.191c1.218-0.988,2.482-1.84,3.797-2.562c1.315-0.719,2.623-1.184,3.929-1.395
	c0.097,0,0.143,0.029,0.143,0.088c0,0.055-0.067,0.152-0.202,0.287L13.367,147.749z"/>
<path fill="#EE8022" d="M112.354,150.398c0-0.076-0.014-0.146-0.043-0.203c-0.025-0.057-0.062-0.104-0.102-0.145
	c-0.037-0.059-0.077-0.104-0.116-0.143c-0.308,0.211-0.604,0.42-0.891,0.631c-0.289,0.211-0.567,0.412-0.835,0.604
	c-1.458,1.037-2.752,1.92-3.885,2.647c-1.131,0.729-2.162,1.329-3.094,1.8c-0.933,0.469-1.783,0.809-2.562,1.02
	c-0.776,0.213-1.539,0.316-2.288,0.316c-0.23-0.076-0.345-0.25-0.345-0.518c0-0.191,0.05-0.406,0.145-0.648
	c0.097-0.238,0.206-0.463,0.33-0.676c0.124-0.211,0.249-0.389,0.374-0.533c0.126-0.142,0.226-0.216,0.302-0.216
	c0.059,0,0.126,0.021,0.201,0.058c0.04,0.021,0.067,0.028,0.088,0.028c0.097,0.175,0.199,0.29,0.315,0.347
	c0.115,0.061,0.22,0.09,0.317,0.09c0.173,0,0.445-0.072,0.821-0.219c0.375-0.143,0.789-0.336,1.251-0.574
	c0.46-0.239,0.937-0.521,1.422-0.836c0.49-0.315,0.938-0.649,1.343-1.006c0.399-0.354,0.732-0.723,0.988-1.096
	c0.264-0.375,0.391-0.732,0.391-1.078c0-0.154-0.055-0.326-0.156-0.516c-0.107-0.191-0.243-0.371-0.418-0.536
	c-0.174-0.162-0.369-0.297-0.592-0.399c-0.219-0.104-0.455-0.16-0.703-0.16c-0.52,0-1.09,0.115-1.711,0.347
	c-0.625,0.231-1.254,0.544-1.887,0.935c-0.637,0.396-1.248,0.852-1.842,1.369c-0.086,0.072-0.159,0.152-0.241,0.229
	c-0.709,0.506-1.411,0.992-2.104,1.453c-1.257,0.834-2.393,1.578-3.413,2.231c-1.188,0.767-2.309,1.465-3.364,2.099
	c-0.328,0.117-0.558,0.172-0.692,0.172c-0.133,0-0.248-0.029-0.344-0.099c-0.097-0.069-0.145-0.149-0.145-0.245
	c0-0.308,0.171-0.748,0.519-1.322c0.344-0.576,0.785-1.199,1.323-1.871s1.127-1.355,1.771-2.06c0.641-0.698,1.265-1.338,1.869-1.913
	c0.604-0.574,1.136-1.051,1.596-1.424c0.462-0.375,0.788-0.562,0.978-0.562c0.31-0.018,0.711-0.045,1.209-0.086
	c0.5-0.037,1.047-0.092,1.641-0.154c0.594-0.064,1.204-0.137,1.829-0.201c0.623-0.066,1.209-0.131,1.754-0.188
	c0.547-0.06,1.022-0.115,1.426-0.172c0.402-0.06,0.672-0.097,0.806-0.115c0.231-0.021,0.345-0.106,0.345-0.262
	c0-0.074-0.033-0.146-0.099-0.215c-0.067-0.068-0.144-0.117-0.217-0.156c-0.099-0.061-0.203-0.105-0.317-0.146
	c-0.383-0.23-0.812-0.4-1.296-0.52c-0.479-0.115-0.972-0.189-1.481-0.229c-0.508-0.039-1.006-0.055-1.496-0.043
	c-0.487,0.01-0.936,0.016-1.335,0.016c-0.174,0-0.283-0.021-0.33-0.061c-0.051-0.037-0.074-0.086-0.074-0.145
	s0.008-0.125,0.028-0.201c0.02-0.078,0.04-0.152,0.06-0.229c0.017-0.078,0.047-0.164,0.085-0.262l0.718-1.008
	c0.154-0.248,0.23-0.422,0.23-0.519c0-0.172-0.1-0.288-0.301-0.346c-0.2-0.058-0.407-0.089-0.618-0.089
	c-0.307,0-0.587,0.021-0.835,0.062c-0.248,0.038-0.411,0.133-0.489,0.284l-1.985,2.647c-0.959,0.076-1.994,0.178-3.107,0.305
	c-1.113,0.123-2.149,0.242-3.107,0.357c-1.133,0.154-2.246,0.31-3.338,0.461c-0.385,0.037-0.647,0.065-0.79,0.086
	c-0.146,0.021-0.217,0.078-0.217,0.175c0,0.096,0.044,0.178,0.13,0.243c0.087,0.068,0.187,0.119,0.302,0.158
	c0.135,0.058,0.286,0.096,0.46,0.112c0.019,0.212,0.164,0.375,0.431,0.49c0.27,0.114,0.601,0.2,0.993,0.258
	c0.396,0.06,0.811,0.095,1.253,0.103c0.441,0.011,0.863,0.017,1.265,0.017c0.462,0,0.856-0.011,1.18-0.031
	c0.326-0.021,0.536-0.026,0.632-0.026c0.23,0,0.391,0.021,0.476,0.06c0.086,0.037,0.129,0.086,0.129,0.144
	c0,0.06-0.047,0.135-0.142,0.229l-0.118,0.112c-0.997,0.887-1.864,1.748-2.604,2.594c-0.293,0.334-0.552,0.65-0.808,0.968
	c-0.13,0.099-0.274,0.201-0.399,0.298c-0.854,0.651-1.639,1.241-2.357,1.768c-0.72,0.531-1.392,0.998-2.016,1.412
	c-0.623,0.412-1.232,0.744-1.827,0.992c-0.517,0.229-0.865,0.348-1.037,0.348c-0.154,0-0.244-0.033-0.272-0.104
	c-0.028-0.064-0.043-0.117-0.043-0.156c0-0.422,0.064-0.801,0.198-1.137c0.136-0.337,0.377-0.73,0.72-1.179
	c0.346-0.452,0.816-0.995,1.412-1.626c0.593-0.637,1.352-1.471,2.272-2.505c0.077-0.097,0.115-0.201,0.115-0.315
	c0-0.074-0.014-0.14-0.041-0.189c-0.029-0.047-0.065-0.092-0.101-0.129c-0.06-0.039-0.108-0.073-0.145-0.114l-0.808-0.229
	c-0.057-0.039-0.143-0.058-0.259-0.058c-0.095,0-0.186,0.015-0.273,0.041c-0.088,0.026-0.169,0.062-0.245,0.101
	c-0.076,0.062-0.163,0.106-0.257,0.146c-0.807,0.672-1.699,1.366-2.677,2.088c-0.979,0.718-1.918,1.386-2.82,1.997l-0.145,0.088
	l-0.029-0.027c0-0.061,0.059-0.162,0.174-0.316c0.06-0.076,0.123-0.154,0.2-0.23l2.158-2.992c0.096-0.134,0.145-0.269,0.145-0.399
	c0-0.117-0.062-0.222-0.187-0.318c-0.125-0.096-0.265-0.17-0.417-0.229c-0.153-0.059-0.299-0.104-0.432-0.146
	c-0.134-0.034-0.22-0.055-0.26-0.055c-0.191,0-0.411,0.168-0.66,0.504c-0.25,0.334-0.526,0.746-0.821,1.233
	c-0.01,0.019-0.022,0.035-0.033,0.054c-0.128,0.094-0.26,0.188-0.384,0.278c-1.458,1.035-2.752,1.918-3.886,2.646
	c-1.131,0.729-2.161,1.329-3.092,1.801c-0.932,0.469-1.785,0.809-2.562,1.02c-0.776,0.212-1.54,0.316-2.286,0.316
	c-0.229-0.076-0.345-0.25-0.345-0.519c0-0.19,0.046-0.406,0.142-0.647c0.097-0.238,0.207-0.464,0.331-0.677
	c0.125-0.211,0.249-0.39,0.374-0.532s0.226-0.217,0.301-0.217c0.06,0,0.127,0.021,0.202,0.057c0.037,0.021,0.068,0.029,0.089,0.029
	c0.094,0.176,0.198,0.29,0.314,0.348c0.116,0.06,0.221,0.09,0.316,0.09c0.173,0,0.445-0.073,0.822-0.219
	c0.373-0.144,0.788-0.338,1.25-0.576c0.459-0.238,0.936-0.52,1.424-0.836c0.488-0.314,0.935-0.648,1.338-1.006
	c0.401-0.354,0.734-0.722,0.992-1.095c0.26-0.375,0.387-0.731,0.387-1.077c0-0.154-0.052-0.326-0.157-0.517
	s-0.245-0.371-0.417-0.536c-0.173-0.162-0.369-0.297-0.59-0.4c-0.221-0.104-0.458-0.16-0.705-0.16c-0.519,0-1.091,0.115-1.712,0.348
	c-0.625,0.23-1.252,0.544-1.884,0.936c-0.634,0.396-1.248,0.851-1.843,1.369c-0.148,0.127-0.279,0.266-0.419,0.397
	c-0.509,0.368-0.989,0.726-1.437,1.065c-0.854,0.652-1.639,1.242-2.36,1.77c-0.718,0.531-1.39,0.999-2.012,1.412
	c-0.625,0.412-1.233,0.744-1.827,0.992c-0.519,0.229-0.864,0.347-1.036,0.347c-0.154,0-0.245-0.033-0.274-0.104
	c-0.029-0.063-0.044-0.117-0.044-0.156c0-0.135,0.039-0.297,0.116-0.489c0.038-0.076,0.076-0.149,0.113-0.229
	c0.077-0.248,0.221-0.519,0.434-0.806c0.209-0.287,0.515-0.651,0.92-1.095c0.403-0.439,0.911-0.988,1.525-1.641
	c0.612-0.65,1.361-1.468,2.244-2.447c0.078-0.096,0.115-0.198,0.115-0.313c0-0.075-0.016-0.142-0.043-0.188
	c-0.029-0.045-0.062-0.088-0.102-0.129c-0.056-0.037-0.105-0.076-0.144-0.115l-0.634-0.486c-0.056-0.039-0.141-0.061-0.258-0.061
	c-0.097,0-0.186,0.016-0.272,0.043c-0.086,0.029-0.169,0.062-0.245,0.1c-0.077,0.062-0.164,0.107-0.257,0.146
	c-0.079,0.076-0.257,0.222-0.535,0.435c-0.277,0.211-0.58,0.428-0.908,0.657c-0.362,0.271-0.776,0.576-1.235,0.925
	c-0.039,0.037-0.256,0.194-0.648,0.474s-0.819,0.57-1.281,0.879c-0.538,0.361-1.141,0.775-1.812,1.234l-0.145,0.088l-0.027-0.027
	c0-0.061,0.057-0.162,0.172-0.316c0.058-0.076,0.125-0.154,0.201-0.23l1.871-2.56c0.096-0.136,0.145-0.271,0.145-0.404
	c0-0.114-0.039-0.215-0.117-0.303c-0.077-0.086-0.163-0.149-0.258-0.199c-0.097-0.049-0.193-0.086-0.289-0.116
	c-0.095-0.029-0.162-0.043-0.2-0.043c-0.059,0-0.128,0.012-0.218,0.028c-0.085,0.021-0.189,0.067-0.313,0.144
	c-0.127,0.078-0.294,0.178-0.505,0.303c-0.212,0.125-0.479,0.304-0.805,0.533l-3.858,2.674l-0.085,0.029
	c-0.038,0-0.058-0.018-0.058-0.057c0-0.057,0.028-0.115,0.087-0.172c0.133-0.135,0.291-0.322,0.475-0.561
	c0.183-0.242,0.35-0.496,0.503-0.767c0.192-0.287,0.375-0.604,0.547-0.948c0.152-0.248,0.229-0.488,0.229-0.72
	c0-0.248-0.12-0.479-0.357-0.688c-0.241-0.213-0.465-0.315-0.676-0.315c-0.232,0-0.453,0.155-0.665,0.474
	c-0.12,0.182-0.28,0.43-0.47,0.729c-1.703,1.246-3.281,2.359-4.72,3.328c-1.583,1.064-2.922,1.855-4.015,2.375
	c0.02-0.248,0.11-0.52,0.273-0.809c0.163-0.285,0.406-0.637,0.733-1.048c0.327-0.414,0.732-0.907,1.223-1.481
	c0.488-0.576,1.068-1.277,1.741-2.104c0.174-0.15,0.282-0.287,0.33-0.4c0.048-0.115,0.072-0.211,0.072-0.287
	c0-0.154-0.062-0.283-0.188-0.391s-0.235-0.168-0.33-0.188c-0.115-0.135-0.202-0.225-0.258-0.274
	c-0.058-0.047-0.135-0.069-0.231-0.069c-0.078,0-0.15,0.015-0.215,0.041c-0.068,0.028-0.131,0.063-0.187,0.104
	c-0.078,0.055-0.135,0.104-0.173,0.145c-0.096-0.213-0.213-0.396-0.346-0.55c-0.135-0.153-0.308-0.229-0.518-0.229
	c-0.672,0-1.406,0.168-2.201,0.505c-0.692,0.292-1.38,0.677-2.069,1.128c-0.006-0.006-0.012-0.014-0.018-0.02
	c-0.089,0.062-0.173,0.125-0.261,0.188c-0.014,0.01-0.026,0.02-0.042,0.025c-0.111,0.076-0.216,0.164-0.326,0.242
	c-1.087,0.801-2.16,1.562-3.214,2.262c-1.256,0.834-2.391,1.578-3.408,2.23c-1.189,0.766-2.312,1.465-3.367,2.098
	c-0.327,0.119-0.557,0.174-0.69,0.174s-0.25-0.03-0.344-0.1c-0.098-0.07-0.146-0.15-0.146-0.246c0-0.307,0.174-0.748,0.52-1.322
	c0.344-0.574,0.786-1.198,1.324-1.869c0.535-0.672,1.126-1.356,1.769-2.061c0.641-0.699,1.267-1.338,1.871-1.914
	c0.603-0.574,1.136-1.05,1.595-1.423c0.46-0.375,0.786-0.562,0.981-0.562c0.307-0.018,0.707-0.045,1.207-0.086
	c0.499-0.037,1.046-0.092,1.642-0.156c0.594-0.066,1.202-0.135,1.824-0.201c0.624-0.068,1.209-0.131,1.758-0.188
	c0.546-0.061,1.021-0.115,1.422-0.172c0.406-0.061,0.672-0.098,0.807-0.115c0.23-0.021,0.346-0.107,0.346-0.262
	c0-0.074-0.035-0.146-0.1-0.215c-0.068-0.07-0.141-0.119-0.217-0.158c-0.098-0.06-0.202-0.104-0.316-0.146
	c-0.384-0.231-0.816-0.401-1.295-0.519c-0.482-0.115-0.973-0.19-1.482-0.229c-0.508-0.039-1.007-0.054-1.496-0.043
	c-0.491,0.01-0.935,0.015-1.34,0.015c-0.172,0-0.283-0.021-0.332-0.06c-0.046-0.037-0.069-0.086-0.069-0.144
	c0-0.06,0.008-0.125,0.029-0.201c0.018-0.078,0.037-0.153,0.057-0.229c0.018-0.076,0.047-0.164,0.086-0.262l0.72-1.008
	c0.152-0.248,0.23-0.422,0.23-0.519c0-0.172-0.102-0.288-0.304-0.346c-0.199-0.058-0.407-0.088-0.619-0.088
	c-0.306,0-0.586,0.021-0.834,0.062c-0.249,0.038-0.412,0.133-0.489,0.284l-1.986,2.649c-0.96,0.076-1.996,0.176-3.106,0.303
	c-0.545,0.061-1.072,0.119-1.58,0.18c0.832-0.844,1.472-1.551,1.896-2.105c0.46-0.606,0.727-0.995,0.803-1.168
	c0.08-0.153,0.117-0.307,0.117-0.459c-0.097-0.213-0.202-0.411-0.316-0.604c-0.098-0.151-0.216-0.293-0.359-0.418
	c-0.145-0.12-0.303-0.188-0.476-0.188c-0.095,0-0.191,0.012-0.288,0.031c-0.096,0.02-0.181,0.037-0.26,0.059
	c-0.077,0.021-0.162,0.039-0.258,0.057c-1.649,0.654-3.146,1.428-4.489,2.318c-1.342,0.892-2.541,1.83-3.596,2.818
	c-1.054,0.988-1.975,1.984-2.762,2.992s-1.44,1.944-1.958,2.818c-0.52,0.871-0.903,1.639-1.15,2.303
	c-0.249,0.661-0.374,1.146-0.374,1.452c0,0.769,0.065,1.367,0.2,1.798c0.133,0.434,0.312,0.76,0.532,0.979
	c0.22,0.225,0.46,0.359,0.721,0.42c0.258,0.057,0.521,0.088,0.789,0.088c0.152,0,0.297-0.01,0.432-0.018
	c0.134-0.012,0.251-0.023,0.345-0.043c0.116-0.02,0.231-0.049,0.347-0.088c0.363-0.113,0.795-0.312,1.292-0.602
	c0.501-0.287,1.039-0.637,1.613-1.035c0.575-0.404,1.165-0.842,1.769-1.311c0.417-0.324,0.818-0.653,1.219-0.981
	c-0.094,0.181-0.181,0.354-0.255,0.521c-0.25,0.565-0.375,1.012-0.375,1.338c0,0.998,0.208,1.719,0.619,2.158
	c0.412,0.439,0.869,0.662,1.367,0.662c0.152,0,0.299-0.006,0.433-0.016s0.248-0.023,0.345-0.041
	c0.115-0.021,0.229-0.051,0.345-0.086c0.364-0.119,0.801-0.328,1.31-0.635c0.507-0.309,1.055-0.672,1.639-1.094
	c0.576-0.414,1.166-0.871,1.772-1.359c-0.192,0.408-0.292,0.756-0.292,1.045c0,0.363,0.07,0.645,0.205,0.848
	c0.133,0.201,0.277,0.359,0.429,0.475c0.193,0.135,0.403,0.229,0.635,0.287c0.498,0,1.041-0.186,1.625-0.561
	c0.586-0.375,1.147-0.779,1.682-1.223c0.616-0.521,1.239-1.114,1.874-1.784c0.073-0.076,0.132-0.115,0.171-0.115
	c0.021,0,0.029,0.026,0.029,0.086s-0.015,0.158-0.045,0.302c-0.026,0.146-0.056,0.309-0.085,0.491
	c-0.027,0.181-0.052,0.367-0.07,0.56c-0.021,0.19-0.029,0.355-0.029,0.488c0,0.613,0.081,1.031,0.244,1.252
	c0.163,0.225,0.409,0.33,0.733,0.33c0.191,0,0.494-0.113,0.907-0.344c0.412-0.23,0.887-0.531,1.426-0.908
	c0.535-0.371,1.116-0.804,1.738-1.294c0.625-0.489,1.243-0.981,1.858-1.479c0.811-0.664,1.667-1.381,2.556-2.139
	c-0.148,0.211-0.304,0.426-0.471,0.654c-0.718,0.988-1.702,2.163-2.95,3.523c-0.056,0.099-0.084,0.174-0.084,0.232
	c0,0.115,0.048,0.225,0.145,0.33c0.094,0.104,0.205,0.191,0.331,0.262c0.123,0.062,0.248,0.115,0.372,0.154
	c0.125,0.037,0.216,0.061,0.272,0.061c0.06,0,0.126-0.018,0.203-0.045c0.077-0.029,0.22-0.121,0.432-0.273
	c0.211-0.152,0.525-0.387,0.95-0.704c0.421-0.315,0.998-0.763,1.728-1.34l3.077-2.415c0.076-0.078,0.135-0.115,0.173-0.115
	s0.056,0.021,0.056,0.059c0,0.039-0.018,0.076-0.056,0.113l-0.488,0.49c-0.214,0.211-0.468,0.502-0.763,0.878
	c-0.299,0.373-0.58,0.733-0.85,1.08c-0.327,0.422-0.642,0.853-0.95,1.293c-0.097,0.153-0.143,0.327-0.143,0.519
	c0,0.348,0.102,0.574,0.302,0.691c0.2,0.115,0.415,0.172,0.646,0.172c0.097,0,0.174-0.006,0.229-0.014
	c0.06-0.01,0.116-0.025,0.175-0.043c0.057-0.02,0.114-0.049,0.172-0.088c0.154-0.076,0.428-0.254,0.821-0.531
	c0.392-0.277,0.871-0.637,1.44-1.064c0.563-0.431,1.203-0.931,1.913-1.496c0.709-0.565,1.447-1.168,2.216-1.799
	c0.114-0.098,0.173-0.135,0.173-0.117c0,0.021-0.01,0.045-0.029,0.074c-0.021,0.027-0.04,0.062-0.058,0.102
	c-0.039,0.057-0.067,0.104-0.086,0.146l-1.238,1.696c-0.269,0.383-0.452,0.735-0.546,1.062c-0.1,0.326-0.145,0.594-0.145,0.808
	c0,0.499,0.066,0.901,0.202,1.21c0.135,0.305,0.312,0.545,0.533,0.717c0.219,0.174,0.458,0.289,0.718,0.35
	c0.258,0.057,0.514,0.084,0.762,0.084c0.309,0,0.701-0.113,1.181-0.348c0.479-0.229,0.998-0.529,1.553-0.902
	c0.555-0.375,1.141-0.807,1.754-1.299c0.615-0.486,1.219-0.979,1.812-1.479c0.149-0.13,0.301-0.265,0.453-0.396
	c-0.146,0.445-0.222,0.887-0.222,1.316c0,1.804,0.738,2.706,2.216,2.706c0.67,0,1.423-0.146,2.258-0.435
	c0.834-0.287,1.698-0.672,2.59-1.147c0.891-0.479,1.785-1.021,2.677-1.614s1.735-1.189,2.53-1.796
	c0.105-0.082,0.199-0.157,0.301-0.235c-0.225,0.297-0.495,0.621-0.816,0.973c-0.337,0.361-0.667,0.707-0.993,1.031
	c-0.364,0.385-0.75,0.768-1.153,1.15c-0.096,0.154-0.142,0.327-0.142,0.52c0,0.347,0.099,0.574,0.302,0.69
	c0.201,0.115,0.416,0.173,0.645,0.173c0.098,0,0.174-0.007,0.231-0.015c0.058-0.011,0.116-0.024,0.173-0.043
	c0.058-0.021,0.114-0.05,0.173-0.088c0.152-0.076,0.426-0.255,0.821-0.531c0.392-0.276,0.87-0.636,1.438-1.063
	c0.565-0.432,1.205-0.932,1.914-1.496c0.708-0.566,1.448-1.168,2.215-1.799c0.115-0.099,0.172-0.136,0.172-0.117
	c0,0.021-0.009,0.045-0.026,0.074c-0.021,0.026-0.04,0.062-0.059,0.101c-0.038,0.057-0.066,0.104-0.087,0.146l-1.236,1.697
	c-0.271,0.383-0.451,0.736-0.548,1.062s-0.145,0.594-0.145,0.807c0,0.499,0.068,0.902,0.201,1.21
	c0.136,0.306,0.313,0.545,0.534,0.717c0.221,0.173,0.462,0.289,0.719,0.349c0.261,0.058,0.514,0.084,0.763,0.084
	c0.308,0,0.699-0.112,1.179-0.346c0.48-0.23,0.999-0.531,1.555-0.904c0.557-0.375,1.14-0.806,1.754-1.299
	c0.485-0.381,0.956-0.771,1.425-1.162c-0.179,0.449-0.274,0.816-0.274,1.092c0,1,0.206,1.72,0.621,2.16
	c0.411,0.438,0.864,0.662,1.366,0.662c0.152,0,0.297-0.006,0.431-0.017c0.135-0.01,0.249-0.022,0.346-0.041
	c0.115-0.021,0.231-0.051,0.345-0.086c0.366-0.119,0.802-0.328,1.308-0.636c0.509-0.307,1.055-0.672,1.643-1.094
	c0.585-0.422,1.184-0.881,1.796-1.381c0.615-0.498,1.22-0.996,1.814-1.494c0.004-0.002,0.006-0.006,0.009-0.008
	c-0.176,0.49-0.268,0.975-0.268,1.443c0,1.805,0.738,2.706,2.216,2.706c0.672,0,1.425-0.146,2.258-0.435
	c0.837-0.287,1.696-0.672,2.59-1.147c0.894-0.479,1.785-1.021,2.677-1.614c0.893-0.594,1.736-1.189,2.532-1.796
	s1.521-1.188,2.173-1.756c0.653-0.565,1.182-1.054,1.581-1.454C112.27,150.762,112.354,150.59,112.354,150.398 M26.689,144.828
	c0.71-0.604,1.314-1.064,1.813-1.396c0.058-0.037,0.123-0.076,0.201-0.113c0.153-0.074,0.25-0.113,0.288-0.113
	c0.02,0.02,0.029,0.039,0.029,0.057c0,0.076-0.174,0.318-0.519,0.723c-0.346,0.402-0.787,0.877-1.323,1.422
	c-0.274,0.281-0.562,0.572-0.865,0.873c-0.497,0.068-0.992,0.139-1.481,0.205C25.46,145.904,26.08,145.35,26.689,144.828
	 M21.078,150.457c0.308-0.443,0.777-0.998,1.41-1.671c0.461-0.486,0.952-0.978,1.461-1.468c0.044,0.009,0.077,0.022,0.121,0.027
	c0.02,0.211,0.163,0.375,0.434,0.489c0.049,0.021,0.108,0.033,0.162,0.056c-0.38,0.356-0.752,0.705-1.113,1.022
	c-0.595,0.526-1.123,0.964-1.583,1.312c-0.46,0.346-0.776,0.518-0.947,0.518c-0.041,0-0.061-0.018-0.061-0.055
	C20.963,150.629,21.002,150.553,21.078,150.457 M22.919,154.555c-0.654,0.414-1.267,0.777-1.841,1.094
	c-0.576,0.318-1.091,0.572-1.554,0.766c-0.459,0.189-0.824,0.287-1.095,0.287c-0.132,0-0.249-0.061-0.344-0.174
	c-0.097-0.113-0.143-0.354-0.143-0.719c0-0.383,0.133-0.801,0.403-1.254c0.267-0.447,0.776-0.914,1.526-1.394
	c2.089-1.345,3.874-2.614,5.351-3.812c0.498-0.406,0.951-0.789,1.389-1.164c0.047,0.002,0.088,0.01,0.135,0.01
	c0.441,0.011,0.864,0.017,1.268,0.017c0.459,0,0.853-0.01,1.181-0.03c0.324-0.021,0.535-0.027,0.63-0.027
	c0.23,0,0.39,0.021,0.476,0.06c0.087,0.037,0.129,0.086,0.129,0.144c0,0.06-0.047,0.136-0.145,0.229L30.17,148.7
	c-0.994,0.886-1.864,1.747-2.604,2.593c-0.089,0.102-0.159,0.191-0.246,0.293c-0.854,0.609-1.681,1.188-2.472,1.721
	C24.214,153.727,23.573,154.146,22.919,154.555 M39.063,153.361c-0.422,0.345-0.838,0.688-1.251,1.033
	c-0.412,0.35-0.794,0.648-1.15,0.91c-0.355,0.258-0.658,0.469-0.908,0.631c-0.25,0.166-0.422,0.246-0.519,0.246
	c-0.039,0-0.057-0.021-0.057-0.061c0-0.15,0.124-0.4,0.375-0.746c0.249-0.348,0.57-0.732,0.962-1.167
	c0.392-0.431,0.843-0.873,1.353-1.321c0.51-0.451,1.032-0.869,1.567-1.254c0.539-0.383,1.06-0.693,1.57-0.938
	c0.507-0.236,0.953-0.357,1.336-0.357c0.058,0,0.087,0.012,0.087,0.029c0,0.039-0.039,0.096-0.115,0.172
	C41.125,151.596,40.043,152.538,39.063,153.361 M69.119,151.49c0.469-0.4,0.944-0.766,1.424-1.092s0.863-0.488,1.152-0.488
	c0.112,0,0.171,0.047,0.171,0.143c0,0.115-0.09,0.277-0.272,0.488c-0.184,0.211-0.412,0.441-0.69,0.691
	c-0.278,0.248-0.586,0.498-0.922,0.746c-0.335,0.25-0.666,0.479-0.994,0.688c-0.324,0.215-0.628,0.388-0.906,0.521
	c-0.277,0.135-0.484,0.201-0.619,0.201c-0.057,0-0.085-0.021-0.085-0.058c0-0.099,0.172-0.328,0.517-0.69
	C68.239,152.277,68.649,151.896,69.119,151.49 M101.838,151.49c0.467-0.4,0.941-0.766,1.422-1.092
	c0.481-0.326,0.864-0.488,1.151-0.488c0.112,0,0.171,0.047,0.171,0.143c0,0.115-0.087,0.277-0.271,0.488
	c-0.184,0.211-0.412,0.441-0.689,0.691c-0.279,0.248-0.584,0.498-0.921,0.746c-0.337,0.25-0.666,0.479-0.991,0.688
	c-0.325,0.215-0.628,0.388-0.909,0.521c-0.276,0.135-0.484,0.201-0.619,0.201c-0.057,0-0.086-0.021-0.086-0.058
	c0-0.099,0.174-0.328,0.52-0.69C100.958,152.277,101.365,151.896,101.838,151.49"/>
<path fill="#FFFFFF" d="M147.602,144.412c-0.037,0-0.074-0.008-0.113-0.027c-0.059,0-0.104-0.01-0.146-0.029
	c-0.192,0-0.442,0.072-0.749,0.215c-0.306,0.146-0.607,0.332-0.906,0.562c-0.295,0.23-0.549,0.5-0.763,0.807
	c-0.209,0.307-0.315,0.613-0.315,0.922c0,0.248,0.088,0.42,0.263,0.517c0.075,0.06,0.157,0.099,0.258,0.117
	c0.386,0,0.738-0.088,1.063-0.261c0.324-0.174,0.621-0.362,0.893-0.575c0.309-0.248,0.585-0.536,0.835-0.864
	c0.095-0.094,0.153-0.188,0.175-0.271c0.018-0.088,0.027-0.18,0.027-0.274c0-0.112-0.027-0.224-0.087-0.33
	c-0.06-0.104-0.164-0.254-0.317-0.446C147.68,144.434,147.643,144.412,147.602,144.412"/>
<path fill="#EE8022" d="M183.512,153.335c0.596-0.729,1.072-1.435,1.439-2.118c0.363-0.68,0.546-1.289,0.546-1.824
	c0-0.386-0.067-0.722-0.2-1.011c-0.137-0.286-0.277-0.563-0.432-0.832c-0.077-0.153-0.146-0.229-0.204-0.229
	c-0.056,0-0.095,0.064-0.114,0.199c-0.018,0.135-0.027,0.229-0.027,0.289c-0.06,0.553-0.266,1.166-0.619,1.842
	c-0.356,0.672-0.801,1.349-1.33,2.027c-0.529,0.682-1.107,1.344-1.731,1.984c-0.626,0.643-1.224,1.214-1.79,1.714
	c-0.564,0.496-1.074,0.896-1.517,1.192c-0.443,0.298-0.753,0.445-0.925,0.445c-0.096,0-0.146-0.068-0.146-0.201
	c0-0.076,0.016-0.164,0.031-0.258c0.021-0.099,0.05-0.193,0.087-0.285c0.039-0.099,0.087-0.205,0.144-0.319
	c0.328-0.613,0.738-1.253,1.237-1.913c0.501-0.662,0.979-1.27,1.438-1.828c0.539-0.632,1.096-1.257,1.672-1.87
	c0.113-0.114,0.191-0.215,0.229-0.301c0.038-0.088,0.057-0.168,0.057-0.244c0-0.135-0.053-0.246-0.156-0.332
	c-0.105-0.086-0.229-0.151-0.374-0.2c-0.144-0.048-0.283-0.082-0.416-0.103c-0.136-0.019-0.229-0.029-0.289-0.029
	c-0.097,0-0.188,0.035-0.286,0.103c-0.098,0.068-0.193,0.147-0.29,0.244c-0.094,0.099-0.198,0.213-0.313,0.349
	c-0.856,0.87-1.613,1.713-2.31,2.528c-0.118,0.078-0.245,0.168-0.366,0.244c-1.25,0.795-2.371,1.492-3.367,2.09
	c-1.17,0.688-2.282,1.319-3.338,1.896c-0.33,0.115-0.558,0.174-0.69,0.174c-0.229,0-0.347-0.105-0.347-0.314
	c0-0.135,0.039-0.299,0.113-0.49c0.041-0.078,0.079-0.152,0.118-0.23c0.19-0.574,0.509-1.184,0.95-1.826
	c0.438-0.644,0.891-1.24,1.352-1.799c0.535-0.633,1.123-1.275,1.756-1.928c0.135-0.135,0.201-0.24,0.201-0.316
	c0-0.035-0.01-0.07-0.027-0.1c-0.021-0.031-0.038-0.062-0.061-0.102c-0.037-0.021-0.068-0.039-0.086-0.061
	c-0.174-0.072-0.4-0.133-0.676-0.172c-0.277-0.039-0.484-0.061-0.618-0.061c-0.112,0-0.231,0.021-0.349,0.061
	c-0.115,0.039-0.219,0.076-0.314,0.117c-0.115,0.055-0.22,0.104-0.316,0.145c-0.096,0.037-0.271,0.193-0.529,0.475
	c-0.26,0.279-0.559,0.623-0.895,1.033c-0.017,0.021-0.033,0.047-0.049,0.066c-0.742,0.525-1.476,1.036-2.193,1.518
	c-1.26,0.834-2.394,1.578-3.411,2.23c-1.188,0.768-2.312,1.465-3.366,2.1c-0.324,0.117-0.557,0.172-0.689,0.172
	c-0.137,0-0.248-0.03-0.347-0.1c-0.096-0.068-0.146-0.148-0.146-0.244c0-0.309,0.173-0.748,0.521-1.322
	c0.347-0.576,0.784-1.2,1.323-1.871c0.533-0.672,1.127-1.356,1.771-2.059c0.643-0.699,1.266-1.34,1.868-1.914
	c0.604-0.574,1.138-1.052,1.599-1.425c0.461-0.375,0.785-0.562,0.979-0.562c0.311-0.018,0.707-0.045,1.21-0.086
	c0.498-0.036,1.046-0.092,1.64-0.155c0.594-0.065,1.207-0.136,1.828-0.201c0.467-0.053,0.905-0.101,1.33-0.144
	c0.043,0.076,0.102,0.142,0.178,0.185c0.08,0.06,0.164,0.099,0.261,0.117c0.386,0,0.741-0.088,1.065-0.261
	c0.152-0.08,0.278-0.182,0.42-0.271c0.357-0.051,0.604-0.086,0.729-0.104c0.231-0.021,0.347-0.106,0.347-0.262
	c0-0.074-0.033-0.146-0.1-0.215c-0.04-0.037-0.079-0.059-0.116-0.086c0.155-0.158,0.308-0.324,0.446-0.506
	c0.095-0.094,0.152-0.188,0.171-0.271c0.019-0.088,0.026-0.18,0.026-0.273c0-0.113-0.026-0.225-0.084-0.33
	c-0.06-0.104-0.162-0.254-0.317-0.447c-0.035-0.033-0.074-0.057-0.113-0.057c-0.04,0-0.077-0.01-0.116-0.027
	c-0.056,0-0.104-0.01-0.144-0.027c-0.192,0-0.44,0.072-0.745,0.215c-0.309,0.145-0.611,0.332-0.908,0.562
	c-0.135,0.104-0.26,0.223-0.381,0.342c-0.337-0.063-0.68-0.115-1.029-0.142c-0.509-0.039-1.006-0.053-1.496-0.043
	c-0.487,0.011-0.937,0.015-1.34,0.015c-0.17,0-0.281-0.021-0.328-0.06c-0.047-0.037-0.071-0.086-0.071-0.144
	c0-0.06,0.011-0.125,0.028-0.201c0.02-0.077,0.037-0.153,0.056-0.229c0.021-0.077,0.05-0.163,0.089-0.262l0.718-1.009
	c0.154-0.248,0.229-0.422,0.229-0.518c0-0.172-0.1-0.289-0.301-0.346c-0.199-0.057-0.408-0.088-0.617-0.088
	c-0.307,0-0.586,0.02-0.834,0.061c-0.254,0.039-0.414,0.133-0.49,0.285l-1.984,2.648c-0.959,0.076-1.994,0.177-3.107,0.304
	c-1.11,0.123-2.146,0.242-3.106,0.358c-1.133,0.154-2.246,0.309-3.337,0.461c-0.387,0.037-0.646,0.064-0.794,0.086
	c-0.144,0.02-0.215,0.078-0.215,0.174s0.045,0.178,0.129,0.244c0.086,0.068,0.187,0.119,0.305,0.158
	c0.134,0.057,0.286,0.096,0.457,0.111c0.021,0.213,0.164,0.375,0.435,0.49c0.269,0.115,0.599,0.201,0.99,0.258
	c0.396,0.061,0.813,0.096,1.252,0.104c0.441,0.01,0.864,0.016,1.266,0.016c0.463,0,0.855-0.01,1.185-0.031
	c0.326-0.02,0.535-0.027,0.632-0.027c0.229,0,0.389,0.021,0.476,0.061c0.086,0.037,0.129,0.086,0.129,0.145
	s-0.048,0.135-0.144,0.229l-0.115,0.113c-0.821,0.729-1.551,1.439-2.193,2.142c-0.143,0.103-0.288,0.209-0.425,0.308
	c-1.455,1.037-2.731,1.92-3.825,2.646c-1.096,0.729-2.089,1.329-2.979,1.801c-0.896,0.469-1.711,0.809-2.461,1.021
	c-0.748,0.211-1.498,0.315-2.246,0.315c-0.305,0-0.457-0.201-0.457-0.604c0-0.361,0.189-0.871,0.572-1.522
	c0.385-0.654,0.891-1.311,1.526-1.973c0.632-0.66,1.362-1.264,2.185-1.8c0.824-0.535,1.689-0.871,2.592-1.007
	c0.097,0,0.146,0.06,0.146,0.172c0,0.039-0.008,0.074-0.019,0.103c-0.008,0.029-0.012,0.054-0.012,0.072l-0.029,0.06
	c-0.112,0.151-0.295,0.327-0.532,0.528c-0.237,0.205-0.481,0.379-0.731,0.533c-0.289,0.213-0.595,0.405-0.922,0.577
	c-0.172,0.059-0.259,0.143-0.259,0.26c0,0.211,0.093,0.336,0.271,0.373c0.185,0.039,0.342,0.057,0.479,0.057
	c0.634,0,1.212-0.1,1.736-0.301c0.531-0.201,0.98-0.455,1.355-0.764c0.376-0.307,0.669-0.641,0.893-0.993
	c0.22-0.354,0.328-0.687,0.328-0.992c-0.019-0.211-0.095-0.401-0.229-0.576c-0.115-0.155-0.292-0.286-0.533-0.401
	c-0.24-0.113-0.59-0.174-1.05-0.174c-0.571,0-1.224,0.096-1.94,0.289c-0.723,0.191-1.453,0.467-2.201,0.821
	s-1.479,0.774-2.188,1.267c-0.71,0.487-1.349,1.039-1.91,1.65c-0.026,0.029-0.045,0.059-0.069,0.086
	c-1.201,0.766-2.287,1.439-3.256,2.02c-1.17,0.688-2.283,1.32-3.338,1.896c-0.328,0.115-0.559,0.174-0.691,0.174
	c-0.229,0-0.348-0.105-0.348-0.314c0-0.135,0.041-0.299,0.118-0.49c0.038-0.078,0.075-0.152,0.114-0.23
	c0.191-0.574,0.508-1.184,0.949-1.826c0.439-0.644,0.893-1.239,1.354-1.799c0.536-0.633,1.123-1.273,1.754-1.928
	c0.137-0.135,0.203-0.24,0.203-0.316c0-0.035-0.01-0.07-0.027-0.1c-0.021-0.031-0.039-0.062-0.06-0.102
	c-0.038-0.021-0.067-0.039-0.089-0.061c-0.17-0.072-0.396-0.133-0.672-0.172c-0.279-0.039-0.485-0.061-0.619-0.061
	c-0.115,0-0.23,0.021-0.348,0.061c-0.113,0.039-0.221,0.076-0.318,0.117c-0.111,0.055-0.217,0.104-0.312,0.145
	c-0.097,0.039-0.272,0.193-0.535,0.475c-0.258,0.279-0.555,0.623-0.891,1.033c-0.011,0.016-0.023,0.031-0.035,0.047
	c-0.711,0.482-1.404,0.951-2.078,1.396c-1.267,0.832-2.397,1.553-3.396,2.156c-0.995,0.602-1.812,1.074-2.444,1.408
	c-0.634,0.336-1.006,0.504-1.121,0.504c-0.076,0-0.115-0.029-0.115-0.086c0-0.365,0.178-0.85,0.529-1.453
	c0.354-0.605,0.812-1.253,1.369-1.941s1.166-1.399,1.827-2.129c0.66-0.729,1.312-1.4,1.94-2.014c0.498-0.48,1.05-0.999,1.652-1.557
	c0.604-0.555,1.219-1.121,1.844-1.697c0.623-0.576,1.229-1.145,1.812-1.711c0.585-0.567,1.107-1.108,1.568-1.627
	c0.462-0.52,0.828-1.008,1.105-1.467c0.28-0.463,0.42-0.865,0.42-1.209c0-0.309-0.164-0.461-0.49-0.461
	c-0.535,0-1.164,0.234-1.885,0.707c-0.721,0.469-1.469,1.063-2.244,1.78c-0.776,0.722-1.543,1.5-2.304,2.349
	c-0.757,0.844-1.435,1.629-2.028,2.358s-1.067,1.341-1.424,1.839c-0.354,0.5-0.529,0.777-0.529,0.838
	c-0.1-0.193-0.215-0.371-0.348-0.537c-0.134-0.16-0.309-0.242-0.52-0.242c-0.672,0-1.405,0.175-2.2,0.517
	c-0.597,0.265-1.194,0.593-1.794,0.962c0-0.002-0.002-0.006-0.006-0.008c-0.033,0.023-0.069,0.047-0.104,0.076
	c-0.162,0.1-0.324,0.188-0.486,0.299c-0.518,0.348-1.018,0.738-1.512,1.148c-1.1,0.783-2.146,1.515-3.121,2.172
	c-1.582,1.064-2.92,1.855-4.015,2.375c0.019-0.248,0.108-0.52,0.271-0.809c0.164-0.285,0.41-0.637,0.736-1.048
	c0.326-0.414,0.732-0.907,1.223-1.481c0.49-0.576,1.068-1.277,1.74-2.104c0.174-0.15,0.284-0.287,0.33-0.4
	c0.049-0.115,0.072-0.211,0.072-0.287c0-0.154-0.061-0.283-0.186-0.391s-0.236-0.168-0.334-0.188
	c-0.115-0.135-0.199-0.225-0.26-0.274c-0.057-0.047-0.134-0.069-0.229-0.069c-0.076,0-0.148,0.015-0.215,0.041
	c-0.067,0.028-0.129,0.063-0.188,0.104c-0.079,0.055-0.133,0.104-0.174,0.145c-0.095-0.213-0.209-0.396-0.347-0.55
	c-0.135-0.153-0.309-0.229-0.518-0.229c-0.671,0-1.404,0.168-2.199,0.505c-0.797,0.337-1.595,0.776-2.39,1.325
	c-0.798,0.545-1.565,1.16-2.302,1.84c-0.738,0.683-1.396,1.357-1.973,2.029c-0.574,0.672-1.037,1.311-1.379,1.912
	c-0.35,0.604-0.521,1.1-0.521,1.483c0,0.362,0.066,0.646,0.199,0.849c0.137,0.2,0.277,0.358,0.434,0.475
	c0.191,0.134,0.4,0.229,0.633,0.287c0.5,0,1.039-0.187,1.625-0.562s1.147-0.778,1.686-1.223c0.615-0.521,1.238-1.114,1.871-1.784
	c0.076-0.076,0.135-0.115,0.172-0.115c0.02,0,0.029,0.027,0.029,0.086c0,0.061-0.016,0.158-0.043,0.303
	c-0.029,0.146-0.059,0.309-0.088,0.49c-0.027,0.182-0.053,0.367-0.07,0.561c-0.021,0.191-0.029,0.355-0.029,0.488
	c0,0.612,0.082,1.03,0.246,1.252c0.164,0.224,0.404,0.33,0.732,0.33c0.189,0,0.492-0.113,0.905-0.345
	c0.413-0.229,0.888-0.53,1.425-0.907c0.537-0.371,1.116-0.805,1.738-1.293c0.1-0.074,0.189-0.148,0.283-0.227
	c-0.289,0.533-0.439,0.98-0.439,1.335c0,0.362,0.069,0.646,0.202,0.849c0.136,0.2,0.277,0.358,0.433,0.475
	c0.191,0.134,0.4,0.229,0.633,0.287c0.498,0,1.043-0.187,1.627-0.562c0.586-0.375,1.146-0.778,1.684-1.223
	c0.612-0.521,1.238-1.114,1.871-1.784c0.075-0.076,0.133-0.115,0.172-0.115c0.02,0,0.028,0.027,0.028,0.086
	c0,0.061-0.024,0.182-0.072,0.357c-0.049,0.184-0.095,0.387-0.146,0.604c-0.045,0.221-0.098,0.445-0.143,0.676
	c-0.049,0.231-0.072,0.414-0.072,0.547c0,0.443,0.172,0.775,0.518,0.994c0.346,0.222,0.68,0.351,1.009,0.392
	c0.151,0,0.298-0.009,0.433-0.017c0.136-0.012,0.25-0.024,0.347-0.043c0.114-0.021,0.229-0.049,0.344-0.088
	c0.365-0.113,0.797-0.313,1.296-0.603s1.038-0.638,1.61-1.035c0.575-0.405,1.166-0.841,1.771-1.31
	c0.605-0.475,1.193-0.947,1.771-1.426c0.021-0.021,0.048-0.043,0.069-0.062c-0.192,0.359-0.364,0.717-0.504,1.055
	c-0.19,0.471-0.287,0.865-0.287,1.191c0,0.492,0.065,0.893,0.203,1.193c0.131,0.304,0.312,0.539,0.529,0.711
	c0.223,0.172,0.461,0.283,0.719,0.34c0.262,0.058,0.516,0.089,0.766,0.089c0.152,0,0.298-0.009,0.434-0.017
	c0.133-0.011,0.248-0.022,0.346-0.043c0.114-0.021,0.229-0.047,0.346-0.086c0.361-0.111,0.795-0.312,1.295-0.597
	c0.5-0.282,1.035-0.627,1.607-1.022c0.577-0.398,1.168-0.834,1.771-1.305c0.134-0.1,0.255-0.203,0.381-0.303
	c-0.066,0.33-0.105,0.666-0.105,1.01c0,0.499,0.067,0.901,0.201,1.208c0.135,0.308,0.312,0.548,0.533,0.72
	c0.219,0.174,0.459,0.287,0.721,0.346c0.256,0.058,0.51,0.089,0.76,0.089c0.671,0,1.427-0.146,2.263-0.435
	c0.834-0.287,1.696-0.672,2.59-1.147c0.892-0.479,1.783-1.021,2.675-1.614c0.801-0.529,1.555-1.064,2.274-1.607
	c-0.28,0.451-0.513,0.869-0.679,1.25c-0.25,0.564-0.373,1.012-0.373,1.338c0,0.998,0.203,1.718,0.617,2.158
	c0.41,0.438,0.867,0.662,1.367,0.662c0.15,0,0.297-0.007,0.43-0.017c0.138-0.011,0.25-0.022,0.349-0.041
	c0.114-0.021,0.229-0.052,0.345-0.086c0.364-0.119,0.803-0.328,1.311-0.636c0.51-0.307,1.056-0.672,1.644-1.094
	c0.583-0.422,1.183-0.883,1.794-1.383c0.613-0.498,1.219-0.996,1.816-1.494c0.146-0.129,0.307-0.273,0.459-0.404
	c-0.188,0.354-0.355,0.693-0.488,1.023c-0.191,0.469-0.288,0.865-0.288,1.191c0,0.492,0.067,0.892,0.2,1.193
	c0.137,0.303,0.312,0.539,0.533,0.711s0.459,0.283,0.72,0.34c0.261,0.058,0.511,0.088,0.761,0.088c0.152,0,0.299-0.008,0.434-0.016
	c0.134-0.011,0.25-0.022,0.348-0.043c0.114-0.021,0.229-0.048,0.346-0.086c0.36-0.111,0.795-0.312,1.293-0.597
	c0.5-0.283,1.037-0.627,1.611-1.022c0.562-0.391,1.141-0.812,1.729-1.271c-0.086,0.184-0.168,0.367-0.235,0.543
	c-0.151,0.393-0.228,0.74-0.228,1.046c0,0.304,0.047,0.545,0.144,0.735c0.099,0.189,0.22,0.33,0.377,0.427
	c0.151,0.094,0.313,0.16,0.485,0.196c0.172,0.039,0.334,0.058,0.488,0.058c0.479,0,1.062-0.166,1.756-0.498
	c0.69-0.325,1.41-0.76,2.157-1.293c0.749-0.532,1.493-1.144,2.229-1.833C182.252,154.771,182.919,154.062,183.512,153.335
	 M119.171,153.361c-0.422,0.345-0.838,0.688-1.25,1.033c-0.413,0.35-0.797,0.648-1.151,0.91c-0.354,0.258-0.656,0.469-0.906,0.631
	c-0.25,0.164-0.422,0.246-0.518,0.246c-0.039,0-0.058-0.021-0.058-0.061c0-0.15,0.124-0.4,0.372-0.746
	c0.248-0.348,0.57-0.732,0.966-1.167c0.394-0.431,0.845-0.873,1.353-1.321c0.51-0.451,1.031-0.869,1.568-1.254
	c0.537-0.383,1.062-0.693,1.568-0.938c0.507-0.236,0.951-0.357,1.337-0.357c0.06,0,0.086,0.012,0.086,0.029
	c0,0.039-0.039,0.096-0.116,0.172C121.232,151.596,120.15,152.538,119.171,153.361 M130.48,153.361
	c-0.42,0.345-0.84,0.688-1.252,1.033c-0.412,0.35-0.795,0.648-1.151,0.91c-0.354,0.258-0.655,0.469-0.904,0.631
	c-0.25,0.164-0.423,0.246-0.519,0.246c-0.039,0-0.059-0.021-0.059-0.061c0-0.15,0.117-0.4,0.36-0.746
	c0.237-0.348,0.562-0.732,0.962-1.167c0.4-0.431,0.855-0.873,1.367-1.321c0.508-0.451,1.029-0.869,1.566-1.254
	c0.539-0.383,1.056-0.693,1.555-0.938c0.498-0.236,0.949-0.357,1.354-0.357c0.059,0,0.088,0.012,0.088,0.029
	c0,0.039-0.039,0.096-0.115,0.172C132.542,151.596,131.461,152.538,130.48,153.361"/>
<path fill="#EE8022" d="M199.957,150.195c-0.029-0.057-0.062-0.104-0.1-0.145c-0.041-0.059-0.078-0.104-0.113-0.143
	c-1.903,1.396-3.643,2.63-5.227,3.695c-1.582,1.064-2.922,1.855-4.014,2.373c0.02-0.248,0.107-0.518,0.271-0.807
	c0.164-0.287,0.41-0.637,0.733-1.048c0.325-0.414,0.733-0.908,1.226-1.481c0.486-0.576,1.07-1.279,1.74-2.104
	c0.172-0.152,0.279-0.287,0.332-0.402c0.045-0.115,0.071-0.211,0.071-0.287c0-0.154-0.065-0.283-0.188-0.389
	c-0.125-0.105-0.235-0.168-0.33-0.186c-0.115-0.135-0.2-0.228-0.26-0.276c-0.058-0.047-0.137-0.07-0.229-0.07
	c-0.076,0-0.146,0.015-0.214,0.041c-0.068,0.029-0.131,0.063-0.19,0.104c-0.073,0.055-0.131,0.104-0.173,0.143
	c-0.098-0.212-0.209-0.395-0.346-0.548c-0.135-0.153-0.305-0.229-0.518-0.229c-0.671,0-1.402,0.168-2.199,0.504
	c-0.799,0.336-1.596,0.775-2.392,1.324c-0.796,0.545-1.562,1.16-2.301,1.842c-0.739,0.683-1.396,1.356-1.974,2.029
	c-0.572,0.67-1.033,1.311-1.379,1.91c-0.349,0.605-0.52,1.1-0.52,1.484c0,0.363,0.066,0.646,0.201,0.849
	c0.135,0.201,0.277,0.358,0.432,0.476c0.193,0.133,0.403,0.229,0.635,0.287c0.496,0,1.039-0.187,1.625-0.562
	c0.584-0.375,1.146-0.778,1.685-1.224c0.614-0.52,1.235-1.113,1.868-1.783c0.078-0.076,0.135-0.115,0.174-0.115
	c0.021,0,0.029,0.027,0.029,0.086s-0.015,0.158-0.045,0.301c-0.027,0.146-0.056,0.311-0.086,0.492
	c-0.026,0.18-0.053,0.367-0.072,0.559c-0.018,0.192-0.028,0.356-0.028,0.49c0,0.612,0.082,1.03,0.246,1.252
	c0.162,0.223,0.407,0.329,0.733,0.329c0.19,0,0.494-0.112,0.904-0.344c0.412-0.229,0.889-0.531,1.426-0.908
	c0.537-0.37,1.117-0.804,1.738-1.294c0.625-0.49,1.244-0.982,1.857-1.48c1.459-1.188,3.039-2.53,4.75-4.027
	c0.173-0.154,0.257-0.326,0.257-0.52C200,150.322,199.986,150.254,199.957,150.195 M188.979,153.361
	c-0.42,0.345-0.838,0.688-1.25,1.033c-0.414,0.35-0.797,0.648-1.149,0.91c-0.354,0.258-0.657,0.469-0.906,0.631
	c-0.25,0.164-0.422,0.246-0.521,0.246c-0.035,0-0.055-0.021-0.055-0.061c0-0.15,0.123-0.4,0.371-0.746
	c0.252-0.348,0.57-0.732,0.967-1.167c0.393-0.431,0.842-0.873,1.351-1.321c0.511-0.451,1.03-0.869,1.565-1.254
	c0.539-0.383,1.062-0.693,1.57-0.938c0.51-0.236,0.954-0.357,1.336-0.357c0.061,0,0.09,0.012,0.09,0.029
	c0,0.039-0.037,0.096-0.115,0.172C191.04,151.596,189.959,152.538,188.979,153.361"/>
<path d="M13.862,138.758c13.959,0,13.865-15.307,13.865-15.307v-9.721h-9.726v9.721c0,0,0.386,5.199-3.947,5.199
	c-3.656,0-3.656-5.199-3.656-5.199V81.768c0,0,0-5.199,3.656-5.199c4.333,0,3.947,5.199,3.947,5.199v9.724h9.726v-9.724
	c0,0,0.095-15.306-13.865-15.306C-0.095,66.462,0,81.768,0,81.768v41.684C0,123.451-0.095,138.758,13.862,138.758"/>
<path d="M47.168,66.462c-13.957,0-13.861,15.306-13.861,15.306v41.684c0,0-0.096,15.307,13.861,15.307
	c13.96,0,13.863-15.307,13.863-15.307V81.768C61.032,81.768,61.128,66.462,47.168,66.462 M47.168,128.65
	c-3.658,0-3.463-5.199-3.463-5.199V81.768c0,0-0.194-5.199,3.463-5.199c3.659,0,3.467,5.199,3.467,5.199v41.684
	C50.635,123.451,50.827,128.65,47.168,128.65"/>
<polygon points="97.322,137.988 106.949,137.988 106.949,67.231 94.241,67.231 88.081,99.578 87.598,103.333 87.408,103.333 
	86.925,99.578 80.765,67.231 68.057,67.231 68.057,137.988 77.683,137.988 77.683,93.514 77.683,90.53 78.261,90.53 78.646,93.514 
	85.289,137.988 89.718,137.988 96.359,93.514 96.746,90.53 97.322,90.53 97.322,93.514 "/>
<rect x="114.646" y="67.231" width="10.396" height="70.757"/>
<path d="M161.625,102.656c0-27.725-1.443-35.328-20.697-35.424h-8.183v70.756h8.183
	C160.182,137.893,161.625,130.288,161.625,102.656 M143.141,127.594V77.629c7.317,0,7.799,1.828,7.701,24.934
	C150.939,125.764,150.458,127.594,143.141,127.594"/>
<path d="M176.352,67.232l-10.685,70.756h10.106l1.929-14.439h10.009l1.926,14.439h10.107l-10.684-70.756H176.352z M179.145,112.572
	l2.982-22.333l0.289-1.828h0.581l0.289,1.828l2.983,22.333H179.145z"/>
</svg>
