<?xml version="1.0" encoding="utf-8"?>
<!-- Generator: Adobe Illustrator 15.0.0, SVG Export Plug-In . SVG Version: 6.00 Build 0)  -->
<!DOCTYPE svg PUBLIC "-//W3C//DTD SVG 1.1//EN" "http://www.w3.org/Graphics/SVG/1.1/DTD/svg11.dtd">
<svg version="1.1" id="Layer_1" xmlns="http://www.w3.org/2000/svg" xmlns:xlink="http://www.w3.org/1999/xlink" x="0px" y="0px"
	 width="200px" height="200px" viewBox="0 0 200 200" enable-background="new 0 0 200 200" xml:space="preserve">
<path d="M39.266,51.607c0,8.426,4.009,12.357,11.506,12.582c6.973,0,10.649-3.971,10.649-12.766v-9.019h2.006v-4.79H52.441v4.901
	h2.006v7.868c0,6.383-1.487,7.271-3.748,7.271c-2.377,0-3.713-1.26-3.713-7.235v-8.016h2.005v-4.79H37.188v4.826h2.078V51.607z"/>
<polygon points="77.249,58.624 74.947,58.624 74.947,42.517 77.249,42.517 77.249,37.615 64.927,37.615 64.927,42.517 
	67.268,42.517 67.268,58.624 64.927,58.624 64.927,63.56 77.249,63.56 "/>
<path d="M104.531,50.234c0-7.089-5.122-12.619-14.101-12.619H79.112v4.901h2.298v16.107h-2.298v4.936h11.169
	C99.409,63.56,104.531,58.696,104.531,50.234 M89.018,42.517h1.413c3.932,0,5.566,3.748,5.566,7.718c0,4.64-1.634,8.314-5.566,8.39
	h-1.413V42.517z"/>
<path d="M117.277,58.696h-2.895l0.778-2.522h7.607l0.78,2.522h-3.527v4.863h14.883v-4.863h-2.599l-6.567-21.081h-14.252v4.79h1.522
	l-5.008,16.291h-2.527v4.863h11.804V58.696z M118.943,43.706l2.452,8.015h-4.861L118.943,43.706z"/>
<path d="M161.822,50.234c0-7.089-5.118-12.619-14.099-12.619h-11.318v4.901h2.301v16.107h-2.301v4.936h11.166
	C156.704,63.56,161.822,58.696,161.822,50.234 M146.312,42.517h1.412c3.937,0,5.567,3.748,5.567,7.718
	c0,4.64-1.631,8.314-5.567,8.39h-1.412V42.517z"/>
<path d="M176.056,64.227c8.384,0,13.062-5.123,13.062-13.507c0-8.354-4.231-13.809-13.323-13.809
	c-7.685,0-13.023,5.53-13.023,13.546C162.771,59.737,168.299,64.227,176.056,64.227 M175.756,42.626
	c2.859,0,4.082,3.602,4.082,8.094c0,4.603-1.447,7.681-3.782,7.681c-2.378,0-4.118-3.078-4.118-7.943
	C171.938,45.857,173.495,42.59,175.756,42.626"/>
<path d="M24.816,64.151c4.863,0,8.721-2.448,11.246-5.232l-4.342-4.75c-0.337,0.372-2.783,3.636-5.902,3.636
	c-3.525,0-5.416-3.303-5.416-6.973c0-4.048,1.743-7.35,4.415-7.35c2.632,0,3.826,2.265,3.934,4.674h6.643V37.615h-5.827l-0.853,2.08
	c-0.332-0.445-2.004-2.525-5.717-2.525c-4.86,0-11.28,5.121-11.28,13.662C11.716,59.104,16.95,64.151,24.816,64.151"/>
<path d="M194.959,63.595c2.71,0,4.416-1.742,4.416-3.823c0-2.115-1.781-3.934-4.416-3.934c-2.675,0-4.229,2.077-4.229,3.934
	C190.73,61.703,192.543,63.595,194.959,63.595"/>
<polygon points="197.777,54.021 199.744,44.67 199.744,37.615 190.876,37.615 190.876,44.67 192.878,54.021 "/>
<path d="M4.976,44.928c2.672,0,4.229-2.075,4.229-3.934c0-1.93-1.817-3.824-4.229-3.824c-2.709,0-4.419,1.746-4.419,3.824
	C0.557,43.111,2.34,44.928,4.976,44.928"/>
<polygon points="9.059,56.096 7.052,46.744 2.156,46.744 0.189,56.096 0.189,63.15 9.059,63.15 "/>
<path d="M16.95,147.521c0.279-0.307,0.438-0.488,0.476-0.545c0.42-0.52,0.827-0.997,1.209-1.442
	c0.381-0.439,0.718-0.822,1.004-1.148c0.348-0.385,0.653-0.739,0.923-1.065c0.133-0.152,0.202-0.307,0.202-0.459
	c0-0.174-0.045-0.312-0.132-0.418c-0.085-0.105-0.183-0.203-0.287-0.289c-0.105-0.086-0.199-0.16-0.289-0.23
	c-0.086-0.066-0.128-0.137-0.128-0.215c0-0.018,0.018-0.047,0.059-0.086c0.018,0,0.048-0.01,0.084-0.029
	c0.135-0.02,0.231-0.061,0.289-0.131c0.058-0.064,0.087-0.127,0.087-0.186c0-0.229-0.105-0.423-0.317-0.577
	c-0.211-0.152-0.451-0.279-0.72-0.371c-0.307-0.117-0.651-0.213-1.034-0.289c-1.537,0-3.056,0.283-4.562,0.848
	c-1.505,0.567-2.939,1.312-4.301,2.231c-1.362,0.921-2.618,1.972-3.771,3.151c-1.15,1.179-2.147,2.388-2.991,3.625
	c-0.845,1.236-1.505,2.446-1.985,3.626c-0.481,1.179-0.719,2.231-0.719,3.149c0,0.441,0.037,0.856,0.116,1.239
	c0.074,0.385,0.194,0.719,0.358,1.006c0.164,0.289,0.379,0.514,0.648,0.678c0.267,0.16,0.594,0.244,0.976,0.244
	c0.136,0,0.266-0.01,0.389-0.029c0.125-0.021,0.236-0.049,0.333-0.086c0.095-0.039,0.191-0.078,0.287-0.117
	c0.903-0.459,1.731-1.002,2.488-1.625c0.757-0.621,1.415-1.222,1.972-1.798c0.652-0.652,1.247-1.334,1.786-2.042
	c0.096-0.098,0.161-0.146,0.2-0.146c0.019,0,0.028,0.02,0.028,0.059c0,0.018-0.005,0.039-0.015,0.057
	c-0.01,0.021-0.014,0.039-0.014,0.059v0.059c-0.136,0.384-0.259,0.829-0.374,1.337c-0.116,0.508-0.173,0.984-0.173,1.424
	c0,0.614,0.076,1.278,0.23,1.985c0.152,0.711,0.394,1.368,0.719,1.972c0.326,0.604,0.739,1.113,1.237,1.527
	c0.499,0.411,1.103,0.618,1.814,0.618c0.132,0,0.201-0.031,0.201-0.086c-0.135-0.137-0.27-0.396-0.404-0.778
	c-0.133-0.385-0.258-0.848-0.374-1.395s-0.207-1.151-0.273-1.815c-0.066-0.66-0.101-1.336-0.101-2.028
	c0-0.746,0.125-1.512,0.374-2.287c0.248-0.774,0.567-1.524,0.949-2.243c0.386-0.72,0.803-1.403,1.252-2.044
	c0.45-0.643,0.874-1.207,1.265-1.698C16.336,148.226,16.671,147.827,16.95,147.521 M13.367,147.749
	c-1.19,1.191-2.249,2.231-3.179,3.124c-0.931,0.891-1.762,1.665-2.489,2.317c-0.731,0.648-1.362,1.197-1.899,1.64
	c-0.54,0.439-0.987,0.805-1.352,1.092c-0.903,0.652-1.516,1.018-1.843,1.094c-0.075,0-0.115-0.037-0.115-0.115
	c0-0.383,0.227-0.994,0.679-1.826c0.449-0.835,1.068-1.774,1.854-2.819c0.788-1.048,1.713-2.14,2.778-3.283
	c1.063-1.139,2.206-2.203,3.424-3.192c1.218-0.988,2.482-1.84,3.797-2.562c1.315-0.719,2.623-1.184,3.929-1.395
	c0.097,0,0.143,0.029,0.143,0.088c0,0.055-0.067,0.152-0.202,0.287L13.367,147.749z"/>
<path d="M112.354,150.398c0-0.076-0.014-0.145-0.043-0.203c-0.027-0.057-0.063-0.104-0.102-0.143
	c-0.037-0.059-0.077-0.105-0.116-0.143c-0.308,0.211-0.604,0.42-0.891,0.631c-0.289,0.211-0.567,0.412-0.835,0.605
	c-1.458,1.036-2.752,1.919-3.885,2.647c-1.13,0.729-2.161,1.329-3.094,1.8c-0.931,0.469-1.783,0.809-2.561,1.02
	c-0.776,0.211-1.539,0.316-2.288,0.316c-0.23-0.076-0.345-0.25-0.345-0.518c0-0.191,0.05-0.406,0.145-0.648
	c0.097-0.238,0.206-0.463,0.33-0.676c0.124-0.211,0.249-0.389,0.374-0.533c0.126-0.142,0.226-0.216,0.302-0.216
	c0.059,0,0.126,0.021,0.201,0.057c0.04,0.02,0.067,0.029,0.088,0.029c0.097,0.175,0.199,0.29,0.315,0.347
	c0.115,0.059,0.22,0.09,0.317,0.09c0.173,0,0.445-0.074,0.821-0.219c0.375-0.143,0.789-0.337,1.251-0.575
	c0.46-0.24,0.935-0.52,1.422-0.836c0.49-0.316,0.937-0.65,1.341-1.006c0.401-0.354,0.734-0.722,0.99-1.095
	c0.262-0.375,0.39-0.732,0.39-1.078c0-0.154-0.054-0.326-0.157-0.516c-0.107-0.191-0.243-0.371-0.418-0.536
	c-0.174-0.162-0.369-0.297-0.591-0.4c-0.22-0.105-0.455-0.16-0.703-0.16c-0.519,0-1.09,0.115-1.712,0.346
	c-0.624,0.232-1.253,0.544-1.887,0.935c-0.635,0.395-1.246,0.85-1.84,1.369c-0.086,0.072-0.159,0.152-0.241,0.229
	c-0.709,0.505-1.411,0.993-2.104,1.454c-1.257,0.834-2.393,1.578-3.413,2.231c-1.188,0.766-2.309,1.465-3.364,2.098
	c-0.328,0.118-0.558,0.173-0.692,0.173c-0.133,0-0.248-0.031-0.344-0.099c-0.097-0.07-0.145-0.15-0.145-0.246
	c0-0.307,0.171-0.748,0.519-1.322c0.344-0.576,0.785-1.2,1.323-1.87c0.538-0.672,1.127-1.357,1.771-2.06
	c0.641-0.699,1.265-1.338,1.869-1.914c0.604-0.574,1.136-1.05,1.596-1.423c0.462-0.375,0.788-0.562,0.978-0.562
	c0.31-0.018,0.711-0.045,1.209-0.086c0.5-0.037,1.047-0.092,1.641-0.156c0.594-0.066,1.203-0.135,1.827-0.201
	c0.624-0.068,1.209-0.131,1.754-0.188c0.547-0.059,1.024-0.115,1.426-0.172c0.403-0.059,0.672-0.096,0.806-0.115
	c0.231-0.02,0.345-0.107,0.345-0.262c0-0.074-0.033-0.146-0.099-0.214c-0.067-0.07-0.143-0.119-0.217-0.158
	c-0.098-0.059-0.203-0.105-0.317-0.145c-0.383-0.232-0.812-0.402-1.296-0.518c-0.48-0.115-0.972-0.191-1.482-0.23
	c-0.507-0.039-1.005-0.053-1.495-0.043c-0.489,0.01-0.936,0.014-1.337,0.014c-0.174,0-0.283-0.02-0.33-0.059
	c-0.051-0.037-0.074-0.086-0.074-0.143c0-0.059,0.008-0.125,0.028-0.201c0.02-0.078,0.04-0.154,0.06-0.229
	c0.017-0.078,0.047-0.164,0.085-0.262l0.718-1.007c0.154-0.248,0.23-0.422,0.23-0.518c0-0.172-0.1-0.289-0.301-0.346
	c-0.2-0.057-0.407-0.088-0.618-0.088c-0.307,0-0.587,0.02-0.835,0.061c-0.248,0.039-0.411,0.133-0.489,0.285l-1.985,2.649
	c-0.959,0.076-1.994,0.176-3.107,0.303c-1.113,0.123-2.149,0.242-3.107,0.359c-1.133,0.154-2.246,0.308-3.338,0.46
	c-0.385,0.037-0.647,0.066-0.79,0.086c-0.146,0.02-0.217,0.078-0.217,0.174s0.044,0.178,0.13,0.244
	c0.087,0.068,0.187,0.119,0.302,0.158c0.135,0.057,0.286,0.096,0.46,0.113c0.019,0.211,0.164,0.375,0.431,0.49
	c0.27,0.115,0.601,0.201,0.993,0.258c0.396,0.059,0.811,0.094,1.253,0.102c0.441,0.01,0.863,0.016,1.265,0.016
	c0.462,0,0.856-0.01,1.18-0.031c0.326-0.02,0.536-0.027,0.632-0.027c0.23,0,0.391,0.02,0.476,0.059
	c0.086,0.037,0.129,0.086,0.129,0.143c0,0.059-0.047,0.135-0.142,0.23l-0.118,0.113c-0.997,0.886-1.864,1.747-2.604,2.593
	c-0.293,0.334-0.552,0.651-0.808,0.968c-0.13,0.098-0.274,0.201-0.399,0.297c-0.854,0.652-1.639,1.242-2.357,1.768
	c-0.72,0.532-1.392,0.999-2.016,1.413c-0.623,0.412-1.232,0.744-1.827,0.992c-0.517,0.229-0.865,0.346-1.037,0.346
	c-0.154,0-0.244-0.033-0.272-0.104c-0.028-0.064-0.043-0.117-0.043-0.156c0-0.422,0.064-0.801,0.198-1.137
	c0.136-0.336,0.377-0.729,0.72-1.178c0.346-0.452,0.816-0.995,1.412-1.626c0.593-0.635,1.352-1.47,2.272-2.505
	c0.077-0.096,0.115-0.201,0.115-0.316c0-0.074-0.014-0.139-0.041-0.188c-0.029-0.047-0.065-0.092-0.101-0.129
	c-0.06-0.039-0.108-0.074-0.145-0.115l-0.808-0.229c-0.057-0.039-0.143-0.057-0.259-0.057c-0.095,0-0.186,0.014-0.273,0.041
	c-0.088,0.027-0.169,0.062-0.245,0.1c-0.076,0.061-0.163,0.107-0.257,0.145c-0.807,0.672-1.699,1.367-2.677,2.088
	c-0.979,0.718-1.918,1.386-2.82,1.997l-0.145,0.088l-0.029-0.029c0-0.059,0.059-0.162,0.174-0.316c0.06-0.076,0.123-0.154,0.2-0.23
	l2.158-2.993c0.096-0.133,0.145-0.268,0.145-0.4c0-0.117-0.062-0.221-0.187-0.318c-0.125-0.096-0.265-0.17-0.417-0.229
	c-0.153-0.059-0.299-0.105-0.432-0.146c-0.134-0.035-0.22-0.055-0.26-0.055c-0.191,0-0.411,0.168-0.66,0.504
	c-0.25,0.334-0.526,0.746-0.821,1.234c-0.01,0.018-0.022,0.035-0.033,0.053c-0.128,0.094-0.26,0.189-0.384,0.279
	c-1.458,1.036-2.752,1.919-3.886,2.647c-1.131,0.729-2.161,1.329-3.092,1.8c-0.932,0.469-1.785,0.809-2.562,1.02
	c-0.776,0.211-1.54,0.316-2.286,0.316c-0.229-0.076-0.345-0.25-0.345-0.518c0-0.191,0.046-0.406,0.142-0.648
	c0.097-0.238,0.207-0.463,0.331-0.676c0.125-0.211,0.249-0.389,0.374-0.533c0.125-0.142,0.226-0.216,0.301-0.216
	c0.06,0,0.127,0.021,0.202,0.057c0.037,0.02,0.068,0.029,0.089,0.029c0.094,0.175,0.198,0.29,0.314,0.347
	c0.116,0.059,0.221,0.09,0.316,0.09c0.173,0,0.445-0.074,0.822-0.219c0.373-0.143,0.788-0.337,1.25-0.575
	c0.459-0.24,0.936-0.52,1.424-0.836c0.488-0.316,0.935-0.65,1.338-1.006c0.401-0.354,0.734-0.722,0.992-1.095
	c0.26-0.375,0.387-0.732,0.387-1.078c0-0.154-0.052-0.326-0.157-0.516c-0.105-0.191-0.245-0.371-0.417-0.536
	c-0.173-0.162-0.369-0.297-0.59-0.4c-0.221-0.105-0.458-0.16-0.705-0.16c-0.519,0-1.091,0.115-1.712,0.346
	c-0.625,0.232-1.252,0.544-1.884,0.935c-0.634,0.395-1.248,0.85-1.843,1.369c-0.148,0.127-0.279,0.266-0.419,0.398
	c-0.509,0.37-0.989,0.726-1.437,1.067c-0.854,0.652-1.639,1.242-2.36,1.768c-0.718,0.532-1.39,0.999-2.012,1.413
	c-0.625,0.412-1.233,0.744-1.827,0.992c-0.519,0.229-0.864,0.346-1.036,0.346c-0.154,0-0.245-0.033-0.274-0.104
	c-0.029-0.064-0.044-0.117-0.044-0.156c0-0.135,0.039-0.297,0.116-0.49c0.038-0.076,0.076-0.15,0.113-0.229
	c0.077-0.248,0.221-0.518,0.434-0.805c0.209-0.287,0.515-0.652,0.92-1.095c0.403-0.439,0.911-0.988,1.525-1.641
	c0.612-0.65,1.361-1.466,2.244-2.446c0.078-0.096,0.115-0.199,0.115-0.314c0-0.076-0.016-0.141-0.043-0.189
	c-0.029-0.045-0.062-0.088-0.102-0.129c-0.056-0.037-0.105-0.076-0.144-0.115l-0.634-0.487c-0.056-0.039-0.141-0.059-0.258-0.059
	c-0.097,0-0.186,0.014-0.272,0.043s-0.169,0.062-0.245,0.098c-0.077,0.062-0.164,0.108-0.257,0.147
	c-0.079,0.076-0.257,0.221-0.535,0.434c-0.277,0.211-0.58,0.428-0.908,0.658c-0.362,0.27-0.776,0.576-1.235,0.924
	c-0.039,0.037-0.256,0.195-0.648,0.473c-0.392,0.28-0.819,0.571-1.281,0.878c-0.538,0.363-1.141,0.777-1.812,1.236l-0.145,0.088
	l-0.027-0.029c0-0.059,0.057-0.162,0.172-0.316c0.058-0.076,0.125-0.154,0.201-0.23l1.871-2.56c0.096-0.135,0.145-0.27,0.145-0.404
	c0-0.115-0.039-0.215-0.117-0.303c-0.077-0.086-0.163-0.15-0.258-0.199c-0.097-0.049-0.193-0.086-0.289-0.117
	c-0.095-0.029-0.162-0.043-0.2-0.043c-0.059,0-0.128,0.012-0.218,0.029c-0.085,0.02-0.189,0.068-0.313,0.143
	c-0.127,0.078-0.294,0.178-0.505,0.303c-0.212,0.125-0.479,0.303-0.805,0.533l-3.858,2.675l-0.085,0.029
	c-0.038,0-0.058-0.018-0.058-0.057c0-0.057,0.028-0.115,0.087-0.172c0.133-0.135,0.291-0.322,0.475-0.561
	c0.183-0.242,0.35-0.496,0.503-0.765c0.192-0.287,0.375-0.604,0.547-0.949c0.152-0.248,0.229-0.488,0.229-0.719
	c0-0.248-0.12-0.479-0.357-0.689c-0.241-0.213-0.465-0.316-0.676-0.316c-0.232,0-0.453,0.156-0.665,0.473
	c-0.12,0.182-0.28,0.43-0.47,0.729c-1.703,1.246-3.281,2.36-4.72,3.329c-1.583,1.065-2.922,1.856-4.015,2.374
	c0.02-0.248,0.11-0.518,0.273-0.807c0.163-0.287,0.406-0.637,0.733-1.048c0.327-0.414,0.732-0.908,1.223-1.482
	c0.488-0.576,1.068-1.278,1.741-2.103c0.174-0.152,0.282-0.287,0.33-0.402s0.072-0.211,0.072-0.287c0-0.154-0.062-0.283-0.188-0.389
	s-0.235-0.168-0.33-0.186c-0.115-0.135-0.202-0.226-0.258-0.276c-0.058-0.047-0.135-0.07-0.231-0.07
	c-0.078,0-0.15,0.014-0.215,0.041c-0.068,0.029-0.131,0.064-0.187,0.104c-0.078,0.055-0.135,0.104-0.173,0.143
	c-0.096-0.212-0.213-0.394-0.346-0.548c-0.135-0.154-0.308-0.23-0.518-0.23c-0.672,0-1.406,0.168-2.201,0.504
	c-0.692,0.292-1.38,0.677-2.069,1.128c-0.006-0.006-0.012-0.014-0.018-0.02c-0.089,0.064-0.173,0.125-0.261,0.189
	c-0.014,0.01-0.026,0.018-0.042,0.027c-0.111,0.076-0.216,0.164-0.326,0.242c-1.087,0.801-2.16,1.562-3.214,2.261
	c-1.256,0.834-2.391,1.578-3.408,2.231c-1.189,0.766-2.312,1.465-3.367,2.098c-0.327,0.118-0.557,0.173-0.69,0.173
	s-0.25-0.031-0.344-0.099c-0.098-0.07-0.146-0.15-0.146-0.246c0-0.307,0.174-0.748,0.52-1.322c0.344-0.576,0.786-1.2,1.324-1.87
	c0.535-0.672,1.126-1.357,1.769-2.06c0.641-0.699,1.267-1.338,1.871-1.914c0.603-0.574,1.136-1.05,1.595-1.423
	c0.46-0.375,0.786-0.562,0.981-0.562c0.307-0.018,0.707-0.045,1.207-0.086c0.499-0.037,1.046-0.092,1.642-0.156
	c0.594-0.066,1.202-0.135,1.824-0.201c0.624-0.068,1.209-0.131,1.758-0.188c0.546-0.059,1.021-0.115,1.422-0.172
	c0.406-0.059,0.672-0.096,0.807-0.115c0.23-0.02,0.346-0.107,0.346-0.262c0-0.074-0.035-0.146-0.1-0.214
	c-0.068-0.07-0.141-0.119-0.217-0.158c-0.098-0.059-0.202-0.105-0.316-0.145c-0.384-0.232-0.816-0.402-1.295-0.518
	c-0.482-0.115-0.973-0.191-1.482-0.23c-0.508-0.039-1.007-0.053-1.496-0.043c-0.491,0.01-0.935,0.014-1.34,0.014
	c-0.172,0-0.283-0.02-0.332-0.059c-0.046-0.037-0.069-0.086-0.069-0.143c0-0.059,0.008-0.125,0.029-0.201
	c0.018-0.078,0.037-0.154,0.057-0.229c0.018-0.078,0.047-0.164,0.086-0.262l0.72-1.007c0.152-0.248,0.23-0.422,0.23-0.518
	c0-0.172-0.102-0.289-0.304-0.346c-0.199-0.057-0.407-0.088-0.619-0.088c-0.306,0-0.586,0.02-0.834,0.061
	c-0.249,0.039-0.412,0.133-0.489,0.285l-1.986,2.649c-0.96,0.076-1.996,0.176-3.106,0.303c-0.545,0.061-1.072,0.119-1.58,0.18
	c0.832-0.844,1.472-1.551,1.896-2.107c0.46-0.606,0.727-0.995,0.803-1.167c0.08-0.154,0.117-0.307,0.117-0.459
	c-0.097-0.213-0.202-0.412-0.316-0.605c-0.098-0.152-0.216-0.293-0.359-0.418c-0.145-0.121-0.303-0.188-0.476-0.188
	c-0.095,0-0.191,0.011-0.288,0.032c-0.096,0.018-0.181,0.037-0.26,0.057c-0.077,0.021-0.162,0.039-0.258,0.057
	c-1.649,0.654-3.146,1.426-4.489,2.318c-1.342,0.892-2.541,1.831-3.596,2.819c-1.054,0.989-1.975,1.985-2.762,2.992
	c-0.787,1.008-1.44,1.945-1.958,2.819c-0.52,0.871-0.903,1.639-1.15,2.303c-0.249,0.661-0.374,1.146-0.374,1.452
	c0,0.768,0.065,1.367,0.2,1.798c0.133,0.434,0.312,0.76,0.532,0.979c0.22,0.223,0.46,0.359,0.721,0.418
	c0.258,0.057,0.521,0.088,0.789,0.088c0.152,0,0.297-0.008,0.432-0.016c0.134-0.012,0.251-0.025,0.345-0.043
	c0.116-0.02,0.231-0.049,0.347-0.088c0.363-0.113,0.795-0.314,1.292-0.602c0.501-0.287,1.039-0.637,1.613-1.035
	c0.575-0.405,1.165-0.841,1.769-1.31c0.417-0.324,0.818-0.654,1.219-0.982c-0.094,0.18-0.181,0.354-0.255,0.52
	c-0.25,0.566-0.375,1.012-0.375,1.338c0,0.999,0.208,1.718,0.619,2.159c0.412,0.439,0.869,0.662,1.367,0.662
	c0.152,0,0.299-0.006,0.433-0.016s0.248-0.023,0.345-0.041c0.115-0.021,0.229-0.051,0.345-0.086c0.364-0.119,0.801-0.328,1.31-0.635
	c0.507-0.307,1.055-0.672,1.639-1.094c0.576-0.414,1.166-0.87,1.772-1.358c-0.192,0.408-0.292,0.755-0.292,1.044
	c0,0.363,0.07,0.645,0.205,0.848c0.133,0.201,0.277,0.359,0.429,0.475c0.193,0.133,0.403,0.229,0.635,0.287
	c0.498,0,1.041-0.186,1.625-0.561c0.586-0.375,1.147-0.779,1.682-1.223c0.616-0.519,1.239-1.114,1.874-1.784
	c0.073-0.076,0.132-0.115,0.171-0.115c0.021,0,0.029,0.027,0.029,0.086s-0.015,0.158-0.045,0.301
	c-0.026,0.146-0.056,0.309-0.085,0.492c-0.027,0.18-0.052,0.367-0.07,0.559c-0.021,0.191-0.029,0.356-0.029,0.489
	c0,0.613,0.081,1.031,0.244,1.252c0.163,0.223,0.409,0.33,0.733,0.33c0.191,0,0.494-0.113,0.907-0.344
	c0.412-0.23,0.887-0.531,1.426-0.908c0.535-0.371,1.116-0.804,1.738-1.294c0.625-0.49,1.243-0.982,1.858-1.48
	c0.811-0.665,1.667-1.38,2.556-2.138c-0.148,0.211-0.304,0.426-0.471,0.654c-0.718,0.988-1.702,2.163-2.95,3.524
	c-0.056,0.098-0.084,0.174-0.084,0.233c0,0.115,0.048,0.223,0.145,0.33c0.094,0.104,0.205,0.191,0.331,0.26
	c0.123,0.064,0.248,0.117,0.372,0.156c0.125,0.037,0.216,0.059,0.272,0.059c0.06,0,0.126-0.016,0.203-0.045
	c0.077-0.029,0.22-0.121,0.432-0.273c0.211-0.152,0.525-0.387,0.95-0.704c0.421-0.316,0.998-0.762,1.728-1.34l3.077-2.415
	c0.076-0.078,0.135-0.115,0.173-0.115s0.056,0.021,0.056,0.059s-0.018,0.076-0.056,0.113l-0.488,0.49
	c-0.214,0.211-0.468,0.502-0.763,0.878c-0.299,0.373-0.58,0.734-0.85,1.08c-0.327,0.422-0.642,0.852-0.95,1.293
	c-0.097,0.154-0.143,0.327-0.143,0.519c0,0.346,0.102,0.574,0.302,0.691c0.2,0.115,0.415,0.172,0.646,0.172
	c0.097,0,0.174-0.006,0.229-0.014c0.06-0.01,0.116-0.025,0.175-0.043c0.057-0.02,0.114-0.049,0.172-0.088
	c0.154-0.076,0.428-0.254,0.821-0.531c0.392-0.277,0.871-0.636,1.44-1.065c0.563-0.43,1.203-0.93,1.913-1.496
	c0.709-0.566,1.447-1.167,2.216-1.798c0.114-0.098,0.173-0.135,0.173-0.117c0,0.02-0.01,0.045-0.029,0.074
	c-0.021,0.027-0.04,0.061-0.058,0.1c-0.039,0.057-0.067,0.105-0.086,0.145l-1.238,1.698c-0.269,0.383-0.452,0.736-0.546,1.062
	c-0.1,0.326-0.145,0.594-0.145,0.807c0,0.499,0.066,0.903,0.202,1.21c0.135,0.305,0.312,0.545,0.533,0.717
	c0.219,0.172,0.458,0.289,0.718,0.348c0.258,0.057,0.514,0.084,0.762,0.084c0.309,0,0.701-0.113,1.181-0.346
	c0.479-0.229,0.998-0.531,1.553-0.904c0.555-0.375,1.141-0.805,1.754-1.298c0.615-0.486,1.219-0.98,1.812-1.48
	c0.149-0.129,0.301-0.264,0.453-0.396c-0.146,0.447-0.222,0.887-0.222,1.318c0,1.804,0.738,2.706,2.216,2.706
	c0.67,0,1.423-0.146,2.258-0.434c0.834-0.287,1.698-0.672,2.59-1.148c0.891-0.481,1.785-1.019,2.677-1.614
	c0.892-0.594,1.735-1.191,2.53-1.796c0.105-0.082,0.199-0.158,0.301-0.236c-0.225,0.297-0.495,0.62-0.816,0.972
	c-0.337,0.361-0.667,0.707-0.993,1.031c-0.364,0.385-0.75,0.768-1.153,1.152c-0.096,0.154-0.142,0.327-0.142,0.519
	c0,0.346,0.099,0.574,0.302,0.691c0.201,0.115,0.416,0.172,0.645,0.172c0.098,0,0.174-0.006,0.231-0.014
	c0.058-0.01,0.116-0.025,0.173-0.043c0.058-0.02,0.114-0.049,0.173-0.088c0.152-0.076,0.426-0.254,0.821-0.531
	c0.392-0.277,0.87-0.636,1.438-1.065c0.565-0.43,1.205-0.93,1.914-1.496c0.708-0.566,1.448-1.167,2.215-1.798
	c0.115-0.098,0.172-0.135,0.172-0.117c0,0.02-0.009,0.045-0.026,0.074c-0.021,0.027-0.04,0.061-0.059,0.1
	c-0.038,0.057-0.066,0.105-0.087,0.145l-1.236,1.698c-0.271,0.383-0.451,0.736-0.548,1.062c-0.097,0.326-0.145,0.594-0.145,0.807
	c0,0.499,0.068,0.903,0.201,1.21c0.136,0.305,0.313,0.545,0.534,0.717s0.462,0.289,0.719,0.348c0.261,0.057,0.514,0.084,0.763,0.084
	c0.308,0,0.699-0.113,1.179-0.346c0.48-0.229,0.999-0.531,1.555-0.904c0.557-0.375,1.14-0.805,1.754-1.298
	c0.485-0.381,0.956-0.773,1.425-1.162c-0.179,0.449-0.274,0.816-0.274,1.092c0,0.999,0.206,1.718,0.621,2.159
	c0.411,0.439,0.864,0.662,1.366,0.662c0.152,0,0.297-0.006,0.431-0.016c0.135-0.01,0.249-0.023,0.346-0.041
	c0.115-0.021,0.231-0.051,0.345-0.086c0.366-0.119,0.802-0.328,1.308-0.635c0.509-0.307,1.055-0.672,1.643-1.094
	c0.585-0.422,1.184-0.882,1.796-1.382c0.615-0.498,1.22-0.996,1.814-1.494c0.004-0.002,0.006-0.006,0.009-0.008
	c-0.176,0.492-0.268,0.975-0.268,1.445c0,1.804,0.738,2.706,2.216,2.706c0.672,0,1.425-0.146,2.258-0.434
	c0.837-0.287,1.698-0.672,2.59-1.148c0.892-0.481,1.785-1.019,2.677-1.614c0.891-0.594,1.736-1.191,2.532-1.796
	c0.796-0.605,1.521-1.189,2.173-1.756c0.653-0.567,1.18-1.052,1.581-1.454C112.269,150.762,112.354,150.59,112.354,150.398
	 M26.689,144.828c0.71-0.604,1.314-1.064,1.813-1.396c0.058-0.037,0.123-0.076,0.201-0.113c0.153-0.076,0.25-0.115,0.288-0.115
	c0.02,0.018,0.029,0.039,0.029,0.057c0,0.076-0.174,0.318-0.519,0.722c-0.346,0.402-0.787,0.877-1.323,1.422
	c-0.274,0.281-0.562,0.572-0.865,0.873c-0.497,0.068-0.992,0.138-1.481,0.204C25.46,145.904,26.08,145.35,26.689,144.828
	 M21.078,150.457c0.308-0.443,0.777-0.998,1.41-1.671c0.461-0.486,0.952-0.977,1.461-1.467c0.044,0.008,0.077,0.023,0.121,0.027
	c0.02,0.211,0.163,0.375,0.434,0.49c0.049,0.021,0.108,0.033,0.162,0.055c-0.38,0.357-0.752,0.705-1.113,1.023
	c-0.595,0.528-1.123,0.964-1.583,1.31c-0.46,0.346-0.776,0.518-0.947,0.518c-0.041,0-0.061-0.018-0.061-0.055
	C20.963,150.629,21.002,150.553,21.078,150.457 M22.919,154.555c-0.654,0.414-1.267,0.777-1.841,1.094
	c-0.576,0.318-1.091,0.572-1.554,0.764c-0.459,0.191-0.824,0.287-1.095,0.287c-0.132,0-0.249-0.059-0.344-0.172
	c-0.097-0.115-0.143-0.354-0.143-0.719c0-0.383,0.133-0.801,0.403-1.254c0.267-0.448,0.776-0.915,1.526-1.394
	c2.089-1.344,3.874-2.614,5.351-3.812c0.498-0.405,0.951-0.788,1.389-1.163c0.047,0.002,0.088,0.01,0.135,0.01
	c0.441,0.01,0.864,0.016,1.268,0.016c0.459,0,0.853-0.01,1.181-0.031c0.324-0.02,0.535-0.027,0.63-0.027
	c0.23,0,0.39,0.02,0.476,0.059c0.087,0.037,0.129,0.086,0.129,0.143c0,0.059-0.047,0.135-0.145,0.23l-0.115,0.113
	c-0.994,0.886-1.864,1.747-2.604,2.593c-0.089,0.1-0.159,0.193-0.246,0.293c-0.854,0.61-1.681,1.187-2.472,1.72
	C24.214,153.726,23.573,154.146,22.919,154.555 M39.063,153.362c-0.422,0.344-0.838,0.689-1.251,1.033
	c-0.412,0.349-0.794,0.649-1.15,0.909c-0.355,0.258-0.658,0.469-0.908,0.631c-0.25,0.166-0.422,0.246-0.519,0.246
	c-0.039,0-0.057-0.02-0.057-0.059c0-0.152,0.124-0.402,0.375-0.746c0.249-0.346,0.57-0.734,0.962-1.167
	c0.392-0.43,0.843-0.873,1.353-1.322c0.51-0.451,1.032-0.869,1.567-1.253c0.539-0.383,1.06-0.695,1.57-0.936
	c0.507-0.238,0.953-0.359,1.336-0.359c0.058,0,0.087,0.01,0.087,0.029c0,0.039-0.039,0.096-0.115,0.172
	C41.125,151.596,40.043,152.538,39.063,153.362 M69.119,151.49c0.469-0.4,0.944-0.766,1.424-1.092
	c0.48-0.326,0.863-0.488,1.152-0.488c0.112,0,0.171,0.047,0.171,0.143c0,0.115-0.09,0.277-0.272,0.488
	c-0.184,0.211-0.412,0.441-0.69,0.691c-0.278,0.248-0.586,0.498-0.922,0.747c-0.335,0.25-0.666,0.48-0.994,0.689
	c-0.324,0.215-0.628,0.387-0.906,0.521c-0.277,0.135-0.484,0.201-0.619,0.201c-0.057,0-0.085-0.02-0.085-0.057
	c0-0.098,0.172-0.328,0.517-0.691C68.239,152.278,68.649,151.896,69.119,151.49 M101.838,151.49c0.467-0.4,0.942-0.766,1.422-1.092
	c0.48-0.326,0.864-0.488,1.151-0.488c0.113,0,0.171,0.047,0.171,0.143c0,0.115-0.087,0.277-0.272,0.488
	c-0.183,0.211-0.412,0.441-0.69,0.691c-0.279,0.248-0.584,0.498-0.921,0.747c-0.336,0.25-0.666,0.48-0.991,0.689
	c-0.325,0.215-0.628,0.387-0.909,0.521c-0.278,0.135-0.484,0.201-0.619,0.201c-0.057,0-0.086-0.02-0.086-0.057
	c0-0.098,0.174-0.328,0.519-0.691C100.958,152.278,101.365,151.896,101.838,151.49"/>
<path d="M147.602,144.412c-0.037,0-0.075-0.008-0.114-0.027c-0.059,0-0.105-0.01-0.145-0.029c-0.193,0-0.442,0.072-0.749,0.215
	c-0.306,0.145-0.608,0.332-0.906,0.562c-0.295,0.23-0.55,0.5-0.763,0.807c-0.209,0.305-0.315,0.612-0.315,0.921
	c0,0.248,0.087,0.42,0.261,0.516c0.076,0.059,0.159,0.098,0.258,0.117c0.384,0,0.738-0.088,1.064-0.26
	c0.325-0.174,0.622-0.363,0.892-0.576c0.308-0.248,0.585-0.536,0.835-0.864c0.094-0.094,0.153-0.188,0.174-0.271
	c0.017-0.088,0.028-0.18,0.028-0.275c0-0.113-0.028-0.223-0.087-0.33c-0.058-0.104-0.164-0.254-0.317-0.447
	C147.679,144.434,147.642,144.412,147.602,144.412"/>
<path d="M183.512,153.335c0.595-0.73,1.072-1.434,1.439-2.118c0.363-0.68,0.546-1.289,0.546-1.824c0-0.386-0.067-0.722-0.2-1.011
	c-0.137-0.287-0.278-0.564-0.432-0.832c-0.077-0.154-0.146-0.229-0.204-0.229c-0.056,0-0.095,0.064-0.114,0.199
	c-0.018,0.135-0.027,0.229-0.027,0.289c-0.06,0.553-0.266,1.166-0.62,1.841c-0.357,0.672-0.8,1.348-1.329,2.027
	c-0.531,0.683-1.109,1.345-1.733,1.985c-0.626,0.643-1.224,1.214-1.79,1.714c-0.566,0.496-1.075,0.895-1.517,1.193
	c-0.443,0.297-0.751,0.445-0.924,0.445c-0.096,0-0.147-0.068-0.147-0.201c0-0.076,0.015-0.164,0.031-0.258
	c0.021-0.098,0.05-0.193,0.087-0.285c0.039-0.098,0.087-0.205,0.143-0.32c0.329-0.613,0.739-1.252,1.238-1.913
	c0.501-0.662,0.98-1.27,1.438-1.828c0.538-0.632,1.095-1.257,1.672-1.87c0.113-0.115,0.19-0.215,0.229-0.301
	c0.038-0.088,0.056-0.168,0.056-0.244c0-0.135-0.053-0.246-0.157-0.332c-0.105-0.086-0.229-0.152-0.374-0.201
	c-0.143-0.047-0.283-0.082-0.416-0.102c-0.135-0.018-0.229-0.029-0.289-0.029c-0.096,0-0.189,0.035-0.286,0.102
	c-0.098,0.068-0.193,0.148-0.29,0.244c-0.094,0.098-0.198,0.213-0.314,0.348c-0.857,0.871-1.614,1.713-2.309,2.53
	c-0.119,0.078-0.245,0.168-0.367,0.244c-1.249,0.795-2.37,1.492-3.367,2.089c-1.169,0.689-2.282,1.32-3.338,1.896
	c-0.329,0.115-0.557,0.174-0.691,0.174c-0.231,0-0.346-0.107-0.346-0.316c0-0.135,0.04-0.299,0.114-0.49
	c0.04-0.078,0.079-0.152,0.118-0.23c0.191-0.574,0.508-1.184,0.95-1.827c0.438-0.643,0.891-1.24,1.351-1.799
	c0.536-0.632,1.123-1.274,1.756-1.927c0.135-0.135,0.202-0.24,0.202-0.316c0-0.035-0.01-0.072-0.028-0.1
	c-0.021-0.031-0.039-0.062-0.06-0.102c-0.038-0.021-0.068-0.039-0.086-0.059c-0.174-0.074-0.4-0.133-0.676-0.172
	c-0.277-0.039-0.484-0.059-0.618-0.059c-0.113,0-0.232,0.02-0.348,0.059s-0.22,0.076-0.315,0.117
	c-0.115,0.055-0.22,0.104-0.316,0.143c-0.096,0.039-0.273,0.195-0.531,0.475c-0.259,0.279-0.558,0.623-0.894,1.033
	c-0.016,0.021-0.033,0.047-0.049,0.068c-0.741,0.525-1.475,1.036-2.193,1.517c-1.259,0.834-2.393,1.578-3.411,2.231
	c-1.188,0.766-2.312,1.465-3.367,2.098c-0.324,0.118-0.556,0.173-0.69,0.173c-0.136,0-0.248-0.031-0.346-0.099
	c-0.096-0.07-0.145-0.15-0.145-0.246c0-0.307,0.173-0.748,0.52-1.322c0.346-0.576,0.784-1.2,1.323-1.87
	c0.535-0.672,1.127-1.357,1.77-2.06c0.643-0.699,1.266-1.338,1.87-1.914c0.604-0.574,1.136-1.05,1.598-1.423
	c0.461-0.375,0.785-0.562,0.978-0.562c0.31-0.018,0.707-0.045,1.21-0.086c0.498-0.037,1.046-0.092,1.639-0.156
	c0.595-0.066,1.207-0.135,1.829-0.201c0.466-0.053,0.905-0.1,1.33-0.143c0.042,0.076,0.101,0.141,0.178,0.184
	c0.08,0.059,0.164,0.098,0.26,0.117c0.385,0,0.741-0.088,1.066-0.26c0.152-0.08,0.278-0.182,0.419-0.27
	c0.358-0.051,0.604-0.086,0.73-0.104c0.232-0.02,0.347-0.107,0.347-0.262c0-0.074-0.034-0.146-0.1-0.214
	c-0.04-0.037-0.079-0.059-0.116-0.086c0.155-0.158,0.308-0.324,0.447-0.506c0.094-0.094,0.152-0.188,0.17-0.271
	c0.018-0.088,0.027-0.18,0.027-0.275c0-0.113-0.027-0.223-0.084-0.33c-0.059-0.104-0.162-0.254-0.318-0.447
	c-0.035-0.035-0.074-0.057-0.113-0.057c-0.04,0-0.078-0.008-0.116-0.027c-0.056,0-0.104-0.01-0.144-0.029
	c-0.192,0-0.441,0.072-0.745,0.215c-0.309,0.145-0.611,0.332-0.908,0.562c-0.135,0.105-0.26,0.223-0.381,0.342
	c-0.337-0.064-0.679-0.115-1.029-0.141c-0.509-0.039-1.007-0.053-1.497-0.043c-0.488,0.01-0.936,0.014-1.339,0.014
	c-0.171,0-0.282-0.02-0.329-0.059c-0.047-0.037-0.071-0.086-0.071-0.143c0-0.059,0.01-0.125,0.029-0.201
	c0.018-0.078,0.037-0.154,0.055-0.229c0.021-0.078,0.049-0.164,0.088-0.262l0.718-1.007c0.154-0.248,0.229-0.422,0.229-0.518
	c0-0.172-0.1-0.289-0.301-0.346c-0.2-0.057-0.408-0.088-0.618-0.088c-0.306,0-0.585,0.02-0.834,0.061
	c-0.253,0.039-0.414,0.133-0.489,0.285l-1.985,2.649c-0.959,0.076-1.994,0.176-3.107,0.303c-1.112,0.123-2.148,0.242-3.108,0.359
	c-1.133,0.154-2.246,0.308-3.337,0.46c-0.386,0.037-0.648,0.066-0.794,0.086c-0.142,0.02-0.215,0.078-0.215,0.174
	s0.045,0.178,0.129,0.244c0.086,0.068,0.187,0.119,0.305,0.158c0.133,0.057,0.286,0.096,0.457,0.113
	c0.02,0.211,0.164,0.375,0.434,0.49c0.268,0.115,0.598,0.201,0.991,0.258c0.395,0.059,0.813,0.094,1.252,0.102
	c0.441,0.01,0.864,0.016,1.265,0.016c0.462,0,0.856-0.01,1.184-0.031c0.326-0.02,0.535-0.027,0.631-0.027
	c0.23,0,0.389,0.02,0.476,0.059c0.086,0.037,0.128,0.086,0.128,0.143c0,0.059-0.046,0.135-0.143,0.23l-0.115,0.113
	c-0.822,0.729-1.55,1.44-2.194,2.142c-0.141,0.102-0.288,0.209-0.424,0.307c-1.456,1.036-2.733,1.919-3.826,2.647
	c-1.095,0.729-2.088,1.329-2.978,1.8c-0.895,0.469-1.711,0.809-2.46,1.02c-0.748,0.211-1.498,0.316-2.246,0.316
	c-0.306,0-0.458-0.201-0.458-0.605c0-0.361,0.19-0.871,0.572-1.523c0.385-0.653,0.892-1.31,1.527-1.972
	c0.632-0.66,1.363-1.263,2.184-1.8c0.825-0.535,1.69-0.871,2.593-1.006c0.096,0,0.144,0.059,0.144,0.172
	c0,0.039-0.007,0.074-0.017,0.102c-0.008,0.029-0.013,0.053-0.013,0.072l-0.028,0.059c-0.114,0.152-0.295,0.328-0.533,0.529
	c-0.238,0.205-0.483,0.379-0.733,0.533c-0.288,0.213-0.594,0.405-0.921,0.577c-0.172,0.059-0.259,0.143-0.259,0.26
	c0,0.211,0.093,0.336,0.272,0.373c0.183,0.039,0.342,0.057,0.477,0.057c0.634,0,1.212-0.1,1.738-0.301
	c0.53-0.201,0.98-0.455,1.355-0.763c0.376-0.307,0.669-0.641,0.892-0.994c0.22-0.354,0.328-0.686,0.328-0.992
	c-0.018-0.211-0.094-0.402-0.229-0.576c-0.115-0.155-0.292-0.286-0.533-0.401c-0.24-0.115-0.59-0.174-1.05-0.174
	c-0.572,0-1.222,0.096-1.941,0.289c-0.722,0.191-1.454,0.466-2.202,0.821c-0.748,0.354-1.477,0.775-2.188,1.266
	c-0.71,0.488-1.349,1.04-1.91,1.651c-0.027,0.029-0.045,0.059-0.069,0.086c-1.202,0.766-2.288,1.439-3.257,2.019
	c-1.169,0.689-2.283,1.32-3.338,1.896c-0.327,0.115-0.557,0.174-0.69,0.174c-0.229,0-0.348-0.107-0.348-0.316
	c0-0.135,0.041-0.299,0.118-0.49c0.038-0.078,0.075-0.152,0.115-0.23c0.19-0.574,0.507-1.184,0.948-1.827
	c0.441-0.643,0.893-1.24,1.354-1.799c0.536-0.632,1.123-1.274,1.753-1.927c0.137-0.135,0.204-0.24,0.204-0.316
	c0-0.035-0.009-0.072-0.028-0.1c-0.021-0.031-0.039-0.062-0.059-0.102c-0.038-0.021-0.068-0.039-0.088-0.059
	c-0.171-0.074-0.396-0.133-0.673-0.172c-0.279-0.039-0.485-0.059-0.619-0.059c-0.115,0-0.23,0.02-0.348,0.059
	c-0.112,0.039-0.219,0.076-0.318,0.117c-0.112,0.055-0.217,0.104-0.313,0.143s-0.272,0.195-0.534,0.475
	c-0.259,0.279-0.556,0.623-0.892,1.033c-0.01,0.016-0.023,0.031-0.034,0.047c-0.711,0.482-1.405,0.952-2.079,1.396
	c-1.266,0.832-2.398,1.553-3.396,2.157c-0.995,0.602-1.812,1.074-2.444,1.408c-0.634,0.336-1.006,0.504-1.122,0.504
	c-0.077,0-0.115-0.029-0.115-0.086c0-0.365,0.178-0.85,0.53-1.453c0.355-0.605,0.812-1.253,1.369-1.942
	c0.556-0.689,1.165-1.4,1.827-2.128c0.66-0.73,1.311-1.4,1.942-2.014c0.497-0.481,1.049-0.999,1.652-1.556
	c0.604-0.555,1.218-1.122,1.843-1.698c0.623-0.576,1.229-1.145,1.812-1.711c0.585-0.567,1.109-1.108,1.57-1.626
	c0.46-0.52,0.828-1.008,1.105-1.467c0.28-0.464,0.42-0.866,0.42-1.21c0-0.307-0.164-0.461-0.491-0.461
	c-0.535,0-1.164,0.236-1.885,0.707c-0.72,0.469-1.468,1.065-2.243,1.782c-0.777,0.721-1.544,1.5-2.304,2.347
	c-0.757,0.844-1.434,1.629-2.029,2.36c-0.593,0.729-1.068,1.34-1.424,1.838c-0.353,0.5-0.529,0.778-0.529,0.837
	c-0.099-0.192-0.214-0.37-0.348-0.536c-0.133-0.16-0.308-0.242-0.519-0.242c-0.672,0-1.405,0.174-2.2,0.516
	c-0.596,0.265-1.194,0.593-1.794,0.962c0-0.002-0.002-0.006-0.006-0.008c-0.033,0.023-0.069,0.047-0.104,0.076
	c-0.161,0.1-0.324,0.188-0.485,0.299c-0.518,0.348-1.018,0.738-1.512,1.148c-1.1,0.784-2.146,1.515-3.122,2.173
	c-1.582,1.065-2.92,1.856-4.014,2.374c0.019-0.248,0.108-0.518,0.271-0.807c0.164-0.287,0.409-0.637,0.735-1.048
	c0.327-0.414,0.733-0.908,1.223-1.482c0.49-0.576,1.069-1.278,1.74-2.103c0.175-0.152,0.285-0.287,0.331-0.402
	c0.048-0.115,0.072-0.211,0.072-0.287c0-0.154-0.061-0.283-0.186-0.389s-0.236-0.168-0.333-0.186
	c-0.115-0.135-0.2-0.226-0.259-0.276c-0.057-0.047-0.134-0.07-0.229-0.07c-0.077,0-0.15,0.014-0.215,0.041
	c-0.068,0.029-0.13,0.064-0.188,0.104c-0.079,0.055-0.133,0.104-0.174,0.143c-0.094-0.212-0.209-0.394-0.345-0.548
	c-0.135-0.154-0.309-0.23-0.519-0.23c-0.67,0-1.404,0.168-2.199,0.504c-0.797,0.337-1.594,0.776-2.389,1.325
	c-0.798,0.545-1.565,1.16-2.301,1.841c-0.739,0.682-1.397,1.357-1.973,2.029c-0.575,0.671-1.037,1.31-1.38,1.911
	c-0.348,0.605-0.52,1.1-0.52,1.485c0,0.363,0.067,0.645,0.2,0.848c0.136,0.201,0.278,0.359,0.433,0.475
	c0.192,0.133,0.402,0.229,0.633,0.287c0.5,0,1.039-0.186,1.625-0.561s1.147-0.779,1.685-1.223c0.614-0.519,1.237-1.114,1.87-1.784
	c0.076-0.076,0.135-0.115,0.173-0.115c0.018,0,0.029,0.027,0.029,0.086s-0.015,0.158-0.043,0.301
	c-0.029,0.146-0.058,0.309-0.087,0.492c-0.029,0.18-0.053,0.367-0.072,0.559s-0.029,0.356-0.029,0.489
	c0,0.613,0.082,1.031,0.246,1.252c0.164,0.223,0.405,0.33,0.732,0.33c0.191,0,0.493-0.113,0.907-0.344
	c0.413-0.23,0.887-0.531,1.424-0.908c0.538-0.371,1.117-0.804,1.739-1.294c0.098-0.074,0.19-0.148,0.283-0.225
	c-0.289,0.535-0.439,0.982-0.439,1.335c0,0.363,0.069,0.645,0.202,0.848c0.135,0.201,0.278,0.359,0.432,0.475
	c0.192,0.133,0.401,0.229,0.633,0.287c0.498,0,1.042-0.186,1.627-0.561s1.145-0.779,1.683-1.223
	c0.612-0.519,1.238-1.114,1.871-1.784c0.075-0.076,0.132-0.115,0.172-0.115c0.019,0,0.028,0.027,0.028,0.086
	s-0.024,0.18-0.072,0.357c-0.049,0.184-0.095,0.387-0.145,0.605c-0.046,0.221-0.097,0.445-0.143,0.676
	c-0.048,0.231-0.072,0.413-0.072,0.546c0,0.443,0.172,0.775,0.517,0.994c0.346,0.221,0.68,0.35,1.009,0.391
	c0.152,0,0.298-0.008,0.433-0.016c0.134-0.012,0.25-0.025,0.345-0.043c0.115-0.02,0.229-0.049,0.344-0.088
	c0.365-0.113,0.797-0.314,1.296-0.602s1.038-0.637,1.611-1.035c0.575-0.405,1.166-0.841,1.771-1.31
	c0.605-0.473,1.193-0.947,1.769-1.426c0.022-0.02,0.048-0.043,0.071-0.061c-0.193,0.361-0.365,0.717-0.504,1.055
	c-0.191,0.469-0.287,0.865-0.287,1.191c0,0.493,0.065,0.892,0.202,1.194c0.132,0.303,0.311,0.539,0.53,0.711
	c0.223,0.172,0.461,0.283,0.718,0.34c0.263,0.057,0.516,0.088,0.767,0.088c0.152,0,0.297-0.008,0.432-0.016
	c0.132-0.01,0.248-0.023,0.345-0.043c0.115-0.02,0.229-0.047,0.346-0.086c0.362-0.111,0.795-0.311,1.295-0.596
	c0.499-0.283,1.034-0.627,1.608-1.023c0.577-0.399,1.167-0.833,1.771-1.304c0.133-0.1,0.254-0.203,0.38-0.303
	c-0.066,0.33-0.105,0.666-0.105,1.01c0,0.499,0.067,0.901,0.201,1.208c0.135,0.307,0.311,0.547,0.533,0.719
	c0.218,0.174,0.459,0.287,0.72,0.346c0.257,0.057,0.511,0.088,0.761,0.088c0.67,0,1.426-0.146,2.261-0.434
	c0.834-0.287,1.697-0.672,2.59-1.148c0.891-0.481,1.783-1.019,2.675-1.614c0.799-0.531,1.553-1.066,2.275-1.608
	c-0.281,0.45-0.512,0.868-0.679,1.249c-0.249,0.566-0.373,1.012-0.373,1.338c0,0.999,0.204,1.718,0.618,2.159
	c0.41,0.439,0.867,0.662,1.367,0.662c0.151,0,0.296-0.006,0.43-0.016c0.136-0.01,0.25-0.023,0.347-0.041
	c0.115-0.021,0.231-0.051,0.345-0.086c0.364-0.119,0.802-0.328,1.309-0.635c0.51-0.307,1.056-0.672,1.644-1.094
	c0.583-0.422,1.183-0.882,1.794-1.382c0.614-0.498,1.219-0.996,1.816-1.494c0.148-0.129,0.307-0.275,0.459-0.404
	c-0.187,0.352-0.356,0.693-0.488,1.023c-0.191,0.469-0.288,0.865-0.288,1.191c0,0.493,0.067,0.892,0.201,1.194
	c0.136,0.303,0.311,0.539,0.533,0.711c0.221,0.172,0.458,0.283,0.719,0.34c0.26,0.057,0.511,0.088,0.761,0.088
	c0.152,0,0.298-0.008,0.434-0.016c0.133-0.01,0.249-0.023,0.346-0.043c0.115-0.02,0.23-0.047,0.345-0.086
	c0.361-0.111,0.796-0.311,1.294-0.596c0.5-0.283,1.036-0.627,1.611-1.023c0.564-0.39,1.141-0.813,1.729-1.272
	c-0.086,0.184-0.168,0.367-0.236,0.543c-0.152,0.393-0.227,0.741-0.227,1.046c0,0.303,0.047,0.545,0.143,0.736
	c0.098,0.189,0.22,0.33,0.377,0.426c0.152,0.094,0.314,0.16,0.487,0.197c0.171,0.039,0.334,0.057,0.488,0.057
	c0.479,0,1.063-0.166,1.756-0.498c0.69-0.326,1.41-0.76,2.157-1.293c0.749-0.532,1.493-1.144,2.23-1.833
	C182.252,154.771,182.919,154.063,183.512,153.335 M119.171,153.362c-0.422,0.344-0.838,0.689-1.25,1.033
	c-0.413,0.349-0.797,0.649-1.151,0.909c-0.355,0.258-0.657,0.469-0.906,0.631c-0.251,0.164-0.423,0.246-0.519,0.246
	c-0.039,0-0.057-0.02-0.057-0.059c0-0.152,0.124-0.402,0.372-0.746c0.248-0.346,0.571-0.734,0.966-1.167
	c0.393-0.43,0.844-0.873,1.353-1.322c0.509-0.451,1.031-0.869,1.568-1.253c0.537-0.383,1.062-0.695,1.568-0.936
	c0.507-0.238,0.952-0.359,1.337-0.359c0.059,0,0.086,0.01,0.086,0.029c0,0.039-0.039,0.096-0.116,0.172
	C121.233,151.596,120.15,152.538,119.171,153.362 M130.48,153.362c-0.42,0.344-0.839,0.689-1.251,1.033
	c-0.412,0.349-0.796,0.649-1.152,0.909c-0.354,0.258-0.655,0.469-0.904,0.631c-0.25,0.164-0.423,0.246-0.518,0.246
	c-0.04,0-0.06-0.02-0.06-0.059c0-0.152,0.119-0.402,0.362-0.746c0.239-0.346,0.56-0.734,0.962-1.167
	c0.401-0.43,0.856-0.873,1.367-1.322c0.508-0.451,1.031-0.869,1.568-1.253c0.538-0.383,1.054-0.695,1.553-0.936
	c0.499-0.238,0.95-0.359,1.354-0.359c0.057,0,0.087,0.01,0.087,0.029c0,0.039-0.04,0.096-0.115,0.172
	C132.542,151.596,131.461,152.538,130.48,153.362"/>
<path d="M199.957,150.195c-0.03-0.057-0.062-0.104-0.1-0.143c-0.041-0.059-0.078-0.105-0.113-0.143
	c-1.903,1.398-3.642,2.63-5.227,3.696c-1.582,1.065-2.921,1.856-4.012,2.374c0.018-0.248,0.109-0.518,0.271-0.807
	c0.164-0.287,0.409-0.637,0.734-1.048c0.325-0.414,0.733-0.908,1.224-1.482c0.487-0.576,1.07-1.278,1.74-2.103
	c0.173-0.152,0.281-0.287,0.332-0.402c0.045-0.115,0.073-0.211,0.073-0.287c0-0.154-0.066-0.283-0.189-0.389
	c-0.126-0.105-0.236-0.168-0.33-0.186c-0.116-0.135-0.201-0.226-0.26-0.276c-0.057-0.047-0.136-0.07-0.23-0.07
	c-0.076,0-0.146,0.014-0.214,0.041c-0.068,0.029-0.13,0.064-0.19,0.104c-0.073,0.055-0.131,0.104-0.173,0.143
	c-0.097-0.212-0.209-0.394-0.346-0.548c-0.135-0.154-0.305-0.23-0.518-0.23c-0.669,0-1.402,0.168-2.199,0.504
	c-0.799,0.337-1.594,0.776-2.39,1.325c-0.796,0.545-1.563,1.16-2.301,1.841c-0.738,0.682-1.396,1.357-1.972,2.029
	c-0.574,0.671-1.034,1.31-1.379,1.911c-0.349,0.605-0.52,1.1-0.52,1.485c0,0.363,0.066,0.645,0.201,0.848
	c0.135,0.201,0.278,0.359,0.432,0.475c0.193,0.133,0.403,0.229,0.634,0.287c0.497,0,1.039-0.186,1.626-0.561
	c0.583-0.375,1.146-0.779,1.683-1.223c0.615-0.519,1.237-1.114,1.87-1.784c0.078-0.076,0.133-0.115,0.172-0.115
	c0.02,0,0.031,0.027,0.031,0.086s-0.015,0.158-0.045,0.301c-0.029,0.146-0.056,0.309-0.087,0.492
	c-0.027,0.18-0.052,0.367-0.071,0.559s-0.03,0.356-0.03,0.489c0,0.613,0.082,1.031,0.246,1.252c0.162,0.223,0.408,0.33,0.735,0.33
	c0.19,0,0.493-0.113,0.904-0.344c0.412-0.23,0.889-0.531,1.425-0.908c0.538-0.371,1.118-0.804,1.739-1.294
	c0.625-0.49,1.244-0.982,1.858-1.48c1.458-1.188,3.039-2.532,4.75-4.029c0.172-0.154,0.256-0.326,0.256-0.518
	C200,150.322,199.987,150.254,199.957,150.195 M188.979,153.362c-0.421,0.344-0.838,0.689-1.25,1.033
	c-0.414,0.349-0.798,0.649-1.151,0.909c-0.356,0.258-0.657,0.469-0.906,0.631c-0.25,0.164-0.422,0.246-0.519,0.246
	c-0.037,0-0.056-0.02-0.056-0.059c0-0.152,0.124-0.402,0.372-0.746c0.251-0.346,0.57-0.734,0.966-1.167
	c0.392-0.43,0.843-0.873,1.35-1.322c0.511-0.451,1.032-0.869,1.567-1.253c0.539-0.383,1.062-0.695,1.57-0.936
	c0.509-0.238,0.954-0.359,1.336-0.359c0.06,0,0.09,0.01,0.09,0.029c0,0.039-0.038,0.096-0.116,0.172
	C191.04,151.596,189.959,152.538,188.979,153.362"/>
<path fill="#F37920" d="M13.862,138.758c13.959,0,13.865-15.307,13.865-15.307v-9.721h-9.726v9.721c0,0,0.386,5.199-3.947,5.199
	c-3.656,0-3.656-5.199-3.656-5.199V81.768c0,0,0-5.199,3.656-5.199c4.333,0,3.947,5.199,3.947,5.199v9.724h9.726v-9.724
	c0,0,0.095-15.306-13.865-15.306C-0.095,66.462,0,81.768,0,81.768v41.684C0,123.451-0.095,138.758,13.862,138.758"/>
<path fill="#F37920" d="M47.168,66.462c-13.957,0-13.861,15.306-13.861,15.306v41.684c0,0-0.096,15.307,13.861,15.307
	c13.96,0,13.863-15.307,13.863-15.307V81.768C61.032,81.768,61.128,66.462,47.168,66.462 M47.168,128.65
	c-3.658,0-3.463-5.199-3.463-5.199V81.768c0,0-0.194-5.199,3.463-5.199c3.659,0,3.467,5.199,3.467,5.199v41.684
	C50.635,123.451,50.827,128.65,47.168,128.65"/>
<polygon fill="#F37920" points="97.322,137.989 106.949,137.989 106.949,67.231 94.241,67.231 88.081,99.578 87.598,103.333 
	87.408,103.333 86.925,99.578 80.765,67.231 68.057,67.231 68.057,137.989 77.683,137.989 77.683,93.514 77.683,90.53 78.261,90.53 
	78.646,93.514 85.289,137.989 89.718,137.989 96.359,93.514 96.746,90.53 97.322,90.53 97.322,93.514 "/>
<rect x="114.647" y="67.231" fill="#F37920" width="10.396" height="70.758"/>
<path fill="#F37920" d="M161.625,102.656c0-27.725-1.444-35.328-20.697-35.424h-8.183v70.757h8.183
	C160.181,137.892,161.625,130.288,161.625,102.656 M143.141,127.594V77.629c7.317,0,7.799,1.828,7.701,24.934
	C150.939,125.763,150.458,127.594,143.141,127.594"/>
<path fill="#F37920" d="M176.352,67.232l-10.685,70.757h10.107l1.928-14.44h10.009l1.926,14.44h10.107L189.06,67.232H176.352z
	 M179.144,112.572l2.983-22.332l0.289-1.828h0.581l0.289,1.828l2.984,22.332H179.144z"/>
</svg>
