<?xml version="1.0" encoding="utf-8"?>
<!-- Generator: Adobe Illustrator 15.0.0, SVG Export Plug-In . SVG Version: 6.00 Build 0)  -->
<!DOCTYPE svg PUBLIC "-//W3C//DTD SVG 1.1//EN" "http://www.w3.org/Graphics/SVG/1.1/DTD/svg11.dtd">
<svg version="1.1" id="Layer_1" xmlns="http://www.w3.org/2000/svg" xmlns:xlink="http://www.w3.org/1999/xlink" x="0px" y="0px"
	 width="200px" height="200px" viewBox="0 0 200 200" enable-background="new 0 0 200 200" xml:space="preserve">
<g>
	<g>
		<path d="M27.223,82.021c-2.671,2.947-6.757,5.54-11.903,5.54c-8.329,0-13.867-5.342-13.867-14.103
			c0-9.036,6.796-14.457,11.942-14.457c3.928,0,5.696,2.2,6.05,2.671l0.903-2.2h6.168v11.157h-7.032
			c-0.118-2.553-1.375-4.95-4.164-4.95c-2.828,0-4.675,3.497-4.675,7.779c0,3.889,2.003,7.385,5.736,7.385
			c3.3,0,5.892-3.457,6.246-3.85L27.223,82.021z"/>
		<path d="M40.891,59.472v5.068H38.77v8.485c0,6.325,1.414,7.661,3.929,7.661c2.396,0,3.967-0.943,3.967-7.7v-8.328h-2.122v-5.186
			h11.629v5.068h-2.122v9.546c0,9.311-3.889,13.514-11.274,13.514c-7.936-0.235-12.179-4.4-12.179-13.317V64.58h-2.2v-5.107H40.891z
			"/>
		<path d="M70.155,59.472v5.186h-2.082v17.049h5.068v-4.989h6.6v10.214h-22v-5.225h2.161V64.658h-2.161v-5.186H70.155z"/>
		<path d="M107.668,69.687h-5.775v-5.028h-3.299v17.049h3.261v5.225H87.241v-5.225h3.221V64.658h-3.378v5.028h-5.775V59.472h26.359
			V69.687z"/>
		<path d="M121.337,59.472v5.068h-2.12v8.485c0,6.325,1.412,7.661,3.927,7.661c2.396,0,3.969-0.943,3.969-7.7v-8.328h-2.122v-5.186
			h11.629v5.068h-2.122v9.546c0,9.311-3.889,13.514-11.274,13.514c-7.935-0.235-12.178-4.4-12.178-13.317V64.58h-2.2v-5.107H121.337
			z"/>
		<path d="M150.954,59.472c9.113,0,10.883,3.614,10.883,8.093c0,3.064-2.438,5.225-5.698,5.696c2.711,0.393,5.148,2.75,5.148,5.579
			c0,1.689,0.235,2.671,0.941,2.671c0.591,0,0.903-0.472,0.903-1.257v-1.297h2.634v2.161c0,3.261-1.376,6.286-5.736,6.286
			c-5.146,0-7.622-2.71-7.622-7.307c0-3.575-0.433-4.439-3.929-4.439v6.089h2.396v5.186h-12.688v-5.186h2.199V64.619h-2.199v-5.147
			H150.954z M148.479,71.258h1.77c2.276,0,3.771-1.1,3.771-3.182c0-2.318-1.297-3.496-3.576-3.496h-1.964V71.258z"/>
		<path d="M182.144,86.933v-5.146h3.732l-0.826-2.671h-8.054l-0.824,2.671h3.064v5.146h-12.492v-5.146h2.67l5.305-17.246h-1.611
			v-5.068h15.086l6.952,22.314h2.751v5.146H182.144z M183.597,74.4l-2.594-8.485L178.45,74.4H183.597z"/>
	</g>
	<g>
		<path d="M183.448,113.605c3.703,4.975,7.479,9.831,7.479,15.091c0,6.507-2.365,12.304-11.108,12.304
			c-10.302,0-11.633-6.978-11.633-14.233l7.854-0.659c0,4.052,0.441,8.309,3.779,8.309c2.374,0,3.258-2.333,3.258-5.394
			c0-3.253-3.4-7.176-6.432-11.309c-3.788-4.975-7.342-9.965-7.342-15.215c0-5.329,2.881-11.315,10.438-11.449
			c9.633-0.195,11.186,7.525,11.186,12.97l-7.851,0.664c0-3.251-0.523-7.052-3.187-7.052c-2.078,0.068-2.733,2.067-2.733,4.866
			C177.156,105.819,180.336,109.542,183.448,113.605 M162.649,111.8v7.847h-7.419v13.433h10.306v7.386h-18.31v-48.88h18.31v7.378
			H155.23V111.8H162.649z M134.837,140.465l-7.771-25.472l-0.674-2.254h-0.447v2.254v25.472h-7.335v-48.88h7.114l7.772,25.467
			l0.68,2.266h0.439v-2.266V91.584h7.339v48.88H134.837z M103.573,140.971v-7.078c1.957-0.633,1.845-3.465,1.845-3.465v-28.803
			c0,0,0.112-2.836-1.845-3.468v-7.078c9.914,0.524,9.849,10.546,9.849,10.546v28.803
			C113.422,130.428,113.487,140.449,103.573,140.971 M100.08,101.625v28.803c0,0-0.092,2.492,1.512,3.316v7.203
			c-9.572-0.739-9.509-10.52-9.509-10.52v-28.803c0,0-0.063-9.784,9.509-10.528v7.208C99.987,99.132,100.08,101.625,100.08,101.625
			 M80.877,98.962v41.502h-8.014V98.962h-7.544v-7.378h23.113v7.378H80.877z M55.502,113.605c3.709,4.975,7.485,9.831,7.485,15.091
			c0,6.507-2.375,12.304-11.109,12.304c-10.303,0-11.633-6.978-11.633-14.233l7.848-0.659c0,4.052,0.445,8.309,3.785,8.309
			c2.366,0,3.255-2.333,3.255-5.394c0-3.253-3.416-7.176-6.448-11.309c-3.768-4.975-7.331-9.965-7.331-15.215
			c0-5.329,2.887-11.315,10.441-11.449c9.635-0.195,11.191,7.525,11.191,12.97l-7.854,0.664c0-3.251-0.517-7.052-3.187-7.052
			c-2.07,0.068-2.74,2.067-2.74,4.866C49.207,105.819,52.389,109.542,55.502,113.605 M35.948,140.465h-8.004v-48.88h8.004V140.465z
			 M11.484,99.063v-7.381c6.253,0.64,12.042,4.39,12.042,14.531c0,10.149-5.789,13.953-12.042,14.602v-7.35
			c3.266-0.469,3.961-2.374,3.961-6.987C15.445,101.867,14.75,99.642,11.484,99.063 M9.51,113.592v7.323H9.442v19.55h-7.99v-48.88
			h7.99H9.51V98.9c-0.021,0-0.042-0.006-0.068-0.006v14.711C9.468,113.605,9.489,113.592,9.51,113.592"/>
		<path d="M197.57,98.023c-0.645,0.65-1.449,0.979-2.412,0.979c-0.957,0-1.756-0.329-2.389-0.958
			c-0.631-0.643-0.957-1.427-0.957-2.395c0-0.958,0.326-1.76,0.979-2.403c0.648-0.654,1.445-0.979,2.408-0.979
			c0.961,0,1.758,0.321,2.395,0.957c0.635,0.64,0.953,1.435,0.953,2.396C198.547,96.585,198.229,97.376,197.57,98.023
			 M195.199,98.272c0.747,0,1.364-0.238,1.841-0.737c0.477-0.495,0.72-1.116,0.72-1.886s-0.243-1.402-0.729-1.908
			c-0.498-0.505-1.105-0.755-1.872-0.755c-0.74,0-1.358,0.25-1.84,0.733c-0.474,0.506-0.715,1.127-0.715,1.9
			c0,0.77,0.245,1.402,0.731,1.904C193.829,98.023,194.446,98.272,195.199,98.272 M193.8,97.376v-3.635h1.482
			c0.477,0,0.834,0.098,1.094,0.315c0.259,0.202,0.39,0.527,0.39,0.943c0,0.509-0.202,0.871-0.609,1.087l0.633,1.29h-1.098
			l-0.558-1.153h-0.29v1.153H193.8z M194.844,95.476h0.385c0.339,0,0.507-0.141,0.507-0.412c0-0.267-0.168-0.404-0.507-0.404h-0.385
			V95.476z"/>
	</g>
</g>
</svg>
