<?xml version="1.0" encoding="utf-8"?>
<!-- Generator: Adobe Illustrator 19.2.1, SVG Export Plug-In . SVG Version: 6.00 Build 0)  -->
<svg version="1.1" id="Layer_1" xmlns="http://www.w3.org/2000/svg" xmlns:xlink="http://www.w3.org/1999/xlink" x="0px" y="0px"
	 viewBox="0 0 200 200" style="enable-background:new 0 0 200 200;" xml:space="preserve">
<style type="text/css">
	.st0{fill:#FFFFFF;}
</style>
<g>
	<path class="st0" d="M62.3,98.9c-0.1,0.1-0.3,0.2-0.4,0.3c-0.1,0.1-0.2,0.3-0.3,0.4l-2.3,2.3c-0.2,0.2-0.4,0.4-0.6,0.6
		c-0.2,0.2-0.4,0.3-0.7,0.5c-0.2,0.1-0.3,0.1-0.4,0.1c-0.1,0-0.1-0.1-0.2-0.2s0-0.2,0.1-0.4s0.1-0.3,0.2-0.5c0.3-0.5,0.6-1,1-1.5
		c0.4-0.5,0.9-1.1,1.5-1.8c0.3-0.3,0.5-0.6,0.8-0.9s0.5-0.5,0.8-0.8c0.2-0.2,0.3-0.4,0.2-0.7c0-0.3-0.1-0.5-0.3-0.7
		c-0.2-0.2-0.5-0.3-0.7-0.3c-0.1,0-0.3,0.1-0.5,0.2c-0.2,0.1-0.3,0.3-0.4,0.4c-0.3-0.5-0.9-0.8-1.6-0.8c-0.5,0-0.9,0-1.4,0.2
		c-0.4,0.2-0.9,0.3-1.3,0.6c-0.9,0.5-1.8,1.2-2.5,2c-0.5,0.5-0.9,1-1.3,1.5c0,0,0,0-0.1,0c-0.1,0.1-0.2,0.3-0.4,0.4
		c-0.8,0.8-1.5,1.5-2,2c-0.5,0.5-1,0.9-1.6,1.2c-0.3,0.1-0.4,0.1-0.5,0c0-0.1,0-0.3,0.1-0.6s0.2-0.5,0.4-0.8
		c0.1-0.3,0.3-0.5,0.3-0.6c0.4-0.6,0.9-1.2,1.3-1.7s1-1.2,1.5-1.8c0.2-0.2,0.2-0.4,0.1-0.7c-0.1-0.3-0.3-0.5-0.5-0.6
		c-0.3-0.1-0.5-0.2-0.8-0.2c-0.3,0-0.5-0.1-0.8-0.2l-0.3-0.1c0.1-0.2,0.2-0.3,0.2-0.5c0.1-0.2,0.1-0.4,0.1-0.5
		c0-0.3-0.2-0.5-0.4-0.7c-0.2-0.2-0.4-0.3-0.7-0.2c-0.2,0-0.4,0.1-0.6,0.2c-0.2,0.1-0.3,0.3-0.4,0.5c-0.1,0.2-0.1,0.4-0.2,0.6
		s0,0.4,0,0.6c0,0.1-0.1,0.1-0.2,0.2c-0.1,0.1-0.1,0.1-0.2,0.2c-0.5,0.6-1,1.1-1.4,1.7c-0.5,0.5-1,1.1-1.5,1.6c0,0,0,0.1,0,0.1
		c0,0,0,0-0.1,0c-0.1,0.1-0.2,0.3-0.4,0.4l-2.3,2.3c-0.2,0.2-0.4,0.4-0.6,0.5c-0.2,0.2-0.4,0.3-0.7,0.4c-0.2,0.1-0.3,0.1-0.4,0.1
		c-0.1-0.1-0.1-0.2-0.1-0.3c0-0.1,0.1-0.3,0.1-0.4c0.1-0.1,0.1-0.3,0.2-0.4c0.3-0.6,0.6-1.1,1.1-1.7c0.4-0.5,0.9-1.1,1.4-1.7
		c0.3-0.3,0.5-0.6,0.8-0.9c0.3-0.3,0.5-0.5,0.8-0.8c0.1-0.1,0.2-0.2,0.2-0.3c0-0.1,0.1-0.2,0.1-0.3c0-0.3-0.1-0.5-0.3-0.7
		c-0.2-0.2-0.4-0.4-0.7-0.4c-0.2,0-0.3,0.1-0.5,0.2c-0.1,0.1-0.3,0.3-0.4,0.4l-2.2,2.4c-0.7,0.8-1.3,1.5-2,2.2s-1.4,1.3-2.2,1.9
		c-0.4,0.3-0.8,0.5-1,0.6c-0.2,0.1-0.4,0.1-0.4,0.1s-0.1-0.2,0-0.3c0.1-0.2,0.1-0.4,0.3-0.6c0.1-0.2,0.3-0.4,0.4-0.7
		c0.2-0.2,0.3-0.4,0.5-0.6c0.5-0.7,1.1-1.3,1.7-2c0.6-0.6,1.2-1.3,1.8-1.9c0.2-0.2,0.2-0.4,0.2-0.6c0-0.2-0.1-0.5-0.3-0.7
		s-0.5-0.4-0.8-0.4c-0.2,0-0.3,0.1-0.5,0.2c-0.1,0.1-0.3,0.3-0.4,0.4c-0.4,0.4-0.8,0.8-1.2,1.2c-0.4,0.5-0.9,1-1.3,1.5
		c-0.2,0.2-0.4,0.5-0.6,0.8c-0.1,0.1-0.1,0.1-0.2,0.2c-0.1,0.1-0.2,0.3-0.4,0.4c-0.6,0.6-1,1.1-1.3,1.4c-0.3,0.3-0.6,0.6-0.8,0.8
		c-0.1,0.1-0.2,0.2-0.4,0.3c-0.2,0.2-0.4,0.3-0.7,0.5c-0.2,0.1-0.4,0.2-0.6,0.2c-0.1,0-0.2-0.2-0.1-0.6c0.2-0.7,0.6-1.3,1.1-1.8
		c0.5-0.6,0.9-1.1,1.4-1.7c0.2-0.3,0.5-0.6,0.8-0.9c0.3-0.3,0.6-0.7,1-1.1c0.4-0.4,0.8-0.9,1.3-1.4s1.1-1.2,1.8-2
		c0.9-0.1,1.8-0.2,2.7-0.3s1.8-0.1,2.8-0.2c0.1,0,0.3,0,0.5,0s0.4-0.1,0.5-0.2c0.1-0.1,0.1-0.2,0.1-0.4c0-0.2,0.1-0.4,0.1-0.5
		s0-0.3-0.1-0.5c-0.1-0.1-0.2-0.2-0.3-0.3c-0.1,0-0.2,0-0.3,0c-0.1,0-0.2,0-0.3,0c-0.5,0-1,0.1-1.6,0.1s-1.2,0.1-1.9,0.2l1.4-1.4
		c0.1-0.1,0.2-0.2,0.3-0.3c0.1-0.1,0.2-0.2,0.2-0.4c0-0.2,0-0.5-0.2-0.7s-0.3-0.4-0.5-0.5c-0.1-0.1-0.2-0.1-0.4-0.1
		c-0.1,0-0.3,0-0.4,0.1c-0.1,0.1-0.2,0.2-0.4,0.3s-0.2,0.2-0.4,0.3c-0.5,0.5-1,0.9-1.5,1.4c-0.5,0.5-1,1-1.5,1.5
		c-0.7,0.1-1.3,0.2-1.7,0.2c-0.2,0-0.4,0.1-0.6,0.1c0.1-0.1,0.2-0.2,0.3-0.4c0.2-0.3,0.4-0.7,0.6-1s0.3-0.7,0.3-1.1
		c0-0.4,0-0.7-0.3-1.1c-0.2-0.3-0.5-0.5-0.8-0.6c-0.3-0.1-0.6-0.1-1-0.1c-0.3,0-0.7,0.1-1,0.2c-0.3,0.1-0.6,0.3-0.9,0.4
		c-0.7,0.4-1.3,0.9-1.9,1.4c-0.6,0.6-1.1,1.1-1.7,1.7c-0.5,0.5-1,1.2-1.6,1.9c-0.5,0.7-1.1,1.4-1.6,2.2c-0.5,0.8-1,1.6-1.4,2.4
		c-0.2,0.4-0.3,0.7-0.5,1c0,0-0.1,0-0.1,0.1c-0.1,0.1-0.2,0.3-0.4,0.4l-2.3,2.3c-0.2,0.2-0.4,0.4-0.6,0.5c-0.2,0.2-0.4,0.3-0.7,0.4
		c-0.2,0.1-0.3,0.1-0.4,0.1c-0.1-0.1-0.1-0.2-0.1-0.3c0-0.1,0.1-0.3,0.1-0.4c0.1-0.1,0.1-0.3,0.2-0.4c0.3-0.6,0.6-1.1,1.1-1.7
		c0.4-0.5,0.9-1.1,1.4-1.7c0.3-0.3,0.5-0.6,0.8-0.9c0.3-0.3,0.5-0.5,0.8-0.8c0.1-0.1,0.2-0.2,0.2-0.3c0-0.1,0.1-0.2,0.1-0.3
		c0-0.3-0.1-0.5-0.3-0.7c-0.2-0.2-0.4-0.4-0.7-0.4c-0.2,0-0.3,0.1-0.5,0.2c-0.1,0.1-0.3,0.3-0.4,0.4l-2.2,2.4
		c-0.7,0.8-1.3,1.5-2,2.2s-1.4,1.3-2.2,1.9c-0.4,0.3-0.8,0.5-1,0.6c-0.2,0.1-0.4,0.1-0.4,0.1s-0.1-0.2,0-0.3
		c0.1-0.2,0.1-0.4,0.3-0.6c0.1-0.2,0.3-0.4,0.4-0.7c0.2-0.2,0.3-0.4,0.5-0.6c0.5-0.7,1.1-1.3,1.7-2c0.6-0.6,1.2-1.3,1.8-1.9
		c0.2-0.2,0.2-0.4,0.2-0.6c0-0.2-0.1-0.5-0.3-0.7s-0.5-0.4-0.8-0.4c-0.2,0-0.3,0.1-0.5,0.2c-0.1,0.1-0.3,0.3-0.4,0.4
		c-0.4,0.4-0.8,0.8-1.2,1.2c-0.4,0.5-0.9,1-1.3,1.5c-0.2,0.2-0.4,0.5-0.6,0.8c-0.1,0.1-0.1,0.1-0.2,0.1c-0.1,0.1-0.2,0.3-0.4,0.4
		c-0.1,0.1-0.3,0.3-0.4,0.4c-0.1,0.1-0.3,0.2-0.4,0.3c-0.5,0.5-1.1,0.9-1.7,1.3c-0.6,0.4-1.2,0.7-1.8,1c-0.4,0.1-0.7,0.2-1.1,0.3
		c-0.4,0.1-0.7,0-1-0.1c-0.3-0.1-0.5-0.3-0.7-0.6c-0.2-0.3-0.2-0.7-0.2-1.2c0-0.4,0.1-0.7,0.2-1.1c0.1-0.3,0.2-0.7,0.4-1
		c0.3-0.6,0.6-1.2,1-1.8c0.4-0.6,0.8-1.1,1.2-1.7C7.9,95,8.4,94.5,8.9,94c0.5-0.5,1-1,1.5-1.5c0.5-0.5,1.1-0.9,1.7-1.3
		c0.6-0.4,1.2-0.7,1.9-1c0.4-0.1,0.7-0.2,1-0.3c0.3,0,0.5,0,0.7,0.1c0.1,0.1,0.2,0.3,0.1,0.6s-0.3,0.7-0.7,1.1
		c-0.2,0.3-0.4,0.5-0.6,0.8s-0.5,0.5-0.7,0.7c-0.1,0.1-0.3,0.2-0.4,0.3s-0.3,0.2-0.4,0.3c-0.1,0.1-0.2,0.2-0.4,0.3
		c-0.1,0.1-0.2,0.2-0.3,0.3c-0.1,0.3-0.1,0.6,0.2,0.8c0.2,0.2,0.5,0.4,0.8,0.4c0.2,0,0.3,0,0.5-0.1s0.3-0.2,0.4-0.3l0.8-0.6
		c0.3-0.2,0.5-0.5,0.7-0.7s0.5-0.5,0.7-0.8c0.2-0.2,0.4-0.5,0.6-0.8c0.2-0.3,0.4-0.6,0.5-0.9s0.2-0.6,0.3-0.9s0-0.7-0.1-1
		c-0.2-0.5-0.5-0.9-1-1.2c-0.5-0.2-1-0.3-1.5-0.3c-0.7,0-1.4,0.2-2,0.5c-0.6,0.3-1.3,0.6-1.8,1c-0.6,0.4-1.1,0.8-1.7,1.2
		c-0.5,0.4-1.1,0.9-1.5,1.4s-1,1-1.4,1.5c-0.4,0.5-0.9,1.1-1.3,1.7c-0.4,0.6-0.8,1.2-1.2,1.8s-0.6,1.3-0.8,2
		c-0.2,0.7-0.3,1.3-0.3,2.1c0,0.7,0.2,1.4,0.6,2c0.7,1,1.7,1.5,3,1.4c0.6,0,1.3-0.2,1.9-0.4c0.6-0.3,1.2-0.5,1.7-0.9
		c0.2-0.1,0.4-0.3,0.7-0.5c0,0.3,0.1,0.7,0.2,1c0.2,0.3,0.4,0.5,0.7,0.6c0.3,0.1,0.6,0.2,0.9,0.2c0.4,0,0.7-0.1,1-0.2
		c0.3-0.1,0.6-0.3,0.8-0.4c0.5-0.3,1-0.7,1.4-1.1c0,0.1,0,0.3,0.1,0.4c0,0.1,0.1,0.3,0.2,0.4c0.2,0.3,0.4,0.5,0.7,0.6
		s0.6,0.2,0.9,0.2c0.3,0,0.6-0.1,0.9-0.2s0.5-0.2,0.8-0.4s0.5-0.3,0.7-0.5s0.4-0.4,0.6-0.6c0.3-0.2,0.5-0.5,0.8-0.7
		c0,0.3,0,0.5,0.1,0.7c0.1,0.4,0.3,0.7,0.5,0.9s0.6,0.4,1,0.5c0.3,0.1,0.6,0.1,1.1,0.1c0.4,0,0.9-0.2,1.5-0.4
		c0.6-0.3,1.2-0.7,1.9-1.2c0,0,0,0,0,0c0,0.5,0.2,0.9,0.5,1.2c0.4,0.4,0.9,0.6,1.4,0.5c0.7,0,1.3-0.3,1.8-0.6
		c0.3-0.2,0.6-0.5,0.9-0.7c0,0.2,0.1,0.3,0.2,0.5c0.2,0.3,0.4,0.5,0.7,0.6c0.3,0.1,0.6,0.2,0.9,0.2c0.4,0,0.7-0.1,1-0.2
		c0.3-0.1,0.6-0.3,0.8-0.4c0.5-0.3,1-0.7,1.4-1.1c0,0.1,0,0.3,0.1,0.4c0,0.1,0.1,0.3,0.2,0.4c0.2,0.3,0.4,0.5,0.7,0.6
		s0.6,0.2,0.9,0.2c0.3,0,0.6-0.1,0.9-0.2s0.5-0.2,0.8-0.4s0.5-0.3,0.7-0.5s0.4-0.4,0.6-0.6c0.4-0.4,0.8-0.7,1.2-1.1
		c0.4-0.4,0.8-0.8,1.2-1.2c0.1-0.1,0.2-0.2,0.3-0.4c0,0,0,0,0,0c0.1,0,0.1-0.1,0.2-0.1c0.1-0.1,0.2-0.2,0.3-0.4c0.4-0.4,0.7-0.7,1-1
		c0.3-0.3,0.5-0.5,0.7-0.8c0.2-0.2,0.4-0.4,0.5-0.6c0.1-0.2,0.3-0.3,0.4-0.5c0.1,0.1,0.2,0.1,0.4,0.2c0.2,0.1,0.3,0.1,0.4,0.2
		c-0.1,0.2-0.3,0.3-0.4,0.5S48.1,98,48,98.2c-0.5,0.6-0.9,1.1-1.3,1.8c-0.4,0.6-0.7,1.3-0.9,2c-0.1,0.3-0.1,0.7-0.1,1
		s0.1,0.6,0.3,0.9c0.1,0.2,0.4,0.4,0.6,0.6c0.3,0.2,0.6,0.2,1,0.2c0.3,0,0.6-0.1,0.8-0.2c0.3-0.1,0.5-0.2,0.8-0.4s0.5-0.3,0.7-0.5
		c0.2-0.2,0.4-0.4,0.6-0.5c0,0.2,0.1,0.4,0.1,0.5c0.1,0.4,0.4,0.6,0.8,0.8c0.4,0.2,0.9,0.3,1.3,0.2s0.9-0.2,1.4-0.4
		c0.3-0.2,0.5-0.3,0.8-0.5c0.3-0.2,0.5-0.4,0.8-0.6c0,0.3,0.1,0.5,0.2,0.7c0.2,0.3,0.4,0.5,0.8,0.7c0.3,0.1,0.7,0.2,1.1,0.2
		c0.6-0.1,1.1-0.3,1.6-0.6s0.9-0.7,1.3-1.1c0.3-0.3,0.5-0.5,0.9-0.9s0.8-0.8,1.4-1.5c0.1-0.1,0.2-0.2,0.3-0.4s0.2-0.3,0.2-0.4
		c0-0.3-0.1-0.6-0.3-0.7S62.6,98.8,62.3,98.9z M27.1,95.2c0.3-0.5,0.7-0.9,1.1-1.4c0.5-0.7,1.1-1.3,1.7-2c0.6-0.6,1.3-1.2,2-1.7
		c0.1-0.1,0.2-0.2,0.4-0.2c0.2-0.1,0.3-0.2,0.5-0.2s0.2-0.1,0.3-0.1c0.1,0,0.1,0.1,0,0.2c-0.1,0.4-0.3,0.7-0.6,1
		c-0.2,0.3-0.5,0.6-0.7,0.9c-0.6,0.7-1.3,1.4-2,2c-0.7,0.6-1.4,1.2-2.2,1.8c-0.3,0.2-0.5,0.4-0.8,0.6c-0.3,0.2-0.5,0.4-0.8,0.5
		C26.4,96.2,26.7,95.7,27.1,95.2z M29.2,99.1c-0.1,0.1-0.2,0.2-0.3,0.4c-0.6,0.6-1.1,1.1-1.6,1.5s-1,0.8-1.4,1.1
		c-0.4,0.3-0.8,0.5-1.2,0.6c-0.3,0.1-0.6,0.2-0.8,0.1c-0.2-0.1-0.4-0.3-0.4-0.8c-0.1-0.4,0.1-0.9,0.4-1.6c0.1-0.2,0.2-0.3,0.3-0.5
		s0.2-0.4,0.4-0.5c0.4-0.2,0.8-0.4,1.3-0.7s0.9-0.6,1.3-0.9c0.4-0.3,0.9-0.6,1.3-1c0.4-0.3,0.9-0.7,1.3-1c0.6-0.5,1.2-1.1,1.8-1.6
		c0.1-0.1,0.3-0.3,0.4-0.4c0,0,0,0,0,0c0.1,0,0.3,0,0.4-0.1l1.6-0.1c-0.7,0.8-1.4,1.5-2.1,2.3c-0.7,0.8-1.4,1.6-2.1,2.4
		C29.6,98.7,29.4,98.9,29.2,99.1C29.2,99.1,29.2,99.1,29.2,99.1z M54.7,101.6c-0.3,0.2-0.6,0.5-1,0.8c-0.4,0.3-0.8,0.5-1.2,0.5
		c-0.1,0-0.2-0.1-0.2-0.2c0-0.1,0-0.2,0-0.4c0-0.1,0.1-0.3,0.2-0.4c0.1-0.1,0.1-0.2,0.2-0.3c0.3-0.7,0.8-1.4,1.5-2.1s1.3-1.3,2-1.9
		c0.1-0.1,0.3-0.2,0.6-0.4s0.6-0.4,1-0.5c0.3-0.1,0.6-0.2,0.9-0.2s0.4,0.2,0.3,0.5c-0.7,0.8-1.3,1.5-2,2.3S55.5,100.9,54.7,101.6z"
		/>
	<path class="st0" d="M83.4,93.4c0.2-0.5,0.5-1,0.7-1.5c0.2-0.6,0.2-1.1,0.1-1.7c-0.1-0.3-0.3-0.7-0.5-0.9s-0.5-0.5-0.8-0.7
		c-0.6-0.3-1.3-0.4-2-0.3s-1.4,0.3-2,0.5c-0.7,0.3-1.4,0.7-2.1,1.1c-0.7,0.4-1.3,0.9-1.9,1.4c-0.6,0.5-1.3,1.1-1.8,1.7
		s-1.2,1.2-1.7,1.9c-0.5,0.6-1,1.3-1.5,1.9c-0.5,0.7-0.9,1.4-1.3,2.1c-0.2,0.3-0.3,0.7-0.5,1.1s-0.2,0.8-0.3,1.2
		c0,0.4,0,0.8,0.1,1.2c0.1,0.4,0.3,0.7,0.6,1.1c0.3,0.3,0.6,0.5,0.9,0.7c0.3,0.1,0.7,0.2,1.1,0.2c0.4,0,0.8,0,1.2-0.1
		c0.4-0.1,0.8-0.2,1.1-0.4c0.8-0.3,1.5-0.8,2.1-1.3c0.7-0.5,1.3-1,1.9-1.6c0.6-0.6,1.3-1.1,1.9-1.7s1.2-1.2,1.7-1.9
		c0.5-0.6,1.1-1.3,1.6-2C82.6,94.9,83,94.2,83.4,93.4z M80.5,94.4c-0.4,0.5-0.8,1-1.2,1.5c-0.4,0.5-0.8,0.9-1.3,1.4
		c-0.4,0.5-0.9,0.9-1.3,1.4c-0.5,0.4-0.9,0.9-1.4,1.3c-0.5,0.4-1,0.8-1.4,1.2c-0.5,0.4-1,0.7-1.5,1c-0.3,0.1-0.6,0.3-0.8,0.4
		c-0.3,0.1-0.6,0.2-0.9,0.2c-0.3,0-0.6,0-0.7-0.3c-0.1-0.2-0.2-0.5-0.2-0.8c0-0.6,0.2-1.2,0.5-1.7c0.3-0.6,0.6-1.1,0.9-1.6
		c0.3-0.5,0.7-1,1.1-1.5c0.4-0.5,0.8-1,1.2-1.5c0.4-0.5,0.9-0.9,1.3-1.4c0.4-0.5,0.9-0.9,1.4-1.3c0.5-0.4,1-0.8,1.5-1.2
		c0.5-0.4,1-0.7,1.6-1c0.3-0.1,0.6-0.3,0.8-0.4c0.3-0.1,0.6-0.2,0.9-0.3c0.1,0,0.2,0,0.4-0.1c0.2,0,0.3,0,0.5,0
		c0.1,0,0.3,0.1,0.4,0.2c0.1,0.1,0.2,0.2,0.2,0.4c0,0.2,0,0.4,0,0.7c-0.1,0.3-0.1,0.5-0.2,0.6c-0.2,0.5-0.5,1-0.7,1.4
		S80.8,94,80.5,94.4z"/>
	<path class="st0" d="M99.7,96.9c0.1-0.1,0.2-0.2,0.3-0.3c0.1-0.1,0.2-0.2,0.2-0.4c0-0.3-0.1-0.5-0.3-0.7c-0.2-0.2-0.4-0.4-0.7-0.4
		c-0.1,0-0.3,0-0.4,0.1c-0.1,0.1-0.3,0.3-0.7,0.5c-0.1-0.3-0.4-0.4-0.6-0.6C97.3,95,97,95,96.7,94.9c-0.7-0.1-1.4,0.1-2.2,0.4
		c-0.7,0.3-1.4,0.8-2.1,1.3c-0.7,0.5-1.4,1.1-2,1.8c-0.2,0.2-0.4,0.5-0.6,0.7c0,0,0,0-0.1,0c-0.1,0.1-0.2,0.3-0.4,0.4
		c-0.8,0.8-1.5,1.5-2,2c-0.5,0.5-1,0.9-1.6,1.2c-0.3,0.1-0.4,0.1-0.5,0c0-0.1,0-0.3,0.1-0.6s0.2-0.5,0.4-0.8
		c0.1-0.3,0.3-0.5,0.3-0.6c0.4-0.6,0.9-1.2,1.3-1.7s1-1.2,1.5-1.8c0.2-0.2,0.2-0.4,0.1-0.7c-0.1-0.3-0.3-0.5-0.5-0.6
		c-0.3-0.1-0.5-0.2-0.8-0.2c-0.3,0-0.5-0.1-0.8-0.2l-0.3-0.1c0.1-0.2,0.2-0.3,0.2-0.5c0.1-0.2,0.1-0.4,0.1-0.5
		c0-0.3-0.2-0.5-0.4-0.7c-0.2-0.2-0.4-0.3-0.7-0.2c-0.2,0-0.4,0.1-0.6,0.2c-0.2,0.1-0.3,0.3-0.4,0.5c-0.1,0.2-0.1,0.4-0.2,0.6
		s0,0.4,0,0.6c0,0.1-0.1,0.1-0.2,0.2c-0.1,0.1-0.1,0.1-0.2,0.2c-0.5,0.6-1,1.1-1.4,1.7c-0.5,0.5-1,1.1-1.5,1.6
		c-0.1,0.2-0.2,0.3-0.2,0.5s0.1,0.4,0.2,0.5s0.3,0.3,0.4,0.3c0.2,0.1,0.4,0,0.6-0.1c0.1-0.1,0.3-0.2,0.4-0.3s0.2-0.2,0.3-0.4
		c0.4-0.4,0.7-0.7,1-1c0.3-0.3,0.5-0.5,0.7-0.8c0.2-0.2,0.4-0.4,0.5-0.6c0.1-0.2,0.3-0.3,0.4-0.5c0.1,0.1,0.2,0.1,0.4,0.2
		c0.2,0.1,0.3,0.1,0.4,0.2c-0.1,0.2-0.3,0.3-0.4,0.5s-0.2,0.3-0.4,0.5c-0.5,0.6-0.9,1.1-1.3,1.8c-0.4,0.6-0.7,1.3-0.9,2
		c-0.1,0.3-0.1,0.7-0.1,1s0.1,0.6,0.3,0.9c0.1,0.2,0.4,0.4,0.6,0.6c0.3,0.2,0.6,0.2,1,0.2c0.3,0,0.6-0.1,0.8-0.2
		c0.3-0.1,0.5-0.2,0.8-0.4s0.5-0.3,0.7-0.5c0.2-0.1,0.3-0.3,0.5-0.4c0,0.1,0,0.2,0.1,0.3c0.1,0.4,0.4,0.8,0.8,1
		c0.3,0.2,0.7,0.2,1.1,0.2c0.4,0,0.7-0.1,1.1-0.2c-0.9,1.2-1.7,2.5-2.5,3.9c-0.2,0.3-0.4,0.6-0.5,0.9s-0.3,0.6-0.5,0.9
		c-0.1,0.1-0.2,0.3-0.2,0.4c-0.1,0.1-0.1,0.3-0.2,0.4c-0.1,0.3-0.1,0.5,0,0.8c0.1,0.2,0.3,0.4,0.6,0.5c0.3,0.1,0.5,0.1,0.8,0
		c0.1-0.1,0.2-0.1,0.3-0.2s0.1-0.2,0.2-0.4c0.1-0.1,0.2-0.3,0.2-0.5c0.1-0.2,0.2-0.3,0.3-0.5c0.4-0.7,0.7-1.3,1.1-1.9
		c0.4-0.6,0.8-1.3,1.2-1.9c0.4-0.6,0.9-1.3,1.3-1.9c0.5-0.6,0.9-1.3,1.4-1.9c0.5-0.6,0.9-1.2,1.4-1.8c0.5-0.6,1-1.2,1.5-1.8
		c0.2-0.3,0.5-0.6,0.8-0.9S99.1,97.6,99.7,96.9z M96.8,97.1c-0.8,0.9-1.7,1.9-2.5,2.8s-1.8,1.8-2.9,2.5c-0.7,0.4-1.1,0.6-1.3,0.5
		s-0.1-0.5,0.3-1.2c0.4-0.7,1-1.3,1.5-2c0.6-0.6,1.2-1.2,2-1.8c0.2-0.1,0.4-0.3,0.6-0.4s0.5-0.3,0.7-0.5c0.2-0.1,0.5-0.3,0.7-0.4
		c0.2-0.1,0.5-0.1,0.7-0.1c0.1,0,0.2,0.1,0.2,0.2C96.9,96.8,96.9,97,96.8,97.1z"/>
	<path class="st0" d="M125.7,93.2c0.3,0,0.6-0.1,0.8-0.4c0.2-0.2,0.4-0.5,0.4-0.8c0-0.3-0.1-0.6-0.4-0.8s-0.5-0.4-0.8-0.4
		c-0.3,0-0.6,0.1-0.8,0.4c-0.2,0.2-0.4,0.5-0.4,0.8c0,0.3,0.1,0.6,0.4,0.8C125.1,93.1,125.4,93.2,125.7,93.2z"/>
	<path class="st0" d="M157.8,93.2c0.3,0,0.6-0.1,0.8-0.4c0.2-0.2,0.4-0.5,0.4-0.8c0-0.3-0.1-0.6-0.4-0.8s-0.5-0.4-0.8-0.4
		c-0.3,0-0.6,0.1-0.8,0.4c-0.2,0.2-0.4,0.5-0.4,0.8c0,0.3,0.1,0.6,0.4,0.8C157.2,93.1,157.5,93.2,157.8,93.2z"/>
	<path class="st0" d="M196.8,88.5c-0.2-0.3-0.5-0.5-0.8-0.6c-0.3-0.1-0.6-0.1-1-0.1c-0.3,0-0.7,0.1-1,0.2c-0.3,0.1-0.6,0.3-0.9,0.4
		c-0.7,0.4-1.3,0.9-1.9,1.4c-0.6,0.6-1.1,1.1-1.7,1.7c-0.5,0.5-1,1.2-1.6,1.9s-1.1,1.4-1.6,2.2c-0.5,0.8-1,1.6-1.4,2.4
		c-0.2,0.4-0.4,0.7-0.5,1.1c0,0-0.1,0-0.1,0.1c-0.1,0.1-0.2,0.3-0.3,0.4l-2.3,2.3c-0.2,0.2-0.4,0.4-0.6,0.6
		c-0.2,0.2-0.4,0.3-0.7,0.5c-0.2,0.1-0.3,0.1-0.4,0.1c-0.1,0-0.1-0.1-0.2-0.2c0-0.1,0-0.2,0.1-0.4c0-0.2,0.1-0.3,0.2-0.5
		c0.3-0.5,0.6-1,1-1.5c0.4-0.5,0.9-1.1,1.5-1.8c0.3-0.3,0.5-0.6,0.8-0.9s0.5-0.5,0.8-0.8c0.2-0.2,0.3-0.4,0.2-0.7
		c0-0.3-0.1-0.5-0.3-0.7c-0.2-0.2-0.5-0.3-0.7-0.3c-0.1,0-0.3,0.1-0.5,0.2c-0.2,0.1-0.3,0.3-0.4,0.4c-0.3-0.5-0.9-0.8-1.6-0.8
		c-0.5,0-0.9,0-1.4,0.2c-0.4,0.2-0.9,0.3-1.3,0.6c-0.9,0.5-1.8,1.2-2.5,2c-0.5,0.5-0.9,1-1.3,1.5c0,0-0.1,0-0.1,0.1
		c-0.1,0.1-0.2,0.3-0.4,0.4l-0.8,0.8c-0.2,0.2-0.5,0.4-0.7,0.7c-0.2,0.2-0.5,0.5-0.8,0.7c-0.3,0.2-0.5,0.4-0.8,0.6
		c-0.3,0.2-0.5,0.3-0.8,0.4c-0.2,0.1-0.3,0.1-0.3,0c0-0.1,0-0.2,0.1-0.3c0.1-0.1,0.1-0.3,0.2-0.4c0.1-0.2,0.2-0.3,0.3-0.4
		c0.5-0.6,1-1.2,1.6-1.8c0.6-0.6,1.1-1.2,1.7-1.8c0.1-0.2,0.3-0.4,0.4-0.6c0.1-0.2,0.2-0.4,0.3-0.7c0.1-0.2,0.1-0.5,0.1-0.7
		c0-0.2-0.1-0.5-0.3-0.7c-0.1-0.2-0.3-0.4-0.6-0.5c-0.2-0.1-0.6-0.1-1-0.1c-0.6,0.1-1.1,0.3-1.6,0.5c-0.5,0.2-1,0.5-1.4,0.8
		c0-0.3-0.2-0.6-0.5-0.8c-0.3-0.2-0.6-0.3-0.9-0.2c-0.1,0-0.2,0.1-0.3,0.2c-0.1,0.1-0.2,0.1-0.2,0.2c-0.7,0.7-1.2,1.4-1.7,2
		c-0.5,0.5-0.8,1-1.2,1.5c-0.1,0.1-0.2,0.1-0.3,0.2c-0.5,0.5-1.1,0.7-1.9,0.7l0.4-0.7c0.1-0.3,0.3-0.6,0.4-1
		c0.1-0.4,0.2-0.7,0.2-1.1c0-0.4,0-0.7-0.2-1.1c-0.1-0.3-0.4-0.6-0.7-0.8c-0.5-0.3-1.1-0.4-1.8-0.3c-0.6,0.1-1.2,0.3-1.8,0.6
		c-0.9,0.5-1.8,1.1-2.5,2c-0.4,0.5-0.8,1.1-1.2,1.6c0,0-0.1,0-0.1,0.1c-0.1,0.1-0.2,0.3-0.4,0.4c-0.6,0.6-1.1,1.1-1.4,1.4
		c-0.3,0.3-0.6,0.6-0.9,0.8c-0.5,0.4-0.8,0.7-1.1,0.8c-0.3,0.1-0.4,0.1-0.5-0.1c-0.1-0.1,0-0.4,0.1-0.7c0.1-0.3,0.4-0.8,0.7-1.2
		c0.5-0.7,1-1.3,1.6-2c0.6-0.6,1.1-1.2,1.8-1.9c0.1-0.1,0.2-0.2,0.2-0.3c0-0.1,0.1-0.2,0.1-0.3c0-0.3-0.1-0.5-0.3-0.7
		c-0.2-0.2-0.4-0.4-0.7-0.4c-0.2,0-0.3,0.1-0.5,0.2c-0.1,0.1-0.3,0.3-0.4,0.4c-0.3,0.3-0.6,0.6-0.8,0.9c-0.3,0.3-0.5,0.6-0.8,0.9
		c-0.4,0.5-0.8,1-1.2,1.5c-0.1,0.1-0.2,0.1-0.3,0.2c-0.1,0.2-0.3,0.3-0.4,0.4c-1,0.9-1.8,1.6-2.6,2.1s-1.4,0.8-2.1,1
		c-0.2,0.1-0.5,0.1-0.8,0.2s-0.6,0-0.8-0.1c-0.3-0.1-0.4-0.4-0.4-0.6c0-0.3,0-0.5,0.1-0.8c0.1-0.3,0.2-0.6,0.4-0.9
		c0.2-0.3,0.3-0.5,0.5-0.8c0.5-0.7,1.1-1.3,1.7-1.8c0.1-0.1,0.2-0.2,0.5-0.4c0.2-0.2,0.5-0.4,0.7-0.5c0.3-0.2,0.5-0.3,0.8-0.5
		c0.3-0.1,0.4-0.2,0.5-0.1c0.1,0,0.1,0.1,0,0.2s-0.1,0.2-0.3,0.4c-0.1,0.2-0.3,0.3-0.5,0.5c-0.2,0.2-0.4,0.3-0.6,0.5
		c-0.1,0.1-0.2,0.2-0.3,0.2c-0.1,0.1-0.2,0.2-0.2,0.3c-0.1,0.1-0.1,0.3-0.1,0.4s0.1,0.3,0.1,0.4c0.1,0.2,0.2,0.3,0.3,0.4
		s0.3,0.2,0.5,0.2c0.2,0,0.4,0,0.5-0.2s0.3-0.3,0.4-0.4c0.2-0.2,0.3-0.3,0.5-0.5c0.2-0.2,0.3-0.4,0.5-0.6c0.1-0.2,0.3-0.3,0.4-0.5
		c0.1-0.2,0.2-0.4,0.3-0.6c0.1-0.2,0.1-0.4,0.2-0.7s0-0.4-0.1-0.7c-0.1-0.4-0.4-0.7-0.7-0.8c-0.4-0.1-0.7-0.2-1.1-0.3
		c-0.5,0-1,0-1.5,0.2c-0.5,0.2-0.9,0.4-1.3,0.7c-0.8,0.5-1.5,1.1-2.1,1.9c-0.4,0.4-0.8,0.9-1.1,1.4c0,0-0.1,0-0.1,0.1
		c-0.1,0.1-0.2,0.3-0.3,0.4l-2.3,2.3c-0.2,0.2-0.4,0.4-0.6,0.6c-0.2,0.2-0.4,0.3-0.7,0.5c-0.2,0.1-0.3,0.1-0.4,0.1
		c-0.1,0-0.1-0.1-0.2-0.2c0-0.1,0-0.2,0.1-0.4c0-0.2,0.1-0.3,0.2-0.5c0.3-0.5,0.6-1,1-1.5c0.4-0.5,0.9-1.1,1.5-1.8
		c0.3-0.3,0.5-0.6,0.8-0.9s0.5-0.5,0.8-0.8c0.2-0.2,0.3-0.4,0.2-0.7c0-0.3-0.1-0.5-0.3-0.7c-0.2-0.2-0.5-0.3-0.7-0.3
		c-0.1,0-0.3,0.1-0.5,0.2c-0.2,0.1-0.3,0.3-0.4,0.4c-0.3-0.5-0.9-0.8-1.6-0.8c-0.5,0-0.9,0-1.4,0.2c-0.4,0.2-0.9,0.3-1.3,0.6
		c-0.9,0.5-1.8,1.2-2.5,2c-0.5,0.5-0.9,1-1.3,1.5c-0.1,0.1-0.1,0.1-0.2,0.2c-0.1,0.1-0.2,0.2-0.3,0.3c-0.8,0.8-1.4,1.4-2,1.9
		c-0.5,0.5-1,0.9-1.6,1.2c-0.2,0.1-0.5,0.2-0.7,0.3c-0.2,0-0.5,0-0.8-0.2c-0.2-0.1-0.3-0.2-0.5-0.3c-0.1-0.1-0.3-0.2-0.4-0.3
		c0.2-0.2,0.5-0.4,0.8-0.6c0.3-0.2,0.6-0.5,1.1-0.9c0.5-0.4,1.1-0.9,1.8-1.4c0.8-0.6,1.7-1.3,2.9-2.2c0.1-0.1,0.3-0.2,0.5-0.4
		s0.3-0.3,0.3-0.5c0-0.2-0.1-0.4-0.2-0.6c-0.1-0.2-0.3-0.4-0.5-0.5c-0.2-0.1-0.3-0.1-0.5-0.2c-0.1,0-0.3,0-0.5,0.1
		c-0.5,0.3-1.1,0.5-1.7,0.6c-0.6,0.1-1.3,0.2-1.9,0.2c-0.2,0-0.5,0-0.7,0c-0.3,0-0.5,0-0.7-0.1c-0.1-0.1-0.2-0.2-0.4-0.2
		c-0.2,0-0.3,0-0.5,0c-0.2,0-0.3,0.1-0.4,0.2c-0.1,0.1-0.2,0.3-0.2,0.5c0,0.1-0.1,0.2-0.1,0.3c0,0.1-0.1,0.2-0.1,0.2
		c-0.5,0.9-1.1,1.7-1.8,2.4c0,0,0,0,0,0.1c0,0-0.1,0-0.1,0.1c-0.1,0.1-0.2,0.3-0.4,0.4c-0.6,0.6-1.1,1.1-1.4,1.4
		c-0.3,0.3-0.6,0.6-0.9,0.8c-0.5,0.4-0.8,0.7-1.1,0.8c-0.3,0.1-0.4,0.1-0.5-0.1c-0.1-0.1,0-0.4,0.1-0.7c0.1-0.3,0.4-0.8,0.7-1.2
		c0.5-0.7,1-1.3,1.6-2c0.6-0.6,1.1-1.2,1.8-1.9c0.1-0.1,0.2-0.2,0.2-0.3c0-0.1,0.1-0.2,0.1-0.3c0-0.3-0.1-0.5-0.3-0.7
		c-0.2-0.2-0.4-0.4-0.7-0.4c-0.2,0-0.3,0.1-0.5,0.2c-0.1,0.1-0.3,0.3-0.4,0.4c-0.3,0.3-0.6,0.6-0.8,0.9c-0.3,0.3-0.5,0.6-0.8,0.9
		c-0.4,0.5-0.9,1.1-1.3,1.6c-0.1,0.1-0.1,0.1-0.2,0.1c-0.1,0.1-0.2,0.3-0.4,0.4l-0.8,0.8c-0.2,0.2-0.5,0.4-0.7,0.7
		c-0.2,0.2-0.5,0.5-0.8,0.7c-0.3,0.2-0.5,0.4-0.8,0.6c-0.3,0.2-0.5,0.3-0.8,0.4c-0.2,0.1-0.3,0.1-0.3,0c0-0.1,0-0.2,0.1-0.3
		c0.1-0.1,0.1-0.3,0.2-0.4c0.1-0.2,0.2-0.3,0.3-0.4c0.5-0.6,1-1.2,1.6-1.8c0.6-0.6,1.1-1.2,1.7-1.8c0.1-0.2,0.3-0.4,0.4-0.6
		c0.1-0.2,0.2-0.4,0.3-0.7c0.1-0.2,0.1-0.5,0.1-0.7c0-0.2-0.1-0.5-0.3-0.7c-0.1-0.2-0.3-0.4-0.6-0.5c-0.2-0.1-0.6-0.1-1-0.1
		c-0.6,0.1-1.1,0.3-1.6,0.5c-0.5,0.2-1,0.5-1.4,0.8c0-0.3-0.2-0.6-0.5-0.8c-0.3-0.2-0.6-0.3-0.9-0.2c-0.1,0-0.2,0.1-0.3,0.2
		c-0.1,0.1-0.2,0.1-0.2,0.2c-0.7,0.7-1.2,1.4-1.7,2c-0.5,0.6-0.9,1.1-1.2,1.6c0,0-0.1,0.1-0.1,0.1c-0.1,0.1-0.2,0.3-0.3,0.4
		l-2.3,2.3c-0.2,0.2-0.4,0.4-0.6,0.6c-0.2,0.2-0.4,0.3-0.7,0.5c-0.2,0.1-0.3,0.1-0.4,0.1c-0.1,0-0.1-0.1-0.2-0.2s0-0.2,0.1-0.4
		s0.1-0.3,0.2-0.5c0.3-0.5,0.6-1,1-1.5s0.9-1.1,1.5-1.8c0.3-0.3,0.5-0.6,0.8-0.9s0.5-0.5,0.8-0.8c0.2-0.2,0.3-0.4,0.2-0.7
		c0-0.3-0.1-0.5-0.3-0.7c-0.2-0.2-0.5-0.3-0.7-0.3c-0.1,0-0.3,0.1-0.5,0.2s-0.3,0.3-0.4,0.4c-0.3-0.5-0.9-0.8-1.6-0.8
		c-0.5,0-0.9,0-1.4,0.2c-0.4,0.2-0.9,0.3-1.3,0.6c-0.9,0.5-1.8,1.2-2.5,2c-0.8,0.8-1.4,1.6-2,2.5c-0.2,0.3-0.3,0.6-0.5,1
		c-0.2,0.4-0.3,0.8-0.3,1.2c0,0.4,0,0.8,0.1,1.2c0.1,0.4,0.4,0.6,0.8,0.8c0.4,0.2,0.9,0.3,1.3,0.2s0.9-0.2,1.4-0.4
		c0.3-0.2,0.5-0.3,0.8-0.5s0.5-0.4,0.8-0.6c0,0.3,0.1,0.5,0.2,0.7c0.2,0.3,0.4,0.5,0.8,0.7c0.3,0.1,0.7,0.2,1.1,0.2
		c0.6-0.1,1.1-0.3,1.6-0.6c0.1-0.1,0.2-0.2,0.4-0.3c0.1,0.2,0.2,0.3,0.4,0.4c0.3,0.1,0.6,0.2,0.8,0.1c0.1-0.1,0.2-0.1,0.3-0.3
		s0.1-0.2,0.2-0.4c0.2-0.3,0.4-0.6,0.7-0.9c0.2-0.3,0.5-0.7,0.8-1c0.3-0.3,0.5-0.6,0.8-0.9c0.3-0.3,0.5-0.6,0.7-0.8
		c0.4-0.4,0.8-0.7,1.2-1s0.8-0.6,1.2-1c0.4-0.3,0.7-0.5,1.1-0.7c0.4-0.2,0.8-0.4,1.2-0.5c0.2-0.1,0.3-0.1,0.3,0.1
		c0,0.1-0.1,0.3-0.3,0.5s-0.3,0.4-0.5,0.6c-0.2,0.2-0.3,0.3-0.4,0.4c-0.5,0.5-1.1,1.1-1.6,1.7c-0.5,0.6-1,1.2-1.3,1.9
		c-0.1,0.3-0.2,0.6-0.3,1c0,0.3,0,0.7,0.1,0.9s0.3,0.5,0.6,0.7c0.3,0.2,0.6,0.3,1,0.2c0.7,0,1.3-0.2,1.8-0.5c0.5-0.3,1-0.7,1.5-1.1
		c0,0,0,0,0,0c0,0.3,0.1,0.6,0.2,0.8c0.2,0.3,0.4,0.5,0.7,0.7c0.3,0.1,0.6,0.2,1,0.2c0.5,0,1-0.2,1.4-0.4c0.4-0.3,0.9-0.7,1.5-1.2
		c0.3-0.3,0.5-0.5,0.8-0.8c0.3-0.3,0.5-0.5,0.8-0.8l0.8-0.8c0.1-0.1,0.2-0.2,0.4-0.4c0,0,0.1-0.1,0.1-0.1c0.4-0.4,0.7-0.8,1-1.2
		c0.3-0.5,0.7-1,1.1-1.7c0.5,0.1,1,0,1.4,0c0.5-0.1,1-0.2,1.4-0.3c-1.1,0.9-2.2,1.7-3.1,2.4c-0.9,0.7-1.8,1.4-2.7,2.2l-1.1,1
		c-0.1,0.1-0.2,0.3-0.3,0.5c-0.1,0.2-0.1,0.4-0.1,0.5s0.1,0.3,0.2,0.5c0.1,0.1,0.3,0.2,0.5,0.3s0.4,0,0.5,0c0.1-0.1,0.3-0.2,0.4-0.3
		c0.1-0.1,0.2-0.2,0.2-0.2c0.1-0.1,0.2-0.2,0.3-0.2c0.1-0.1,0.2-0.1,0.3-0.1s0.2,0,0.4,0c0.2,0.1,0.4,0.2,0.5,0.4
		c0.2,0.1,0.3,0.3,0.5,0.4c0.5,0.3,1,0.5,1.5,0.5c0.5,0,1-0.1,1.4-0.4c0.4-0.3,0.8-0.6,1.2-0.9c0.2-0.1,0.4-0.3,0.6-0.5
		c0,0.2,0,0.5,0.1,0.7c0.1,0.4,0.4,0.6,0.8,0.8c0.4,0.2,0.9,0.3,1.3,0.2s0.9-0.2,1.4-0.4c0.3-0.2,0.5-0.3,0.8-0.5
		c0.3-0.2,0.5-0.4,0.8-0.6c0,0.3,0.1,0.5,0.2,0.7c0.2,0.3,0.4,0.5,0.8,0.7c0.3,0.1,0.7,0.2,1.1,0.2c0.6-0.1,1.1-0.3,1.6-0.6
		c0.5-0.4,0.9-0.7,1.3-1.1c0.1-0.1,0.3-0.3,0.5-0.5c0,0.3,0.1,0.6,0.3,0.9c0.3,0.6,0.8,1,1.4,1.1c0.6,0.1,1.2,0.2,1.9,0
		c0.7-0.1,1.3-0.3,1.9-0.6c0.6-0.3,1.2-0.6,1.6-0.9c0.1-0.1,0.3-0.2,0.4-0.3c0,0.4,0.1,0.7,0.3,1c0.2,0.3,0.4,0.5,0.7,0.7
		c0.3,0.1,0.6,0.2,1,0.2c0.5,0,1-0.2,1.4-0.4c0.4-0.3,0.9-0.7,1.5-1.2c0.1-0.1,0.2-0.2,0.3-0.3c0,0.3,0.1,0.5,0.1,0.7
		c0.1,0.3,0.4,0.6,0.7,0.9c0.5,0.3,1.1,0.4,1.8,0.3c0.7-0.1,1.2-0.3,1.8-0.6c0.5-0.3,0.9-0.6,1.4-1c0.5-0.4,0.9-0.9,1.5-1.5
		c0.5,0.1,0.9,0.1,1.4,0.1c0,0,0,0,0,0l-0.6,1.1c-0.1,0.1-0.1,0.2-0.2,0.4c-0.1,0.1-0.1,0.3,0,0.4c0.1,0.3,0.3,0.5,0.6,0.6
		c0.3,0.1,0.6,0.2,0.8,0.1c0.1-0.1,0.2-0.1,0.3-0.3s0.1-0.2,0.2-0.4c0.2-0.3,0.4-0.6,0.7-0.9c0.2-0.3,0.5-0.7,0.8-1
		c0.3-0.3,0.5-0.6,0.8-0.9c0.3-0.3,0.5-0.6,0.7-0.8c0.4-0.4,0.8-0.7,1.2-1s0.8-0.6,1.2-1c0.4-0.3,0.7-0.5,1.1-0.7
		c0.4-0.2,0.8-0.4,1.2-0.5c0.2-0.1,0.3-0.1,0.3,0.1c0,0.1-0.1,0.3-0.3,0.5s-0.3,0.4-0.5,0.6c-0.2,0.2-0.3,0.3-0.4,0.4
		c-0.5,0.5-1.1,1.1-1.6,1.7c-0.5,0.6-1,1.2-1.3,1.9c-0.1,0.3-0.2,0.6-0.3,1c0,0.3,0,0.7,0.1,0.9s0.3,0.5,0.6,0.7
		c0.3,0.2,0.6,0.3,1,0.2c0.7,0,1.3-0.2,1.8-0.5c0.5-0.3,1-0.7,1.5-1.1c0,0,0,0,0.1-0.1c0,0.2,0.1,0.4,0.1,0.6
		c0.1,0.4,0.4,0.6,0.8,0.8c0.4,0.2,0.9,0.3,1.3,0.2s0.9-0.2,1.4-0.4c0.3-0.2,0.5-0.3,0.8-0.5c0.3-0.2,0.5-0.4,0.8-0.6
		c0,0.3,0.1,0.5,0.2,0.7c0.2,0.3,0.4,0.5,0.8,0.7c0.3,0.1,0.7,0.2,1.1,0.2c0.6-0.1,1.1-0.3,1.6-0.6c0.5-0.4,0.9-0.7,1.3-1.1
		c0.2-0.2,0.4-0.4,0.7-0.7c0,0.3,0,0.5,0.1,0.7c0.1,0.4,0.3,0.7,0.5,0.9s0.6,0.4,1,0.5c0.3,0.1,0.6,0.1,1.1,0.1
		c0.4,0,0.9-0.2,1.5-0.4c0.6-0.3,1.2-0.7,1.9-1.2c0.7-0.5,1.6-1.3,2.5-2.3c0.1-0.1,0.2-0.2,0.3-0.4s0.2-0.3,0.2-0.4
		c0.1-0.3,0-0.5-0.2-0.7s-0.5-0.2-0.8-0.2c-0.2,0.1-0.3,0.1-0.4,0.3c-0.1,0.1-0.2,0.2-0.3,0.4c-0.6,0.6-1.1,1.1-1.6,1.5
		s-1,0.8-1.4,1.1c-0.4,0.3-0.8,0.5-1.2,0.6c-0.3,0.1-0.6,0.2-0.8,0.1c-0.2-0.1-0.4-0.3-0.4-0.8c-0.1-0.4,0.1-0.9,0.4-1.6
		c0.1-0.2,0.2-0.3,0.3-0.5s0.2-0.4,0.4-0.5c0.4-0.2,0.8-0.4,1.3-0.7c0.4-0.3,0.9-0.6,1.3-0.9c0.4-0.3,0.9-0.6,1.3-1
		c0.4-0.3,0.9-0.7,1.3-1c0.6-0.5,1.2-1.1,1.8-1.6c0.6-0.6,1.1-1.2,1.7-1.8c0.2-0.2,0.4-0.5,0.6-0.8s0.4-0.7,0.6-1
		c0.2-0.4,0.3-0.7,0.3-1.1C197.1,89.2,197.1,88.9,196.8,88.5z M102,101.6c-0.3,0.2-0.6,0.5-1,0.8c-0.4,0.3-0.8,0.5-1.2,0.5
		c-0.1,0-0.2-0.1-0.2-0.2c0-0.1,0-0.2,0-0.4c0-0.1,0.1-0.3,0.2-0.4c0.1-0.1,0.1-0.2,0.2-0.3c0.3-0.7,0.8-1.4,1.5-2.1
		c0.7-0.7,1.3-1.3,2-1.9c0.1-0.1,0.3-0.2,0.6-0.4s0.6-0.4,1-0.5c0.3-0.1,0.6-0.2,0.9-0.2s0.4,0.2,0.3,0.5c-0.7,0.8-1.3,1.5-2,2.3
		S102.8,100.9,102,101.6z M135.7,101.6c-0.3,0.2-0.6,0.5-1,0.8c-0.4,0.3-0.8,0.5-1.2,0.5c-0.1,0-0.2-0.1-0.2-0.2c0-0.1,0-0.2,0-0.4
		c0-0.1,0.1-0.3,0.2-0.4c0.1-0.1,0.1-0.2,0.2-0.3c0.3-0.7,0.8-1.4,1.5-2.1s1.3-1.3,2-1.9c0.1-0.1,0.3-0.2,0.6-0.4
		c0.3-0.2,0.6-0.4,1-0.5c0.3-0.1,0.6-0.2,0.9-0.2s0.4,0.2,0.3,0.5c-0.7,0.8-1.3,1.5-2,2.3S136.5,100.9,135.7,101.6z M159.2,101.4
		c-0.3,0.3-0.7,0.7-1.1,0.9c-0.2,0.1-0.4,0.2-0.6,0.4c-0.2,0.1-0.4,0.2-0.6,0.2c-0.2,0-0.3,0-0.4-0.1s-0.1-0.3,0-0.7
		c0.2-0.7,0.6-1.4,1.1-2.1c0.5-0.7,1-1.3,1.6-1.9c0,0.4,0.1,0.8,0.3,1.2c0.2,0.4,0.4,0.7,0.7,1.1
		C159.9,100.7,159.6,101.1,159.2,101.4z M162,97.3c-0.1,0.3-0.2,0.5-0.3,0.8c-0.1,0.3-0.3,0.6-0.5,0.9c-0.1-0.2-0.2-0.4-0.2-0.6
		s-0.1-0.4-0.1-0.6s0-0.4,0-0.6c0-0.2,0-0.3,0.1-0.4c0.1-0.1,0.3-0.2,0.5-0.2c0.2,0,0.3-0.1,0.4,0s0.2,0.1,0.2,0.2
		C162,96.9,162,97.1,162,97.3z M177.3,101.6c-0.3,0.2-0.6,0.5-1,0.8c-0.4,0.3-0.8,0.5-1.2,0.5c-0.1,0-0.2-0.1-0.2-0.2
		c0-0.1,0-0.2,0-0.4c0-0.1,0.1-0.3,0.2-0.4c0.1-0.1,0.1-0.2,0.2-0.3c0.3-0.7,0.8-1.4,1.5-2.1s1.3-1.3,2-1.9c0.1-0.1,0.3-0.2,0.6-0.4
		c0.3-0.2,0.6-0.4,1-0.5c0.3-0.1,0.6-0.2,0.9-0.2s0.4,0.2,0.3,0.5c-0.7,0.8-1.3,1.5-2,2.3S178.1,100.9,177.3,101.6z M195.4,89.8
		c-0.1,0.4-0.3,0.7-0.6,1s-0.5,0.6-0.7,0.9c-0.6,0.7-1.3,1.4-2,2c-0.7,0.6-1.4,1.2-2.2,1.8c-0.3,0.2-0.5,0.4-0.8,0.6
		c-0.3,0.2-0.5,0.4-0.8,0.5c0.3-0.5,0.6-1,1-1.5c0.3-0.5,0.7-0.9,1.1-1.4c0.5-0.7,1.1-1.3,1.7-2c0.6-0.6,1.3-1.2,2-1.7
		c0.1-0.1,0.2-0.2,0.4-0.2c0.2-0.1,0.3-0.2,0.5-0.2s0.2-0.1,0.3-0.1C195.4,89.6,195.4,89.7,195.4,89.8z"/>
</g>
</svg>
