<?xml version="1.0" encoding="utf-8"?>
<!-- Generator: Adobe Illustrator 19.2.1, SVG Export Plug-In . SVG Version: 6.00 Build 0)  -->
<svg version="1.1" id="Capa_1" xmlns="http://www.w3.org/2000/svg" xmlns:xlink="http://www.w3.org/1999/xlink" x="0px" y="0px"
	 viewBox="0 0 149.3 75" style="enable-background:new 0 0 149.3 75;" xml:space="preserve">
<style type="text/css">
	.st0{fill:#F18523;}
</style>
<g>
	<path class="st0" d="M35.3,8.4C27.9,12.7,21.5,20,21.5,21.1c0,0.2,1.1-0.3,1-0.3c-0.5,0.6-1.4,0.9-1.8,0.9c-0.3,0-0.6-0.3-0.6-0.7
		c0-2.3,9.2-13.2,9.2-15.7c0-0.9-0.9-1-1.5-1c-5.1,0-13.4,8.5-13.4,9.7c0,0.2,0.2,0.3,0.3,0.3c0.2,0,0.7-0.1,0.9-0.1
		c0,0.2-1.1,0.6-1.5,0.6c-0.6,0-0.9-0.5-0.9-1c0-2.9,9.2-9.9,14.6-9.9c1.7,0,2.6,0.9,2.6,2.4c0,2-4.1,7.7-6.6,10.9
		C28.1,12,36.5,6.1,38,6.1c0.5,0,1.5,1,1.4,1.5c-0.1-0.2-0.4-0.2-0.5-0.2c-1.1,0-5.8,6.1-7.7,10c-0.6,1.3-1.1,2.6-1.1,3.4
		c0,1.6,1.1,2,2.6,2c0.2,0,0.4,0,0.5,0c2.1-0.1,4.2-1.4,5.2-2c-1.8,1.5-4.4,2.3-5.4,2.4c-0.2,0-0.4,0-0.6,0c-2,0-3.4-0.8-3.4-2.9
		c0-1.4,0.7-3.4,1.7-5.2C32,12.6,33.8,10,35.3,8.4z"/>
	<path class="st0" d="M41.4,12.3c-3.3,0-7.1,6.1-6.1,6.6c1,0.4,3.6-2.5,4.8-4.3c-0.1-0.2-0.3-0.7-0.2-0.9c0.1-0.2,0.6-0.7,0.8-0.7
		c0.2,0,0.4,0.1,0.4,0.2c0.3,0.6,0.8,1,1.5,0.9c1.2-0.1,1.9-0.8,2.1-0.8c-0.1,0.3-0.8,0.9-1.7,1.1c-0.4,0.1-0.8,0.2-1.1,0.2
		c-0.3,0-0.5,0-0.5-0.1c-0.5,2.4-4.2,5-6.2,4.9c-0.8-0.1-1.4-0.7-1.4-1.4c0-3,4-5.9,6.8-5.9c0.7,0,1,0.2,1.1,0.3
		c0.1,0.1,0,0.1,0,0.1C41.6,12.3,41.5,12.3,41.4,12.3z"/>
	<path class="st0" d="M47,18.1c0,0.2,0.1,0.3,0.5,0.3c1.3,0,4.6-2.5,6.5-4c0.1,0,0.2,0.1,0.1,0.1c-1.4,1.3-5,4.7-7.4,4.7
		c-0.6,0-1.3-0.7-1.3-1.1c0-0.4,0.1-0.8,0.3-1.2c0.4-1,1.4-2.2,2.5-3.1c1.5-1.3,3.1-1.8,3.9-1.8c0.3,0,1.1,0.4,1.1,0.9
		c0,1.1-3.5,3.7-5.5,3.8C47.4,17.1,47.1,17.6,47,18.1z M48,16.3c1.6-0.2,4.6-3.1,4.7-3.8C50.7,13.2,48.6,15.4,48,16.3z"/>
	<path class="st0" d="M53.4,16.3c0.3-0.2,0.7-0.5,1-0.7c-0.1-0.3-0.2-0.8-0.2-1.3c0-0.4,0-0.8,0.1-1c0.2-0.7,0.8-0.9,1.3-1.1
		c0.2-0.1,0.5-0.1,0.5-0.1c0,0-0.1,0.1-0.1,0.2c-0.2,0.4-0.4,1.2-0.4,1.8c0,0.2,0,0.4,0.1,0.6c1.7-1.2,4.4-2.7,5.8-3.2
		c0.1-0.1,0.1,0,0,0.1c-2.1,1.3-4.2,2.9-5.6,4c0.5,2.2,2.5,5.4,4.9,5.4c0.3,0,0.5,0,0.7,0c0.1,0,0.1,0,0,0c-0.3,0.1-0.7,0.2-1.1,0.2
		c-2.3,0-4.7-2.2-5.8-4.7c-1,0.8-1.7,1.3-2.1,1.9c-0.4,0.5-0.4,0.8-0.1,0.8c-0.3,0.1-0.9,0.1-1.3-0.4c-0.1-0.1-0.1-0.2-0.1-0.3
		C51.2,18.1,52,17.3,53.4,16.3z"/>
	<path class="st0" d="M58.6,19.2c-0.3-0.1-0.7-0.5-0.7-0.9c0-1.1,2.6-5,3.8-5.9c0.1-0.1,0.2-0.1,0.3-0.1c0.4,0,1.1,0.7,1.1,1.2
		c0,0.1-0.1,0-0.2,0c-0.7-0.1-3.2,4.1-3.4,4.8c1.1-0.3,3.8-2.8,4.9-3.9c0.1-0.1,0.2,0.1,0.2,0.1c-1.6,1.7-4.5,4.7-5.6,4.8
		C58.8,19.3,58.7,19.3,58.6,19.2z M64.7,10.1c0.2,0.2,0.3,0.5,0.2,0.5c0,0-0.2-0.1-0.4,0c-0.3,0.1-1.1,0.9-1.4,1.2
		c-0.3,0.3-0.6-0.1-0.7-0.4c0-0.5,0.7-1.7,1.1-1.9C64.1,9.5,64.5,9.9,64.7,10.1z"/>
	<path class="st0" d="M64.8,15.2c-0.1,0.3,0.4,0.6,0.5,0.8c2.9-1.6,5.2-2,5.5-2c0,0,0.1,0,0.1,0.1c0.2,0.1-3.4,1-5.4,2.2
		c0.2,0.2,0.7,0.7,0.6,1.1c-0.3,1.2-2.6,2.1-3.8,2.1c-0.4,0-0.6-0.3-0.7-0.7c0.1-0.8,2.7-2.3,3.4-2.6c-0.2-0.3-1.3-0.9-1.1-1.7
		c0.3-1.4,2.9-2.7,4.5-2.7c0.5,0,0.7,0.8,0.7,1.4c0,0.3-1.2,1.3-1.7,1.3c0,0-0.1-0.1,0-0.1c0.1,0,1.3-1.3,1.3-1.6
		C67.8,12.6,65,14.3,64.8,15.2z M62.1,18.5c0.7-0.2,3-1.4,3-2.1C64,17.1,62.6,18,62.1,18.5z"/>
	<path class="st0" d="M75.2,6.2c0.3-0.2,0.5-0.4,0.7-0.4c1-0.1,1.7,1,1.4,0.8c-0.6-0.3-1.7,1.2-2.5,2.2c2.9-0.1,6.8,0,9.3,0.5
		c0.1,0,0.2,0.1,0,0.1c-3.6-0.3-6.9-0.3-9.9,0.2c-0.7,0.8-1.3,1.7-2,2.8c-1.6,2.4-2.9,4.7-3.4,5.9c0.8,0.1,3.8-2.9,4.9-3.8
		c0.1-0.1,0.2,0.1,0.1,0.1c-0.9,1-4,4.3-5.1,4.7c-0.2,0.1-0.4,0-0.6-0.1c-0.1-0.1-0.5-0.5-0.7-0.7c0,0-0.1-0.1-0.1-0.3
		c0-0.5,0.8-2.3,3-5.8c0.5-0.7,1-1.5,1.7-2.4c-1.7,0.3-2.8,1.2-2.3,1.5c-0.3,0-0.9-0.3-1-0.9c-0.1-0.8,1.9-1.3,4-1.6
		C74.2,7.1,74.7,6.5,75.2,6.2z"/>
	<path class="st0" d="M73,18.1c0,0.2,0.1,0.3,0.5,0.3c1.3,0,4.6-2.5,6.5-4c0.1,0,0.2,0.1,0.1,0.1c-1.4,1.3-5,4.7-7.4,4.7
		c-0.6,0-1.3-0.7-1.3-1.1c0-0.4,0.1-0.8,0.3-1.2c0.4-1,1.4-2.2,2.5-3.1c1.5-1.3,3.1-1.8,3.9-1.8c0.3,0,1.1,0.4,1.1,0.9
		c0,1.1-3.5,3.7-5.5,3.8C73.4,17.1,73,17.6,73,18.1z M73.9,16.3c1.6-0.2,4.6-3.1,4.7-3.8C76.6,13.2,74.5,15.4,73.9,16.3z"/>
	<path class="st0" d="M86.6,12.1c0.1-0.1,0.2-0.1,0.3-0.1c0.4,0,1.1,0.7,1.1,1.2c0,0.1-0.1,0-0.2,0c-0.3,0-0.9,0.7-1.5,1.5
		c-0.2,0.3-1,1.4-1,1.4c1.6-1.7,5-4.2,5.9-3.9c0.2,0.1,0.9,0.8,0.9,1.1c0,1.6-3.6,6-6,6c-0.7,0-1.5-0.5-1.5-1.1
		c0-0.1,0.1-0.1,0.1-0.1c0,0.2,0.3,0.5,0.7,0.5c1.8,0,5.1-4.7,5.3-5.7c-0.3,0-3.2,1.5-6.4,4.8c-1.8,2.5-4.3,6.4-4.8,9.1
		c-0.1,0.5-0.1,0.8,0.3,0.9c-0.8,0.3-1.7-0.3-1.5-1.5c0.4-3,4-8.7,6.8-12.3C85.5,13.2,86.3,12.3,86.6,12.1z"/>
	<path class="st0" d="M92.2,18.1c0,0.2,0.1,0.3,0.5,0.3c1.3,0,4.6-2.5,6.5-4c0.1,0,0.2,0.1,0.1,0.1c-1.4,1.3-5,4.7-7.4,4.7
		c-0.6,0-1.3-0.7-1.3-1.1c0-0.4,0.1-0.8,0.3-1.2c0.4-1,1.4-2.2,2.5-3.1c1.5-1.3,3.1-1.8,3.9-1.8c0.3,0,1.1,0.4,1.1,0.9
		c0,1.1-3.5,3.7-5.5,3.8C92.6,17.1,92.2,17.6,92.2,18.1z M93.1,16.3c1.6-0.2,4.6-3.1,4.7-3.8C95.8,13.2,93.7,15.4,93.1,16.3z"/>
	<path class="st0" d="M101,12.1c0.1-0.1,0.2-0.1,0.3-0.1c0.4,0,1.1,0.7,1.1,1.2c0,0.1-0.1,0-0.2,0c-0.3,0-0.9,0.7-1.5,1.4
		c-0.5,0.7-1.1,1.5-1.5,2.2c1-1.3,2.8-2.8,4.3-3.9c0.7-0.5,1.3-0.8,1.6-0.9c0.2,0,0.9,0.8,0.8,0.9c-0.4,0.4-1.9,1.7-2.5,3.2
		c0.9-0.1,2.1-0.9,3.2-1.9c0,0,0.1,0,0.1,0c-0.3,0.4-2.5,2.5-3.8,2.5c-0.3,0-0.9-0.6-0.9-0.9c0-0.5,0.6-1.6,1.1-2.1
		c-1.7,1-2.5,1.7-3.8,3.1c-0.9,1-2,2.6-1.6,2.8c-0.5,0.1-1-0.4-1.1-0.9c0-0.2,0.1-0.5,0.3-0.9c0.5-1,1.3-2.3,2-3.3
		C99.7,13.4,100.5,12.5,101,12.1z"/>
	<path class="st0" d="M107,15.2c-0.1,0.3,0.4,0.6,0.5,0.8c2.9-1.6,5.2-2,5.5-2c0,0,0.1,0,0.1,0.1c0.2,0.1-3.4,1-5.4,2.2
		c0.2,0.2,0.7,0.7,0.6,1.1c-0.3,1.2-2.6,2.1-3.8,2.1c-0.4,0-0.6-0.3-0.7-0.7c0.1-0.8,2.7-2.3,3.4-2.6c-0.2-0.3-1.3-0.9-1.1-1.7
		c0.3-1.4,2.9-2.7,4.5-2.7c0.5,0,0.7,0.8,0.7,1.4c0,0.3-1.2,1.3-1.7,1.3c0,0-0.1-0.1,0-0.1c0.1,0,1.3-1.3,1.3-1.6
		C110.1,12.6,107.3,14.3,107,15.2z M104.3,18.5c0.7-0.2,3-1.4,3-2.1C106.2,17.1,104.8,18,104.3,18.5z"/>
	<path class="st0" d="M117.1,12.3c-3.3,0-7.1,6.1-6.1,6.6c1,0.4,3.6-2.5,4.8-4.3c-0.1-0.2-0.3-0.7-0.2-0.9c0.1-0.2,0.6-0.7,0.8-0.7
		c0.2,0,0.4,0.1,0.4,0.2c0.3,0.6,0.8,1,1.5,0.9c1.2-0.1,1.9-0.8,2.1-0.8c-0.1,0.3-0.8,0.9-1.7,1.1c-0.4,0.1-0.8,0.2-1.1,0.2
		c-0.3,0-0.5,0-0.5-0.1c-0.5,2.4-4.2,5-6.2,4.9c-0.8-0.1-1.4-0.7-1.4-1.4c0-3,4-5.9,6.8-5.9c0.7,0,1,0.2,1.1,0.3
		c0.1,0.1,0,0.1,0,0.1C117.4,12.3,117.2,12.3,117.1,12.3z"/>
	<path class="st0" d="M122.7,18.3c1.1-0.3,3.7-2.8,4.9-3.9c0.1-0.1,0.2,0.1,0.1,0.1c-1.6,1.7-4.5,4.7-5.6,4.7
		c-0.2,0-0.4-0.2-0.6-0.4c-0.2-0.2-0.3-0.5-0.3-0.7c0-1,2.1-4.1,3-4.9c-1.5,0.7-4.2,2.9-5.5,4.3c-0.2,0.2-0.5,0.5-0.7,0.8
		c-0.5,0.6-0.6,1.1-0.3,1.2c-0.5,0.1-1-0.5-1.1-1c0-0.1,0.1-0.6,0.5-1.5c0.4-0.9,1.1-1.9,1.7-2.8c0.7-0.9,1.5-1.9,1.9-2.3
		C120.9,12,121,12,121,12c0.5,0,1.1,0.7,1.1,1.2c0,0.1-0.1,0-0.2,0c-0.2,0-0.9,0.7-1.5,1.5c-0.9,1.1-1.8,2.5-2.1,3
		c0.2-0.3,0.5-0.7,0.9-1c2-2,5.2-4.4,5.8-4.4c0.4,0,1,1,0.8,1.2C125.5,13.6,122.7,17.4,122.7,18.3z"/>
	<path class="st0" d="M130.7,15.7c-0.5,0.5-4.1,3.6-4.8,3.6c0,0-0.1,0-0.2-0.1c-0.3-0.2-0.8-0.9-0.8-1.2c0-2,4.2-6,7.5-6
		c0.7,0,1.6,0.3,1.6,1.1c0,0.3-0.2,0.6-0.3,0.9c0,0-0.1,0-0.1,0c0.1-0.2,0.2-0.4,0.2-0.7c0-0.5-0.3-0.8-0.9-0.8
		c-1.1,0.1-2.4,0.8-3.6,1.8c-1.7,1.5-3.1,3.8-2.9,3.8c0,0,0.1,0,0.1,0c0.6-0.2,3.1-2,4.1-2.8c0.3-0.3,1.5-1.4,2-1.7
		c0.4-0.2,1,0.8,0.9,1c-0.1-0.2-1.7,1.8-2.3,3c-0.1,0.3-0.2,0.5-0.2,0.6c1.1-0.3,3.7-2.8,4.9-3.9c0.1-0.1,0.2,0.1,0.1,0.1
		c-1.6,1.7-4.5,4.8-5.6,4.8c-0.1,0-0.2,0-0.3-0.1c-0.3-0.1-0.6-0.5-0.6-0.9c0-0.2,0.1-0.4,0.1-0.7C129.9,17,130.4,16.1,130.7,15.7z"
		/>
	<path class="st0" d="M14.2,40c0-1,2-4.1,2.9-4.9c-3.3,2.3-5.2,5.4-5.7,5.4c-0.3,0-0.8-0.6-0.8-0.9c0-0.7,1.4-3.3,2.6-4.4
		c-1.8,1.1-3.5,2.8-4.8,4.3C8,39.8,7.8,40,7.7,40.2c-0.5,0.6-0.6,1-0.3,1.1c-0.5,0.1-1-0.4-1.2-0.9c0-0.1,0-0.6,0.5-1.5
		c0.8-1.5,1.9-3.1,2.9-4.3c0.3-0.3,0.5-0.6,0.7-0.7c0.1-0.1,0.2-0.1,0.2-0.1c0.5,0,1.1,0.7,1.1,1.2c0,0.1-0.1,0-0.2,0
		c-0.1,0-0.4,0.2-0.6,0.5c-0.8,0.9-2.4,3.3-2.8,4c1.2-1.5,5.1-5.1,5.8-5.2c0,0,0.1,0,0.1,0c0.4,0,1,0.9,0.8,1.1
		c-0.9,1-2.6,3.6-2.6,4.2c1.7-2.2,5.2-5.5,5.9-5.5c0.4,0,1,1,0.8,1.2c-0.5,0.4-3.3,4.3-3.3,5.1c1.2-0.3,3.8-2.8,5-3.9
		c0.1-0.1,0.2,0.1,0.2,0.1C19.2,38,16.2,41,15.1,41C14.7,41,14.2,40.4,14.2,40z"/>
	<path class="st0" d="M23.7,37.4C23.2,38,19.6,41,18.9,41c0,0-0.1,0-0.2-0.1c-0.3-0.2-0.8-0.9-0.8-1.2c0-2,4.2-6,7.5-6
		c0.7,0,1.6,0.3,1.6,1.1c0,0.3-0.2,0.6-0.3,0.9c0,0-0.1,0-0.1,0c0.1-0.2,0.2-0.4,0.2-0.7c0-0.5-0.3-0.8-0.9-0.8
		c-1.1,0.1-2.4,0.8-3.6,1.8c-1.7,1.5-3.1,3.8-2.9,3.8c0,0,0.1,0,0.1,0c0.6-0.2,3.1-2,4.1-2.8c0.3-0.3,1.5-1.4,2-1.7
		c0.4-0.2,1,0.8,0.9,1c-0.1-0.2-1.7,1.8-2.3,3c-0.1,0.3-0.2,0.5-0.2,0.6c1.1-0.3,3.7-2.8,4.9-3.9c0.1-0.1,0.2,0.1,0.1,0.1
		C27.5,38,24.5,41,23.4,41c-0.1,0-0.2,0-0.3-0.1c-0.3-0.1-0.6-0.5-0.6-0.9c0-0.2,0.1-0.4,0.1-0.7C22.9,38.7,23.4,37.9,23.7,37.4z
		 M26.6,30.2c0.4,0,1.3,0.5,1.3,0.8c-0.1,0.6-2.4,1.8-4.9,1.6c-0.8-0.1-0.9-0.3-0.9-0.3c2.1,0.1,4.3-1.3,4.4-2
		C26.6,30.2,26.5,30.2,26.6,30.2z"/>
	<path class="st0" d="M29.3,37c-0.1,0.3,0.4,0.6,0.5,0.8c2.9-1.6,5.2-2,5.5-2c0,0,0.1,0,0.1,0.1c0.2,0.1-3.4,1-5.4,2.2
		c0.2,0.2,0.7,0.7,0.6,1.1c-0.3,1.2-2.6,2.1-3.8,2.1c-0.4,0-0.6-0.3-0.7-0.7c0.1-0.8,2.7-2.3,3.4-2.6c-0.2-0.3-1.3-0.9-1.1-1.7
		c0.3-1.4,2.9-2.7,4.5-2.7c0.5,0,0.7,0.8,0.7,1.4c0,0.3-1.2,1.3-1.7,1.3c0,0-0.1-0.1,0-0.1c0.1,0,1.3-1.3,1.3-1.6
		C32.4,34.4,29.6,36.1,29.3,37z M26.6,40.3c0.7-0.2,3-1.4,3-2.1C28.5,38.8,27.1,39.8,26.6,40.3z"/>
	<path class="st0" d="M44.4,27.9c0.3-0.2,0.5-0.4,0.7-0.4c1-0.1,1.8,1,1.4,0.8c-0.6-0.3-1.8,1.4-2.6,2.4c-1.4,1.7-2.7,3.7-4.7,6.8
		l0,0c1.3-0.4,3.9-1.8,4.8-2.5c0,0,0-0.1,0.1-0.1c0.1,0,0.1,0.1,0.1,0.1c0,0,0,0,0,0c-0.6,0.5-2.3,1.7-3.8,2.5
		c-0.3,0.2-1,0.5-1.2,0.5c0.1,0.4,0.3,1.1,0.3,1.8c0,0.3,0,0.7-0.1,1c-1,5.2-5.5,8.8-6.3,8.8H33c-0.4,0-0.8-0.6-0.8-0.9
		c-0.1-1,2.1-5.8,5-10.8c-0.5-0.4,0.2-1.4,0.8-1.4c1.7-2.8,3.6-5.4,5-7.2C43.5,28.9,44,28.3,44.4,27.9z M33.6,48.7
		c2.1-1.6,4.9-4.4,5.5-8.3c0-0.2,0.1-0.4,0.1-0.6c0-0.6-0.1-1.3-0.3-1.6c-2.1,3.3-4.6,8.4-5.4,10.3c-0.1,0.1-0.1,0.2,0,0.2
		C33.4,48.8,33.5,48.7,33.6,48.7z"/>
	<path class="st0" d="M42,39.9c0,0.2,0.1,0.3,0.5,0.3c1.3,0,4.6-2.5,6.5-4c0.1,0,0.2,0.1,0.1,0.1c-1.4,1.3-5,4.7-7.4,4.7
		c-0.6,0-1.3-0.7-1.3-1.1c0-0.4,0.1-0.8,0.3-1.2c0.4-1,1.4-2.2,2.5-3.1c1.5-1.3,3.1-1.8,3.9-1.8c0.3,0,1.1,0.4,1.1,0.9
		c0,1.1-3.5,3.7-5.5,3.8C42.4,38.8,42.1,39.4,42,39.9z M43,38.1c1.6-0.2,4.6-3.1,4.7-3.8C45.7,34.9,43.6,37.1,43,38.1z"/>
	<path class="st0" d="M53.2,29.6c0.5-0.7,1.1-1.3,1.5-1.7c0.3-0.2,0.5-0.4,0.7-0.4c1-0.1,1.7,1,1.4,0.8c-0.6-0.3-1.8,1.4-2.6,2.4
		c-0.8,1-1.5,2.1-2.4,3.4c-1.6,2.4-2.9,4.7-3.4,5.9c0.8,0.1,3.8-2.9,4.9-3.8c0.1-0.1,0.2,0.1,0.1,0.1c-0.9,1-4,4.3-5.1,4.7
		c-0.2,0.1-0.4,0-0.6-0.1c-0.1-0.1-0.5-0.5-0.7-0.7c0,0-0.1-0.1-0.1-0.3c0-0.5,0.8-2.3,3-5.8C51.1,32.4,52.3,30.8,53.2,29.6z"/>
	<path class="st0" d="M51.9,41c-0.3-0.1-0.8-0.5-0.8-0.9c0-1.1,2.6-5,3.8-5.9c0.1-0.1,0.2-0.1,0.3-0.1c0.4,0,1.1,0.7,1.1,1.2
		c0,0.1-0.1,0-0.2,0c-0.7-0.1-3.2,4.1-3.4,4.8c0.8-0.2,2.3-1.5,3.5-2.6c0.9-0.8,1.8-1.8,2.3-2.5c-0.1-0.1-0.1-0.3-0.1-0.5
		c0-1.1,0.7-1.7,0.9-1.7c0.3,0,0.8,0.4,0.8,0.8c0,0.2-1,1.3-1.2,1.5c0.1,0.1,0.3,0.1,0.7,0.1c1.2,0,3.5-0.5,3.9-1.3
		c0.1-0.2,1.1,1.1,0.9,1.4c-1.4,0.2-6.2,3-7.4,4.3c0.4-0.2,1.1-0.4,1.9-0.4c1.3,0,2.9,0.4,3.4,1.6c0.1,0.1,0,0.2-0.1,0.1
		c-0.4-0.8-1.3-1.2-3.1-1.2c-1.8,0-3.2,1.3-3.5,1.3s-0.8-0.7-0.7-1c0.3-1.1,4.1-3.8,6.1-4.7c-0.4,0.1-0.8,0.1-1.2,0.1
		c-0.5,0-0.9-0.1-1.1-0.3c-0.8,0.9-1.6,1.7-2.2,2.3C55,39.1,53,41,52.1,41C52.1,41,52,41,51.9,41z M58,31.9c0.2,0.2,0.3,0.5,0.2,0.5
		c0,0-0.2-0.1-0.4,0c-0.3,0.1-1.1,0.9-1.4,1.2c-0.3,0.3-0.6-0.1-0.7-0.4c0-0.5,0.7-1.7,1.2-1.9C57.3,31.3,57.7,31.6,58,31.9z"/>
	<path class="st0" d="M64.8,39.4c0.2,0,0.9,0.4,0.9,1.1c0,0.6-2.6,2.6-3.6,2.6C62,43,62,42.9,62,42.9C62.3,42.8,64.7,39.9,64.8,39.4
		C64.7,39.4,64.7,39.4,64.8,39.4z"/>
	<path class="st0" d="M73.4,49.3c0,0.1-0.2,0.1-0.3,0.1c-0.7,0.1-1-0.9-0.9-1.3c0.1-0.5,0.5-1.3,0.8-2.1c0.8-1.7,2.6-5.3,4.9-8.2
		c-1.2,1-3.8,3.2-4.5,3.2c-0.3,0-1-0.9-1-1.3c0-2,4.2-6.1,7.5-6.1c0.7,0,1.7,0.3,1.7,1.1c0,0.3-0.2,0.6-0.4,0.9c0,0-0.1,0,0,0
		c0.1-0.2,0.2-0.4,0.2-0.7c0-0.5-0.3-0.8-0.9-0.8c-1.1,0.1-2.4,0.8-3.6,1.8c-1.7,1.5-3.2,4-3,4.1c0.2,0.1,3.4-2.2,4.4-3.1
		c0.3-0.3,1.5-1.5,2-1.7c0.3-0.2,1,0.8,0.9,1.1c-0.1-0.1-0.5,0.3-1.7,1.8c-1.5,1.7-4.9,7.4-5.7,8.9c0,0,0,0,0,0
		c1.4-2,4.1-4.5,4.6-4.6c0.1,0,0.1,0.1,0.1,0.1C76,44.6,73.6,48.4,73.4,49.3z"/>
	<path class="st0" d="M86.5,36.3c-1.8,1.9-4.3,4.5-5.4,4.7c0,0-0.1,0-0.1,0c-0.3,0-0.9-0.5-0.9-0.9c0-0.8,1-2.6,2-4
		c0.6-0.9,1.4-1.8,1.9-2.1c0.1-0.1,0.2-0.1,0.3-0.1c0.4,0,1.1,0.7,1.1,1.2c0,0.1-0.1,0-0.2,0c-0.3,0-1,0.9-1.7,1.7
		c-0.9,1.2-1.8,2.8-1.8,3.3c0.9-0.4,2.7-2,3.6-2.8c0.9-0.9,2.3-2.5,3.3-3.3c0.1-0.1,0.2-0.1,0.3-0.1c0.4,0,1.1,0.7,1.1,1.2
		c0,0.1-0.1,0-0.2,0c-0.1,0-0.4,0.2-0.6,0.4c-0.3,0.3-0.8,0.9-1.4,1.7c-0.9,1.2-1.6,2.5-1.6,3c1.1-0.3,3.7-2.8,4.8-3.9
		c0.1-0.1,0.2,0.1,0.1,0.1C89.6,38,86.7,41,85.6,41c-0.1,0-0.2,0-0.3-0.1c-0.3-0.1-0.7-0.6-0.7-0.9c0-0.2,0.1-0.5,0.2-0.8
		C85.1,38.4,85.8,37.1,86.5,36.3z"/>
	<path class="st0" d="M90.4,39.9c0,0.2,0.1,0.3,0.5,0.3c1.3,0,4.6-2.5,6.5-4c0.1,0,0.2,0.1,0.1,0.1c-1.4,1.3-5,4.7-7.4,4.7
		c-0.6,0-1.3-0.7-1.3-1.1c0-0.4,0.1-0.8,0.3-1.2c0.4-1,1.4-2.2,2.5-3.1c1.5-1.3,3.1-1.8,3.9-1.8c0.3,0,1.1,0.4,1.1,0.9
		c0,1.1-3.5,3.7-5.5,3.8C90.8,38.8,90.4,39.4,90.4,39.9z M91.3,38.1c1.6-0.2,4.6-3.1,4.7-3.8C94,34.9,91.9,37.1,91.3,38.1z"/>
	<path class="st0" d="M106.2,29.6c0.5-0.7,1.1-1.3,1.5-1.7c0.3-0.2,0.5-0.4,0.7-0.4c1-0.1,1.7,1,1.4,0.8c-0.6-0.3-1.8,1.4-2.6,2.4
		c-0.8,1-1.5,2.1-2.4,3.4c-1.6,2.4-2.9,4.7-3.4,5.9c0.8,0.1,3.8-2.9,4.9-3.8c0.1-0.1,0.2,0.1,0.1,0.1c-0.9,1-4,4.3-5.1,4.7
		c-0.2,0.1-0.4,0-0.6-0.1c-0.1-0.1-0.5-0.5-0.7-0.7c0,0-0.1-0.1-0.1-0.3c0-0.5,0.8-2.3,3-5.8C104.1,32.4,105.2,30.8,106.2,29.6z"/>
	<path class="st0" d="M109.7,37.4c-0.5,0.5-4.1,3.6-4.8,3.6c0,0-0.1,0-0.2-0.1c-0.3-0.2-0.8-0.9-0.8-1.2c0-2,4.2-6,7.5-6
		c0.7,0,1.6,0.3,1.6,1.1c0,0.3-0.2,0.6-0.3,0.9c0,0-0.1,0-0.1,0c0.1-0.2,0.2-0.4,0.2-0.7c0-0.5-0.3-0.8-0.9-0.8
		c-1.1,0.1-2.4,0.8-3.6,1.8c-1.7,1.5-3.1,3.8-2.9,3.8c0,0,0.1,0,0.1,0c0.6-0.2,3.1-2,4.1-2.8c0.3-0.3,1.5-1.4,2-1.7
		c0.4-0.2,1,0.8,0.9,1c-0.1-0.2-1.7,1.8-2.3,3c-0.1,0.3-0.2,0.5-0.2,0.6c1.1-0.3,3.7-2.8,4.9-3.9c0.1-0.1,0.2,0.1,0.1,0.1
		c-1.6,1.7-4.5,4.8-5.6,4.8c-0.1,0-0.2,0-0.3-0.1c-0.3-0.1-0.6-0.5-0.6-0.9c0-0.2,0.1-0.4,0.1-0.7C108.8,38.7,109.3,37.9,109.7,37.4
		z"/>
	<path class="st0" d="M118,49.3c0,0.1-0.2,0.1-0.3,0.1c-0.7,0.1-1-0.9-0.9-1.3c0.1-0.5,0.5-1.3,0.8-2.1c0.8-1.7,2.6-5.3,4.9-8.2
		c-1.2,1-3.8,3.2-4.5,3.2c-0.3,0-1-0.9-1-1.3c0-2,4.2-6.1,7.5-6.1c0.7,0,1.7,0.3,1.7,1.1c0,0.3-0.2,0.6-0.4,0.9c0,0-0.1,0,0,0
		c0.1-0.2,0.2-0.4,0.2-0.7c0-0.5-0.3-0.8-0.9-0.8c-1.1,0.1-2.4,0.8-3.6,1.8c-1.7,1.5-3.2,4-3,4.1c0.2,0.1,3.4-2.2,4.4-3.1
		c0.3-0.3,1.5-1.5,2-1.7c0.3-0.2,1,0.8,0.9,1.1c-0.1-0.1-0.5,0.3-1.7,1.8c-1.5,1.7-4.9,7.4-5.7,8.9c0,0,0,0,0,0
		c1.4-2,4.1-4.5,4.6-4.6c0.1,0,0.1,0.1,0.1,0.1C120.6,44.6,118.1,48.4,118,49.3z"/>
	<path class="st0" d="M131,36.3c-1.8,1.9-4.3,4.5-5.4,4.7c0,0-0.1,0-0.1,0c-0.3,0-0.9-0.5-0.9-0.9c0-0.8,1-2.6,2-4
		c0.6-0.9,1.4-1.8,1.9-2.1c0.1-0.1,0.2-0.1,0.3-0.1c0.4,0,1.1,0.7,1.1,1.2c0,0.1-0.1,0-0.2,0c-0.3,0-1,0.9-1.7,1.7
		c-0.9,1.2-1.8,2.8-1.8,3.3c0.9-0.4,2.7-2,3.6-2.8c0.9-0.9,2.3-2.5,3.3-3.3c0.1-0.1,0.2-0.1,0.3-0.1c0.4,0,1.1,0.7,1.1,1.2
		c0,0.1-0.1,0-0.2,0c-0.1,0-0.4,0.2-0.6,0.4c-0.3,0.3-0.8,0.9-1.4,1.7c-0.9,1.2-1.6,2.5-1.6,3c1.1-0.3,3.7-2.8,4.8-3.9
		c0.1-0.1,0.2,0.1,0.1,0.1c-1.6,1.7-4.5,4.8-5.6,4.8c-0.1,0-0.2,0-0.3-0.1c-0.3-0.1-0.7-0.6-0.7-0.9c0-0.2,0.1-0.5,0.2-0.8
		C129.7,38.4,130.4,37.1,131,36.3z"/>
	<path class="st0" d="M134.9,39.9c0,0.2,0.1,0.3,0.5,0.3c1.3,0,4.6-2.5,6.5-4c0.1,0,0.2,0.1,0.1,0.1c-1.4,1.3-5,4.7-7.4,4.7
		c-0.6,0-1.3-0.7-1.3-1.1c0-0.4,0.1-0.8,0.3-1.2c0.4-1,1.4-2.2,2.5-3.1c1.5-1.3,3.1-1.8,3.9-1.8c0.3,0,1.1,0.4,1.1,0.9
		c0,1.1-3.5,3.7-5.5,3.8C135.3,38.8,134.9,39.4,134.9,39.9z M135.9,38.1c1.6-0.2,4.6-3.1,4.7-3.8C138.5,34.9,136.5,37.1,135.9,38.1z
		"/>
	<path class="st0" d="M9.2,55.8c1.1-1.7,2.3-3.2,3.1-4.5c0.6-0.7,1.1-1.3,1.5-1.7c0.3-0.2,0.5-0.4,0.7-0.4c1-0.1,1.7,1,1.4,0.8
		c-0.6-0.3-1.8,1.4-2.6,2.4c-0.8,1-1.5,2.1-2.4,3.4c-1.6,2.4-3,4.8-3.5,5.9c1-0.1,4.2-3.2,5-3.9c0.1-0.1,0.2,0.1,0.1,0.1
		c-0.9,1-4.1,4.4-5.2,4.7c-0.2,0.1-0.4,0-0.6-0.1c-0.3-0.2-0.7-0.5-0.7-0.9c0-0.4,0.4-1.3,1.3-2.9c-0.6,0.5-4.4,4-5.3,4
		c-0.3,0-0.9-0.8-0.9-1.2c0-1,1.6-3.3,3.6-4.6c1.4-0.9,2.6-1.5,3.7-1.5C8.7,55.5,9,55.7,9.2,55.8z M9,56.1c-0.2-0.1-0.5-0.1-0.8,0
		c-0.8,0.2-2,1.1-3,2.1c-1.6,1.5-2.8,3.4-2.7,3.5c0.2,0.1,3.1-1.9,5.2-3.7L9,56.1z"/>
	<path class="st0" d="M15.6,59.2c-0.5,0.5-4.1,3.6-4.8,3.6c0,0-0.1,0-0.2-0.1c-0.3-0.2-0.8-0.9-0.8-1.2c0-2,4.2-6,7.5-6
		c0.7,0,1.6,0.3,1.6,1.1c0,0.3-0.2,0.6-0.3,0.9c0,0-0.1,0-0.1,0c0.1-0.2,0.2-0.4,0.2-0.7c0-0.5-0.3-0.8-0.9-0.8
		c-1.1,0.1-2.4,0.8-3.6,1.8c-1.7,1.5-3.1,3.8-2.9,3.8c0,0,0.1,0,0.1,0c0.6-0.2,3.1-2,4.1-2.8c0.3-0.3,1.5-1.4,2-1.7
		c0.4-0.2,1,0.8,0.9,1c-0.1-0.2-1.7,1.8-2.3,3c-0.1,0.3-0.2,0.5-0.2,0.6c1.1-0.3,3.7-2.8,4.9-3.9c0.1-0.1,0.2,0.1,0.1,0.1
		c-1.6,1.7-4.5,4.8-5.6,4.8c-0.1,0-0.2,0-0.3-0.1c-0.3-0.1-0.6-0.5-0.6-0.9c0-0.2,0.1-0.4,0.1-0.7C14.8,60.5,15.3,59.7,15.6,59.2z"
		/>
	<path class="st0" d="M27.1,55.7c0.1-0.1,0.2-0.1,0.3-0.1c0.4,0,1.1,0.7,1.1,1.2c0,0.1-0.1,0-0.2,0c-0.3,0-0.9,0.7-1.5,1.4
		c-0.5,0.7-1.1,1.5-1.5,2.2c1-1.3,2.8-2.8,4.3-3.9c0.7-0.5,1.3-0.8,1.6-0.9c0.2,0,0.9,0.8,0.8,0.9c-0.4,0.4-1.9,1.7-2.5,3.2
		c0.9-0.1,2.1-0.9,3.2-1.9c0,0,0.1,0,0.1,0c-0.3,0.4-2.5,2.5-3.8,2.5c-0.3,0-0.9-0.6-0.9-0.9c0-0.5,0.6-1.6,1.1-2.1
		c-1.7,1-2.5,1.7-3.8,3.1c-0.9,1-2,2.6-1.6,2.8c-0.5,0.1-1-0.4-1.1-0.9c0-0.2,0.1-0.5,0.3-0.9c0.5-1,1.3-2.3,2-3.3
		C25.9,56.9,26.7,56,27.1,55.7z"/>
	<path class="st0" d="M32,61.7c0,0.2,0.1,0.3,0.5,0.3c1.3,0,4.6-2.5,6.5-4c0.1,0,0.2,0.1,0.1,0.1c-1.4,1.3-5,4.7-7.4,4.7
		c-0.6,0-1.3-0.7-1.3-1.1c0-0.4,0.1-0.8,0.3-1.2c0.4-1,1.4-2.2,2.5-3.1c1.5-1.3,3.1-1.8,3.9-1.8c0.3,0,1.1,0.4,1.1,0.9
		c0,1.1-3.5,3.7-5.5,3.8C32.4,60.6,32.1,61.2,32,61.7z M33,59.9c1.6-0.2,4.6-3.1,4.7-3.8C35.7,56.7,33.6,58.9,33,59.9z"/>
	<path class="st0" d="M39.5,58.8c-0.1,0.3,0.4,0.6,0.5,0.8c2.9-1.6,5.2-2,5.5-2c0,0,0.1,0,0.1,0.1c0.2,0.1-3.4,1-5.4,2.2
		c0.2,0.2,0.7,0.7,0.6,1.1C40.6,62,38.2,63,37,63c-0.4,0-0.6-0.3-0.7-0.7c0.1-0.8,2.7-2.3,3.4-2.6c-0.2-0.3-1.3-0.9-1.1-1.7
		c0.3-1.4,2.9-2.7,4.5-2.7c0.5,0,0.7,0.8,0.7,1.4c0,0.3-1.2,1.3-1.7,1.3c0,0-0.1-0.1,0-0.1c0.1,0,1.3-1.3,1.3-1.6
		C42.5,56.2,39.7,57.9,39.5,58.8z M36.8,62.1c0.7-0.2,3-1.4,3-2.1C38.7,60.6,37.3,61.5,36.8,62.1z"/>
	<path class="st0" d="M48.3,58.1c-1.8,1.9-4.3,4.5-5.4,4.7c0,0-0.1,0-0.1,0c-0.3,0-0.9-0.5-0.9-0.9c0-0.8,1-2.6,2-4
		c0.6-0.9,1.4-1.8,1.9-2.1c0.1-0.1,0.2-0.1,0.3-0.1c0.4,0,1.1,0.7,1.1,1.2c0,0.1-0.1,0-0.2,0c-0.3,0-1,0.9-1.7,1.7
		c-0.9,1.2-1.8,2.8-1.8,3.3c0.9-0.4,2.7-2,3.6-2.8c0.9-0.9,2.3-2.5,3.3-3.3c0.1-0.1,0.2-0.1,0.3-0.1c0.4,0,1.1,0.7,1.1,1.2
		c0,0.1-0.1,0-0.2,0c-0.1,0-0.4,0.2-0.6,0.4c-0.3,0.3-0.8,0.9-1.4,1.7c-0.9,1.2-1.6,2.5-1.6,3c1.1-0.3,3.7-2.8,4.8-3.9
		c0.1-0.1,0.2,0.1,0.1,0.1c-1.6,1.7-4.5,4.8-5.6,4.8c-0.1,0-0.2,0-0.3-0.1c-0.3-0.1-0.7-0.6-0.7-0.9c0-0.2,0.1-0.5,0.2-0.8
		C46.9,60.2,47.6,58.9,48.3,58.1z"/>
	<path class="st0" d="M57.1,51.4c0.5-0.7,1.1-1.3,1.5-1.7c0.3-0.2,0.5-0.4,0.7-0.4c1-0.1,1.7,1,1.4,0.8c-0.6-0.3-1.8,1.4-2.6,2.4
		c-0.8,1-1.5,2.1-2.4,3.4c-1.6,2.4-2.9,4.7-3.4,5.9c0.7,0.1,3.4-2.4,4.6-3.6c0.4-0.7,0.8-1.4,1.4-2.3c0.5-0.8,1-1.5,1.5-2.3
		c-1.8,0.5-1.4,0.7-1,1c-0.3,0-0.9-0.3-1-0.9c-0.1-0.8,1.6-1.1,2.8-1.2c1.4-1.9,1.9-2.4,2.4-2.8c0.3-0.2,0.5-0.4,0.7-0.4
		c1-0.1,1.7,1,1.4,0.8c-0.6-0.3-1.7,1.2-2.5,2.2c3-0.2,7,0,9.7,0.5c0.1,0,0.2,0.1,0,0.1c-3.8-0.3-7.2-0.3-10.4,0.2
		c-0.6,0.8-1.3,1.7-1.9,2.8c-1.6,2.4-2.9,4.7-3.4,5.9c0.8,0.1,3.8-2.9,4.9-3.8c0.1-0.1,0.2,0.1,0.1,0.1c-0.9,1-4,4.3-5.1,4.7
		c-0.2,0.1-0.4,0-0.6-0.1c-0.1-0.1-0.5-0.5-0.7-0.7c0,0-0.1-0.1-0.1-0.3c0-0.3,0.3-1.2,1.2-2.7c-1.3,1.4-3.4,3.5-4.3,3.8
		c-0.2,0.1-0.4,0-0.6-0.1c-0.1-0.1-0.5-0.5-0.7-0.7c0,0-0.1-0.1-0.1-0.3c0-0.5,0.8-2.3,3-5.8C55,54.2,56.1,52.6,57.1,51.4z"/>
	<path class="st0" d="M64.8,59.2c-0.5,0.5-4.1,3.6-4.8,3.6c0,0-0.1,0-0.2-0.1c-0.3-0.2-0.8-0.9-0.8-1.2c0-2,4.2-6,7.5-6
		c0.7,0,1.6,0.3,1.6,1.1c0,0.3-0.2,0.6-0.3,0.9c0,0-0.1,0-0.1,0c0.1-0.2,0.2-0.4,0.2-0.7c0-0.5-0.3-0.8-0.9-0.8
		c-1.1,0.1-2.4,0.8-3.6,1.8c-1.7,1.5-3.1,3.8-2.9,3.8c0,0,0.1,0,0.1,0c0.6-0.2,3.1-2,4.1-2.8c0.3-0.3,1.5-1.4,2-1.7
		c0.4-0.2,1,0.8,0.9,1c-0.1-0.2-1.7,1.8-2.3,3c-0.1,0.3-0.2,0.5-0.2,0.6c1.1-0.3,3.7-2.8,4.9-3.9c0.1-0.1,0.2,0.1,0.1,0.1
		c-1.6,1.7-4.5,4.8-5.6,4.8c-0.1,0-0.2,0-0.3-0.1c-0.3-0.1-0.6-0.5-0.6-0.9c0-0.2,0.1-0.4,0.1-0.7C64,60.5,64.5,59.7,64.8,59.2z"/>
	<path class="st0" d="M75.5,55.8c1.1-1.7,2.3-3.2,3.1-4.5c0.6-0.7,1.1-1.3,1.5-1.7c0.3-0.2,0.5-0.4,0.7-0.4c1-0.1,1.7,1,1.4,0.8
		c-0.6-0.3-1.8,1.4-2.6,2.4c-0.8,1-1.5,2.1-2.4,3.4c-1.6,2.4-3,4.8-3.5,5.9c1-0.1,4.2-3.2,5-3.9c0.1-0.1,0.2,0.1,0.1,0.1
		c-0.9,1-4.1,4.4-5.2,4.7c-0.2,0.1-0.4,0-0.6-0.1c-0.3-0.2-0.7-0.5-0.7-0.9c0-0.4,0.4-1.3,1.3-2.9c-0.6,0.5-4.4,4-5.3,4
		c-0.3,0-0.9-0.8-0.9-1.2c0-1,1.6-3.3,3.6-4.6c1.4-0.9,2.6-1.5,3.7-1.5C75.1,55.5,75.4,55.7,75.5,55.8z M75.4,56.1
		c-0.2-0.1-0.5-0.1-0.8,0c-0.8,0.2-2,1.1-3,2.1c-1.6,1.5-2.8,3.4-2.7,3.5c0.2,0.1,3.1-1.9,5.2-3.7L75.4,56.1z"/>
	<path class="st0" d="M84,55.8c-3.3,0-7.1,6.1-6.1,6.6c1,0.4,3.6-2.5,4.8-4.3c-0.1-0.2-0.3-0.7-0.2-0.9c0.1-0.2,0.6-0.7,0.8-0.7
		c0.2,0,0.4,0.1,0.4,0.2c0.3,0.6,0.8,1,1.5,0.9c1.2-0.1,1.9-0.8,2.1-0.8c-0.1,0.3-0.8,0.9-1.7,1.1C85.4,58,85,58,84.7,58
		c-0.3,0-0.5,0-0.5-0.1c-0.5,2.4-4.2,5-6.2,4.9c-0.8-0.1-1.4-0.7-1.4-1.4c0-3,4-5.9,6.8-5.9c0.7,0,1,0.2,1.1,0.3
		c0.1,0.1,0,0.1,0,0.1C84.3,55.9,84.2,55.8,84,55.8z"/>
	<path class="st0" d="M86.3,58.8c-0.1,0.3,0.4,0.6,0.5,0.8c2.9-1.6,5.2-2,5.5-2c0,0,0.1,0,0.1,0.1c0.2,0.1-3.4,1-5.4,2.2
		c0.2,0.2,0.7,0.7,0.6,1.1C87.4,62,85,63,83.8,63c-0.4,0-0.6-0.3-0.7-0.7c0.1-0.8,2.7-2.3,3.4-2.6c-0.2-0.3-1.3-0.9-1.1-1.7
		c0.3-1.4,2.9-2.7,4.5-2.7c0.5,0,0.7,0.8,0.7,1.4c0,0.3-1.2,1.3-1.7,1.3c0,0-0.1-0.1,0-0.1c0.1,0,1.3-1.3,1.3-1.6
		C89.3,56.2,86.5,57.9,86.3,58.8z M83.6,62.1c0.7-0.2,3-1.4,3-2.1C85.5,60.6,84.1,61.5,83.6,62.1z"/>
	<path class="st0" d="M97.6,55.6c0.1-0.1,0.2-0.1,0.3-0.1c0.4,0,1.1,0.7,1.1,1.2c0,0.1-0.1,0-0.2,0c-0.3,0-0.9,0.7-1.5,1.5
		c-0.2,0.3-1,1.4-1,1.4c1.6-1.7,5-4.2,5.9-3.9c0.2,0.1,0.9,0.8,0.9,1.1c0,1.6-3.6,6-6,6c-0.7,0-1.5-0.5-1.5-1.1
		c0-0.1,0.1-0.1,0.1-0.1c0,0.2,0.3,0.5,0.7,0.5c1.8,0,5.1-4.7,5.3-5.7c-0.3,0-3.2,1.5-6.4,4.8c-1.8,2.5-4.3,6.4-4.8,9.1
		c-0.1,0.5-0.1,0.8,0.3,0.9c-0.8,0.3-1.7-0.3-1.5-1.5c0.4-3,4-8.7,6.8-12.3C96.5,56.7,97.2,55.9,97.6,55.6z"/>
	<path class="st0" d="M109.3,55.8c-3.3,0-7.1,6.1-6.1,6.6c1,0.4,3.6-2.5,4.8-4.3c-0.1-0.2-0.3-0.7-0.2-0.9c0.1-0.2,0.6-0.7,0.8-0.7
		c0.2,0,0.4,0.1,0.4,0.2c0.3,0.6,0.8,1,1.5,0.9c1.2-0.1,1.9-0.8,2.1-0.8c-0.1,0.3-0.8,0.9-1.7,1.1c-0.4,0.1-0.8,0.2-1.1,0.2
		c-0.3,0-0.5,0-0.5-0.1c-0.5,2.4-4.2,5-6.2,4.9c-0.8-0.1-1.4-0.7-1.4-1.4c0-3,4-5.9,6.8-5.9c0.7,0,1,0.2,1.1,0.3
		c0.1,0.1,0,0.1,0,0.1C109.5,55.9,109.4,55.8,109.3,55.8z"/>
	<path class="st0" d="M111.5,58.8c-0.1,0.3,0.4,0.6,0.5,0.8c2.9-1.6,5.2-2,5.5-2c0,0,0.1,0,0.1,0.1c0.2,0.1-3.4,1-5.4,2.2
		c0.2,0.2,0.7,0.7,0.6,1.1c-0.3,1.2-2.6,2.1-3.8,2.1c-0.4,0-0.6-0.3-0.7-0.7c0.1-0.8,2.7-2.3,3.4-2.6c-0.2-0.3-1.3-0.9-1.1-1.7
		c0.3-1.4,2.9-2.7,4.5-2.7c0.5,0,0.7,0.8,0.7,1.4c0,0.3-1.2,1.3-1.7,1.3c0,0-0.1-0.1,0-0.1c0.1,0,1.3-1.3,1.3-1.6
		C114.6,56.2,111.8,57.9,111.5,58.8z M108.8,62.1c0.7-0.2,3-1.4,3-2.1C110.7,60.6,109.3,61.5,108.8,62.1z"/>
	<path class="st0" d="M135.6,52.9C135.8,53,135.8,53,135.6,52.9c-3.9-0.3-7.5-0.3-10.7,0.3c-0.6,0.8-1.2,1.7-1.9,2.7
		c-1.6,2.4-3,4.7-3.4,5.9c0.8,0.1,3.8-2.9,4.9-3.8c0.1-0.1,0.2,0.1,0.1,0.1c-0.9,1-4,4.3-5.1,4.7c-0.2,0.1-0.4,0-0.6-0.1
		c-0.1-0.1-0.5-0.5-0.7-0.7c0,0-0.1-0.1-0.1-0.3c0-0.3,0.3-1.1,1-2.4c-1.6,1.6-3.5,3.4-4.4,3.5c-0.1,0-0.1,0-0.2,0
		c-0.3-0.1-0.7-0.5-0.7-0.9c0-1.1,2.6-5,3.8-5.9c0.1-0.1,0.2-0.1,0.3-0.1c0.4,0,1.1,0.7,1.1,1.2c0,0.1-0.1,0-0.2,0
		c-0.7-0.1-3.2,4.1-3.4,4.8c0.9-0.2,3-2.1,4.3-3.3c0.4-0.7,0.9-1.6,1.6-2.6l1.4-2.1c-0.1-0.1-0.2-0.2-0.3-0.3
		c-0.5-0.6,0.2-0.9,1.3-1.1l0.9-1.1c0.5-0.7,1.1-1.3,1.5-1.7c0.3-0.2,0.5-0.4,0.7-0.4c1-0.1,1.7,1,1.4,0.8c-0.6-0.3-1.7,1.2-2.5,2.3
		C128.6,52.2,132.8,52.3,135.6,52.9z M120.7,53.7c0.2,0.2,0.3,0.5,0.2,0.5c0,0-0.2-0.1-0.4,0c-0.3,0.1-1.1,0.9-1.4,1.2
		c-0.3,0.3-0.6-0.1-0.7-0.4c0-0.5,0.7-1.7,1.1-1.9C120,53.1,120.4,53.4,120.7,53.7z"/>
	<path class="st0" d="M122.9,62.8c-0.3-0.1-0.7-0.5-0.7-0.9c0-1.1,2.6-5,3.8-5.9c0.1-0.1,0.2-0.1,0.3-0.1c0.4,0,1.1,0.7,1.1,1.2
		c0,0.1-0.1,0-0.2,0c-0.7-0.1-3.2,4.1-3.4,4.8c1.1-0.3,3.8-2.8,4.9-3.9c0.1-0.1,0.2,0.1,0.2,0.1c-1.6,1.7-4.5,4.7-5.6,4.8
		C123.1,62.8,123,62.8,122.9,62.8z M129,53.7c0.2,0.2,0.3,0.5,0.2,0.5c0,0-0.2-0.1-0.4,0c-0.3,0.1-1.1,0.9-1.4,1.2
		c-0.3,0.3-0.6-0.1-0.7-0.4c0-0.5,0.7-1.7,1.1-1.9C128.3,53.1,128.7,53.4,129,53.7z"/>
	<path class="st0" d="M128.1,58.5c0.6-1.3,1.3-2.3,1.8-2.8c0.1-0.1,0.2-0.1,0.2-0.1c0.4,0,1.1,0.7,1.1,1.2c0,0.1,0,0-0.2,0
		c-0.3,0-0.9,0.9-1.5,2c-0.7,1.2-1,2.4-1.1,2.6c1.6-1.2,5.2-4.9,6.8-6.7c0.1-0.1,0.2-0.2,0.1,0c-1.9,3.3-7.1,8-7.6,8
		c-0.4,0-0.8-0.6-0.8-0.7C127,61.4,127.4,60,128.1,58.5z"/>
	<path class="st0" d="M139.8,55.8c-3.3,0-7.1,6.1-6.1,6.6c1,0.4,3.6-2.5,4.8-4.3c-0.1-0.2-0.3-0.7-0.2-0.9c0.1-0.2,0.6-0.7,0.8-0.7
		c0.2,0,0.4,0.1,0.4,0.2c0.3,0.6,0.8,1,1.5,0.9c1.2-0.1,1.9-0.8,2.1-0.8c-0.1,0.3-0.8,0.9-1.7,1.1c-0.4,0.1-0.8,0.2-1.1,0.2
		c-0.3,0-0.5,0-0.5-0.1c-0.5,2.4-4.2,5-6.2,4.9c-0.8-0.1-1.4-0.7-1.4-1.4c0-3,4-5.9,6.8-5.9c0.7,0,1,0.2,1.1,0.3
		c0.1,0.1,0,0.1,0,0.1C140.1,55.9,140,55.8,139.8,55.8z"/>
	<path class="st0" d="M142.1,58.8c-0.1,0.3,0.4,0.6,0.5,0.8c2.9-1.6,5.2-2,5.5-2c0,0,0.1,0,0.1,0.1c0.2,0.1-3.4,1-5.4,2.2
		c0.2,0.2,0.7,0.7,0.6,1.1c-0.3,1.2-2.6,2.1-3.8,2.1c-0.4,0-0.6-0.3-0.7-0.7c0.1-0.8,2.7-2.3,3.4-2.6c-0.2-0.3-1.3-0.9-1.1-1.7
		c0.3-1.4,2.9-2.7,4.5-2.7c0.5,0,0.7,0.8,0.7,1.4c0,0.3-1.2,1.3-1.7,1.3c0,0-0.1-0.1,0-0.1c0.1,0,1.3-1.3,1.3-1.6
		C145.1,56.2,142.3,57.9,142.1,58.8z M139.4,62.1c0.7-0.2,3-1.4,3-2.1C141.3,60.6,139.9,61.5,139.4,62.1z"/>
</g>
</svg>
