<?xml version="1.0" encoding="utf-8"?>
<!-- Generator: Adobe Illustrator 19.2.1, SVG Export Plug-In . SVG Version: 6.00 Build 0)  -->
<svg version="1.1" id="Capa_1" xmlns="http://www.w3.org/2000/svg" xmlns:xlink="http://www.w3.org/1999/xlink" x="0px" y="0px"
	 viewBox="0 0 1024 768" style="enable-background:new 0 0 1024 768;" xml:space="preserve">
<style type="text/css">
	.st0{fill:#EF8000;}
</style>
<g>
	<path class="st0" d="M230.5,252.1c-2.4,2.5-4.9,4.9-7.4,7.2c-2.5,2.3-5.1,4.5-7.7,6.7c-2.3,2-4.9,4-7.8,5.9
		c-2.9,1.9-5.9,2.8-9.2,2.8c-3.1-0.1-5.5-1.3-7.2-3.5c-1.7-2.2-2.5-4.9-2.5-8c0-1.6,0.3-3.3,1-4.9c0.7-1.6,1.4-3.1,2.2-4.4
		c0.9-1.4,1.8-2.8,2.7-4.1c0.9-1.3,1.9-2.6,3-4c4.2-5.4,8.6-10.5,13.3-15.4c4.7-4.8,9.1-10,13.1-15.5c1-1.3,1.9-2.6,2.8-3.9
		c0.9-1.4,1.7-2.7,2.5-4.1c0.5-0.9,1-2,1.7-3.3c0.6-1.3,1.1-2.5,1.3-3.7c0.2-1.2,0.1-2.1-0.3-2.7c-0.4-0.6-1.5-0.7-3.1-0.1
		c-2.4,0.7-4.7,1.7-6.7,3c-2.1,1.4-4.1,2.8-6,4.2c-5.4,4.3-10.5,8.9-15.4,13.8c-4.8,4.8-9.6,9.9-14.2,15.1
		c-4.7,5.2-9.3,10.5-13.8,15.9c-4.5,5.4-8.9,10.9-13.3,16.5l-3.2,4.2c-0.5,0.6-0.9,1.1-1.3,1.5c-0.4,0.4-1,0.7-1.7,0.8
		c-1.4,0.3-2.7,0.1-4-0.6c-1.3-0.7-2.2-1.7-2.5-3c-0.3-0.8-0.3-1.4-0.1-2c0.2-0.5,0.5-1.1,1-1.8l3-4.3c3.7-4.9,7-9.3,10.1-13.3
		c3.1-3.9,5.9-7.5,8.5-10.8c2.6-3.3,5.1-6.3,7.4-9.1c2.3-2.8,4.6-5.6,6.8-8.4c2-2.5,4.1-5.1,6.2-7.8c2.1-2.7,3.9-5.6,5.4-8.7
		c1.1-2.4,1.2-4,0.5-4.7c-0.7-0.7-1.8-1-3.3-0.8c-1.4,0.2-3,0.7-4.8,1.4s-3.1,1.3-4.1,1.8c-2.9,1.4-5.6,3.1-8.2,5
		c-2.6,1.9-4.9,4.1-6.9,6.6c-2.2,2.6-3.8,5.3-4.8,8.1c-1,2.8-1,5.7-0.1,8.8c0.3,0.9,0.3,1.7,0,2.4c-0.3,0.7-0.8,1.3-1.5,1.7
		c-0.7,0.4-1.5,0.7-2.4,0.7c-0.9,0-1.7-0.2-2.6-0.7c-1.6-0.8-2.7-2.1-3.2-4.1c-0.5-2-0.7-3.8-0.7-5.4c0-3.3,0.6-6.4,1.9-9.3
		c1.3-2.9,2.9-5.6,5.1-8.1c2.1-2.5,4.5-4.8,7.2-6.8c2.7-2,5.3-3.8,7.9-5.2c2.9-1.6,6.1-3,9.5-4.1c3.4-1.1,6.8-1.5,10.2-1.1
		c1.4,0.2,2.9,0.6,4.3,1.2s2.7,1.3,3.8,2.2c1.1,0.9,2,2,2.6,3.3c0.6,1.3,0.9,2.8,0.8,4.4c2.3-1.9,4.8-3.8,7.3-5.6
		c2.6-1.8,5.3-3.2,8.2-4.3c2.7-1.1,5.6-1.6,8.7-1.6c3.1,0,5.8,1,8.1,2.9c2.2,1.9,3.4,4.2,3.5,6.8c0.1,2.6-0.2,5.2-1.1,7.7
		c-1.1,2.5-2.3,5-3.8,7.3c-1.4,2.4-3,4.7-4.6,6.9c-3.4,4.6-7,9-10.9,13.1c-3.9,4.1-7.6,8.3-11.3,12.7c-1.8,2.1-3.6,4.3-5.4,6.4
		c-1.7,2.2-3.3,4.5-4.6,7c-0.5,0.9-0.9,1.8-1.3,2.9c-0.4,1.1-0.6,1.9-0.5,2.5c0,0.6,0.4,1,1.1,1c0.7,0,1.8-0.5,3.3-1.5
		c1.3-0.6,2.6-1.5,4.1-2.7c1.5-1.2,3.1-2.6,4.7-4.1c1.6-1.5,3.3-3.1,5.1-4.8c1.7-1.7,3.5-3.4,5.2-5.1c0.5-0.4,0.9-0.8,1.4-1.3
		c0.4-0.5,0.9-0.9,1.4-1.2c1.1-0.5,2.1-0.5,3-0.1c0.9,0.4,1.7,1,2.2,1.9s0.9,1.8,1,2.8C231.4,250.6,231.1,251.4,230.5,252.1z"/>
	<path class="st0" d="M217.2,266.6c-0.5-2.6-0.4-5.3,0.4-8c0.7-2.7,1.7-5.3,3-7.8c1.3-2.5,2.8-4.8,4.5-7s3.3-4.1,4.9-5.7
		c1.9-2.2,4-4.3,6.2-6.2c2.2-1.9,4.6-3.5,7.2-4.9c1.8-1.1,4-1.9,6.4-2.5c2.4-0.6,4.8-0.7,7-0.5c2.3,0.2,4.3,1,6.1,2.2
		c1.8,1.3,3,3.2,3.5,5.8c0.5,2.5,0.4,5.1-0.3,7.8c-0.7,2.7-1.7,5.2-3,7.7c-1.3,2.5-2.8,4.8-4.5,7c-1.7,2.2-3.3,4.2-4.9,5.9
		c-1.9,2.2-4,4.3-6.2,6.2c-2.2,1.9-4.6,3.6-7.2,4.9c-1.9,1.1-4.1,1.9-6.6,2.5c-2.5,0.6-4.9,0.8-7.2,0.6c-2.3-0.2-4.3-1-6.1-2.3
		C218.8,271.3,217.7,269.3,217.2,266.6z M248.5,235.3c-2.3,1.6-4.5,3.4-6.5,5.2c-3.3,3.2-6.2,6.6-8.8,10.2
		c-2.6,3.6-4.5,7.5-5.7,11.5c-0.7,1.9-0.8,3.2-0.3,3.8c0.5,0.6,1.2,0.7,2.2,0.5c1-0.2,2.1-0.7,3.3-1.3c1.2-0.6,2.1-1.2,2.8-1.7
		c1.2-0.8,2.3-1.6,3.3-2.5c1.1-0.9,2.1-1.9,3.2-2.8c2.1-2,4.1-4.2,5.8-6.6c1.7-2.4,3.4-4.8,4.9-7.3c0.7-1.2,1.3-2.3,2-3.5
		c0.6-1.2,1.1-2.5,1.5-3.8c0.4-1.8,0.4-3.1,0-3.7c-0.4-0.6-1-0.9-1.8-0.8c-0.8,0.1-1.8,0.5-2.8,1.1
		C250.5,234.1,249.5,234.7,248.5,235.3z"/>
	<path class="st0" d="M298.9,269.5c-1.8-2.5-2.7-5.3-2.6-8.3c0.1-3,0.7-6,1.9-8.8c1.2-2.6,2.6-5,4.2-7.3c1.6-2.3,3.5-4.4,5.4-6.4
		c2-2,4.1-3.8,6.3-5.4c2.2-1.6,4.4-3.1,6.7-4.5c1.6-1,3.6-1.9,5.9-2.8c2.3-0.9,4.7-1.4,7.1-1.7c2.4-0.3,4.7-0.1,6.7,0.4
		c2.1,0.6,3.7,1.8,4.9,3.8c1.1,1.7,1.3,3.6,0.7,5.5c-0.6,1.9-1.4,3.7-2.3,5.4c-2.1,3.4-4.8,6.4-8.1,9.1c-3.3,2.7-6.8,4.7-10.4,6.2
		c-2.8,1.1-5.7,1.7-8.5,2c-2.9,0.3-5.7-0.1-8.4-1.2c-0.6,1.1-1,2.1-1.4,3.1c-0.3,1-0.5,2-0.4,3c0.1,1,0.4,1.9,1,2.7
		c0.6,0.8,1.5,1.5,2.9,2c2.4,0.9,5.2,0.7,8.4-0.4c3.2-1.2,6.4-2.8,9.5-4.8c3.1-2,6-4.2,8.7-6.4c2.7-2.3,4.7-4.1,6.2-5.4
		c0.7-0.7,1.4-1.4,2.1-2.2c0.7-0.8,1.5-1.4,2.4-1.8c0.9-0.3,1.7-0.3,2.5-0.1c0.8,0.2,1.4,0.6,2,1.2s1,1.2,1.2,2
		c0.2,0.7,0.2,1.4-0.1,2.1c-0.3,0.9-0.8,1.7-1.7,2.5c-0.8,0.8-1.6,1.6-2.2,2.2c-3.7,3.5-6.5,6-8.5,7.6c-2,1.6-3.8,3-5.4,4.1
		c-2.4,1.7-5.3,3.4-8.6,5c-3.3,1.6-6.7,2.7-10.1,3.3c-3.4,0.6-6.7,0.6-9.9-0.1C303.7,274.2,301.1,272.4,298.9,269.5z M317.6,248
		c3.6-0.6,6.9-1.9,9.9-4.1c3-2.1,5.5-4.4,7.5-6.8c0.8-0.9,1.3-1.8,1.7-2.8c0.3-1,0.3-1.6-0.2-1.9c-2.5,0.7-4.9,1.6-7.1,2.9
		c-2.2,1.3-4.3,2.7-6.4,4.2c-3.5,2.5-6.5,5.3-9.1,8.4C315,248.2,316.3,248.2,317.6,248z"/>
	<path class="st0" d="M346.2,246c1.9-1.9,3.8-3.9,5.5-5.9c1.7-2,3.4-4,5.1-6.2c0.9-1.4,1.6-2.5,2.2-3.3c0.6-0.9,1-1.6,1.4-2.1
		c0.3-0.5,0.6-0.9,0.8-1.2c0.2-0.2,0.4-0.5,0.6-0.7c0.6-0.5,1.3-0.7,2.2-0.7c0.9,0,1.8,0.2,2.5,0.4c1.5,0.7,2.7,1.7,3.5,3.2
		c0.5,0.8,0.6,1.5,0.4,2.1c-0.2,0.6-0.4,1.3-0.7,2.1c-0.8,1.9-1.4,3.9-2,5.9c-0.6,2-1.1,4-1.6,6c3.4-3.1,6.3-5.7,8.8-7.9
		c2.5-2.2,4.6-4.1,6.4-5.7c1.8-1.6,3.5-3,4.9-4.2c1.4-1.2,2.8-2.3,4.1-3.4c0.6-0.5,1.2-1,1.7-1.5c0.6-0.5,1.2-1,1.9-1.4
		c1-0.6,2.1-0.5,3.5,0.1c1.1,0.6,1.9,1.4,2.6,2.5c0.7,1.1,1,2.3,1,3.5c-0.1,0.7-0.4,1.2-0.8,1.6c-0.4,0.4-0.9,0.8-1.4,1.2
		c-0.2,0.2-0.4,0.4-0.7,0.7c-0.2,0.2-0.7,0.7-1.5,1.3c-0.8,0.6-1.9,1.5-3.3,2.8c-1.4,1.2-3.3,2.9-5.7,4.9c-2.4,2.1-5.5,4.7-9.1,7.8
		c-3.7,3.1-8.1,6.9-13.3,11.4c0.4,3,1.1,5.1,2,6.3c1,1.2,2.8,0.9,5.4-0.8c2.8-1.7,5.6-3.9,8.3-6.5c2.8-2.6,6.2-5.9,10.4-9.9
		c0.5-0.5,1-1,1.5-1.5c0.5-0.5,1.1-1,1.7-1.5c0.9-0.7,1.8-0.9,2.8-0.8c1,0.1,1.8,0.5,2.5,1.1c0.7,0.6,1.1,1.3,1.4,2.2
		c0.2,0.9,0.1,1.9-0.4,2.8c-0.2,0.5-0.5,0.9-0.9,1.2c-0.4,0.3-0.8,0.7-1.2,1.2c-2.6,2.5-4.8,4.6-6.6,6.2c-1.8,1.6-3.3,3-4.4,4.1
		c-1.2,1.1-2.2,2-3,2.7c-0.8,0.7-1.6,1.3-2.2,1.9c-1.9,1.5-4.1,3.1-6.4,4.6c-2.3,1.5-4.8,2.2-7.4,2.2c-3.2,0.2-5.7-0.5-7.6-2.2
		c-1.9-1.6-3.4-3.7-4.4-6.1c-1.7,1.5-3.5,3.1-5.4,4.8c-1.8,1.6-4.3,3.9-7.4,6.7c-0.5,0.4-0.9,0.7-1.2,1c-0.3,0.3-0.8,0.4-1.4,0.4
		c-1.2,0-2.2-0.4-3.1-1.2c-0.9-0.8-1.5-1.8-1.7-2.8c-0.3-1.2,0-2.2,0.9-3c0.9-0.8,1.7-1.6,2.5-2.4c2.3-2.2,4.3-4.1,5.8-5.6
		c1.5-1.5,2.9-2.8,4-3.8c1.1-1.1,2.1-2,2.8-2.7c0.8-0.7,1.5-1.4,2.2-2.1c0-2.3,0.1-4.6,0.4-7l-1.7,1.7c-0.9,0.9-1.8,1.6-2.8,2.1
		c-1,0.5-2.2,0.4-3.4-0.4c-1.2-0.7-1.9-1.7-2.1-3C344.7,248.3,345.1,247.1,346.2,246z"/>
	<path class="st0" d="M395.7,275.1c-1.8,0.1-3.6-0.2-5.2-0.9c-1.6-0.7-2.9-1.9-3.8-3.5c-1.1-1.7-1.5-3.6-1.4-5.7s0.6-4,1.2-5.8
		c1.4-4.2,3.4-8,6.2-11.5c2.8-3.5,5.5-6.9,8.3-10.2c1.4-1.6,2.7-3.3,4.1-4.9c1.4-1.6,2.9-3.1,4.4-4.6c0.7-0.7,1.4-1.4,2.1-2
		c0.7-0.7,1.6-1.1,2.5-1.2c1.6,0,2.9,0.6,3.9,1.9c1,1.3,1.5,2.6,1.7,3.9c0,0.8-0.1,1.4-0.4,1.8c-0.2,0.4-0.6,0.9-1.1,1.5
		c-3.2,3.4-6.3,6.7-9.3,10c-3,3.3-5.8,6.8-8.4,10.4c-1.8,2.5-3.1,4.7-3.9,6.5c-0.8,1.8-1,3.1-0.7,3.9c0.3,0.8,1.1,0.9,2.5,0.3
		c1.4-0.6,3.4-2,5.9-4.3c1.4-1.3,2.9-2.7,4.6-4.4c1.7-1.7,4.2-4.2,7.6-7.6c0.7-0.7,1.3-1.4,2-2.1c0.6-0.7,1.4-1.3,2.2-1.7
		c1.5-0.6,3-0.4,4.3,0.7c1.3,1,1.8,2.3,1.5,4c-0.2,1-0.6,1.8-1.2,2.4c-0.6,0.6-1.3,1.3-2,2l-4.2,4.3c-1.4,1.4-2.7,2.7-4.1,4.1
		c-1.4,1.4-2.8,2.7-4.2,4.1c-2.9,2.8-5.5,4.9-7.9,6.4C400.8,274.3,398.3,275,395.7,275.1z M429.5,215c-1.7,0-3.2-0.7-4.5-2
		c-1.3-1.3-1.9-2.8-1.9-4.4c0-1.7,0.6-3.2,1.9-4.5c1.3-1.3,2.8-1.9,4.5-1.9c1.6,0,3.1,0.6,4.4,1.9c1.3,1.3,2,2.8,2,4.5
		c0,1.6-0.6,3.1-1.9,4.4C432.7,214.4,431.2,215,429.5,215z"/>
	<path class="st0" d="M419.3,246c1.6-1.6,3.2-3.3,4.7-4.9c1.5-1.6,3-3.3,4.4-5c1.4-1.6,2.7-3.4,4.1-5.1c1.4-1.8,2.8-3.8,4.5-6.2
		c0.8-3.1,1.9-5.9,3.5-8.4c1.4-2.2,3.3-4.1,5.6-5.6c2.3-1.5,4.8-2.2,7.6-2.2c1.4,0,2.5,0.3,3.5,1c1,0.7,1.5,1.6,1.6,2.9
		c0,0.9-0.2,1.6-0.5,2.2c-0.3,0.6-0.8,1.1-1.4,1.5c-0.6,0.4-1.2,0.8-1.9,1.1c-0.7,0.3-1.3,0.6-1.9,1c-1.6,1.1-2.9,2.4-3.8,3.9
		c-0.9,1.5-1.6,3.1-2,4.8c-1,4.1-1.5,8.2-1.6,12.4c-0.1,4.2-0.4,8.4-0.9,12.5c-0.3,3.3-1.1,6.4-2.4,9.2c-1.3,2.9-3,5.3-5,7.5
		c-2,2.1-4.4,3.8-7.1,5c-2.7,1.2-5.7,1.7-9,1.5c-2.8-0.1-5.4-0.7-7.7-2c-2.3-1.2-4.2-2.8-5.7-4.6c-1.5-1.9-2.5-4.1-2.9-6.5
		s-0.2-5,0.8-7.6c0.4-1.2,1.1-1.9,2.2-2.3c1.1-0.4,2.2-0.5,3.2-0.2c1,0.2,1.9,0.8,2.5,1.6c0.7,0.8,0.8,1.8,0.4,3
		c-1,3.1-0.6,5.6,1.1,7.4c1.7,1.8,3.9,2.8,6.7,2.8c2.2,0,4.3-0.8,6.4-2.5c2-1.7,3.5-3.5,4.3-5.6c0.4-0.8,0.7-1.6,0.9-2.5
		c0.2-0.9,0.4-2,0.5-3.3c0.1-1.3,0.3-2.8,0.4-4.6c0.1-1.8,0.2-4,0.4-6.6c-1.7,2.1-3.5,4.1-5.1,5.9c-1.7,1.8-3.4,3.5-5,4.9
		c-1,0.9-2,1.2-3,0.9c-1-0.2-1.9-0.7-2.5-1.5c-0.7-0.8-1.1-1.7-1.2-2.8C418.1,247.9,418.5,246.9,419.3,246z"/>
	<path class="st0" d="M533.5,212.7c-0.5,0.8-1.3,1.2-2.5,1.2c-1.2,0-2.1,0-2.9,0c-5,0.3-9.9,0.6-14.8,1c-4.8,0.4-9.6,0.9-14.3,1.4
		c-3.8,4.1-7,7.5-9.6,10.4c-2.6,2.9-4.9,5.4-6.9,7.5c-2,2.1-3.7,4-5.1,5.7c-1.4,1.6-2.8,3.2-4.1,4.8c-2.4,2.8-4.9,5.7-7.3,8.8
		c-2.5,3-4.3,6.3-5.6,9.8c-0.6,1.9-0.5,3,0.3,3.1c0.8,0.1,1.8-0.1,3-0.8c1.2-0.7,2.4-1.5,3.5-2.4c1.2-0.9,1.9-1.5,2.2-1.8
		c1.4-1.3,2.8-2.7,4.4-4.3c1.6-1.6,3.9-4.2,7-7.5c0.6-0.7,1.2-1.4,1.9-2.2c0.7-0.8,1.4-1.4,2.2-1.9c1.4-0.9,2.7-1,4.1-0.3
		c1.4,0.7,2.2,1.8,2.4,3.3c0.1,0.9,0,1.6-0.4,2.2c-0.3,0.6-0.8,1.2-1.4,1.8c-1.6,1.7-3,3.2-4.2,4.5c-1.2,1.3-2.2,2.4-3.1,3.3
		c-0.9,1-1.7,1.8-2.4,2.5c-0.7,0.7-1.4,1.4-2,2.1c-2.3,2.4-4.9,4.7-7.8,6.7c-2.9,2.1-6.1,3.2-9.8,3.4c-3.1,0.2-5.7-0.7-7.7-2.8
		s-2.9-4.4-2.8-7.2c0.2-2.8,0.9-5.6,2.2-8.4c1.3-2.8,2.9-5.4,4.6-7.9c1.8-2.5,3.3-4.4,4.4-5.9c3.6-4.3,7.2-8.6,10.9-12.8
		c3.7-4.2,7.5-8.3,11.4-12.4l-8.3,0.7c-0.8,0.1-1.5,0.2-2.3,0.4c-0.8,0.1-1.4-0.2-2-0.9c-1.4-1.7-1.8-3.6-1.2-5.7
		c0.3-1.1,0.8-1.7,1.7-1.8c0.8-0.1,1.7-0.3,2.7-0.5c0.6-0.1,1.2-0.2,2-0.3c0.7-0.1,1.8-0.2,3.1-0.4c1.4-0.2,3.2-0.5,5.4-0.8
		c2.3-0.3,5.2-0.7,8.9-1.2c2.6-2.7,5.2-5.4,7.9-8c2.7-2.7,5.4-5.2,8.2-7.6c0.7-0.6,1.3-1.2,1.9-1.7s1.2-1.1,1.9-1.6
		c0.7-0.5,1.4-0.7,2-0.6c0.7,0.1,1.3,0.3,1.9,0.7c1.1,0.6,2,1.4,2.7,2.6s1,2.4,0.8,3.6c-0.2,0.8-0.6,1.4-1.2,2
		c-0.6,0.5-1.2,1-1.7,1.5l-7.7,7.2c3.8-0.5,7.1-0.8,10-1.1c2.9-0.2,5.7-0.5,8.4-0.7c0.5,0,1.1,0,1.7-0.1c0.7-0.1,1.3,0,1.7,0.1
		c0.9,0.3,1.5,0.8,1.8,1.6c0.3,0.8,0.5,1.6,0.5,2.6c0,1-0.1,1.9-0.3,2.8C534,211.5,533.8,212.2,533.5,212.7z"/>
	<path class="st0" d="M481.2,269.5c-1.8-2.5-2.7-5.3-2.6-8.3c0.1-3,0.7-6,1.9-8.8c1.2-2.6,2.6-5,4.2-7.3c1.6-2.3,3.5-4.4,5.4-6.4
		c2-2,4.1-3.8,6.3-5.4c2.2-1.6,4.4-3.1,6.7-4.5c1.6-1,3.6-1.9,5.9-2.8c2.3-0.9,4.7-1.4,7.1-1.7c2.4-0.3,4.7-0.1,6.7,0.4
		c2.1,0.6,3.7,1.8,4.9,3.8c1.1,1.7,1.3,3.6,0.7,5.5c-0.6,1.9-1.4,3.7-2.3,5.4c-2.1,3.4-4.8,6.4-8.1,9.1c-3.3,2.7-6.8,4.7-10.4,6.2
		c-2.8,1.1-5.7,1.7-8.5,2c-2.9,0.3-5.7-0.1-8.4-1.2c-0.6,1.1-1,2.1-1.4,3.1c-0.3,1-0.5,2-0.4,3c0.1,1,0.4,1.9,1,2.7
		c0.6,0.8,1.5,1.5,2.9,2c2.4,0.9,5.2,0.7,8.4-0.4c3.2-1.2,6.4-2.8,9.5-4.8c3.1-2,6-4.2,8.7-6.4c2.7-2.3,4.7-4.1,6.2-5.4
		c0.7-0.7,1.4-1.4,2.1-2.2c0.7-0.8,1.5-1.4,2.4-1.8c0.9-0.3,1.7-0.3,2.5-0.1c0.8,0.2,1.4,0.6,2,1.2c0.6,0.6,1,1.2,1.2,2
		c0.2,0.7,0.2,1.4-0.1,2.1c-0.3,0.9-0.8,1.7-1.7,2.5c-0.8,0.8-1.6,1.6-2.2,2.2c-3.7,3.5-6.5,6-8.5,7.6c-2,1.6-3.8,3-5.4,4.1
		c-2.4,1.7-5.3,3.4-8.6,5c-3.3,1.6-6.7,2.7-10.1,3.3c-3.4,0.6-6.7,0.6-9.9-0.1C486,274.2,483.3,272.4,481.2,269.5z M499.9,248
		c3.6-0.6,6.9-1.9,9.9-4.1c3-2.1,5.5-4.4,7.5-6.8c0.8-0.9,1.3-1.8,1.7-2.8c0.3-1,0.3-1.6-0.2-1.9c-2.5,0.7-4.9,1.6-7.1,2.9
		c-2.2,1.3-4.3,2.7-6.4,4.2c-3.5,2.5-6.5,5.3-9.1,8.4C497.3,248.2,498.5,248.2,499.9,248z"/>
	<path class="st0" d="M560.2,275.1c-1.5-0.1-3-0.5-4.5-1.2c-1.4-0.7-2.6-1.7-3.5-3c-4.8,5.8-9.8,11.9-14.9,18.2
		c-5.1,6.3-10.6,13.8-16.4,22.4c-0.5,0.7-0.9,1.4-1.3,2.2c-0.4,0.8-1,1.4-1.7,1.7c-1.3,0.5-2.5,0.6-3.8,0.2c-1.3-0.3-2.3-1-3.1-2.1
		c-1-1.4-1.3-2.6-0.9-3.8c0.3-0.9,0.7-1.7,1.2-2.5c0.5-0.8,1-1.5,1.5-2.3c5.8-9.1,12-17.6,18.5-25.6c6.5-8,13-15.9,19.5-23.7
		l22.7-27.8c0.4-0.6,0.8-1.1,1.2-1.4c0.4-0.4,1-0.6,1.7-0.7c0.8-0.1,1.5,0,2.3,0.3c0.8,0.3,1.7,0.9,2.8,1.9c2.5-1.4,4.7-2.5,6.7-3.3
		c1.9-0.7,4.1-0.9,6.4-0.7c2.3,0.2,4.3,1.1,5.9,2.6c1.6,1.5,2.5,3.3,2.8,5.4c0.4,2.8,0.1,5.5-0.8,8.2c-0.9,2.7-2.1,5.1-3.5,7.3
		c-3,4.6-6.5,9-10.6,13.2c-4.1,4.2-8.5,7.6-13.5,10.4c-2.2,1.3-4.5,2.3-7,3.1C565.4,275,562.9,275.3,560.2,275.1z M573.3,259.9
		c2.4-1.9,4.7-4,6.7-6.1c2.1-2.1,4.1-4.4,6-6.8c1.1-1.3,2.1-2.5,3-3.8c1-1.3,1.8-2.7,2.6-4.1c0.1-0.3,0.3-0.8,0.7-1.4
		c0.3-0.7,0.6-1.4,0.7-2c0.1-0.7,0.2-1.3,0.1-1.9c-0.1-0.6-0.5-1-1.2-1.2c-0.8-0.1-1.7,0.1-2.8,0.6c-1.1,0.5-2.2,1.1-3.3,2
		c-1.1,0.8-2.2,1.6-3.1,2.5c-1,0.8-1.7,1.5-2.3,2c-4.1,3.7-7.9,7.5-11.4,11.6c-3.6,4.1-7.1,8.3-10.4,12.6c-0.1,0.8,0,1.5,0.3,2.1
		c0.3,0.6,0.8,0.9,1.6,0.9c1.9,0,4.1-0.7,6.4-2.2C569.3,263,571.4,261.5,573.3,259.9z"/>
	<path class="st0" d="M603.8,269.5c-1.8-2.5-2.7-5.3-2.6-8.3c0.1-3,0.7-6,1.9-8.8c1.2-2.6,2.6-5,4.2-7.3c1.6-2.3,3.5-4.4,5.4-6.4
		c2-2,4.1-3.8,6.3-5.4c2.2-1.6,4.4-3.1,6.7-4.5c1.6-1,3.6-1.9,5.9-2.8c2.3-0.9,4.7-1.4,7.1-1.7c2.4-0.3,4.7-0.1,6.7,0.4
		c2.1,0.6,3.7,1.8,4.9,3.8c1.1,1.7,1.3,3.6,0.7,5.5c-0.6,1.9-1.4,3.7-2.3,5.4c-2.1,3.4-4.8,6.4-8.1,9.1c-3.3,2.7-6.8,4.7-10.4,6.2
		c-2.8,1.1-5.7,1.7-8.5,2c-2.9,0.3-5.7-0.1-8.4-1.2c-0.6,1.1-1,2.1-1.4,3.1c-0.3,1-0.5,2-0.4,3c0.1,1,0.4,1.9,1,2.7
		c0.6,0.8,1.5,1.5,2.9,2c2.4,0.9,5.2,0.7,8.4-0.4c3.2-1.2,6.4-2.8,9.5-4.8c3.1-2,6-4.2,8.7-6.4c2.7-2.3,4.7-4.1,6.2-5.4
		c0.7-0.7,1.4-1.4,2.1-2.2c0.7-0.8,1.5-1.4,2.4-1.8c0.9-0.3,1.7-0.3,2.5-0.1c0.8,0.2,1.4,0.6,2,1.2c0.6,0.6,1,1.2,1.2,2
		c0.2,0.7,0.2,1.4-0.1,2.1c-0.3,0.9-0.8,1.7-1.7,2.5c-0.8,0.8-1.6,1.6-2.2,2.2c-3.7,3.5-6.5,6-8.5,7.6c-2,1.6-3.8,3-5.4,4.1
		c-2.4,1.7-5.3,3.4-8.6,5c-3.3,1.6-6.7,2.7-10.1,3.3c-3.4,0.6-6.7,0.6-9.9-0.1C608.5,274.2,605.9,272.4,603.8,269.5z M622.4,248
		c3.6-0.6,6.9-1.9,9.9-4.1c3-2.1,5.5-4.4,7.5-6.8c0.8-0.9,1.3-1.8,1.7-2.8c0.3-1,0.3-1.6-0.2-1.9c-2.5,0.7-4.9,1.6-7.1,2.9
		c-2.2,1.3-4.3,2.7-6.4,4.2c-3.5,2.5-6.5,5.3-9.1,8.4C619.8,248.2,621.1,248.2,622.4,248z"/>
	<path class="st0" d="M651,246c2.9-2.8,5.6-5.7,8.2-8.5c2.6-2.9,5.1-5.8,7.6-8.8c0.2-0.4,0.5-0.7,0.8-1.1c0.3-0.3,0.6-0.7,0.8-1.1
		c-0.2-1-0.2-2-0.1-3.2s0.4-2.2,0.9-3.2c0.4-1,1.1-1.8,1.9-2.4c0.8-0.6,1.8-1,3-1.1c1.4-0.1,2.7,0.3,3.8,1.3c1.1,1,1.7,2.2,1.9,3.6
		c0.1,1,0,1.9-0.3,2.8c-0.3,0.9-0.7,1.8-1.2,2.7l1.6,0.7c1.4,0.7,2.9,1,4.3,1.1c1.4,0,2.8,0.5,4.1,1.2c1.3,0.8,2.2,1.8,2.8,3.2
		c0.6,1.4,0.5,2.6-0.5,3.6c-3,3.4-5.7,6.6-8.2,9.6c-2.5,3-4.8,6.1-7,9.2c-0.4,0.6-1,1.6-1.7,3c-0.8,1.4-1.4,2.8-2,4.1
		c-0.5,1.3-0.7,2.3-0.6,3.1c0.1,0.8,0.9,0.8,2.4,0c2.9-1.5,5.7-3.7,8.4-6.5c2.7-2.8,6.2-6.3,10.4-10.6c0.6-0.7,1.2-1.4,1.9-2.1
		c0.7-0.7,1.4-1.3,2.2-1.7c1.5-0.6,3-0.4,4.3,0.7s1.8,2.3,1.5,4c-0.2,1-0.6,1.8-1.2,2.4c-0.6,0.6-1.2,1.3-1.8,2
		c-1.7,1.7-3.2,3.3-4.5,4.6c-1.3,1.3-2.4,2.4-3.3,3.3c-1,0.9-1.8,1.7-2.5,2.5c-0.7,0.7-1.4,1.4-2.1,2.1c-1.1,1-2.2,2-3.3,3
		s-2.4,2-3.7,2.8c-1.3,0.9-2.7,1.6-4.1,2.1c-1.4,0.5-2.9,0.8-4.5,0.8c-2,0-3.8-0.4-5.2-1.2c-1.4-0.8-2.6-1.9-3.3-3.2
		c-0.8-1.3-1.2-2.8-1.4-4.6c-0.1-1.7,0-3.5,0.5-5.2c1-3.8,2.6-7.2,4.9-10.4c2.3-3.2,4.6-6.3,7-9.3c0.7-0.9,1.3-1.7,2-2.6
		c0.6-0.9,1.3-1.7,2.1-2.6c-0.6-0.2-1.3-0.5-2.1-0.9c-0.8-0.4-1.5-0.8-2-1.2c-0.7,0.9-1.4,1.8-2.2,2.7c-0.8,0.9-1.7,2-2.7,3.1
		c-1,1.2-2.2,2.5-3.6,4.1c-1.4,1.5-3.1,3.4-5.1,5.5c-0.6,0.6-1.2,1.2-1.7,1.9c-0.6,0.7-1.3,1.2-2,1.6c-1.1,0.6-2.1,0.7-3,0.4
		c-1-0.3-1.7-0.9-2.3-1.7c-0.6-0.8-0.9-1.7-0.9-2.7S650.2,246.9,651,246z"/>
	<path class="st0" d="M694.7,246c1.6-1.6,3.2-3.3,4.7-4.9c1.5-1.6,3-3.3,4.4-5c1.4-1.6,2.7-3.4,4.1-5.1c1.4-1.8,2.8-3.8,4.5-6.2
		c0.8-3.1,1.9-5.9,3.5-8.4c1.4-2.2,3.3-4.1,5.6-5.6c2.3-1.5,4.8-2.2,7.6-2.2c1.4,0,2.5,0.3,3.5,1c1,0.7,1.5,1.6,1.6,2.9
		c0,0.9-0.2,1.6-0.5,2.2c-0.3,0.6-0.8,1.1-1.4,1.5c-0.6,0.4-1.2,0.8-1.9,1.1c-0.7,0.3-1.3,0.6-1.9,1c-1.6,1.1-2.9,2.4-3.8,3.9
		c-0.9,1.5-1.6,3.1-2,4.8c-1,4.1-1.5,8.2-1.6,12.4c-0.1,4.2-0.4,8.4-0.9,12.5c-0.3,3.3-1.1,6.4-2.4,9.2c-1.3,2.9-3,5.3-5,7.5
		c-2,2.1-4.4,3.8-7.1,5c-2.7,1.2-5.7,1.7-9,1.5c-2.8-0.1-5.4-0.7-7.7-2c-2.3-1.2-4.2-2.8-5.7-4.6c-1.5-1.9-2.5-4.1-2.9-6.5
		s-0.2-5,0.8-7.6c0.4-1.2,1.1-1.9,2.2-2.3c1.1-0.4,2.2-0.5,3.2-0.2c1,0.2,1.9,0.8,2.5,1.6c0.7,0.8,0.8,1.8,0.4,3
		c-1,3.1-0.6,5.6,1.1,7.4c1.7,1.8,3.9,2.8,6.7,2.8c2.2,0,4.3-0.8,6.4-2.5c2-1.7,3.5-3.5,4.3-5.6c0.4-0.8,0.7-1.6,0.9-2.5
		c0.2-0.9,0.4-2,0.5-3.3c0.1-1.3,0.3-2.8,0.4-4.6c0.1-1.8,0.2-4,0.4-6.6c-1.7,2.1-3.5,4.1-5.1,5.9c-1.7,1.8-3.4,3.5-5,4.9
		c-1,0.9-2,1.2-3,0.9c-1-0.2-1.9-0.7-2.5-1.5c-0.7-0.8-1.1-1.7-1.2-2.8C693.5,247.9,693.9,246.9,694.7,246z"/>
	<path class="st0" d="M766,258.6c-2.8,3.2-5.4,5.8-7.8,8c-2.4,2.1-4.9,3.9-7.4,5.2c-2.8,1.4-5.9,2.5-9.4,3.2
		c-3.5,0.7-6.6,0.2-9.4-1.4c-1.9-1.3-3.2-2.8-3.8-4.6c-0.6-1.8-0.9-3.7-0.8-5.7c0.1-2,0.5-4,1.2-5.9c0.7-2,1.4-3.7,2.2-5.3
		c2.7-5.2,6-10,9.9-14.5c3.9-4.4,8.3-7.9,13.2-10.4c2.8-1.6,5.9-2.7,9.3-3.1c3.4-0.4,6.5,0.1,9.3,1.5c1.8,1.2,3.1,2.7,3.8,4.5
		c0.7,1.8,0.9,3.7,0.8,5.7c-0.1,2-0.6,4-1.2,5.9c-0.7,2-1.4,3.7-2.2,5.1l-2.2,3.9c3.9-0.1,7.1-1.4,9.9-3.8c0.8-0.8,1.6-1.4,2.4-1.9
		c0.8-0.5,1.8-0.6,3-0.3c1.1,0.3,1.9,0.9,2.5,1.8c0.6,0.9,0.8,1.9,0.6,3c-0.2,1.2-0.8,2.2-1.8,3c-1,0.8-2,1.6-2.8,2.2
		c-3,2.2-6.1,3.6-9.4,4.1C772.3,259.5,769.1,259.4,766,258.6z M737.8,262.2c-0.6,1.9-0.7,3.2-0.2,3.8s1.1,0.8,2,0.7
		c0.9-0.1,2-0.6,3.1-1.2c1.2-0.7,2.2-1.3,3-1.9c2.2-1.5,4.2-3.2,6.1-5c1.8-1.8,3.6-3.6,5.2-5.6c-1.6-1.6-2.9-3.5-3.7-5.6
		c-0.8-2.1-1.3-4.2-1.5-6.4c-3,3.1-5.8,6.4-8.5,10.1C740.7,254.6,738.8,258.4,737.8,262.2z M761,234c-0.2,0.6-0.3,1.3-0.4,2.2
		c-0.1,0.9-0.1,1.9-0.1,3c0,1.1,0.1,2.2,0.4,3.4s0.7,2.2,1.3,3.2c1.3-1.6,2.2-3.2,2.8-4.7c0.6-1.5,1.1-2.9,1.5-4.3
		c0.3-1.3,0.3-2.2,0.1-2.9c-0.2-0.7-0.6-1.1-1.2-1.2c-0.6-0.1-1.3-0.1-2.1,0.1C762.5,233.1,761.7,233.5,761,234z"/>
	<path class="st0" d="M807.5,275c-2.2,0.1-4-0.3-5.4-1.2c-1.4-0.9-2.4-2.2-3-3.7c-0.6-1.5-0.8-3.2-0.7-5c0.1-1.8,0.6-3.5,1.4-5.1
		c1.6-3.8,3.9-7.1,6.7-10.1c2.8-3,5.7-5.9,8.5-8.8c0.4-0.4,1.1-1.1,2.2-2.1c1.1-1,2-2,2.9-3c0.9-1,1.4-1.8,1.6-2.4
		c0.2-0.6-0.3-0.7-1.6-0.3c-2.2,0.8-4.4,1.7-6.5,2.9c-2.1,1.2-4.2,2.4-6.1,3.8c-2.2,1.6-4.4,3.3-6.6,5.1s-4.2,3.6-6.2,5.5
		c-1.2,1.1-2.4,2.4-3.8,4c-1.4,1.6-2.7,3.3-4.1,5c-1.4,1.7-2.7,3.5-4,5.3c-1.3,1.8-2.5,3.4-3.5,4.9c-0.5,0.6-0.9,1.2-1.2,1.9
		s-0.8,1.2-1.6,1.4c-1.4,0.5-2.9,0.3-4.5-0.4c-1.5-0.8-2.6-1.9-3-3.3c-0.3-0.8-0.3-1.5,0-2.2c0.3-0.7,0.6-1.3,1-1.9l3.3-5.7
		c1.3-2,2.6-4.1,4.1-6.2c1.4-2.1,3.1-4.4,5-6.9s4.1-5.2,6.7-8.3c2.6-3.1,5.6-6.6,9.1-10.6c0.4-0.4,0.8-0.8,1.2-1.2
		c0.4-0.4,0.9-0.7,1.4-0.9c1.6-0.6,3.2-0.2,4.6,1c1.4,1.3,2.2,2.7,2.4,4.3c2.4-1.6,4.9-3.1,7.5-4.3c2.6-1.2,5.5-2.1,8.5-2.5
		c2.2-0.3,4-0.1,5.2,0.4c1.3,0.6,2.3,1.4,3,2.5c0.9,1.2,1.3,2.4,1.4,3.6c0,1.3-0.1,2.5-0.5,3.7c-0.4,1.2-0.9,2.4-1.7,3.5
		c-0.7,1.1-1.4,2.2-2.1,3.1c-2.8,3.6-5.7,6.8-8.8,9.8c-3.1,2.9-5.9,6.1-8.5,9.5c-0.4,0.6-0.8,1.3-1.4,2.1c-0.5,0.8-0.9,1.6-1.2,2.2
		c-0.3,0.7-0.4,1.2-0.3,1.6c0.1,0.4,0.6,0.4,1.4,0c1.3-0.5,2.6-1.2,4.1-2.2c1.4-1,2.8-2,4.2-3.2c1.4-1.2,2.7-2.4,4-3.6
		c1.3-1.3,2.5-2.5,3.7-3.6l4.5-4.5c0.6-0.6,1.2-1.3,1.9-2c0.7-0.8,1.4-1.4,2.3-1.7c1.5-0.6,3-0.4,4.3,0.7s1.8,2.3,1.5,4
		c-0.2,1-0.6,1.8-1.2,2.4c-0.6,0.6-1.3,1.3-2,2l-4.3,4.5c-1.4,1.4-2.7,2.7-4.1,4c-1.4,1.3-2.8,2.6-4.3,3.8c-2.4,2.1-5,4.1-7.9,5.8
		C814.1,273.8,810.9,274.8,807.5,275z"/>
	<path class="st0" d="M863.5,275.1c-2.3,0.2-4.3-0.1-6.1-0.9c-1.7-0.8-3.1-2-4.1-3.6c-0.6-1-1-2.2-1.2-3.8c-1.4,1.2-2.7,2.2-4.1,3.2
		c-1.4,1-2.8,1.9-4.2,2.8c-2.3,1.3-4.7,2-7.2,2.3c-2.5,0.3-4.8-0.1-7-1.3c-2-1.1-3.4-2.6-4-4.5c-0.6-1.9-0.8-4-0.7-6.2
		c0.2-2.2,0.7-4.3,1.6-6.4c0.9-2.1,1.7-3.8,2.6-5.1c3.1-4.7,6.6-9.2,10.6-13.3c4-4.2,8.5-7.6,13.4-10.4c2.2-1.2,4.5-2.1,6.9-3
		c2.4-0.8,4.8-1.1,7.3-0.9c3.9,0.3,6.7,1.7,8.5,4.3c0.6-0.8,1.3-1.5,2.2-2.2c0.9-0.7,1.8-1.1,2.5-1.2c1.4,0,2.8,0.6,3.9,1.7
		c1.1,1.1,1.6,2.3,1.7,3.7c0.1,1.4-0.3,2.6-1.3,3.7c-1.4,1.4-2.8,2.9-4.2,4.3c-1.4,1.4-2.8,2.9-4.2,4.6c-3.2,3.8-5.8,7-7.9,9.6
		c-2.1,2.7-3.8,5.4-5.3,8.2c-0.5,0.8-0.8,1.6-1.1,2.5c-0.2,0.9-0.3,1.6-0.3,2.2c0,0.6,0.3,1,0.8,1.2c0.5,0.2,1.3,0.1,2.3-0.5
		c1.3-0.7,2.4-1.5,3.5-2.4c1.1-0.9,2.1-1.9,3.2-3l12-12c0.6-0.6,1.2-1.2,1.8-2c0.6-0.7,1.3-1.3,2.1-1.7c1.5-0.6,3-0.4,4.3,0.6
		c1.3,1,1.9,2.3,1.7,3.9c-0.2,1-0.6,1.7-1.2,2.3c-0.6,0.6-1.2,1.2-1.7,1.9c-3.4,3.5-5.9,6.1-7.7,7.8c-1.7,1.7-3.3,3.3-4.6,4.6
		c-2,1.9-4.3,3.8-6.7,5.7C869.5,273.8,866.7,274.8,863.5,275.1z M855,239.1c-3.5,2.8-7,6.1-10.4,9.9c-3.5,3.8-6.1,7.5-8,11.2
		c-0.2,0.3-0.5,0.8-0.8,1.5c-0.3,0.7-0.6,1.4-0.8,2.2c-0.2,0.7-0.2,1.4-0.1,2c0.1,0.6,0.5,0.9,1.3,0.9c2.2-0.2,4.3-1.1,6.3-2.7
		c2-1.6,3.7-3,5.1-4.3c4.2-3.8,8-7.7,11.4-11.8c3.5-4.1,7-8.2,10.4-12.2c0.2-1.9-0.4-2.9-1.7-2.9s-2.8,0.4-4.6,1.2
		c-1.7,0.8-3.4,1.7-5.1,2.9C856.5,237.9,855.5,238.7,855,239.1z"/>
	<path class="st0" d="M125.3,403.6c-1.1-1.8-1.5-3.8-1.2-5.9c0.2-2.1,0.7-4,1.5-5.7c1.7-3.8,4.3-7.5,7.8-11.2c3.5-3.7,7.6-8,12.5-13
		c0.9-0.9,1.5-1.7,1.9-2.4c0.4-0.7-0.2-0.8-1.9-0.4c-2.3,0.8-4.5,1.9-6.6,3.3c-2.1,1.4-4,2.9-5.9,4.5c-4.7,4-9,8.1-12.7,12.4
		c-3.8,4.3-7.4,8.8-10.9,13.5l-1.7,2.3c-0.7,0.8-1.5,1.3-2.5,1.4c-1,0.2-1.9,0.1-2.9-0.1c-1-0.3-1.8-0.8-2.6-1.4
		c-0.8-0.7-1.2-1.4-1.3-2.3c-0.2-0.8-0.1-1.5,0.3-2.2c0.4-0.7,0.8-1.4,1.2-2.1c2.4-4.1,5.1-7.8,8-11.1c2.9-3.3,5.8-6.7,8.8-10.1
		c0.1-0.1,0.6-0.6,1.5-1.6c0.9-1,1.8-2,2.7-3c0.9-1.1,1.5-2,1.9-2.7c0.4-0.7,0.1-0.9-0.9-0.7c-2.4,0.8-4.7,1.9-6.8,3.3
		c-2.1,1.4-4.2,2.9-6.1,4.4c-2.1,1.6-4.2,3.4-6.1,5.3c-1.9,1.9-3.8,3.8-5.7,5.7c-2.7,2.8-5.1,5.7-7.2,8.5c-2.1,2.9-4,5.9-5.7,9
		c-0.5,0.7-0.9,1.4-1.3,2.1c-0.4,0.7-1,1.2-1.7,1.5c-1.4,0.5-2.9,0.3-4.5-0.4c-1.5-0.8-2.6-1.9-3-3.3c-0.3-0.8-0.3-1.5,0-2.2
		c0.3-0.7,0.6-1.3,1-1.9c2.1-3.5,4.1-6.7,5.9-9.6c1.8-2.9,3.7-5.7,5.6-8.4c1.9-2.7,3.9-5.4,6.2-8.1c2.2-2.7,4.8-5.7,7.8-8.8
		c1.6-1.7,2.8-2.9,3.5-3.5c0.7-0.6,1.3-1,1.7-1.2c1.4-0.5,2.7-0.3,3.9,0.6c1.3,0.9,2.1,2,2.6,3.3c2.1-1.4,4.3-2.7,6.4-3.6
		c2.2-1,4.4-1.5,6.6-1.7c1.9-0.2,3.7,0,5.4,0.7c1.7,0.7,2.9,2,3.5,3.9c0.1,0.3,0.2,0.6,0.2,0.8c0,0.2,0.1,0.5,0.1,0.8
		c2.6-1.9,5.4-3.6,8.4-5c3-1.4,6.1-1.8,9.3-1.2c2.8,0.5,4.7,2,5.8,4.5c0.5,1.3,0.7,2.5,0.5,3.8c-0.1,1.3-0.5,2.5-1,3.7
		c-0.5,1.2-1.2,2.4-2,3.5c-0.8,1.1-1.5,2.2-2.3,3.1c-2.5,3.1-5.1,6-7.8,8.6c-2.7,2.7-5.2,5.4-7.6,8.3c-1.7,2.1-2.9,3.7-3.4,4.7
		c-0.5,1-0.7,1.7-0.5,2c0.2,0.3,0.7,0.4,1.4,0.1c0.8-0.3,1.6-0.7,2.6-1.2c1-0.5,1.9-1.2,2.9-1.9c1-0.7,1.7-1.3,2.3-1.8
		c2.5-1.9,4.8-4,6.8-6.2s4.2-4.3,6.4-6.3c0.6-0.6,1.2-1.3,1.9-2c0.7-0.8,1.4-1.4,2.2-1.7c1.5-0.6,3-0.4,4.3,0.7c1.3,1,1.9,2.3,1.7,4
		c-0.2,1-0.6,1.8-1.3,2.4c-0.7,0.6-1.3,1.3-1.9,2c-1.7,1.8-3.3,3.4-4.6,4.6c-1.3,1.3-2.4,2.4-3.4,3.3c-1,1-1.8,1.8-2.6,2.5
		c-0.8,0.7-1.5,1.3-2.2,1.9c-2.6,2.3-5.2,4.2-7.8,5.7s-5,2.4-7.2,2.8c-2.2,0.4-4.3,0.4-6.1-0.1C127.6,406.4,126.2,405.3,125.3,403.6
		z"/>
	<path class="st0" d="M189.3,407.4c-2.3,0.2-4.3-0.1-6.1-0.9c-1.7-0.8-3.1-2-4.1-3.6c-0.6-1-1-2.2-1.2-3.8c-1.4,1.2-2.7,2.2-4.1,3.2
		c-1.4,1-2.8,1.9-4.2,2.8c-2.3,1.3-4.7,2-7.2,2.3c-2.5,0.3-4.8-0.1-7-1.3c-2-1.1-3.4-2.6-4-4.5c-0.6-1.9-0.8-4-0.7-6.2
		c0.2-2.2,0.7-4.3,1.6-6.4c0.9-2.1,1.7-3.8,2.6-5.1c3.1-4.7,6.6-9.2,10.6-13.3c4-4.2,8.5-7.6,13.4-10.4c2.2-1.2,4.5-2.1,6.9-3
		c2.4-0.8,4.8-1.1,7.3-0.9c3.9,0.3,6.7,1.7,8.5,4.3c0.6-0.8,1.3-1.5,2.2-2.2c0.9-0.7,1.8-1.1,2.5-1.2c1.4,0,2.8,0.6,3.9,1.7
		c1.1,1.1,1.6,2.3,1.7,3.7c0.1,1.4-0.3,2.6-1.3,3.7c-1.4,1.4-2.8,2.9-4.2,4.3c-1.4,1.4-2.9,2.9-4.2,4.6c-3.2,3.8-5.8,7-7.9,9.6
		c-2.1,2.7-3.8,5.4-5.3,8.2c-0.5,0.8-0.8,1.6-1.1,2.5c-0.2,0.9-0.3,1.6-0.3,2.2c0,0.6,0.3,1,0.8,1.2c0.5,0.2,1.3,0.1,2.3-0.5
		c1.3-0.7,2.4-1.5,3.5-2.4c1.1-0.9,2.1-1.9,3.2-3l12-12c0.6-0.6,1.2-1.2,1.8-2c0.6-0.7,1.3-1.3,2.1-1.7c1.5-0.6,3-0.4,4.3,0.6
		c1.3,1,1.9,2.3,1.7,3.9c-0.2,1-0.6,1.7-1.2,2.3s-1.2,1.2-1.7,1.9c-3.4,3.5-5.9,6.1-7.7,7.8c-1.7,1.7-3.3,3.3-4.6,4.6
		c-2,1.9-4.3,3.8-6.7,5.7C195.3,406,192.5,407.1,189.3,407.4z M180.8,371.3c-3.5,2.8-7,6.1-10.4,9.9c-3.5,3.8-6.1,7.5-8,11.2
		c-0.2,0.3-0.5,0.8-0.8,1.5c-0.3,0.7-0.6,1.4-0.8,2.2c-0.2,0.7-0.2,1.4-0.1,2c0.1,0.6,0.5,0.9,1.3,0.9c2.2-0.2,4.3-1.1,6.3-2.7
		c2-1.6,3.7-3,5.1-4.3c4.2-3.8,8-7.7,11.4-11.8c3.5-4.1,7-8.2,10.4-12.2c0.2-1.9-0.4-2.9-1.7-2.9c-1.3,0-2.8,0.4-4.6,1.2
		c-1.7,0.8-3.4,1.7-5.1,2.9C182.3,370.2,181.3,371,180.8,371.3z M223.4,337.4c-0.3,1.1-1.1,1.9-2.4,2.5c-1.3,0.6-2.3,1.2-3.1,1.7
		l-15.6,9.1c-0.9,0.6-1.7,1.2-2.6,1.7c-0.9,0.6-1.8,0.6-2.9,0.1c-1.1-0.5-1.9-1.3-2.5-2.3c-0.6-1.1-0.8-2.1-0.7-3.2
		c0.2-0.5,0.5-0.9,0.8-1.3c0.3-0.4,0.7-0.7,1.1-1c4.2-3.1,7.6-5.6,10.4-7.5c2.8-1.9,5.4-3.6,7.9-5.1c0.7-0.4,1.3-0.8,2-1.2
		c0.6-0.4,1.3-0.7,2.1-0.9c1-0.2,2,0,3,0.7c1.1,0.8,1.8,1.8,2.3,3C223.6,334.9,223.7,336.2,223.4,337.4z"/>
	<path class="st0" d="M212.2,378.3c1.6-1.6,3.2-3.3,4.7-4.9c1.5-1.6,3-3.3,4.4-5c1.4-1.6,2.7-3.4,4.1-5.1c1.4-1.8,2.8-3.8,4.5-6.2
		c0.8-3.1,1.9-5.9,3.5-8.4c1.4-2.2,3.3-4.1,5.6-5.6c2.3-1.5,4.8-2.2,7.6-2.2c1.4,0,2.5,0.3,3.5,1c1,0.7,1.5,1.6,1.6,2.9
		c0,0.9-0.2,1.6-0.5,2.2c-0.3,0.6-0.8,1.1-1.4,1.5c-0.6,0.4-1.2,0.8-1.9,1.1c-0.7,0.3-1.3,0.6-1.9,1c-1.6,1.1-2.9,2.4-3.8,3.9
		c-0.9,1.5-1.6,3.1-2,4.8c-1,4.1-1.5,8.2-1.6,12.4c-0.1,4.2-0.4,8.4-0.9,12.5c-0.3,3.3-1.1,6.4-2.4,9.2c-1.3,2.9-3,5.3-5,7.5
		c-2,2.1-4.4,3.8-7.1,5c-2.7,1.2-5.7,1.7-9,1.5c-2.8-0.1-5.4-0.7-7.7-2c-2.3-1.2-4.2-2.8-5.7-4.6c-1.5-1.9-2.5-4.1-2.9-6.5
		s-0.2-5,0.8-7.6c0.4-1.2,1.1-1.9,2.2-2.3c1.1-0.4,2.2-0.5,3.2-0.2c1,0.2,1.9,0.8,2.5,1.6c0.7,0.8,0.8,1.8,0.4,3
		c-1,3.1-0.6,5.6,1.1,7.4c1.7,1.8,3.9,2.8,6.7,2.8c2.2,0,4.3-0.8,6.4-2.5c2-1.7,3.5-3.5,4.3-5.6c0.4-0.8,0.7-1.6,0.9-2.5
		c0.2-0.9,0.4-2,0.5-3.3c0.1-1.3,0.3-2.8,0.4-4.6c0.1-1.8,0.2-4,0.4-6.6c-1.7,2.1-3.5,4.1-5.1,5.9c-1.7,1.8-3.4,3.5-5,4.9
		c-1,0.9-2,1.2-3,0.9c-1-0.2-1.9-0.7-2.5-1.5c-0.7-0.8-1.1-1.7-1.2-2.8C211,380.2,211.3,379.2,212.2,378.3z"/>
	<path class="st0" d="M355.4,349.6c-0.5,0.8-1.3,1.1-2.5,1.1c-1.2,0-2.2,0-3,0.1l-33.6,2.9c-1.5,1.8-3.1,3.6-4.6,5.4
		c-1.5,1.8-3,3.6-4.4,5.4c-0.5,4.9-1.4,9.7-2.8,14.4c-1.4,4.7-3.1,9.2-5.2,13.5c-4.2,8.7-8.7,17-13.8,24.8c-5,7.9-10.6,15-16.8,21.5
		c-1.3,1.4-2.7,2.7-4.2,4.1c-1.5,1.4-3.1,2.7-4.8,3.8c-1.6,1.1-3.3,2-5,2.6c-1.7,0.6-3.3,0.8-4.9,0.7c-1.6-0.2-3.2-0.8-4.6-1.7
		c-1.4-1-2.3-2.3-2.8-4.1c-0.6-2.1-0.5-4.3,0.1-6.4c0.7-2.2,1.4-4.2,2.2-6.2c3-6.7,6.5-12.8,10.4-18.3c4-5.6,8-10.9,12.2-16
		c4.9-6.4,9.9-12.7,14.9-19c5-6.3,10.1-12.6,15.3-18.8c-0.2-1.3-0.6-2.1-1.2-2.5c-0.6-0.5-1.2-0.7-1.9-0.7c-0.7,0-1.3-0.3-1.7-1
		c-0.7-0.7-1.1-1.7-1.2-3c-0.1-1.3-0.1-2.3,0.1-3.1c0.3-1.1,0.8-1.7,1.7-1.8c0.8-0.1,1.7-0.3,2.7-0.5c0.6-0.1,1.2-0.2,1.8-0.3
		c0.6-0.1,1.4-0.2,2.5-0.4s2.3-0.3,3.8-0.6c1.5-0.2,3.5-0.5,5.8-0.8c0.6-0.7,1.2-1.5,2-2.4c0.7-0.9,1.8-2.1,3.2-3.7
		c1.4-1.5,3.2-3.5,5.5-6c2.3-2.5,5.3-5.6,9.1-9.5c0.6-0.6,1.2-1.2,1.9-1.9c0.7-0.7,1.4-1.1,2.2-1.3c0.8-0.2,1.5-0.1,2.2,0.1
		c0.7,0.3,1.4,0.7,2,1.3s1,1.2,1.4,2c0.3,0.7,0.5,1.4,0.5,2.1c0.1,0.8,0.1,1.4-0.1,1.8c-0.1,0.4-0.5,0.9-0.9,1.4
		c-0.7,0.7-1.3,1.3-2,1.9c-0.6,0.6-1.2,1.2-1.8,1.9c-1.6,1.7-3.2,3.5-4.8,5.1c-1.5,1.7-3.1,3.5-4.6,5.3c6.5-0.6,11.5-1.1,15.2-1.4
		c3.7-0.4,6.4-0.7,8.3-0.8c1.9-0.1,3.1-0.2,3.6-0.3c0.5,0,0.9,0,1.2,0.1c0.9,0.3,1.5,0.8,1.8,1.6c0.3,0.8,0.5,1.6,0.6,2.6
		c0,1,0,1.9-0.2,2.8C355.9,348.4,355.6,349.1,355.4,349.6z M256.3,437.6c3.4-3.1,6.5-6.5,9.5-10.1c2.9-3.7,5.7-7.5,8.2-11.4
		c2.5-3.9,4.9-7.9,7.2-11.9c2.3-4,4.4-7.9,6.4-11.8c0.9-1.5,1.7-3.1,2.4-4.7c0.7-1.6,1.5-3.2,2.2-4.9l-8.7,10.7
		c-2.9,3.7-5.8,7.3-8.7,10.9c-2.9,3.6-5.7,7.2-8.5,10.9c-2.5,3.5-5.1,7-7.7,10.6c-2.6,3.6-4.7,7.4-6.4,11.4
		c-0.9,2.3-1.1,3.6-0.7,3.8C252,441.2,253.6,440.1,256.3,437.6z"/>
	<path class="st0" d="M310.6,401.8c-1.8-2.5-2.7-5.3-2.6-8.3c0.1-3,0.7-6,1.9-8.8c1.2-2.6,2.6-5,4.2-7.3c1.6-2.3,3.5-4.4,5.4-6.4
		c2-2,4.1-3.8,6.3-5.4c2.2-1.6,4.4-3.1,6.7-4.5c1.6-1,3.6-1.9,5.9-2.8c2.3-0.9,4.7-1.4,7.1-1.7c2.4-0.3,4.7-0.1,6.7,0.4
		c2.1,0.6,3.7,1.8,4.9,3.8c1.1,1.7,1.3,3.6,0.7,5.5c-0.6,1.9-1.4,3.7-2.3,5.4c-2.1,3.4-4.8,6.4-8.1,9.1c-3.3,2.7-6.8,4.7-10.4,6.2
		c-2.8,1.1-5.7,1.7-8.5,2c-2.9,0.3-5.7-0.1-8.4-1.2c-0.6,1.1-1,2.1-1.4,3.1c-0.3,1-0.5,2-0.4,3c0.1,1,0.4,1.9,1,2.7
		c0.6,0.8,1.5,1.5,2.9,2c2.4,0.9,5.2,0.7,8.4-0.4c3.2-1.2,6.4-2.8,9.5-4.8c3.1-2,6-4.2,8.7-6.4c2.7-2.3,4.7-4.1,6.2-5.4
		c0.7-0.7,1.4-1.4,2.1-2.2c0.7-0.8,1.5-1.4,2.4-1.8c0.9-0.3,1.7-0.3,2.5-0.1c0.8,0.2,1.4,0.6,2,1.2s1,1.2,1.2,2
		c0.2,0.7,0.2,1.4-0.1,2.1c-0.3,0.9-0.8,1.7-1.7,2.5c-0.8,0.8-1.6,1.6-2.2,2.2c-3.7,3.5-6.5,6-8.5,7.6c-2,1.6-3.8,3-5.4,4.1
		c-2.4,1.7-5.3,3.4-8.6,5c-3.3,1.6-6.7,2.7-10.1,3.3c-3.4,0.6-6.7,0.6-9.9-0.1C315.4,406.4,312.7,404.7,310.6,401.8z M329.3,380.3
		c3.6-0.6,6.9-1.9,9.9-4.1c3-2.1,5.5-4.4,7.5-6.8c0.8-0.9,1.3-1.8,1.7-2.8c0.3-1,0.3-1.6-0.2-1.9c-2.5,0.7-4.9,1.6-7.1,2.9
		c-2.2,1.3-4.3,2.7-6.4,4.2c-3.5,2.5-6.5,5.3-9.1,8.4C326.7,380.5,327.9,380.5,329.3,380.3z"/>
	<path class="st0" d="M392.7,380.6c0.6-0.7,1.2-1.3,1.8-2c0.6-0.6,1.4-1.1,2.2-1.4c1.5-0.5,2.9-0.2,4.1,0.8s1.6,2.3,1.3,3.8
		c-0.2,0.9-0.6,1.6-1.2,2.3c-0.6,0.7-1.2,1.3-1.7,1.9c-4.9,5.1-9.3,9.1-13.2,12c-3.9,2.9-7.3,5-10.3,6.4c-3,1.4-5.6,2.1-7.8,2.2
		c-2.2,0.1-4.1,0-5.7-0.4c-2.1-0.6-3.8-1.5-5.1-2.8c-1.3-1.3-2.2-2.9-2.8-4.8c-0.6-1.9-0.8-3.9-0.7-6.2c0.1-2.2,0.6-4.5,1.4-7
		c1.4-4.1,3.2-8.3,5.4-12.6c2.3-4.3,4.8-8.6,7.5-12.8c2.7-4.2,5.5-8.1,8.4-11.8c2.9-3.7,5.7-7,8.3-9.9c2.8-3.1,5.7-6.1,8.8-9.1
		c3.1-2.9,6.5-5.4,10.1-7.5c1.3-0.7,2.8-1.4,4.6-2c1.8-0.7,3.6-1.1,5.4-1.3c1.8-0.2,3.5,0,5.1,0.5c1.6,0.5,2.9,1.7,4,3.4
		c1.2,1.7,1.6,3.6,1.4,5.6c-0.2,2-0.8,3.9-1.7,5.8c-0.9,1.9-2,3.7-3.3,5.4c-1.3,1.7-2.4,3.2-3.3,4.4c-2.8,3.4-5.7,6.5-8.8,9.5
		c-3,2.9-6.2,5.8-9.5,8.6c-2.1,1.7-4.4,3.5-6.7,5.2c-2.4,1.7-4.7,3.4-7.1,5.1c-2.4,1.6-4.7,3.2-7.1,4.6c-2.4,1.4-4.6,2.6-6.7,3.5
		c-0.8,1-1.4,1.9-2,2.8c-0.6,0.9-1.1,1.8-1.6,2.7c-1.7,3.3-2.5,6-2.2,8.3c0.3,2.2,1.1,3.6,2.3,4.1c1,0.4,2.3,0.2,4.1-0.4
		c1.8-0.7,3.8-1.8,6.2-3.3c2.3-1.5,4.9-3.4,7.6-5.7C386.9,386.3,389.7,383.6,392.7,380.6z M386.2,359.9c4-3.1,7.8-6.3,11.4-9.6
		c3.7-3.3,7.1-6.9,10.4-10.8c1.4-1.6,2.6-3.3,3.8-4.9c1.2-1.6,2.2-3.4,3-5.3c0.3-0.8,0.2-1.2-0.2-1.2c-0.4,0-1,0.1-1.7,0.4
		c-0.7,0.3-1.5,0.7-2.4,1.2c-0.9,0.5-1.5,0.9-2,1.3c-3.8,2.8-7.3,5.8-10.5,9.1c-3.2,3.2-6.3,6.7-9.1,10.4c-1.9,2.5-3.8,5-5.7,7.5
		c-1.8,2.5-3.6,5.1-5.2,7.8c1.4-1,2.7-1.9,4.1-2.8C383.5,361.9,384.9,361,386.2,359.9z"/>
	<path class="st0" d="M396.8,407.4c-1.8,0.1-3.6-0.2-5.2-0.9c-1.6-0.7-2.9-1.9-3.8-3.5c-1.1-1.7-1.5-3.6-1.4-5.7s0.6-4,1.2-5.8
		c1.4-4.2,3.4-8,6.2-11.5c2.8-3.5,5.5-6.9,8.3-10.2c1.4-1.6,2.7-3.3,4.1-4.9c1.4-1.6,2.9-3.1,4.4-4.6c0.7-0.7,1.4-1.4,2.1-2
		c0.7-0.7,1.6-1.1,2.5-1.2c1.6,0,2.9,0.6,3.9,1.9c1,1.3,1.5,2.6,1.7,3.9c0,0.8-0.1,1.4-0.4,1.8c-0.2,0.4-0.6,0.9-1.1,1.5
		c-3.2,3.4-6.3,6.7-9.3,10c-3,3.3-5.8,6.8-8.4,10.4c-1.8,2.5-3.1,4.7-3.9,6.5c-0.8,1.8-1,3.1-0.7,3.9c0.3,0.8,1.1,0.9,2.5,0.3
		c1.4-0.6,3.4-2,5.9-4.3c1.4-1.3,2.9-2.7,4.6-4.4c1.7-1.7,4.2-4.2,7.6-7.6c0.7-0.7,1.3-1.4,2-2.1c0.6-0.7,1.4-1.3,2.2-1.7
		c1.5-0.6,3-0.4,4.3,0.7c1.3,1,1.8,2.3,1.5,4c-0.2,1-0.6,1.8-1.2,2.4c-0.6,0.6-1.3,1.3-2,2l-4.2,4.3c-1.4,1.4-2.7,2.7-4.1,4.1
		c-1.4,1.4-2.8,2.7-4.2,4.1c-2.9,2.8-5.5,4.9-7.9,6.4C401.9,406.5,399.4,407.3,396.8,407.4z M430.6,347.3c-1.7,0-3.2-0.7-4.5-2
		c-1.3-1.3-1.9-2.8-1.9-4.4c0-1.7,0.6-3.2,1.9-4.5c1.3-1.3,2.8-1.9,4.5-1.9c1.6,0,3.1,0.6,4.4,1.9c1.3,1.3,2,2.8,2,4.5
		c0,1.6-0.6,3.1-1.9,4.4C433.8,346.6,432.3,347.3,430.6,347.3z"/>
	<path class="st0" d="M444,407.4c-3,0-5.7-0.8-8.1-2.5c-1.1-0.7-2-1.4-2.8-2.2c-0.8-0.8-1.8-1.4-2.8-2c-0.7-0.3-1.3-0.4-1.9-0.2
		c-0.6,0.1-1.1,0.4-1.6,0.7c-0.5,0.3-1,0.7-1.4,1.2c-0.5,0.5-0.9,0.9-1.3,1.3c-0.8,0.8-1.5,1.3-2.3,1.7c-0.8,0.3-1.7,0.4-2.9,0.1
		c-1.2-0.3-2.1-0.8-2.8-1.5c-0.7-0.7-1.1-1.5-1.2-2.4c-0.1-0.9,0-1.8,0.3-2.8c0.3-1,0.9-1.8,1.7-2.5l5.9-5.2
		c4.6-3.9,9.4-7.7,14.3-11.5c4.9-3.8,10.4-8.1,16.4-13c-2.5,0.6-5,1.1-7.6,1.4c-2.6,0.4-5.1,0.4-7.6,0.1c-2,3.6-3.9,6.6-5.7,9
		c-1.8,2.4-3.6,4.6-5.6,6.5c-0.8,0.9-1.7,1.4-2.8,1.7c-1.1,0.3-2.1,0-3.2-0.7c-1.1-0.8-1.7-1.8-1.8-3.1c-0.1-1.3,0.3-2.4,1.2-3.4
		c3.7-3.7,6.9-8,9.6-12.9c0.2-0.4,0.4-0.8,0.7-1.3c0.2-0.5,0.5-1,0.7-1.4c0.1-1.1,0.4-1.9,1-2.6c0.6-0.7,1.3-1.1,2.1-1.3
		c0.8-0.2,1.7-0.2,2.5,0c0.9,0.2,1.6,0.6,2.2,1.3c1.2,0.5,2.5,0.7,3.9,0.7c1.4,0,2.8-0.1,3.9-0.2c3.4-0.3,6.8-0.7,10.2-1.2
		c3.4-0.5,6.5-1.6,9.2-3.1c1-0.5,1.8-0.7,2.5-0.7c0.7,0,1.5,0.3,2.4,0.8c1.1,0.6,1.9,1.4,2.5,2.5c0.6,1.1,0.9,2.2,1,3.3
		c0,1-0.5,1.8-1.5,2.5s-1.9,1.4-2.5,2c-6.3,4.8-11.4,8.8-15.4,11.9c-4,3.1-7.3,5.6-9.8,7.6c-2.5,2-4.5,3.6-5.9,4.8
		c-1.4,1.2-2.8,2.3-4.1,3.3c0.8,0.6,1.5,1.2,2.3,1.8c0.8,0.6,1.6,1.2,2.5,1.8c1.4,1,2.7,1.3,4,1.1c1.3-0.2,2.5-0.7,3.7-1.5
		c2.8-1.7,5.6-3.9,8.3-6.4c2.8-2.6,6.2-5.9,10.4-9.9c0.5-0.5,1-1,1.5-1.5c0.5-0.5,1.1-1,1.7-1.5c0.9-0.7,1.8-0.9,2.8-0.8
		c1,0.1,1.8,0.5,2.5,1.1c0.7,0.6,1.2,1.3,1.4,2.2c0.3,0.9,0.2,1.9-0.3,2.8c-0.5,0.9-1.2,1.7-2.2,2.5c-7.8,7.6-13.2,12.6-16.2,14.9
		c-1.9,1.5-4.1,3.1-6.4,4.6C449.1,406.7,446.6,407.4,444,407.4z"/>
	<path class="st0" d="M554.4,363.7c0,0.8-0.4,1.6-1.3,2.4c-0.9,0.8-2.5,2.5-4.9,5c-1.4,1.4-2.7,2.8-3.9,4.3c-1.3,1.5-2.5,3-3.8,4.4
		c-5.2,6.2-10.1,12.3-14.8,18.5s-9.2,12.4-13.6,18.8c2.2-0.3,4.5-0.6,6.7-0.8c2.3-0.2,4.5-0.4,6.7-0.4c1.1,0,1.9,0.4,2.5,1.1
		c0.6,0.7,1,1.6,1.2,2.7c0.5,2,0.1,3.8-1.2,5.4c-0.6,0.8-1.4,1.2-2.5,1.2c-1.1,0-2,0-2.8,0.1c-2.6,0.2-4.8,0.4-6.7,0.5
		c-1.8,0.1-3.5,0.3-4.9,0.4c-1.4,0.1-2.6,0.3-3.6,0.4s-2,0.2-3,0.3c-1.3,1.9-2.6,4.1-4.1,6.4s-3.3,5.7-5.5,10.1
		c-0.3,0.7-0.6,1.3-0.9,1.9c-0.3,0.6-0.8,1-1.6,1.3c-1.4,0.5-2.7,0.5-4.1,0.1c-1.4-0.4-2.4-1.2-3.2-2.4c-0.8-1.1-0.8-2.4-0.1-4.1
		c0.2-0.4,0.4-0.8,0.7-1.2c0.2-0.4,0.6-1.1,1-2c0.4-0.9,1-2,1.7-3.3c0.7-1.4,1.7-3.1,3-5.4c-0.3,0-1,0.1-2.1,0.2
		c-1.1,0.1-2.4,0.3-3.9,0.4c-1.5,0.1-3.1,0.3-4.8,0.6c-1.7,0.2-3.3,0.4-4.9,0.5c-0.9,0.1-1.6-0.1-2.1-0.7c-0.5-0.5-0.9-1.2-1.2-2
		c-0.2-0.8-0.3-1.6-0.3-2.5c0-0.9,0.3-1.6,0.7-2.2c0.5-0.7,1.1-1.1,1.9-1.2c0.8-0.1,1.5-0.2,2.2-0.4c3.7-0.5,7.2-1.1,10.6-1.7
		c3.4-0.7,6.8-1.3,10.3-1.7c1.4-2.2,2.8-4.3,4.2-6.4c1.4-2,2.9-4.1,4.3-6.2c-1.9,0.8-3.9,1.2-5.9,1.3c-2,0.1-3.8-0.3-5.6-1.2
		c-1.9-1-3.3-2.3-4-3.9c-0.7-1.6-1-3.4-0.9-5.3c0.1-1.9,0.5-3.8,1.2-5.7c0.7-1.9,1.4-3.5,2.2-5c1.1-1.7,2.2-3.4,3.5-5.1
		c1.3-1.6,2.6-3.2,4-4.8c1.9-2.1,3.9-4.1,5.9-6c2-1.9,4.1-3.6,6.3-5.3c2.1-1.6,4.3-3.2,6.7-4.6c2.3-1.4,4.7-2.5,7.2-3.3
		c1.4-0.5,2.8-0.8,4.4-1.1c1.6-0.2,3.1-0.3,4.6-0.1c1.5,0.2,2.9,0.6,4.1,1.3c1.3,0.7,2.3,1.7,3.2,3c1.6-1.4,2.8-2.4,3.5-2.8
		c0.7-0.4,1.4-0.6,2.2-0.4c1.6,0.5,2.9,1.3,3.8,2.5C554,361.2,554.4,362.4,554.4,363.7z M521.1,372.2c-2.4,1.9-4.7,3.9-7,6
		c-2.2,2.1-4.3,4.3-6.2,6.7c-0.3,0.3-0.9,1.1-2,2.5c-1,1.4-2,2.8-3,4.3c-1,1.5-1.8,2.9-2.3,4.3c-0.5,1.4-0.4,2.2,0.4,2.5
		c0.7,0.3,1.6,0.2,2.8-0.3c1.2-0.5,2.3-1.1,3.5-2c1.2-0.8,2.4-1.7,3.6-2.6c1.2-0.9,2.2-1.7,3-2.4c4.2-3.5,8.1-7.2,11.9-11.2
		c3.8-4,7.4-8.1,10.9-12.4c0.2-0.6,0.3-1.2,0.2-1.9c0-0.7-0.6-1-1.7-0.9c-2.2,0.2-4.6,1.1-7.2,2.7
		C525.4,369.1,523.1,370.7,521.1,372.2z"/>
	<path class="st0" d="M578.6,407.4c-1.7,0-3.4-0.4-5-1.1c-1.6-0.7-2.8-1.9-3.7-3.4c-0.5-0.8-0.8-1.5-0.9-2.3
		c-0.1-0.8-0.3-1.5-0.4-2.3c-2.2,1.9-4.8,3.8-7.7,5.7c-1.4,0.8-2.9,1.5-4.5,2.3c-1.6,0.8-3.4,1.2-5.4,1.2c-1.6,0-3.2-0.4-4.8-1.1
		c-1.5-0.7-2.8-1.8-3.6-3.3c-1.1-1.9-1.5-3.9-1.2-6c0.2-2.1,0.7-4,1.5-5.9c1-2.5,2.4-5.2,4.3-8c1.9-2.8,4-5.7,6.3-8.4
		c2.3-2.8,4.6-5.4,7-7.8c2.4-2.5,4.5-4.7,6.4-6.6c0.7-0.6,1.4-1.2,2.1-2s1.6-1.1,2.5-1.2c1.6,0,3,0.7,4.1,2c1.1,1.3,1.6,2.5,1.6,3.7
		c0,1.4-0.4,2.5-1.3,3.3c-3.2,3.5-6.4,6.9-9.5,10.1c-3.1,3.3-6.1,6.8-8.9,10.4c-0.9,1-1.7,2.1-2.6,3.3c-0.9,1.3-1.6,2.5-2.3,3.6
		c-0.7,1.2-1.2,2.2-1.4,3.1c-0.3,0.9-0.2,1.5,0.1,1.8c0.4,0.3,1.2,0.2,2.3-0.3c1.2-0.5,2.9-1.5,5.2-3.2c4.2-3.1,8.2-6.5,11.9-10.2
		c3.7-3.7,7.2-7.6,10.7-11.7l11.4-12.9c0.6-0.7,1.2-1.4,2-2c0.7-0.7,1.6-1.1,2.5-1.2c1.6,0,2.9,0.6,3.9,1.9c1,1.3,1.5,2.6,1.7,3.9
		c0,0.8-0.1,1.4-0.3,1.8c-0.2,0.4-0.6,0.9-1.2,1.5c-1.4,1.4-2.7,2.9-4.1,4.3c-1.4,1.4-2.8,2.9-4.1,4.6c-2.8,3.1-5.3,6.1-7.6,8.9
		c-2.3,2.9-4.1,5.8-5.6,8.9c-0.3,0.5-0.6,1.1-0.9,1.9c-0.3,0.8-0.5,1.5-0.6,2.2c-0.1,0.7,0,1.2,0.4,1.5c0.3,0.3,1,0.2,2.1-0.4
		c1.3-0.7,2.4-1.4,3.5-2.3c1.1-0.9,2.1-1.8,3.2-2.8l12.2-12.2c0.6-0.6,1.2-1.2,1.9-2c0.7-0.7,1.4-1.3,2.2-1.7
		c1.5-0.6,2.9-0.4,4.2,0.7c1.3,1,1.8,2.3,1.6,4c-0.2,1-0.6,1.8-1.2,2.4c-0.6,0.6-1.2,1.3-1.8,2c-2.2,2.2-4.3,4.3-6.3,6.4
		c-2,2-4,4-6.2,5.9c-1.1,1-2.2,2-3.3,3s-2.4,2-3.7,2.8c-1.3,0.9-2.7,1.6-4.1,2.2C581.8,407.1,580.3,407.4,578.6,407.4z"/>
	<path class="st0" d="M599.6,401.8c-1.8-2.5-2.7-5.3-2.6-8.3c0.1-3,0.7-6,1.9-8.8c1.2-2.6,2.6-5,4.2-7.3c1.6-2.3,3.5-4.4,5.4-6.4
		c2-2,4.1-3.8,6.3-5.4c2.2-1.6,4.4-3.1,6.7-4.5c1.6-1,3.6-1.9,5.9-2.8c2.3-0.9,4.7-1.4,7.1-1.7c2.4-0.3,4.7-0.1,6.7,0.4
		c2.1,0.6,3.7,1.8,4.9,3.8c1.1,1.7,1.3,3.6,0.7,5.5c-0.6,1.9-1.4,3.7-2.3,5.4c-2.1,3.4-4.8,6.4-8.1,9.1c-3.3,2.7-6.8,4.7-10.4,6.2
		c-2.8,1.1-5.7,1.7-8.5,2c-2.9,0.3-5.7-0.1-8.4-1.2c-0.6,1.1-1,2.1-1.4,3.1c-0.3,1-0.5,2-0.4,3c0.1,1,0.4,1.9,1,2.7
		c0.6,0.8,1.5,1.5,2.9,2c2.4,0.9,5.2,0.7,8.4-0.4c3.2-1.2,6.4-2.8,9.5-4.8c3.1-2,6-4.2,8.7-6.4c2.7-2.3,4.7-4.1,6.2-5.4
		c0.7-0.7,1.4-1.4,2.1-2.2c0.7-0.8,1.5-1.4,2.4-1.8c0.9-0.3,1.7-0.3,2.5-0.1c0.8,0.2,1.4,0.6,2,1.2c0.6,0.6,1,1.2,1.2,2
		c0.2,0.7,0.2,1.4-0.1,2.1c-0.3,0.9-0.8,1.7-1.7,2.5c-0.8,0.8-1.6,1.6-2.2,2.2c-3.7,3.5-6.5,6-8.5,7.6c-2,1.6-3.8,3-5.4,4.1
		c-2.4,1.7-5.3,3.4-8.6,5c-3.3,1.6-6.7,2.7-10.1,3.3c-3.4,0.6-6.7,0.6-9.9-0.1C604.4,406.4,601.8,404.7,599.6,401.8z M618.3,380.3
		c3.6-0.6,6.9-1.9,9.9-4.1c3-2.1,5.5-4.4,7.5-6.8c0.8-0.9,1.3-1.8,1.7-2.8c0.3-1,0.3-1.6-0.2-1.9c-2.5,0.7-4.9,1.6-7.1,2.9
		c-2.2,1.3-4.3,2.7-6.4,4.2c-3.5,2.5-6.5,5.3-9.1,8.4C615.7,380.5,617,380.5,618.3,380.3z"/>
	<path class="st0" d="M712.2,380.6c0.6-0.7,1.2-1.3,1.8-2c0.6-0.6,1.4-1.1,2.2-1.4c1.5-0.5,2.9-0.2,4.1,0.8c1.2,1,1.6,2.3,1.3,3.8
		c-0.2,0.9-0.6,1.6-1.2,2.3c-0.6,0.7-1.2,1.3-1.7,1.9c-4.9,5.1-9.3,9.1-13.2,12c-3.9,2.9-7.3,5-10.3,6.4c-3,1.4-5.6,2.1-7.8,2.2
		c-2.2,0.1-4.1,0-5.7-0.4c-2.1-0.6-3.8-1.5-5.1-2.8c-1.3-1.3-2.2-2.9-2.8-4.8c-0.6-1.9-0.8-3.9-0.7-6.2c0.1-2.2,0.6-4.5,1.4-7
		c1.4-4.1,3.2-8.3,5.4-12.6c2.3-4.3,4.8-8.6,7.5-12.8c2.7-4.2,5.5-8.1,8.4-11.8c2.9-3.7,5.7-7,8.3-9.9c2.8-3.1,5.7-6.1,8.8-9.1
		c3.1-2.9,6.5-5.4,10.1-7.5c1.3-0.7,2.8-1.4,4.6-2c1.8-0.7,3.6-1.1,5.4-1.3c1.8-0.2,3.5,0,5.1,0.5c1.6,0.5,2.9,1.7,4,3.4
		c1.2,1.7,1.6,3.6,1.4,5.6c-0.2,2-0.8,3.9-1.7,5.8c-0.9,1.9-2,3.7-3.3,5.4c-1.3,1.7-2.4,3.2-3.3,4.4c-2.8,3.4-5.7,6.5-8.8,9.5
		c-3,2.9-6.2,5.8-9.5,8.6c-2.1,1.7-4.4,3.5-6.7,5.2c-2.4,1.7-4.7,3.4-7.1,5.1c-2.4,1.6-4.7,3.2-7.1,4.6c-2.4,1.4-4.6,2.6-6.7,3.5
		c-0.8,1-1.4,1.9-2,2.8c-0.6,0.9-1.1,1.8-1.6,2.7c-1.7,3.3-2.5,6-2.2,8.3c0.3,2.2,1.1,3.6,2.3,4.1c1,0.4,2.3,0.2,4.1-0.4
		c1.8-0.7,3.8-1.8,6.2-3.3c2.3-1.5,4.9-3.4,7.6-5.7C706.3,386.3,709.2,383.6,712.2,380.6z M705.7,359.9c4-3.1,7.8-6.3,11.4-9.6
		c3.7-3.3,7.1-6.9,10.4-10.8c1.4-1.6,2.6-3.3,3.8-4.9c1.2-1.6,2.2-3.4,3-5.3c0.3-0.8,0.2-1.2-0.2-1.2c-0.4,0-1,0.1-1.7,0.4
		c-0.7,0.3-1.5,0.7-2.4,1.2c-0.9,0.5-1.5,0.9-2,1.3c-3.8,2.8-7.3,5.8-10.5,9.1c-3.2,3.2-6.3,6.7-9.1,10.4c-1.9,2.5-3.8,5-5.7,7.5
		c-1.8,2.5-3.6,5.1-5.2,7.8c1.4-1,2.7-1.9,4.1-2.8C703,361.9,704.3,361,705.7,359.9z"/>
	<path class="st0" d="M744.5,407.4c-2.3,0.2-4.3-0.1-6.1-0.9c-1.7-0.8-3.1-2-4.1-3.6c-0.6-1-1-2.2-1.2-3.8c-1.4,1.2-2.7,2.2-4.1,3.2
		c-1.4,1-2.8,1.9-4.2,2.8c-2.3,1.3-4.7,2-7.2,2.3c-2.5,0.3-4.8-0.1-7-1.3c-2-1.1-3.4-2.6-4-4.5c-0.6-1.9-0.8-4-0.7-6.2
		c0.2-2.2,0.7-4.3,1.6-6.4c0.9-2.1,1.7-3.8,2.6-5.1c3.1-4.7,6.6-9.2,10.6-13.3c4-4.2,8.5-7.6,13.4-10.4c2.2-1.2,4.5-2.1,6.9-3
		c2.4-0.8,4.8-1.1,7.3-0.9c3.9,0.3,6.7,1.7,8.5,4.3c0.6-0.8,1.3-1.5,2.2-2.2c0.9-0.7,1.8-1.1,2.5-1.2c1.4,0,2.8,0.6,3.9,1.7
		c1.1,1.1,1.6,2.3,1.7,3.7c0.1,1.4-0.3,2.6-1.3,3.7c-1.4,1.4-2.8,2.9-4.2,4.3c-1.4,1.4-2.8,2.9-4.2,4.6c-3.2,3.8-5.8,7-7.9,9.6
		c-2.1,2.7-3.8,5.4-5.3,8.2c-0.5,0.8-0.8,1.6-1.1,2.5c-0.2,0.9-0.3,1.6-0.3,2.2c0,0.6,0.3,1,0.8,1.2c0.5,0.2,1.3,0.1,2.3-0.5
		c1.3-0.7,2.4-1.5,3.5-2.4c1.1-0.9,2.1-1.9,3.2-3l12-12c0.6-0.6,1.2-1.2,1.8-2c0.6-0.7,1.3-1.3,2.1-1.7c1.5-0.6,3-0.4,4.3,0.6
		c1.3,1,1.9,2.3,1.7,3.9c-0.2,1-0.6,1.7-1.2,2.3c-0.6,0.6-1.2,1.2-1.7,1.9c-3.4,3.5-5.9,6.1-7.7,7.8c-1.7,1.7-3.3,3.3-4.6,4.6
		c-2,1.9-4.3,3.8-6.7,5.7C750.5,406,747.7,407.1,744.5,407.4z M736,371.3c-3.5,2.8-7,6.1-10.4,9.9c-3.5,3.8-6.1,7.5-8,11.2
		c-0.2,0.3-0.5,0.8-0.8,1.5c-0.3,0.7-0.6,1.4-0.8,2.2c-0.2,0.7-0.2,1.4-0.1,2c0.1,0.6,0.5,0.9,1.3,0.9c2.2-0.2,4.3-1.1,6.3-2.7
		c2-1.6,3.7-3,5.1-4.3c4.2-3.8,8-7.7,11.4-11.8c3.5-4.1,7-8.2,10.4-12.2c0.2-1.9-0.4-2.9-1.7-2.9s-2.8,0.4-4.6,1.2
		c-1.7,0.8-3.4,1.7-5.1,2.9C737.5,370.2,736.4,371,736,371.3z"/>
	<path class="st0" d="M852.6,363.7c0,0.8-0.4,1.6-1.3,2.4c-0.9,0.8-2.5,2.5-4.9,5c-1.4,1.4-2.7,2.8-3.9,4.3c-1.3,1.5-2.5,3-3.8,4.4
		c-5.2,6.2-10.1,12.3-14.8,18.5s-9.2,12.4-13.6,18.8c2.2-0.3,4.5-0.6,6.7-0.8c2.3-0.2,4.5-0.4,6.7-0.4c1.1,0,1.9,0.4,2.5,1.1
		c0.6,0.7,1,1.6,1.2,2.7c0.5,2,0.1,3.8-1.2,5.4c-0.6,0.8-1.4,1.2-2.5,1.2c-1.1,0-2,0-2.8,0.1c-2.6,0.2-4.8,0.4-6.7,0.5
		c-1.8,0.1-3.5,0.3-4.9,0.4c-1.4,0.1-2.6,0.3-3.6,0.4c-1,0.1-2,0.2-3,0.3c-1.3,1.9-2.6,4.1-4.1,6.4c-1.4,2.3-3.3,5.7-5.5,10.1
		c-0.3,0.7-0.6,1.3-0.9,1.9c-0.3,0.6-0.8,1-1.6,1.3c-1.4,0.5-2.7,0.5-4.1,0.1c-1.4-0.4-2.4-1.2-3.2-2.4c-0.8-1.1-0.8-2.4-0.1-4.1
		c0.2-0.4,0.4-0.8,0.7-1.2c0.2-0.4,0.6-1.1,1-2c0.4-0.9,1-2,1.7-3.3c0.7-1.4,1.7-3.1,3-5.4c-0.3,0-1,0.1-2.1,0.2
		c-1.1,0.1-2.4,0.3-3.9,0.4c-1.5,0.1-3.1,0.3-4.8,0.6c-1.7,0.2-3.3,0.4-4.9,0.5c-0.9,0.1-1.6-0.1-2.1-0.7c-0.5-0.5-0.9-1.2-1.2-2
		c-0.2-0.8-0.3-1.6-0.3-2.5c0-0.9,0.3-1.6,0.7-2.2c0.5-0.7,1.1-1.1,1.9-1.2c0.8-0.1,1.5-0.2,2.2-0.4c3.7-0.5,7.2-1.1,10.6-1.7
		c3.4-0.7,6.8-1.3,10.3-1.7c1.4-2.2,2.8-4.3,4.2-6.4c1.4-2,2.9-4.1,4.3-6.2c-1.9,0.8-3.9,1.2-5.9,1.3c-2,0.1-3.8-0.3-5.6-1.2
		c-1.9-1-3.3-2.3-4-3.9c-0.7-1.6-1-3.4-0.9-5.3c0.1-1.9,0.5-3.8,1.2-5.7c0.7-1.9,1.4-3.5,2.2-5c1.1-1.7,2.2-3.4,3.5-5.1
		c1.3-1.6,2.6-3.2,4-4.8c1.9-2.1,3.9-4.1,5.9-6c2-1.9,4.1-3.6,6.3-5.3c2.1-1.6,4.3-3.2,6.7-4.6c2.3-1.4,4.7-2.5,7.2-3.3
		c1.4-0.5,2.8-0.8,4.4-1.1c1.6-0.2,3.1-0.3,4.6-0.1c1.5,0.2,2.9,0.6,4.1,1.3c1.3,0.7,2.3,1.7,3.2,3c1.6-1.4,2.8-2.4,3.5-2.8
		c0.7-0.4,1.4-0.6,2.2-0.4c1.6,0.5,2.9,1.3,3.8,2.5C852.2,361.2,852.6,362.4,852.6,363.7z M819.3,372.2c-2.4,1.9-4.7,3.9-7,6
		c-2.2,2.1-4.3,4.3-6.2,6.7c-0.3,0.3-0.9,1.1-2,2.5c-1,1.4-2,2.8-3,4.3c-1,1.5-1.8,2.9-2.3,4.3c-0.5,1.4-0.4,2.2,0.4,2.5
		c0.7,0.3,1.6,0.2,2.8-0.3c1.2-0.5,2.3-1.1,3.5-2c1.2-0.8,2.4-1.7,3.6-2.6c1.2-0.9,2.2-1.7,3-2.4c4.2-3.5,8.1-7.2,11.9-11.2
		c3.8-4,7.4-8.1,10.9-12.4c0.2-0.6,0.3-1.2,0.2-1.9c0-0.7-0.6-1-1.7-0.9c-2.2,0.2-4.6,1.1-7.2,2.7
		C823.6,369.1,821.3,370.7,819.3,372.2z"/>
	<path class="st0" d="M876.8,407.4c-1.7,0-3.4-0.4-5-1.1c-1.6-0.7-2.8-1.9-3.7-3.4c-0.5-0.8-0.8-1.5-0.9-2.3
		c-0.1-0.8-0.3-1.5-0.4-2.3c-2.2,1.9-4.8,3.8-7.7,5.7c-1.4,0.8-2.9,1.5-4.5,2.3c-1.6,0.8-3.4,1.2-5.4,1.2c-1.6,0-3.2-0.4-4.8-1.1
		c-1.5-0.7-2.8-1.8-3.6-3.3c-1.1-1.9-1.5-3.9-1.2-6c0.2-2.1,0.7-4,1.5-5.9c1-2.5,2.4-5.2,4.3-8c1.9-2.8,4-5.7,6.3-8.4
		c2.3-2.8,4.6-5.4,7-7.8c2.4-2.5,4.5-4.7,6.4-6.6c0.7-0.6,1.4-1.2,2.1-2s1.6-1.1,2.5-1.2c1.6,0,3,0.7,4.1,2c1.1,1.3,1.6,2.5,1.6,3.7
		c0,1.4-0.4,2.5-1.3,3.3c-3.2,3.5-6.4,6.9-9.5,10.1c-3.1,3.3-6.1,6.8-8.9,10.4c-0.9,1-1.7,2.1-2.6,3.3c-0.9,1.3-1.6,2.5-2.3,3.6
		c-0.7,1.2-1.2,2.2-1.4,3.1c-0.3,0.9-0.2,1.5,0.1,1.8c0.4,0.3,1.2,0.2,2.3-0.3c1.2-0.5,2.9-1.5,5.2-3.2c4.2-3.1,8.2-6.5,11.9-10.2
		c3.7-3.7,7.2-7.6,10.7-11.7l11.4-12.9c0.6-0.7,1.2-1.4,2-2c0.7-0.7,1.6-1.1,2.5-1.2c1.6,0,2.9,0.6,3.9,1.9c1,1.3,1.5,2.6,1.7,3.9
		c0,0.8-0.1,1.4-0.3,1.8c-0.2,0.4-0.6,0.9-1.2,1.5c-1.4,1.4-2.7,2.9-4.1,4.3c-1.4,1.4-2.8,2.9-4.1,4.6c-2.8,3.1-5.3,6.1-7.6,8.9
		c-2.3,2.9-4.1,5.8-5.6,8.9c-0.3,0.5-0.6,1.1-0.9,1.9c-0.3,0.8-0.5,1.5-0.6,2.2c-0.1,0.7,0,1.2,0.4,1.5c0.3,0.3,1,0.2,2.1-0.4
		c1.3-0.7,2.4-1.4,3.5-2.3c1.1-0.9,2.1-1.8,3.2-2.8l12.2-12.2c0.6-0.6,1.2-1.2,1.9-2c0.7-0.7,1.4-1.3,2.2-1.7
		c1.5-0.6,2.9-0.4,4.2,0.7c1.3,1,1.8,2.3,1.6,4c-0.2,1-0.6,1.8-1.2,2.4c-0.6,0.6-1.2,1.3-1.8,2c-2.2,2.2-4.3,4.3-6.3,6.4
		c-2,2-4,4-6.2,5.9c-1.1,1-2.2,2-3.3,3s-2.4,2-3.7,2.8c-1.3,0.9-2.7,1.6-4.1,2.2C880,407.1,878.4,407.4,876.8,407.4z"/>
	<path class="st0" d="M897.8,401.8c-1.8-2.5-2.7-5.3-2.6-8.3c0.1-3,0.7-6,1.9-8.8c1.2-2.6,2.6-5,4.2-7.3c1.6-2.3,3.5-4.4,5.4-6.4
		c2-2,4.1-3.8,6.3-5.4c2.2-1.6,4.4-3.1,6.7-4.5c1.6-1,3.6-1.9,5.9-2.8c2.3-0.9,4.7-1.4,7.1-1.7c2.4-0.3,4.7-0.1,6.7,0.4
		c2.1,0.6,3.7,1.8,4.9,3.8c1.1,1.7,1.3,3.6,0.7,5.5c-0.6,1.9-1.4,3.7-2.3,5.4c-2.1,3.4-4.8,6.4-8.1,9.1c-3.3,2.7-6.8,4.7-10.4,6.2
		c-2.8,1.1-5.7,1.7-8.5,2c-2.9,0.3-5.7-0.1-8.4-1.2c-0.6,1.1-1,2.1-1.4,3.1c-0.3,1-0.5,2-0.4,3c0.1,1,0.4,1.9,1,2.7
		c0.6,0.8,1.5,1.5,2.9,2c2.4,0.9,5.2,0.7,8.4-0.4c3.2-1.2,6.4-2.8,9.5-4.8c3.1-2,6-4.2,8.7-6.4c2.7-2.3,4.7-4.1,6.2-5.4
		c0.7-0.7,1.4-1.4,2.1-2.2c0.7-0.8,1.5-1.4,2.4-1.8c0.9-0.3,1.7-0.3,2.5-0.1c0.8,0.2,1.4,0.6,2,1.2c0.6,0.6,1,1.2,1.2,2
		c0.2,0.7,0.2,1.4-0.1,2.1c-0.3,0.9-0.8,1.7-1.7,2.5c-0.8,0.8-1.6,1.6-2.2,2.2c-3.7,3.5-6.5,6-8.5,7.6c-2,1.6-3.8,3-5.4,4.1
		c-2.4,1.7-5.3,3.4-8.6,5c-3.3,1.6-6.7,2.7-10.1,3.3c-3.4,0.6-6.7,0.6-9.9-0.1C902.6,406.4,899.9,404.7,897.8,401.8z M916.5,380.3
		c3.6-0.6,6.9-1.9,9.9-4.1c3-2.1,5.5-4.4,7.5-6.8c0.8-0.9,1.3-1.8,1.7-2.8c0.3-1,0.3-1.6-0.2-1.9c-2.5,0.7-4.9,1.6-7.1,2.9
		c-2.2,1.3-4.3,2.7-6.4,4.2c-3.5,2.5-6.5,5.3-9.1,8.4C913.9,380.5,915.1,380.5,916.5,380.3z"/>
	<path class="st0" d="M73.5,488.5c1.6,0,3.3,0.4,4.9,1.1c1.6,0.7,2.9,1.8,3.9,3.1c3.1-3.4,6.2-6.8,9.3-10.1
		c3.1-3.4,6.3-6.8,9.3-10.1c2.6-2.8,5.2-5.6,7.8-8.3c2.6-2.8,5.3-5.4,8.1-7.9c0.6-0.5,1.2-1,1.7-1.7c0.6-0.6,1.3-1.2,2-1.7
		c0.9-0.6,1.8-0.7,2.8-0.4c1,0.3,1.8,0.8,2.5,1.6c0.7,0.8,1.3,1.6,1.7,2.6c0.4,1,0.6,1.8,0.4,2.6c-0.2,0.8-0.6,1.4-1.2,2
		c-0.6,0.5-1.2,1-1.7,1.5c-4.3,4.3-7.9,7.9-11.1,11.1c-3.1,3.1-6.3,6.4-9.3,9.6c-3.1,3.3-6.4,6.9-10.1,10.9
		c-3.6,4-8.1,9.1-13.4,15.1c-2.4,2.8-4.8,5.7-7.1,8.8c-2.3,3-4.2,6.3-5.7,9.6c-0.7,1.4-0.6,2.4,0.1,2.8c0.8,0.4,1.7,0.4,2.9-0.2
		c1.4-0.7,2.5-1.5,3.5-2.4c1-0.9,2.1-1.9,3.1-3c1.4-1.3,2.9-2.8,4.6-4.6c1.7-1.8,4.2-4.3,7.4-7.4c0.6-0.6,1.2-1.2,1.9-2
		c0.7-0.7,1.4-1.3,2.2-1.7c1.4-0.6,2.8-0.4,4.1,0.6c1.3,1,1.9,2.3,1.7,3.9c-0.1,1-0.4,1.7-1,2.3c-0.6,0.6-1.2,1.2-1.7,1.9
		c-2.3,2.3-4.5,4.5-6.4,6.5c-2,2-3.9,4-5.9,5.9c-1.1,1-2.2,2-3.3,3c-1.2,1-2.4,2-3.6,2.8c-1.3,0.9-2.6,1.6-4,2.2
		c-1.4,0.6-2.8,0.9-4.3,1c-3.8,0.3-6.7-0.6-8.7-2.6c-1.5-1.5-2.4-3.4-2.6-5.7c-1.6,1.4-3.4,2.7-5.2,3.9c-1.8,1.3-3.7,2.3-5.6,3
		c-1.9,0.8-3.8,1.2-5.8,1.3c-2,0.1-3.9-0.3-5.9-1.3c-2.5-1.5-4.1-3.8-4.8-6.8c-0.5-2.7-0.2-5.4,0.7-8c1-2.7,2.2-5.1,3.6-7.3
		c3-4.7,6.5-9.2,10.6-13.3c4.1-4.2,8.5-7.6,13.5-10.4c2.1-1.2,4.3-2.1,6.6-2.8C68.6,488.9,71,488.5,73.5,488.5z M48.4,516.5
		c-1.1,1.4-2.1,2.7-3,4c-1,1.3-1.8,2.7-2.6,4.1c-1.1,2-1.6,3.5-1.7,4.5c0,1,0.2,1.5,0.9,1.7c0.6,0.2,1.5,0.1,2.6-0.4
		c1.1-0.4,2.3-1.1,3.7-2c1.4-0.9,3-2.1,4.8-3.6c1.7-1.5,3.5-3.3,5.4-5.1c1.8-1.9,3.7-3.9,5.6-5.9c1.9-2.1,3.7-4.1,5.4-6.2l6.2-7.4
		c0.2-1,0.1-1.7-0.1-2.2c-0.3-0.5-0.7-0.8-1.2-0.9c-1.7-0.3-3.8,0.2-6.2,1.4c-2.4,1.3-4.8,2.9-7.2,4.9c-2.4,2-4.7,4.2-7,6.6
		C51.9,512.4,50,514.6,48.4,516.5z"/>
	<path class="st0" d="M122.9,539.7c-2.3,0.2-4.3-0.1-6.1-0.9c-1.7-0.8-3.1-2-4.1-3.6c-0.6-1-1-2.2-1.2-3.8c-1.4,1.2-2.7,2.2-4.1,3.2
		c-1.4,1-2.8,1.9-4.2,2.8c-2.3,1.3-4.7,2-7.2,2.3c-2.5,0.3-4.8-0.1-7-1.3c-2-1.1-3.4-2.6-4-4.5c-0.6-1.9-0.8-4-0.7-6.2
		c0.2-2.2,0.7-4.3,1.6-6.4c0.9-2.1,1.7-3.8,2.6-5.1c3.1-4.7,6.6-9.2,10.6-13.3c4-4.2,8.5-7.6,13.4-10.4c2.2-1.2,4.5-2.1,6.9-3
		c2.4-0.8,4.8-1.1,7.3-0.9c3.9,0.3,6.7,1.7,8.5,4.3c0.6-0.8,1.3-1.5,2.2-2.2c0.9-0.7,1.8-1.1,2.5-1.2c1.4,0,2.8,0.6,3.9,1.7
		c1.1,1.1,1.6,2.3,1.7,3.7c0.1,1.4-0.3,2.6-1.3,3.7c-1.4,1.4-2.8,2.9-4.2,4.3c-1.4,1.4-2.9,2.9-4.2,4.6c-3.2,3.8-5.8,7-7.9,9.6
		c-2.1,2.7-3.8,5.4-5.3,8.2c-0.5,0.8-0.8,1.6-1.1,2.5c-0.2,0.9-0.3,1.6-0.3,2.2c0,0.6,0.3,1,0.8,1.2c0.5,0.2,1.3,0.1,2.3-0.5
		c1.3-0.7,2.4-1.5,3.5-2.4c1.1-0.9,2.1-1.9,3.2-3l12-12c0.6-0.6,1.2-1.2,1.8-2c0.6-0.7,1.3-1.3,2.1-1.7c1.5-0.6,3-0.4,4.3,0.6
		c1.3,1,1.9,2.3,1.7,3.9c-0.2,1-0.6,1.7-1.2,2.3c-0.6,0.6-1.2,1.2-1.7,1.9c-3.4,3.5-5.9,6.1-7.7,7.8c-1.7,1.7-3.3,3.3-4.6,4.6
		c-2,1.9-4.3,3.8-6.7,5.7C128.9,538.3,126.1,539.4,122.9,539.7z M114.3,503.6c-3.5,2.8-7,6.1-10.4,9.9c-3.5,3.8-6.1,7.5-8,11.2
		c-0.2,0.3-0.5,0.8-0.8,1.5c-0.3,0.7-0.6,1.4-0.8,2.2c-0.2,0.7-0.2,1.4-0.1,2c0.1,0.6,0.5,0.9,1.3,0.9c2.2-0.2,4.3-1.1,6.3-2.7
		c2-1.6,3.7-3,5.1-4.3c4.2-3.8,8-7.7,11.4-11.8c3.5-4.1,7-8.2,10.4-12.2c0.2-1.9-0.4-2.9-1.7-2.9c-1.3,0-2.8,0.4-4.6,1.2
		c-1.7,0.8-3.4,1.7-5.1,2.9C115.9,502.5,114.8,503.2,114.3,503.6z"/>
	<path class="st0" d="M162,527.2c1.6-1.7,4-4.3,7-7.6c3-3.3,6.1-6.8,9.3-10.5c3.2-3.7,6.3-7.2,9.1-10.5c2.8-3.3,4.9-5.9,6.2-7.6
		c-0.2-1-0.2-2-0.1-3.2s0.4-2.2,0.9-3.2c0.4-1,1.1-1.8,1.9-2.4c0.8-0.6,1.8-1,3-1.1c1.4-0.1,2.7,0.3,3.8,1.3c1.1,1,1.7,2.2,1.9,3.6
		c0.1,1,0,1.9-0.3,2.8c-0.3,0.9-0.7,1.8-1.2,2.7l1.6,0.7c1.4,0.7,2.9,1,4.3,1.1c1.4,0,2.8,0.5,4.1,1.2c1.3,0.8,2.2,1.8,2.8,3.2
		c0.6,1.4,0.5,2.6-0.5,3.6c-3,3.4-5.7,6.6-8.2,9.6c-2.5,3-4.8,6.1-7,9.2c-0.4,0.6-1,1.6-1.7,3c-0.8,1.4-1.4,2.8-2,4.1
		c-0.5,1.3-0.7,2.3-0.6,3.1c0.1,0.8,0.9,0.8,2.4,0c2.9-1.5,5.7-3.7,8.4-6.5c2.7-2.8,6.2-6.3,10.4-10.6c0.6-0.7,1.2-1.4,1.9-2.1
		c0.7-0.7,1.4-1.3,2.2-1.7c1.5-0.6,3-0.4,4.3,0.7c1.3,1,1.8,2.3,1.5,4c-0.2,1-0.6,1.8-1.2,2.4c-0.6,0.6-1.2,1.3-1.8,2
		c-1.7,1.7-3.2,3.3-4.5,4.6c-1.3,1.3-2.4,2.4-3.3,3.3c-1,0.9-1.8,1.7-2.5,2.5c-0.7,0.7-1.4,1.4-2.1,2.1c-1.1,1-2.2,2-3.3,3
		c-1.2,1-2.4,2-3.7,2.8c-1.3,0.9-2.7,1.6-4.1,2.1c-1.4,0.5-2.9,0.8-4.5,0.8c-2,0-3.8-0.4-5.2-1.2c-1.4-0.8-2.6-1.9-3.3-3.2
		c-0.8-1.3-1.2-2.8-1.4-4.6c-0.1-1.7,0-3.5,0.5-5.2c1-3.8,2.6-7.2,4.9-10.4c2.3-3.2,4.6-6.3,7-9.3c0.7-0.9,1.3-1.7,2-2.6
		c0.6-0.9,1.3-1.7,2.1-2.6c-0.6-0.2-1.3-0.5-2.1-0.9c-0.8-0.4-1.5-0.8-2-1.2c-0.6,0.7-1.6,2-3.2,4c-1.5,2-3.4,4.3-5.5,6.9
		c-2.1,2.6-4.4,5.3-6.7,8.2c-2.4,2.8-4.6,5.5-6.7,8c-2.1,2.5-4,4.6-5.7,6.3c-1.7,1.7-2.9,2.8-3.5,3c-1.1,0.6-2.1,0.7-3,0.2
		c-1-0.4-1.7-1.1-2.3-2c-0.6-0.9-0.9-1.9-0.9-3C160.9,529.1,161.2,528.1,162,527.2z"/>
	<path class="st0" d="M217.1,534c-1.8-2.5-2.7-5.3-2.6-8.3c0.1-3,0.7-6,1.9-8.8c1.2-2.6,2.6-5,4.2-7.3c1.6-2.3,3.5-4.4,5.4-6.4
		c2-2,4.1-3.8,6.3-5.4c2.2-1.6,4.4-3.1,6.7-4.5c1.6-1,3.6-1.9,5.9-2.8c2.3-0.9,4.7-1.4,7.1-1.7c2.4-0.3,4.7-0.1,6.7,0.4
		c2.1,0.6,3.7,1.8,4.9,3.8c1.1,1.7,1.3,3.6,0.7,5.5c-0.6,1.9-1.4,3.7-2.3,5.4c-2.1,3.4-4.8,6.4-8.1,9.1c-3.3,2.7-6.8,4.7-10.4,6.2
		c-2.8,1.1-5.7,1.7-8.5,2c-2.9,0.3-5.7-0.1-8.4-1.2c-0.6,1.1-1,2.1-1.4,3.1c-0.3,1-0.5,2-0.4,3c0.1,1,0.4,1.9,1,2.7
		c0.6,0.8,1.5,1.5,2.9,2c2.4,0.9,5.2,0.7,8.4-0.4s6.4-2.8,9.5-4.8c3.1-2,6-4.2,8.7-6.4c2.7-2.3,4.7-4.1,6.2-5.4
		c0.7-0.7,1.4-1.4,2.1-2.2c0.7-0.8,1.5-1.4,2.4-1.8c0.9-0.3,1.7-0.3,2.5-0.1c0.8,0.2,1.4,0.6,2,1.2c0.6,0.6,1,1.2,1.2,2
		c0.2,0.7,0.2,1.4-0.1,2.1c-0.3,0.9-0.8,1.7-1.7,2.5c-0.8,0.8-1.6,1.6-2.2,2.2c-3.7,3.5-6.5,6-8.5,7.6c-2,1.6-3.8,3-5.4,4.1
		c-2.4,1.7-5.3,3.4-8.6,5c-3.3,1.6-6.7,2.7-10.1,3.3c-3.4,0.6-6.7,0.6-9.9-0.1C221.8,538.7,219.2,536.9,217.1,534z M235.8,512.6
		c3.6-0.6,6.9-1.9,9.9-4.1c3-2.1,5.5-4.4,7.5-6.8c0.8-0.9,1.3-1.8,1.7-2.8c0.3-1,0.3-1.6-0.2-1.9c-2.5,0.7-4.9,1.6-7.1,2.9
		c-2.2,1.3-4.3,2.7-6.4,4.2c-3.5,2.5-6.5,5.3-9.1,8.4C233.2,512.8,234.4,512.8,235.8,512.6z"/>
	<path class="st0" d="M264.3,510.6c1.6-1.6,3.2-3.3,4.7-4.9c1.5-1.6,3-3.3,4.4-5c1.4-1.6,2.7-3.4,4.1-5.1c1.4-1.8,2.8-3.8,4.5-6.2
		c0.8-3.1,1.9-5.9,3.5-8.4c1.4-2.2,3.3-4.1,5.6-5.6c2.3-1.5,4.8-2.2,7.6-2.2c1.4,0,2.5,0.3,3.5,1c1,0.7,1.5,1.6,1.6,2.9
		c0,0.9-0.2,1.6-0.5,2.2c-0.3,0.6-0.8,1.1-1.4,1.5c-0.6,0.4-1.2,0.8-1.9,1.1c-0.7,0.3-1.3,0.6-1.9,1c-1.6,1.1-2.9,2.4-3.8,3.9
		c-0.9,1.5-1.6,3.1-2,4.8c-1,4.1-1.5,8.2-1.6,12.4c-0.1,4.2-0.4,8.4-0.9,12.5c-0.3,3.3-1.1,6.4-2.4,9.2c-1.3,2.8-3,5.3-5,7.5
		c-2,2.1-4.4,3.8-7.1,5c-2.7,1.2-5.7,1.7-9,1.5c-2.8-0.1-5.4-0.7-7.7-2c-2.3-1.2-4.2-2.8-5.7-4.6c-1.5-1.9-2.5-4.1-2.9-6.5
		s-0.2-5,0.8-7.6c0.4-1.2,1.1-1.9,2.2-2.3c1.1-0.4,2.2-0.5,3.2-0.2c1,0.2,1.9,0.8,2.5,1.6c0.7,0.8,0.8,1.8,0.4,3
		c-1,3.1-0.6,5.6,1.1,7.4c1.7,1.8,3.9,2.8,6.7,2.8c2.2,0,4.3-0.8,6.4-2.5c2-1.7,3.5-3.5,4.3-5.6c0.4-0.8,0.7-1.6,0.9-2.5
		c0.2-0.9,0.4-2,0.5-3.3c0.1-1.3,0.3-2.8,0.4-4.6c0.1-1.8,0.2-4,0.4-6.6c-1.7,2.1-3.5,4.1-5.1,5.9c-1.7,1.8-3.4,3.5-5,4.9
		c-1,0.9-2,1.2-3,0.9c-1-0.2-1.9-0.7-2.5-1.5c-0.7-0.8-1.1-1.7-1.2-2.8C263,512.4,263.4,511.4,264.3,510.6z"/>
	<path class="st0" d="M331.5,539.7c-1.7,0-3.4-0.4-5-1.1s-2.8-1.9-3.7-3.4c-0.5-0.8-0.8-1.5-0.9-2.3c-0.1-0.8-0.3-1.5-0.4-2.3
		c-2.2,1.9-4.8,3.8-7.7,5.7c-1.4,0.8-2.9,1.5-4.5,2.3c-1.6,0.8-3.4,1.2-5.4,1.2c-1.6,0-3.2-0.4-4.8-1.1c-1.5-0.7-2.8-1.8-3.6-3.3
		c-1.1-1.9-1.5-3.9-1.2-6c0.2-2.1,0.7-4,1.5-5.9c1-2.5,2.4-5.2,4.3-8c1.9-2.8,4-5.7,6.3-8.4c2.3-2.8,4.6-5.4,7-7.8
		c2.4-2.5,4.5-4.7,6.4-6.6c0.7-0.6,1.4-1.2,2.1-2c0.7-0.7,1.6-1.1,2.5-1.2c1.6,0,3,0.7,4.1,2c1.1,1.3,1.6,2.5,1.6,3.7
		c0,1.4-0.4,2.5-1.3,3.3c-3.2,3.5-6.4,6.9-9.5,10.1c-3.1,3.3-6.1,6.8-8.9,10.4c-0.9,1-1.7,2.1-2.6,3.3c-0.9,1.3-1.6,2.5-2.3,3.6
		c-0.7,1.2-1.2,2.2-1.4,3.1c-0.3,0.9-0.2,1.5,0.1,1.8c0.4,0.3,1.2,0.2,2.3-0.3c1.2-0.5,2.9-1.5,5.2-3.2c4.2-3.1,8.2-6.5,11.9-10.2
		c3.7-3.7,7.2-7.6,10.7-11.7l11.4-12.9c0.6-0.7,1.2-1.4,2-2c0.7-0.7,1.6-1.1,2.5-1.2c1.6,0,2.9,0.6,3.9,1.9c1,1.3,1.5,2.6,1.7,3.9
		c0,0.8-0.1,1.4-0.3,1.8c-0.2,0.4-0.6,0.9-1.2,1.5c-1.4,1.4-2.7,2.9-4.1,4.3c-1.4,1.4-2.8,2.9-4.1,4.6c-2.8,3.1-5.3,6.1-7.6,8.9
		c-2.3,2.9-4.1,5.8-5.6,8.9c-0.3,0.5-0.6,1.1-0.9,1.9c-0.3,0.8-0.5,1.5-0.6,2.2c-0.1,0.7,0,1.2,0.4,1.5c0.3,0.3,1,0.2,2.1-0.4
		c1.3-0.7,2.4-1.4,3.5-2.3c1.1-0.9,2.1-1.8,3.2-2.8l12.2-12.2c0.6-0.6,1.2-1.2,1.9-2c0.7-0.7,1.4-1.3,2.2-1.7
		c1.5-0.6,2.9-0.4,4.2,0.7c1.3,1,1.8,2.3,1.6,4c-0.2,1-0.6,1.8-1.2,2.4c-0.6,0.6-1.2,1.3-1.8,2c-2.2,2.2-4.3,4.3-6.3,6.4
		c-2,2-4,4-6.2,5.9c-1.1,1-2.2,2-3.3,3c-1.2,1-2.4,2-3.7,2.8s-2.7,1.6-4.1,2.2C334.7,539.4,333.2,539.7,331.5,539.7z"/>
	<path class="st0" d="M390.3,512.9c0.6-0.7,1.2-1.3,1.8-2c0.6-0.6,1.4-1.1,2.2-1.4c1.5-0.5,2.9-0.2,4.1,0.8c1.2,1,1.6,2.3,1.3,3.8
		c-0.2,0.9-0.6,1.6-1.2,2.3c-0.6,0.7-1.2,1.3-1.7,1.9c-4.9,5.1-9.3,9.1-13.2,12c-3.9,2.9-7.3,5-10.3,6.4c-3,1.4-5.6,2.1-7.8,2.2
		c-2.2,0.1-4.1,0-5.7-0.4c-2.1-0.6-3.8-1.5-5.1-2.8s-2.2-2.9-2.8-4.8s-0.8-3.9-0.7-6.2c0.1-2.2,0.6-4.5,1.4-7
		c1.4-4.1,3.2-8.3,5.4-12.6c2.3-4.3,4.8-8.6,7.5-12.8c2.7-4.2,5.5-8.1,8.4-11.8c2.9-3.7,5.7-7,8.3-9.9c2.8-3.1,5.7-6.1,8.8-9.1
		c3.1-2.9,6.5-5.4,10.1-7.5c1.3-0.7,2.8-1.4,4.6-2c1.8-0.7,3.6-1.1,5.4-1.3c1.8-0.2,3.5,0,5.1,0.5c1.6,0.5,2.9,1.7,4,3.4
		c1.2,1.7,1.6,3.6,1.4,5.6c-0.2,2-0.8,3.9-1.7,5.8c-0.9,1.9-2,3.7-3.3,5.4c-1.3,1.7-2.4,3.2-3.3,4.4c-2.8,3.4-5.7,6.5-8.8,9.5
		c-3,2.9-6.2,5.8-9.5,8.6c-2.1,1.7-4.4,3.5-6.7,5.2c-2.4,1.7-4.7,3.4-7.1,5.1c-2.4,1.6-4.7,3.2-7.1,4.6c-2.4,1.4-4.6,2.6-6.7,3.5
		c-0.8,1-1.4,1.9-2,2.8c-0.6,0.9-1.1,1.8-1.6,2.7c-1.7,3.3-2.5,6-2.2,8.3c0.3,2.2,1.1,3.6,2.3,4.1c1,0.4,2.3,0.2,4.1-0.4
		c1.8-0.7,3.8-1.8,6.2-3.3c2.3-1.5,4.9-3.4,7.6-5.7C384.5,518.5,387.4,515.9,390.3,512.9z M383.8,492.2c4-3.1,7.8-6.3,11.4-9.6
		c3.7-3.3,7.1-6.9,10.4-10.8c1.4-1.6,2.6-3.3,3.8-4.9c1.2-1.6,2.2-3.4,3-5.3c0.3-0.8,0.2-1.2-0.2-1.2c-0.4,0-1,0.1-1.7,0.4
		c-0.7,0.3-1.5,0.7-2.4,1.2c-0.9,0.5-1.5,0.9-2,1.3c-3.8,2.8-7.3,5.8-10.5,9.1c-3.2,3.2-6.3,6.7-9.1,10.4c-1.9,2.5-3.8,5-5.7,7.5
		c-1.8,2.5-3.6,5.1-5.2,7.8c1.4-1,2.7-1.9,4.1-2.8C381.1,494.2,382.5,493.2,383.8,492.2z"/>
	<path class="st0" d="M467.1,477.2c-0.5,0.8-1.3,1.2-2.5,1.2s-2.1,0-2.9,0c-5,0.3-9.9,0.6-14.8,1c-4.8,0.4-9.6,0.9-14.3,1.4
		c-3.8,4.1-7,7.5-9.6,10.4c-2.6,2.9-4.9,5.4-6.9,7.5c-2,2.1-3.7,4-5.1,5.7c-1.4,1.6-2.8,3.2-4.1,4.8c-2.4,2.8-4.9,5.7-7.3,8.8
		c-2.5,3-4.3,6.3-5.6,9.8c-0.6,1.9-0.5,3,0.3,3.1c0.8,0.1,1.8-0.1,3-0.8c1.2-0.7,2.4-1.5,3.5-2.4c1.2-0.9,1.9-1.5,2.2-1.8
		c1.4-1.3,2.8-2.7,4.4-4.3c1.6-1.6,3.9-4.2,7-7.5c0.6-0.7,1.2-1.4,1.9-2.2c0.7-0.8,1.4-1.4,2.2-1.9c1.4-0.9,2.7-1,4.1-0.3
		c1.4,0.7,2.2,1.8,2.4,3.3c0.1,0.9,0,1.6-0.4,2.2c-0.3,0.6-0.8,1.2-1.4,1.8c-1.6,1.7-3,3.2-4.2,4.5c-1.2,1.3-2.2,2.4-3.1,3.3
		c-0.9,1-1.7,1.8-2.4,2.5c-0.7,0.7-1.4,1.4-2,2.1c-2.3,2.4-4.9,4.7-7.8,6.7c-2.9,2.1-6.1,3.2-9.8,3.4c-3.1,0.2-5.7-0.7-7.7-2.8
		s-2.9-4.4-2.8-7.2c0.2-2.8,0.9-5.6,2.2-8.4c1.3-2.8,2.9-5.4,4.6-7.9c1.8-2.5,3.3-4.4,4.4-5.9c3.6-4.3,7.2-8.6,10.9-12.8
		c3.7-4.2,7.5-8.3,11.4-12.4L409,483c-0.8,0.1-1.5,0.2-2.3,0.4c-0.8,0.1-1.4-0.2-2-0.9c-1.4-1.7-1.8-3.6-1.2-5.7
		c0.3-1.1,0.8-1.7,1.7-1.8c0.8-0.1,1.7-0.3,2.7-0.5c0.6-0.1,1.2-0.2,2-0.3c0.7-0.1,1.8-0.2,3.1-0.4c1.4-0.2,3.2-0.5,5.4-0.8
		c2.3-0.3,5.2-0.7,8.9-1.2c2.6-2.7,5.2-5.4,7.9-8c2.7-2.7,5.4-5.2,8.2-7.6c0.7-0.6,1.3-1.2,1.9-1.7c0.6-0.6,1.2-1.1,1.9-1.6
		c0.7-0.5,1.4-0.7,2-0.6c0.7,0.1,1.3,0.3,1.9,0.7c1.1,0.6,2,1.4,2.7,2.6c0.7,1.2,1,2.4,0.8,3.6c-0.2,0.8-0.6,1.4-1.2,2
		c-0.6,0.5-1.2,1-1.7,1.5l-7.7,7.2c3.8-0.5,7.1-0.8,10-1.1c2.9-0.2,5.7-0.5,8.4-0.7c0.5,0,1.1,0,1.7-0.1c0.7-0.1,1.3,0,1.7,0.1
		c0.9,0.3,1.5,0.8,1.8,1.6c0.3,0.8,0.5,1.6,0.5,2.6c0,1-0.1,1.9-0.3,2.8C467.7,476.1,467.4,476.8,467.1,477.2z"/>
	<path class="st0" d="M447.9,539.7c-2.3,0.2-4.3-0.1-6.1-0.9c-1.7-0.8-3.1-2-4.1-3.6c-0.6-1-1-2.2-1.2-3.8c-1.4,1.2-2.7,2.2-4.1,3.2
		c-1.4,1-2.8,1.9-4.2,2.8c-2.3,1.3-4.7,2-7.2,2.3c-2.5,0.3-4.8-0.1-7-1.3c-2-1.1-3.4-2.6-4-4.5c-0.6-1.9-0.8-4-0.7-6.2
		c0.2-2.2,0.7-4.3,1.6-6.4c0.9-2.1,1.7-3.8,2.6-5.1c3.1-4.7,6.6-9.2,10.6-13.3c4-4.2,8.5-7.6,13.4-10.4c2.2-1.2,4.5-2.1,6.9-3
		c2.4-0.8,4.8-1.1,7.3-0.9c3.9,0.3,6.7,1.7,8.5,4.3c0.6-0.8,1.3-1.5,2.2-2.2c0.9-0.7,1.8-1.1,2.5-1.2c1.4,0,2.8,0.6,3.9,1.7
		c1.1,1.1,1.6,2.3,1.7,3.7c0.1,1.4-0.3,2.6-1.3,3.7c-1.4,1.4-2.8,2.9-4.2,4.3c-1.4,1.4-2.9,2.9-4.2,4.6c-3.2,3.8-5.8,7-7.9,9.6
		c-2.1,2.7-3.8,5.4-5.3,8.2c-0.5,0.8-0.8,1.6-1.1,2.5c-0.2,0.9-0.3,1.6-0.3,2.2c0,0.6,0.3,1,0.8,1.2c0.5,0.2,1.3,0.1,2.3-0.5
		c1.3-0.7,2.4-1.5,3.5-2.4c1.1-0.9,2.1-1.9,3.2-3l12-12c0.6-0.6,1.2-1.2,1.8-2c0.6-0.7,1.3-1.3,2.1-1.7c1.5-0.6,3-0.4,4.3,0.6
		c1.3,1,1.9,2.3,1.7,3.9c-0.2,1-0.6,1.7-1.2,2.3c-0.6,0.6-1.2,1.2-1.7,1.9c-3.4,3.5-5.9,6.1-7.7,7.8c-1.7,1.7-3.3,3.3-4.6,4.6
		c-2,1.9-4.3,3.8-6.7,5.7C453.9,538.3,451.1,539.4,447.9,539.7z M439.3,503.6c-3.5,2.8-7,6.1-10.4,9.9c-3.5,3.8-6.1,7.5-8,11.2
		c-0.2,0.3-0.5,0.8-0.8,1.5c-0.3,0.7-0.6,1.4-0.8,2.2c-0.2,0.7-0.2,1.4-0.1,2c0.1,0.6,0.5,0.9,1.3,0.9c2.2-0.2,4.3-1.1,6.3-2.7
		c2-1.6,3.7-3,5.1-4.3c4.2-3.8,8-7.7,11.4-11.8c3.5-4.1,7-8.2,10.4-12.2c0.2-1.9-0.4-2.9-1.7-2.9c-1.3,0-2.8,0.4-4.6,1.2
		c-1.7,0.8-3.4,1.7-5.1,2.9C440.9,502.5,439.8,503.2,439.3,503.6z"/>
	<path class="st0" d="M504.8,488.5c1.6,0,3.3,0.4,4.9,1.1c1.6,0.7,2.9,1.8,3.9,3.1c3.1-3.4,6.2-6.8,9.3-10.1
		c3.1-3.4,6.3-6.8,9.3-10.1c2.6-2.8,5.2-5.6,7.8-8.3c2.6-2.8,5.3-5.4,8.1-7.9c0.6-0.5,1.2-1,1.7-1.7c0.6-0.6,1.3-1.2,2-1.7
		c0.9-0.6,1.8-0.7,2.8-0.4c1,0.3,1.8,0.8,2.5,1.6c0.7,0.8,1.3,1.6,1.7,2.6c0.4,1,0.6,1.8,0.4,2.6c-0.2,0.8-0.6,1.4-1.2,2
		c-0.6,0.5-1.2,1-1.7,1.5c-4.3,4.3-7.9,7.9-11.1,11.1c-3.1,3.1-6.3,6.4-9.3,9.6c-3.1,3.3-6.4,6.9-10.1,10.9
		c-3.6,4-8.1,9.1-13.4,15.1c-2.4,2.8-4.8,5.7-7.1,8.8c-2.3,3-4.2,6.3-5.7,9.6c-0.7,1.4-0.6,2.4,0.1,2.8c0.8,0.4,1.7,0.4,2.9-0.2
		c1.4-0.7,2.5-1.5,3.5-2.4c1-0.9,2.1-1.9,3.1-3c1.4-1.3,2.9-2.8,4.6-4.6c1.7-1.8,4.2-4.3,7.4-7.4c0.6-0.6,1.2-1.2,1.9-2
		c0.7-0.7,1.4-1.3,2.2-1.7c1.4-0.6,2.8-0.4,4.1,0.6c1.3,1,1.9,2.3,1.7,3.9c-0.1,1-0.4,1.7-1,2.3c-0.6,0.6-1.2,1.2-1.7,1.9
		c-2.3,2.3-4.5,4.5-6.4,6.5c-2,2-3.9,4-5.9,5.9c-1.1,1-2.2,2-3.3,3c-1.2,1-2.4,2-3.6,2.8c-1.3,0.9-2.6,1.6-4,2.2
		c-1.4,0.6-2.8,0.9-4.3,1c-3.8,0.3-6.7-0.6-8.7-2.6c-1.5-1.5-2.4-3.4-2.6-5.7c-1.6,1.4-3.4,2.7-5.2,3.9c-1.8,1.3-3.7,2.3-5.6,3
		c-1.9,0.8-3.8,1.2-5.8,1.3c-2,0.1-3.9-0.3-5.9-1.3c-2.5-1.5-4.1-3.8-4.8-6.8c-0.5-2.7-0.2-5.4,0.7-8c1-2.7,2.2-5.1,3.6-7.3
		c3-4.7,6.5-9.2,10.6-13.3c4.1-4.2,8.5-7.6,13.5-10.4c2.1-1.2,4.3-2.1,6.6-2.8C499.9,488.9,502.3,488.5,504.8,488.5z M479.7,516.5
		c-1.1,1.4-2.1,2.7-3,4c-1,1.3-1.8,2.7-2.6,4.1c-1.1,2-1.6,3.5-1.7,4.5c0,1,0.2,1.5,0.9,1.7c0.6,0.2,1.5,0.1,2.6-0.4
		c1.1-0.4,2.3-1.1,3.7-2c1.4-0.9,3-2.1,4.8-3.6c1.7-1.5,3.5-3.3,5.4-5.1c1.8-1.9,3.7-3.9,5.6-5.9c1.9-2.1,3.7-4.1,5.4-6.2l6.2-7.4
		c0.2-1,0.1-1.7-0.1-2.2c-0.3-0.5-0.7-0.8-1.2-0.9c-1.7-0.3-3.8,0.2-6.2,1.4c-2.4,1.3-4.8,2.9-7.2,4.9c-2.4,2-4.7,4.2-7,6.6
		C483.2,512.4,481.3,514.6,479.7,516.5z"/>
	<path class="st0" d="M555.8,523.2c-2.8,3.2-5.4,5.8-7.8,8c-2.4,2.1-4.9,3.9-7.4,5.2c-2.8,1.4-5.9,2.5-9.4,3.2
		c-3.5,0.7-6.6,0.2-9.4-1.4c-1.9-1.3-3.2-2.8-3.8-4.6c-0.6-1.8-0.9-3.7-0.8-5.7c0.1-2,0.5-4,1.2-5.9c0.7-2,1.4-3.7,2.2-5.3
		c2.7-5.2,6-10,9.9-14.5c3.9-4.4,8.3-7.9,13.2-10.4c2.8-1.6,5.9-2.7,9.3-3.1c3.4-0.4,6.5,0.1,9.3,1.5c1.8,1.2,3.1,2.7,3.8,4.5
		c0.7,1.8,0.9,3.7,0.8,5.7c-0.1,2-0.6,4-1.2,5.9c-0.7,2-1.4,3.7-2.2,5.1l-2.2,3.9c3.9-0.1,7.1-1.4,9.9-3.8c0.8-0.8,1.6-1.4,2.4-1.9
		c0.8-0.5,1.8-0.6,3-0.3c1.1,0.3,1.9,0.9,2.5,1.8c0.6,0.9,0.8,1.9,0.6,3c-0.2,1.2-0.8,2.2-1.8,3c-1,0.8-2,1.6-2.8,2.2
		c-3,2.2-6.1,3.6-9.4,4.1C562.1,524.1,558.9,524,555.8,523.2z M527.6,526.8c-0.6,1.9-0.7,3.2-0.2,3.8s1.1,0.8,2,0.7
		c0.9-0.1,2-0.6,3.1-1.2c1.2-0.7,2.2-1.3,3-1.9c2.2-1.5,4.2-3.2,6.1-5c1.8-1.8,3.6-3.6,5.2-5.6c-1.6-1.6-2.9-3.5-3.7-5.6
		c-0.8-2.1-1.3-4.2-1.5-6.4c-3,3.1-5.8,6.4-8.5,10.1C530.5,519.2,528.6,522.9,527.6,526.8z M550.7,498.5c-0.2,0.6-0.3,1.3-0.4,2.2
		c-0.1,0.9-0.1,1.9-0.1,3c0,1.1,0.1,2.2,0.4,3.4c0.3,1.2,0.7,2.2,1.3,3.2c1.3-1.6,2.2-3.2,2.8-4.7c0.6-1.5,1.1-2.9,1.5-4.3
		c0.3-1.3,0.3-2.2,0.1-2.9c-0.2-0.7-0.6-1.1-1.2-1.2c-0.6-0.1-1.3-0.1-2.1,0.1C552.3,497.7,551.5,498.1,550.7,498.5z"/>
	<path class="st0" d="M572.2,510.6c1.6-1.6,3.2-3.3,4.7-4.9c1.5-1.6,3-3.3,4.4-5c1.4-1.6,2.7-3.4,4.1-5.1c1.4-1.8,2.8-3.8,4.5-6.2
		c0.8-3.1,1.9-5.9,3.5-8.4c1.4-2.2,3.3-4.1,5.6-5.6c2.3-1.5,4.8-2.2,7.6-2.2c1.4,0,2.5,0.3,3.5,1c1,0.7,1.5,1.6,1.6,2.9
		c0,0.9-0.2,1.6-0.5,2.2c-0.3,0.6-0.8,1.1-1.4,1.5c-0.6,0.4-1.2,0.8-1.9,1.1c-0.7,0.3-1.3,0.6-1.9,1c-1.6,1.1-2.9,2.4-3.8,3.9
		c-0.9,1.5-1.6,3.1-2,4.8c-1,4.1-1.5,8.2-1.6,12.4c-0.1,4.2-0.4,8.4-0.9,12.5c-0.3,3.3-1.1,6.4-2.4,9.2c-1.3,2.8-3,5.3-5,7.5
		c-2,2.1-4.4,3.8-7.1,5c-2.7,1.2-5.7,1.7-9,1.5c-2.8-0.1-5.4-0.7-7.7-2c-2.3-1.2-4.2-2.8-5.7-4.6c-1.5-1.9-2.5-4.1-2.9-6.5
		s-0.2-5,0.8-7.6c0.4-1.2,1.1-1.9,2.2-2.3c1.1-0.4,2.2-0.5,3.2-0.2c1,0.2,1.9,0.8,2.5,1.6c0.7,0.8,0.8,1.8,0.4,3
		c-1,3.1-0.6,5.6,1.1,7.4c1.7,1.8,3.9,2.8,6.7,2.8c2.2,0,4.3-0.8,6.4-2.5c2-1.7,3.5-3.5,4.3-5.6c0.4-0.8,0.7-1.6,0.9-2.5
		c0.2-0.9,0.4-2,0.5-3.3c0.1-1.3,0.3-2.8,0.4-4.6c0.1-1.8,0.2-4,0.4-6.6c-1.7,2.1-3.5,4.1-5.1,5.9c-1.7,1.8-3.4,3.5-5,4.9
		c-1,0.9-2,1.2-3,0.9c-1-0.2-1.9-0.7-2.5-1.5c-0.7-0.8-1.1-1.7-1.2-2.8C570.9,512.4,571.3,511.4,572.2,510.6z"/>
	<path class="st0" d="M643.5,539.7c-1.5-0.1-3-0.5-4.5-1.2c-1.4-0.7-2.6-1.7-3.5-3c-4.8,5.8-9.8,11.9-14.9,18.2
		c-5.1,6.3-10.6,13.8-16.4,22.4c-0.5,0.7-0.9,1.4-1.3,2.2c-0.4,0.8-1,1.4-1.7,1.7c-1.3,0.5-2.5,0.6-3.8,0.2c-1.3-0.3-2.3-1-3.1-2.1
		c-1-1.4-1.3-2.6-0.9-3.8c0.3-0.9,0.7-1.7,1.2-2.5c0.5-0.8,1-1.5,1.5-2.3c5.8-9.1,12-17.6,18.5-25.6c6.5-8,13-15.9,19.5-23.7
		l22.7-27.8c0.4-0.6,0.8-1.1,1.2-1.4c0.4-0.4,1-0.6,1.7-0.7c0.8-0.1,1.5,0,2.3,0.3c0.8,0.3,1.7,0.9,2.8,1.9c2.5-1.4,4.7-2.5,6.7-3.3
		c1.9-0.7,4.1-0.9,6.4-0.7c2.3,0.2,4.3,1.1,5.9,2.6c1.6,1.5,2.5,3.3,2.8,5.4c0.4,2.8,0.1,5.5-0.8,8.2c-0.9,2.7-2.1,5.1-3.5,7.3
		c-3,4.6-6.5,9-10.6,13.2c-4.1,4.2-8.5,7.6-13.5,10.4c-2.2,1.3-4.5,2.3-7,3.1C648.7,539.6,646.2,539.9,643.5,539.7z M656.6,524.5
		c2.4-1.9,4.7-4,6.7-6.1c2.1-2.1,4.1-4.4,6-6.8c1.1-1.3,2.1-2.5,3-3.8c1-1.3,1.8-2.7,2.6-4.1c0.1-0.3,0.3-0.8,0.7-1.4
		c0.3-0.7,0.6-1.4,0.7-2c0.1-0.7,0.2-1.3,0.1-1.9c-0.1-0.6-0.5-1-1.2-1.2c-0.8-0.1-1.7,0.1-2.8,0.6c-1.1,0.5-2.2,1.1-3.3,2
		c-1.1,0.8-2.2,1.6-3.1,2.5c-1,0.8-1.7,1.5-2.3,2c-4.1,3.7-7.9,7.5-11.4,11.6c-3.6,4.1-7.1,8.3-10.4,12.6c-0.1,0.8,0,1.5,0.3,2.1
		c0.3,0.6,0.8,0.9,1.6,0.9c1.9,0,4.1-0.7,6.4-2.2C652.6,527.5,654.7,526,656.6,524.5z"/>
	<path class="st0" d="M721.7,523.2c-2.8,3.2-5.4,5.8-7.8,8c-2.4,2.1-4.9,3.9-7.4,5.2c-2.8,1.4-5.9,2.5-9.4,3.2
		c-3.5,0.7-6.6,0.2-9.4-1.4c-1.9-1.3-3.2-2.8-3.8-4.6c-0.6-1.8-0.9-3.7-0.8-5.7c0.1-2,0.5-4,1.2-5.9c0.7-2,1.4-3.7,2.2-5.3
		c2.7-5.2,6-10,9.9-14.5c3.9-4.4,8.3-7.9,13.2-10.4c2.8-1.6,5.9-2.7,9.3-3.1c3.4-0.4,6.5,0.1,9.3,1.5c1.8,1.2,3.1,2.7,3.8,4.5
		c0.7,1.8,0.9,3.7,0.8,5.7c-0.1,2-0.6,4-1.2,5.9c-0.7,2-1.4,3.7-2.2,5.1l-2.2,3.9c3.9-0.1,7.1-1.4,9.9-3.8c0.8-0.8,1.6-1.4,2.4-1.9
		c0.8-0.5,1.8-0.6,3-0.3c1.1,0.3,1.9,0.9,2.5,1.8c0.6,0.9,0.8,1.9,0.6,3c-0.2,1.2-0.8,2.2-1.8,3c-1,0.8-2,1.6-2.8,2.2
		c-3,2.2-6.1,3.6-9.4,4.1C728,524.1,724.8,524,721.7,523.2z M693.4,526.8c-0.6,1.9-0.7,3.2-0.2,3.8s1.1,0.8,2,0.7
		c0.9-0.1,2-0.6,3.1-1.2c1.2-0.7,2.2-1.3,3-1.9c2.2-1.5,4.2-3.2,6.1-5c1.8-1.8,3.6-3.6,5.2-5.6c-1.6-1.6-2.9-3.5-3.7-5.6
		c-0.8-2.1-1.3-4.2-1.5-6.4c-3,3.1-5.8,6.4-8.5,10.1C696.4,519.2,694.5,522.9,693.4,526.8z M716.6,498.5c-0.2,0.6-0.3,1.3-0.4,2.2
		c-0.1,0.9-0.1,1.9-0.1,3c0,1.1,0.1,2.2,0.4,3.4c0.3,1.2,0.7,2.2,1.3,3.2c1.3-1.6,2.2-3.2,2.8-4.7c0.6-1.5,1.1-2.9,1.5-4.3
		c0.3-1.3,0.3-2.2,0.1-2.9c-0.2-0.7-0.6-1.1-1.2-1.2c-0.6-0.1-1.3-0.1-2.1,0.1C718.2,497.7,717.4,498.1,716.6,498.5z"/>
	<path class="st0" d="M738.1,510.6c1.6-1.6,3.2-3.3,4.7-4.9c1.5-1.6,3-3.3,4.4-5c1.4-1.6,2.7-3.4,4.1-5.1c1.4-1.8,2.8-3.8,4.5-6.2
		c0.8-3.1,1.9-5.9,3.5-8.4c1.4-2.2,3.3-4.1,5.6-5.6c2.3-1.5,4.8-2.2,7.6-2.2c1.4,0,2.5,0.3,3.5,1c1,0.7,1.5,1.6,1.6,2.9
		c0,0.9-0.2,1.6-0.5,2.2c-0.3,0.6-0.8,1.1-1.4,1.5c-0.6,0.4-1.2,0.8-1.9,1.1c-0.7,0.3-1.3,0.6-1.9,1c-1.6,1.1-2.9,2.4-3.8,3.9
		c-0.9,1.5-1.6,3.1-2,4.8c-1,4.1-1.5,8.2-1.6,12.4c-0.1,4.2-0.4,8.4-0.9,12.5c-0.3,3.3-1.1,6.4-2.4,9.2c-1.3,2.8-3,5.3-5,7.5
		c-2,2.1-4.4,3.8-7.1,5c-2.7,1.2-5.7,1.7-9,1.5c-2.8-0.1-5.4-0.7-7.7-2c-2.3-1.2-4.2-2.8-5.7-4.6c-1.5-1.9-2.5-4.1-2.9-6.5
		s-0.2-5,0.8-7.6c0.4-1.2,1.1-1.9,2.2-2.3c1.1-0.4,2.2-0.5,3.2-0.2c1,0.2,1.9,0.8,2.5,1.6c0.7,0.8,0.8,1.8,0.4,3
		c-1,3.1-0.6,5.6,1.1,7.4c1.7,1.8,3.9,2.8,6.7,2.8c2.2,0,4.3-0.8,6.4-2.5c2-1.7,3.5-3.5,4.3-5.6c0.4-0.8,0.7-1.6,0.9-2.5
		c0.2-0.9,0.4-2,0.5-3.3c0.1-1.3,0.3-2.8,0.4-4.6c0.1-1.8,0.2-4,0.4-6.6c-1.7,2.1-3.5,4.1-5.1,5.9c-1.7,1.8-3.4,3.5-5,4.9
		c-1,0.9-2,1.2-3,0.9c-1-0.2-1.9-0.7-2.5-1.5c-0.7-0.8-1.1-1.7-1.2-2.8C736.8,512.4,737.2,511.4,738.1,510.6z"/>
	<path class="st0" d="M779.5,539.7c-1.8,0.1-3.6-0.2-5.2-0.9c-1.6-0.7-2.9-1.9-3.8-3.5c-1.1-1.7-1.5-3.6-1.4-5.7
		c0.1-2,0.6-4,1.2-5.8c1.4-4.2,3.4-8,6.2-11.5c2.8-3.5,5.5-6.9,8.3-10.2c1.4-1.6,2.7-3.3,4.1-4.9c1.4-1.6,2.9-3.1,4.4-4.6
		c0.7-0.7,1.4-1.4,2.1-2c0.7-0.7,1.6-1.1,2.5-1.2c1.6,0,2.9,0.6,3.9,1.9c1,1.3,1.5,2.6,1.7,3.9c0,0.8-0.1,1.4-0.4,1.8
		c-0.2,0.4-0.6,0.9-1.1,1.5c-3.2,3.4-6.3,6.7-9.3,10c-3,3.3-5.8,6.8-8.4,10.4c-1.8,2.5-3.1,4.7-3.9,6.5c-0.8,1.8-1,3.1-0.7,3.9
		c0.3,0.8,1.1,0.9,2.5,0.3c1.4-0.6,3.4-2,5.9-4.3c1.4-1.3,2.9-2.7,4.6-4.4c1.7-1.7,4.2-4.2,7.6-7.6c0.7-0.7,1.3-1.4,2-2.1
		c0.6-0.7,1.4-1.3,2.2-1.7c1.5-0.6,3-0.4,4.3,0.7c1.3,1,1.8,2.3,1.5,4c-0.2,1-0.6,1.8-1.2,2.4c-0.6,0.6-1.3,1.3-2,2l-4.2,4.3
		c-1.4,1.4-2.7,2.7-4.1,4.1c-1.4,1.4-2.8,2.7-4.2,4.1c-2.9,2.8-5.5,4.9-7.9,6.4C784.6,538.8,782.1,539.6,779.5,539.7z M813.3,479.6
		c-1.7,0-3.2-0.7-4.5-2c-1.3-1.3-1.9-2.8-1.9-4.4c0-1.7,0.6-3.2,1.9-4.5c1.3-1.3,2.8-1.9,4.5-1.9c1.6,0,3.1,0.6,4.4,1.9
		c1.3,1.3,2,2.8,2,4.5c0,1.6-0.6,3.1-1.9,4.4C816.5,478.9,815,479.6,813.3,479.6z"/>
	<path class="st0" d="M852.1,478.6c-0.5,0.8-1.3,1.3-2.5,1.6c-1.2,0.3-3.5,0.5-7.1,0.7c-3.8,4.1-6.9,7.5-9.5,10.4
		c-2.6,2.9-4.8,5.4-6.7,7.5c-1.9,2.1-3.5,4-4.9,5.7c-1.4,1.6-2.7,3.2-4,4.8c-2.4,2.8-4.7,5.7-6.9,8.8c-2.2,3-3.9,6.3-5.1,9.8
		c-0.6,1.9-0.5,3,0.3,3.1c0.8,0.1,1.8-0.1,3-0.8c1.2-0.7,2.4-1.5,3.5-2.4c1.2-0.9,1.9-1.5,2.2-1.8c1.4-1.3,2.8-2.7,4.4-4.3
		c1.6-1.6,3.9-4.2,7-7.5c0.6-0.7,1.2-1.4,1.9-2.2c0.7-0.8,1.4-1.4,2.2-1.9c1.4-0.9,2.7-1,4.1-0.3c1.4,0.7,2.2,1.8,2.4,3.3
		c0.1,0.9,0,1.6-0.4,2.2c-0.3,0.6-0.8,1.2-1.4,1.8c-1.6,1.7-3,3.2-4.2,4.5c-1.2,1.3-2.2,2.4-3.1,3.3c-0.9,1-1.7,1.8-2.4,2.5
		c-0.7,0.7-1.4,1.4-2,2.1c-2.3,2.4-4.9,4.7-7.8,6.7c-2.9,2.1-6.1,3.2-9.8,3.4c-3.1,0.2-5.7-0.7-7.7-2.8s-3-4.4-2.9-7.2
		c0.1-2.8,0.7-5.6,2-8.4c1.2-2.8,2.7-5.4,4.3-7.9c1.7-2.5,3.1-4.4,4.3-5.9c3.6-4.3,7-8.7,10.4-13c3.3-4.3,6.9-8.5,10.8-12.6
		l-8.3,0.7c-0.8,0.1-1.5,0.2-2.3,0.4c-0.8,0.1-1.4-0.2-2-0.9c-1.4-1.7-1.8-3.6-1.2-5.7c0.3-1.1,0.8-1.7,1.7-1.8
		c0.8-0.1,1.7-0.3,2.7-0.5c0.6-0.1,1.2-0.2,2-0.3c0.7-0.1,1.8-0.2,3.1-0.4c1.4-0.2,3.2-0.5,5.4-0.8c2.3-0.3,5.2-0.7,8.9-1.2
		c3.2-3.4,6.4-6.8,9.8-10.1c3.3-3.4,6.4-6.2,9.2-8.4c0.6-0.5,1.2-0.7,2-0.6c0.7,0.1,1.4,0.3,2,0.7c1.1,0.6,2,1.4,2.7,2.6
		c0.7,1.2,1,2.4,0.8,3.6c-0.2,0.8-0.6,1.4-1.2,2c-0.6,0.5-1.2,1-1.7,1.5l-7.7,7.2c1.8-0.2,2.7,0.6,2.7,2.3
		C855,473.9,854,476,852.1,478.6z"/>
	<path class="st0" d="M830.9,539.7c-1.8,0.1-3.6-0.2-5.2-0.9c-1.6-0.7-2.9-1.9-3.8-3.5c-1.1-1.7-1.5-3.6-1.4-5.7
		c0.1-2,0.6-4,1.2-5.8c1.4-4.2,3.4-8,6.2-11.5c2.8-3.5,5.5-6.9,8.3-10.2c1.4-1.6,2.7-3.3,4.1-4.9c1.4-1.6,2.9-3.1,4.4-4.6
		c0.7-0.7,1.4-1.4,2.1-2c0.7-0.7,1.6-1.1,2.5-1.2c1.6,0,2.9,0.6,3.9,1.9c1,1.3,1.5,2.6,1.7,3.9c0,0.8-0.1,1.4-0.4,1.8
		c-0.2,0.4-0.6,0.9-1.1,1.5c-3.2,3.4-6.3,6.7-9.3,10c-3,3.3-5.8,6.8-8.4,10.4c-1.8,2.5-3.1,4.7-3.9,6.5c-0.8,1.8-1,3.1-0.7,3.9
		c0.3,0.8,1.1,0.9,2.5,0.3c1.4-0.6,3.4-2,5.9-4.3c1.4-1.3,2.9-2.7,4.6-4.4c1.7-1.7,4.2-4.2,7.6-7.6c0.7-0.7,1.3-1.4,2-2.1
		c0.6-0.7,1.4-1.3,2.2-1.7c1.5-0.6,3-0.4,4.3,0.7c1.3,1,1.8,2.3,1.5,4c-0.2,1-0.6,1.8-1.2,2.4c-0.6,0.6-1.3,1.3-2,2l-4.2,4.3
		c-1.4,1.4-2.7,2.7-4.1,4.1c-1.4,1.4-2.8,2.7-4.2,4.1c-2.9,2.8-5.5,4.9-7.9,6.4C836,538.8,833.5,539.6,830.9,539.7z M864.7,479.6
		c-1.7,0-3.2-0.7-4.5-2c-1.3-1.3-1.9-2.8-1.9-4.4c0-1.7,0.6-3.2,1.9-4.5c1.3-1.3,2.8-1.9,4.5-1.9c1.6,0,3.1,0.6,4.4,1.9
		c1.3,1.3,2,2.8,2,4.5c0,1.6-0.6,3.1-1.9,4.4C867.9,478.9,866.4,479.6,864.7,479.6z"/>
	<path class="st0" d="M848.2,534c-1.3-2.3-1.7-4.8-1.4-7.5c0.3-2.7,1-5.1,2.1-7.3c2.2-4.6,5.1-8.9,8.8-12.7
		c3.6-3.8,7.1-7.5,10.4-11.1c0.8-0.9,1.5-1.7,2.3-2.5c0.8-0.8,1.6-1.5,2.5-2.3c1.6-1.4,3.3-1.5,5.1-0.6c1.7,1.1,2.7,2.6,2.9,4.6
		c0.1,0.8,0.1,1.4-0.1,1.9c-0.1,0.5-0.5,1-0.9,1.6c-3.6,4.1-7.1,7.8-10.5,11.3c-3.4,3.5-6.5,7.2-9.3,11.3c-1.4,1.7-2.2,3.4-2.7,4.9
		c-0.4,1.5-0.5,2.8-0.1,3.6c0.3,0.9,1.1,1.3,2.4,1.2c1.3,0,2.9-0.7,4.9-2.1c1.9-1.4,3.8-2.8,5.7-4.3c1.9-1.5,3.7-3.1,5.4-4.8
		c2-2,4.1-4.2,6.1-6.5c-0.6-2.6-0.4-5.4,0.6-8.4c1.4-4.4,4-8.3,7.7-11.4c0.7-0.6,1.5-1.2,2.5-1.9c1-0.7,2.1-1.2,3.2-1.5
		c1.1-0.3,2.2-0.5,3.3-0.4c1.1,0.1,2.2,0.6,3.3,1.6c1.4,1.4,2,3.2,1.5,5.5s-1.3,4.7-2.5,7.2c-1.3,2.5-2.7,4.7-4.3,6.8
		c-1.6,2.1-2.8,3.6-3.5,4.6c1.1,0.5,2.2,0.7,3.3,0.5s2.3-0.5,3.3-0.9c1.2-0.5,2.2-1.1,3-2c0.9-0.8,1.8-1.6,2.9-2.4
		c1.1-0.8,2.2-1,3.4-0.8c1.2,0.2,2.1,0.9,2.8,2c0.8,1.4,0.9,2.6,0.4,3.6c-0.5,1.1-1.3,2-2.2,2.9c-1.9,1.7-4.1,3.2-6.6,4.3
		s-5,1.7-7.8,1.7c-3.1,0-5.9-0.8-8.4-2.5c-2.4,2.5-4.9,4.9-7.5,7.2c-2.6,2.3-5.4,4.4-8.3,6.3c-1.8,1.2-3.9,2.2-6.2,3
		c-2.3,0.9-4.5,1.4-6.7,1.6c-2.2,0.2-4.2-0.1-6.2-0.9C850.9,537.8,849.3,536.3,848.2,534z"/>
	<path class="st0" d="M937.1,523.2c-2.8,3.2-5.4,5.8-7.8,8c-2.4,2.1-4.9,3.9-7.4,5.2c-2.8,1.4-5.9,2.5-9.4,3.2
		c-3.5,0.7-6.6,0.2-9.4-1.4c-1.9-1.3-3.2-2.8-3.8-4.6c-0.6-1.8-0.9-3.7-0.8-5.7c0.1-2,0.5-4,1.2-5.9c0.7-2,1.4-3.7,2.2-5.3
		c2.7-5.2,6-10,9.9-14.5c3.9-4.4,8.3-7.9,13.2-10.4c2.8-1.6,5.9-2.7,9.3-3.1c3.4-0.4,6.5,0.1,9.3,1.5c1.8,1.2,3.1,2.7,3.8,4.5
		c0.7,1.8,0.9,3.7,0.8,5.7c-0.1,2-0.6,4-1.2,5.9c-0.7,2-1.4,3.7-2.2,5.1l-2.2,3.9c3.9-0.1,7.1-1.4,9.9-3.8c0.8-0.8,1.6-1.4,2.4-1.9
		c0.8-0.5,1.8-0.6,3-0.3c1.1,0.3,1.9,0.9,2.5,1.8c0.6,0.9,0.8,1.9,0.6,3c-0.2,1.2-0.8,2.2-1.8,3c-1,0.8-2,1.6-2.8,2.2
		c-3,2.2-6.1,3.6-9.4,4.1C943.4,524.1,940.2,524,937.1,523.2z M908.9,526.8c-0.6,1.9-0.7,3.2-0.2,3.8s1.1,0.8,2,0.7
		c0.9-0.1,2-0.6,3.1-1.2c1.2-0.7,2.2-1.3,3-1.9c2.2-1.5,4.2-3.2,6.1-5c1.8-1.8,3.6-3.6,5.2-5.6c-1.6-1.6-2.9-3.5-3.7-5.6
		c-0.8-2.1-1.3-4.2-1.5-6.4c-3,3.1-5.8,6.4-8.5,10.1C911.8,519.2,909.9,522.9,908.9,526.8z M932.1,498.5c-0.2,0.6-0.3,1.3-0.4,2.2
		c-0.1,0.9-0.1,1.9-0.1,3c0,1.1,0.1,2.2,0.4,3.4c0.3,1.2,0.7,2.2,1.3,3.2c1.3-1.6,2.2-3.2,2.8-4.7c0.6-1.5,1.1-2.9,1.5-4.3
		c0.3-1.3,0.3-2.2,0.1-2.9c-0.2-0.7-0.6-1.1-1.2-1.2c-0.6-0.1-1.3-0.1-2.1,0.1C933.6,497.7,932.8,498.1,932.1,498.5z"/>
	<path class="st0" d="M953.5,510.6c1.6-1.6,3.2-3.3,4.7-4.9c1.5-1.6,3-3.3,4.4-5c1.4-1.6,2.7-3.4,4.1-5.1c1.4-1.8,2.8-3.8,4.5-6.2
		c0.8-3.1,1.9-5.9,3.5-8.4c1.4-2.2,3.3-4.1,5.6-5.6c2.3-1.5,4.8-2.2,7.6-2.2c1.4,0,2.5,0.3,3.5,1c1,0.7,1.5,1.6,1.6,2.9
		c0,0.9-0.2,1.6-0.5,2.2c-0.3,0.6-0.8,1.1-1.4,1.5c-0.6,0.4-1.2,0.8-1.9,1.1c-0.7,0.3-1.3,0.6-1.9,1c-1.6,1.1-2.9,2.4-3.8,3.9
		c-0.9,1.5-1.6,3.1-2,4.8c-1,4.1-1.5,8.2-1.6,12.4c-0.1,4.2-0.4,8.4-0.9,12.5c-0.3,3.3-1.1,6.4-2.4,9.2c-1.3,2.8-3,5.3-5,7.5
		c-2,2.1-4.4,3.8-7.1,5c-2.7,1.2-5.7,1.7-9,1.5c-2.8-0.1-5.4-0.7-7.7-2c-2.3-1.2-4.2-2.8-5.7-4.6c-1.5-1.9-2.5-4.1-2.9-6.5
		s-0.2-5,0.8-7.6c0.4-1.2,1.1-1.9,2.2-2.3c1.1-0.4,2.2-0.5,3.2-0.2c1,0.2,1.9,0.8,2.5,1.6c0.7,0.8,0.8,1.8,0.4,3
		c-1,3.1-0.6,5.6,1.1,7.4c1.7,1.8,3.9,2.8,6.7,2.8c2.2,0,4.3-0.8,6.4-2.5c2-1.7,3.5-3.5,4.3-5.6c0.4-0.8,0.7-1.6,0.9-2.5
		c0.2-0.9,0.4-2,0.5-3.3c0.1-1.3,0.3-2.8,0.4-4.6c0.1-1.8,0.2-4,0.4-6.6c-1.7,2.1-3.5,4.1-5.1,5.9c-1.7,1.8-3.4,3.5-5,4.9
		c-1,0.9-2,1.2-3,0.9c-1-0.2-1.9-0.7-2.5-1.5c-0.7-0.8-1.1-1.7-1.2-2.8C952.2,512.4,952.6,511.4,953.5,510.6z"/>
</g>
</svg>
