<?xml version="1.0" encoding="utf-8"?>
<!-- Generator: Adobe Illustrator 15.0.0, SVG Export Plug-In . SVG Version: 6.00 Build 0)  -->
<!DOCTYPE svg PUBLIC "-//W3C//DTD SVG 1.1//EN" "http://www.w3.org/Graphics/SVG/1.1/DTD/svg11.dtd">
<svg version="1.1" id="Layer_1" xmlns="http://www.w3.org/2000/svg" xmlns:xlink="http://www.w3.org/1999/xlink" x="0px" y="0px"
	 width="200px" height="200.01px" viewBox="0 0 200 200.01" enable-background="new 0 0 200 200.01" xml:space="preserve">
<g>
	<g>
		<path fill="#FFFFFF" d="M28.898,118.391c-1.08,1.789-3.911,1.826-3.925,1.826c-2.646,0-4.782-2.285-4.782-5.092
			c0-2.809,1.95-5.096,4.782-5.096c1.155,0,2.597,0.598,3.442,1.43v2.186H27.67c-0.348-1.391-1.316-3.18-3.553-2.906
			c-1.491,0.186-2.349,2.596-2.112,4.82c0.187,1.752,1.043,3.615,3.466,3.615c0.013,0,1.417,0,2.236-0.908v-1.676l-0.484-0.484
			h-1.02v-0.672h3.703v0.672h-0.522l-0.485,0.484V118.391z"/>
		<path fill="#FFFFFF" d="M36.895,114.898c-0.074-0.01-0.161-0.035-0.323-0.074v4.213l0.497,0.496h0.497v0.609h-3.515v-0.609h0.496
			l0.497-0.496v-7.689l-0.497-0.484h-0.496v-0.621h4.447c1.416,0,2.608,1.092,2.608,2.422c0,0.732-0.336,2.311-2.149,2.359
			l2.932,3.479v1.641h-0.56L36.895,114.898z M36.584,114.117c0.795,0.285,1.404,0.211,1.404,0.211c1.18,0,1.577-0.881,1.577-1.738
			c0-0.846-0.608-1.715-1.527-1.715c-0.385,0-0.944,0.012-1.454,0.111V114.117z"/>
		<path fill="#FFFFFF" d="M52.891,118.689c0,0-0.857,1.578-2.906,1.578c-1.019,0-2.908-0.734-2.908-2.746v-6.211l-0.484-0.498
			h-0.436v-0.607h2.499v6.77c0,1.59,0.844,2.273,1.812,2.273c0.907,0.012,1.926-0.584,2.423-1.553v-6.385l-0.484-0.498h-0.436
			v-0.607h2.497v8.832l0.486,0.496h0.433v0.609h-2.496V118.689z"/>
		<path fill="#FFFFFF" d="M64.737,110.205c1.765,0,3.23,1.34,3.23,2.98c0,1.627-1.28,2.881-2.981,2.957
			c-1.119,0.049-1.54,0.012-2.672-0.398v3.293l0.497,0.496h0.497v0.609H59.78v-0.609h0.497l0.496-0.496v-7.727l-0.496-0.498H59.78
			v-0.607H64.737z M62.314,115.037c1.702,0.881,3.901,0.51,3.901-1.852c0-1.105-0.784-2.311-1.876-2.385
			c-1.119-0.076-1.689,0.062-2.025,0.137V115.037z"/>
		<path fill="#FFFFFF" d="M72.758,115.098c0-2.818,2.137-5.117,4.807-5.117c2.672,0,4.81,2.299,4.81,5.117
			c0,2.822-2.138,5.182-4.81,5.182C74.895,120.279,72.758,117.92,72.758,115.098 M74.881,115.658
			c0.361,2.334,1.814,3.988,3.43,3.738c1.689-0.248,2.324-2.459,1.963-4.857c-0.336-2.311-1.863-4.049-3.578-3.75
			C74.98,111.074,74.533,113.309,74.881,115.658"/>
		<g>
			<polygon fill="#FFFFFF" points="91.864,119.715 92.311,119.715 92.809,119.217 92.809,111.49 92.311,110.994 91.864,110.994 
				91.864,110.385 98.858,110.385 99.081,112.137 98.212,112.137 98.063,111.59 97.578,111.105 94.324,111.105 94.324,114.447 
				96.709,114.447 97.206,113.949 97.206,113.465 97.877,113.465 97.877,116.148 97.206,116.148 97.206,115.689 96.709,115.205 
				94.336,115.205 94.336,119.516 97.827,119.516 98.361,118.98 98.771,118.322 99.68,118.322 99.095,120.324 91.864,120.324 			"/>
			<polygon fill="#FFFFFF" points="104.406,119.715 104.841,119.715 105.338,119.217 105.338,111.49 105.326,111.49 
				104.827,110.994 104.394,110.994 104.394,110.385 107.798,110.385 107.798,110.994 107.351,110.994 106.878,111.479 
				106.878,119.59 110.568,119.59 111.089,119.055 111.523,118.336 112.48,118.336 111.872,120.324 104.406,120.324 			"/>
			<polygon fill="#FFFFFF" points="116.873,119.715 117.321,119.715 117.818,119.217 117.818,111.49 117.321,110.994 
				116.873,110.994 116.873,110.385 123.867,110.385 124.092,112.137 123.223,112.137 123.072,111.59 122.589,111.105 
				119.334,111.105 119.334,114.447 121.719,114.447 122.215,113.949 122.215,113.465 122.887,113.465 122.887,116.148 
				122.215,116.148 122.215,115.689 121.719,115.205 119.346,115.205 119.346,119.516 122.836,119.516 123.371,118.98 
				123.781,118.322 124.688,118.322 124.104,120.324 116.873,120.324 			"/>
			<path fill="#FFFFFF" d="M136.286,119.715l0.422-0.424l-1.143-2.818h-3.429l-1.168,2.807l0.41,0.436h0.436v0.609h-2.746v-0.609
				h0.497l0.483-0.484l3.354-7.926l-0.622-1.293h1.89l3.739,9.182l0.51,0.521h0.484v0.609h-3.553v-0.609H136.286z M135.155,115.502
				l-1.316-3.131l-1.292,3.131H135.155z"/>
			<polygon fill="#FFFFFF" points="152.344,120.324 151.436,120.324 145.771,113.143 145.771,119.217 146.268,119.715 
				146.703,119.715 146.703,120.324 143.846,120.324 143.846,119.715 144.281,119.715 144.765,119.217 144.765,111.814 
				143.635,110.385 145.758,110.385 151.35,117.379 151.35,111.49 150.854,110.994 150.418,110.994 150.418,110.385 
				153.263,110.385 153.263,110.994 152.814,110.994 152.344,111.49 			"/>
			<path fill="#FFFFFF" d="M157.792,115.279c0-2.82,2.136-5.117,4.808-5.117c2.671,0,4.808,2.297,4.808,5.117
				s-2.137,5.18-4.808,5.18C159.928,120.459,157.792,118.1,157.792,115.279 M159.916,115.838c0.361,2.336,1.814,3.988,3.429,3.74
				c1.69-0.25,2.323-2.461,1.963-4.859c-0.335-2.309-1.862-4.049-3.577-3.75C160.016,111.254,159.568,113.49,159.916,115.838"/>
			<path fill="#FFFFFF" d="M174.906,115.08c-0.076-0.012-0.163-0.037-0.324-0.074v4.211l0.496,0.498h0.498v0.609h-3.517v-0.609
				h0.497l0.497-0.498v-7.689l-0.497-0.484h-0.497v-0.621h4.448c1.416,0,2.609,1.094,2.609,2.422c0,0.734-0.337,2.311-2.15,2.361
				l2.932,3.477v1.643h-0.559L174.906,115.08z M174.596,114.297c0.795,0.287,1.402,0.213,1.402,0.213c1.18,0,1.578-0.883,1.578-1.74
				c0-0.844-0.609-1.715-1.528-1.715c-0.386,0-0.944,0.014-1.452,0.111V114.297z"/>
		</g>
	</g>
	<path fill="#FFFFFF" d="M93.267,95.998v2.676l-5.749,3.438l-5.752-3.438v-2.676l5.752,3.436L93.267,95.998z M118.324,95.998v2.676
		l-5.752,3.438l-5.75-3.438v-2.676l5.75,3.436L118.324,95.998z M106,95.986v2.684l-5.955,3.445L94.09,98.67v-2.684l5.955,3.443
		L106,95.986z M93.267,92.277v2.764l-5.749,3.436l-5.752-3.436v-2.764l5.752,3.438L93.267,92.277z M118.324,92.277v2.764
		l-5.752,3.436l-5.75-3.436v-2.764l5.75,3.438L118.324,92.277z M106,92.268v2.77l-5.955,3.443l-5.955-3.443v-2.77l5.955,3.443
		L106,92.268z M82.146,91.549l5.371-3.209l5.368,3.209l-5.368,3.209L82.146,91.549z M107.204,91.549l5.368-3.209l5.371,3.209
		l-5.371,3.209L107.204,91.549z M94.488,91.549l5.557-3.213l5.555,3.213l-5.555,3.213L94.488,91.549z M81.766,88.143l5.752-3.436
		l5.749,3.436v2.678l-5.749-3.438l-5.752,3.438V88.143z M106.822,88.143l5.75-3.436l5.752,3.436v2.678l-5.752-3.438l-5.75,3.438
		V88.143z M94.09,88.148l5.955-3.445L106,88.148v2.684l-5.955-3.445l-5.955,3.445V88.148z M81.766,84.424l5.752-3.436l5.749,3.436
		v2.764l-5.749-3.436l-5.752,3.436V84.424z M106.822,84.424l5.75-3.436l5.752,3.436v2.764l-5.752-3.436l-5.75,3.436V84.424z
		 M94.09,84.428l5.955-3.443L106,84.428v2.771l-5.955-3.445l-5.955,3.445V84.428z M106.409,83.715l-6.364-3.68l-6.364,3.68
		l-6.163-3.684l-6.572,3.926v3.721v3.633v0.477v3.719v3.635l6.572,3.928l6.163-3.684l6.364,3.678l6.364-3.678l6.163,3.684
		l6.572-3.928v-3.635v-3.719v-0.477v-3.633v-3.721l-6.572-3.926L106.409,83.715z"/>
</g>
</svg>
