<?xml version="1.0" encoding="utf-8"?>
<!-- Generator: Adobe Illustrator 19.2.1, SVG Export Plug-In . SVG Version: 6.00 Build 0)  -->
<svg version="1.1" id="Capa_1" xmlns="http://www.w3.org/2000/svg" xmlns:xlink="http://www.w3.org/1999/xlink" x="0px" y="0px"
	 viewBox="0 0 400 400" style="enable-background:new 0 0 400 400;" xml:space="preserve">
<style type="text/css">
	.st0{fill:#F08100;}
	.st1{fill:#FFFFFF;}
</style>
<g>
	<g>
		<path class="st0" d="M156.7,89.5L20.8,179.9c-14.4,9.6-14.4,30.7,0,40.3l135.9,90.4c26.3,17.5,60.4,17.5,86.7,0l135.9-90.4
			c14.4-9.6,14.4-30.7,0-40.3L243.3,89.5C217.1,72,182.9,72,156.7,89.5z"/>
	</g>
	<g>
		<path d="M151.2,278.8c-2.3,0-3.7-1.3-3.7-3.3v-2.9h2.2v2.9c0,0.9,0.6,1.3,1.5,1.3c0.9,0,1.5-0.5,1.5-1.2V274c0-3-5.1-3-5.1-7.5
			v-1.8c0-2,1.3-3.2,3.6-3.2c2.3,0,3.6,1.3,3.6,3.3v2.9h-2.2v-2.9c0-0.8-0.6-1.3-1.4-1.3c-0.9,0-1.4,0.4-1.4,1.2v1.8
			c0,1.6,1.8,2.6,3.3,3.7c1,0.8,1.8,2.1,1.8,3.7v1.7C154.9,277.6,153.5,278.8,151.2,278.8z"/>
		<path d="M156.7,261.6h3.7c2.3,0,3.6,1.2,3.6,3.2v3.9c0,2-1.3,3.2-3.6,3.2H159v6.7h-2.2V261.6z M161.8,264.8c0-0.8-0.5-1.3-1.3-1.3
			H159v6.6h1.5c0.9,0,1.3-0.4,1.3-1.3V264.8z"/>
		<path d="M169.1,261.5c2.3,0,3.7,1.3,3.7,3.3v10.7c0,2-1.4,3.3-3.7,3.3c-2.3,0-3.7-1.3-3.7-3.3v-10.7
			C165.4,262.8,166.8,261.5,169.1,261.5z M167.6,264.8v10.7c-0.2,1.7,3.1,1.7,2.9,0v-10.7C170.7,263.1,167.4,263.1,167.6,264.8z"/>
		<path d="M182.4,278.6h-2.2l-0.4-6c-0.1-1-0.6-1.5-1.5-1.5H177v7.5h-2.2v-17h3.9c2.3,0,3.4,1.2,3.4,3.1v2.7c0,1.5-0.5,2.4-1.6,2.8
			c0.8,0.4,1.2,1.2,1.4,2.3L182.4,278.6z M177,263.5v5.8h1.6c0.8,0,1.3-0.4,1.3-1.2v-3.3c0-0.8-0.4-1.3-1.3-1.3H177z"/>
		<path d="M190,261.6v1.9h-2.3v15.1h-2.2v-15.1h-2.3v-1.9H190z"/>
		<path d="M194.7,278.8c-2.3,0-3.7-1.3-3.7-3.3v-2.9h2.2v2.9c0,0.9,0.6,1.3,1.5,1.3c0.9,0,1.5-0.5,1.5-1.2V274c0-3-5.1-3-5.1-7.5
			v-1.8c0-2,1.3-3.2,3.6-3.2c2.3,0,3.6,1.3,3.6,3.3v2.9h-2.2v-2.9c0-0.8-0.6-1.3-1.4-1.3c-0.9,0-1.4,0.4-1.4,1.2v1.8
			c0,1.6,1.8,2.6,3.3,3.7c1,0.8,1.8,2.1,1.8,3.7v1.7C198.4,277.6,197,278.8,194.7,278.8z"/>
		<path d="M212.8,271.3h-2v3l2,2.8v1.6h-1.6l-0.9-1.3c-0.6,1-1.7,1.5-3.2,1.5c-2.3,0-3.7-1.3-3.7-3.3v-2.3c0-1.5,0.4-2.4,1.6-3.3
			c-1-1.4-1.5-2.7-1.5-4.1v-1.2c0-2,1.3-3.2,3.6-3.2c2.3,0,3.6,1.2,3.6,3.3v2.9h-2.2v-2.9c0-0.8-0.6-1.3-1.4-1.3
			c-0.9,0-1.4,0.4-1.4,1.2v1.2c0,0.9,0.4,2,1.1,3l1.7,2.4v-1.9h4.2V271.3z M208.5,274.9l-2.4-3.4c-0.4,0.5-0.6,1-0.6,1.6v2.3
			c0,0.9,0.6,1.3,1.5,1.3c0.9,0,1.5-0.5,1.5-1.2V274.9z"/>
		<path d="M224.1,263.5H220v6.1h3.4v1.9H220v7.1h-2.2v-17h6.3V263.5z"/>
		<path d="M229,261.5c2.3,0,3.7,1.3,3.7,3.3v10.7c0,2-1.4,3.3-3.7,3.3c-2.3,0-3.7-1.3-3.7-3.3v-10.7
			C225.3,262.8,226.7,261.5,229,261.5z M227.6,264.8v10.7c-0.2,1.7,3.1,1.7,2.9,0v-10.7C230.7,263.1,227.4,263.1,227.6,264.8z"/>
		<path d="M238.2,261.5c2.3,0,3.7,1.3,3.7,3.3v10.7c0,2-1.4,3.3-3.7,3.3c-2.3,0-3.7-1.3-3.7-3.3v-10.7
			C234.5,262.8,235.9,261.5,238.2,261.5z M236.8,264.8v10.7c-0.2,1.7,3.1,1.7,2.9,0v-10.7C239.9,263.1,236.6,263.1,236.8,264.8z"/>
		<path d="M243.9,261.6h3.8c2.3,0,3.6,1.2,3.6,3.2v10.6c0,2-1.3,3.2-3.6,3.2h-3.8V261.6z M249.1,264.8c0-0.8-0.5-1.3-1.3-1.3h-1.6
			v13.2h1.6c0.8,0,1.3-0.5,1.3-1.3V264.8z"/>
		<path d="M179.6,288.5h-2.2v-2.9c0-0.8-0.6-1.3-1.5-1.3c-0.9,0-1.5,0.5-1.5,1.3v10.7c0,0.9,0.6,1.3,1.5,1.3s1.5-0.5,1.5-1.3V293
			H176v-1.9h3.6v5.1c0,2-1.4,3.3-3.7,3.3c-2.3,0-3.7-1.3-3.7-3.3v-10.7c0-2,1.4-3.3,3.7-3.3c2.3,0,3.7,1.3,3.7,3.3V288.5z"/>
		<path d="M186.8,299.4l-0.7-4.4h-2.7l-0.7,4.4h-2.2l3.2-17.1h2.2l3.1,17.1H186.8z M183.7,293.1h2.1l-1-6.7L183.7,293.1z"/>
		<path d="M197.9,299.4h-2.2l-0.4-6c-0.1-1-0.6-1.5-1.5-1.5h-1.1v7.5h-2.2v-17h3.9c2.3,0,3.4,1.2,3.4,3.1v2.7c0,1.5-0.5,2.4-1.6,2.8
			c0.8,0.4,1.2,1.2,1.4,2.3L197.9,299.4z M192.6,284.3v5.8h1.6c0.8,0,1.3-0.4,1.3-1.2v-3.3c0-0.8-0.4-1.3-1.3-1.3H192.6z"/>
		<path d="M204.9,299.4l-0.7-4.4h-2.7l-0.7,4.4h-2.2l3.2-17.1h2.2l3.1,17.1H204.9z M201.9,293.1h2.1l-1-6.7L201.9,293.1z"/>
		<path d="M215.6,288.5h-2.2v-2.9c0-0.8-0.6-1.3-1.5-1.3c-0.9,0-1.5,0.5-1.5,1.3v10.7c0,0.9,0.6,1.3,1.5,1.3s1.5-0.5,1.5-1.3V293
			h-1.5v-1.9h3.6v5.1c0,2-1.4,3.3-3.7,3.3c-2.3,0-3.7-1.3-3.7-3.3v-10.7c0-2,1.4-3.3,3.7-3.3c2.3,0,3.7,1.3,3.7,3.3V288.5z"/>
		<path d="M223.8,284.3h-4.1v5.6h3.4v1.9h-3.4v5.7h4.1v1.9h-6.3v-17h6.3V284.3z"/>
	</g>
	<g>
		<polygon points="381.8,200 364.4,209.1 347,200 364.4,190.9 		"/>
		<polygon points="53,200 35.6,209.1 18.2,200 35.6,190.9 		"/>
	</g>
	<g>
		<g>
			<path d="M84.9,184.2v-10.8c0-2.7-1.4-4.1-4.2-4.1h-5.1v10.8h5.1C83.4,180.1,84.9,181.5,84.9,184.2z"/>
			<path d="M96.1,191.3c0,0.4-0.1,0.7-0.2,1.1c0,0.2-0.1,0.4-0.2,0.7c-0.1,0.2-0.1,0.5-0.2,0.7c-0.1,0.2-0.1,0.4-0.2,0.6
				c-0.1,0.2-0.2,0.4-0.3,0.7c-0.1,0.2-0.2,0.4-0.3,0.6c-0.1,0.2-0.2,0.4-0.3,0.6c-0.1,0.2-0.2,0.4-0.3,0.6
				c-0.1,0.2-0.2,0.4-0.3,0.5c-0.1,0.2-0.2,0.3-0.4,0.5c-0.2,0.2-0.4,0.5-0.6,0.7c-0.1,0.1-0.3,0.3-0.4,0.4
				c-0.2,0.2-0.5,0.4-0.7,0.6c-0.1,0.1-0.3,0.2-0.4,0.3c-0.4,0.3-0.7,0.5-1.1,0.7c0,0-0.1,0.1-0.1,0.1c-0.4,0.2-0.9,0.5-1.4,0.7
				c-0.2,0.1-0.3,0.1-0.5,0.2c-0.4,0.1-0.7,0.3-1.1,0.4c-0.2,0.1-0.4,0.1-0.6,0.2c-0.4,0.1-0.7,0.2-1.1,0.3c-0.2,0-0.4,0.1-0.7,0.1
				c-0.4,0.1-0.9,0.1-1.3,0.2c-0.2,0-0.4,0-0.6,0.1c-0.7,0-1.3,0.1-2.1,0.1h-5.1v10.8h5.1c0.7,0,1.4,0,2.1-0.1c0.2,0,0.4,0,0.6-0.1
				c0.4,0,0.9-0.1,1.3-0.2c0.2,0,0.4-0.1,0.7-0.1c0.4-0.1,0.8-0.2,1.1-0.3c0.2-0.1,0.4-0.1,0.6-0.2c0.4-0.1,0.7-0.2,1.1-0.4
				c0.2-0.1,0.3-0.1,0.5-0.2c0.5-0.2,1-0.4,1.4-0.7c0,0,0.1-0.1,0.1-0.1c0.4-0.2,0.8-0.5,1.2-0.8c0.1-0.1,0.3-0.2,0.4-0.3
				c0.3-0.2,0.5-0.4,0.7-0.7c0.1-0.1,0.3-0.3,0.4-0.4c0.2-0.2,0.4-0.5,0.6-0.7c0.1-0.1,0.2-0.2,0.2-0.2c0-0.1,0.1-0.1,0.1-0.2
				c0.1-0.2,0.2-0.4,0.4-0.5c0.1-0.2,0.2-0.4,0.3-0.6c0.1-0.2,0.2-0.4,0.3-0.6c0.1-0.1,0.1-0.2,0.2-0.4c0-0.1,0.1-0.1,0.1-0.2
				c0.1-0.2,0.2-0.4,0.3-0.7c0.1-0.2,0.1-0.4,0.2-0.6c0.1-0.2,0.1-0.5,0.2-0.7c0-0.2,0.1-0.3,0.1-0.5c0-0.1,0-0.1,0-0.2
				c0.1-0.3,0.1-0.7,0.2-1.1c0-0.2,0-0.3,0.1-0.5c0-0.5,0.1-1.1,0.1-1.7v-10.8c0,0.6,0,1.1-0.1,1.7C96.1,191,96.1,191.1,96.1,191.3z
				"/>
			<rect x="64.2" y="229.4" width="11.4" height="10.8"/>
			<rect x="102.9" y="229.4" width="11.4" height="10.8"/>
			<path d="M133.9,182c0-0.1,0-0.2,0.1-0.2c0.1-0.2,0.2-0.4,0.3-0.6c0.2-0.2,0.4-0.4,0.6-0.6c0.1,0,0.1-0.1,0.2-0.1
				c0.2-0.1,0.4-0.2,0.6-0.3c0.1,0,0.2-0.1,0.3-0.1c0.2-0.1,0.5-0.1,0.7-0.2c0.1,0,0.2,0,0.3-0.1c0.4,0,0.8-0.1,1.2-0.1
				c2.8,0,4.7,1.6,4.7,4.1v-10.8c0-2.5-1.9-4.1-4.7-4.1c-0.4,0-0.8,0-1.2,0.1c-0.1,0-0.2,0-0.3,0.1c-0.2,0-0.5,0.1-0.7,0.2
				c-0.1,0-0.2,0.1-0.3,0.1c-0.2,0.1-0.4,0.2-0.6,0.3c-0.1,0-0.2,0.1-0.2,0.1c-0.2,0.2-0.4,0.3-0.6,0.6l0,0
				c-0.1,0.2-0.2,0.4-0.3,0.6c0,0,0,0,0,0c0,0.1,0,0.2-0.1,0.2c0,0.1-0.1,0.3-0.1,0.4c0,0,0,0,0,0c-0.1,0.3-0.1,0.6-0.1,0.9v10.8
				c0-0.3,0-0.6,0.1-0.9C133.8,182.3,133.8,182.2,133.9,182z"/>
			<rect x="142.9" y="184.7" width="11.1" height="10.8"/>
			<path d="M142.9,221.2v-4.6v-6.2c0-11.2-20.7-11.3-20.7-30.4v3.3v7.5C122.3,209.9,142.9,210.1,142.9,221.2z"/>
			<path d="M154.2,218.4c0,0.3-0.1,0.6-0.1,1c0,0.3-0.1,0.5-0.2,0.8c-0.1,0.2-0.1,0.4-0.2,0.6c-0.1,0.2-0.2,0.4-0.2,0.7
				c-0.1,0.2-0.2,0.4-0.2,0.6c-0.1,0.2-0.2,0.4-0.3,0.6c-0.1,0.2-0.2,0.4-0.3,0.6c-0.1,0.2-0.2,0.4-0.4,0.6
				c-0.1,0.2-0.2,0.4-0.4,0.6c-0.1,0.1-0.2,0.2-0.3,0.3c-0.2,0.3-0.5,0.6-0.7,0.9c-0.1,0.1-0.3,0.3-0.4,0.4
				c-0.2,0.2-0.5,0.5-0.8,0.7c-0.1,0.1-0.3,0.2-0.4,0.3c-0.3,0.2-0.6,0.4-1,0.6c-0.1,0.1-0.3,0.2-0.4,0.2c-0.5,0.3-1,0.5-1.5,0.7
				c-0.1,0-0.2,0.1-0.3,0.1c-0.4,0.2-0.9,0.3-1.4,0.5c-0.2,0.1-0.4,0.1-0.6,0.2c-0.4,0.1-0.8,0.2-1.2,0.3c-0.2,0-0.5,0.1-0.7,0.1
				c-0.4,0.1-0.9,0.1-1.4,0.2c-0.2,0-0.4,0.1-0.6,0.1c-0.7,0.1-1.4,0.1-2.1,0.1c-10.4,0-15.9-5.5-15.9-14v10.8c0,8.5,5.5,14,15.9,14
				c0.7,0,1.5,0,2.1-0.1c0.2,0,0.4,0,0.6-0.1c0.5,0,0.9-0.1,1.4-0.2c0.2,0,0.5-0.1,0.7-0.1c0.4-0.1,0.8-0.2,1.2-0.3
				c0.2-0.1,0.4-0.1,0.6-0.2c0.5-0.1,0.9-0.3,1.4-0.5c0.1,0,0.2-0.1,0.3-0.1c0.5-0.2,1-0.5,1.5-0.7c0.1-0.1,0.3-0.2,0.4-0.2
				c0.3-0.2,0.7-0.4,1-0.6c0.2-0.1,0.3-0.2,0.4-0.3c0.3-0.2,0.5-0.4,0.8-0.7c0.1-0.1,0.3-0.3,0.4-0.4c0.3-0.3,0.5-0.6,0.7-0.8
				c0.1-0.1,0.1-0.2,0.2-0.2c0,0,0-0.1,0.1-0.1c0.1-0.2,0.3-0.4,0.4-0.6c0.1-0.2,0.2-0.4,0.4-0.6c0.1-0.2,0.2-0.4,0.3-0.6
				c0.1-0.2,0.2-0.3,0.2-0.5c0,0,0-0.1,0-0.1c0.1-0.2,0.2-0.4,0.2-0.7c0.1-0.2,0.2-0.4,0.2-0.6c0.1-0.2,0.1-0.4,0.2-0.6
				c0.1-0.2,0.1-0.4,0.2-0.6c0,0,0-0.1,0-0.1c0.1-0.3,0.1-0.6,0.1-1c0-0.2,0.1-0.4,0.1-0.5c0-0.5,0.1-1,0.1-1.6v-10.8
				c0,0.5,0,1.1-0.1,1.6C154.2,218.1,154.2,218.3,154.2,218.4z"/>
			<rect x="179.8" y="169.3" width="8.8" height="10.8"/>
			<polygon points="168.4,169.3 159.5,169.3 159.5,170.5 159.5,180.1 168.4,180.1 			"/>
			<rect x="168.4" y="229.4" width="11.4" height="10.8"/>
			<path d="M205.7,182.4c0-0.2,0.1-0.3,0.2-0.4c0.1-0.1,0.1-0.2,0.2-0.3c0.1-0.1,0.1-0.2,0.2-0.3c0.2-0.2,0.3-0.4,0.6-0.5
				c0.1,0,0.1-0.1,0.1-0.1c0.3-0.2,0.6-0.3,0.9-0.5c0.1,0,0.2-0.1,0.2-0.1c0.3-0.1,0.5-0.2,0.8-0.2c0.1,0,0.2,0,0.3-0.1
				c0.4-0.1,0.7-0.1,1.1-0.1c2.4,0,4.8,1.2,4.8,3.6v-10.8c0-2.4-2.4-3.6-4.8-3.6c-0.4,0-0.7,0-1.1,0.1c-0.1,0-0.2,0-0.3,0.1
				c-0.3,0.1-0.5,0.1-0.8,0.2c-0.1,0-0.2,0.1-0.2,0.1c-0.3,0.1-0.6,0.3-0.9,0.5c-0.1,0-0.1,0.1-0.1,0.1c-0.2,0.2-0.4,0.3-0.6,0.5
				c0,0-0.1,0.1-0.1,0.1c0,0.1-0.1,0.1-0.1,0.2c-0.1,0.1-0.1,0.2-0.2,0.3c0,0.1-0.1,0.1-0.1,0.1c0,0.1-0.1,0.2-0.1,0.3
				c0,0.1-0.1,0.1-0.1,0.2c0,0,0,0.1,0,0.1c0,0.2-0.1,0.4-0.1,0.7v10.8c0-0.3,0-0.5,0.1-0.8C205.7,182.6,205.7,182.5,205.7,182.4z"
				/>
			<path d="M215,227.3v-10.8c0-0.1,0-0.3,0-0.4v10.8C215,227,215,227.2,215,227.3z"/>
			<path d="M205.6,216.1c0,0.2,0,0.3,0,0.5v10.8c0-0.2,0-0.3,0-0.5V216.1z"/>
			<path d="M226.2,218.2c0,0.3-0.1,0.7-0.2,1c0,0.2-0.1,0.5-0.2,0.7c-0.1,0.2-0.1,0.5-0.2,0.7c-0.1,0.2-0.2,0.5-0.2,0.7
				c-0.1,0.2-0.2,0.4-0.2,0.6c-0.1,0.2-0.2,0.4-0.3,0.6c-0.1,0.2-0.2,0.4-0.3,0.6c-0.1,0.2-0.2,0.4-0.4,0.6
				c-0.1,0.2-0.2,0.4-0.4,0.6c-0.1,0.1-0.2,0.3-0.3,0.4c-0.2,0.3-0.4,0.5-0.7,0.8c-0.1,0.1-0.3,0.3-0.4,0.4
				c-0.2,0.2-0.5,0.5-0.8,0.7c-0.1,0.1-0.3,0.2-0.4,0.3c-0.3,0.2-0.7,0.5-1,0.7c-0.1,0.1-0.2,0.1-0.3,0.2c-0.5,0.3-1,0.5-1.5,0.7
				c-0.1,0.1-0.3,0.1-0.4,0.2c-0.4,0.2-0.8,0.3-1.2,0.4c-0.2,0.1-0.4,0.1-0.6,0.2c-0.4,0.1-0.8,0.2-1.2,0.3c-0.2,0-0.4,0.1-0.7,0.1
				c-0.4,0.1-0.9,0.1-1.4,0.2c-0.2,0-0.4,0.1-0.6,0.1c-0.7,0.1-1.4,0.1-2.1,0.1c-10.4,0-16.1-5.6-16.1-14v10.8c0,8.4,5.7,14,16.1,14
				c0.7,0,1.4,0,2.1-0.1c0.2,0,0.4,0,0.6-0.1c0.5,0,0.9-0.1,1.3-0.2c0.2,0,0.5-0.1,0.7-0.1c0.4-0.1,0.8-0.2,1.2-0.3
				c0.2-0.1,0.4-0.1,0.6-0.2c0.4-0.1,0.8-0.3,1.2-0.4c0.1-0.1,0.3-0.1,0.4-0.2c0.5-0.2,1-0.5,1.5-0.7c0.1-0.1,0.2-0.1,0.3-0.2
				c0.4-0.2,0.7-0.4,1-0.7c0.1-0.1,0.3-0.2,0.4-0.3c0.3-0.2,0.5-0.4,0.8-0.7c0.1-0.1,0.3-0.3,0.4-0.4c0.2-0.2,0.5-0.5,0.7-0.8
				c0.1-0.1,0.2-0.2,0.2-0.3c0,0,0.1-0.1,0.1-0.1c0.1-0.2,0.3-0.4,0.4-0.6c0.1-0.2,0.3-0.4,0.4-0.6c0.1-0.2,0.2-0.4,0.3-0.6
				c0.1-0.2,0.2-0.3,0.2-0.5c0-0.1,0-0.1,0.1-0.2c0.1-0.2,0.2-0.4,0.2-0.6c0.1-0.2,0.2-0.4,0.2-0.7c0.1-0.2,0.1-0.5,0.2-0.7
				c0-0.2,0.1-0.4,0.1-0.6c0,0,0-0.1,0-0.1c0.1-0.3,0.1-0.7,0.2-1c0-0.2,0.1-0.3,0.1-0.5c0-0.5,0.1-1.1,0.1-1.6v-10.8
				c0,0.6,0,1.1-0.1,1.6C226.3,217.9,226.2,218.1,226.2,218.2z"/>
			<path d="M256.8,197.9c-0.2-6.4-0.3-12.2-0.3-17.6v10.8c0,5.4,0.1,11.3,0.3,17.6V197.9z"/>
			<polygon points="244,190.6 244,201.4 254.8,240.2 266.9,240.2 266.9,229.4 254.8,229.4 			"/>
			<rect x="233.9" y="229.4" width="10.4" height="10.8"/>
			<rect x="286.6" y="169.3" width="15.7" height="10.8"/>
			<rect x="286.6" y="199.3" width="13.1" height="10.8"/>
			<rect x="275.2" y="229.4" width="27.1" height="10.8"/>
			<path d="M318.7,182c0-0.1,0-0.1,0.1-0.2c0.1-0.2,0.2-0.4,0.3-0.6c0.2-0.2,0.4-0.4,0.6-0.6c0.1-0.1,0.1-0.1,0.2-0.1
				c0.2-0.1,0.4-0.2,0.6-0.3c0.1,0,0.2-0.1,0.3-0.1c0.2-0.1,0.5-0.1,0.7-0.2c0.1,0,0.2,0,0.3-0.1c0.4,0,0.8-0.1,1.2-0.1
				c2.8,0,4.7,1.6,4.7,4.1v-10.8c0-2.5-1.9-4.1-4.7-4.1c-0.4,0-0.8,0-1.2,0.1c-0.1,0-0.2,0-0.3,0.1c-0.2,0-0.5,0.1-0.7,0.2
				c-0.1,0-0.2,0.1-0.3,0.1c-0.2,0.1-0.4,0.2-0.6,0.3c-0.1,0-0.2,0.1-0.2,0.1c-0.2,0.2-0.4,0.3-0.6,0.6l0,0
				c-0.1,0.2-0.2,0.4-0.3,0.6l0,0c0,0.1,0,0.1-0.1,0.2c-0.1,0.1-0.1,0.3-0.1,0.5c0,0,0,0,0,0c-0.1,0.3-0.1,0.6-0.1,0.9v10.8
				c0-0.3,0-0.6,0.1-0.9C318.6,182.3,318.7,182.2,318.7,182z"/>
			<rect x="327.8" y="184.7" width="11.1" height="10.8"/>
			<path d="M327.8,221.2v-10.8c0-11.2-20.7-11.3-20.7-30.4v3.3v7.5C307.1,209.9,327.8,210.1,327.8,221.2z"/>
			<path d="M339.1,217.9c0,0.2,0,0.3-0.1,0.5c0,0.3-0.1,0.7-0.1,1c0,0.2-0.1,0.5-0.2,0.7c-0.1,0.2-0.1,0.4-0.2,0.7
				c-0.1,0.2-0.2,0.5-0.2,0.7c-0.1,0.2-0.1,0.4-0.2,0.6c-0.1,0.2-0.2,0.4-0.3,0.6c-0.1,0.2-0.2,0.4-0.3,0.6
				c-0.1,0.2-0.3,0.4-0.4,0.6c-0.1,0.2-0.2,0.4-0.4,0.5c-0.1,0.1-0.2,0.2-0.3,0.3c-0.2,0.3-0.5,0.6-0.7,0.8
				c-0.1,0.1-0.3,0.3-0.4,0.4c-0.3,0.2-0.5,0.5-0.8,0.7c-0.1,0.1-0.3,0.2-0.4,0.3c-0.3,0.2-0.7,0.4-1,0.6c-0.1,0.1-0.2,0.2-0.4,0.2
				c-0.5,0.3-1,0.5-1.5,0.7c-0.1,0-0.2,0.1-0.3,0.1c-0.4,0.2-0.9,0.3-1.4,0.5c-0.2,0.1-0.4,0.1-0.6,0.2c-0.4,0.1-0.8,0.2-1.3,0.3
				c-0.2,0-0.4,0.1-0.7,0.1c-0.4,0.1-0.9,0.1-1.4,0.2c-0.2,0-0.4,0.1-0.6,0.1c-0.7,0.1-1.4,0.1-2.2,0.1c-10.4,0-15.9-5.5-15.9-14
				v10.8c0,8.5,5.5,14,15.9,14c0.7,0,1.5,0,2.2-0.1c0.2,0,0.4,0,0.6-0.1c0.5,0,0.9-0.1,1.4-0.2c0.2,0,0.5-0.1,0.7-0.1
				c0.4-0.1,0.8-0.2,1.2-0.3c0.2-0.1,0.4-0.1,0.6-0.2c0.5-0.1,0.9-0.3,1.4-0.5c0.1,0,0.2-0.1,0.3-0.1c0.5-0.2,1-0.5,1.5-0.7
				c0.1-0.1,0.2-0.2,0.4-0.2c0.3-0.2,0.7-0.4,1-0.6c0.1-0.1,0.3-0.2,0.4-0.3c0.3-0.2,0.5-0.4,0.8-0.7c0.1-0.1,0.3-0.2,0.4-0.4
				c0.3-0.3,0.5-0.6,0.7-0.8c0.1-0.1,0.1-0.2,0.2-0.2c0,0,0-0.1,0.1-0.1c0.1-0.2,0.2-0.4,0.4-0.6c0.1-0.2,0.2-0.4,0.4-0.6
				c0.1-0.2,0.2-0.4,0.3-0.6c0.1-0.2,0.2-0.3,0.3-0.5c0,0,0-0.1,0-0.1c0.1-0.2,0.2-0.4,0.2-0.6c0.1-0.2,0.2-0.4,0.2-0.7
				c0.1-0.2,0.1-0.4,0.2-0.7c0.1-0.2,0.1-0.4,0.2-0.6c0,0,0-0.1,0-0.1c0.1-0.3,0.1-0.7,0.2-1c0-0.2,0.1-0.3,0.1-0.5
				c0-0.5,0.1-1,0.1-1.6v-6.3v-4.5C339.1,216.8,339.1,217.4,339.1,217.9z"/>
		</g>
		<g>
			<g>
				<path class="st1" d="M80.7,159.7c10.2,0,15.5,5.2,15.5,13.6v15.7c0,8.5-5.3,13.7-15.5,13.7h-5.1v26.7H64.2v-69.7H80.7z
					 M84.9,189.1v-15.7c0-2.7-1.4-4.1-4.2-4.1h-5.1v23.9h5.1C83.4,193.2,84.9,191.8,84.9,189.1"/>
			</g>
			<g>
				<rect x="102.9" y="159.7" class="st1" width="11.4" height="69.7"/>
			</g>
			<g>
				<path class="st1" d="M138.2,159.1c10.2,0,15.8,5.5,15.8,14v11.6h-11.1v-11.6c0-2.5-1.9-4.1-4.7-4.1c-3,0-4.5,1.2-4.5,3.6v7.3
					c0,6.3,7.4,9.8,13.4,14.6c4,3.2,7.3,8.7,7.3,15.5v6.3c0,8.4-5.8,13.8-16.3,13.8c-10.4,0-15.9-5.5-15.9-14v-11.5h11.1v11.5
					c0,2.7,2.1,4.1,5,4.1c2.8,0,4.7-1.3,4.7-3.6v-6.2c0-11.2-20.7-11.3-20.7-30.4v-7.5C122.3,164.2,127.8,159.1,138.2,159.1z"/>
			</g>
			<g>
				<polygon class="st1" points="188.5,159.7 188.5,169.3 179.8,169.3 179.8,229.4 168.4,229.4 168.4,169.3 159.5,169.3 
					159.5,159.7 				"/>
			</g>
			<g>
				<path class="st1" d="M210.2,159.1c10.4,0,16.1,5.5,16.1,14v43c0,8.5-5.8,14-16.1,14c-10.4,0-16.1-5.6-16.1-14v-43
					C194.1,164.7,199.8,159.1,210.2,159.1z M210.2,220.1c2.5,0,5-1.3,4.7-4v-43c0.3-2.7-2.2-4-4.7-4c-2.5,0-5,1.3-4.6,4v43
					C205.2,218.8,207.7,220.1,210.2,220.1"/>
			</g>
			<g>
				<path class="st1" d="M266.9,159.7v69.7h-12.1L244,190.6c0.2,6.6,0.3,12.6,0.3,18.3v20.5h-10.4v-69.7h12.4l10.5,38.2
					c-0.2-6.4-0.3-12.2-0.3-17.6v-20.5H266.9z"/>
			</g>
			<g>
				<polygon class="st1" points="302.4,159.7 302.4,169.3 286.6,169.3 286.6,189.7 299.7,189.7 299.7,199.3 286.6,199.3 
					286.6,219.9 302.4,219.9 302.4,229.4 275.2,229.4 275.2,159.7 				"/>
			</g>
			<g>
				<path class="st1" d="M323,159.1c10.2,0,15.8,5.5,15.8,14v11.6h-11.1v-11.6c0-2.5-1.9-4.1-4.7-4.1c-3,0-4.5,1.2-4.5,3.6v7.3
					c0,6.3,7.5,9.8,13.4,14.6c4,3.2,7.2,8.7,7.2,15.5v6.3c0,8.4-5.8,13.8-16.3,13.8c-10.4,0-15.9-5.5-15.9-14v-11.5H318v11.5
					c0,2.7,2.1,4.1,5.1,4.1c2.8,0,4.7-1.3,4.7-3.6v-6.2c0-11.2-20.7-11.3-20.7-30.4v-7.5C307.1,164.2,312.6,159.1,323,159.1z"/>
			</g>
		</g>
	</g>
	<g>
		<path d="M183.8,101.3c2.9-2.9,5.6-4.9,6-4.5l-1.1-1.1c-0.4-0.4-3.1,1.6-6,4.5c-2.9,2.9-4.9,5.6-4.5,6l1.1,1.1
			C178.9,106.9,180.9,104.2,183.8,101.3z"/>
		<path d="M182.6,100.2c2.9-2.9,5.6-4.9,6-4.5l-1.1-1.1c-0.4-0.4-3.1,1.6-6,4.5c-2.9,2.9-4.9,5.6-4.5,6l1.1,1.1
			C177.7,105.8,179.7,103.1,182.6,100.2z"/>
		<path d="M187,104.6c-0.4,0.4-0.4,1,0,1.4c0.2,0.2,0.4,0.3,0.6,0.3c0.3,0,0.6-0.1,0.8-0.3c0.2-0.2,0.3-0.5,0.3-0.8
			c0-0.2-0.1-0.5-0.3-0.6C188.1,104.2,187.4,104.2,187,104.6z"/>
		<path d="M212.8,124c-1.1,0-2.2,0.3-3.1,0.7l-6.8-6.8l8.3-8.3c0.3,1,0.4,2.1,0,3.1l2.1,2.1l6-6c0.4-0.4-1.6-3.1-4.5-6
			c-2.9-2.9-5.6-4.9-6-4.5l-6,6l2.3,2.3c1.1-0.3,2.2-0.3,3.2,0.1l-8.4,8.4l-8.3-8.3c1-0.4,2.2-0.5,3.3-0.1l2.3-2.3l-6-6
			c-0.4-0.4-3.1,1.6-6,4.5c-2.9,2.9-4.9,5.6-4.5,6l6,6l2.1-2.1c-0.3-1-0.3-2.1,0-3l8.3,8.3l-6.8,6.8c-0.9-0.5-2-0.8-3.1-0.8
			c-3.8,0-6.9,3.1-6.9,6.9c0,3.8,3.1,6.9,6.9,6.9c3.8,0,6.9-3.1,6.9-6.9c0-1.2-0.3-2.3-0.8-3.3l6.8-6.8l6.8,6.8
			c-0.5,1-0.8,2.1-0.8,3.3c0,3.8,3.1,6.9,6.9,6.9s6.9-3.1,6.9-6.9C219.6,127.1,216.5,124,212.8,124z M210.7,103.8
			c0.8-0.9,2.2-0.9,3.1,0c0.8,0.8,0.8,2.2,0,3.1c-0.1,0.1-0.1,0.1-0.2,0.1c-0.9,0.7-2.1,0.6-2.9-0.1c-0.5-0.5-0.7-1.2-0.6-1.9
			C210.2,104.5,210.4,104.1,210.7,103.8z M186.7,107.3c-0.2-0.1-0.4-0.2-0.5-0.4c-0.9-0.9-0.9-2.3,0-3.2c0.9-0.9,2.3-0.9,3.2,0
			c0.4,0.4,0.6,0.8,0.6,1.3c0.1,0.7-0.1,1.3-0.6,1.8C188.6,107.6,187.5,107.7,186.7,107.3z M187.2,134.2c-1.8,0-3.3-1.5-3.3-3.3
			c0-1.8,1.5-3.3,3.3-3.3c1.8,0,3.3,1.5,3.3,3.3C190.5,132.7,189,134.2,187.2,134.2z M212.8,134.2c-1.8,0-3.3-1.5-3.3-3.3
			c0-1.8,1.5-3.3,3.3-3.3c1.8,0,3.3,1.5,3.3,3.3C216.1,132.7,214.6,134.2,212.8,134.2z"/>
		<path d="M217.4,100.2c-2.9-2.9-5.6-4.9-6-4.5l-1.1,1.1c0.4-0.4,3.1,1.6,6,4.5c2.9,2.9,4.9,5.6,4.5,6l1.1-1.1
			C222.3,105.8,220.3,103.1,217.4,100.2z"/>
		<path d="M218.5,99.1c-2.9-2.9-5.6-4.9-6-4.5l-1.1,1.1c0.4-0.4,3.1,1.6,6,4.5c2.9,2.9,4.9,5.6,4.5,6l1.1-1.1
			C223.4,104.6,221.4,101.9,218.5,99.1z"/>
		<path d="M212.8,106.2c0.1,0,0.1-0.1,0.2-0.1c0.4-0.4,0.4-1,0-1.4c-0.4-0.4-1-0.4-1.4,0c-0.1,0.1-0.1,0.1-0.1,0.2
			c-0.2,0.4-0.2,0.9,0.1,1.3C211.9,106.4,212.4,106.4,212.8,106.2z"/>
	</g>
</g>
</svg>
