<?xml version="1.0" encoding="utf-8"?>
<!-- Generator: Adobe Illustrator 19.2.1, SVG Export Plug-In . SVG Version: 6.00 Build 0)  -->
<svg version="1.1" id="Capa_1" xmlns="http://www.w3.org/2000/svg" xmlns:xlink="http://www.w3.org/1999/xlink" x="0px" y="0px"
	 viewBox="0 0 400 400" style="enable-background:new 0 0 400 400;" xml:space="preserve">
<style type="text/css">
	.st0{fill:#F08100;}
</style>
<g>
	<g>
		<path d="M26,122.8h9.1v53.6h12.1v8.4H26V122.8z"/>
		<path d="M49.2,184.9l9.4-62.1h11.1l9.4,62.1h-8.9l-1.7-12.7h-8.8l-1.7,12.7H49.2z M64.7,143l-0.3-1.6h-0.5l-0.3,1.6L61,162.6h6.3
			L64.7,143z"/>
		<path d="M97.6,139.4c0-2-0.1-4.3-0.7-6.1c-0.6-1.7-1.5-2.9-3-2.9c-2.4,0.1-3.1,2.5-3.1,6.2c0,2.1,0.9,4.3,2.3,6.7
			c1.4,2.4,3.1,4.8,4.9,7.4c2.1,3.1,4.2,6.3,5.8,9.5c1.6,3.1,2.7,6.3,2.7,9.7c0,4.1-0.7,8-2.6,10.9c-1.9,2.9-5.1,4.7-10.1,4.7
			c-5.8,0-9.1-2.2-11-5.6c-1.9-3.4-2.3-7.9-2.3-12.5l9-0.8c0,2.6,0.1,5.2,0.8,7.2c0.6,2,1.6,3.4,3.5,3.4c2.7,0,3.7-2.9,3.7-6.8
			c0-2-1-4.4-2.4-6.8c-0.8-1.2-1.5-2.4-2.4-3.7c-1.8-2.5-3.7-5.4-5.7-8.5c-2-3.1-3.5-6.3-4.5-9.6c-0.5-1.6-0.8-3.3-0.8-5
			c0-3.4,0.8-7,2.7-9.8c1.9-2.7,4.9-4.6,9.2-4.7c5.5-0.1,8.7,2.2,10.5,5.5c1.8,3.4,2.3,7.5,2.3,11L97.6,139.4z"/>
		<path d="M124.5,122.8h20.9v9.4h-11.7v16.3h8.4v10h-8.4v17.1h11.7v9.4h-20.9V122.8z"/>
		<path d="M165.5,139.4c0-2-0.1-4.3-0.7-6.1c-0.6-1.7-1.5-2.9-3-2.9c-2.4,0.1-3.1,2.5-3.1,6.2c0,2.1,0.9,4.3,2.3,6.7
			c1.4,2.4,3.1,4.8,4.9,7.4c2.1,3.1,4.2,6.3,5.8,9.5c1.6,3.1,2.7,6.3,2.7,9.7c0,4.1-0.7,8-2.6,10.9c-1.9,2.9-5.1,4.7-10.1,4.7
			c-5.8,0-9.1-2.2-11-5.6c-1.9-3.4-2.3-7.9-2.3-12.5l9-0.8c0,2.6,0.1,5.2,0.8,7.2c0.6,2,1.6,3.4,3.5,3.4c2.7,0,3.7-2.9,3.7-6.8
			c0-2-1-4.4-2.4-6.8c-0.8-1.2-1.5-2.4-2.4-3.7c-1.8-2.5-3.7-5.4-5.7-8.5c-2-3.1-3.5-6.3-4.5-9.6c-0.5-1.6-0.8-3.3-0.8-5
			c0-3.4,0.8-7,2.7-9.8c1.9-2.7,4.9-4.6,9.2-4.7c5.5-0.1,8.7,2.2,10.5,5.5c1.8,3.4,2.3,7.5,2.3,11L165.5,139.4z"/>
		<path d="M176.2,132.2v-9.4h26.4v9.4h-8.6v52.7h-9.1v-52.7H176.2z"/>
		<path d="M222.4,184.9l-4.7-26.2h-2.4v26.2h-9.1v-62.1h9.1c10.9,0,15.5,6.2,15.5,17.9c0,6.2-1.6,11.7-5.1,14.1l5.8,30.1H222.4z
			 M215.2,150.2c1.3,0,3-0.2,4.3-1.4c1.4-1.2,2.4-3.5,2.4-7.9c0-4.4-1.1-6.8-2.4-7.9c-1.4-1.2-3-1.3-4.3-1.3V150.2z"/>
		<path d="M236.6,122.8h20.9v9.4h-11.7v16.3h8.4v10h-8.4v17.1h11.7v9.4h-20.9V122.8z"/>
		<path d="M262.5,122.8h9.1v53.6h12.1v8.4h-21.2V122.8z"/>
		<path d="M287.4,122.8h9.1v53.6h12.1v8.4h-21.2V122.8z"/>
		<path d="M310.6,184.9l9.4-62.1h11.1l9.4,62.1h-8.9l-1.7-12.7h-8.8l-1.7,12.7H310.6z M326.1,143l-0.3-1.6h-0.5l-0.3,1.6l-2.6,19.6
			h6.2L326.1,143z"/>
		<path d="M359,139.4c0-2-0.1-4.3-0.7-6.1c-0.6-1.7-1.5-2.9-3-2.9c-2.4,0.1-3.1,2.5-3.1,6.2c0,2.1,0.9,4.3,2.3,6.7
			c1.4,2.4,3.1,4.8,4.9,7.4c2.1,3.1,4.2,6.3,5.8,9.5c1.6,3.1,2.7,6.3,2.7,9.7c0,4.1-0.7,8-2.6,10.9c-1.9,2.9-5.1,4.7-10.1,4.7
			c-5.8,0-9.1-2.2-11-5.6c-1.9-3.4-2.3-7.9-2.3-12.5l9-0.8c0,2.6,0.1,5.2,0.8,7.2c0.6,2,1.6,3.4,3.5,3.4c2.7,0,3.7-2.9,3.7-6.8
			c0-2-1-4.4-2.4-6.8c-0.8-1.2-1.5-2.4-2.4-3.7c-1.8-2.5-3.7-5.4-5.7-8.5c-2-3.1-3.5-6.3-4.5-9.6c-0.5-1.6-0.8-3.3-0.8-5
			c0-3.4,0.8-7,2.7-9.8c1.9-2.7,4.9-4.6,9.2-4.7c5.5-0.1,8.7,2.2,10.5,5.5c1.8,3.4,2.3,7.5,2.3,11L359,139.4z"/>
	</g>
	<path class="st0" d="M31.3,277.9c-1.6,0-3.2-0.6-4.3-1.7c-1.7-1.9-1.2-4.4,1.2-5.8c42-24,103.1-19.5,167.8-14.8
		c56.3,4.1,114.4,8.3,171.4-3.1c2.8-0.6,5.7,0.8,6.4,3c0.7,2.2-1,4.5-3.8,5c-58.8,11.8-120.5,7.3-175,3.4
		C129.6,259,73.2,255,34.4,277.1C33.5,277.6,32.4,277.9,31.3,277.9z"/>
	<path class="st0" d="M58.6,205.4c1.3,0,2.5,0.3,3.8,0.8c1.3,0.6,2.3,1.4,3,2.4c2.4-2.6,4.8-5.2,7.2-7.8c2.4-2.6,4.8-5.2,7.2-7.8
		c2-2.1,4-4.3,6-6.4c2-2.1,4.1-4.1,6.2-6.1c0.4-0.4,0.9-0.8,1.3-1.3c0.4-0.5,1-0.9,1.6-1.3c0.7-0.4,1.4-0.6,2.1-0.3
		c0.7,0.2,1.4,0.6,1.9,1.2c0.6,0.6,1,1.3,1.3,2c0.3,0.7,0.4,1.4,0.3,2c-0.1,0.6-0.5,1.1-0.9,1.5c-0.5,0.4-0.9,0.8-1.3,1.2
		c-3.3,3.3-6.1,6.1-8.5,8.5c-2.4,2.4-4.8,4.9-7.2,7.4c-2.4,2.5-4.9,5.3-7.7,8.4c-2.8,3.1-6.2,6.9-10.3,11.6
		c-1.9,2.2-3.7,4.4-5.4,6.7c-1.8,2.3-3.2,4.8-4.3,7.4c-0.5,1.1-0.5,1.8,0.1,2.2c0.6,0.3,1.3,0.3,2.2-0.2c1-0.5,1.9-1.1,2.7-1.8
		c0.8-0.7,1.6-1.5,2.4-2.3c1-1,2.2-2.1,3.6-3.6c1.3-1.4,3.2-3.3,5.7-5.7c0.4-0.4,0.9-0.9,1.4-1.5c0.5-0.6,1.1-1,1.7-1.3
		c1.1-0.4,2.2-0.3,3.2,0.4c1,0.7,1.4,1.7,1.3,3c-0.1,0.7-0.3,1.3-0.8,1.8c-0.4,0.4-0.9,0.9-1.3,1.4c-1.8,1.8-3.4,3.4-4.9,5
		c-1.5,1.6-3,3.1-4.5,4.6c-0.8,0.7-1.7,1.5-2.6,2.3c-0.9,0.8-1.8,1.5-2.8,2.2c-1,0.7-2,1.2-3.1,1.7c-1.1,0.4-2.2,0.7-3.3,0.8
		c-2.9,0.2-5.1-0.4-6.7-2c-1.2-1.2-1.9-2.6-2-4.3c-1.3,1-2.6,2-4,3c-1.4,1-2.8,1.7-4.3,2.3c-1.4,0.6-2.9,0.9-4.4,1
		c-1.5,0.1-3-0.3-4.5-1c-1.9-1.2-3.2-2.9-3.7-5.2c-0.4-2.1-0.2-4.1,0.6-6.2c0.7-2,1.7-3.9,2.8-5.6c2.3-3.6,5-7,8.1-10.2
		c3.1-3.2,6.6-5.9,10.3-8c1.6-0.9,3.3-1.6,5.1-2.2C54.9,205.7,56.7,205.4,58.6,205.4z M39.4,226.8c-0.8,1-1.6,2.1-2.3,3.1
		c-0.7,1-1.4,2.1-2,3.2c-0.8,1.6-1.2,2.7-1.3,3.4c0,0.7,0.2,1.2,0.7,1.3c0.5,0.1,1.1,0.1,2-0.3c0.9-0.3,1.8-0.8,2.8-1.5
		c1.1-0.7,2.3-1.6,3.7-2.8c1.3-1.2,2.7-2.5,4.1-3.9c1.4-1.4,2.8-3,4.3-4.6s2.8-3.2,4.2-4.7l4.8-5.7c0.1-0.7,0.1-1.3-0.1-1.7
		c-0.2-0.4-0.5-0.6-0.9-0.7c-1.3-0.2-2.9,0.1-4.7,1.1c-1.8,1-3.7,2.2-5.5,3.8c-1.9,1.6-3.6,3.2-5.3,5.1
		C42,223.7,40.6,225.4,39.4,226.8z"/>
	<path class="st0" d="M71.2,240.3c-1.4-1.9-2.1-4.1-2-6.4c0.1-2.3,0.6-4.6,1.4-6.7c0.9-2,2-3.9,3.2-5.6c1.3-1.7,2.7-3.4,4.2-4.9
		c1.5-1.5,3.1-2.9,4.8-4.2c1.7-1.3,3.4-2.4,5.1-3.4c1.3-0.7,2.8-1.4,4.6-2.1c1.8-0.7,3.6-1.1,5.4-1.3c1.9-0.2,3.6-0.1,5.2,0.3
		c1.6,0.4,2.8,1.4,3.7,2.9c0.8,1.3,1,2.7,0.6,4.2c-0.4,1.5-1,2.9-1.8,4.1c-1.6,2.6-3.7,4.9-6.2,7c-2.5,2-5.2,3.6-8,4.7
		c-2.2,0.8-4.3,1.3-6.6,1.6c-2.2,0.2-4.4-0.1-6.4-0.9c-0.4,0.8-0.8,1.6-1.1,2.4c-0.3,0.8-0.4,1.5-0.3,2.3c0.1,0.7,0.3,1.4,0.8,2.1
		c0.4,0.6,1.2,1.1,2.2,1.5c1.9,0.7,4,0.6,6.4-0.3c2.4-0.9,4.9-2.1,7.3-3.7c2.4-1.6,4.6-3.2,6.7-4.9c2-1.7,3.6-3.1,4.7-4.2
		c0.5-0.5,1.1-1.1,1.6-1.7c0.6-0.6,1.2-1.1,1.8-1.4c0.7-0.2,1.3-0.3,1.9-0.1c0.6,0.1,1.1,0.4,1.6,0.9c0.4,0.4,0.8,0.9,0.9,1.5
		c0.2,0.6,0.2,1.1-0.1,1.6c-0.2,0.7-0.7,1.3-1.3,1.9c-0.6,0.6-1.2,1.2-1.7,1.7c-2.8,2.7-5,4.6-6.5,5.8c-1.5,1.2-2.9,2.3-4.2,3.2
		c-1.9,1.3-4.1,2.6-6.6,3.8c-2.6,1.2-5.2,2.1-7.8,2.6c-2.6,0.5-5.2,0.5-7.6-0.1C74.9,243.9,72.8,242.5,71.2,240.3z M85.6,223.8
		c2.7-0.4,5.3-1.5,7.6-3.1c2.3-1.6,4.2-3.4,5.8-5.2c0.6-0.7,1-1.4,1.3-2.1c0.3-0.7,0.2-1.2-0.2-1.4c-1.9,0.5-3.7,1.3-5.4,2.2
		c-1.7,1-3.3,2-4.9,3.2c-2.7,1.9-5,4.1-7,6.4C83.6,224,84.5,224,85.6,223.8z"/>
	<path class="st0" d="M134.3,224.1c0.4-0.5,0.9-1,1.4-1.5c0.5-0.5,1.1-0.8,1.7-1.1c1.2-0.4,2.2-0.2,3.1,0.6c0.9,0.8,1.2,1.8,1,2.9
		c-0.1,0.7-0.4,1.3-0.9,1.8c-0.4,0.5-0.9,1-1.3,1.4c-3.8,3.9-7.2,7-10.1,9.2c-3,2.2-5.6,3.9-7.9,4.9c-2.3,1-4.3,1.6-6,1.7
		c-1.7,0.1-3.2,0-4.3-0.3c-1.6-0.4-2.9-1.2-3.9-2.2c-1-1-1.7-2.2-2.2-3.7c-0.4-1.4-0.6-3-0.5-4.7c0.1-1.7,0.5-3.5,1.1-5.3
		c1-3.1,2.4-6.3,4.2-9.7c1.7-3.3,3.7-6.6,5.7-9.8c2.1-3.2,4.2-6.2,6.4-9.1c2.2-2.9,4.3-5.4,6.3-7.6c2.1-2.4,4.4-4.7,6.8-6.9
		c2.4-2.3,5-4.2,7.8-5.7c1-0.5,2.1-1,3.5-1.6c1.4-0.5,2.7-0.9,4.1-1c1.4-0.1,2.7,0,3.9,0.4c1.2,0.4,2.2,1.3,3.1,2.6
		c0.9,1.3,1.2,2.8,1.1,4.3c-0.2,1.5-0.6,3-1.3,4.4c-0.7,1.4-1.5,2.8-2.5,4.1c-1,1.3-1.8,2.4-2.6,3.4c-2.2,2.6-4.4,5-6.7,7.3
		c-2.3,2.3-4.8,4.5-7.3,6.6c-1.6,1.3-3.4,2.7-5.2,4c-1.8,1.3-3.6,2.6-5.4,3.9c-1.8,1.3-3.6,2.4-5.4,3.5c-1.8,1.1-3.5,2-5.2,2.7
		c-0.6,0.7-1.1,1.5-1.6,2.2c-0.4,0.7-0.9,1.4-1.2,2.1c-1.3,2.5-1.9,4.6-1.7,6.3c0.2,1.7,0.8,2.7,1.8,3.1c0.7,0.3,1.8,0.2,3.2-0.3
		c1.4-0.5,2.9-1.4,4.7-2.5c1.8-1.1,3.7-2.6,5.8-4.4S132,226.4,134.3,224.1z M129.3,208.2c3-2.4,6-4.8,8.8-7.4c2.8-2.6,5.5-5.3,8-8.3
		c1-1.3,2-2.5,2.9-3.7c0.9-1.2,1.7-2.6,2.3-4.1c0.2-0.6,0.2-0.9-0.2-0.9c-0.3,0-0.8,0.1-1.3,0.3c-0.6,0.2-1.2,0.5-1.8,0.9
		c-0.7,0.4-1.2,0.7-1.6,1c-2.9,2.2-5.6,4.5-8.1,6.9c-2.5,2.5-4.8,5.1-6.9,8c-1.5,1.9-2.9,3.9-4.3,5.8c-1.4,1.9-2.7,3.9-4,6
		c1-0.7,2.1-1.5,3.1-2.2C127.2,209.7,128.2,209,129.3,208.2z"/>
	<path class="st0" d="M226.2,186.1c-1.2-0.6-2.4-0.9-3.5-1c-1.2-0.1-2.4-0.1-3.6-0.1c-0.6,0-1.2,0-1.8,0c-0.6,0-1,0.1-1.2,0.2
		c-1,1-2,2.1-3,3.2c-1,1.1-1.9,2.1-2.9,3.2c-1.9,2-3.7,4-5.4,6.1c-1.8,2-3.5,4.1-5.2,6.2c-4.4,5.4-8.6,10.8-12.4,16.2
		c-3.8,5.4-7.3,11-10.4,16.8c-0.3,0.6-0.6,1.2-0.8,1.7c-0.3,0.6-0.5,1.1-0.7,1.7c-0.1,0.4-0.3,0.9-0.4,1.5c-0.1,0.6-0.4,1-0.7,1.4
		c-0.6,0.8-1.4,1.2-2.3,1.3c-1,0-1.9-0.2-2.7-0.6c-1-0.6-1.6-1.4-1.9-2.3c-0.1-0.6-0.1-1.2,0.1-1.7c0.2-0.6,0.4-1.1,0.5-1.6
		c0.8-2.4,1.9-4.8,3.2-7.1c1.3-2.3,2.7-4.5,4-6.6c1.5-2.2,3-4.4,4.5-6.7c1.5-2.2,3.1-4.4,4.6-6.6c3.2-4.3,6.5-8.5,9.8-12.6
		c3.4-4.1,6.9-8.2,10.5-12.2c-1,0.1-2,0.3-3,0.5c-1,0.2-2.2,0.4-3.6,0.5c-1.3,0.1-2.9,0.3-4.6,0.5c-1.7,0.2-3.8,0.4-6.2,0.6
		c-0.8,0-1.7,0-2.6,0.1c-0.9,0.1-1.7-0.1-2.4-0.4c-0.6-0.2-1.1-0.5-1.6-0.9c-0.4-0.4-0.8-0.9-1-1.4c-0.2-0.6-0.3-1.1-0.2-1.6
		c0.1-0.5,0.5-1,1.1-1.4c0.6-0.4,1.2-0.7,1.9-0.7s1.3,0,2-0.1c1.7,0,3.4-0.1,5.2-0.3c3.4-0.3,6.8-0.7,10.2-1.3
		c3.4-0.6,6.8-1,10.2-1.4c2.9-0.4,5.9-0.6,9.1-0.7c3.2-0.1,6.1,0.5,9,1.7c0.5,0.2,1.1,0.5,1.7,0.8c0.6,0.3,1.1,0.7,1.7,1.2
		c0.5,0.4,0.9,0.9,1.2,1.5c0.3,0.6,0.4,1.2,0.2,1.8c-0.1,0.7-0.5,1.2-1,1.6c-0.5,0.4-1.1,0.6-1.8,0.6c-0.6,0.1-1.3,0-2-0.3
		C227.1,186.9,226.6,186.5,226.2,186.1z"/>
	<path class="st0" d="M223.4,244.6c-1.8,0.1-3.3-0.1-4.7-0.7c-1.3-0.6-2.4-1.5-3.1-2.8c-0.4-0.7-0.7-1.7-0.9-2.9
		c-1,0.9-2.1,1.7-3.1,2.4c-1,0.7-2.1,1.4-3.2,2.1c-1.8,1-3.6,1.6-5.5,1.8c-1.9,0.2-3.7-0.1-5.4-1c-1.6-0.8-2.6-2-3.1-3.4
		c-0.5-1.5-0.6-3.1-0.5-4.7c0.1-1.7,0.6-3.3,1.2-4.9c0.7-1.6,1.3-2.9,2-3.9c2.4-3.6,5.1-7,8.2-10.2c3.1-3.2,6.5-5.9,10.3-8
		c1.7-0.9,3.5-1.6,5.3-2.3c1.8-0.6,3.7-0.9,5.6-0.7c3,0.2,5.2,1.3,6.6,3.3c0.4-0.6,1-1.2,1.7-1.7c0.7-0.6,1.4-0.9,1.9-0.9
		c1.1,0,2.1,0.4,3,1.3c0.8,0.8,1.3,1.8,1.3,2.8c0.1,1.1-0.3,2-1,2.8c-1,1.1-2.1,2.2-3.2,3.3c-1.1,1.1-2.2,2.2-3.2,3.5
		c-2.4,2.9-4.5,5.4-6.1,7.4c-1.6,2-2.9,4.1-4.1,6.3c-0.4,0.6-0.7,1.2-0.8,1.9c-0.2,0.7-0.3,1.2-0.2,1.7c0,0.4,0.2,0.8,0.6,0.9
		c0.4,0.2,1,0.1,1.8-0.4c1-0.5,1.9-1.1,2.7-1.8c0.8-0.7,1.6-1.5,2.4-2.3l9.2-9.2c0.4-0.4,0.9-0.9,1.4-1.5c0.5-0.6,1-1,1.6-1.3
		c1.2-0.4,2.3-0.3,3.3,0.4c1,0.7,1.4,1.7,1.3,3c-0.1,0.7-0.4,1.3-0.9,1.8c-0.4,0.4-0.9,0.9-1.3,1.4c-2.6,2.7-4.6,4.7-5.9,6
		c-1.3,1.3-2.5,2.5-3.6,3.6c-1.6,1.5-3.3,2.9-5.2,4.4C228.1,243.6,225.9,244.4,223.4,244.6z M216.9,216.9c-2.7,2.2-5.3,4.7-8,7.6
		c-2.7,2.9-4.7,5.7-6.1,8.6c-0.1,0.2-0.4,0.6-0.6,1.2c-0.3,0.6-0.5,1.1-0.6,1.7c-0.2,0.6-0.2,1.1-0.1,1.5c0.1,0.4,0.4,0.7,1,0.7
		c1.7-0.1,3.3-0.8,4.8-2.1c1.5-1.2,2.8-2.3,3.9-3.3c3.2-2.9,6.1-5.9,8.8-9.1c2.7-3.2,5.3-6.3,8-9.4c0.1-1.5-0.3-2.2-1.3-2.2
		c-1,0-2.2,0.3-3.5,0.9c-1.3,0.6-2.6,1.3-3.9,2.2C218.1,216.1,217.2,216.7,216.9,216.9z"/>
	<path class="st0" d="M296.3,224.1c0.4-0.5,0.9-1,1.4-1.5c0.5-0.5,1.1-0.8,1.7-1.1c1.2-0.4,2.2-0.2,3.1,0.6c0.9,0.8,1.2,1.8,1,2.9
		c-0.1,0.7-0.4,1.3-0.9,1.8c-0.4,0.5-0.9,1-1.3,1.4c-3.8,3.9-7.2,7-10.1,9.2c-3,2.2-5.6,3.9-7.9,4.9c-2.3,1-4.3,1.6-6,1.7
		c-1.7,0.1-3.2,0-4.3-0.3c-2.2-0.6-3.8-1.7-4.8-3.2c-1.1-1.6-1.7-3.4-1.8-5.6c-2.9,2.1-5.5,3.7-7.7,5c-2.3,1.3-4.3,2.2-6,2.9
		c-1.7,0.7-3.3,1-4.6,1.1c-1.3,0.1-2.5,0-3.4-0.2c-1.6-0.4-2.9-1.2-3.9-2.2c-1-1-1.7-2.2-2.2-3.7c-0.4-1.4-0.6-3-0.5-4.7
		c0.1-1.7,0.5-3.5,1.1-5.3c1-3.1,2.4-6.3,4.2-9.7c1.7-3.3,3.7-6.6,5.7-9.8c2.1-3.2,4.2-6.2,6.4-9.1c2.2-2.9,4.3-5.4,6.3-7.6
		c2.1-2.4,4.2-4.5,6.2-6.4c2-1.9,4.4-3.6,7.2-5.2c1-0.5,2.1-1,3.5-1.6c1.4-0.5,2.7-0.9,4.1-1c1.4-0.1,2.7,0,3.9,0.4
		c1.2,0.4,2.2,1.3,3.1,2.6c0.9,1.3,1.2,2.8,1.1,4.3c-0.2,1.5-0.6,3-1.3,4.4c-0.7,1.4-1.5,2.8-2.5,4.1c-1,1.3-1.8,2.4-2.6,3.4
		c-2.2,2.6-4.2,4.8-6.2,6.7c-2,1.9-4.2,3.9-6.7,6.1c-1.6,1.3-3.4,2.7-5.2,4c-1.8,1.3-3.6,2.6-5.4,3.9c-1.8,1.3-3.6,2.4-5.4,3.5
		c-1.8,1.1-3.5,2-5.2,2.7c-0.6,0.7-1.1,1.5-1.6,2.2c-0.4,0.7-0.9,1.4-1.2,2.1c-1.3,2.5-1.9,4.6-1.7,6.3c0.2,1.7,0.8,2.7,1.8,3.1
		c0.7,0.3,1.7,0.1,3.2-0.5c1.4-0.6,3.1-1.5,5-2.7c1.9-1.1,3.9-2.5,6.1-4.2c2.2-1.6,4.4-3.3,6.6-5c1-2.7,2.4-5.6,4.2-8.7
		c1.7-3.1,3.7-6.2,5.8-9.4c2.1-3.2,4.4-6.3,6.8-9.3c2.4-3.1,4.9-6,7.3-8.7c2.5-2.7,4.9-5.1,7.4-7.2c2.4-2.1,4.8-3.7,7-5
		c1-0.5,2.1-1,3.5-1.6c1.4-0.5,2.7-0.9,4.1-1c1.4-0.1,2.7,0,3.9,0.4c1.2,0.4,2.2,1.3,3.1,2.6c0.9,1.3,1.3,2.8,1.1,4.3
		c-0.1,1.5-0.6,3-1.3,4.4c-0.7,1.4-1.6,2.8-2.6,4.1c-1,1.3-1.9,2.4-2.6,3.4c-2.2,2.7-5,5.7-8.6,9.1c-3.6,3.4-7.3,6.7-11.2,10
		c-3.9,3.3-7.7,6.3-11.5,9.1c-3.7,2.8-6.7,4.9-9,6.4c-1.3,2.5-1.9,4.6-1.7,6.3c0.2,1.7,0.8,2.7,1.8,3.1c0.7,0.3,1.8,0.2,3.2-0.3
		c1.4-0.5,2.9-1.4,4.7-2.5c1.8-1.1,3.7-2.6,5.8-4.4S294,226.4,296.3,224.1z M262.8,208.2c3-2.4,5.8-4.7,8.2-6.8
		c2.4-2.2,4.9-4.8,7.5-7.7c1-1.3,2-2.5,2.9-3.7c0.9-1.2,1.7-2.6,2.3-4.1c0.2-0.6,0.2-0.9-0.2-0.9c-0.3,0-0.8,0.1-1.3,0.3
		c-0.6,0.2-1.2,0.5-1.8,0.9c-0.7,0.4-1.2,0.7-1.6,1c-2.9,2.2-5.4,4.3-7.5,6.4c-2.1,2.1-4.2,4.6-6.4,7.4c-1.5,1.9-2.9,3.9-4.3,5.8
		c-1.4,1.9-2.7,3.9-4,6c1-0.7,2.1-1.5,3.1-2.2C260.7,209.7,261.8,209,262.8,208.2z M310.3,190.3c1-1.3,2-2.5,2.9-3.7
		c0.9-1.2,1.7-2.6,2.3-4.1c0.2-0.6,0.2-0.9-0.2-0.9c-0.3,0-0.8,0.1-1.3,0.3c-0.6,0.2-1.2,0.5-1.8,0.9c-0.7,0.4-1.2,0.7-1.6,1
		c-2.7,2-5.4,4.3-8,6.9c-2.6,2.6-5.1,5.3-7.4,8.2c-2.4,2.9-4.6,5.8-6.7,8.7c-2.1,3-3.9,5.8-5.6,8.6c1.9-1.6,4-3.5,6.3-5.5
		c2.4-2,4.8-4.2,7.3-6.4c2.5-2.3,4.9-4.6,7.3-7C306.2,194.8,308.4,192.5,310.3,190.3z"/>
	<path class="st0" d="M295.7,240.3c-1.4-1.9-2.1-4.1-2-6.4c0.1-2.3,0.6-4.6,1.4-6.7c0.9-2,2-3.9,3.2-5.6c1.3-1.7,2.6-3.4,4.2-4.9
		c1.5-1.5,3.1-2.9,4.8-4.2c1.7-1.3,3.4-2.4,5.1-3.4c1.3-0.7,2.8-1.4,4.6-2.1c1.8-0.7,3.6-1.1,5.4-1.3c1.9-0.2,3.6-0.1,5.2,0.3
		c1.6,0.4,2.8,1.4,3.7,2.9c0.8,1.3,1,2.7,0.6,4.2s-1,2.9-1.8,4.1c-1.6,2.6-3.7,4.9-6.2,7c-2.5,2-5.2,3.6-8,4.7
		c-2.2,0.8-4.3,1.3-6.6,1.6c-2.2,0.2-4.4-0.1-6.4-0.9c-0.4,0.8-0.8,1.6-1.1,2.4c-0.3,0.8-0.4,1.5-0.3,2.3c0.1,0.7,0.3,1.4,0.8,2.1
		c0.4,0.6,1.2,1.1,2.2,1.5c1.9,0.7,4,0.6,6.4-0.3c2.4-0.9,4.9-2.1,7.3-3.7c2.4-1.6,4.6-3.2,6.7-4.9c2-1.7,3.6-3.1,4.7-4.2
		c0.5-0.5,1.1-1.1,1.6-1.7c0.6-0.6,1.2-1.1,1.8-1.4c0.7-0.2,1.3-0.3,1.9-0.1c0.6,0.1,1.1,0.4,1.6,0.9c0.4,0.4,0.8,0.9,0.9,1.5
		c0.2,0.6,0.2,1.1-0.1,1.6c-0.2,0.7-0.7,1.3-1.3,1.9c-0.6,0.6-1.2,1.2-1.7,1.7c-2.8,2.7-5,4.6-6.5,5.8c-1.5,1.2-2.9,2.3-4.2,3.2
		c-1.9,1.3-4.1,2.6-6.6,3.8c-2.6,1.2-5.2,2.1-7.8,2.6c-2.6,0.5-5.2,0.5-7.6-0.1S297.4,242.5,295.7,240.3z M310.1,223.8
		c2.7-0.4,5.3-1.5,7.6-3.1c2.3-1.6,4.2-3.4,5.8-5.2c0.6-0.7,1-1.4,1.3-2.1c0.3-0.7,0.2-1.2-0.2-1.4c-1.9,0.5-3.7,1.3-5.4,2.2
		c-1.7,1-3.3,2-4.9,3.2c-2.7,1.9-5,4.1-7,6.4C308.1,224,309,224,310.1,223.8z"/>
	<path class="st0" d="M332,222.3c2.2-2.1,4.3-4.3,6.3-6.6c2-2.2,3.9-4.5,5.8-6.8c0.1-0.3,0.4-0.6,0.6-0.8c0.3-0.3,0.5-0.5,0.6-0.8
		c-0.1-0.7-0.2-1.6-0.1-2.4c0.1-0.9,0.3-1.7,0.7-2.4c0.3-0.7,0.8-1.4,1.4-1.8c0.6-0.5,1.4-0.8,2.3-0.8c1.1-0.1,2.1,0.3,2.9,1
		c0.8,0.7,1.3,1.7,1.4,2.8c0.1,0.7,0,1.5-0.2,2.2c-0.2,0.7-0.5,1.4-0.9,2.1l1.2,0.6c1.1,0.5,2.2,0.8,3.3,0.8c1.1,0,2.1,0.4,3.2,0.9
		c1,0.6,1.7,1.4,2.2,2.4c0.5,1,0.4,2-0.4,2.8c-2.3,2.6-4.4,5.1-6.3,7.4c-1.9,2.3-3.7,4.7-5.4,7.1c-0.3,0.4-0.7,1.2-1.3,2.3
		c-0.6,1.1-1.1,2.1-1.5,3.1c-0.4,1-0.6,1.8-0.4,2.4c0.1,0.6,0.7,0.6,1.8,0c2.2-1.2,4.4-2.9,6.4-5c2.1-2.1,4.7-4.9,8-8.1
		c0.4-0.5,0.9-1.1,1.4-1.6c0.5-0.6,1.1-1,1.7-1.3c1.2-0.4,2.3-0.3,3.3,0.5c1,0.8,1.4,1.8,1.2,3.1c-0.1,0.7-0.5,1.4-0.9,1.8
		c-0.5,0.5-0.9,1-1.4,1.5c-1.3,1.3-2.5,2.5-3.4,3.5c-1,1-1.8,1.9-2.6,2.6c-0.7,0.7-1.4,1.3-1.9,1.9c-0.6,0.6-1.1,1.1-1.6,1.6
		c-0.8,0.7-1.7,1.5-2.6,2.3c-0.9,0.8-1.8,1.5-2.8,2.2c-1,0.7-2.1,1.2-3.2,1.6c-1.1,0.4-2.3,0.6-3.4,0.6c-1.6,0-2.9-0.3-4-0.9
		c-1.1-0.6-2-1.4-2.6-2.4c-0.6-1-0.9-2.2-1.1-3.5c-0.1-1.3,0-2.7,0.4-4c0.7-2.9,2-5.6,3.7-8c1.7-2.4,3.5-4.8,5.4-7.1
		c0.5-0.7,1-1.3,1.5-2c0.5-0.7,1-1.3,1.6-2c-0.4-0.1-1-0.4-1.6-0.7c-0.6-0.3-1.1-0.6-1.5-0.9c-0.5,0.7-1.1,1.4-1.7,2.1
		c-0.6,0.7-1.3,1.5-2.1,2.4c-0.8,0.9-1.7,1.9-2.8,3.1c-1.1,1.2-2.4,2.6-3.9,4.2c-0.4,0.4-0.9,0.9-1.3,1.4c-0.4,0.5-1,0.9-1.6,1.2
		c-0.8,0.4-1.6,0.5-2.3,0.3c-0.7-0.3-1.3-0.7-1.8-1.3c-0.4-0.6-0.7-1.3-0.7-2.1C331.1,223.7,331.4,223,332,222.3z"/>
</g>
</svg>
