<?xml version="1.0" encoding="utf-8"?>
<!-- Generator: Adobe Illustrator 15.0.0, SVG Export Plug-In . SVG Version: 6.00 Build 0)  -->
<!DOCTYPE svg PUBLIC "-//W3C//DTD SVG 1.1//EN" "http://www.w3.org/Graphics/SVG/1.1/DTD/svg11.dtd">
<svg version="1.1" id="Layer_1" xmlns="http://www.w3.org/2000/svg" xmlns:xlink="http://www.w3.org/1999/xlink" x="0px" y="0px"
	 width="200px" height="200px" viewBox="0 0 200 200" enable-background="new 0 0 200 200" xml:space="preserve">
<g>
	<g>
		<path d="M13.351,54.454c-1.385,1.526-3.501,2.869-6.166,2.869C2.869,57.323,0,54.556,0,50.017c0-4.681,3.521-7.489,6.187-7.489
			c2.036,0,2.951,1.14,3.135,1.385l0.469-1.141h3.194v5.78H9.342c-0.062-1.323-0.713-2.564-2.157-2.564
			c-1.466,0-2.423,1.812-2.423,4.029c0,2.016,1.038,3.827,2.972,3.827c1.71,0,3.053-1.792,3.236-1.995L13.351,54.454z"/>
		<path d="M13.963,49.813c0-4.396,2.931-7.429,7.144-7.429c4.986,0,7.306,2.992,7.306,7.571c0,4.6-2.563,7.408-7.163,7.408
			C16.995,57.364,13.963,54.901,13.963,49.813z M23.325,49.956c0-2.462-0.673-4.437-2.239-4.437
			c-1.241-0.021-2.096,1.771-2.096,4.294c0,2.666,0.956,4.355,2.259,4.355C22.531,54.169,23.325,52.479,23.325,49.956z"/>
		<path d="M43.475,45.397v11.6h-4.376l-5.189-7.754v5.13h1.567v2.624h-6.249v-2.624h1.201v-8.976h-1.18v-2.626h5.841l4.986,7.47
			v-4.844h-1.384v-2.626h6.125v2.626H43.475z"/>
		<path d="M45.634,49.813c0-4.396,2.931-7.429,7.145-7.429c4.985,0,7.306,2.992,7.306,7.571c0,4.6-2.563,7.408-7.164,7.408
			C48.667,57.364,45.634,54.901,45.634,49.813z M54.996,49.956c0-2.462-0.671-4.437-2.238-4.437
			c-1.242-0.021-2.097,1.771-2.097,4.294c0,2.666,0.956,4.355,2.259,4.355C54.202,54.169,54.996,52.479,54.996,49.956z"/>
		<path d="M74.048,54.454c-1.385,1.526-3.501,2.869-6.167,2.869c-4.314,0-7.185-2.768-7.185-7.307c0-4.681,3.521-7.489,6.188-7.489
			c2.034,0,2.95,1.14,3.134,1.385l0.469-1.141h3.195v5.78h-3.644c-0.062-1.323-0.712-2.564-2.157-2.564
			c-1.465,0-2.422,1.812-2.422,4.029c0,2.016,1.038,3.827,2.972,3.827c1.709,0,3.053-1.792,3.235-1.995L74.048,54.454z"/>
		<path d="M87.134,42.771v4.498h-3.52v-1.812h-3.257v2.809h3.867v2.707h-3.867v3.317h3.257v-1.893h3.52v4.599H74.862v-2.706h1.282
			v-8.833h-1.282v-2.687H87.134z"/>
		<path d="M101.017,56.997v-2.666h1.934l-0.428-1.384h-4.171l-0.428,1.384h1.587v2.666H93.04v-2.666h1.383l2.748-8.934h-0.835
			v-2.626h7.815l3.603,11.56h1.425v2.666H101.017z M101.77,50.505l-1.344-4.396l-1.321,4.396H101.77z"/>
		<path d="M116.425,42.771v2.687h-1.078v8.833h2.626v-2.585h3.419v5.291h-11.397v-2.706h1.119v-8.833h-1.119v-2.687H116.425z"/>
		<path d="M131.873,55.716c-0.447,0.753-1.709,1.465-3.275,1.465c-3.562,0-6.39-2.768-6.39-7.164c0-4.437,3.071-7.489,6.247-7.489
			c2.95,0,3.643,1.385,3.969,1.71l0.427-1.466h3.032v6.004h-3.643c-0.062-1.648-1.12-2.585-2.32-2.585
			c-1.648,0-2.788,1.792-2.788,3.826c0,2.076,1.018,3.745,2.788,3.745c1.16,0,1.649-0.468,1.953-0.997V51.91h-1.24v-2.178h6.757
			v2.178h-0.815v5.087h-4.069L131.873,55.716z"/>
		<path d="M144.475,42.771v2.626h-1.1v4.396c0,3.276,0.732,3.969,2.034,3.969c1.242,0,2.057-0.489,2.057-3.989v-4.314h-1.1v-2.687
			h6.024v2.626h-1.099v4.945c0,4.823-2.016,7.001-5.842,7.001c-4.111-0.123-6.309-2.279-6.309-6.899v-5.026h-1.14v-2.646H144.475z"
			/>
		<path d="M167.453,45.397v11.6h-4.375l-5.19-7.754v5.13h1.567v2.624h-6.249v-2.624h1.202v-8.976h-1.182v-2.626h5.842l4.985,7.47
			v-4.844h-1.384v-2.626h6.126v2.626H167.453z"/>
		<path d="M177.59,56.997v-2.666h1.935l-0.428-1.384h-4.173l-0.427,1.384h1.587v2.666h-6.472v-2.666h1.384l2.748-8.934h-0.836
			v-2.626h7.816l3.602,11.56h1.425v2.666H177.59z M178.343,50.505L177,46.109l-1.323,4.396H178.343z"/>
		<path d="M186.567,51.869h3.785c0,1.709,1.71,1.994,2.563,2.035c0.714,0,1.731-0.163,1.731-1.018c0-1.588-7.816-0.916-7.816-6.106
			c0-3.011,2.85-4.375,4.844-4.375c1.711,0,3.44,0.55,4.254,2.076l0.204-1.71h3.5v5.108h-3.684c0-1.506-1.181-2.36-2.605-2.36
			c-0.59,0-1.402,0.366-1.402,1.078c0,2.097,8.059,1.608,8.059,6.391c0,3.175-2.972,4.314-5.394,4.314
			c-2.056,0-3.48-0.956-4.254-1.872l-0.224,1.566h-3.562V51.869z"/>
	</g>
	<path fill="#F5841F" d="M198.973,82.785c-0.058-0.118-0.127-0.215-0.204-0.294c-0.08-0.116-0.156-0.214-0.234-0.293
		c-0.234,0.196-0.479,0.372-0.733,0.527c-0.254,0.157-0.479,0.333-0.673,0.528c-1.172,0.899-2.219,1.67-3.136,2.314
		c-0.918,0.645-1.787,1.24-2.608,1.787c-0.82,0.548-1.659,1.075-2.519,1.582c-0.86,0.508-1.837,1.035-2.931,1.583
		c-0.234,0.117-0.392,0.175-0.468,0.175c-0.079,0-0.118-0.038-0.118-0.117c0-0.155,0.136-0.527,0.41-1.113
		c0.272-0.586,0.576-1.377,0.908-2.373c0.333-0.996,0.635-2.227,0.908-3.691s0.411-3.193,0.411-5.187
		c0-0.234-0.186-0.439-0.558-0.615s-0.79-0.331-1.26-0.468c-0.469-0.138-0.928-0.235-1.378-0.294
		c-0.448-0.059-0.732-0.088-0.849-0.088c-0.196,0-0.371,0.059-0.527,0.176s-0.313,0.255-0.469,0.41
		c-0.156,0.157-0.332,0.352-0.526,0.586c-1.33,1.017-2.502,1.963-3.517,2.842c-1.018,0.88-1.964,1.72-2.842,2.521
		c-0.88,0.801-1.759,1.553-2.638,2.256c-0.286,0.229-0.59,0.456-0.89,0.685c-1.291,0.904-2.537,1.759-3.738,2.567
		c-3.224,2.168-5.949,3.78-8.176,4.834c0.039-0.507,0.226-1.054,0.558-1.64s0.829-1.299,1.494-2.139
		c0.664-0.84,1.493-1.847,2.49-3.019c0.996-1.172,2.177-2.598,3.546-4.277c0.352-0.312,0.575-0.586,0.673-0.821
		c0.097-0.234,0.147-0.429,0.147-0.585c0-0.312-0.127-0.577-0.381-0.792c-0.255-0.214-0.479-0.341-0.674-0.381
		c-0.234-0.272-0.411-0.458-0.528-0.557c-0.116-0.097-0.272-0.146-0.469-0.146c-0.156,0-0.303,0.029-0.438,0.088
		c-0.138,0.059-0.265,0.128-0.383,0.205c-0.155,0.117-0.272,0.216-0.351,0.293c-0.196-0.43-0.431-0.8-0.703-1.113
		c-0.273-0.312-0.625-0.469-1.054-0.469c-1.369,0-2.862,0.343-4.482,1.025c-1.622,0.685-3.244,1.582-4.864,2.695
		c-1.512,1.037-2.969,2.199-4.377,3.473c-1.343,0.947-2.654,1.859-3.914,2.71c-1.29,0.86-2.601,1.71-3.928,2.549
		c-1.327,0.841-2.577,1.582-3.75,2.228c-1.172,0.645-2.228,1.162-3.165,1.553c-0.937,0.391-1.68,0.586-2.227,0.586
		c-0.272,0-0.507-0.117-0.702-0.352c-0.196-0.234-0.294-0.723-0.294-1.465c0-0.781,0.272-1.631,0.821-2.55
		c0.546-0.917,1.581-1.864,3.105-2.842c4.258-2.733,7.891-5.322,10.899-7.765c3.008-2.44,5.47-4.619,7.383-6.534
		c1.914-1.913,3.342-3.486,4.277-4.717c0.938-1.23,1.485-2.021,1.642-2.373c0.155-0.312,0.234-0.625,0.234-0.938
		c-0.195-0.43-0.409-0.84-0.645-1.231c-0.195-0.312-0.44-0.594-0.732-0.85c-0.293-0.253-0.614-0.38-0.967-0.38
		c-0.196,0-0.392,0.02-0.586,0.059c-0.196,0.039-0.372,0.078-0.527,0.117c-0.157,0.039-0.333,0.078-0.526,0.117
		c-3.361,1.328-6.409,2.9-9.143,4.717c-2.735,1.817-5.178,3.731-7.324,5.743c-2.15,2.013-4.025,4.043-5.626,6.094
		c-1.603,2.051-2.931,3.966-3.986,5.743c-0.02,0.035-0.036,0.068-0.059,0.104c-1.18,0.829-2.34,1.633-3.456,2.387
		c-1.288,0.86-2.599,1.71-3.925,2.549c-1.33,0.841-2.58,1.582-3.752,2.228c-1.172,0.645-2.227,1.162-3.165,1.553
		c-0.938,0.391-1.679,0.586-2.226,0.586c-0.274,0-0.509-0.117-0.704-0.352s-0.292-0.723-0.292-1.465c0-0.781,0.271-1.631,0.82-2.55
		c0.546-0.917,1.582-1.864,3.105-2.842c4.257-2.733,7.891-5.322,10.899-7.765c3.007-2.44,5.469-4.619,7.385-6.534
		c1.913-1.913,3.339-3.486,4.276-4.717c0.938-1.23,1.484-2.021,1.64-2.373c0.157-0.312,0.235-0.625,0.235-0.938
		c-0.196-0.43-0.41-0.84-0.645-1.231c-0.196-0.312-0.439-0.594-0.732-0.85c-0.293-0.253-0.615-0.38-0.966-0.38
		c-0.197,0-0.392,0.02-0.586,0.059c-0.197,0.039-0.372,0.078-0.529,0.117c-0.155,0.039-0.332,0.078-0.526,0.117
		c-3.359,1.328-6.407,2.9-9.142,4.717c-2.735,1.817-5.177,3.731-7.325,5.743c-2.149,2.013-4.023,4.043-5.626,6.094
		c-1.601,2.051-2.93,3.966-3.983,5.743c-0.253,0.425-0.487,0.837-0.71,1.237c-1.199,0.814-2.332,1.566-3.392,2.249
		c-2.307,1.485-4.406,2.706-6.3,3.663c-1.896,0.957-3.634,1.651-5.216,2.08c-1.583,0.431-3.135,0.645-4.66,0.645
		c-0.467-0.156-0.702-0.507-0.702-1.055c0-0.391,0.097-0.83,0.292-1.318c0.196-0.488,0.419-0.947,0.673-1.377
		c0.253-0.43,0.508-0.792,0.763-1.085c0.254-0.293,0.458-0.439,0.615-0.439c0.118,0,0.254,0.04,0.41,0.117
		c0.079,0.039,0.137,0.059,0.176,0.059c0.196,0.353,0.41,0.586,0.645,0.704c0.234,0.116,0.448,0.176,0.645,0.176
		c0.352,0,0.908-0.147,1.67-0.44s1.612-0.683,2.549-1.171c0.938-0.489,1.904-1.056,2.9-1.699c0.997-0.646,1.904-1.328,2.725-2.052
		c0.82-0.723,1.495-1.466,2.022-2.227c0.527-0.762,0.792-1.494,0.792-2.197c0-0.312-0.108-0.664-0.323-1.055
		s-0.497-0.752-0.85-1.085c-0.352-0.331-0.753-0.604-1.201-0.82c-0.449-0.214-0.929-0.322-1.436-0.322
		c-1.056,0-2.218,0.234-3.487,0.703c-1.271,0.47-2.549,1.104-3.837,1.904c-1.29,0.802-2.541,1.729-3.751,2.784
		c-0.105,0.092-0.204,0.188-0.308,0.281c-1.555,1.076-3.059,2.101-4.497,3.059c-2.343,1.563-4.454,2.911-6.328,4.043
		c-1.875,1.134-3.458,2.022-4.747,2.667c-1.29,0.645-2.208,0.967-2.755,0.967c-0.195,0-0.292-0.059-0.292-0.176
		c0-0.547,0.264-1.173,0.791-1.875c0.528-0.703,1.191-1.426,1.993-2.169c0.8-0.741,1.67-1.474,2.608-2.197
		c0.937-0.723,1.825-1.387,2.667-1.992c0.839-0.604,1.572-1.113,2.196-1.523c0.625-0.41,0.997-0.674,1.114-0.791
		c0.469-0.312,0.702-0.646,0.702-0.996c0-0.156-0.078-0.353-0.233-0.586c-0.158-0.235-0.567-0.781-1.231-1.641
		c-0.274-0.273-0.723-0.41-1.349-0.41c-0.859,0-1.66,0.166-2.402,0.497c-0.742,0.332-1.464,0.499-2.168,0.499
		c-0.508,0-1.143-0.167-1.904-0.499c-0.762-0.331-1.543-0.692-2.344-1.083s-1.543-0.752-2.227-1.085
		c-0.684-0.331-1.201-0.498-1.553-0.498c-1.016,0-1.807,0.108-2.373,0.322c-0.566,0.216-0.849,0.753-0.849,1.611
		c0,0.118,0.166,0.489,0.498,1.114c0.298,0.563,0.895,1.158,1.781,1.785c-1.99,1.451-3.951,2.82-5.884,4.104
		c-2.559,1.699-4.873,3.214-6.944,4.542c-2.422,1.562-4.708,2.988-6.856,4.277c-0.665,0.234-1.133,0.352-1.406,0.352
		c-0.273,0-0.508-0.068-0.703-0.205c-0.196-0.137-0.293-0.302-0.293-0.498c0-0.624,0.352-1.523,1.054-2.695
		c0.704-1.172,1.602-2.441,2.696-3.81c1.093-1.366,2.294-2.764,3.604-4.189c1.309-1.426,2.578-2.726,3.81-3.896
		c1.229-1.173,2.314-2.14,3.252-2.901c0.937-0.762,1.601-1.143,1.992-1.143c0.625-0.039,1.444-0.097,2.461-0.176
		c1.015-0.077,2.129-0.185,3.34-0.322c1.21-0.137,2.451-0.272,3.721-0.41c1.27-0.137,2.462-0.264,3.575-0.381
		c1.113-0.118,2.08-0.234,2.9-0.352c0.82-0.117,1.367-0.195,1.64-0.234c0.469-0.039,0.704-0.215,0.704-0.527
		c0-0.155-0.068-0.303-0.205-0.439c-0.138-0.137-0.285-0.243-0.439-0.322c-0.196-0.117-0.41-0.214-0.645-0.293
		c-0.781-0.469-1.661-0.82-2.636-1.055c-0.977-0.235-1.983-0.391-3.018-0.469c-1.036-0.079-2.051-0.107-3.048-0.089
		c-0.996,0.021-1.904,0.029-2.725,0.029c-0.352,0-0.577-0.038-0.673-0.117c-0.098-0.077-0.147-0.176-0.147-0.293
		s0.02-0.253,0.059-0.409s0.078-0.312,0.117-0.47c0.039-0.155,0.097-0.331,0.176-0.527l1.465-2.051
		c0.312-0.507,0.469-0.858,0.469-1.055c0-0.352-0.205-0.586-0.615-0.703c-0.41-0.117-0.831-0.176-1.26-0.176
		c-0.625,0-1.192,0.039-1.699,0.117c-0.508,0.078-0.84,0.273-0.996,0.586l-4.044,5.391c-1.954,0.157-4.063,0.362-6.328,0.615
		c-2.266,0.256-4.376,0.499-6.329,0.733c-2.306,0.313-4.571,0.625-6.797,0.938c-0.781,0.078-1.318,0.137-1.611,0.176
		s-0.44,0.156-0.44,0.352s0.089,0.361,0.265,0.498c0.176,0.138,0.38,0.244,0.615,0.322c0.273,0.117,0.586,0.195,0.937,0.234
		c0.039,0.43,0.332,0.762,0.879,0.996c0.546,0.234,1.221,0.41,2.022,0.527c0.8,0.117,1.649,0.186,2.549,0.205
		c0.898,0.021,1.758,0.029,2.579,0.029c0.937,0,1.738-0.02,2.402-0.059c0.665-0.038,1.094-0.059,1.29-0.059
		c0.468,0,0.791,0.039,0.966,0.117c0.176,0.079,0.264,0.176,0.264,0.293s-0.098,0.273-0.292,0.469L55.202,78.8
		c-2.031,1.798-3.799,3.556-5.303,5.274c-0.037,0.042-0.069,0.081-0.106,0.123c-0.676,0.506-1.309,0.967-1.885,1.371
		c-0.919,0.645-1.788,1.24-2.608,1.787c-0.82,0.548-1.661,1.075-2.52,1.582c-0.86,0.508-1.836,1.035-2.93,1.583
		c-0.234,0.117-0.391,0.175-0.469,0.175c-0.078,0-0.117-0.038-0.117-0.117c0-0.155,0.137-0.527,0.41-1.113s0.577-1.377,0.909-2.373
		s0.635-2.227,0.908-3.691c0.273-1.465,0.41-3.193,0.41-5.187c0-0.234-0.185-0.439-0.556-0.615c-0.373-0.176-0.792-0.331-1.26-0.468
		c-0.469-0.138-0.928-0.235-1.377-0.294c-0.45-0.059-0.732-0.088-0.85-0.088c-0.196,0-0.372,0.059-0.527,0.176
		c-0.158,0.117-0.314,0.255-0.469,0.41c-0.156,0.157-0.332,0.352-0.528,0.586c-1.328,1.017-2.5,1.963-3.516,2.842
		c-1.017,0.88-1.963,1.72-2.842,2.521c-0.879,0.801-1.758,1.553-2.637,2.256c-0.768,0.614-1.598,1.228-2.469,1.843
		c-0.952,0.64-1.857,1.236-2.717,1.79c-2.306,1.485-4.405,2.706-6.3,3.663c-1.895,0.957-3.633,1.651-5.215,2.08
		c-1.582,0.431-3.135,0.645-4.659,0.645c-0.468-0.156-0.703-0.507-0.703-1.055c0-0.391,0.098-0.83,0.293-1.318
		c0.196-0.488,0.42-0.947,0.674-1.377c0.253-0.43,0.507-0.792,0.762-1.085c0.253-0.293,0.458-0.439,0.615-0.439
		c0.118,0,0.254,0.04,0.411,0.117c0.077,0.039,0.136,0.059,0.175,0.059c0.195,0.353,0.411,0.586,0.645,0.704
		c0.235,0.116,0.449,0.176,0.645,0.176c0.352,0,0.908-0.147,1.67-0.44c0.762-0.293,1.611-0.683,2.549-1.171
		c0.938-0.489,1.904-1.056,2.9-1.699c0.996-0.646,1.904-1.328,2.725-2.052c0.82-0.723,1.494-1.466,2.021-2.227
		c0.527-0.762,0.791-1.494,0.791-2.197c0-0.312-0.108-0.664-0.322-1.055c-0.215-0.391-0.498-0.752-0.851-1.085
		c-0.351-0.331-0.752-0.604-1.201-0.82c-0.45-0.214-0.929-0.322-1.436-0.322c-1.055,0-2.218,0.234-3.487,0.703
		c-1.27,0.47-2.549,1.104-3.838,1.904c-1.289,0.802-2.54,1.729-3.75,2.784c-1.211,1.055-2.286,2.188-3.223,3.398
		c-0.938,1.212-1.69,2.452-2.257,3.721c-0.566,1.271-0.849,2.511-0.849,3.722c0,3.673,1.503,5.509,4.512,5.509
		c1.367,0,2.9-0.293,4.6-0.879c1.699-0.587,3.457-1.367,5.274-2.345c1.817-0.976,3.633-2.07,5.45-3.282
		c1.817-1.21,3.535-2.432,5.157-3.661c1.621-1.23,3.096-2.423,4.424-3.575c0.274-0.238,0.532-0.465,0.785-0.689
		c0.197-0.151,0.388-0.3,0.591-0.453c0.879-0.664,1.671-1.269,2.373-1.817c0.312-0.234,0.596-0.399,0.851-0.497
		c0.253-0.097,0.458-0.147,0.615-0.147c0.234,0,0.39,0.051,0.469,0.147c0.078,0.098,0.117,0.186,0.117,0.263
		c0,0.587-0.137,1.524-0.41,2.813c-0.273,1.289-0.703,2.588-1.289,3.896c-0.586,1.31-1.329,2.452-2.227,3.428
		c-0.899,0.978-1.955,1.466-3.165,1.466c-0.86,0-1.543-0.146-2.05-0.439c-0.509-0.293-0.9-0.635-1.173-1.026
		c-0.313-0.429-0.527-0.917-0.644-1.464c-0.392,0-0.694,0.068-0.909,0.205c-0.215,0.137-0.372,0.293-0.469,0.469
		c-0.098,0.175-0.167,0.42-0.205,0.732c0,2.148,0.458,3.789,1.376,4.922s2.295,1.7,4.131,1.7c1.094,0,2.413-0.382,3.956-1.143
		c1.542-0.762,3.154-1.72,4.835-2.872c1.679-1.152,3.37-2.393,5.068-3.721c0.762-0.595,1.484-1.17,2.178-1.729
		c-0.547,0.886-0.998,1.711-1.329,2.462c-0.509,1.152-0.762,2.061-0.762,2.725c0,2.032,0.42,3.496,1.26,4.396
		c0.84,0.897,1.767,1.348,2.784,1.348c0.312,0,0.605-0.01,0.879-0.029c0.272-0.021,0.507-0.049,0.703-0.088
		c0.234-0.04,0.469-0.098,0.703-0.176c0.742-0.234,1.631-0.666,2.667-1.289c1.035-0.625,2.148-1.367,3.339-2.228
		c1.192-0.858,2.413-1.796,3.663-2.812c1.25-1.016,2.481-2.031,3.693-3.048c0.856-0.737,1.731-1.505,2.614-2.287
		c0.273-0.093,0.48-0.189,0.607-0.291c1.093-0.897,2.1-1.737,3.018-2.52c0.918-0.78,1.67-1.444,2.256-1.993
		c0.155,0.235,0.448,0.461,0.879,0.675c0.429,0.216,0.897,0.401,1.406,0.557c0.507,0.156,0.996,0.273,1.465,0.352
		c0.469,0.078,0.84,0.117,1.114,0.117c-1.72,1.251-3.087,2.344-4.102,3.281c-1.017,0.938-1.798,1.788-2.345,2.549
		c-0.547,0.763-0.908,1.466-1.084,2.11c-0.176,0.645-0.263,1.299-0.263,1.963c0,0.859,0.125,1.563,0.38,2.109
		c0.254,0.548,0.586,0.968,0.997,1.26c0.41,0.293,0.858,0.489,1.348,0.587c0.488,0.097,0.946,0.146,1.377,0.146
		c0.938,0,2.177-0.4,3.721-1.201c1.543-0.8,3.184-1.816,4.922-3.047s3.496-2.578,5.274-4.044c0.309-0.254,0.605-0.503,0.903-0.752
		c-0.464,1.145-0.699,2.265-0.699,3.36c0,3.673,1.504,5.509,4.513,5.509c1.366,0,2.9-0.293,4.6-0.879
		c1.699-0.587,3.458-1.367,5.273-2.345c1.817-0.976,3.634-2.07,5.45-3.282c0.925-0.615,1.823-1.234,2.697-1.855
		c-0.215,0.712-0.324,1.274-0.324,1.68c0,1.563,0.137,2.783,0.41,3.663c0.272,0.88,0.635,1.544,1.085,1.992
		c0.447,0.449,0.938,0.733,1.464,0.851c0.528,0.116,1.065,0.176,1.612,0.176c0.312,0,0.605-0.011,0.879-0.03
		c0.272-0.019,0.507-0.049,0.702-0.087c0.235-0.039,0.47-0.098,0.703-0.176c0.742-0.234,1.621-0.646,2.637-1.231
		c1.018-0.586,2.11-1.289,3.282-2.109c1.173-0.82,2.373-1.709,3.604-2.666c1.182-0.918,2.333-1.847,3.46-2.783
		c-0.372,1.065-0.56,1.868-0.56,2.401c0,1.563,0.136,2.783,0.41,3.663c0.271,0.88,0.635,1.544,1.084,1.992
		c0.449,0.449,0.938,0.733,1.465,0.851c0.527,0.116,1.063,0.176,1.611,0.176c0.312,0,0.604-0.011,0.879-0.03
		c0.273-0.019,0.507-0.049,0.703-0.087c0.234-0.039,0.469-0.098,0.703-0.176c0.742-0.234,1.621-0.646,2.638-1.231
		c1.016-0.586,2.108-1.289,3.28-2.109c0.797-0.558,1.609-1.148,2.432-1.77c-0.408,0.857-0.615,1.584-0.615,2.18
		c0,0.743,0.138,1.319,0.411,1.729c0.274,0.409,0.567,0.732,0.879,0.967c0.391,0.272,0.82,0.468,1.289,0.586
		c1.016,0,2.119-0.381,3.312-1.144c1.191-0.761,2.334-1.591,3.427-2.49c1.25-1.055,2.521-2.266,3.809-3.633
		c0.157-0.156,0.274-0.234,0.353-0.234c0.039,0,0.059,0.059,0.059,0.176s-0.028,0.322-0.088,0.615
		c-0.058,0.293-0.117,0.625-0.175,0.996c-0.059,0.371-0.109,0.753-0.148,1.143c-0.037,0.391-0.057,0.724-0.057,0.996
		c0,1.251,0.165,2.101,0.498,2.549c0.33,0.449,0.828,0.675,1.494,0.675c0.39,0,1.005-0.234,1.845-0.703
		c0.84-0.47,1.808-1.085,2.901-1.847c1.093-0.762,2.276-1.641,3.545-2.637c1.27-0.996,2.528-2.002,3.78-3.018
		c0.946-0.772,1.92-1.58,2.919-2.416c0.883-0.695,1.764-1.376,2.647-2.038c0.78-0.625,1.61-1.27,2.49-1.934
		c0.879-0.664,1.67-1.269,2.373-1.817c0.312-0.234,0.595-0.399,0.85-0.497c0.254-0.097,0.458-0.147,0.614-0.147
		c0.235,0,0.392,0.051,0.47,0.147c0.078,0.098,0.116,0.186,0.116,0.263c0,0.587-0.137,1.524-0.408,2.813
		c-0.274,1.289-0.704,2.588-1.29,3.896c-0.586,1.31-1.328,2.452-2.227,3.428c-0.898,0.978-1.954,1.466-3.164,1.466
		c-0.861,0-1.545-0.146-2.051-0.439c-0.51-0.293-0.901-0.635-1.174-1.026c-0.313-0.429-0.527-0.917-0.644-1.464
		c-0.391,0-0.694,0.068-0.908,0.205c-0.215,0.137-0.372,0.293-0.469,0.469c-0.098,0.175-0.166,0.42-0.205,0.732
		c0,2.148,0.459,3.789,1.377,4.922s2.295,1.7,4.131,1.7c1.094,0,2.412-0.382,3.955-1.143c1.544-0.762,3.154-1.72,4.835-2.872
		c1.68-1.152,3.37-2.393,5.069-3.721s3.231-2.568,4.601-3.721c1.366-1.152,2.49-2.12,3.369-2.901
		c0.878-0.781,1.378-1.172,1.494-1.172c0.352-0.312,0.526-0.664,0.526-1.056C199.061,83.04,199.032,82.901,198.973,82.785z
		 M10.199,86.828c0.703-0.741,1.532-1.523,2.49-2.345c0.956-0.819,1.923-1.562,2.9-2.226c0.976-0.664,1.757-0.997,2.344-0.997
		c0.234,0,0.352,0.099,0.352,0.294c0,0.233-0.186,0.566-0.556,0.996c-0.372,0.43-0.841,0.899-1.407,1.406
		c-0.566,0.508-1.192,1.016-1.875,1.523c-0.684,0.508-1.358,0.977-2.022,1.406c-0.665,0.43-1.28,0.782-1.846,1.055
		c-0.566,0.273-0.987,0.41-1.26,0.41c-0.117,0-0.176-0.038-0.176-0.117C9.144,88.039,9.495,87.571,10.199,86.828z M98.301,84.483
		c0.957-0.819,1.923-1.562,2.9-2.226s1.758-0.997,2.344-0.997c0.234,0,0.353,0.099,0.353,0.294c0,0.233-0.187,0.566-0.557,0.996
		c-0.372,0.43-0.841,0.899-1.406,1.406c-0.566,0.508-1.192,1.016-1.876,1.523c-0.683,0.508-1.358,0.977-2.022,1.406
		c-0.664,0.43-1.28,0.782-1.845,1.055c-0.566,0.273-0.986,0.41-1.259,0.41c-0.117,0-0.176-0.038-0.176-0.117
		c0-0.195,0.351-0.663,1.055-1.406C96.514,86.087,97.343,85.305,98.301,84.483z M119.953,82.375
		c0.624-0.898,1.582-2.031,2.872-3.399c1.288-1.366,2.675-2.744,4.159-4.131c1.484-1.386,2.95-2.695,4.395-3.926
		c1.447-1.231,2.676-2.178,3.693-2.843c0.118-0.077,0.253-0.156,0.409-0.234c0.312-0.155,0.509-0.234,0.586-0.234
		c0.039,0.039,0.059,0.079,0.059,0.117c0,0.156-0.35,0.645-1.054,1.465c-0.703,0.82-1.604,1.787-2.695,2.901
		c-1.095,1.112-2.296,2.314-3.604,3.604c-1.31,1.289-2.569,2.472-3.78,3.545c-1.211,1.075-2.284,1.964-3.223,2.666
		c-0.938,0.703-1.581,1.056-1.933,1.056c-0.079,0-0.118-0.039-0.118-0.117C119.719,82.726,119.797,82.57,119.953,82.375z
		 M139.232,82.375c0.623-0.898,1.581-2.031,2.871-3.399c1.29-1.366,2.676-2.744,4.161-4.131c1.483-1.386,2.949-2.695,4.395-3.926
		c1.445-1.231,2.676-2.178,3.691-2.843c0.117-0.077,0.253-0.156,0.411-0.234c0.312-0.155,0.506-0.234,0.586-0.234
		c0.039,0.039,0.058,0.079,0.058,0.117c0,0.156-0.352,0.645-1.055,1.465s-1.602,1.787-2.694,2.901
		c-1.096,1.112-2.296,2.314-3.605,3.604c-1.309,1.289-2.568,2.472-3.778,3.545c-1.212,1.075-2.286,1.964-3.225,2.666
		c-0.937,0.703-1.581,1.056-1.933,1.056c-0.08,0-0.118-0.039-0.118-0.117C138.997,82.726,139.075,82.57,139.232,82.375z
		 M157.516,88.293c-0.861,0.703-1.71,1.406-2.549,2.109c-0.842,0.704-1.622,1.318-2.345,1.847c-0.724,0.527-1.338,0.957-1.847,1.289
		c-0.507,0.332-0.859,0.498-1.055,0.498c-0.078,0-0.117-0.039-0.117-0.118c0-0.312,0.255-0.819,0.763-1.522
		c0.507-0.703,1.161-1.495,1.963-2.373c0.8-0.88,1.718-1.778,2.754-2.696c1.035-0.917,2.1-1.767,3.194-2.549
		c1.093-0.781,2.157-1.416,3.194-1.904c1.034-0.488,1.942-0.733,2.724-0.733c0.117,0,0.176,0.021,0.176,0.059
		c0,0.079-0.079,0.196-0.234,0.353C161.714,84.699,159.508,86.613,157.516,88.293z"/>
	<g>
		<path d="M2.874,157.615v-47.687h5.515c6.488,0,9.993,1.297,11.874,4.931c1.817,3.632,2.076,9.603,2.076,18.944
			c0,9.344-0.259,15.248-2.076,18.881c-1.881,3.634-5.385,4.931-11.874,4.931H2.874z M9.88,150.609c2.4,0,3.764-0.26,4.477-2.597
			c0.325-1.103,0.584-2.788,0.649-5.06c0.065-2.271,0.065-5.32,0.065-9.213s0-6.942-0.065-9.214
			c-0.064-2.207-0.324-3.893-0.649-5.062c-0.713-2.271-2.077-2.53-4.477-2.53V150.609z"/>
		<path d="M27.009,109.929h16.026v7.201h-9.019v12.522h6.488v7.656h-6.488v13.106h9.019v7.2H27.009V109.929z"/>
		<path d="M46.927,109.929h7.007v41.199h9.278v6.487H46.927V109.929z"/>
		<path d="M73.593,117.13v-7.201h20.244v7.201h-6.618v40.485h-7.008V117.13H73.593z"/>
		<path d="M93.188,157.615l7.201-47.687h8.564l7.203,47.687h-6.812l-1.299-9.73h-6.746l-1.298,9.73H93.188z M105.061,125.435
			l-0.193-1.232h-0.391l-0.195,1.232l-2.01,15.054h4.801L105.061,125.435z"/>
		<path d="M119.4,109.929h7.006v41.199h9.277v6.487H119.4V109.929z"/>
		<path d="M138.539,109.929h7.006v41.199h9.279v6.487h-16.285V109.929z"/>
		<path d="M157.68,109.929h16.025v7.201h-9.02v12.522h6.49v7.656h-6.49v13.106h9.02v7.2H157.68V109.929z"/>
		<path d="M190.119,157.615l-3.633-20.113h-1.881v20.113h-7.008v-47.687h7.008c8.369,0,11.939,4.734,11.939,13.754
			c0,4.736-1.234,9.019-3.895,10.836l4.477,23.097H190.119z M184.605,131.015c0.973,0,2.271-0.129,3.309-1.039
			c1.039-0.907,1.881-2.659,1.881-6.032c0-3.375-0.842-5.192-1.881-6.1c-1.037-0.909-2.336-0.974-3.309-0.974V131.015z"/>
	</g>
</g>
</svg>
