<?xml version="1.0" encoding="utf-8"?>
<!-- Generator: Adobe Illustrator 19.2.1, SVG Export Plug-In . SVG Version: 6.00 Build 0)  -->
<svg version="1.1" id="Layer_1" xmlns="http://www.w3.org/2000/svg" xmlns:xlink="http://www.w3.org/1999/xlink" x="0px" y="0px"
	 viewBox="0 0 200 200" style="enable-background:new 0 0 200 200;" xml:space="preserve">
<style type="text/css">
	.st0{fill:#FFFFFF;}
</style>
<g>
	<path class="st0" d="M30.1,91.7c0.7,0,1.3-0.2,1.8-0.7c0.5-0.5,1-0.9,1.4-1.3c1-0.9,1.9-1.7,2.8-2.6c0.9-0.9,1.7-1.9,2.5-2.9
		c1.2-1.5,2-2.6,2.6-3.5c0.6-0.9,1.1-1.8,1.5-2.6c0.4-1,0.7-2,1-3.1c0.3-1.1,0.2-2.2-0.2-3.2c-0.3-1-0.8-1.8-1.4-2.5
		c-0.7-0.7-1.4-1.2-2.3-1.5c-0.9-0.4-1.8-0.6-2.7-0.7c-1-0.1-1.9-0.1-2.9,0c-2.1,0.3-4.1,0.9-6,1.8c-1.9,1-3.7,2.1-5.3,3.4
		c-1.6,1.3-3.1,2.6-4.6,4.1c-1.4,1.5-2.6,3.2-3.4,5.1c-0.5,1.1-0.9,2.2-1.1,3.4c-0.2,1.2-0.2,2.3-0.1,3.5s0.5,2.2,1,3.3
		c0.5,1.1,1.2,2,2.1,2.8c-1.8,0.8-3.5,1.9-5,3.2c-1.5,1.3-2.9,2.8-4.1,4.3c-0.6,0.8-1.2,1.7-1.8,2.6c-0.6,0.9-1.4,2.2-2.4,3.7
		c-0.2,0.2-0.3,0.4-0.4,0.6c-0.1,0.2-0.2,0.4-0.2,0.7c-0.1,0.4,0,0.8,0.3,1.1c0.2,0.4,0.5,0.7,0.8,0.9c0.9,0.7,1.8,0.8,2.7,0.5
		c0.4-0.2,0.7-0.4,0.9-0.7c0.2-0.3,0.5-0.7,0.7-1.1c0.6-0.9,1.1-1.7,1.7-2.6c0.6-0.9,1.2-1.7,1.8-2.5c1.2-1.5,2.5-2.9,4-4.3
		c1.5-1.3,3.2-2.3,5-2.9c0.5-0.2,1-0.4,1.5-0.5s1.1-0.2,1.6-0.3c0.5,0,1-0.2,1.4-0.3c0.4-0.2,0.7-0.5,0.8-1.1c0.1-0.5,0-0.9-0.2-1.3
		c-0.2-0.4-0.5-0.8-0.9-1c-0.5-0.4-1.1-0.7-1.7-0.8c-0.7-0.1-1.3-0.3-1.9-0.5c-0.6-0.2-1.2-0.5-1.7-0.9c-0.5-0.4-0.9-1.1-1.1-2.1
		c-0.3-1.3-0.2-2.5,0.2-3.7c0.4-1.2,0.9-2.4,1.5-3.4c0.7-1.1,1.5-2,2.4-2.9c0.9-0.9,1.8-1.8,2.8-2.6c2.1-1.7,4.2-3,6.4-4
		c1.2-0.6,2.4-0.9,3.7-1.1c1.7-0.2,2.6,0.2,2.8,1.1c0.2,0.9-0.1,2-0.8,3.4c-0.6,1.2-1.2,2.3-1.9,3.2c-2.3,3-4.9,5.8-7.8,8.3
		c-0.2,0.2-0.3,0.3-0.5,0.5c-0.2,0.2-0.4,0.4-0.5,0.6c-0.3,0.6-0.3,1.1,0,1.6c0.3,0.6,0.6,1,1.2,1.3C29,91.6,29.6,91.7,30.1,91.7z"
		/>
	<path class="st0" d="M50.9,80.7c0.9,0,1.7-0.3,2.3-1c0.7-0.7,1-1.4,1-2.3c0-0.9-0.3-1.7-1-2.3c-0.7-0.7-1.4-1-2.3-1
		c-0.9,0-1.7,0.3-2.3,1c-0.7,0.7-1,1.4-1,2.3c0,0.9,0.3,1.6,1,2.3C49.3,80.4,50,80.7,50.9,80.7z"/>
	<path class="st0" d="M108.6,81.9c0.3-0.2,0.7-0.3,1-0.6c0.3-0.2,0.5-0.5,0.7-0.8c0.2-0.3,0.3-0.7,0.3-1.1c-0.1-0.7-0.3-1.2-0.8-1.5
		c-0.5-0.4-1.1-0.5-1.8-0.5c-1.5,0-2.8,0.4-4,1.2c-1.2,0.8-2.2,1.7-2.9,2.9c-0.8,1.3-1.4,2.8-1.8,4.4c-0.9,1.2-1.6,2.3-2.3,3.2
		c-0.7,0.9-1.4,1.8-2.1,2.7c-0.8,0.9-1.5,1.8-2.3,2.6c-0.8,0.8-1.6,1.7-2.4,2.5c-0.2,0.2-0.4,0.4-0.6,0.6c-1.4,1.3-3.1,1.9-5.1,2
		l1.1-2c0.4-0.8,0.8-1.6,1.1-2.7c0.4-1,0.6-2.1,0.6-3.1c0.1-1-0.1-2-0.4-3c-0.4-1-1-1.7-2-2.3c-1.5-0.8-3.1-1-4.9-0.8
		c-1.8,0.2-3.4,0.8-4.9,1.6c-2.6,1.3-4.9,3.1-6.9,5.4c-1.2,1.4-2.3,2.9-3.4,4.5c0,0-0.1,0-0.1,0.1c-0.3,0.3-0.6,0.7-0.9,1
		c-1.6,1.6-3.1,2.9-4.5,4.2s-2.8,2.2-4,3s-2.3,1.3-3.2,1.7c-0.9,0.4-1.6,0.4-2.2,0.2c-0.7-0.3-1.1-1-1.2-2.1
		c-0.2-1.2,0.2-2.6,1.1-4.3c0.3-0.5,0.5-0.9,0.8-1.4c0.3-0.5,0.7-1,1.1-1.5c1.1-0.5,2.3-1.1,3.5-1.8c1.2-0.7,2.5-1.5,3.7-2.4
		c1.2-0.9,2.5-1.7,3.7-2.6c1.2-0.9,2.4-1.8,3.5-2.7c1.7-1.5,3.4-3,4.9-4.5c1.6-1.5,3.1-3.2,4.6-4.9c0.5-0.7,1.1-1.4,1.7-2.3
		c0.7-0.9,1.2-1.8,1.7-2.8c0.5-1,0.8-2,0.9-3c0.1-1-0.1-2-0.7-2.9c-0.6-0.9-1.2-1.5-2.1-1.8c-0.8-0.3-1.7-0.4-2.6-0.3
		c-0.9,0.1-1.9,0.3-2.8,0.7c-0.9,0.4-1.7,0.7-2.4,1.1c-1.9,1.1-3.7,2.4-5.3,3.9c-1.6,1.5-3.1,3.1-4.6,4.7c-1.4,1.5-2.8,3.2-4.3,5.2
		c-1.5,1.9-3,4-4.4,6.2c-1.4,2.2-2.7,4.4-3.9,6.6c-0.5,0.9-0.9,1.8-1.3,2.8c-0.1,0.1-0.3,0.2-0.4,0.4c-0.3,0.4-0.7,0.7-1,1.1
		c-1.8,1.8-3.1,3.1-4,4c-0.9,0.9-1.7,1.6-2.4,2.3c-1.3,1.2-2.3,2-3.1,2.3c-0.7,0.3-1.2,0.3-1.3-0.2c-0.2-0.4,0-1.1,0.4-2
		c0.4-1,1.1-2.1,2-3.4c1.4-1.9,2.8-3.7,4.4-5.4c1.6-1.7,3.2-3.4,4.8-5.2c0.3-0.3,0.4-0.6,0.6-0.8c0.1-0.2,0.2-0.5,0.2-0.9
		c-0.1-0.7-0.4-1.4-0.9-2c-0.5-0.7-1.2-1-2-1c-0.5,0.1-0.9,0.3-1.3,0.6c-0.4,0.4-0.7,0.7-1.1,1.1c-0.8,0.8-1.6,1.5-2.3,2.4
		c-0.7,0.8-1.4,1.7-2.2,2.5c-1.5,1.7-2.9,3.5-4.3,5.3c-1.4,1.8-2.5,3.8-3.2,6c-0.4,1-0.6,2-0.6,3c-0.1,1.1,0.2,2,0.7,2.9
		c0.5,0.9,1.1,1.5,2,1.8c0.9,0.4,1.8,0.5,2.7,0.5c1.4-0.1,2.7-0.5,3.9-1.2c1.2-0.8,2.6-1.9,4.1-3.3c0.7-0.7,1.5-1.4,2.1-2.1
		c0,0.7,0.1,1.4,0.3,2c0.3,1,0.8,1.8,1.5,2.5c0.7,0.7,1.6,1.2,2.7,1.5c0.8,0.2,1.8,0.3,2.9,0.2c1.2-0.1,2.5-0.4,4.1-1.1
		c1.6-0.7,3.3-1.8,5.4-3.3c0.3-0.2,0.7-0.5,1-0.8c0,0.8,0.1,1.6,0.4,2.4c0.3,0.9,1,1.7,2,2.4c1.5,0.9,3.1,1.1,4.9,0.8
		c1.8-0.4,3.4-0.9,4.9-1.7c1.3-0.7,2.6-1.6,3.8-2.7c1.3-1.1,2.6-2.5,4.1-4.2c0.3,0.1,0.7,0.1,1,0.2c0,0.5,0,1.1,0.1,1.6
		c0.2,1.3,0.7,2.4,1.5,3.4c0.8,1,1.8,1.8,3,2.4c1.2,0.6,2.5,1,4,1c1.7,0.1,3.3-0.2,4.7-0.8c1.4-0.6,2.6-1.5,3.7-2.6
		c1.1-1.1,1.9-2.4,2.6-3.9c0.7-1.5,1.1-3.1,1.2-4.8c0.2-2.2,0.4-4.3,0.5-6.5c0-2.2,0.3-4.3,0.8-6.5c0.2-0.9,0.5-1.7,1-2.5
		c0.5-0.8,1.1-1.5,2-2C107.9,82.3,108.2,82.1,108.6,81.9z M58.9,86.2c1-1.3,1.9-2.6,2.9-3.9c1.5-1.9,3-3.7,4.7-5.4
		c1.7-1.7,3.5-3.3,5.5-4.7c0.3-0.2,0.6-0.4,1.1-0.7c0.5-0.3,0.9-0.5,1.2-0.6c0.4-0.2,0.7-0.2,0.9-0.2c0.2,0,0.3,0.2,0.1,0.6
		c-0.4,1-0.9,1.9-1.5,2.8c-0.6,0.8-1.3,1.7-2,2.5c-1.7,2-3.5,3.9-5.4,5.6c-1.9,1.7-3.9,3.4-6,5c-0.7,0.6-1.4,1.1-2.1,1.5
		c-0.7,0.5-1.4,1-2.1,1.5C57.1,88.9,58,87.5,58.9,86.2z M74.1,103.4c-1,0.9-2,1.8-3.2,2.6c-0.5,0.3-1,0.6-1.6,1
		c-0.6,0.4-1.1,0.6-1.6,0.6c-0.5,0.1-0.8,0-1.1-0.3s-0.2-1,0.1-2c0.6-2,1.5-4,2.9-5.8c1.4-1.9,2.9-3.6,4.4-5.2
		c0.1,1.2,0.4,2.3,0.8,3.4c0.4,1.1,1.1,2,1.9,2.9C76,101.5,75.1,102.5,74.1,103.4z M81.7,92.1c-0.2,0.7-0.5,1.4-0.8,2.2
		c-0.3,0.8-0.8,1.6-1.5,2.5c-0.3-0.5-0.5-1.1-0.7-1.7c-0.2-0.6-0.2-1.2-0.2-1.8c0-0.6,0-1.1,0.1-1.6c0-0.5,0.1-0.9,0.2-1.2
		c0.4-0.3,0.8-0.4,1.2-0.6c0.4-0.1,0.8-0.2,1.1-0.1c0.3,0.1,0.5,0.3,0.6,0.6C81.9,91,81.9,91.5,81.7,92.1z M98,98
		c-0.1,0.9-0.1,1.7-0.2,2.4c-0.1,0.7-0.2,1.2-0.3,1.7c-0.1,0.5-0.3,0.9-0.5,1.3c-0.5,1.1-1.2,2-2.3,2.9c-1.1,0.9-2.2,1.3-3.3,1.3
		c-1.5,0-2.6-0.5-3.5-1.4c-0.7-0.7-0.9-1.6-0.8-2.7c1.5-0.3,2.9-1,4.2-2c0.5-0.4,0.9-0.7,1.5-1.2c0.2-0.2,0.4-0.4,0.5-0.6
		c0.7-0.6,1.4-1.3,2.1-2.1c0.9-1,1.8-2,2.7-3.1C98.1,95.9,98,97,98,98z"/>
	<path class="st0" d="M151.1,86.9c0.8-0.9,1.6-1.9,2.4-2.8l10.2-0.9c0.2,0.1,0.4,0.3,0.6,0.4c0.6,0.3,1.1,0.2,1.5-0.1
		c0.3-0.2,0.5-0.3,0.8-0.5l4.4-0.4c0.4,0,0.9-0.1,1.5,0c0.6,0,1.1-0.2,1.3-0.6c0.2-0.3,0.3-0.6,0.4-1.1c0.1-0.5,0.1-1,0.1-1.5
		c0-0.3-0.1-0.6-0.2-0.9l1.1-0.6c0.4-0.3,0.9-0.5,1.6-0.9c0.7-0.3,1.1-0.8,1.2-1.3c0.2-0.7,0.1-1.3-0.2-1.9
		c-0.3-0.6-0.7-1.1-1.2-1.5c-0.6-0.4-1.1-0.5-1.6-0.4c-0.4,0.1-0.8,0.3-1.1,0.5c-0.3,0.2-0.7,0.4-1,0.6c-1.3,0.8-2.7,1.7-4.1,2.7
		c-0.9,0.6-1.9,1.3-3.1,2.2c-1.9,0.2-4.4,0.4-7.6,0.7c0.8-1,1.6-1.9,2.4-2.8c0.8-0.9,1.6-1.8,2.5-2.7c0.3-0.4,0.6-0.7,0.9-1
		c0.3-0.3,0.7-0.6,1-1c0.3-0.3,0.4-0.5,0.5-0.7c0.1-0.2,0.1-0.5,0-0.9c0-0.4-0.1-0.7-0.3-1.1c-0.2-0.4-0.4-0.7-0.7-1
		c-0.3-0.3-0.6-0.5-1-0.7c-0.4-0.2-0.8-0.2-1.2-0.1c-0.4,0.1-0.8,0.3-1.1,0.7c-0.4,0.4-0.7,0.7-1,1c-2,2-3.5,3.7-4.7,4.9
		c-1.2,1.3-2.1,2.3-2.9,3.1c-0.7,0.8-1.3,1.4-1.7,1.9c-0.4,0.5-0.7,0.9-1,1.2c-1.2,0.2-2.2,0.3-3,0.4c-0.8,0.1-1.5,0.2-2,0.3
		c-0.5,0.1-1,0.1-1.3,0.2c-0.3,0.1-0.6,0.1-0.9,0.2c-0.5,0.1-1,0.2-1.4,0.3c-0.4,0.1-0.7,0.4-0.9,0.9c-0.1,0.4-0.1,0.9,0,1.6
		c0.1,0.7,0.3,1.2,0.6,1.5c0.3,0.4,0.6,0.5,0.9,0.5c0.4,0,0.7,0.1,1,0.4c0.3,0.2,0.5,0.6,0.6,1.3c-2.7,3.2-5.3,6.5-7.9,9.7
		c-0.2,0.2-0.5,0.4-0.7,0.6c-1.4,1.3-3.1,1.9-5.1,2l1.1-2c0.4-0.8,0.8-1.6,1.1-2.7c0.4-1,0.6-2.1,0.6-3.1c0.1-1-0.1-2-0.4-3
		c-0.4-1-1-1.7-2-2.3c-1.5-0.8-3.1-1-4.9-0.8c-1.8,0.2-3.4,0.8-4.9,1.6c-2.6,1.3-4.9,3.1-6.9,5.4c-2,2.3-3.7,4.8-5.1,7.5
		c-0.4,0.8-0.8,1.7-1.1,2.8c-0.4,1-0.6,2.1-0.6,3.1c0,1,0.1,2,0.4,2.9c0.3,0.9,1,1.7,2,2.4c1.5,0.9,3.1,1.1,4.9,0.8
		c1.8-0.4,3.4-0.9,4.9-1.7c1.3-0.7,2.6-1.6,3.8-2.7c1.3-1.1,2.6-2.5,4.1-4.2c1,0.3,2.1,0.4,3.2,0.3c-0.8,1-1.6,2-2.3,3
		c-2.2,2.7-4.3,5.4-6.3,8.3c-2.1,2.9-3.9,6.1-5.4,9.5c-0.4,1-0.8,2.1-1.1,3.2c-0.4,1.1-0.4,2.3-0.1,3.4c0.3,0.9,0.7,1.6,1.5,2.1
		c0.7,0.5,1.5,0.8,2.4,0.9c0.8,0.1,1.6,0,2.5-0.3c0.9-0.3,1.7-0.8,2.6-1.4c0.9-0.6,1.7-1.2,2.5-2c0.8-0.7,1.5-1.4,2.2-2.2
		c3.2-3.4,6.1-7.1,8.8-11.2c2.6-4.1,5-8.4,7.2-12.9c1.1-2.3,2-4.6,2.7-7.1c0.7-2.4,1.2-4.9,1.4-7.5
		C149.5,88.7,150.3,87.8,151.1,86.9z M119.8,103.4c-1,0.9-2,1.8-3.2,2.6c-0.5,0.3-1,0.6-1.6,1c-0.6,0.4-1.1,0.6-1.6,0.6
		c-0.5,0.1-0.8,0-1.1-0.3c-0.2-0.3-0.2-1,0.1-2c0.6-2,1.5-4,2.9-5.8c1.4-1.9,2.9-3.6,4.4-5.2c0.1,1.2,0.4,2.3,0.8,3.4
		c0.4,1.1,1.1,2,1.9,2.9C121.6,101.5,120.7,102.5,119.8,103.4z M127.4,92.1c-0.2,0.7-0.5,1.4-0.8,2.2c-0.3,0.8-0.8,1.6-1.5,2.5
		c-0.3-0.5-0.5-1.1-0.7-1.7c-0.2-0.6-0.2-1.2-0.2-1.8c0-0.6,0-1.1,0.1-1.6c0-0.5,0.1-0.9,0.2-1.2c0.4-0.3,0.8-0.4,1.2-0.6
		c0.4-0.1,0.8-0.2,1.1-0.1c0.3,0.1,0.5,0.3,0.6,0.6C127.6,91,127.5,91.5,127.4,92.1z M139.7,101.7c-0.4,0.8-0.8,1.6-1.2,2.5
		c-1.1,2-2.2,4.1-3.4,6.2c-1.2,2.1-2.4,4.2-3.7,6.2c-1.3,2-2.7,4-4.3,5.9c-1.5,1.9-3.2,3.7-4.9,5.3c-1.4,1.3-2.2,1.9-2.5,1.8
		s-0.1-0.8,0.3-2c0.9-2.1,2-4.1,3.3-6c1.4-1.9,2.7-3.7,4-5.5c1.5-1.9,2.9-3.8,4.5-5.7c1.5-1.9,3-3.7,4.5-5.7l4.5-5.6
		C140.5,100.1,140.1,100.9,139.7,101.7z"/>
	<path class="st0" d="M196,96.6c-0.7-0.5-1.4-0.6-2.2-0.3c-0.4,0.2-0.8,0.5-1.1,0.9c-0.3,0.4-0.6,0.7-0.9,1l-6.3,6.3
		c-0.6,0.6-1.1,1.1-1.7,1.5c-0.6,0.5-1.2,0.9-1.8,1.2c-0.6,0.3-1,0.4-1.2,0.3c-0.3-0.1-0.4-0.3-0.4-0.6c0-0.3,0-0.7,0.2-1.1
		c0.1-0.5,0.3-0.9,0.6-1.3c0.8-1.5,1.7-2.9,2.8-4.3c1.1-1.4,2.5-3.1,4.1-5c0.7-0.9,1.4-1.6,2.2-2.4c0.8-0.7,1.5-1.5,2.2-2.2
		c0.5-0.6,0.7-1.2,0.7-1.9c-0.1-0.7-0.4-1.4-0.9-1.9c-0.6-0.6-1.3-0.9-2-0.9c-0.4,0.1-0.8,0.3-1.3,0.6c-0.5,0.4-0.9,0.8-1.2,1.2
		c-1-1.4-2.4-2.1-4.5-2.3c-1.3-0.1-2.6,0.1-3.8,0.5c-1.2,0.4-2.4,0.9-3.6,1.5c-2.6,1.5-4.9,3.3-7,5.4c-1.3,1.3-2.4,2.7-3.5,4.1
		c-0.1,0.1-0.2,0.1-0.3,0.2c-0.3,0.4-0.7,0.7-1,1.1c-1.8,1.8-3.1,3.1-4,4c-0.9,0.9-1.7,1.6-2.4,2.3c-1.3,1.2-2.3,2-3.1,2.3
		c-0.7,0.3-1.2,0.3-1.3-0.2c-0.2-0.4,0-1.1,0.4-2c0.4-1,1.1-2.1,2-3.4c1.4-1.9,2.8-3.7,4.4-5.4c1.6-1.7,3.2-3.4,4.8-5.2
		c0.3-0.3,0.4-0.6,0.6-0.8c0.1-0.2,0.2-0.5,0.2-0.9c-0.1-0.7-0.4-1.4-0.9-2c-0.5-0.7-1.2-1-2-1c-0.5,0.1-0.9,0.3-1.3,0.6
		c-0.4,0.4-0.7,0.7-1.1,1.1c-0.8,0.8-1.6,1.5-2.3,2.4c-0.7,0.8-1.4,1.7-2.2,2.5c-1.5,1.7-2.9,3.5-4.3,5.3c-1.4,1.8-2.5,3.8-3.2,6
		c-0.4,1-0.6,2-0.6,3s0.2,2,0.7,2.9c0.5,0.9,1.1,1.5,2,1.8c0.9,0.4,1.8,0.5,2.7,0.5c1.4-0.1,2.7-0.5,3.9-1.2
		c1.2-0.8,2.6-1.9,4.1-3.3c0,0,0,0,0,0c0.1,0.5,0.2,1,0.3,1.5c0.3,1,1,1.8,2.1,2.3c1.2,0.6,2.4,0.8,3.7,0.7c1.3-0.2,2.5-0.6,3.7-1.2
		c0.8-0.5,1.5-0.9,2.2-1.4c0.7-0.5,1.4-1.1,2.1-1.7c0.1,0.8,0.3,1.5,0.6,2c0.5,0.9,1.2,1.5,2.1,1.9c0.9,0.4,2,0.6,3.2,0.5
		c1.7-0.2,3.1-0.7,4.4-1.7c1.3-1,2.5-2,3.5-3c0.7-0.7,1.5-1.5,2.4-2.4c0.9-0.9,2.2-2.3,4-4.1c0.3-0.4,0.6-0.7,0.9-1
		c0.3-0.3,0.5-0.7,0.6-1.2C196.9,97.8,196.6,97.1,196,96.6z M178.6,97.8c-1.8,2.1-3.8,4.2-6,6.2c-0.8,0.7-1.6,1.4-2.7,2.2
		c-1,0.8-2.1,1.3-3.3,1.4c-0.4,0-0.6-0.2-0.7-0.5c-0.1-0.3,0-0.6,0.1-1c0.1-0.4,0.2-0.8,0.4-1.1c0.2-0.4,0.3-0.6,0.4-0.8
		c1-1.9,2.3-3.8,4.2-5.8c1.8-2,3.6-3.7,5.4-5.1c0.3-0.2,0.8-0.6,1.7-1.2c0.9-0.6,1.7-1.1,2.6-1.5c0.9-0.4,1.7-0.6,2.4-0.6
		c0.7,0,1,0.5,0.9,1.5C182.3,93.6,180.4,95.7,178.6,97.8z"/>
</g>
</svg>
