<?xml version="1.0" encoding="utf-8"?>
<!-- Generator: Adobe Illustrator 19.2.1, SVG Export Plug-In . SVG Version: 6.00 Build 0)  -->
<svg version="1.1" id="Capa_1" xmlns="http://www.w3.org/2000/svg" xmlns:xlink="http://www.w3.org/1999/xlink" x="0px" y="0px"
	 viewBox="0 0 400 400" style="enable-background:new 0 0 400 400;" xml:space="preserve">
<style type="text/css">
	.st0{fill:#EF8000;}
</style>
<g>
	<path class="st0" d="M76.3,175.7c1.5-1.8,3.1-3.6,4.6-5.4l31.8-2.6c1.4-0.1,2.9-0.8,4.4-2s2.7-2.6,3.7-4c1-1.5,1.5-2.9,1.6-4.3
		c0.1-1.4-0.6-2.4-1.9-3c-0.9-0.4-1.9-0.4-3.2,0c-1.3,0.4-3,1-5.3,1.7c-2.3,0.8-5.1,1.5-8.6,2.2s-7.9,1.2-13.2,1.4
		c1.5-1.9,3.1-3.6,4.6-5.3c1.6-1.7,3.2-3.4,4.8-5.1c0.6-0.7,1.2-1.3,1.8-1.9c0.7-0.6,1.3-1.2,2-1.9c0.1-0.1,0.1-0.2,0.2-0.2
		c2.5-0.2,4.3-0.4,5.2-0.5c4.8-0.4,9.7-0.7,14.7-1c0.8,0,1.7,0,2.9,0s2-0.4,2.5-1.2c0.3-0.5,0.5-1.2,0.7-2.1
		c0.2-0.9,0.3-1.9,0.3-2.8c0-0.8-0.1-1.7-0.5-2.5c-0.3-0.8-0.9-1.3-1.8-1.6c-0.5-0.2-1.1-0.2-1.7-0.1c-0.7,0.1-1.3,0.1-1.7,0.1
		c-2.7,0.2-5.5,0.4-8.4,0.7c-2.9,0.2-33.2,3.9-35.5,4.2c-2.3,0.3-4.1,0.6-5.4,0.8c-1.4,0.2-2.4,0.3-3.1,0.4c-0.7,0.1-1.4,0.2-2,0.3
		c-1,0.2-1.9,0.4-2.7,0.5c-0.8,0.1-1.4,0.7-1.7,1.8c-0.7,2-0.3,3.9,1.2,5.6c0.6,0.8,1.3,1.1,2,0.9c0.8-0.1,1.5-0.3,2.3-0.4
		c0,0,8.1-0.8,16.9-1.6c-0.9,1-1.8,1.9-2.6,2.7c-2.3,2.5-4.1,4.5-5.5,6c-1.4,1.6-2.5,2.8-3.2,3.7c-0.8,0.9-1.4,1.7-2,2.4
		c-2.3,0.3-4.3,0.6-5.8,0.8c-1.5,0.3-2.7,0.4-3.8,0.6c-1.1,0.2-1.9,0.3-2.5,0.4c-0.6,0.1-1.2,0.2-1.8,0.3c-1,0.2-1.9,0.4-2.7,0.5
		c-0.9,0.1-1.4,0.7-1.7,1.8c-0.2,0.8-0.2,1.8-0.1,3.1c0.1,1.3,0.5,2.3,1.2,3c0.4,0.7,1,1,1.7,1s1.3,0.2,1.9,0.7
		c0.6,0.4,1,1.2,1.2,2.5c-5.2,6.3-10.2,12.5-15.2,18.8C42,201.3,37,207.6,32.1,214C28,219.1,24,224.5,20,230
		c-3.9,5.6-7.4,11.7-10.4,18.3c-0.8,1.9-1.5,3.9-2.2,6.1c-0.6,2.1-0.7,4.3-0.1,6.4c0.5,1.7,1.4,3,2.8,4c1.4,0.9,3,1.5,4.6,1.7
		c1.5,0.1,3.1-0.1,4.8-0.7c1.7-0.6,3.4-1.5,5-2.6c1.7-1.2,3.3-2.4,4.8-3.8c1.6-1.4,2.9-2.8,4.2-4.1c6.2-6.5,11.8-13.6,16.8-21.5
		c5-7.9,9.6-16.1,13.7-24.8c2.1-4.3,3.8-8.8,5.2-13.5c1.3-4.7,2.2-9.5,2.7-14.4C73.3,179.3,74.8,177.5,76.3,175.7z M54.7,204.2
		c-0.7,1.6-1.5,3.2-2.4,4.7c-2,3.9-4.1,7.8-6.4,11.8c-2.3,4-4.7,8-7.2,11.9c-2.5,3.9-5.3,7.6-8.2,11.3c-3,3.6-6.1,7-9.5,10.1
		c-2.7,2.5-4.2,3.7-4.8,3.5c-0.4-0.2-0.2-1.5,0.7-3.8c1.7-4,3.8-7.8,6.4-11.4c2.6-3.6,5.2-7.1,7.7-10.6c2.8-3.6,5.6-7.2,8.5-10.8
		c2.9-3.5,5.8-7.1,8.7-10.8l8.7-10.7C56.2,201,55.4,202.6,54.7,204.2z"/>
	<path class="st0" d="M224.1,166.4c0.7-0.3,1.3-0.7,1.9-1.1c0.6-0.4,1.1-0.9,1.4-1.5c0.3-0.6,0.5-1.3,0.5-2.2
		c-0.1-1.3-0.6-2.2-1.6-2.9c-1-0.7-2.2-1-3.5-1c-2.8,0-5.3,0.7-7.6,2.2s-4.2,3.4-5.6,5.6c-1.6,2.5-2.7,5.3-3.5,8.4
		c-1.7,2.3-3.2,4.3-4.5,6.1c-1.3,1.8-2.7,3.5-4,5.1c-1.4,1.7-2.9,3.4-4.4,5c-1.4,1.4-2.9,3-4.4,4.5c-0.5,0.4-0.9,0.8-1.4,1.2
		c-2.7,2.5-5.9,3.7-9.8,3.8l2.2-3.9c0.8-1.4,1.5-3.1,2.2-5.1c0.6-1.9,1.1-3.9,1.2-5.9s-0.1-3.9-0.8-5.7c-0.7-1.8-2-3.3-3.8-4.5
		c-2.8-1.4-5.9-1.9-9.3-1.5c-3.4,0.4-6.5,1.5-9.3,3.1c-5,2.5-9.3,6-13.2,10.4c-2.2,2.7-4.3,5.4-6.2,8.3c-0.2,0.1-0.3,0.3-0.4,0.4
		c-0.6,0.7-1.2,1.3-1.8,2c-3,3-5.9,5.7-8.8,8.1c-2.8,2.3-5.3,4.2-7.6,5.7c-2.3,1.5-4.3,2.6-6.1,3.3c-1.8,0.6-3.1,0.8-4.1,0.4
		c-1.2-0.4-2-1.8-2.3-4c-0.3-2.2,0.5-4.9,2.2-8.2c0.5-0.9,1-1.8,1.6-2.7c0.6-0.9,1.2-1.8,2-2.8c2.1-0.9,4.3-2.1,6.7-3.5
		c2.4-1.4,4.7-3,7.1-4.6c2.4-1.7,4.7-3.4,7.1-5.1c2.3-1.7,4.6-3.5,6.7-5.2c3.3-2.8,6.5-5.7,9.5-8.6c3-3,5.9-6.1,8.7-9.5
		c0.9-1.2,2-2.7,3.3-4.4c1.3-1.6,2.4-3.4,3.3-5.3c0.9-1.9,1.5-3.8,1.7-5.8s-0.2-3.9-1.4-5.6c-1.1-1.7-2.4-2.9-4-3.4
		c-1.6-0.5-3.3-0.7-5.1-0.5c-1.7,0.2-3.5,0.6-5.3,1.3s-3.3,1.3-4.6,2c-3.6,2-7,4.5-10.1,7.4c-3.1,2.9-6,5.9-8.8,9
		c-2.6,2.9-5.3,6.2-8.2,9.9c-2.9,3.7-5.7,7.7-8.4,11.8c-2.7,4.1-5.1,8.4-7.4,12.7c-0.9,1.8-1.7,3.5-2.4,5.2c-0.4,0.3-0.7,0.6-1,0.9
		c-0.7,0.7-1.3,1.4-2,2.1c-3.4,3.4-5.9,5.9-7.6,7.6c-1.7,1.7-3.3,3.1-4.6,4.4c-2.6,2.3-4.5,3.7-5.9,4.3c-1.4,0.6-2.2,0.5-2.5-0.3
		c-0.3-0.8-0.1-2.1,0.7-3.9s2.1-4,3.9-6.5c2.6-3.7,5.4-7.1,8.4-10.4c3-3.3,6.1-6.6,9.3-10c0.5-0.6,0.9-1.1,1.1-1.5
		c0.3-0.4,0.4-1,0.4-1.8c-0.2-1.3-0.7-2.6-1.7-3.9s-2.3-1.9-3.9-1.9c-0.9,0.1-1.8,0.5-2.5,1.2s-1.4,1.3-2.1,2c-1.5,1.5-3,3-4.4,4.6
		c-1.4,1.5-2.8,3.2-4.1,4.8c-2.8,3.3-5.6,6.7-8.3,10.2c-2.7,3.5-4.8,7.4-6.1,11.5c-0.6,1.8-1.1,3.8-1.2,5.8c-0.1,2,0.3,3.9,1.4,5.6
		c0.9,1.6,2.2,2.8,3.8,3.5c1.6,0.7,3.4,1,5.2,0.9c2.6-0.1,5.1-0.9,7.2-2.2c2.4-1.5,5-3.6,7.9-6.4c1.5-1.3,2.8-2.7,4.2-4c0,0,0,0,0,0
		c0.1,1.3,0.3,2.6,0.7,3.8c0.6,1.9,1.5,3.5,2.8,4.8s3,2.2,5.1,2.8c1.5,0.4,3.4,0.5,5.6,0.4c2.2-0.1,4.8-0.9,7.8-2.2
		c3-1.4,6.4-3.5,10.3-6.4c0.7-0.5,1.3-1,2-1.6c0,1.6,0.3,3.2,0.8,4.8c0.6,1.8,1.9,3.3,3.8,4.6c2.8,1.6,5.9,2.1,9.4,1.4
		s6.6-1.8,9.4-3.2c2.5-1.3,5-3.1,7.4-5.2c2.4-2.1,5-4.7,7.8-7.9c0.6,0.1,1.2,0.3,1.7,0.4c-0.1,1.1,0,2.1,0.2,3.1
		c0.4,2.5,1.4,4.6,2.9,6.5c1.5,1.9,3.4,3.4,5.7,4.6c2.4,1.3,4.9,1.9,7.7,2c3.3,0.2,6.3-0.3,9-1.5c2.7-1.2,5.1-2.9,7.1-5
		c2-2.1,3.7-4.6,5-7.4c1.3-2.9,2.1-5.9,2.4-9.2c0.5-4.1,0.8-8.3,0.9-12.5c0.1-4.2,0.6-8.4,1.6-12.4c0.4-1.7,1.1-3.3,2-4.8
		c0.9-1.5,2.2-2.8,3.8-3.9C222.8,167,223.4,166.7,224.1,166.4z M129.1,174.6c1.8-2.5,3.7-5,5.6-7.5c2.8-3.6,5.8-7.1,9-10.3
		s6.7-6.2,10.5-9c0.5-0.4,1.1-0.8,2-1.3c0.9-0.5,1.7-0.9,2.4-1.2c0.7-0.3,1.3-0.4,1.7-0.4c0.4,0,0.5,0.4,0.2,1.2
		c-0.8,2-1.8,3.7-3,5.3c-1.2,1.5-2.5,3.2-3.8,4.8c-3.3,3.9-6.7,7.5-10.4,10.8c-3.6,3.3-7.4,6.5-11.4,9.6c-1.4,1-2.7,2-4,3
		c-1.3,0.9-2.7,1.8-4,2.8C125.5,179.7,127.3,177.1,129.1,174.6z M158,207.5c-1.9,1.8-3.9,3.5-6.1,5c-0.8,0.6-1.8,1.2-3,1.9
		c-1.1,0.6-2.2,1.1-3.1,1.2c-0.9,0.1-1.5-0.1-2-0.7c-0.5-0.6-0.4-1.9,0.2-3.8c1.1-3.8,2.9-7.6,5.5-11.2c2.7-3.6,5.5-6.9,8.5-10
		c0.2,2.2,0.7,4.3,1.5,6.4c0.8,2.1,2.1,4,3.7,5.6C161.6,203.9,159.8,205.7,158,207.5z M172.7,185.7c-0.4,1.4-0.9,2.8-1.5,4.3
		c-0.6,1.5-1.5,3.1-2.8,4.7c-0.6-1-1-2-1.3-3.2c-0.3-1.2-0.4-2.3-0.4-3.4c0-1.1,0-2.1,0.1-3c0.1-0.9,0.2-1.6,0.4-2.2
		c0.7-0.5,1.5-0.8,2.3-1.2c0.8-0.2,1.5-0.2,2.1-0.1c0.6,0.1,1,0.5,1.2,1.2C173,183.5,173,184.4,172.7,185.7z M203.5,197.1
		c-0.1,1.8-0.3,3.3-0.4,4.6c-0.1,1.3-0.3,2.4-0.5,3.3c-0.2,0.9-0.5,1.7-0.9,2.5c-0.8,2.1-2.3,3.9-4.3,5.6c-2.1,1.7-4.2,2.5-6.4,2.5
		c-2.8,0-5-0.9-6.7-2.7c-1.3-1.5-1.8-3.2-1.6-5.4c3-0.6,5.8-1.9,8.6-3.9c0.8-0.6,1.8-1.4,2.8-2.2c0.5-0.5,0.9-1,1.2-1.5
		c1.1-1.1,2.3-2.3,3.5-3.5c1.7-1.8,3.4-3.8,5.1-5.9C203.7,193.1,203.6,195.3,203.5,197.1z"/>
	<path class="st0" d="M303.5,178.1c1-1.3,2.1-2.5,3.2-3.8c1.1-1.3,2.2-2.5,3.2-3.8s1.9-2.3,2.7-3.2l10.4-0.7c0.8-0.1,1.8-0.1,3-0.1
		c0.7,0,1.3-0.1,1.7-0.4c0.1,0.3,0.2,0.6,0.4,0.9c0.6,1,1.4,1.8,2.5,2.3c1.1,0.5,2,0.4,2.9-0.1c0.9-0.5,1.7-1.1,2.6-1.7l15.6-9.1
		c0.8-0.5,1.8-1.1,3.1-1.7c1.3-0.6,2.1-1.4,2.4-2.5c0.3-1.3,0.2-2.5-0.3-3.6c-0.5-1.2-1.2-2.2-2.3-3c-1-0.7-2-0.9-3-0.7
		c-0.8,0.2-1.5,0.5-2.1,0.9c-0.7,0.4-1.3,0.8-2,1.2c-2.5,1.5-5.2,3.2-7.9,5.1c-2.7,1.8-6.1,4.2-10.1,7.3c0-0.1,0-0.2,0-0.4
		c-0.1-1-0.3-1.9-0.6-2.7c-0.4-0.9-0.9-1.4-1.7-1.7c-0.4-0.2-1.2-0.3-2.5-0.1c-1.3,0.2-2.2,0.3-2.7,0.4c0.8-0.9,1.5-1.6,1.9-2.2
		c0.4-0.6,0.9-1.1,1.4-1.6s1-1,1.5-1.5c0.6-0.5,1.2-1.2,2-2.1c0.6-0.7,1.1-1.3,1.8-1.9s1.3-1.2,2-1.9c0.4-0.5,0.8-1,0.9-1.4
		c0.2-0.4,0.2-1,0.1-1.8c0-0.7-0.1-1.3-0.5-2.1c-0.4-0.8-0.8-1.4-1.4-2c-0.6-0.6-1.3-1.1-2-1.3s-1.4-0.3-2.2-0.1
		c-0.8,0.2-1.5,0.6-2.2,1.3c-0.7,0.7-1.3,1.3-1.9,1.9l-17.1,18.5c-2.3,0.3-4.3,0.6-5.8,0.8c-1.5,0.3-2.7,0.4-3.8,0.6
		c-1.1,0.2-1.9,0.3-2.5,0.4c-0.6,0.1-1.2,0.2-1.8,0.3c-1,0.2-1.9,0.4-2.7,0.5c-0.9,0.1-1.4,0.7-1.7,1.8c-0.2,0.8-0.2,1.8-0.1,3.1
		c0.1,1.3,0.5,2.3,1.2,3c0.4,0.7,1,1,1.7,1c0.7,0,1.3,0.2,1.9,0.7c0.6,0.4,1,1.2,1.2,2.5c-2.6,3.1-5.3,6.3-8.1,9.8s-5.6,7-8.4,10.5
		c-0.1,0.1-0.2,0.2-0.2,0.3c-0.8,0.5-1.5,1.1-2.3,1.8c-2.7,2.5-5.9,3.7-9.8,3.8l2.2-3.9c0.8-1.4,1.5-3.1,2.2-5.1
		c0.6-1.9,1.1-3.9,1.2-5.9c0.1-2-0.1-3.9-0.8-5.7c-0.7-1.8-2-3.3-3.8-4.5c-2.8-1.4-5.9-1.9-9.3-1.5c-3.4,0.4-6.5,1.5-9.3,3.1
		c-5,2.5-9.3,6-13.2,10.4c-3.8,4.5-7.1,9.3-9.8,14.5c-0.8,1.6-1.5,3.3-2.2,5.3c-0.7,1.9-1.1,3.9-1.2,5.9c-0.1,1.9,0.2,3.8,0.8,5.6
		c0.6,1.8,1.9,3.3,3.8,4.6c2.8,1.6,5.9,2.1,9.4,1.4s6.6-1.8,9.4-3.2c2.5-1.3,5-3.1,7.4-5.2c2.4-2.1,5-4.7,7.8-7.9
		c2,0.5,4,0.7,6.2,0.6c-1.6,2.1-3.2,4.1-4.7,6.1c-4.1,5.1-8.1,10.5-12.1,16c-3.9,5.6-7.4,11.7-10.4,18.3c-0.8,1.9-1.5,3.9-2.2,6.1
		c-0.6,2.1-0.7,4.3-0.1,6.4c0.5,1.7,1.4,3,2.8,4c1.4,0.9,3,1.5,4.6,1.7c1.5,0.1,3.1-0.1,4.8-0.7c1.7-0.6,3.4-1.5,5-2.6
		c1.7-1.2,3.3-2.4,4.8-3.8c1.5-1.4,2.9-2.8,4.2-4.1c6.2-6.5,11.8-13.6,16.8-21.5c5-7.9,9.6-16.1,13.7-24.8c2.1-4.3,3.9-8.8,5.2-13.5
		c1.3-4.7,2.2-9.5,2.7-14.4C301.6,180.4,302.5,179.4,303.5,178.1z M245.5,207.5c-1.9,1.8-3.9,3.5-6.1,5c-0.8,0.6-1.8,1.2-3,1.9
		c-1.1,0.6-2.2,1.1-3.1,1.2c-0.9,0.1-1.5-0.1-2-0.7c-0.5-0.6-0.4-1.9,0.2-3.8c1-3.8,2.8-7.6,5.5-11.2c2.7-3.6,5.5-6.9,8.5-10
		c0.2,2.2,0.7,4.3,1.5,6.4c0.8,2.1,2.1,4,3.7,5.6C249.1,203.9,247.3,205.7,245.5,207.5z M260.1,185.7c-0.4,1.4-0.9,2.8-1.5,4.3
		c-0.6,1.5-1.5,3.1-2.8,4.7c-0.6-1-1-2-1.3-3.2c-0.3-1.2-0.4-2.3-0.4-3.4c0-1.1,0-2.1,0.1-3c0.1-0.9,0.2-1.6,0.4-2.2
		c0.8-0.5,1.6-0.8,2.3-1.2c0.8-0.2,1.5-0.2,2.1-0.1c0.6,0.1,1,0.5,1.2,1.2S260.4,184.4,260.1,185.7z M283.8,204.2
		c-0.7,1.6-1.5,3.2-2.4,4.7c-2,3.9-4.1,7.8-6.4,11.8c-2.3,4-4.7,8-7.2,11.9s-5.3,7.6-8.2,11.3c-3,3.6-6.1,7-9.5,10.1
		c-2.7,2.5-4.2,3.7-4.8,3.5c-0.4-0.2-0.2-1.5,0.7-3.8c1.7-4,3.8-7.8,6.4-11.4c2.6-3.6,5.2-7.1,7.7-10.6c2.8-3.6,5.6-7.2,8.5-10.8
		c2.9-3.5,5.8-7.1,8.7-10.8l8.7-10.7C285.3,201,284.5,202.6,283.8,204.2z"/>
	<path class="st0" d="M391.2,194.5c-1.3-1-2.8-1.2-4.3-0.6c-0.8,0.4-1.5,1-2.1,1.7c-0.6,0.8-1.2,1.4-1.8,2l-12,12
		c-1.1,1.1-2.1,2.1-3.2,3c-1.1,0.9-2.3,1.7-3.5,2.4c-1.1,0.6-1.8,0.7-2.3,0.5s-0.8-0.6-0.8-1.2c0-0.6,0.1-1.3,0.3-2.2
		c0.3-0.9,0.6-1.7,1.1-2.5c1.5-2.8,3.2-5.5,5.3-8.2c2.1-2.6,4.7-5.8,7.9-9.6c1.4-1.7,2.8-3.2,4.2-4.6c1.5-1.4,2.8-2.9,4.2-4.3
		c1-1.1,1.4-2.3,1.3-3.7c-0.1-1.4-0.6-2.6-1.7-3.7c-1.2-1.1-2.5-1.7-3.9-1.7c-0.7,0.1-1.6,0.5-2.5,1.2s-1.6,1.4-2.2,2.2
		c-1.8-2.6-4.6-4-8.5-4.3c-2.5-0.2-4.9,0.1-7.3,0.9c-2.4,0.9-4.7,1.8-6.9,3c-4.9,2.8-9.4,6.3-13.4,10.4c-2.5,2.5-4.7,5.2-6.9,8
		c-0.2,0.1-0.3,0.3-0.4,0.5c-0.7,0.7-1.3,1.4-2,2.1c-3.4,3.4-5.9,5.9-7.6,7.6s-3.3,3.1-4.6,4.4c-2.6,2.3-4.5,3.7-5.9,4.3
		c-1.4,0.6-2.2,0.5-2.5-0.3s-0.1-2.1,0.7-3.9s2.1-4,3.9-6.5c2.6-3.7,5.4-7.1,8.4-10.4c3-3.3,6.1-6.6,9.3-10c0.5-0.6,0.9-1.1,1.1-1.5
		c0.3-0.4,0.4-1,0.4-1.8c-0.2-1.3-0.7-2.6-1.7-3.9s-2.3-1.9-3.9-1.9c-0.9,0.1-1.8,0.5-2.5,1.2s-1.4,1.3-2.1,2
		c-1.5,1.5-3,3.1-4.4,4.6c-1.4,1.5-2.8,3.2-4.1,4.8c-2.8,3.3-5.6,6.7-8.3,10.2s-4.7,7.4-6.1,11.5c-0.6,1.8-1.1,3.8-1.2,5.8
		c-0.1,2,0.3,3.9,1.4,5.6c0.9,1.6,2.2,2.8,3.8,3.5c1.6,0.7,3.4,1,5.2,0.9c2.6-0.1,4.8-0.7,7.2-2.2c2.4-1.5,5-3.6,7.9-6.4
		c0.1-0.1,0.1-0.1,0.2-0.2c0.1,1,0.3,2,0.6,2.9c0.7,1.9,2,3.4,4,4.5c2.2,1.2,4.5,1.6,7,1.3c2.5-0.3,4.9-1,7.2-2.3
		c1.5-0.8,2.9-1.7,4.2-2.7s2.7-2,4-3.2c0.2,1.6,0.6,2.8,1.2,3.8c0.9,1.6,2.3,2.8,4,3.6c1.8,0.8,3.8,1.1,6.1,0.9
		c3.2-0.3,5.9-1.4,8.3-3.3c2.4-1.9,4.7-3.8,6.7-5.7c1.3-1.3,2.8-2.9,4.6-4.6c1.8-1.7,4.3-4.3,7.7-7.8c0.5-0.7,1.1-1.3,1.7-1.9
		c0.6-0.6,1-1.3,1.2-2.3C393.1,196.8,392.5,195.5,391.2,194.5z M358.3,196.7c-3.4,4.1-7.3,8-11.4,11.8c-1.4,1.3-3.1,2.7-5.1,4.3
		s-4.1,2.5-6.3,2.7c-0.8,0-1.2-0.3-1.3-0.9c-0.1-0.6-0.1-1.2,0.1-2c0.2-0.8,0.5-1.5,0.8-2.2c0.3-0.7,0.6-1.2,0.8-1.5
		c1.8-3.6,4.4-7.4,7.9-11.1s6.9-7,10.4-9.8c0.5-0.4,1.5-1.2,3.1-2.3c1.7-1.2,3.4-2.1,5.1-2.9c1.8-0.8,3.3-1.2,4.6-1.2
		c1.3,0,1.9,1,1.7,2.9C365.2,188.5,361.7,192.6,358.3,196.7z"/>
</g>
</svg>
