<?xml version="1.0" encoding="utf-8"?>
<!-- Generator: Adobe Illustrator 15.0.0, SVG Export Plug-In . SVG Version: 6.00 Build 0)  -->
<!DOCTYPE svg PUBLIC "-//W3C//DTD SVG 1.1//EN" "http://www.w3.org/Graphics/SVG/1.1/DTD/svg11.dtd">
<svg version="1.1" id="Layer_1" xmlns="http://www.w3.org/2000/svg" xmlns:xlink="http://www.w3.org/1999/xlink" x="0px" y="0px"
	 width="200px" height="200px" viewBox="0 0 200 200" enable-background="new 0 0 200 200" xml:space="preserve">
<g>
	<path fill="#F5841F" d="M34.25,93.606c0.606-0.04,1.151-0.082,1.636-0.122c0.323-0.04,0.516-0.091,0.576-0.152
		c0.061-0.061,0.091-0.191,0.091-0.394c0-0.808-0.253-1.474-0.758-2c-0.506-0.524-1.182-0.938-2.031-1.243
		c-0.848-0.302-1.818-0.515-2.909-0.637c-1.091-0.121-2.223-0.181-3.394-0.181c-1.576,0-2.98,0.061-4.212,0.181
		c-1.233,0.122-1.909,0.183-2.03,0.183c-0.283,0-0.424-0.061-0.424-0.183c0-0.08,0.081-0.201,0.242-0.363
		c0.081-0.081,0.161-0.141,0.243-0.183l7.697-7.091c0.524-0.323,0.788-0.667,0.788-1.03c0-0.484-0.142-0.758-0.424-0.819
		c-0.283-0.06-0.424-0.191-0.424-0.394c0-0.162,0.121-0.251,0.364-0.272c0.242-0.02,0.444-0.03,0.605-0.03
		c1.333-0.121,2.849-0.243,4.546-0.364c1.697-0.122,3.434-0.221,5.212-0.303c1.777-0.081,3.525-0.142,5.242-0.182
		s3.263-0.07,4.637-0.091c1.374-0.02,2.494-0.04,3.364-0.061c0.868-0.019,1.343-0.03,1.424-0.03c0.565,0,0.919-0.04,1.061-0.121
		c0.141-0.081,0.212-0.221,0.212-0.424c0-0.08-0.102-0.232-0.303-0.454c-0.203-0.223-0.435-0.454-0.697-0.697
		c-0.263-0.243-0.516-0.475-0.758-0.698c-0.242-0.221-0.424-0.372-0.545-0.454c-1.576-1.374-3.728-2.303-6.455-2.787
		c-2.727-0.485-5.667-0.728-8.818-0.728c-2.667,0-5.324,0.122-7.97,0.363c-2.647,0.243-5.041,0.526-7.182,0.849
		c-2.505,0.363-4.889,0.768-7.152,1.212c-0.242,0.082-0.465,0.122-0.667,0.122c-0.082,0-0.122-0.021-0.122-0.061
		c0-0.081,0.141-0.222,0.425-0.424c0.282-0.203,0.424-0.384,0.424-0.545c0-0.161-0.132-0.252-0.395-0.273
		c-0.263-0.02-0.475-0.03-0.636-0.03c-0.283,0.082-1.011,0.263-2.182,0.545c-1.172,0.283-2.415,0.627-3.727,1.03
		c-1.314,0.405-2.485,0.87-3.516,1.395c-1.03,0.525-1.545,1.071-1.545,1.636c0,0.728,0.151,1.314,0.455,1.757
		c0.303,0.446,0.667,0.789,1.091,1.031c0.424,0.242,0.848,0.404,1.273,0.485c0.424,0.082,0.758,0.122,1,0.122
		c1.736,0,3.616-0.07,5.636-0.212c2.02-0.142,3.899-0.313,5.637-0.515c2.02-0.202,4.02-0.444,6-0.728
		c0.161-0.04,0.343-0.061,0.546-0.061c0.282,0,0.424,0.061,0.424,0.183c0,0.081-0.03,0.131-0.091,0.151s-0.132,0.071-0.212,0.151
		c-0.121,0.082-0.223,0.142-0.303,0.182c-0.203,0.122-0.515,0.333-0.939,0.637c-0.424,0.302-0.92,0.687-1.485,1.151
		c-0.566,0.464-1.162,0.969-1.788,1.514c-0.626,0.545-1.263,1.082-1.909,1.606c-1.495,1.294-3.132,2.728-4.909,4.303
		c-0.646,0.648-1.101,0.814-1.363,0.955C12.562,90.157,12.39,90,12.31,90h-0.061c-0.162,0-0.303,0.288-0.424,0.288
		s-0.242,0.135-0.363,0.175c-1.333,0.241-2.394,0.491-3.182,0.632s-1.384,0.321-1.788,0.482c-0.404,0.161-0.657,0.377-0.758,0.62
		c-0.101,0.243-0.151,0.574-0.151,0.977c0,0.122,0.07,0.338,0.212,0.64c0.141,0.304,0.303,0.629,0.485,0.973
		c0.182,0.343,0.353,0.666,0.515,0.969c0.161,0.303,0.243,0.537,0.243,0.698c0,0.082-0.041,0.122-0.122,0.122
		c-1.415,1.454-2.545,2.849-3.394,4.181c-0.849,1.333-1.515,2.506-2,3.517c-0.565,1.172-0.97,2.263-1.212,3.271
		c-0.121,0.404-0.202,0.758-0.242,1.061c-0.04,0.304-0.061,0.556-0.061,0.758c0,0.323,0.172,0.656,0.516,1s0.748,0.666,1.211,0.971
		c0.465,0.302,0.9,0.545,1.304,0.727c0.404,0.182,0.667,0.272,0.788,0.272c0.041,0,0.082-0.101,0.121-0.303
		c0.041-0.202,0.081-0.425,0.122-0.666c0.039-0.243,0.08-0.466,0.121-0.667c0.04-0.203,0.08-0.304,0.121-0.304
		c0.121-0.283,0.343-0.696,0.667-1.242c0.323-0.546,0.697-1.141,1.122-1.788c0.424-0.646,0.888-1.333,1.394-2.061
		c0.505-0.728,1.021-1.455,1.546-2.182c1.212-1.656,2.565-3.475,4.061-5.455c0.323-0.364,0.728-0.667,1.212-0.91
		c0.484-0.241,1.303-0.474,2.455-0.696c1.151-0.221,2.767-0.474,4.848-0.757c2.081-0.283,4.899-0.687,8.455-1.212
		c0.808-0.122,1.576-0.213,2.303-0.274C33.098,93.757,33.725,93.687,34.25,93.606z"/>
	<path fill="#F5841F" d="M52.613,78.635c-0.082,0-0.162-0.02-0.243-0.061c-0.121,0-0.222-0.02-0.302-0.061
		c-0.405,0-0.93,0.152-1.576,0.454c-0.646,0.304-1.283,0.698-1.909,1.182c-0.627,0.485-1.162,1.052-1.606,1.698
		c-0.445,0.647-0.667,1.293-0.667,1.939c0,0.526,0.182,0.889,0.546,1.09c0.161,0.122,0.342,0.204,0.545,0.244
		c0.808,0,1.556-0.183,2.243-0.545c0.687-0.364,1.312-0.768,1.879-1.212c0.646-0.524,1.232-1.13,1.757-1.818
		c0.202-0.201,0.323-0.393,0.364-0.576c0.04-0.183,0.061-0.374,0.061-0.576c0-0.243-0.061-0.475-0.182-0.697
		c-0.121-0.222-0.344-0.535-0.667-0.939C52.774,78.675,52.694,78.635,52.613,78.635z"/>
	<path fill="#F5841F" d="M161.4,82.696c-0.121,0.162-0.233,0.324-0.334,0.485c-0.101,0.162-0.15,0.344-0.15,0.545
		c0,0.204,0.068,0.405,0.211,0.606c0.141,0.203,0.375,0.304,0.697,0.304c0.162,0,0.737-0.101,1.728-0.304
		c0.99-0.202,2.12-0.545,3.394-1.03c1.272-0.485,2.536-1.161,3.789-2.03c1.252-0.869,2.221-1.97,2.908-3.303
		c0-0.122,0.021-0.262,0.062-0.424c0-0.122,0.009-0.262,0.03-0.425c0.019-0.161,0.03-0.343,0.03-0.546
		c0-0.281-0.042-0.625-0.122-1.03c-0.081-0.403-0.222-0.767-0.424-1.09c-0.203-0.323-0.465-0.606-0.788-0.85
		c-0.323-0.241-0.728-0.363-1.212-0.363c-0.203,0-0.405,0.061-0.606,0.183c-0.201,0.121-0.424,0.343-0.667,0.666
		c-0.444,0.849-1.029,1.738-1.758,2.667c-0.646,0.81-1.475,1.687-2.485,2.636c-1.009,0.95-2.263,1.87-3.756,2.758
		C161.743,82.353,161.561,82.534,161.4,82.696z"/>
	<path fill="#F5841F" d="M199.915,90.817c-0.059-0.121-0.131-0.221-0.211-0.302c-0.082-0.122-0.161-0.222-0.243-0.304
		c-4,2.951-7.667,5.546-10.999,7.789c-3.335,2.243-6.152,3.91-8.456,5.001c0.04-0.524,0.232-1.091,0.576-1.697
		c0.342-0.605,0.858-1.343,1.545-2.212c0.688-0.87,1.547-1.91,2.576-3.121c1.03-1.212,2.252-2.687,3.667-4.425
		c0.363-0.323,0.595-0.606,0.697-0.848c0.101-0.242,0.15-0.444,0.15-0.606c0-0.323-0.131-0.596-0.394-0.818
		c-0.262-0.222-0.496-0.354-0.697-0.394c-0.241-0.282-0.424-0.474-0.545-0.576c-0.122-0.1-0.283-0.151-0.484-0.151
		c-0.162,0-0.313,0.031-0.454,0.091c-0.143,0.06-0.274,0.131-0.396,0.211c-0.161,0.122-0.283,0.223-0.363,0.304
		c-0.203-0.445-0.444-0.829-0.728-1.152c-0.283-0.323-0.646-0.485-1.091-0.485c-1.413,0-2.96,0.354-4.636,1.062
		c-1.678,0.707-3.354,1.636-5.031,2.787c-1.676,1.151-3.293,2.445-4.848,3.879c-0.393,0.362-0.774,0.724-1.146,1.085
		c-2.593,1.653-4.93,3.102-7.006,4.34c-2.466,1.454-4.809,2.788-7.03,4.001c-0.688,0.241-1.172,0.362-1.455,0.362
		c-0.484,0-0.728-0.221-0.728-0.667c0-0.281,0.082-0.625,0.243-1.029c0.08-0.162,0.161-0.323,0.241-0.484
		c0.404-1.213,1.071-2.495,2.001-3.85c0.929-1.353,1.879-2.615,2.848-3.788c1.131-1.333,2.364-2.687,3.698-4.061
		c0.283-0.282,0.424-0.504,0.424-0.667c0-0.081-0.021-0.151-0.062-0.212c-0.04-0.061-0.079-0.131-0.119-0.212
		c-0.082-0.04-0.143-0.08-0.183-0.121c-0.363-0.161-0.84-0.282-1.425-0.364c-0.586-0.08-1.021-0.122-1.304-0.122
		c-0.241,0-0.484,0.042-0.726,0.122c-0.243,0.082-0.466,0.162-0.667,0.243c-0.243,0.121-0.466,0.223-0.667,0.302
		c-0.203,0.082-0.576,0.415-1.121,1c-0.546,0.586-1.173,1.314-1.879,2.182c-0.153,0.188-0.312,0.399-0.469,0.596
		c-1.17,0.814-2.328,1.6-3.471,2.344c-2.606,1.697-4.961,3.172-7.061,4.424c-2.466,1.454-4.788,2.788-6.97,4.001
		c-0.203,0.08-0.386,0.131-0.547,0.15c-0.161,0.021-0.283,0.029-0.363,0.029c-0.081,0-0.142-0.019-0.182-0.06l29.576-32.304
		c0.486-0.566,0.819-1.03,1.001-1.395c0.181-0.363,0.272-0.686,0.272-0.969c0-0.404-0.15-0.717-0.454-0.939
		c-0.303-0.222-0.646-0.383-1.03-0.486c-0.386-0.1-0.789-0.16-1.212-0.181c-0.424-0.02-0.759-0.05-1-0.09
		c-0.364,0-0.667,0.061-0.91,0.182c-0.241,0.121-0.424,0.263-0.545,0.424c-0.162,0.162-0.283,0.363-0.363,0.606l-21.936,24.832
		c-0.306,0.21-0.612,0.422-0.912,0.623c-0.77,0.525-1.568,1.03-2.395,1.514c-0.828,0.486-1.617,0.92-2.363,1.304
		c-0.749,0.385-1.456,0.697-2.123,0.939s-1.242,0.364-1.727,0.364c1.051-1.576,1.889-3.131,2.516-4.667
		c0.625-1.535,0.938-2.869,0.938-4c0-0.282-0.052-0.535-0.15-0.757c-0.103-0.222-0.213-0.434-0.334-0.636
		c-0.162-0.202-0.323-0.384-0.484-0.545c-0.323-0.323-0.618-0.536-0.88-0.637c-0.263-0.101-0.494-0.152-0.695-0.152
		c-0.447,0.041-0.739,0.143-0.88,0.303c-0.143,0.162-0.354,0.263-0.637,0.303c-0.323-0.04-0.515-0.152-0.576-0.333
		c-0.061-0.181-0.353-0.272-0.877-0.272c-2.507,0.93-4.758,2.152-6.759,3.667c-1.526,1.154-2.871,2.358-4.044,3.607
		c-0.933,0.654-1.817,1.261-2.652,1.817c-0.847,0.566-1.718,1.111-2.604,1.636c-0.89,0.525-1.9,1.072-3.031,1.636
		c-0.243,0.122-0.404,0.182-0.484,0.182c-0.081,0-0.121-0.04-0.121-0.122c0-0.161,0.141-0.545,0.424-1.151s0.595-1.424,0.938-2.455
		c0.344-1.03,0.657-2.303,0.94-3.817c0.281-1.516,0.424-3.304,0.424-5.364c0-0.243-0.192-0.455-0.576-0.637
		c-0.384-0.183-0.818-0.344-1.303-0.485c-0.485-0.142-0.96-0.242-1.424-0.303c-0.465-0.061-0.758-0.091-0.88-0.091
		c-0.201,0-0.384,0.061-0.545,0.183s-0.323,0.263-0.484,0.424c-0.162,0.162-0.344,0.364-0.546,0.606
		c-1.373,1.052-2.586,2.031-3.637,2.939c-1.051,0.91-2.03,1.778-2.939,2.607c-0.909,0.828-1.818,1.605-2.728,2.333
		c-0.457,0.366-0.932,0.731-1.424,1.097c-0.255,0.157-0.495,0.326-0.757,0.479c-0.829,0.486-1.617,0.92-2.364,1.304
		c-0.748,0.385-1.455,0.697-2.122,0.939c-0.667,0.242-1.243,0.364-1.727,0.364c1.05-1.576,1.888-3.131,2.515-4.667
		c0.625-1.535,0.939-2.869,0.939-4c0-0.282-0.051-0.535-0.151-0.757c-0.101-0.222-0.212-0.434-0.333-0.636
		c-0.162-0.202-0.324-0.384-0.485-0.545c-0.324-0.323-0.617-0.536-0.879-0.637c-0.263-0.101-0.496-0.152-0.697-0.152
		c-0.445,0.041-0.738,0.143-0.879,0.303c-0.142,0.162-0.354,0.263-0.636,0.303c-0.324-0.04-0.516-0.152-0.576-0.333
		c-0.061-0.181-0.354-0.272-0.879-0.272c-2.506,0.93-4.757,2.152-6.758,3.667c-2,1.515-3.697,3.112-5.091,4.788
		c-0.441,0.53-0.837,1.058-1.213,1.584c-1.285,0.855-2.586,1.701-3.908,2.538c-1.374,0.869-2.667,1.636-3.878,2.303
		s-2.303,1.203-3.273,1.605c-0.97,0.404-1.738,0.606-2.303,0.606c-0.283,0-0.525-0.121-0.727-0.363
		c-0.203-0.243-0.303-0.748-0.303-1.516c0-0.808,0.282-1.686,0.849-2.636c0.565-0.949,1.636-1.93,3.212-2.939
		c4.403-2.829,8.161-5.505,11.273-8.032c3.111-2.524,5.657-4.777,7.636-6.757c1.979-1.979,3.455-3.606,4.424-4.879
		c0.97-1.273,1.536-2.091,1.697-2.455c0.161-0.323,0.242-0.646,0.242-0.969c-0.202-0.444-0.424-0.868-0.666-1.273
		c-0.203-0.323-0.455-0.616-0.758-0.88c-0.303-0.262-0.637-0.393-1-0.393c-0.203,0-0.405,0.021-0.606,0.061
		c-0.203,0.04-0.385,0.082-0.546,0.122c-0.162,0.04-0.343,0.081-0.545,0.121c-3.475,1.375-6.627,3-9.455,4.878
		c-2.829,1.879-5.354,3.859-7.576,5.939c-2.223,2.083-4.162,4.182-5.818,6.304c-1.657,2.121-3.03,4.101-4.121,5.94
		c-0.098,0.164-0.181,0.318-0.274,0.479c-0.312,0.205-0.626,0.415-0.937,0.612c-2.627,1.677-4.991,3.142-7.091,4.394
		c-2.465,1.454-4.809,2.788-7.031,4.001c-0.687,0.241-1.172,0.362-1.454,0.362c-0.485,0-0.728-0.221-0.728-0.667
		c0-0.281,0.081-0.625,0.242-1.029c0.081-0.162,0.161-0.323,0.243-0.484c0.403-1.213,1.07-2.495,2-3.85
		c0.929-1.353,1.879-2.615,2.849-3.788c1.131-1.333,2.364-2.687,3.697-4.061c0.282-0.282,0.424-0.504,0.424-0.667
		c0-0.081-0.021-0.151-0.06-0.212c-0.041-0.061-0.082-0.131-0.122-0.212c-0.081-0.04-0.142-0.08-0.182-0.121
		c-0.364-0.161-0.839-0.282-1.424-0.364c-0.586-0.08-1.021-0.122-1.303-0.122c-0.242,0-0.485,0.042-0.727,0.122
		c-0.242,0.082-0.465,0.162-0.667,0.243c-0.242,0.121-0.464,0.223-0.667,0.302c-0.203,0.082-0.576,0.415-1.122,1
		c-0.545,0.586-1.172,1.314-1.878,2.182c-0.708,0.868-1.445,1.839-2.212,2.909c-0.768,1.071-1.465,2.151-2.091,3.242
		c-0.627,1.091-1.142,2.131-1.545,3.121c-0.405,0.991-0.606,1.829-0.606,2.516c0,1.038,0.141,1.876,0.424,2.515
		c0.282,0.639,0.656,1.138,1.121,1.497c0.464,0.359,0.97,0.599,1.516,0.719c0.545,0.119,1.081,0.18,1.606,0.18
		c0.323,0,0.626-0.012,0.909-0.03c0.282-0.021,0.525-0.05,0.727-0.089c0.242-0.041,0.485-0.102,0.728-0.181
		c0.767-0.24,1.676-0.659,2.728-1.258c1.05-0.599,2.182-1.316,3.394-2.155c1.212-0.838,2.454-1.752,3.727-2.742
		c1.016-0.79,1.998-1.592,2.975-2.395c-0.262,0.829-0.4,1.483-0.4,1.939c0,1.616,0.141,2.879,0.424,3.788
		c0.282,0.909,0.656,1.597,1.121,2.061c0.464,0.465,0.97,0.758,1.515,0.879c0.545,0.122,1.101,0.183,1.667,0.183
		c0.323,0,0.626-0.012,0.909-0.03c0.282-0.021,0.524-0.052,0.727-0.091c0.242-0.041,0.485-0.103,0.728-0.183
		c0.767-0.242,1.676-0.667,2.727-1.273c1.05-0.605,2.182-1.333,3.395-2.181c1.057-0.74,2.143-1.545,3.247-2.393
		c-0.134,0.59-0.217,1.15-0.217,1.664c0,0.971,0.162,1.748,0.485,2.334c0.324,0.587,0.718,1.041,1.182,1.364
		c0.464,0.322,0.959,0.545,1.485,0.667c0.525,0.121,1.01,0.201,1.455,0.242c0.888,0,1.818-0.212,2.788-0.637s1.97-0.989,3-1.697
		c1.03-0.706,2.05-1.545,3.061-2.515c1.009-0.971,1.979-2.001,2.909-3.092c0.202,0.041,0.384,0.07,0.546,0.092
		c0.161,0.021,0.343,0.03,0.545,0.03c1.292,0,2.697-0.374,4.212-1.122c1.223-0.604,2.404-1.325,3.561-2.111
		c0.162-0.063,0.318-0.136,0.469-0.222c0.97-0.767,1.939-1.515,2.909-2.243c0.808-0.646,1.667-1.312,2.576-2
		c0.909-0.687,1.728-1.312,2.456-1.878c0.323-0.243,0.616-0.414,0.878-0.515c0.263-0.101,0.476-0.152,0.637-0.152
		c0.243,0,0.402,0.051,0.484,0.152c0.082,0.101,0.122,0.192,0.122,0.271c0,0.606-0.143,1.576-0.424,2.909
		c-0.283,1.333-0.728,2.677-1.334,4.031s-1.375,2.536-2.303,3.545c-0.93,1.01-2.021,1.516-3.273,1.516
		c-0.889,0-1.597-0.152-2.122-0.454c-0.525-0.305-0.93-0.657-1.212-1.062c-0.323-0.443-0.545-0.948-0.666-1.515
		c-0.404,0-0.718,0.07-0.94,0.213c-0.222,0.141-0.384,0.302-0.484,0.484c-0.102,0.181-0.172,0.435-0.212,0.757
		c0,2.222,0.475,3.92,1.424,5.091c0.949,1.172,2.373,1.758,4.273,1.758c1.131,0,2.495-0.394,4.09-1.182
		c1.597-0.788,3.263-1.777,5.002-2.97c1.736-1.191,3.484-2.474,5.242-3.849c0.298-0.232,0.585-0.461,0.874-0.689
		c-0.026,0.058-0.061,0.116-0.088,0.174c-0.746,1.637-1.121,3.06-1.121,4.272c0,0.971,0.162,1.748,0.484,2.334
		c0.325,0.587,0.719,1.041,1.183,1.364c0.463,0.322,0.959,0.545,1.485,0.667c0.524,0.121,1.009,0.201,1.454,0.242
		c0.889,0,1.818-0.212,2.787-0.637c0.971-0.425,1.971-0.989,3-1.697c1.032-0.706,2.05-1.545,3.062-2.515
		c1.011-0.971,1.979-2.001,2.908-3.092c0.202,0.041,0.384,0.07,0.546,0.092c0.161,0.021,0.344,0.03,0.545,0.03
		c1.294,0,2.698-0.374,4.213-1.122c0.109-0.054,0.214-0.122,0.322-0.177l-5.323,6.026c-2.465,2.787-4.424,5.252-5.879,7.394
		c-1.454,2.141-2.554,4.01-3.303,5.606c-0.746,1.596-1.232,2.959-1.455,4.091c-0.221,1.131-0.333,2.061-0.333,2.788
		c0.323,2.062,0.829,3.484,1.515,4.272c0.688,0.788,1.456,1.183,2.303,1.183c0.85,0,1.818-0.304,2.909-0.909
		c1.093-0.606,2.224-1.415,3.396-2.425s2.324-2.161,3.454-3.454c1.133-1.294,2.142-2.627,3.031-4.001
		c0.887-1.374,1.605-2.727,2.15-4.061s0.819-2.546,0.819-3.637c0-0.768-0.062-1.404-0.183-1.909
		c-0.122-0.506-0.253-0.919-0.394-1.242c-0.143-0.323-0.273-0.586-0.396-0.787c-0.119-0.203-0.18-0.364-0.18-0.485
		c1.09-0.242,2.272-0.666,3.545-1.272c1.273-0.606,2.554-1.323,3.848-2.152c1.294-0.827,2.596-1.737,3.91-2.727
		c0.983-0.742,1.915-1.478,2.82-2.208c-0.249,0.504-0.474,0.999-0.669,1.479c-0.405,0.991-0.606,1.829-0.606,2.516
		c0,1.038,0.141,1.876,0.424,2.515s0.657,1.138,1.121,1.497c0.466,0.359,0.971,0.599,1.517,0.719c0.545,0.119,1.079,0.18,1.605,0.18
		c0.322,0,0.625-0.012,0.91-0.03c0.281-0.021,0.524-0.05,0.726-0.089c0.243-0.041,0.484-0.102,0.728-0.181
		c0.768-0.24,1.676-0.659,2.727-1.258s2.184-1.316,3.396-2.155c0.499-0.345,1.005-0.71,1.515-1.08
		c-0.199,0.548-0.305,1.037-0.305,1.458c0,0.769,0.143,1.364,0.426,1.788c0.283,0.425,0.586,0.759,0.908,1.001
		c0.405,0.282,0.85,0.485,1.334,0.605c1.051,0,2.191-0.394,3.424-1.182c1.233-0.787,2.415-1.646,3.546-2.575
		c1.292-1.091,2.606-2.343,3.938-3.759c0.162-0.16,0.283-0.241,0.365-0.241c0.04,0,0.061,0.06,0.061,0.181
		c0,0.122-0.03,0.334-0.091,0.637c-0.062,0.304-0.122,0.647-0.183,1.03c-0.061,0.385-0.112,0.778-0.152,1.183
		c-0.04,0.403-0.059,0.747-0.059,1.03c0,1.293,0.171,2.172,0.515,2.636c0.342,0.464,0.857,0.697,1.545,0.697
		c0.403,0,1.039-0.242,1.909-0.727c0.869-0.486,1.868-1.122,3.001-1.91c1.13-0.787,2.352-1.696,3.667-2.728
		c1.311-1.029,2.614-2.069,3.908-3.121c3.07-2.505,6.403-5.333,10-8.485c0.365-0.323,0.545-0.687,0.545-1.092
		C200.006,91.081,199.976,90.938,199.915,90.817z M62.916,91.363c0.646-0.929,1.637-2.101,2.97-3.516
		c1.333-1.414,2.767-2.837,4.303-4.272c1.535-1.434,3.05-2.789,4.545-4.061c1.495-1.273,2.767-2.252,3.818-2.94
		c0.121-0.08,0.262-0.16,0.424-0.241c0.323-0.162,0.525-0.243,0.606-0.243c0.04,0.041,0.061,0.082,0.061,0.122
		c0,0.162-0.364,0.667-1.091,1.515c-0.727,0.849-1.657,1.848-2.788,3c-1.131,1.152-2.374,2.394-3.727,3.728
		c-1.354,1.333-2.657,2.556-3.91,3.667s-2.364,2.03-3.333,2.757c-0.97,0.728-1.637,1.092-2,1.092c-0.081,0-0.121-0.04-0.121-0.122
		C62.673,91.727,62.753,91.565,62.916,91.363z M79.491,101.151c-0.545,0.667-1.212,1.354-2,2.061
		c-0.788,0.708-1.617,1.323-2.485,1.848c-0.87,0.526-1.667,0.789-2.394,0.789c-0.203,0-0.303-0.162-0.303-0.485
		c0-0.08,0.091-0.424,0.272-1.03c0.182-0.606,0.495-1.363,0.94-2.272c0.444-0.909,1.03-1.91,1.757-3
		c0.728-1.091,1.616-2.121,2.667-3.09c0.039,0,0.13,0.151,0.272,0.454c0.141,0.303,0.323,0.667,0.545,1.091
		c0.222,0.424,0.464,0.848,0.727,1.273c0.263,0.424,0.555,0.757,0.879,1C80.33,100.03,80.037,100.484,79.491,101.151z
		 M84.613,94.091c-0.364,0.688-0.757,1.302-1.182,1.849c-0.424,0.545-0.839,0.817-1.243,0.817c-0.121,0-0.303-0.181-0.545-0.545
		c-0.243-0.363-0.364-0.606-0.364-0.727c0-0.242,0.191-0.616,0.576-1.122c0.384-0.503,0.828-1,1.333-1.484
		c0.505-0.484,1-0.919,1.485-1.304c0.485-0.384,0.828-0.576,1.03-0.576c0.081,0,0.122,0.041,0.122,0.122
		c0,0.121-0.112,0.475-0.333,1.061C85.269,92.767,84.977,93.404,84.613,94.091z M121.977,101.151
		c-0.546,0.667-1.213,1.354-2.001,2.061c-0.787,0.708-1.617,1.323-2.485,1.848c-0.868,0.526-1.666,0.789-2.395,0.789
		c-0.201,0-0.302-0.162-0.302-0.485c0-0.08,0.092-0.424,0.271-1.03c0.183-0.606,0.496-1.363,0.94-2.272
		c0.445-0.909,1.03-1.91,1.758-3c0.728-1.091,1.615-2.121,2.666-3.09c0.04,0,0.131,0.151,0.273,0.454
		c0.141,0.303,0.323,0.667,0.546,1.091c0.222,0.424,0.463,0.848,0.728,1.273c0.262,0.424,0.555,0.757,0.878,1
		C122.814,100.03,122.521,100.484,121.977,101.151z M127.097,94.091c-0.362,0.688-0.758,1.302-1.182,1.849
		c-0.424,0.545-0.838,0.817-1.242,0.817c-0.122,0-0.303-0.181-0.546-0.545c-0.241-0.363-0.362-0.606-0.362-0.727
		c0-0.242,0.189-0.616,0.575-1.122c0.384-0.503,0.827-1,1.334-1.484c0.504-0.484,0.999-0.919,1.484-1.304
		c0.484-0.384,0.828-0.576,1.029-0.576c0.082,0,0.122,0.041,0.122,0.122c0,0.121-0.112,0.475-0.333,1.061
		C127.755,92.767,127.462,93.404,127.097,94.091z M132.188,113.363c-0.484,1.051-1.121,2.172-1.91,3.364
		c-0.786,1.191-1.666,2.374-2.635,3.546c-0.971,1.171-1.929,2.231-2.879,3.181c-0.95,0.95-1.858,1.718-2.729,2.304
		c-0.868,0.586-1.565,0.879-2.09,0.879c-0.243,0-0.365-0.121-0.365-0.363c0-0.163,0.265-0.849,0.789-2.062
		c0.526-1.212,1.264-2.666,2.211-4.363c0.95-1.697,2.083-3.495,3.396-5.395c1.313-1.898,2.778-3.637,4.394-5.212
		c0.081-0.081,0.203-0.182,0.364-0.303c0.12-0.082,0.253-0.151,0.394-0.213c0.143-0.061,0.313-0.091,0.515-0.091
		c0.202,0,0.464,0.131,0.789,0.396c0.323,0.262,0.484,0.816,0.484,1.666C132.915,111.424,132.672,112.312,132.188,113.363z
		 M176.793,97.484c-0.889,0.728-1.767,1.456-2.635,2.183c-0.87,0.727-1.678,1.363-2.425,1.909c-0.749,0.545-1.385,0.99-1.909,1.334
		s-0.89,0.515-1.091,0.515c-0.082,0-0.122-0.04-0.122-0.122c0-0.322,0.263-0.847,0.789-1.575c0.524-0.728,1.2-1.545,2.029-2.455
		c0.828-0.909,1.778-1.837,2.85-2.787c1.07-0.949,2.17-1.828,3.303-2.638c1.13-0.807,2.232-1.463,3.302-1.969
		c1.072-0.504,2.011-0.757,2.82-0.757c0.121,0,0.181,0.021,0.181,0.061c0,0.081-0.08,0.202-0.242,0.363
		C181.137,93.768,178.854,95.748,176.793,97.484z"/>
</g>
</svg>
