<?xml version="1.0" encoding="utf-8"?>
<!-- Generator: Adobe Illustrator 19.2.1, SVG Export Plug-In . SVG Version: 6.00 Build 0)  -->
<svg version="1.1" id="Layer_1" xmlns="http://www.w3.org/2000/svg" xmlns:xlink="http://www.w3.org/1999/xlink" x="0px" y="0px"
	 viewBox="0 0 200 200" style="enable-background:new 0 0 200 200;" xml:space="preserve">
<style type="text/css">
	.st0{fill:#FFFFFF;}
</style>
<g>
	<path class="st0" d="M26.6,91.6c0.8-0.7,1.6-1.4,2.3-2.2c0.7-0.7,1.4-1.5,2.1-2.3c0.9-1.2,1.7-2.2,2.2-2.9c0.5-0.7,0.9-1.5,1.2-2.2
		c0.3-0.8,0.6-1.7,0.8-2.6c0.2-0.9,0.2-1.8-0.1-2.6c-0.2-0.8-0.6-1.5-1.2-2c-0.5-0.5-1.2-1-1.8-1.3c-0.7-0.3-1.4-0.5-2.2-0.6
		c-0.8-0.1-1.6-0.1-2.3,0c-1.7,0.2-3.4,0.7-4.9,1.5c-1.6,0.8-3,1.7-4.3,2.8c-1.3,1-2.6,2.1-3.7,3.4c-1.2,1.2-2.1,2.6-2.8,4.2
		c-0.4,0.9-0.7,1.8-0.9,2.7c-0.2,1-0.2,1.9-0.1,2.8c0.1,0.9,0.4,1.8,0.8,2.7c0.4,0.9,1,1.6,1.7,2.3c-1.5,0.7-2.8,1.5-4.1,2.6
		c-1.2,1.1-2.3,2.2-3.3,3.5c-0.5,0.7-1,1.4-1.5,2.1c-0.5,0.8-1.2,1.8-1.9,3c-0.1,0.2-0.2,0.3-0.3,0.5C2,107.2,2,107.4,2,107.6
		c0,0.3,0,0.6,0.2,0.9c0.2,0.3,0.4,0.5,0.6,0.7c0.7,0.5,1.4,0.7,2.2,0.4c0.3-0.1,0.6-0.3,0.8-0.6c0.2-0.3,0.4-0.6,0.6-0.9
		c0.5-0.7,0.9-1.4,1.4-2.1c0.5-0.7,1-1.4,1.5-2c0.9-1.2,2-2.4,3.2-3.5c1.2-1.1,2.6-1.9,4.1-2.4c0.4-0.2,0.8-0.3,1.3-0.4
		c0.4-0.1,0.9-0.2,1.3-0.2c0.4,0,0.8-0.1,1.1-0.3c0.3-0.1,0.6-0.4,0.7-0.9c0.1-0.4,0-0.7-0.2-1.1c-0.2-0.3-0.4-0.6-0.7-0.8
		c-0.4-0.3-0.9-0.5-1.4-0.6c-0.5-0.1-1-0.2-1.5-0.4c-0.5-0.2-0.9-0.4-1.4-0.7c-0.4-0.3-0.7-0.9-0.9-1.7c-0.2-1-0.2-2,0.1-3.1
		c0.3-1,0.7-1.9,1.2-2.8c0.6-0.9,1.2-1.7,1.9-2.4c0.7-0.7,1.5-1.4,2.3-2.1c1.7-1.4,3.4-2.5,5.2-3.3c1-0.5,2-0.7,3-0.9
		c1.4-0.1,2.2,0.2,2.3,0.9c0.1,0.7-0.1,1.6-0.7,2.8c-0.5,1-1,1.9-1.5,2.6c-1.8,2.5-4,4.7-6.4,6.8c-0.1,0.1-0.3,0.2-0.4,0.4
		c-0.2,0.1-0.3,0.3-0.4,0.5c-0.2,0.5-0.2,0.9,0,1.3c0.2,0.5,0.5,0.8,1,1c0.4,0.2,0.9,0.4,1.3,0.4c0.6,0,1.1-0.2,1.5-0.6
		C25.8,92.3,26.2,92,26.6,91.6z"/>
	<path class="st0" d="M106,98c0.5-0.6,1.1-1.2,1.6-1.9c0.5-0.6,1.1-1.2,1.7-1.8c1-1.1,1.7-1.8,2.1-2.1c0.4-0.3,0.6-0.7,0.6-1
		c0-0.5-0.2-1.1-0.6-1.6c-0.4-0.5-0.9-0.9-1.6-1.1c-0.3-0.1-0.6,0-0.9,0.2c-0.3,0.2-0.8,0.6-1.5,1.2c-0.4-0.6-0.8-1-1.4-1.3
		c-0.5-0.3-1.1-0.5-1.8-0.6c-0.6-0.1-1.3-0.1-2,0s-1.3,0.3-1.9,0.5c-1.1,0.3-2.1,0.8-3.1,1.4s-1.9,1.2-2.8,1.9
		c-0.9,0.7-1.8,1.4-2.7,2.2c-0.8,0.8-1.7,1.7-2.5,2.6c-0.2,0.2-0.3,0.4-0.5,0.6c-0.2,0.1-0.3,0.3-0.5,0.4c-0.3,0.3-0.6,0.6-0.8,0.9
		l-1.9,1.9c-0.5,0.5-1,1-1.6,1.5s-1.1,1-1.7,1.5c-0.6,0.5-1.2,0.9-1.8,1.4c-0.6,0.4-1.2,0.7-1.7,0.9c-0.4,0.2-0.6,0.2-0.6,0
		c0-0.2,0-0.4,0.1-0.7c0.1-0.3,0.3-0.6,0.5-1c0.2-0.3,0.4-0.6,0.6-0.9c1.1-1.4,2.3-2.8,3.6-4c1.3-1.3,2.6-2.6,3.8-4.2
		c0.3-0.4,0.6-0.9,0.9-1.3c0.3-0.5,0.5-1,0.7-1.5c0.2-0.5,0.2-1,0.2-1.6c0-0.5-0.2-1-0.6-1.5c-0.3-0.5-0.8-0.8-1.3-1
		c-0.5-0.2-1.3-0.3-2.2-0.2c-1.3,0.2-2.5,0.6-3.6,1.1c-1.1,0.5-2.2,1.1-3.2,1.8c-0.1-0.7-0.4-1.3-1-1.8c-0.6-0.5-1.2-0.7-1.9-0.4
		c-0.2,0.1-0.4,0.2-0.6,0.4s-0.4,0.3-0.5,0.5c-1.5,1.7-2.8,3.2-3.9,4.5c-1,1.2-1.9,2.3-2.7,3.3c-0.1,0.1-0.3,0.2-0.4,0.4
		c-0.3,0.3-0.5,0.6-0.8,0.8l-5.1,5.1c-0.5,0.5-0.9,0.9-1.4,1.3c-0.5,0.4-0.9,0.7-1.5,1c-0.5,0.2-0.8,0.3-1,0.2
		c-0.2-0.1-0.3-0.3-0.3-0.5c0-0.2,0-0.6,0.1-0.9c0.1-0.4,0.3-0.7,0.5-1c0.6-1.2,1.4-2.4,2.2-3.5c0.9-1.1,2-2.5,3.4-4.1
		c0.6-0.7,1.2-1.3,1.8-1.9c0.6-0.6,1.2-1.2,1.8-1.8c0.4-0.5,0.6-1,0.6-1.6c0-0.6-0.3-1.1-0.7-1.6c-0.5-0.5-1-0.7-1.7-0.7
		c-0.3,0-0.7,0.2-1.1,0.5c-0.4,0.3-0.7,0.6-1,1c-0.8-1.1-2-1.7-3.6-1.8c-1.1-0.1-2.1,0.1-3.1,0.4c-1,0.3-2,0.8-2.9,1.3
		c-2.1,1.2-4,2.7-5.7,4.4c-1.1,1.1-2,2.3-3,3.5c0,0-0.1,0.1-0.1,0.1c-0.3,0.3-0.6,0.6-0.8,0.9c-1.8,1.8-3.3,3.3-4.4,4.5
		c-1.2,1.2-2.3,2.1-3.6,2.8c-0.6,0.3-1,0.3-1,0s0-0.8,0.2-1.3c0.2-0.6,0.5-1.1,0.8-1.7c0.3-0.6,0.6-1,0.7-1.3c0.9-1.3,1.9-2.6,3-3.9
		c1-1.3,2.2-2.7,3.5-4.1c0.4-0.5,0.5-1,0.2-1.5c-0.3-0.6-0.7-1-1.2-1.4c-0.6-0.3-1.2-0.5-1.8-0.5c-0.6,0-1.2-0.2-1.8-0.5l-0.7-0.3
		c0.2-0.4,0.4-0.7,0.5-1.1c0.1-0.4,0.2-0.8,0.1-1.2c-0.1-0.6-0.3-1.1-0.8-1.5c-0.5-0.4-1-0.6-1.6-0.6c-0.5,0-0.9,0.2-1.3,0.5
		c-0.3,0.3-0.6,0.6-0.8,1c-0.2,0.4-0.3,0.9-0.4,1.4c-0.1,0.5-0.1,0.9,0,1.4c-0.1,0.2-0.2,0.3-0.3,0.5c-0.1,0.1-0.3,0.3-0.3,0.5
		c-1.1,1.3-2.1,2.5-3.2,3.8c-1.1,1.2-2.2,2.4-3.5,3.6c-0.3,0.4-0.5,0.8-0.5,1.2c0,0.4,0.1,0.8,0.4,1.1c0.2,0.3,0.6,0.6,1,0.7
		c0.4,0.1,0.8,0.1,1.3-0.2c0.3-0.2,0.6-0.4,0.9-0.7c0.2-0.3,0.5-0.6,0.7-0.8c0.9-0.9,1.6-1.7,2.2-2.3c0.6-0.7,1.1-1.2,1.5-1.7
		c0.4-0.5,0.8-0.9,1.1-1.3c0.3-0.4,0.6-0.8,0.9-1.1c0.2,0.2,0.5,0.3,0.8,0.5c0.3,0.2,0.6,0.3,0.9,0.4c-0.3,0.4-0.6,0.7-0.9,1.1
		c-0.3,0.4-0.5,0.7-0.8,1.1c-1,1.3-2,2.6-3,3.9c-1,1.4-1.7,2.8-2.1,4.4c-0.2,0.7-0.3,1.5-0.2,2.2c0.1,0.7,0.3,1.4,0.6,1.9
		c0.3,0.6,0.8,1,1.4,1.4c0.6,0.3,1.4,0.5,2.2,0.5c0.7,0,1.3-0.1,1.9-0.3c0.6-0.2,1.2-0.5,1.8-0.9s1.1-0.8,1.6-1.2
		c0.5-0.4,0.9-0.8,1.4-1.2c0,0.4,0.1,0.8,0.3,1.2c0.3,0.8,0.8,1.5,1.7,1.9c0.9,0.5,1.9,0.7,3,0.6c1-0.1,2.1-0.5,3.1-1
		c0.6-0.4,1.2-0.8,1.8-1.2c0.6-0.4,1.1-0.9,1.7-1.4c0.1,0.7,0.2,1.2,0.5,1.6c0.4,0.7,1,1.2,1.7,1.5c0.7,0.3,1.6,0.5,2.6,0.4
		c1.4-0.1,2.6-0.6,3.6-1.4c0.3-0.2,0.5-0.4,0.8-0.6c0.2,0.3,0.6,0.6,1,0.8c0.7,0.3,1.3,0.4,1.9,0.2c0.3-0.1,0.6-0.3,0.7-0.6
		c0.1-0.3,0.3-0.6,0.5-0.8c0.5-0.6,1-1.3,1.5-2.1c0.6-0.8,1.1-1.5,1.7-2.2c0.6-0.7,1.1-1.4,1.7-2.1c0.6-0.7,1.1-1.2,1.6-1.7
		c0.8-0.8,1.7-1.6,2.6-2.3s1.9-1.5,2.8-2.2c0.8-0.6,1.7-1.1,2.6-1.6c0.9-0.5,1.8-0.9,2.8-1.2c0.5-0.2,0.8-0.1,0.7,0.1
		c-0.1,0.2-0.3,0.6-0.7,1c-0.4,0.4-0.8,0.9-1.2,1.3c-0.5,0.4-0.8,0.7-0.9,0.9c-1.2,1.2-2.4,2.5-3.6,3.8c-1.2,1.3-2.2,2.7-2.9,4.3
		c-0.3,0.7-0.5,1.4-0.6,2.2c-0.1,0.8,0,1.5,0.3,2.1c0.2,0.7,0.7,1.2,1.3,1.6c0.6,0.4,1.4,0.6,2.3,0.5c1.5-0.1,2.8-0.5,4-1.2
		c1.1-0.7,2.1-1.4,3.1-2.2c0.1,0.5,0.2,0.9,0.4,1.4c0.3,0.7,0.9,1.3,1.7,1.7c0.7,0.4,1.5,0.5,2.4,0.5c0.8,0,1.7-0.2,2.5-0.6
		c-0.6,0.9-1.2,1.8-1.8,2.6c-0.6,0.9-1.2,1.8-1.8,2.7c-1.5,0.2-2.9,0.5-4.4,0.7c-1.4,0.3-2.9,0.5-4.5,0.7c-0.3,0.1-0.6,0.1-0.9,0.2
		c-0.3,0-0.6,0.2-0.8,0.5c-0.2,0.2-0.3,0.6-0.3,0.9c0,0.4,0,0.7,0.1,1c0.1,0.3,0.3,0.6,0.5,0.8c0.2,0.2,0.5,0.3,0.9,0.3
		c0.7,0,1.3-0.1,2.1-0.2c0.7-0.1,1.4-0.2,2-0.2c0.6-0.1,1.2-0.1,1.7-0.2c0.5-0.1,0.8-0.1,0.9-0.1c-0.5,0.9-1,1.7-1.3,2.3
		c-0.3,0.6-0.6,1-0.7,1.4c-0.2,0.4-0.3,0.6-0.4,0.8c-0.1,0.2-0.2,0.4-0.3,0.5c-0.3,0.7-0.3,1.3,0.1,1.7c0.3,0.5,0.8,0.8,1.4,1
		c0.6,0.2,1.2,0.2,1.7,0c0.3-0.1,0.6-0.3,0.7-0.6c0.1-0.2,0.2-0.5,0.4-0.8c0.9-1.9,1.7-3.3,2.3-4.3c0.6-1,1.2-1.9,1.7-2.7
		c0.4,0,0.8-0.1,1.3-0.1c0.4,0,0.9-0.1,1.5-0.2c0.6-0.1,1.3-0.1,2.1-0.2c0.8-0.1,1.7-0.1,2.8-0.2c0.3,0,0.7-0.1,1.2-0.1
		c0.5,0,0.8-0.2,1-0.5c0.5-0.7,0.7-1.4,0.5-2.3c-0.1-0.5-0.3-0.8-0.5-1.1c-0.3-0.3-0.6-0.5-1.1-0.5c-0.9,0-1.9,0.1-2.9,0.2
		c-1,0.1-1.9,0.2-2.9,0.3c1.9-2.7,3.8-5.4,5.8-8S103.8,100.7,106,98z M55.3,98.2c-1.5,1.7-3.1,3.4-4.9,5c-0.6,0.5-1.3,1.1-2.2,1.8
		c-0.8,0.7-1.7,1.1-2.7,1.1c-0.3,0-0.5-0.1-0.6-0.4c0-0.2,0-0.5,0.1-0.8c0.1-0.3,0.2-0.6,0.3-0.9c0.1-0.3,0.3-0.5,0.3-0.6
		c0.8-1.6,1.9-3.1,3.4-4.7s3-3,4.4-4.2c0.2-0.2,0.7-0.5,1.4-1c0.7-0.5,1.4-0.9,2.2-1.2c0.7-0.3,1.4-0.5,1.9-0.5s0.8,0.4,0.7,1.2
		C58.3,94.7,56.8,96.4,55.3,98.2z M94.7,102.9c-0.3,0.3-0.8,0.6-1.3,1c-0.5,0.4-1,0.8-1.5,1.1c-0.5,0.3-1,0.6-1.5,0.8
		c-0.5,0.2-0.9,0.2-1.2,0.1c-0.3-0.1-0.4-0.5-0.2-1c0.2-0.6,0.6-1.2,1-1.8c0.4-0.6,0.9-1.2,1.3-1.8c0.4-0.6,0.7-0.9,0.8-1
		c0.8-1,1.7-2,2.6-2.9c0.9-0.9,1.9-1.7,3-2.6c0.9-0.7,1.8-1.3,2.9-2s2.1-1.1,3-1.1c0.5,0,0.7,0.1,0.7,0.4c0,0.3,0,0.6-0.1,0.8
		c-1.5,1.8-3,3.6-4.6,5.3C98.1,99.8,96.5,101.4,94.7,102.9z"/>
	<path class="st0" d="M147.6,84.2c0.7,0,1.4-0.3,1.9-0.8s0.8-1.2,0.8-1.9c0-0.7-0.3-1.4-0.8-1.9c-0.6-0.5-1.2-0.8-1.9-0.8
		c-0.7,0-1.4,0.3-1.9,0.8c-0.5,0.5-0.8,1.2-0.8,1.9c0,0.7,0.3,1.3,0.8,1.9C146.2,84,146.8,84.2,147.6,84.2z"/>
	<path class="st0" d="M176.6,84.2c0.7,0,1.4-0.3,1.9-0.8s0.8-1.2,0.8-1.9c0-0.7-0.3-1.4-0.8-1.9c-0.6-0.5-1.2-0.8-1.9-0.8
		c-0.7,0-1.4,0.3-1.9,0.8c-0.5,0.5-0.8,1.2-0.8,1.9c0,0.7,0.3,1.3,0.8,1.9C175.2,84,175.9,84.2,176.6,84.2z"/>
	<path class="st0" d="M197.3,97.2c-0.6-0.4-1.2-0.5-1.8-0.2c-0.3,0.2-0.6,0.4-0.9,0.7c-0.3,0.3-0.5,0.6-0.8,0.8l-5.1,5.1
		c-0.5,0.5-0.9,0.9-1.4,1.3s-0.9,0.7-1.5,1c-0.5,0.2-0.8,0.3-1,0.2c-0.2-0.1-0.3-0.3-0.3-0.5c0-0.2,0-0.6,0.1-0.9
		c0.1-0.4,0.3-0.7,0.5-1c0.6-1.2,1.4-2.4,2.2-3.5c0.9-1.1,2-2.5,3.4-4.1c0.6-0.7,1.2-1.3,1.8-1.9c0.6-0.6,1.2-1.2,1.8-1.8
		c0.4-0.5,0.6-1,0.6-1.6c0-0.6-0.3-1.1-0.7-1.6c-0.5-0.5-1-0.7-1.7-0.7c-0.3,0-0.7,0.2-1.1,0.5c-0.4,0.3-0.7,0.6-1,1
		c-0.8-1.1-2-1.7-3.6-1.8c-1.1-0.1-2.1,0.1-3.1,0.4c-1,0.3-2,0.8-2.9,1.3c-2.1,1.2-4,2.7-5.7,4.4c-1,1.1-2,2.2-2.9,3.3
		c-0.1,0.1-0.1,0.1-0.2,0.2c-0.3,0.3-0.5,0.6-0.8,0.9c-1.4,1.4-2.5,2.5-3.2,3.2c-0.7,0.7-1.4,1.3-1.9,1.9c-1.1,1-1.9,1.6-2.5,1.8
		c-0.6,0.2-1,0.2-1.1-0.1c-0.1-0.3,0-0.9,0.3-1.7c0.3-0.8,0.9-1.7,1.7-2.8c1.1-1.6,2.3-3,3.6-4.4s2.6-2.8,3.9-4.3
		c0.2-0.2,0.4-0.5,0.5-0.6c0.1-0.2,0.2-0.4,0.2-0.8c-0.1-0.6-0.3-1.1-0.7-1.7c-0.4-0.5-1-0.8-1.7-0.8c-0.4,0-0.8,0.2-1.1,0.5
		c-0.3,0.3-0.6,0.6-0.9,0.9c-0.7,0.6-1.3,1.3-1.9,1.9c-0.6,0.7-1.2,1.4-1.8,2.1c-1,1.1-1.9,2.3-2.8,3.5c-0.2,0.1-0.4,0.3-0.6,0.5
		c-0.3,0.3-0.6,0.7-0.9,1c-2.2,2.1-4.1,3.7-5.8,4.8c-1.7,1.1-3.3,1.9-4.8,2.3c-0.5,0.1-1,0.2-1.7,0.4s-1.3,0-1.8-0.2
		c-0.6-0.3-0.9-0.8-0.9-1.4c0-0.6,0.1-1.2,0.2-1.8c0.2-0.7,0.5-1.3,0.9-1.9c0.4-0.6,0.8-1.2,1.2-1.8c1.1-1.5,2.4-2.9,3.8-4.1
		c0.2-0.2,0.5-0.5,1-0.9c0.5-0.4,1.1-0.8,1.7-1.2c0.6-0.4,1.2-0.7,1.8-1c0.6-0.3,1-0.3,1.2-0.2c0.1,0.1,0.1,0.2,0,0.5
		c-0.1,0.2-0.3,0.5-0.6,0.9c-0.3,0.3-0.6,0.7-1,1.1c-0.4,0.4-0.9,0.8-1.4,1.1c-0.2,0.2-0.4,0.3-0.6,0.5c-0.2,0.2-0.4,0.4-0.5,0.6
		c-0.2,0.3-0.2,0.6-0.2,1c0.1,0.3,0.2,0.6,0.3,0.9c0.2,0.4,0.5,0.7,0.8,1c0.3,0.3,0.7,0.4,1.1,0.5c0.5,0.1,0.9,0,1.2-0.3
		c0.4-0.3,0.7-0.6,1-0.8c0.4-0.4,0.7-0.7,1.1-1.1c0.3-0.4,0.7-0.8,1-1.3c0.3-0.4,0.6-0.8,0.8-1.2c0.3-0.5,0.5-0.9,0.6-1.4
		c0.2-0.5,0.3-1,0.3-1.5c0.1-0.5,0-1-0.2-1.5c-0.3-0.9-0.8-1.6-1.6-1.9c-0.8-0.3-1.7-0.5-2.6-0.6c-1.1-0.1-2.2,0.1-3.3,0.6
		c-1.1,0.5-2.1,1-2.9,1.5c-1.7,1.2-3.3,2.6-4.8,4.2c-0.9,1-1.7,2-2.4,3.1c-0.1,0.1-0.2,0.2-0.3,0.2c-0.3,0.3-0.5,0.6-0.8,0.9
		c-1.4,1.4-2.5,2.5-3.2,3.2c-0.7,0.7-1.4,1.3-1.9,1.9c-1.1,1-1.9,1.6-2.5,1.8c-0.6,0.2-1,0.2-1.1-0.1c-0.1-0.3,0-0.9,0.3-1.7
		c0.3-0.8,0.9-1.7,1.7-2.8c1.1-1.6,2.3-3,3.6-4.4s2.6-2.8,3.9-4.3c0.2-0.2,0.4-0.5,0.5-0.6c0.1-0.2,0.2-0.4,0.2-0.8
		c-0.1-0.6-0.3-1.1-0.7-1.7c-0.4-0.5-1-0.8-1.7-0.8c-0.4,0-0.8,0.2-1.1,0.5c-0.3,0.3-0.6,0.6-0.9,0.9c-0.7,0.6-1.3,1.3-1.9,1.9
		c-0.6,0.7-1.2,1.4-1.8,2.1c-1,1.1-1.9,2.3-2.9,3.5c-0.2,0.1-0.3,0.3-0.5,0.4c-0.3,0.3-0.6,0.6-0.8,0.8l-5.2,5.2
		c-0.5,0.4-0.9,0.8-1.4,1.2c-0.5,0.4-0.9,0.7-1.5,1c-0.5,0.2-0.8,0.3-0.9,0.2c-0.1-0.1-0.2-0.4-0.2-0.6c0-0.3,0.1-0.6,0.2-0.9
		c0.1-0.3,0.2-0.6,0.4-0.8c0.6-1.3,1.4-2.6,2.4-3.8c1-1.2,2-2.5,3.2-3.8c0.6-0.7,1.2-1.3,1.8-1.9c0.6-0.6,1.2-1.2,1.8-1.8
		c0.2-0.2,0.4-0.5,0.5-0.6c0.1-0.2,0.1-0.4,0.1-0.8c-0.1-0.6-0.3-1.1-0.7-1.7c-0.4-0.5-1-0.8-1.7-0.8c-0.4,0-0.8,0.2-1.1,0.5
		c-0.3,0.3-0.6,0.6-0.8,0.9l-4.9,5.5c-1.5,1.7-3,3.4-4.6,5c-1.6,1.6-3.2,3-5.1,4.3c-1,0.7-1.7,1.2-2.2,1.4c-0.5,0.2-0.8,0.2-1,0.1
		c-0.2-0.1-0.2-0.4-0.1-0.8c0.1-0.4,0.3-0.8,0.6-1.3c0.3-0.5,0.6-1,1-1.5c0.4-0.5,0.7-1,1.1-1.4c1.2-1.6,2.5-3,3.8-4.4
		s2.7-2.8,4-4.3c0.4-0.4,0.6-0.8,0.6-1.4c0-0.5-0.2-1-0.7-1.6c-0.5-0.6-1-0.8-1.7-0.8c-0.4,0-0.8,0.2-1.1,0.5
		c-0.3,0.3-0.6,0.6-0.9,0.8c-0.8,0.8-1.7,1.8-2.7,2.8c-1,1-2,2.2-3,3.3c-1,1.2-1.9,2.4-2.7,3.6c-0.8,1.2-1.4,2.4-1.8,3.4
		c-0.3,0.8-0.5,1.6-0.6,2.5c-0.1,0.9,0.1,1.7,0.5,2.6c0.4,0.6,0.9,1.1,1.5,1.4c0.7,0.3,1.3,0.5,2,0.5c0.8,0,1.6-0.2,2.3-0.5
		c0.7-0.3,1.3-0.7,1.9-1c1.2-0.8,2.3-1.6,3.3-2.4c0,0.3,0.1,0.7,0.2,1c0.1,0.3,0.2,0.7,0.4,1c0.4,0.7,0.9,1.1,1.6,1.4
		c0.7,0.3,1.4,0.5,2.1,0.5c0.7,0,1.4-0.1,2-0.4c0.6-0.2,1.2-0.6,1.8-0.9c0.6-0.4,1.1-0.8,1.6-1.2c0.4-0.4,0.9-0.8,1.3-1.1
		c0.1,0.6,0.2,1.2,0.6,1.7c0.4,0.7,0.9,1.2,1.6,1.5c0.7,0.3,1.4,0.4,2.2,0.4c1.1,0,2.2-0.4,3.2-1c1-0.6,2.1-1.5,3.4-2.7
		c0.4-0.4,0.8-0.8,1.3-1.2c0.1,0.7,0.3,1.4,0.7,2.1c0.7,1.4,1.8,2.2,3.1,2.5c1.3,0.3,2.7,0.3,4.2,0.1c1.5-0.3,2.9-0.8,4.4-1.4
		c1.4-0.7,2.6-1.3,3.6-2c0.3-0.2,0.6-0.4,0.9-0.6c-0.1,0.8,0.1,1.6,0.6,2.4c0.4,0.7,0.9,1.2,1.6,1.5c0.7,0.3,1.4,0.4,2.2,0.4
		c1.1,0,2.2-0.4,3.2-1c1-0.6,2.1-1.5,3.4-2.7c0,0,0,0,0,0c0,0.4,0.1,0.8,0.3,1.2c0.3,0.8,0.8,1.5,1.7,1.9c0.9,0.5,1.9,0.7,3,0.6
		c1-0.1,2.1-0.5,3-1c0.6-0.4,1.2-0.8,1.8-1.2c0.6-0.4,1.1-0.9,1.7-1.4c0.1,0.7,0.2,1.2,0.5,1.6c0.4,0.7,1,1.2,1.7,1.5
		c0.7,0.3,1.6,0.5,2.6,0.4c1.4-0.1,2.6-0.6,3.6-1.4c1-0.8,2-1.6,2.9-2.4c0.6-0.6,1.2-1.2,2-2c0.7-0.7,1.8-1.8,3.3-3.3
		c0.2-0.3,0.5-0.6,0.7-0.8c0.2-0.2,0.4-0.6,0.5-1C198.1,98.2,197.9,97.6,197.3,97.2z M183.2,98.2c-1.5,1.7-3.1,3.4-4.9,5
		c-0.6,0.5-1.3,1.1-2.2,1.8c-0.8,0.7-1.7,1.1-2.7,1.1c-0.3,0-0.5-0.1-0.6-0.4c0-0.2,0-0.5,0.1-0.8c0.1-0.3,0.2-0.6,0.3-0.9
		c0.1-0.3,0.3-0.5,0.3-0.6c0.8-1.6,1.9-3.1,3.4-4.7c1.5-1.6,3-3,4.4-4.2c0.2-0.2,0.7-0.5,1.4-1c0.7-0.5,1.4-0.9,2.2-1.2
		c0.7-0.3,1.4-0.5,1.9-0.5s0.8,0.4,0.7,1.2C186.1,94.7,184.7,96.4,183.2,98.2z"/>
</g>
</svg>
