<?xml version="1.0" encoding="utf-8"?>
<!-- Generator: Adobe Illustrator 15.0.0, SVG Export Plug-In . SVG Version: 6.00 Build 0)  -->
<!DOCTYPE svg PUBLIC "-//W3C//DTD SVG 1.1//EN" "http://www.w3.org/Graphics/SVG/1.1/DTD/svg11.dtd">
<svg version="1.1" id="Layer_1" xmlns="http://www.w3.org/2000/svg" xmlns:xlink="http://www.w3.org/1999/xlink" x="0px" y="0px"
	 width="200px" height="200px" viewBox="0 0 200 200" enable-background="new 0 0 200 200" xml:space="preserve">
<g>
	<path fill="#F58220" d="M27.806,92.765c0.492-0.032,0.935-0.065,1.329-0.099c0.263-0.032,0.418-0.073,0.468-0.123
		c0.049-0.049,0.074-0.154,0.074-0.319c0-0.655-0.206-1.198-0.615-1.624c-0.411-0.426-0.959-0.763-1.648-1.01
		c-0.689-0.245-1.477-0.418-2.362-0.516c-0.886-0.099-1.805-0.148-2.756-0.148c-1.28,0-2.42,0.05-3.42,0.148
		c-1.001,0.098-1.55,0.146-1.649,0.146c-0.229,0-0.344-0.049-0.344-0.146c0-0.065,0.065-0.165,0.197-0.296
		c0.065-0.064,0.131-0.114,0.197-0.147l6.25-5.758c0.426-0.262,0.64-0.542,0.64-0.837c0-0.394-0.116-0.615-0.344-0.664
		c-0.23-0.05-0.345-0.155-0.345-0.32c0-0.13,0.098-0.204,0.295-0.221s0.361-0.025,0.493-0.025c1.083-0.099,2.312-0.197,3.691-0.295
		c1.378-0.099,2.788-0.181,4.232-0.247c1.444-0.064,2.862-0.113,4.257-0.146c1.394-0.032,2.649-0.057,3.765-0.073
		c1.115-0.017,2.025-0.033,2.731-0.05c0.705-0.017,1.09-0.024,1.156-0.024c0.459,0,0.746-0.033,0.861-0.1
		c0.115-0.064,0.172-0.179,0.172-0.344c0-0.065-0.083-0.188-0.246-0.369c-0.165-0.18-0.353-0.369-0.566-0.565
		c-0.214-0.197-0.418-0.386-0.615-0.566s-0.344-0.303-0.443-0.369c-1.28-1.115-3.026-1.87-5.241-2.264s-4.602-0.591-7.161-0.591
		c-2.166,0-4.323,0.098-6.472,0.296c-2.149,0.196-4.093,0.427-5.832,0.688c-2.035,0.296-3.97,0.624-5.807,0.984
		c-0.197,0.066-0.378,0.099-0.542,0.099c-0.066,0-0.098-0.016-0.098-0.049c0-0.066,0.114-0.181,0.344-0.345
		c0.229-0.164,0.345-0.312,0.345-0.443c0-0.131-0.107-0.205-0.32-0.222c-0.213-0.016-0.386-0.024-0.517-0.024
		c-0.23,0.066-0.82,0.214-1.772,0.442c-0.952,0.23-1.96,0.51-3.026,0.837c-1.066,0.328-2.018,0.706-2.854,1.132
		c-0.836,0.427-1.255,0.87-1.255,1.329c0,0.591,0.123,1.066,0.369,1.427c0.246,0.362,0.542,0.641,0.886,0.837
		c0.345,0.197,0.689,0.328,1.034,0.395c0.344,0.065,0.615,0.098,0.812,0.098c1.41,0,2.936-0.057,4.577-0.172
		c1.64-0.115,3.166-0.254,4.577-0.419c1.64-0.163,3.264-0.36,4.872-0.59c0.131-0.033,0.278-0.05,0.443-0.05
		c0.229,0,0.345,0.05,0.345,0.148c0,0.065-0.025,0.106-0.074,0.122c-0.049,0.018-0.107,0.058-0.172,0.123
		c-0.099,0.066-0.181,0.116-0.247,0.148c-0.164,0.098-0.418,0.271-0.762,0.517c-0.345,0.245-0.747,0.559-1.206,0.935
		c-0.46,0.378-0.944,0.787-1.452,1.23c-0.509,0.443-1.026,0.879-1.55,1.304c-1.214,1.051-2.543,2.215-3.986,3.495
		c-0.525,0.524-0.895,0.742-1.107,0.857C10.195,90.047,10.056,90,9.99,90H9.941c-0.131,0-0.246,0.152-0.345,0.152
		c-0.098,0-0.197,0.068-0.295,0.1c-1.083,0.197-1.944,0.379-2.584,0.496c-0.64,0.115-1.125,0.25-1.452,0.382
		c-0.329,0.131-0.534,0.3-0.615,0.497c-0.083,0.197-0.123,0.463-0.123,0.79c0,0.099,0.057,0.273,0.172,0.52
		c0.114,0.245,0.246,0.51,0.394,0.788c0.147,0.279,0.287,0.542,0.418,0.788c0.131,0.246,0.197,0.435,0.197,0.566
		c0,0.065-0.033,0.099-0.098,0.099c-1.148,1.181-2.067,2.312-2.756,3.396c-0.689,1.082-1.23,2.035-1.624,2.855
		c-0.459,0.951-0.787,1.836-0.984,2.656c-0.099,0.328-0.164,0.615-0.197,0.861C0.017,105.191,0,105.396,0,105.561
		c0,0.264,0.14,0.533,0.418,0.812c0.279,0.277,0.607,0.541,0.984,0.787c0.378,0.246,0.731,0.443,1.059,0.59
		c0.328,0.148,0.541,0.223,0.64,0.223c0.033,0,0.066-0.082,0.098-0.246c0.033-0.164,0.066-0.346,0.099-0.541
		c0.032-0.197,0.065-0.379,0.098-0.541c0.032-0.166,0.065-0.248,0.099-0.248c0.098-0.229,0.278-0.564,0.541-1.008
		c0.262-0.443,0.566-0.926,0.911-1.451c0.344-0.525,0.721-1.084,1.132-1.674c0.41-0.592,0.828-1.182,1.255-1.772
		c0.984-1.345,2.083-2.821,3.297-4.429c0.263-0.296,0.591-0.542,0.984-0.739c0.394-0.196,1.058-0.385,1.994-0.565
		c0.935-0.18,2.247-0.385,3.937-0.615c1.689-0.229,3.978-0.558,6.865-0.984c0.656-0.099,1.28-0.172,1.87-0.221
		C26.871,92.888,27.379,92.832,27.806,92.765z"/>
	<path fill="#F58220" d="M102.485,96.038c0.869-0.935,1.552-1.664,2.043-2.19c0.491-0.523,0.845-0.918,1.058-1.181
		c0.214-0.262,0.345-0.442,0.394-0.541c0.05-0.099,0.074-0.196,0.074-0.296c0-0.261-0.082-0.426-0.245-0.492
		c-0.166-0.064-0.247-0.163-0.247-0.295c0-0.099,0.05-0.188,0.147-0.27c0.1-0.082,0.148-0.156,0.148-0.223
		c-0.033-0.229-0.148-0.467-0.345-0.713c-0.197-0.247-0.411-0.476-0.64-0.689c-0.23-0.214-0.46-0.385-0.689-0.517
		c-0.229-0.131-0.394-0.197-0.491-0.197c-1.249,0-2.527,0.189-3.84,0.566s-2.608,0.886-3.887,1.525
		c-1.28,0.641-2.485,1.37-3.618,2.19c-1.132,0.82-2.125,1.665-2.977,2.534c-0.591,0.603-1.094,1.208-1.519,1.817
		c-0.226,0.168-0.452,0.336-0.671,0.495c-1.23,0.903-2.379,1.707-3.445,2.411c-1.066,0.707-2.108,1.272-3.125,1.698
		c-0.886,0.395-1.477,0.592-1.772,0.592c-0.263,0-0.418-0.057-0.467-0.172c-0.049-0.115-0.074-0.205-0.074-0.271
		c0-0.721,0.114-1.37,0.344-1.944c0.229-0.573,0.64-1.246,1.23-2.018c0.59-0.771,1.394-1.697,2.411-2.78
		c1.017-1.082,2.313-2.51,3.888-4.281c0.13-0.165,0.197-0.345,0.197-0.542c0-0.131-0.024-0.237-0.074-0.32
		c-0.049-0.081-0.107-0.155-0.172-0.221c-0.098-0.066-0.181-0.131-0.246-0.197l-1.378-0.394c-0.098-0.065-0.246-0.099-0.443-0.099
		c-0.165,0-0.32,0.025-0.467,0.074c-0.148,0.049-0.288,0.106-0.418,0.172c-0.132,0.099-0.279,0.181-0.443,0.246
		c-1.377,1.148-2.903,2.338-4.577,3.568s-3.281,2.37-4.823,3.421l-0.246,0.146l-0.049-0.049c0-0.098,0.099-0.278,0.295-0.541
		c0.098-0.131,0.213-0.263,0.344-0.395l3.691-5.118c0.164-0.229,0.246-0.459,0.246-0.688c0-0.197-0.107-0.377-0.32-0.542
		c-0.214-0.163-0.451-0.295-0.713-0.394c-0.263-0.099-0.509-0.179-0.738-0.245c-0.23-0.066-0.377-0.099-0.443-0.099
		c-0.329,0-0.706,0.287-1.132,0.861c-0.208,0.28-0.427,0.593-0.655,0.936c-3.048,2.239-5.862,4.229-8.425,5.954
		c-2.707,1.82-4.995,3.174-6.866,4.06c0.033-0.426,0.188-0.886,0.468-1.377c0.278-0.493,0.697-1.092,1.255-1.797
		c0.558-0.705,1.255-1.551,2.092-2.535c0.836-0.983,1.828-2.182,2.977-3.592c0.295-0.262,0.484-0.492,0.566-0.689
		c0.082-0.196,0.123-0.36,0.123-0.492c0-0.263-0.106-0.483-0.32-0.664c-0.213-0.18-0.402-0.287-0.566-0.32
		c-0.197-0.229-0.344-0.386-0.443-0.468c-0.098-0.08-0.23-0.122-0.394-0.122c-0.132,0-0.255,0.024-0.369,0.073
		c-0.115,0.049-0.221,0.106-0.32,0.173c-0.131,0.099-0.23,0.181-0.295,0.245c-0.165-0.36-0.362-0.672-0.59-0.935
		c-0.23-0.262-0.525-0.394-0.886-0.394c-1.149,0-2.404,0.287-3.765,0.861c-1.362,0.573-2.724,1.328-4.085,2.264
		c-0.437,0.3-0.866,0.616-1.293,0.939c-1.672,1.166-3.268,2.258-4.785,3.269c-1.968,1.312-3.74,2.444-5.315,3.396
		c-1.575,0.952-2.903,1.697-3.986,2.239c-1.083,0.541-1.854,0.812-2.312,0.812c-0.165,0-0.246-0.049-0.246-0.148
		c0-0.458,0.221-0.983,0.664-1.575c0.443-0.59,1-1.196,1.673-1.82c0.672-0.623,1.403-1.238,2.19-1.846
		c0.788-0.606,1.533-1.164,2.239-1.674c0.705-0.507,1.32-0.934,1.846-1.278c0.524-0.345,0.836-0.566,0.935-0.665
		c0.394-0.262,0.591-0.542,0.591-0.837c0-0.13-0.066-0.294-0.197-0.492c-0.131-0.196-0.476-0.655-1.034-1.378
		c-0.23-0.229-0.607-0.345-1.132-0.345c-0.722,0-1.395,0.141-2.018,0.419c-0.624,0.279-1.23,0.419-1.821,0.419
		c-0.427,0-0.96-0.14-1.6-0.419c-0.64-0.278-1.296-0.582-1.969-0.91c-0.673-0.327-1.296-0.632-1.87-0.91
		c-0.574-0.279-1.009-0.419-1.304-0.419c-0.854,0-1.518,0.091-1.994,0.271c-0.476,0.181-0.713,0.633-0.713,1.354
		c0,0.099,0.139,0.41,0.418,0.936c0.278,0.525,0.861,1.082,1.747,1.673c-1.05,0.756-2.042,1.46-2.978,2.116
		c-0.935,0.657-1.83,1.296-2.682,1.919c-0.295,0.197-0.5,0.387-0.615,0.566c-0.115,0.181-0.172,0.32-0.172,0.418
		c0,0.165,0.082,0.271,0.246,0.32s0.377,0.073,0.64,0.073c0.394,0,0.82-0.056,1.28-0.171c0.459-0.116,0.771-0.238,0.935-0.369
		c0.918-0.755,1.763-1.461,2.534-2.116c0.771-0.656,1.403-1.214,1.895-1.674c0.131,0.196,0.377,0.386,0.738,0.566
		c0.36,0.18,0.754,0.336,1.181,0.467c0.426,0.131,0.836,0.23,1.23,0.296c0.394,0.066,0.705,0.098,0.935,0.098
		c-1.444,1.051-2.592,1.969-3.445,2.757c-0.854,0.787-1.51,1.5-1.969,2.141c-0.46,0.64-0.763,1.229-0.91,1.771
		c-0.148,0.542-0.222,1.09-0.222,1.647c0,0.723,0.106,1.314,0.32,1.773c0.213,0.459,0.492,0.812,0.836,1.057
		c0.345,0.248,0.721,0.41,1.132,0.492c0.41,0.082,0.795,0.125,1.156,0.125c0.787,0,1.829-0.338,3.125-1.01
		c1.296-0.672,2.674-1.525,4.134-2.559c0.72-0.512,1.445-1.045,2.174-1.604c-0.507,0.932-0.772,1.709-0.772,2.317
		c0,0.623,0.115,1.107,0.345,1.451c0.229,0.346,0.476,0.617,0.738,0.812c0.329,0.229,0.689,0.393,1.083,0.492
		c0.854,0,1.78-0.318,2.781-0.959c1-0.641,1.96-1.336,2.879-2.092c1.049-0.887,2.116-1.903,3.199-3.051
		c0.131-0.131,0.229-0.197,0.295-0.197c0.032,0,0.049,0.049,0.049,0.147c0,0.1-0.024,0.271-0.074,0.518
		c-0.049,0.245-0.099,0.524-0.147,0.835c-0.049,0.312-0.091,0.633-0.123,0.961c-0.033,0.328-0.049,0.607-0.049,0.836
		c0,1.051,0.139,1.764,0.418,2.141s0.697,0.566,1.255,0.566c0.328,0,0.844-0.197,1.55-0.592c0.705-0.393,1.517-0.91,2.436-1.549
		c0.918-0.641,1.911-1.379,2.977-2.215c1.066-0.837,2.124-1.68,3.175-2.535c1.623-1.324,3.346-2.771,5.15-4.318
		c-0.596,0.927-1.229,1.743-1.902,2.448c-0.394,0.525-0.878,1.1-1.452,1.723c-0.574,0.624-1.141,1.214-1.698,1.771
		c-0.624,0.656-1.28,1.313-1.968,1.969c-0.164,0.262-0.246,0.559-0.246,0.885c0,0.592,0.172,0.984,0.517,1.182
		c0.344,0.197,0.713,0.295,1.107,0.295c0.164,0,0.295-0.008,0.394-0.025c0.099-0.016,0.197-0.039,0.296-0.072
		c0.098-0.033,0.197-0.082,0.295-0.148c0.262-0.131,0.73-0.434,1.403-0.91c0.672-0.475,1.493-1.082,2.46-1.82
		c0.967-0.739,2.059-1.592,3.273-2.559c1.213-0.968,2.477-1.994,3.79-3.076c0.196-0.164,0.295-0.229,0.295-0.197
		c0,0.033-0.017,0.074-0.049,0.123c-0.033,0.049-0.066,0.107-0.099,0.173c-0.066,0.099-0.116,0.181-0.147,0.245l-2.117,2.904
		c-0.46,0.657-0.771,1.263-0.935,1.821c-0.165,0.559-0.247,1.018-0.247,1.377c0,0.854,0.115,1.543,0.345,2.068
		c0.229,0.525,0.533,0.936,0.911,1.229c0.377,0.297,0.787,0.494,1.23,0.592c0.443,0.098,0.877,0.148,1.304,0.148
		c0.524,0,1.197-0.197,2.018-0.592c0.819-0.393,1.705-0.91,2.658-1.549c0.951-0.641,1.951-1.379,3.001-2.215
		c0.361-0.289,0.71-0.584,1.067-0.873c0.036,0.178,0.08,0.342,0.139,0.479c0.147,0.344,0.329,0.615,0.542,0.812
		s0.443,0.328,0.689,0.393c0.246,0.066,0.468,0.1,0.665,0.1c0.524,0,1.197-0.223,2.018-0.664c0.82-0.443,1.64-0.943,2.46-1.501
		c0.82-0.558,1.575-1.106,2.264-1.649c0.688-0.541,1.147-0.91,1.377-1.106c0.361-0.327,0.574-0.492,0.64-0.492
		c0.033,0,0.008,0.058-0.074,0.172c-0.082,0.115-0.189,0.238-0.319,0.369c-0.132,0.164-0.295,0.345-0.492,0.542
		c-1.083,0.951-2.149,1.887-3.199,2.805c-0.886,0.787-1.813,1.623-2.78,2.51c-0.968,0.885-1.813,1.656-2.535,2.312
		c-0.689,0.656-1.558,1.525-2.608,2.607c-1.05,1.084-2.059,2.273-3.027,3.568c-0.967,1.297-1.804,2.65-2.51,4.061
		s-1.058,2.756-1.058,4.035c0,1.346,0.312,2.453,0.935,3.322c0.624,0.869,1.329,1.305,2.117,1.305c0.525,0,1.214-0.256,2.067-0.764
		c0.854-0.508,1.771-1.189,2.756-2.041c0.984-0.854,1.976-1.846,2.978-2.979c1-1.131,1.911-2.322,2.731-3.566
		c0.819-1.248,1.484-2.51,1.993-3.791c0.508-1.279,0.762-2.51,0.762-3.689c0-0.559-0.049-1.053-0.147-1.477
		c-0.098-0.428-0.213-0.789-0.345-1.084c-0.131-0.361-0.279-0.656-0.442-0.887c1.935-2.098,3.576-3.869,4.921-5.314
		C100.509,98.163,101.616,96.973,102.485,96.038z M55.709,95.915c-0.723,0.592-1.436,1.181-2.141,1.772
		c-0.706,0.59-1.362,1.106-1.968,1.55c-0.608,0.443-1.124,0.804-1.55,1.082c-0.427,0.28-0.722,0.419-0.886,0.419
		c-0.066,0-0.099-0.032-0.099-0.099c0-0.263,0.213-0.689,0.64-1.279c0.426-0.591,0.976-1.255,1.649-1.993
		c0.672-0.738,1.443-1.492,2.313-2.264c0.869-0.771,1.763-1.484,2.682-2.141c0.918-0.656,1.812-1.189,2.682-1.601
		c0.869-0.409,1.631-0.614,2.288-0.614c0.099,0,0.148,0.017,0.148,0.05c0,0.065-0.066,0.164-0.197,0.295
		C59.235,92.897,57.382,94.505,55.709,95.915z M93.332,109.326c-0.509,1-1.156,2.033-1.944,3.1s-1.657,2.123-2.608,3.174
		c-0.952,1.051-1.853,1.986-2.707,2.807c-0.853,0.818-1.616,1.482-2.289,1.992c-0.672,0.508-1.107,0.764-1.304,0.764
		c-0.098,0-0.147-0.051-0.147-0.148c0-0.262,0.205-0.756,0.615-1.477c0.41-0.723,0.952-1.559,1.624-2.51
		c0.673-0.951,1.419-1.977,2.239-3.076c0.819-1.1,1.648-2.166,2.485-3.197c0.836-1.035,1.631-1.979,2.386-2.83
		c0.754-0.854,1.378-1.543,1.87-2.068c0-0.031,0.017-0.064,0.05-0.098c0.065-0.066,0.091-0.1,0.125-0.1
		c0.099,0,0.272,0.166,0.272,0.492v0.148c0,0.064,0.031,0.131,0.048,0.197c0.016,0.064,0.035,0.131,0.035,0.197
		C94.083,107.447,93.84,108.324,93.332,109.326z M95.153,96.973c-0.837,0.476-1.583,0.869-2.239,1.181
		c-0.657,0.312-1.116,0.468-1.378,0.468c-0.066,0-0.098-0.017-0.098-0.049c0-0.164,0.204-0.45,0.615-0.861
		c0.41-0.409,0.942-0.886,1.599-1.428c0.656-0.541,1.395-1.099,2.215-1.674c0.819-0.572,1.648-1.098,2.485-1.574
		c0.837-0.476,1.632-0.869,2.386-1.181c0.755-0.312,1.394-0.468,1.92-0.468c0.13,0,0.196,0.032,0.196,0.099
		c0,0.165-0.245,0.443-0.738,0.837c-0.491,0.394-1.107,0.861-1.845,1.402c-0.738,0.541-1.567,1.1-2.485,1.673
		C96.867,95.972,95.99,96.498,95.153,96.973z"/>
	<path fill="#F58220" d="M135.63,85.678c0.131,0.1,0.278,0.165,0.442,0.197c0.656,0,1.263-0.147,1.821-0.442
		c0.558-0.296,1.066-0.623,1.526-0.985c0.524-0.426,1.001-0.918,1.428-1.476c0.162-0.164,0.262-0.32,0.295-0.468
		c0.032-0.148,0.049-0.303,0.049-0.468c0-0.196-0.049-0.385-0.148-0.565c-0.098-0.18-0.278-0.436-0.54-0.764
		c-0.066-0.065-0.132-0.099-0.198-0.099c-0.065,0-0.131-0.016-0.195-0.049c-0.1,0-0.182-0.016-0.247-0.049
		c-0.328,0-0.755,0.122-1.28,0.369c-0.524,0.246-1.04,0.565-1.55,0.96c-0.509,0.394-0.942,0.854-1.305,1.377
		c-0.36,0.526-0.54,1.051-0.54,1.575C135.188,85.219,135.334,85.515,135.63,85.678z"/>
	<path fill="#F58220" d="M169.144,85.678c0.131,0.1,0.278,0.165,0.442,0.197c0.656,0,1.263-0.147,1.821-0.442
		c0.558-0.296,1.066-0.623,1.526-0.985c0.524-0.426,1.001-0.918,1.428-1.476c0.162-0.164,0.262-0.32,0.295-0.468
		c0.032-0.148,0.049-0.303,0.049-0.468c0-0.196-0.049-0.385-0.148-0.565c-0.098-0.18-0.278-0.436-0.54-0.764
		c-0.066-0.065-0.132-0.099-0.198-0.099c-0.065,0-0.131-0.016-0.195-0.049c-0.1,0-0.182-0.016-0.247-0.049
		c-0.328,0-0.755,0.122-1.28,0.369c-0.524,0.246-1.041,0.565-1.55,0.96c-0.509,0.394-0.942,0.854-1.305,1.377
		c-0.36,0.526-0.54,1.051-0.54,1.575C168.701,85.219,168.848,85.515,169.144,85.678z"/>
	<path fill="#F58220" d="M199.927,90.501c-0.049-0.099-0.106-0.18-0.173-0.246c-0.065-0.099-0.132-0.18-0.196-0.246
		c-3.248,2.396-6.227,4.503-8.933,6.324c-2.707,1.82-4.995,3.174-6.864,4.06c0.031-0.426,0.187-0.886,0.467-1.377
		c0.278-0.493,0.696-1.092,1.256-1.797c0.556-0.705,1.254-1.551,2.09-2.535c0.838-0.983,1.829-2.182,2.979-3.592
		c0.296-0.262,0.483-0.492,0.565-0.689c0.082-0.196,0.124-0.36,0.124-0.492c0-0.263-0.108-0.483-0.32-0.664
		c-0.215-0.18-0.402-0.287-0.566-0.32c-0.196-0.229-0.345-0.386-0.442-0.468c-0.099-0.08-0.231-0.122-0.394-0.122
		c-0.132,0-0.256,0.024-0.369,0.073c-0.115,0.049-0.223,0.106-0.32,0.173c-0.131,0.099-0.23,0.181-0.296,0.245
		c-0.164-0.36-0.361-0.672-0.591-0.935c-0.229-0.262-0.524-0.394-0.885-0.394c-1.149,0-2.403,0.287-3.766,0.861
		c-1.361,0.573-2.724,1.328-4.084,2.264c-1.362,0.936-2.675,1.985-3.938,3.149c-0.317,0.294-0.627,0.587-0.928,0.879
		c-2.106,1.345-4.004,2.52-5.69,3.525c-2.003,1.182-3.906,2.265-5.709,3.25c-0.559,0.195-0.953,0.295-1.181,0.295
		c-0.396,0-0.592-0.18-0.592-0.541c0-0.23,0.065-0.509,0.196-0.838c0.066-0.129,0.132-0.262,0.197-0.394
		c0.328-0.983,0.87-2.025,1.625-3.124c0.754-1.1,1.525-2.125,2.312-3.076c0.918-1.083,1.919-2.181,3.002-3.297
		c0.229-0.229,0.344-0.41,0.344-0.542c0-0.065-0.016-0.123-0.049-0.172c-0.033-0.05-0.066-0.106-0.098-0.173
		c-0.066-0.031-0.115-0.064-0.147-0.098c-0.295-0.132-0.682-0.229-1.157-0.296c-0.476-0.064-0.829-0.098-1.059-0.098
		c-0.195,0-0.394,0.033-0.59,0.098c-0.197,0.066-0.377,0.132-0.542,0.197c-0.195,0.099-0.377,0.181-0.54,0.246
		c-0.164,0.065-0.469,0.337-0.911,0.812c-0.354,0.381-0.753,0.839-1.192,1.368c-0.15,0.107-0.31,0.225-0.455,0.329
		c-2.494,1.771-4.676,3.281-6.546,4.527c-1.871,1.247-3.567,2.272-5.095,3.077c-1.524,0.803-2.928,1.385-4.206,1.747
		c-1.28,0.361-2.561,0.541-3.839,0.541c-0.525,0-0.787-0.346-0.787-1.034c0-0.623,0.327-1.492,0.982-2.608
		c0.656-1.115,1.527-2.239,2.609-3.371c1.083-1.132,2.328-2.157,3.74-3.075c1.409-0.919,2.888-1.493,4.43-1.723
		c0.163,0,0.245,0.098,0.245,0.295c0,0.066-0.009,0.123-0.024,0.172c-0.018,0.05-0.024,0.091-0.024,0.124l-0.049,0.098
		c-0.198,0.264-0.501,0.566-0.911,0.91c-0.41,0.345-0.829,0.648-1.255,0.911c-0.491,0.361-1.018,0.688-1.574,0.984
		c-0.295,0.098-0.443,0.246-0.443,0.442c0,0.362,0.155,0.574,0.468,0.641c0.312,0.065,0.581,0.098,0.812,0.098
		c1.082,0,2.074-0.172,2.977-0.517c0.902-0.344,1.674-0.779,2.313-1.305c0.639-0.524,1.147-1.09,1.525-1.698
		c0.376-0.605,0.565-1.172,0.565-1.697c-0.032-0.36-0.164-0.688-0.394-0.983c-0.196-0.263-0.5-0.492-0.91-0.689
		s-1.009-0.296-1.796-0.296c-0.984,0-2.092,0.165-3.321,0.493c-1.231,0.327-2.485,0.795-3.766,1.401
		c-1.28,0.608-2.527,1.329-3.739,2.166c-1.216,0.837-2.307,1.78-3.274,2.829c-0.048,0.052-0.09,0.106-0.136,0.159
		c-2.048,1.305-3.899,2.452-5.547,3.434c-2.003,1.182-3.905,2.265-5.709,3.25c-0.558,0.195-0.953,0.295-1.181,0.295
		c-0.396,0-0.591-0.18-0.591-0.541c0-0.23,0.064-0.509,0.195-0.838c0.066-0.129,0.132-0.262,0.198-0.394
		c0.327-0.983,0.869-2.025,1.624-3.124c0.754-1.1,1.525-2.125,2.312-3.076c0.918-1.083,1.919-2.181,3.002-3.297
		c0.229-0.229,0.344-0.41,0.344-0.542c0-0.065-0.016-0.123-0.049-0.172c-0.033-0.05-0.066-0.106-0.098-0.173
		c-0.066-0.031-0.115-0.064-0.147-0.098c-0.295-0.132-0.682-0.229-1.157-0.296c-0.476-0.064-0.829-0.098-1.059-0.098
		c-0.195,0-0.394,0.033-0.589,0.098c-0.198,0.066-0.378,0.132-0.542,0.197c-0.196,0.099-0.378,0.181-0.541,0.246
		c-0.164,0.065-0.469,0.337-0.911,0.812s-0.951,1.066-1.525,1.771c-0.051,0.062-0.103,0.133-0.153,0.195
		c-1.026,0.724-2.017,1.396-2.971,2.02c-1.936,1.263-3.643,2.354-5.119,3.272c-1.738,1.082-3.33,2.018-4.773,2.805
		c-0.394,0.196-0.657,0.295-0.787,0.295c-0.164,0-0.246-0.081-0.246-0.245c0-0.36,0.229-0.861,0.688-1.501
		c0.459-0.641,1.034-1.337,1.723-2.092c0.689-0.755,1.428-1.525,2.215-2.313s1.525-1.517,2.214-2.19
		c0.689-0.672,1.264-1.245,1.724-1.722c0.458-0.476,0.688-0.795,0.688-0.96c0-0.328-0.262-0.549-0.787-0.664
		c-0.526-0.115-1.051-0.173-1.575-0.173c-0.327,0-0.583,0.05-0.763,0.148c-0.181,0.098-0.32,0.196-0.418,0.295
		c-0.132,0.132-0.229,0.278-0.296,0.443c-0.394,0.459-1.042,1.075-1.943,1.845c-0.902,0.771-1.895,1.584-2.977,2.437
		c-1.085,0.854-2.183,1.689-3.299,2.51s-2.065,1.493-2.854,2.018c-0.394,0.263-0.714,0.436-0.959,0.517
		c-0.246,0.082-0.435,0.123-0.566,0.123c-0.196,0-0.295-0.099-0.295-0.295c0-0.197,0.049-0.394,0.148-0.591
		c0.064-0.131,0.13-0.246,0.195-0.345c0.525-0.886,1.125-1.705,1.797-2.46s1.312-1.419,1.92-1.993
		c0.605-0.574,1.114-1.075,1.525-1.502c0.409-0.425,0.615-0.77,0.615-1.033c0-0.426-0.148-0.763-0.443-1.009
		c-0.296-0.246-0.623-0.369-0.983-0.369c-0.46,0-1.133,0.337-2.019,1.009c-0.887,0.673-1.829,1.542-2.83,2.609
		c-1,1.065-1.977,2.247-2.928,3.543c-0.951,1.297-1.723,2.567-2.313,3.813c-0.229,0.46-0.41,0.919-0.541,1.378
		s-0.197,0.885-0.197,1.279c0,0.525,0.148,0.959,0.444,1.305c0.294,0.344,0.804,0.518,1.524,0.518c0.525,0,1.148-0.223,1.87-0.666
		c0.721-0.443,1.428-0.951,2.116-1.525c0.689-0.572,1.296-1.115,1.821-1.623c0.524-0.509,0.869-0.83,1.033-0.961
		c0.492-0.523,0.886-0.787,1.181-0.787c0.1,0,0.148,0.05,0.148,0.148c0,0.066-0.024,0.132-0.075,0.196
		c-0.049,0.066-0.106,0.164-0.171,0.296c-0.164,0.558-0.378,1.075-0.641,1.549c-0.262,0.477-0.394,0.945-0.394,1.402
		c0,0.756,0.141,1.379,0.418,1.871c0.278,0.492,0.698,0.738,1.256,0.738c0.263,0,0.508-0.008,0.738-0.025
		c0.229-0.016,0.426-0.041,0.59-0.074c0.197-0.033,0.395-0.082,0.591-0.146c0.623-0.197,1.361-0.541,2.215-1.033
		s1.771-1.082,2.756-1.771s1.994-1.436,3.026-2.24c1.033-0.804,2.043-1.616,3.027-2.437c0.1-0.082,0.202-0.17,0.301-0.253
		c-0.362,0.673-0.688,1.328-0.941,1.952c-0.328,0.803-0.492,1.485-0.492,2.042c0,0.842,0.115,1.523,0.344,2.041
		c0.229,0.52,0.534,0.926,0.911,1.217s0.787,0.486,1.23,0.584c0.442,0.094,0.878,0.145,1.305,0.145c0.262,0,0.507-0.008,0.737-0.023
		c0.229-0.018,0.426-0.041,0.592-0.074c0.195-0.033,0.394-0.08,0.589-0.145c0.623-0.195,1.361-0.535,2.215-1.021
		s1.771-1.07,2.756-1.75c0.985-0.682,1.994-1.424,3.026-2.227c0.222-0.174,0.431-0.351,0.65-0.523
		c-0.115,0.564-0.182,1.139-0.182,1.729c0,0.854,0.113,1.541,0.345,2.066c0.228,0.525,0.531,0.936,0.909,1.23
		c0.376,0.295,0.787,0.492,1.231,0.59c0.442,0.098,0.876,0.148,1.303,0.148c1.149,0,2.437-0.246,3.864-0.738
		c1.427-0.492,2.903-1.148,4.429-1.969c1.526-0.82,3.052-1.738,4.577-2.756c1.525-1.017,2.97-2.042,4.33-3.075
		c0.054-0.04,0.104-0.08,0.156-0.12c-0.019,0.032-0.04,0.063-0.058,0.096c-0.509,0.886-0.928,1.73-1.255,2.535
		c-0.328,0.803-0.493,1.485-0.493,2.042c0,0.842,0.116,1.523,0.345,2.041c0.229,0.52,0.533,0.926,0.911,1.217
		c0.377,0.291,0.787,0.486,1.229,0.584c0.443,0.094,0.879,0.145,1.305,0.145c0.263,0,0.508-0.008,0.738-0.023
		c0.229-0.018,0.426-0.041,0.592-0.074c0.195-0.033,0.394-0.08,0.589-0.145c0.623-0.195,1.361-0.535,2.215-1.021
		s1.771-1.07,2.756-1.75c0.405-0.281,0.817-0.578,1.23-0.879c-0.16,0.445-0.245,0.844-0.245,1.186c0,0.623,0.115,1.107,0.344,1.451
		c0.229,0.346,0.477,0.617,0.738,0.812c0.327,0.229,0.689,0.393,1.083,0.492c0.852,0,1.779-0.318,2.779-0.959
		c1.001-0.641,1.961-1.336,2.879-2.092c1.05-0.887,2.116-1.903,3.199-3.051c0.131-0.131,0.229-0.197,0.296-0.197
		c0.032,0,0.049,0.049,0.049,0.147c0,0.1-0.024,0.271-0.074,0.518c-0.049,0.245-0.098,0.524-0.146,0.835
		c-0.049,0.312-0.091,0.633-0.124,0.961s-0.049,0.607-0.049,0.836c0,1.051,0.14,1.764,0.418,2.141s0.697,0.566,1.256,0.566
		c0.327,0,0.845-0.197,1.55-0.592c0.704-0.393,1.518-0.91,2.436-1.549c0.919-0.641,1.91-1.379,2.978-2.215
		c1.066-0.837,2.125-1.68,3.174-2.535c2.493-2.033,5.2-4.331,8.121-6.891c0.296-0.262,0.442-0.557,0.442-0.885
		C200,90.715,199.976,90.6,199.927,90.501z M181.151,95.915c-0.722,0.592-1.435,1.181-2.142,1.772
		c-0.705,0.59-1.36,1.106-1.968,1.55c-0.606,0.443-1.124,0.804-1.55,1.082c-0.427,0.28-0.722,0.419-0.887,0.419
		c-0.065,0-0.098-0.032-0.098-0.099c0-0.263,0.214-0.689,0.641-1.279c0.425-0.591,0.976-1.255,1.647-1.993s1.443-1.492,2.313-2.264
		c0.868-0.771,1.764-1.484,2.682-2.141s1.812-1.189,2.683-1.601c0.868-0.409,1.632-0.614,2.288-0.614
		c0.098,0,0.148,0.017,0.148,0.05c0,0.065-0.066,0.164-0.197,0.295C184.679,92.897,182.824,94.505,181.151,95.915z"/>
</g>
</svg>
