<?xml version="1.0" encoding="utf-8"?>
<!-- Generator: Adobe Illustrator 19.2.1, SVG Export Plug-In . SVG Version: 6.00 Build 0)  -->
<svg version="1.1" id="Capa_1" xmlns="http://www.w3.org/2000/svg" xmlns:xlink="http://www.w3.org/1999/xlink" x="0px" y="0px"
	 viewBox="0 0 895.6 266.3" style="enable-background:new 0 0 895.6 266.3;" xml:space="preserve">
<style type="text/css">
	.st0{fill:#FFFFFF;}
	.st1{fill:#F39200;}
</style>
<g>
	<g>
		<path class="st0" d="M209.9,33.6h-22.8v29.5h15.3v17h-15.3v48.9h-16.5V16.6h39.3V33.6z"/>
		<path class="st0" d="M260.5,16.6v89.2c-0.2,4.6-1.1,8.7-2.8,12.2c-1.4,3.1-3.5,6-6.6,8.3c-3.1,2.4-7.2,3.8-12.7,3.8
			c-5.5,0-9.8-1.4-12.8-3.8c-3.1-2.3-5-5.2-6.4-8.3c-1.7-3.5-2.6-7.6-2.7-12.2V16.6H233v89.2c0,3.2,0.8,5.3,2.3,7
			c0.8,0.8,1.8,1.2,3.2,1.2c2.9,0,4.3-1.8,4.9-4.1c0.5-1.1,0.6-2.4,0.6-4.1V16.6H260.5z"/>
		<path class="st0" d="M316.4,16.6v89.2c-0.2,4.6-1.1,8.7-2.8,12.2c-1.4,3.1-3.5,6-6.6,8.3c-3.1,2.4-7.2,3.8-12.7,3.8
			c-5.5,0-9.8-1.4-12.8-3.8c-3.1-2.3-5-5.2-6.4-8.3c-1.7-3.5-2.6-7.6-2.7-12.2V16.6h16.5v89.2c0,3.2,0.8,5.3,2.3,7
			c0.8,0.8,1.8,1.2,3.2,1.2c2.9,0,4.3-1.8,4.9-4.1c0.5-1.1,0.6-2.4,0.6-4.1V16.6H316.4z"/>
		<path class="st0" d="M372.4,16.6v89.2c-0.2,4.6-1.1,8.7-2.8,12.2c-1.4,3.1-3.5,6-6.6,8.3c-3.1,2.4-7.2,3.8-12.7,3.8
			c-5.5,0-9.8-1.4-12.8-3.8c-3.1-2.3-5-5.2-6.4-8.3c-1.7-3.5-2.6-7.6-2.7-12.2V16.6h16.5v89.2c0,3.2,0.8,5.3,2.3,7
			c0.8,0.8,1.8,1.2,3.2,1.2c2.9,0,4.3-1.8,4.9-4.1c0.5-1.1,0.6-2.4,0.6-4.1V16.6H372.4z"/>
		<path class="st0" d="M410.9,57V39.7c0-3.1-0.6-5.2-2.1-7c-0.8-0.8-2-1.2-3.4-1.2c-2.9,0-4.3,2.1-4.9,4.1c-0.5,1.2-0.6,2.6-0.6,4.1
			v67.5c0,3.2,0.8,5.3,2.3,7c0.8,0.8,1.8,1.2,3.2,1.2c2.9,0,4.3-1.8,4.9-4.1c0.5-1.1,0.6-2.4,0.6-4.1V86.9h-6.6V73h23.1v55.9h-9.8
			l-2-5.3c-3.1,3.8-7.5,6.6-12.8,6.6s-9-1.4-11.8-3.8c-2.8-2.3-4.6-5.2-5.8-8.3c-1.4-3.5-2-7.6-1.8-12.2V39.7
			c0.2-4.4,1.1-8.6,2.8-12.1c1.4-3.1,3.4-6.1,6.4-8.4c3.1-2.3,7.3-3.8,12.8-3.8c5.5,0,9.6,1.5,12.7,3.8c3.1,2.3,5.2,5.3,6.6,8.4
			c1.7,3.5,2.6,7.6,2.7,12.1V57H410.9z"/>
		<path class="st0" d="M434.8,128.9l17-112.3H472l17,112.3h-16l-3.1-22.9h-15.9l-3.1,22.9H434.8z M462.8,53.2l-0.5-2.9h-0.9
			l-0.5,2.9l-4.7,35.4h11.3L462.8,53.2z"/>
		<path class="st0" d="M520.1,16.6h16.5c7.2,0,14.4,1.8,19.9,7c5.5,5.2,9.2,13.8,9.2,26.6c0,12.8-3.7,21.2-9.2,26.4
			c-5.5,5.2-12.7,7.3-19.9,7.3v44.9h-16.5V16.6z M536.6,67.2c5,0,8.3-0.9,10.1-3.5c1.8-2.4,2.3-6.6,2.3-12.8
			c0-6.3-0.5-10.7-2.3-13.4c-1.8-2.7-5-4-10.1-4V67.2z"/>
		<path class="st0" d="M569.3,128.9l17-112.3h20.2l17,112.3h-16l-3.1-22.9h-15.9l-3.1,22.9H569.3z M597.3,53.2l-0.5-2.9h-0.9
			l-0.5,2.9l-4.7,35.4H602L597.3,53.2z"/>
		<path class="st0" d="M644.3,33.6l-8.4,19.9h-7.6l5.3-19.9h-5.3v-17h16V33.6z"/>
		<path class="st0" d="M654.1,16.6h16.5v97h21.8v15.3h-38.4V16.6z"/>
		<path class="st0" d="M696.1,128.9l17-112.3h20.2l17,112.3h-16l-3.1-22.9h-15.9l-3.1,22.9H696.1z M724.1,53.2l-0.5-2.9h-0.9
			l-0.5,2.9l-4.7,35.4h11.3L724.1,53.2z"/>
	</g>
	<g>
		<path class="st1" d="M134.1,123.4c-3.5,0-5.7-4.5-5.7-8.7c0-3.3,6.4-9.3,7.8-9.3c0.3,0-3.8,5-3,6.1c9.3,0,30.8-12.1,30.8-23.2
			c0-6.1-5.3-9.7-13.8-9.7c-42,0-115.4,71.1-112.4,109.1c1,11.4,9.4,14.6,19.9,14.6c25.6,0,67.3-23,99.6-49.2
			c0.1-0.1,1.6,0.5,1.1,0.8c-24,23.4-75.3,58-105.2,57.4c-14.6-0.3-27.2-6.7-28.1-23.3c-2.7-47.7,77.8-112.8,123.7-112.8
			c11.9,0,20.2,5,20.2,15.5C169,104.4,147.4,123.4,134.1,123.4z"/>
		<path class="st1" d="M194.2,135.6c-24.7,0-53.1,45.9-45.5,49.2c7.6,3.1,27.1-18.7,36.2-32.6c-0.7-1.2-2-5.3-1.5-6.7
			c0.4-1.4,4.5-5.4,6.3-5.6c1.4-0.1,2.9,1,3.1,1.4c2.6,4.2,5.9,7.4,11.3,6.9c9.1-0.8,14.2-6.1,15.7-6c-0.7,1.9-6.1,6.4-12.8,8.6
			c-3,1-5.9,1.2-8,1.2c-2,0-3.4-0.3-4.1-0.5c-3.7,18.1-31.9,37.7-46.3,36.9c-6.3-0.4-10.4-5.6-10.4-10.8c0-22.2,29.8-44.4,51.4-44.4
			c5.2,0,7.4,1.5,8.3,2.3c0.7,0.4,0.3,0.4-0.3,0.4C196.2,135.9,195.1,135.6,194.2,135.6z"/>
		<path class="st1" d="M236.1,180.7c8.6-2.3,28.1-21,36.8-29.2c0.8-0.7,1.5,0.4,1.1,0.8c-11.9,12.9-34.1,35.4-42.2,35.4
			c-1.4,0-2.9-1.2-4.2-2.9c-1.5-1.8-2.5-3.8-2.5-5.3c0-7.8,15.8-30.5,22.9-36.9c-11.2,5-31.2,21.5-41.3,32.4
			c-1.8,1.8-3.4,3.8-4.9,5.7c-3.7,4.4-4.6,8-2.6,9c-4.1,1-7.4-3.4-8.4-7.4c-0.3-1,0.4-4.6,3.8-10.9c3.3-6.4,8.4-14.4,12.9-20.7
			c4.9-6.9,10.9-14.2,14.4-16.9c0.5-0.5,1.4-0.7,1.8-0.7c3.4,0,8.6,5.3,8.6,8.7c0,0.5-0.5-0.1-1.6-0.3c-1.8-0.1-6.8,5.6-10.9,10.9
			c-6.4,8.4-13.5,18.5-15.5,22.3c1.5-2.2,4.1-4.9,6.9-7.6c15.3-15,39.2-33.4,43.9-33.4c3.3,0,7.6,7.4,5.9,8.9
			C257.5,145.6,236.4,174.3,236.1,180.7z"/>
		<path class="st1" d="M314.9,89.7c2.2-1.6,4-2.7,5-2.7c7.8-0.4,13.2,7.5,10.6,6c-4.6-2.2-13.6,10.6-19.3,18
			c-10.4,12.9-20,27.7-35.2,51.2l0.1,0.3c9.9-3.3,29.6-13.2,36.4-18.9c0.1-0.3,0.3-0.4,0.5-0.4c0.4,0,0.7,0.4,0.7,0.7
			c0,0.1,0,0.3,0,0.3c-4.2,4.1-17.3,12.4-28.6,18.4c-2.6,1.4-7.2,3.7-9.3,4.1c1,2.7,1.9,8,1.9,13.6c0,2.6-0.3,5.3-0.7,7.8
			c-7.5,38.8-41.6,65.8-47.4,66.1h-0.4c-2.7,0.1-6-4.5-6.1-6.8c-0.4-7.6,15.4-43.3,37.6-80.9c-3.7-3,1.6-10.2,5.7-10.2
			c12.9-20.7,26.7-40.5,37.2-54C307.8,96.8,311.7,92.4,314.9,89.7z M233.5,245.3c16.1-12,36.9-33.4,41.6-62c0.3-1.4,0.4-3,0.4-4.8
			c0-4.4-0.8-9.4-2.6-11.7c-15.7,25.1-34.7,63.1-40.5,77.3c-0.5,1.1-0.5,1.8-0.3,1.8C232.4,246,232.7,245.9,233.5,245.3z"/>
		<path class="st1" d="M296.9,179.5c-0.1,1.6,1.1,2.6,4.1,2.6c9.9,0,34.9-18.9,48.6-30.4c0.4-0.3,1.4,0.4,1,0.8
			c-10.2,9.5-37.3,35.6-55.5,35.6c-4.2,0-9.7-4.9-9.7-8.6c0-3.3,0.8-6,1.9-9c3.3-7.8,10.2-16.4,18.8-23.6
			c11.3-9.4,23.4-13.6,29.3-13.6c2,0,8.3,3.1,8.3,6.9c0,8.4-26.2,28.1-41.4,28.5C299.9,171.6,297.3,176,296.9,179.5z M304.1,166
			c11.9-1.4,34.5-23.4,35.3-28.6C324.3,142.3,308.6,158.8,304.1,166z"/>
		<path class="st1" d="M391.4,135.6c8.4-13.1,16.9-24.4,23.6-33.5c4.2-5.3,8-9.7,11.3-12.4c2-1.6,3.8-2.7,5-2.7
			c7.6-0.4,13.1,7.5,10.6,6c-4.6-2.2-13.8,10.6-19.5,18c-6,7.5-11.6,15.5-18.3,25.5c-12,18-22.9,36-26.3,44.6
			c7.2-0.5,31.2-23.8,37.2-29.4c0.8-0.7,1.5,0.4,1.1,0.8c-6.5,7.4-30.9,33-38.7,35.4c-1.6,0.5-3.1,0.1-4.5-0.5
			c-2.2-1.2-5.2-4.1-5.2-7.1c0-2.7,3-9.8,9.7-22.1c-4.8,3.8-32.8,30-39.9,30c-2.5,0-6.8-6.1-6.8-9.3c0-7.4,12.3-24.8,26.7-34.2
			c10.5-6.9,19.8-11.3,27.9-11.3C388,133.3,390.2,134.3,391.4,135.6z M390.2,137.5c-1.8-0.5-3.8-0.5-5.7,0
			c-5.7,1.5-14.7,8.4-22.2,15.8c-12.3,11.6-21.4,25.9-20.3,26.6c1.6,1,23.4-14.2,39.4-28.1L390.2,137.5z"/>
		<path class="st1" d="M409.2,179.5c-0.1,1.6,1.1,2.6,4.1,2.6c9.9,0,34.9-18.9,48.6-30.4c0.4-0.3,1.4,0.4,1,0.8
			c-10.2,9.5-37.3,35.6-55.5,35.6c-4.2,0-9.7-4.9-9.7-8.6c0-3.3,0.8-6,1.9-9c3.3-7.8,10.2-16.4,18.8-23.6
			c11.3-9.4,23.4-13.6,29.3-13.6c2,0,8.3,3.1,8.3,6.9c0,8.4-26.2,28.1-41.4,28.5C412.1,171.6,409.6,176,409.2,179.5z M416.4,166
			c11.9-1.4,34.5-23.4,35.3-28.6C436.5,142.3,420.9,158.8,416.4,166z"/>
		<path class="st1" d="M475.2,134.3c0.8-0.5,1.4-0.7,1.9-0.7c3.3,0,8.4,5.3,8.4,8.7c0,0.5-0.4-0.1-1.5-0.3c-2-0.1-6.8,5.2-10.9,10.6
			c-3.7,4.9-8.4,11.3-11.3,16.3c7.2-9.4,20.8-20.8,32.6-29.3c5.3-3.8,9.4-6.1,12.3-6.4c1.5-0.1,7.1,5.7,6.1,6.8
			c-3,3.1-14.3,13.1-18.8,23.7c6.5-0.5,15.9-6.7,24.4-14.2c0.1-0.1,1-0.3,1.1,0c-2.5,3.3-18.8,18.5-28.2,18.5
			c-2.5,0-6.5-4.8-6.5-6.4c0-3.8,4.4-11.7,7.9-15.8c-12.5,7.4-18.9,12.8-28.2,23c-6.9,7.5-15.1,19.5-12.1,20.8c-4,1-7.2-3.3-8.2-7.1
			c-0.3-1.2,0.4-3.8,2-6.9c3.4-7.8,9.5-17.2,15-24.9C466,143.9,471.8,137,475.2,134.3z"/>
		<path class="st1" d="M542.4,161.1c-4.1,4.1-30.7,27-36.4,27c-0.3,0-1-0.3-1.2-0.4c-2.5-1.2-6-6.4-6-9.1
			c0-14.9,31.2-45.2,56.3-45.2c5.2,0,12,2.2,12,8.6c0,2.3-1.2,4.6-2.6,6.4c-0.3,0.1-0.5,0-0.4-0.1c0.7-1.2,1.5-2.9,1.5-4.9
			c0-4.1-2.6-6.1-6.7-5.9c-7.9,0.4-17.8,6.1-26.7,13.6c-12.9,11-23.2,28.2-21.9,28.9c0.3,0.1,0.5,0.1,1,0
			c4.5-1.5,23.6-15.3,30.7-21.3c2.5-2.2,11.3-10.8,14.7-12.7c2.7-1.4,7.4,6.1,6.8,7.8c-0.7-1.4-12.9,13.5-17,22.2
			c-0.8,1.9-1.4,3.5-1.4,4.6c8.6-2.5,28.1-21.1,36.5-29c0.7-0.7,1.4,0.4,1,0.8c-11.9,12.9-34.1,35.7-42.2,35.7
			c-0.7,0-1.4-0.3-2.3-0.8c-1.9-1.1-4.5-4-4.5-6.4c0-1.4,0.5-3,1.1-5C536.1,170.8,539.8,164.5,542.4,161.1z"/>
		<path class="st1" d="M580.4,182.2c12.5-1.4,35.4-19.8,48.6-30.5c0.4-0.3,1.4,0.3,1,0.7c-11.7,11-38,35.7-54.9,35.7
			c-4.4,0-9.3-4.1-9.9-8.4c-0.1-1.1-0.1-2.5,0.3-4.1c1.1-5.7,6-15.3,15.1-24.1c11.2-11,24.9-18.1,34.6-18.1c3.1,0,7.8,4.6,7.8,6.7
			c0,5.2-6.7,10.2-11.2,13.6c-0.3,0.3-1,0-0.7-0.4c2.2-2.2,7.8-12.9,6.7-13.9c-14.6,0.3-41.3,31.1-41.3,40.6
			C576.5,182.1,579.2,182.4,580.4,182.2z"/>
		<path class="st1" d="M616.1,187.9c-2.2-0.7-5.6-4.1-5.6-6.5c0-7.9,19.8-37.6,28.5-44.6c0.7-0.7,1.5-0.8,2-0.8
			c3.1,0,8.6,5.4,8.6,8.9c0,0.5-0.7-0.1-1.8-0.3c-5.6-0.5-24.3,30.5-25.9,36.1c8.3-2.2,28.2-21.1,36.5-29.2c1-0.7,1.6,0.4,1.2,0.8
			c-11.9,12.8-33.5,35-42,35.7C617.2,188.1,616.8,188.1,616.1,187.9z M661.6,119.5c1.2,1.4,2,3.4,1.5,3.4c-0.3,0-1.4-0.5-2.9,0.1
			c-2.3,1-8.6,6.5-10.2,8.9c-1.9,2.5-4.8-0.4-4.9-2.9c-0.1-4,5-12.8,8.6-13.9C656.8,114.8,659.8,117.5,661.6,119.5z"/>
		<path class="st1" d="M699.5,135.6c-24.7,0-53.1,45.9-45.5,49.2c7.6,3.1,27.1-18.7,36.2-32.6c-0.7-1.2-2-5.3-1.5-6.7
			c0.4-1.4,4.5-5.4,6.3-5.6c1.4-0.1,2.9,1,3.1,1.4c2.6,4.2,5.9,7.4,11.3,6.9c9.1-0.8,14.2-6.1,15.7-6c-0.7,1.9-6.1,6.4-12.8,8.6
			c-3,1-5.9,1.2-8,1.2c-2,0-3.4-0.3-4.1-0.5c-3.7,18.1-31.9,37.7-46.3,36.9c-6.3-0.4-10.4-5.6-10.4-10.8c0-22.2,29.8-44.4,51.4-44.4
			c5.2,0,7.4,1.5,8.3,2.3c0.7,0.4,0.3,0.4-0.3,0.4C701.5,135.9,700.4,135.6,699.5,135.6z"/>
		<path class="st1" d="M741.4,180.7c8.6-2.3,28.1-21,36.8-29.2c0.8-0.7,1.5,0.4,1.1,0.8c-11.9,12.9-34.1,35.4-42.2,35.4
			c-1.4,0-2.9-1.2-4.2-2.9c-1.5-1.8-2.5-3.8-2.5-5.3c0-7.8,15.8-30.5,22.9-36.9c-11.2,5-31.2,21.5-41.3,32.4
			c-1.8,1.8-3.4,3.8-4.9,5.7c-3.7,4.4-4.6,8-2.6,9c-4.1,1-7.4-3.4-8.4-7.4c-0.3-1,0.4-4.6,3.8-10.9c3.3-6.4,8.4-14.4,12.9-20.7
			c4.9-6.9,10.9-14.2,14.4-16.9c0.5-0.5,1.4-0.7,1.8-0.7c3.4,0,8.6,5.3,8.6,8.7c0,0.5-0.5-0.1-1.6-0.3c-1.8-0.1-6.8,5.6-10.9,10.9
			c-6.4,8.4-13.5,18.5-15.5,22.3c1.5-2.2,4.1-4.9,6.9-7.6c15.3-15,39.2-33.4,43.9-33.4c3.3,0,7.6,7.4,5.9,8.9
			C762.8,145.6,741.7,174.3,741.4,180.7z"/>
		<path class="st1" d="M771,179.5c-0.1,1.6,1.1,2.6,4.1,2.6c9.9,0,34.9-18.9,48.6-30.4c0.4-0.3,1.4,0.4,1,0.8
			c-10.2,9.5-37.3,35.6-55.5,35.6c-4.2,0-9.7-4.9-9.7-8.6c0-3.3,0.8-6,1.9-9c3.3-7.8,10.2-16.4,18.8-23.6
			c11.3-9.4,23.4-13.6,29.3-13.6c2,0,8.3,3.1,8.3,6.9c0,8.4-26.2,28.1-41.4,28.5C774,171.6,771.4,176,771,179.5z M778.2,166
			c11.9-1.4,34.5-23.4,35.3-28.6C798.4,142.3,782.7,158.8,778.2,166z"/>
		<path class="st1" d="M827.1,157.6c-0.5,2.3,2.7,4.5,4.1,5.7c21.8-12.3,39.2-15.3,41-15.3c0.3,0,0.8,0.3,0.8,0.7
			c1.2,0.4-25.8,7.5-40.6,16.4c1.8,1.4,5.2,5.3,4.8,8.2c-1.9,8.9-19.9,16.1-28.7,16.1c-3,0-4.5-2.5-5.2-5.5
			c0.4-5.9,20.4-17.3,25.2-19.2c-1.5-1.9-9.5-6.8-8.3-12.8c2.2-10.4,21.8-20.6,33.8-20.6c3.8,0,5.6,6.3,5.2,10.2
			c-0.1,1.9-8.7,10.1-12.4,10.1c-0.1,0-0.4-0.5-0.3-0.5c0.4,0,9.5-9.5,9.8-12.3C850,138.2,828.9,151.2,827.1,157.6z M806.8,182.4
			c5.3-1.5,22.2-10.2,22.2-15.4C820.9,171.6,810.8,178.4,806.8,182.4z"/>
	</g>
</g>
</svg>
