<?xml version="1.0" encoding="utf-8"?>
<!-- Generator: Adobe Illustrator 19.2.1, SVG Export Plug-In . SVG Version: 6.00 Build 0)  -->
<svg version="1.1" id="Capa_1" xmlns="http://www.w3.org/2000/svg" xmlns:xlink="http://www.w3.org/1999/xlink" x="0px" y="0px"
	 viewBox="0 0 400 400" style="enable-background:new 0 0 400 400;" xml:space="preserve">
<style type="text/css">
	.st0{fill:#F08100;}
</style>
<g>
	<g>
		<path d="M23.9,263.5v-80.2h9.3c10.9,0,16.8,2.2,20,8.3c3.1,6.1,3.5,16.1,3.5,31.8c0,15.7-0.4,25.6-3.5,31.7
			c-3.2,6.1-9.1,8.3-20,8.3H23.9z M35.7,251.7c4,0,6.3-0.4,7.5-4.4c0.5-1.9,1-4.7,1.1-8.5c0.1-3.8,0.1-8.9,0.1-15.5
			c0-6.5,0-11.7-0.1-15.5c-0.1-3.7-0.5-6.5-1.1-8.5c-1.2-3.8-3.5-4.3-7.5-4.3V251.7z"/>
		<path d="M64.5,183.3h26.9v12.1H76.3v21h10.9v12.9H76.3v22h15.2v12.1H64.5V183.3z"/>
		<path d="M135.8,263.5l-6.1-33.8h-3.2v33.8h-11.8v-80.2h11.8c14.1,0,20.1,8,20.1,23.1c0,8-2.1,15.2-6.5,18.2l7.5,38.8H135.8z
			 M126.5,218.8c1.6,0,3.8-0.2,5.6-1.7c1.7-1.5,3.2-4.5,3.2-10.1c0-5.7-1.4-8.7-3.2-10.3c-1.7-1.5-3.9-1.6-5.6-1.6V218.8z"/>
		<path d="M154.1,183.3H181v12.1h-15.2v21h10.9v12.9h-10.9v22H181v12.1h-26.9V183.3z"/>
		<path d="M187.6,183.3h11.8c5.1,0,10.3,1.3,14.2,5s6.5,9.8,6.5,19s-2.6,15.2-6.5,18.9c-3.9,3.7-9.1,5.2-14.2,5.2v32.1h-11.8V183.3z
			 M199.4,219.4c3.6,0,5.9-0.7,7.2-2.5c1.3-1.7,1.6-4.7,1.6-9.2s-0.3-7.6-1.6-9.6s-3.6-2.8-7.2-2.8V219.4z"/>
		<path d="M222.7,263.5l12.1-80.2h14.4l12.1,80.2h-11.5l-2.2-16.4h-11.3l-2.2,16.4H222.7z M242.7,209.4l-0.3-2.1h-0.7l-0.3,2.1
			l-3.4,25.3h8.1L242.7,209.4z"/>
		<path d="M287.8,263.5l-6.1-33.8h-3.2v33.8h-11.8v-80.2h11.8c14.1,0,20.1,8,20.1,23.1c0,8-2.1,15.2-6.5,18.2l7.5,38.8H287.8z
			 M278.5,218.8c1.6,0,3.8-0.2,5.6-1.7c1.7-1.5,3.2-4.5,3.2-10.1c0-5.7-1.4-8.7-3.2-10.3c-1.7-1.5-3.9-1.6-5.6-1.6V218.8z"/>
		<path d="M302,195.5v-12.1h34v12.1h-11.1v68h-11.8v-68H302z"/>
		<path d="M371.2,247c-0.1,3.3-0.8,6.2-2,8.7c-1,2.2-2.5,4.3-4.7,5.9c-2.2,1.7-5.1,2.7-9.1,2.7s-7-1-9.2-2.7
			c-2.2-1.6-3.6-3.7-4.6-5.9c-1.2-2.5-1.9-5.5-2-8.7v-47.2c0.1-3.2,0.8-6.1,2-8.6c1-2.2,2.4-4.4,4.6-6c2.2-1.6,5.2-2.7,9.2-2.7
			s6.9,1.1,9.1,2.7c2.2,1.6,3.7,3.8,4.7,6c1.2,2.5,1.9,5.5,2,8.6V247z M359.5,199.8c0-2.2-0.4-3.7-1.5-5c-0.5-0.5-1.4-0.9-2.4-0.9
			c-2.1,0-3.1,1.5-3.5,2.9c-0.3,0.9-0.4,1.9-0.4,2.9V247c0,2.3,0.5,3.8,1.6,5c0.5,0.5,1.3,0.9,2.3,0.9c2.1,0,3.1-1.3,3.5-2.9
			c0.3-0.8,0.4-1.7,0.4-2.9V199.8z"/>
	</g>
	<g>
		<path class="st0" d="M54.6,168.3c-0.9,1.2-1.8,2.4-2.5,3.7c-0.2,0.3-0.4,0.7-0.6,1.3c-0.3,0.6-0.5,1.2-0.7,1.8
			c-0.2,0.6-0.2,1.1-0.2,1.5c0.1,0.4,0.4,0.5,1,0.4c0.3-0.1,0.6-0.2,0.9-0.4c0.3-0.2,0.6-0.3,0.8-0.5c0.6-0.4,1.1-0.9,1.6-1.3
			c0.5-0.5,1.1-1,1.6-1.5c0.9-1,1.8-2,2.7-3c0.9-1,1.8-2,2.7-3c0.4-0.4,0.7-0.7,1.1-1.1c0.4-0.4,0.8-0.6,1.4-0.7
			c0.6,0,1.1,0,1.4,0.3c0.4,0.2,0.6,0.5,0.8,0.8c0.2,0.3,0.3,0.7,0.3,1.1c0,0.4,0,0.8-0.1,1.1c-0.1,0.3-0.2,0.5-0.4,0.6
			c-0.2,0.2-0.4,0.4-0.6,0.6c-1.4,1.6-2.5,2.9-3.4,3.9c-0.9,1-1.8,2-2.6,2.8c-0.8,0.8-1.7,1.6-2.5,2.3c-0.9,0.7-1.8,1.3-2.8,1.9
			c-1,0.5-2,0.7-3,0.8c-1,0.1-2-0.1-3-0.5c-1-0.4-1.7-1-2.1-1.9c-0.5-0.9-0.8-1.8-1-2.8c-0.3-1.2-0.1-2.3,0.4-3.5
			c0.5-1.1,1-2.2,1.6-3.2c0.7-1.1,1.4-2.2,2.2-3.3c0.7-1.1,1.5-2.1,2.2-3.1c-0.9-0.4-1.9-0.7-3-0.8c-1.1-0.1-2.1-0.2-3.1-0.2
			c-1.1,0-2,0-2.6,0s-1.1,0-1.4,0c-0.3,0-0.5,0.1-0.6,0.1c-0.1,0.1-0.1,0.1-0.2,0.2l-1.1,1.2c-1.9,2.3-3.7,4.6-5.5,6.8
			c-1.8,2.3-3.5,4.5-5.1,6.8c-0.6,0.8-0.9,1.3-1.1,1.6c-0.2,0.3-0.3,0.5-0.5,0.6c-0.3,0.2-0.6,0.3-1,0.4c-0.4,0-0.7,0-1,0
			c-0.4-0.1-0.7-0.2-1.1-0.4c-0.4-0.2-0.7-0.5-0.9-0.8c-0.3-0.3-0.4-0.6-0.5-1c-0.1-0.4,0-0.7,0.2-1.1c0.2-0.4,0.4-0.8,0.7-1.1
			c0.3-0.4,0.5-0.7,0.8-1.1c2-2.7,3.7-5,5.1-6.7c1.3-1.8,2.7-3.4,3.9-4.9c-0.8,0.1-1.5,0.2-2.2,0.3c-0.7,0.1-1.5,0.2-2.2,0.3
			c-0.6,0.1-1.2,0.2-1.9,0.3c-0.6,0.1-1.3,0-1.9-0.2c-0.5-0.2-0.9-0.4-1.2-0.8c-0.4-0.4-0.6-0.8-0.6-1.3c-0.1-0.5,0.1-0.9,0.3-1.3
			c0.3-0.4,0.6-0.6,1.1-0.7c0.6-0.2,1.2-0.3,1.8-0.3c0.6-0.1,1.2-0.1,1.8-0.2c1.6-0.2,3.1-0.4,4.6-0.5c1.5-0.1,3-0.3,4.5-0.5
			l6.6-8.3c0.8-1,1.5-2,2.2-3.1c0.7-1,1.4-2.1,1.9-3.3c0.4-0.9,0.6-1.5,0.5-1.9c-0.1-0.4-0.3-0.7-0.6-0.8c-0.4-0.1-0.9-0.2-1.4-0.1
			c-0.6,0.1-1.2,0.2-1.9,0.3c-1.2,0.3-2.4,0.6-3.5,1.2c-1.1,0.5-2.2,1.2-3.3,1.9c-1,0.6-1.9,1.3-2.8,2.1c-0.9,0.8-1.7,1.7-2.3,2.7
			c-0.3,0.5-0.6,1.1-0.9,1.6c-0.3,0.6-0.5,1.2-0.6,1.8c-0.1,0.6-0.1,1.1,0,1.8c0.1,0.6,0.2,1.1,0.3,1.6c0.2,0.7,0.2,1.2-0.2,1.7
			c-0.3,0.5-0.8,0.7-1.4,0.8c-0.6,0.1-1.1,0-1.7-0.2c-0.6-0.3-1-0.6-1.3-1.1c-0.4-0.6-0.6-1.2-0.7-1.9c-0.1-0.7-0.2-1.3-0.2-1.9
			c-0.1-0.7,0-1.3,0.1-1.9c0.1-0.6,0.3-1.3,0.5-1.9c0.7-2.1,1.9-4,3.6-5.6c1.7-1.6,3.5-3,5.3-4.1c1.9-1.1,4.1-2,6.4-2.7
			c2.3-0.7,4.6-0.7,6.9-0.2c0.9,0.2,1.7,0.5,2.5,1c0.8,0.5,1.4,1.1,1.9,1.9c0.6,1.1,0.8,2.2,0.6,3.4c-0.2,1.2-0.6,2.3-1.1,3.3
			c-0.6,1.1-1.2,2.1-1.9,3c-0.7,1-1.4,1.9-2.1,2.9c-0.8,1.1-1.5,2.1-2.3,3.1c-0.8,1-1.6,2-2.4,3c1.6,0.1,3.3,0.2,5.1,0.3
			c1.8,0.2,3.3,0.7,4.5,1.6l18.1-22.9c0.5-0.5,1-0.8,1.6-1c0.7,0,1.3,0.2,1.8,0.5c0.5,0.3,0.9,0.6,1.3,1.2c0.3,0.5,0.4,1.1,0.1,1.6
			c-0.2,0.4-0.4,0.7-0.6,1c-0.3,0.3-0.5,0.6-0.8,0.8c-3.2,3.9-6,7.5-8.5,10.7c-2.5,3.2-5,6.4-7.4,9.4c-1,1.2-1.9,2.4-2.9,3.7
			C56.4,165.8,55.5,167,54.6,168.3z"/>
		<path class="st0" d="M79.7,172.6c-1.5,1.7-2.8,3.1-4.1,4.2c-1.3,1.1-2.6,2-3.9,2.7c-1.5,0.8-3.1,1.3-5,1.7c-1.8,0.4-3.5,0.1-5-0.8
			c-1-0.7-1.7-1.5-2-2.4c-0.3-0.9-0.5-1.9-0.4-3c0.1-1,0.3-2.1,0.6-3.1c0.4-1,0.7-2,1.1-2.8c1.4-2.7,3.1-5.3,5.2-7.6
			c2-2.3,4.3-4.2,6.9-5.5c1.5-0.9,3.1-1.4,4.9-1.6c1.8-0.2,3.4,0,4.9,0.8c1,0.6,1.6,1.4,2,2.4c0.4,1,0.5,2,0.4,3
			c-0.1,1-0.3,2.1-0.6,3.1c-0.4,1-0.7,1.9-1.1,2.7l-1.1,2.1c2-0.1,3.8-0.7,5.2-2c0.4-0.4,0.8-0.7,1.3-1c0.4-0.3,1-0.3,1.6-0.2
			c0.6,0.2,1,0.5,1.3,1c0.3,0.5,0.4,1,0.3,1.6c-0.1,0.6-0.4,1.1-1,1.6c-0.5,0.4-1,0.8-1.5,1.2c-1.6,1.2-3.2,1.9-5,2.2
			C83,173.1,81.3,173,79.7,172.6z M64.8,174.5c-0.3,1-0.3,1.7-0.1,2s0.6,0.4,1.1,0.3c0.5-0.1,1-0.3,1.6-0.6c0.6-0.4,1.1-0.7,1.6-1
			c1.2-0.8,2.2-1.7,3.2-2.6c1-0.9,1.9-1.9,2.7-2.9c-0.9-0.9-1.5-1.8-1.9-2.9c-0.4-1.1-0.7-2.2-0.8-3.4c-1.6,1.6-3.1,3.4-4.5,5.3
			C66.4,170.5,65.4,172.5,64.8,174.5z M77,159.6c-0.1,0.3-0.2,0.7-0.2,1.2c-0.1,0.5-0.1,1-0.1,1.6c0,0.6,0.1,1.2,0.2,1.8
			s0.4,1.2,0.7,1.7c0.7-0.9,1.2-1.7,1.5-2.5c0.3-0.8,0.6-1.5,0.8-2.2c0.2-0.7,0.2-1.2,0.1-1.5c-0.1-0.4-0.3-0.6-0.6-0.6
			c-0.3-0.1-0.7,0-1.1,0.1C77.8,159.2,77.4,159.4,77,159.6z"/>
		<path class="st0" d="M88.3,166c1.5-1.5,3-3,4.3-4.5c1.3-1.5,2.7-3.1,4-4.6c0.1-0.2,0.2-0.4,0.4-0.6c0.2-0.2,0.3-0.4,0.4-0.6
			c-0.1-0.5-0.1-1.1,0-1.7s0.2-1.2,0.5-1.7c0.2-0.5,0.6-0.9,1-1.3c0.4-0.3,1-0.5,1.6-0.6c0.8,0,1.4,0.2,2,0.7c0.6,0.5,0.9,1.1,1,1.9
			c0.1,0.5,0,1-0.2,1.5c-0.2,0.5-0.4,1-0.6,1.4l0.8,0.4c0.8,0.4,1.5,0.5,2.2,0.6c0.7,0,1.5,0.2,2.2,0.6c0.7,0.4,1.2,1,1.5,1.7
			c0.3,0.7,0.2,1.3-0.3,1.9c-1.6,1.8-3,3.5-4.3,5.1c-1.3,1.6-2.5,3.2-3.7,4.8c-0.2,0.3-0.5,0.8-0.9,1.6c-0.4,0.7-0.8,1.4-1,2.1
			c-0.3,0.7-0.4,1.2-0.3,1.6c0.1,0.4,0.5,0.4,1.3,0c1.5-0.8,3-2,4.4-3.4c1.4-1.5,3.3-3.3,5.5-5.6c0.3-0.4,0.6-0.7,1-1.1
			c0.4-0.4,0.7-0.7,1.1-0.9c0.8-0.3,1.6-0.2,2.2,0.3c0.7,0.5,1,1.2,0.8,2.1c-0.1,0.5-0.3,0.9-0.6,1.3c-0.3,0.3-0.6,0.7-1,1
			c-0.9,0.9-1.7,1.7-2.4,2.4c-0.7,0.7-1.2,1.3-1.8,1.8c-0.5,0.5-1,0.9-1.3,1.3c-0.4,0.4-0.8,0.8-1.1,1.1c-0.6,0.5-1.1,1-1.8,1.6
			c-0.6,0.5-1.3,1-1.9,1.5c-0.7,0.5-1.4,0.8-2.2,1.1c-0.8,0.3-1.6,0.4-2.4,0.4c-1.1,0-2-0.2-2.7-0.6c-0.8-0.4-1.3-1-1.8-1.7
			c-0.4-0.7-0.6-1.5-0.7-2.4s0-1.8,0.3-2.7c0.5-2,1.4-3.8,2.6-5.5c1.2-1.7,2.4-3.3,3.7-4.9c0.4-0.5,0.7-0.9,1-1.4
			c0.3-0.5,0.7-0.9,1.1-1.4c-0.3-0.1-0.7-0.3-1.1-0.5c-0.4-0.2-0.8-0.4-1-0.6c-0.4,0.5-0.7,0.9-1.1,1.4c-0.4,0.5-0.9,1-1.4,1.6
			c-0.5,0.6-1.2,1.3-1.9,2.1c-0.7,0.8-1.6,1.8-2.7,2.9c-0.3,0.3-0.6,0.6-0.9,1c-0.3,0.4-0.7,0.6-1.1,0.8c-0.6,0.3-1.1,0.4-1.6,0.2
			c-0.5-0.2-0.9-0.5-1.2-0.9c-0.3-0.4-0.5-0.9-0.5-1.4C87.7,166.9,87.9,166.4,88.3,166z"/>
		<path class="st0" d="M127.2,181.3c-1.2,0.1-2.3-0.1-3.2-0.5c-0.9-0.4-1.6-1-2.1-1.9c-0.3-0.5-0.5-1.2-0.6-2
			c-0.7,0.6-1.4,1.2-2.1,1.7c-0.7,0.5-1.4,1-2.2,1.4c-1.2,0.7-2.5,1.1-3.8,1.2c-1.3,0.2-2.5-0.1-3.7-0.7c-1.1-0.6-1.8-1.3-2.1-2.4
			c-0.3-1-0.4-2.1-0.3-3.2c0.1-1.1,0.4-2.3,0.8-3.4c0.5-1.1,0.9-2,1.4-2.7c1.6-2.5,3.5-4.8,5.6-7c2.1-2.2,4.5-4,7-5.5
			c1.2-0.6,2.4-1.1,3.6-1.6c1.2-0.4,2.5-0.6,3.8-0.5c2,0.2,3.5,0.9,4.5,2.3c0.3-0.4,0.7-0.8,1.2-1.2c0.5-0.4,0.9-0.6,1.3-0.6
			c0.8,0,1.4,0.3,2.1,0.9c0.6,0.6,0.9,1.2,0.9,1.9c0.1,0.7-0.2,1.4-0.7,1.9c-0.7,0.8-1.4,1.5-2.2,2.2c-0.8,0.7-1.5,1.5-2.2,2.4
			c-1.7,2-3.1,3.7-4.2,5.1c-1.1,1.4-2,2.8-2.8,4.3c-0.3,0.4-0.4,0.8-0.6,1.3c-0.1,0.5-0.2,0.8-0.2,1.1c0,0.3,0.2,0.5,0.4,0.6
			c0.3,0.1,0.7,0,1.2-0.3c0.7-0.4,1.3-0.8,1.8-1.3c0.6-0.5,1.1-1,1.7-1.6l6.3-6.3c0.3-0.3,0.6-0.6,1-1c0.3-0.4,0.7-0.7,1.1-0.9
			c0.8-0.3,1.6-0.2,2.2,0.3c0.7,0.5,1,1.2,0.9,2.1c-0.1,0.5-0.3,0.9-0.6,1.2c-0.3,0.3-0.6,0.6-0.9,1c-1.8,1.8-3.1,3.2-4,4.1
			s-1.7,1.7-2.4,2.4c-1.1,1-2.2,2-3.5,3C130.3,180.6,128.8,181.1,127.2,181.3z M122.7,162.3c-1.8,1.5-3.7,3.2-5.5,5.2
			c-1.8,2-3.2,3.9-4.2,5.9c-0.1,0.2-0.2,0.4-0.4,0.8c-0.2,0.4-0.3,0.8-0.4,1.1c-0.1,0.4-0.1,0.7-0.1,1c0,0.3,0.3,0.5,0.7,0.5
			c1.2-0.1,2.3-0.6,3.3-1.4c1-0.8,1.9-1.6,2.7-2.2c2.2-2,4.2-4.1,6-6.2c1.8-2.2,3.7-4.3,5.5-6.4c0.1-1-0.2-1.5-0.9-1.5
			s-1.5,0.2-2.4,0.6c-0.9,0.4-1.8,0.9-2.7,1.5C123.5,161.7,122.9,162.1,122.7,162.3z"/>
		<path class="st0" d="M139.2,166c1.5-1.5,3-3,4.3-4.5c1.3-1.5,2.7-3.1,4-4.6c0.1-0.2,0.2-0.4,0.4-0.6c0.2-0.2,0.3-0.4,0.4-0.6
			c-0.1-0.5-0.1-1.1,0-1.7s0.2-1.2,0.5-1.7c0.2-0.5,0.6-0.9,1-1.3c0.4-0.3,1-0.5,1.6-0.6c0.8,0,1.4,0.2,2,0.7c0.6,0.5,0.9,1.1,1,1.9
			c0.1,0.5,0,1-0.2,1.5c-0.2,0.5-0.4,1-0.6,1.4l0.8,0.4c0.8,0.4,1.5,0.5,2.2,0.6c0.7,0,1.5,0.2,2.2,0.6c0.7,0.4,1.2,1,1.5,1.7
			c0.3,0.7,0.2,1.3-0.3,1.9c-1.6,1.8-3,3.5-4.3,5.1c-1.3,1.6-2.5,3.2-3.7,4.8c-0.2,0.3-0.5,0.8-0.9,1.6c-0.4,0.7-0.8,1.4-1,2.1
			c-0.3,0.7-0.4,1.2-0.3,1.6c0.1,0.4,0.5,0.4,1.3,0c1.5-0.8,3-2,4.4-3.4c1.4-1.5,3.3-3.3,5.5-5.6c0.3-0.4,0.6-0.7,1-1.1
			c0.4-0.4,0.7-0.7,1.1-0.9c0.8-0.3,1.6-0.2,2.2,0.3c0.7,0.5,1,1.2,0.8,2.1c-0.1,0.5-0.3,0.9-0.6,1.3c-0.3,0.3-0.6,0.7-1,1
			c-0.9,0.9-1.7,1.7-2.4,2.4c-0.7,0.7-1.2,1.3-1.8,1.8c-0.5,0.5-1,0.9-1.3,1.3c-0.4,0.4-0.8,0.8-1.1,1.1c-0.6,0.5-1.1,1-1.8,1.6
			c-0.6,0.5-1.3,1-1.9,1.5c-0.7,0.5-1.4,0.8-2.2,1.1c-0.8,0.3-1.6,0.4-2.4,0.4c-1.1,0-2-0.2-2.7-0.6c-0.8-0.4-1.3-1-1.8-1.7
			c-0.4-0.7-0.6-1.5-0.7-2.4s0-1.8,0.3-2.7c0.5-2,1.4-3.8,2.6-5.5c1.2-1.7,2.4-3.3,3.7-4.9c0.4-0.5,0.7-0.9,1-1.4
			c0.3-0.5,0.7-0.9,1.1-1.4c-0.3-0.1-0.7-0.3-1.1-0.5c-0.4-0.2-0.8-0.4-1-0.6c-0.4,0.5-0.7,0.9-1.1,1.4c-0.4,0.5-0.9,1-1.4,1.6
			c-0.5,0.6-1.2,1.3-1.9,2.1c-0.7,0.8-1.6,1.8-2.7,2.9c-0.3,0.3-0.6,0.6-0.9,1c-0.3,0.4-0.7,0.6-1.1,0.8c-0.6,0.3-1.1,0.4-1.6,0.2
			c-0.5-0.2-0.9-0.5-1.2-0.9c-0.3-0.4-0.5-0.9-0.5-1.4C138.6,166.9,138.8,166.4,139.2,166z"/>
		<path class="st0" d="M163.2,181.3c-1,0-1.9-0.1-2.7-0.5c-0.9-0.4-1.5-1-2-1.9c-0.6-0.9-0.8-1.9-0.7-3c0.1-1.1,0.3-2.1,0.6-3
			c0.7-2.2,1.8-4.2,3.2-6.1c1.4-1.9,2.9-3.6,4.4-5.4c0.7-0.9,1.4-1.7,2.2-2.6c0.7-0.8,1.5-1.6,2.3-2.4c0.4-0.4,0.7-0.7,1.1-1.1
			c0.4-0.4,0.8-0.6,1.3-0.6c0.9,0,1.5,0.3,2.1,1c0.5,0.7,0.8,1.3,0.9,2.1c0,0.4-0.1,0.7-0.2,1c-0.1,0.2-0.3,0.5-0.6,0.8
			c-1.7,1.8-3.3,3.5-4.9,5.3c-1.6,1.7-3,3.6-4.4,5.5c-1,1.3-1.7,2.5-2.1,3.4c-0.4,1-0.5,1.7-0.4,2.1c0.2,0.4,0.6,0.5,1.3,0.2
			c0.7-0.3,1.8-1.1,3.1-2.3c0.7-0.7,1.5-1.4,2.4-2.3c0.9-0.9,2.2-2.2,4-4c0.4-0.4,0.7-0.7,1-1.1c0.3-0.4,0.7-0.7,1.2-0.9
			c0.8-0.3,1.6-0.2,2.2,0.3c0.7,0.5,1,1.2,0.8,2.1c-0.1,0.5-0.3,0.9-0.6,1.3c-0.3,0.3-0.7,0.7-1,1l-2.2,2.3
			c-0.7,0.7-1.4,1.4-2.1,2.1c-0.7,0.7-1.4,1.4-2.2,2.1c-1.5,1.5-2.9,2.6-4.2,3.4C165.9,180.8,164.6,181.2,163.2,181.3z M181,149.6
			c-0.9,0-1.7-0.3-2.4-1c-0.7-0.7-1-1.5-1-2.3c0-0.9,0.3-1.7,1-2.4c0.7-0.7,1.4-1,2.4-1c0.9,0,1.6,0.3,2.3,1c0.7,0.7,1,1.4,1,2.4
			c0,0.9-0.3,1.6-1,2.3C182.7,149.3,181.9,149.6,181,149.6z"/>
		<path class="st0" d="M172.2,176.8c-0.3-1.4-0.2-2.8,0.2-4.2c0.4-1.4,0.9-2.8,1.6-4.1c0.7-1.3,1.5-2.5,2.4-3.7
			c0.9-1.1,1.7-2.1,2.6-3c1-1.2,2.1-2.2,3.3-3.2c1.2-1,2.4-1.8,3.8-2.6c1-0.6,2.1-1,3.4-1.3c1.3-0.3,2.5-0.4,3.7-0.3
			c1.2,0.1,2.3,0.5,3.2,1.2c0.9,0.7,1.6,1.7,1.9,3c0.3,1.3,0.2,2.7-0.2,4.1c-0.4,1.4-0.9,2.7-1.6,4c-0.7,1.3-1.5,2.5-2.4,3.7
			c-0.9,1.2-1.7,2.2-2.6,3.1c-1,1.2-2.1,2.3-3.3,3.3c-1.2,1-2.4,1.9-3.8,2.6c-1,0.6-2.2,1-3.5,1.3c-1.3,0.3-2.6,0.4-3.8,0.3
			c-1.2-0.1-2.3-0.5-3.2-1.2S172.5,178.2,172.2,176.8z M188.7,160.3c-1.2,0.9-2.4,1.8-3.4,2.7c-1.7,1.7-3.3,3.5-4.6,5.4
			c-1.3,1.9-2.4,3.9-3,6.1c-0.4,1-0.4,1.7-0.2,2c0.3,0.3,0.6,0.4,1.2,0.3c0.5-0.1,1.1-0.4,1.7-0.7c0.6-0.3,1.1-0.6,1.4-0.9
			c0.6-0.4,1.2-0.9,1.8-1.3c0.6-0.5,1.1-1,1.7-1.5c1.1-1.1,2.1-2.2,3-3.5c0.9-1.2,1.8-2.5,2.6-3.8c0.4-0.6,0.7-1.2,1-1.9
			c0.3-0.6,0.6-1.3,0.8-2c0.2-1,0.2-1.6,0-1.9c-0.2-0.3-0.5-0.5-1-0.4c-0.4,0.1-0.9,0.2-1.5,0.6C189.7,159.7,189.2,160,188.7,160.3z
			"/>
		<path class="st0" d="M244.7,158.3c0,0.2-0.1,0.4-0.2,0.6c-0.1,0.2-0.3,0.4-0.6,0.6c-0.3,0.3-0.6,0.6-1,1c-0.4,0.4-0.9,1-1.5,1.6
			c-2.4,2.6-4.6,5.1-6.6,7.5c-1.9,2.4-3.8,4.9-5.6,7.2c-2.8,3.8-5.4,7.4-7.8,10.8c-2.4,3.4-4.5,6.9-6.5,10.4
			c-0.3,0.4-0.5,0.8-0.7,1.3c-0.2,0.4-0.4,0.9-0.6,1.3c-0.2,0.4-0.4,0.7-0.5,1c-0.2,0.3-0.4,0.5-0.8,0.7c-0.7,0.3-1.4,0.3-2.1,0
			c-0.7-0.2-1.3-0.6-1.7-1.3c-0.5-0.7-0.5-1.4-0.1-2.1c0.2-0.4,0.4-0.8,0.6-1.2c0.2-0.4,0.4-0.8,0.6-1.2c0.5-0.9,0.9-1.7,1.4-2.6
			c0.5-0.9,1-1.8,1.5-2.6c2.1-3.6,4.4-7.1,6.9-10.7c-0.4,0.2-0.8,0.3-1.2,0.4c-0.4,0.1-0.8,0.2-1.2,0.2c-1,0-1.9-0.2-2.7-0.5
			c-0.9-0.4-1.5-0.9-2-1.8c-0.6-1-0.8-2.1-0.6-3.2c0.1-1.1,0.4-2.1,0.8-3.1c0.5-1.3,1.3-2.7,2.3-4.2c1-1.5,2.1-3,3.4-4.4
			c1.2-1.4,2.5-2.8,3.7-4.2c1.2-1.3,2.3-2.5,3.3-3.4c0.4-0.3,0.7-0.6,1.1-1c0.4-0.4,0.8-0.6,1.3-0.6c0.9,0,1.6,0.3,2.1,1
			c0.5,0.6,0.8,1.3,0.8,2c0,0.7-0.2,1.3-0.6,1.8c-1.6,1.7-2.9,3.1-3.9,4.2c-1,1.1-1.9,2.1-2.6,2.9c-0.7,0.8-1.3,1.5-1.8,2.1
			c-0.5,0.6-0.9,1.1-1.3,1.6c-0.3,0.3-0.6,0.8-1.1,1.4c-0.5,0.7-0.9,1.3-1.3,2c-0.4,0.7-0.7,1.3-0.9,1.9c-0.2,0.6-0.2,0.9,0.2,1
			c0.2,0.1,0.4,0.1,0.7,0c0.3-0.1,0.7-0.3,1-0.5s0.7-0.5,1.1-0.7c0.4-0.3,0.7-0.5,1-0.7c1.9-1.4,3.6-2.9,5.3-4.5s3.2-3.2,4.8-4.9
			c1.5-1.7,3-3.3,4.5-5c1.5-1.7,3-3.3,4.6-4.8c0.3-0.3,0.5-0.5,0.8-0.6c0.3-0.2,0.7-0.2,1.1-0.1c0.8,0.2,1.4,0.6,1.9,1.2
			C244.4,156.7,244.7,157.4,244.7,158.3z"/>
		<path class="st0" d="M289.6,183.9c0.4-0.2,0.8-0.3,1.3-0.3c0.5,0,0.9,0.2,1.3,0.4c0.4,0.2,0.7,0.5,1,0.9c0.3,0.4,0.4,0.8,0.4,1.3
			c0,0.7-0.2,1.2-0.8,1.6c-0.6,0.3-1.2,0.6-1.8,0.7c-1.6,0.4-3.3,0.4-4.9,0c-1.6-0.4-3.2-0.9-4.6-1.6c-1.2-0.6-2.3-1.2-3.4-1.8
			c-1.1-0.7-2.2-1.3-3.3-1.9c-1.1-0.6-2.2-1.2-3.4-1.7c-1.1-0.5-2.3-0.8-3.5-1c-1.6-0.2-3.1,0.2-4.6,1.1c-0.3,0.2-0.6,0.4-0.9,0.5
			c-0.3,0.1-0.6,0.1-1,0c-0.7-0.1-1.4-0.4-1.9-0.9c-0.6-0.5-0.8-1.1-0.7-1.8c0-0.4,0.1-0.6,0.3-0.9c0.2-0.2,0.4-0.4,0.7-0.6
			c0.7-0.5,1.4-0.8,2.1-1.1c0.4-0.1,0.7-0.3,1-0.7c0.3-0.4,0.5-0.7,0.8-0.9c1.2-1.2,2.4-2.5,3.6-3.8c2.4-2.6,4.8-5.3,7-8
			c2.3-2.7,4.6-5.3,7-8c2.3-2.6,4.6-5.1,7.1-7.5c2.4-2.4,5-4.6,7.8-6.7c-1.2,0.2-2.3,0.4-3.2,0.5c-0.9,0.2-1.8,0.3-2.6,0.4
			c-0.8,0.1-1.7,0.2-2.6,0.3c-0.9,0.1-2,0.2-3.2,0.3c-0.5,0-0.9,0-1.4,0.1c-0.5,0.1-0.9,0-1.3-0.1c-0.7-0.1-1.3-0.4-1.8-1
			c-0.6-0.6-0.8-1.2-0.6-1.9c0-0.5,0.2-0.8,0.5-1c0.3-0.2,0.6-0.3,1-0.4s0.8-0.1,1.2-0.2c0.4,0,0.8,0,1.1,0c1.9-0.1,3.8-0.3,5.8-0.6
			c1.9-0.3,3.8-0.6,5.8-1c1.8-0.4,3.7-0.6,5.6-0.9c1.9-0.2,3.8-0.1,5.6,0.3c0.9,0.2,1.7,0.5,2.4,0.8c0.8,0.3,1.5,0.7,2.1,1.3
			c0.6,0.5,0.9,1.1,1,1.8c0.1,0.8-0.2,1.3-1,1.8c-0.6,0.3-1.3,0.3-2.1,0.1c-0.4-0.1-0.7-0.3-1-0.6c-0.3-0.3-0.7-0.4-1.1-0.2
			c-0.9,0.3-1.7,0.7-2.5,1.1c-0.8,0.4-1.5,0.9-2.2,1.3c-1.6,1-3.1,2.1-4.5,3.3c-1.4,1.2-2.8,2.5-4.1,3.8c-4.2,4.1-8.2,8.4-11.9,12.8
			c-3.7,4.4-7.5,8.8-11.4,12.9c1.4,0.4,2.8,0.9,4,1.5c1.2,0.6,2.5,1.2,3.6,1.9c1.2,0.7,2.3,1.3,3.4,1.9c1.1,0.6,2.3,1.2,3.5,1.7
			c0.8,0.4,1.7,0.6,2.6,0.8C287.8,184.5,288.7,184.3,289.6,183.9z"/>
		<path class="st0" d="M309.4,172.6c-1.5,1.7-2.8,3.1-4.1,4.2c-1.3,1.1-2.6,2-3.9,2.7c-1.5,0.8-3.1,1.3-5,1.7
			c-1.8,0.4-3.5,0.1-5-0.8c-1-0.7-1.7-1.5-2-2.4c-0.3-0.9-0.5-1.9-0.4-3c0.1-1,0.3-2.1,0.6-3.1c0.4-1,0.7-2,1.1-2.8
			c1.4-2.7,3.1-5.3,5.2-7.6c2-2.3,4.3-4.2,6.9-5.5c1.5-0.9,3.1-1.4,4.9-1.6c1.8-0.2,3.4,0,4.9,0.8c1,0.6,1.6,1.4,2,2.4
			c0.4,1,0.5,2,0.4,3c-0.1,1-0.3,2.1-0.6,3.1c-0.4,1-0.7,1.9-1.1,2.7l-1.1,2.1c2-0.1,3.8-0.7,5.2-2c0.4-0.4,0.8-0.7,1.3-1
			c0.4-0.3,1-0.3,1.6-0.2c0.6,0.2,1,0.5,1.3,1c0.3,0.5,0.4,1,0.3,1.6c-0.1,0.6-0.4,1.1-1,1.6c-0.5,0.4-1,0.8-1.5,1.2
			c-1.6,1.2-3.2,1.9-5,2.2C312.7,173.1,311,173,309.4,172.6z M294.5,174.5c-0.3,1-0.3,1.7-0.1,2s0.6,0.4,1.1,0.3
			c0.5-0.1,1-0.3,1.6-0.6c0.6-0.4,1.1-0.7,1.6-1c1.2-0.8,2.2-1.7,3.2-2.6c1-0.9,1.9-1.9,2.7-2.9c-0.9-0.9-1.5-1.8-1.9-2.9
			c-0.4-1.1-0.7-2.2-0.8-3.4c-1.6,1.6-3.1,3.4-4.5,5.3C296.1,170.5,295.1,172.5,294.5,174.5z M306.7,159.6c-0.1,0.3-0.2,0.7-0.2,1.2
			c-0.1,0.5-0.1,1-0.1,1.6c0,0.6,0.1,1.2,0.2,1.8s0.4,1.2,0.7,1.7c0.7-0.9,1.2-1.7,1.5-2.5c0.3-0.8,0.6-1.5,0.8-2.2
			c0.2-0.7,0.2-1.2,0.1-1.5c-0.1-0.4-0.3-0.6-0.6-0.6c-0.3-0.1-0.7,0-1.1,0.1C307.5,159.2,307.1,159.4,306.7,159.6z"/>
		<path class="st0" d="M331.2,181.2c-1.2,0-2.1-0.2-2.9-0.6c-0.7-0.5-1.3-1.1-1.6-1.9c-0.3-0.8-0.4-1.7-0.3-2.6
			c0.1-0.9,0.3-1.8,0.7-2.7c0.9-2,2-3.8,3.5-5.3c1.5-1.6,3-3.1,4.5-4.6c0.2-0.2,0.6-0.6,1.1-1.1c0.6-0.5,1.1-1.1,1.5-1.6
			c0.5-0.5,0.7-1,0.8-1.3c0.1-0.3-0.2-0.4-0.8-0.2c-1.2,0.4-2.3,0.9-3.4,1.5c-1.1,0.6-2.2,1.3-3.2,2c-1.2,0.9-2.3,1.8-3.5,2.7
			c-1.1,0.9-2.2,1.9-3.2,2.9c-0.6,0.6-1.3,1.3-2,2.1c-0.7,0.8-1.4,1.7-2.1,2.6c-0.7,0.9-1.4,1.8-2.1,2.8c-0.7,0.9-1.3,1.8-1.9,2.6
			c-0.3,0.3-0.5,0.6-0.6,1c-0.2,0.4-0.4,0.6-0.8,0.8c-0.8,0.3-1.5,0.2-2.4-0.2c-0.8-0.4-1.3-1-1.6-1.8c-0.2-0.4-0.2-0.8,0-1.1
			c0.2-0.4,0.3-0.7,0.5-1l1.8-3c0.7-1.1,1.4-2.2,2.1-3.3c0.8-1.1,1.6-2.3,2.6-3.6c1-1.3,2.2-2.8,3.5-4.4c1.3-1.6,2.9-3.5,4.8-5.6
			c0.2-0.2,0.4-0.4,0.6-0.6c0.2-0.2,0.5-0.4,0.7-0.5c0.9-0.3,1.7-0.1,2.4,0.5c0.7,0.7,1.2,1.4,1.3,2.3c1.3-0.9,2.6-1.6,4-2.2
			c1.4-0.6,2.9-1.1,4.5-1.3c1.2-0.2,2.1-0.1,2.7,0.2c0.7,0.3,1.2,0.7,1.6,1.3c0.5,0.6,0.7,1.2,0.7,1.9c0,0.7-0.1,1.3-0.3,1.9
			c-0.2,0.6-0.5,1.2-0.9,1.8c-0.4,0.6-0.8,1.1-1.1,1.6c-1.5,1.9-3,3.6-4.6,5.1c-1.6,1.6-3.1,3.2-4.5,5c-0.2,0.3-0.4,0.7-0.7,1.1
			c-0.3,0.4-0.5,0.8-0.6,1.2c-0.2,0.4-0.2,0.6-0.2,0.8c0,0.2,0.3,0.2,0.8,0c0.7-0.3,1.4-0.6,2.1-1.1c0.8-0.5,1.5-1.1,2.2-1.7
			c0.7-0.6,1.4-1.2,2.1-1.9c0.7-0.7,1.3-1.3,1.9-1.9l2.4-2.4c0.3-0.3,0.6-0.7,1-1.1c0.4-0.4,0.8-0.7,1.2-0.9
			c0.8-0.3,1.6-0.2,2.2,0.3c0.7,0.5,1,1.2,0.8,2.1c-0.1,0.5-0.3,0.9-0.6,1.3c-0.3,0.3-0.7,0.7-1,1l-2.3,2.4
			c-0.7,0.7-1.4,1.4-2.2,2.1c-0.7,0.7-1.5,1.4-2.2,2c-1.3,1.1-2.7,2.1-4.2,3C334.7,180.6,333,181.1,331.2,181.2z"/>
		<path class="st0" d="M360.7,181.3c-1.2,0.1-2.3-0.1-3.2-0.5c-0.9-0.4-1.6-1-2.1-1.9c-0.3-0.5-0.5-1.2-0.6-2
			c-0.7,0.6-1.4,1.2-2.1,1.7c-0.7,0.5-1.4,1-2.2,1.4c-1.2,0.7-2.5,1.1-3.8,1.2c-1.3,0.2-2.5-0.1-3.7-0.7c-1.1-0.6-1.8-1.3-2.1-2.4
			c-0.3-1-0.4-2.1-0.3-3.2c0.1-1.1,0.4-2.3,0.8-3.4c0.5-1.1,0.9-2,1.4-2.7c1.6-2.5,3.5-4.8,5.6-7c2.1-2.2,4.5-4,7-5.5
			c1.2-0.6,2.4-1.1,3.6-1.6c1.2-0.4,2.5-0.6,3.8-0.5c2,0.2,3.5,0.9,4.5,2.3c0.3-0.4,0.7-0.8,1.2-1.2c0.5-0.4,0.9-0.6,1.3-0.6
			c0.8,0,1.4,0.3,2.1,0.9c0.6,0.6,0.9,1.2,0.9,1.9c0,0.7-0.2,1.4-0.7,1.9c-0.7,0.8-1.4,1.5-2.2,2.2c-0.8,0.7-1.5,1.5-2.2,2.4
			c-1.7,2-3.1,3.7-4.2,5.1c-1.1,1.4-2,2.8-2.8,4.3c-0.3,0.4-0.4,0.8-0.6,1.3c-0.1,0.5-0.2,0.8-0.2,1.1c0,0.3,0.2,0.5,0.4,0.6
			c0.3,0.1,0.7,0,1.2-0.3c0.7-0.4,1.3-0.8,1.8-1.3c0.6-0.5,1.1-1,1.7-1.6l6.3-6.3c0.3-0.3,0.6-0.6,1-1c0.3-0.4,0.7-0.7,1.1-0.9
			c0.8-0.3,1.6-0.2,2.2,0.3c0.7,0.5,1,1.2,0.9,2.1c-0.1,0.5-0.3,0.9-0.6,1.2c-0.3,0.3-0.6,0.6-0.9,1c-1.8,1.8-3.1,3.2-4,4.1
			c-0.9,0.9-1.7,1.7-2.4,2.4c-1.1,1-2.2,2-3.5,3C363.8,180.6,362.4,181.1,360.7,181.3z M356.2,162.3c-1.8,1.5-3.7,3.2-5.5,5.2
			c-1.8,2-3.2,3.9-4.2,5.9c-0.1,0.2-0.2,0.4-0.4,0.8c-0.2,0.4-0.3,0.8-0.4,1.1c-0.1,0.4-0.1,0.7-0.1,1s0.3,0.5,0.7,0.5
			c1.2-0.1,2.3-0.6,3.3-1.4c1-0.8,1.9-1.6,2.7-2.2c2.2-2,4.2-4.1,6-6.2c1.8-2.2,3.7-4.3,5.5-6.4c0.1-1-0.2-1.5-0.9-1.5
			c-0.7,0-1.5,0.2-2.4,0.6c-0.9,0.4-1.8,0.9-2.7,1.5C357,161.7,356.4,162.1,356.2,162.3z"/>
	</g>
</g>
</svg>
