<?xml version="1.0" encoding="utf-8"?>
<!-- Generator: Adobe Illustrator 19.2.1, SVG Export Plug-In . SVG Version: 6.00 Build 0)  -->
<svg version="1.1" id="Capa_1" xmlns="http://www.w3.org/2000/svg" xmlns:xlink="http://www.w3.org/1999/xlink" x="0px" y="0px"
	 viewBox="0 0 161.3 24" style="enable-background:new 0 0 161.3 24;" xml:space="preserve">
<style type="text/css">
	.st0{fill:#F18524;}
</style>
<g>
	<g>
		<path class="st0" d="M2.6,6.3h2.1v14.3H2.6V6.3z"/>
		<path class="st0" d="M8.5,13.1l-0.2-0.7H8.2v8.1H6.2V6.3h1.9l2,7.5l0.2,0.7h0.1V6.3h1.9v14.3h-1.9L8.5,13.1z"/>
		<path class="st0" d="M16.1,13.1L16,12.5h-0.1v8.1h-1.9V6.3h1.9l2,7.5l0.2,0.7h0.1V6.3h1.9v14.3h-1.9L16.1,13.1z"/>
		<path class="st0" d="M27.1,17.6c0,0.6-0.1,1.1-0.4,1.6c-0.2,0.4-0.4,0.8-0.8,1.1c-0.4,0.3-0.9,0.5-1.6,0.5c-0.7,0-1.2-0.2-1.6-0.5
			c-0.4-0.3-0.6-0.7-0.8-1.1c-0.2-0.4-0.3-1-0.4-1.6V9.2c0-0.6,0.1-1.1,0.4-1.5c0.2-0.4,0.4-0.8,0.8-1.1c0.4-0.3,0.9-0.5,1.6-0.5
			c0.7,0,1.2,0.2,1.6,0.5c0.4,0.3,0.7,0.7,0.8,1.1c0.2,0.4,0.3,1,0.4,1.5V17.6z M25,9.2c0-0.4-0.1-0.7-0.3-0.9
			c-0.1-0.1-0.3-0.2-0.4-0.2c-0.4,0-0.5,0.3-0.6,0.5c-0.1,0.2-0.1,0.3-0.1,0.5v8.4c0,0.4,0.1,0.7,0.3,0.9c0.1,0.1,0.2,0.2,0.4,0.2
			c0.4,0,0.5-0.2,0.6-0.5C25,18,25,17.9,25,17.6V9.2z"/>
		<path class="st0" d="M32.3,6.3h2l-2.2,14.3h-2.1L27.9,6.3h2l1.1,7.9l0.1,0.6h0.1l0.1-0.6L32.3,6.3z"/>
		<path class="st0" d="M34.8,20.6l2.2-14.3h2.6l2.2,14.3h-2l-0.4-2.9h-2l-0.4,2.9H34.8z M38.3,10.9l-0.1-0.4h-0.1l-0.1,0.4l-0.6,4.5
			h1.4L38.3,10.9z"/>
		<path class="st0" d="M48.1,15.7v2c0,0.6-0.1,1.1-0.4,1.6c-0.2,0.4-0.4,0.8-0.8,1.1c-0.4,0.3-0.9,0.5-1.6,0.5
			c-0.7,0-1.2-0.2-1.6-0.5c-0.4-0.3-0.6-0.7-0.8-1.1c-0.2-0.4-0.3-1-0.4-1.6V9.2c0-0.6,0.1-1.1,0.4-1.5c0.2-0.4,0.4-0.8,0.8-1.1
			c0.4-0.3,0.9-0.5,1.6-0.5c0.7,0,1.2,0.2,1.6,0.5c0.4,0.3,0.7,0.7,0.8,1.1c0.2,0.4,0.3,1,0.4,1.5v2h-2v-2c0-0.4-0.1-0.7-0.3-0.9
			c-0.1-0.1-0.3-0.2-0.5-0.2c-0.4,0-0.5,0.3-0.6,0.5c-0.1,0.2-0.1,0.3-0.1,0.5v8.4c0,0.4,0.1,0.7,0.3,0.9c0.1,0.1,0.2,0.2,0.4,0.2
			c0.4,0,0.6-0.2,0.7-0.5c0.1-0.1,0.1-0.3,0.1-0.5v-2H48.1z"/>
		<path class="st0" d="M49.4,6.3h2.1v14.3h-2.1V6.3z"/>
		<path class="st0" d="M58.5,17.6c0,0.6-0.1,1.1-0.4,1.6c-0.2,0.4-0.4,0.8-0.8,1.1c-0.4,0.3-0.9,0.5-1.6,0.5s-1.2-0.2-1.6-0.5
			c-0.4-0.3-0.6-0.7-0.8-1.1c-0.2-0.4-0.3-1-0.4-1.6V9.2c0-0.6,0.1-1.1,0.4-1.5c0.2-0.4,0.4-0.8,0.8-1.1c0.4-0.3,0.9-0.5,1.6-0.5
			s1.2,0.2,1.6,0.5c0.4,0.3,0.7,0.7,0.8,1.1c0.2,0.4,0.3,1,0.4,1.5V17.6z M58,3.3L56.5,5H55l1-1.8H58z M56.4,9.2
			c0-0.4-0.1-0.7-0.3-0.9c-0.1-0.1-0.3-0.2-0.4-0.2c-0.4,0-0.5,0.3-0.6,0.5C55,8.8,55,9,55,9.2v8.4c0,0.4,0.1,0.7,0.3,0.9
			c0.1,0.1,0.2,0.2,0.4,0.2c0.4,0,0.5-0.2,0.6-0.5c0.1-0.1,0.1-0.3,0.1-0.5V9.2z"/>
		<path class="st0" d="M62.1,13.1L62,12.5h-0.1v8.1h-1.9V6.3h1.9l2,7.5l0.2,0.7h0.1V6.3h1.9v14.3h-1.9L62.1,13.1z"/>
		<path class="st0" d="M67.5,14.4h2.8v1.9h-2.8V14.4z"/>
		<path class="st0" d="M71.8,6.3h2.1c0.9,0,1.8,0.2,2.5,0.9s1.2,1.8,1.2,3.4s-0.5,2.7-1.2,3.4s-1.6,0.9-2.5,0.9v5.7h-2.1V6.3z
			 M73.9,12.7c0.6,0,1.1-0.1,1.3-0.4c0.2-0.3,0.3-0.8,0.3-1.6c0-0.8-0.1-1.4-0.3-1.7c-0.2-0.4-0.6-0.5-1.3-0.5V12.7z"/>
		<path class="st0" d="M78.1,20.6l2.2-14.3h2.6L85,20.6h-2l-0.4-2.9h-2l-0.4,2.9H78.1z M81.7,10.9l-0.1-0.4h-0.1l-0.1,0.4l-0.6,4.5
			h1.4L81.7,10.9z"/>
		<path class="st0" d="M89.3,10.1c0-0.5,0-1-0.2-1.4C89,8.3,88.8,8,88.4,8c-0.5,0-0.7,0.6-0.7,1.4c0,0.5,0.2,1,0.5,1.5
			c0.3,0.5,0.7,1.1,1.1,1.7c0.5,0.7,1,1.5,1.3,2.2s0.6,1.5,0.6,2.2c0,1-0.2,1.9-0.6,2.5c-0.4,0.7-1.2,1.1-2.3,1.1
			c-1.3,0-2.1-0.5-2.5-1.3c-0.4-0.8-0.5-1.8-0.5-2.9l2.1-0.2c0,0.6,0,1.2,0.2,1.7c0.1,0.5,0.4,0.8,0.8,0.8c0.6,0,0.9-0.7,0.9-1.6
			c0-0.5-0.2-1-0.5-1.6c-0.2-0.3-0.3-0.6-0.5-0.9c-0.4-0.6-0.9-1.2-1.3-2s-0.8-1.5-1-2.2c-0.1-0.4-0.2-0.8-0.2-1.1
			c0-0.8,0.2-1.6,0.6-2.3c0.4-0.6,1.1-1.1,2.1-1.1c1.3,0,2,0.5,2.4,1.3c0.4,0.8,0.5,1.7,0.5,2.5L89.3,10.1z"/>
		<path class="st0" d="M92.5,6.3h2.1v14.3h-2.1V6.3z"/>
		<path class="st0" d="M101.6,17.6c0,0.6-0.1,1.1-0.4,1.6c-0.2,0.4-0.4,0.8-0.8,1.1c-0.4,0.3-0.9,0.5-1.6,0.5
			c-0.7,0-1.2-0.2-1.6-0.5c-0.4-0.3-0.6-0.7-0.8-1.1c-0.2-0.4-0.3-1-0.4-1.6V9.2c0-0.6,0.1-1.1,0.4-1.5c0.2-0.4,0.4-0.8,0.8-1.1
			c0.4-0.3,0.9-0.5,1.6-0.5c0.7,0,1.2,0.2,1.6,0.5c0.4,0.3,0.7,0.7,0.8,1.1c0.2,0.4,0.3,1,0.4,1.5V17.6z M101.1,3.3L99.6,5h-1.5
			l1-1.8H101.1z M99.5,9.2c0-0.4-0.1-0.7-0.3-0.9c-0.1-0.1-0.3-0.2-0.4-0.2c-0.4,0-0.5,0.3-0.6,0.5c-0.1,0.2-0.1,0.3-0.1,0.5v8.4
			c0,0.4,0.1,0.7,0.3,0.9c0.1,0.1,0.2,0.2,0.4,0.2c0.4,0,0.5-0.2,0.6-0.5c0.1-0.1,0.1-0.3,0.1-0.5V9.2z"/>
		<path class="st0" d="M105.3,13.1l-0.2-0.7H105v8.1H103V6.3h1.9l2,7.5l0.2,0.7h0.1V6.3h1.9v14.3h-1.9L105.3,13.1z"/>
		<path class="st0" d="M110.6,14.4h2.8v1.9h-2.8V14.4z"/>
		<path class="st0" d="M120.4,15.7v2c0,0.6-0.1,1.1-0.4,1.6c-0.2,0.4-0.4,0.8-0.8,1.1c-0.4,0.3-0.9,0.5-1.6,0.5
			c-0.7,0-1.2-0.2-1.6-0.5c-0.4-0.3-0.6-0.7-0.8-1.1c-0.2-0.4-0.3-1-0.4-1.6V9.2c0-0.6,0.1-1.1,0.4-1.5c0.2-0.4,0.4-0.8,0.8-1.1
			c0.4-0.3,0.9-0.5,1.6-0.5c0.7,0,1.2,0.2,1.6,0.5c0.4,0.3,0.7,0.7,0.8,1.1c0.2,0.4,0.3,1,0.4,1.5v2h-2v-2c0-0.4-0.1-0.7-0.3-0.9
			c-0.1-0.1-0.3-0.2-0.5-0.2c-0.4,0-0.5,0.3-0.6,0.5c-0.1,0.2-0.1,0.3-0.1,0.5v8.4c0,0.4,0.1,0.7,0.3,0.9c0.1,0.1,0.2,0.2,0.4,0.2
			c0.4,0,0.6-0.2,0.7-0.5c0.1-0.1,0.1-0.3,0.1-0.5v-2H120.4z"/>
		<path class="st0" d="M121.1,20.6l2.2-14.3h2.6l2.2,14.3h-2l-0.4-2.9h-2l-0.4,2.9H121.1z M124.7,10.9l-0.1-0.4h-0.1l-0.1,0.4
			l-0.6,4.5h1.4L124.7,10.9z"/>
		<path class="st0" d="M129,6.3h2.1v12.4h2.8v1.9H129V6.3z"/>
		<path class="st0" d="M134.7,6.3h2.1v14.3h-2.1V6.3z"/>
		<path class="st0" d="M138.4,20.6V6.3h1.7c1.9,0,3,0.4,3.6,1.5c0.5,1.1,0.6,2.9,0.6,5.7c0,2.8-0.1,4.6-0.6,5.7
			c-0.6,1.1-1.6,1.5-3.6,1.5H138.4z M140.5,18.5c0.7,0,1.1-0.1,1.3-0.8c0.1-0.3,0.2-0.8,0.2-1.5c0-0.7,0-1.6,0-2.8
			c0-1.2,0-2.1,0-2.8c0-0.7-0.1-1.2-0.2-1.5c-0.2-0.7-0.6-0.8-1.3-0.8V18.5z"/>
		<path class="st0" d="M145.1,20.6l2.2-14.3h2.6l2.2,14.3h-2l-0.4-2.9h-2l-0.4,2.9H145.1z M148.6,10.9l-0.1-0.4h-0.1l-0.1,0.4
			l-0.6,4.5h1.4L148.6,10.9z"/>
		<path class="st0" d="M152.9,20.6V6.3h1.7c1.9,0,3,0.4,3.6,1.5c0.5,1.1,0.6,2.9,0.6,5.7c0,2.8-0.1,4.6-0.6,5.7
			c-0.6,1.1-1.6,1.5-3.6,1.5H152.9z M155,18.5c0.7,0,1.1-0.1,1.3-0.8c0.1-0.3,0.2-0.8,0.2-1.5c0-0.7,0-1.6,0-2.8c0-1.2,0-2.1,0-2.8
			c0-0.7-0.1-1.2-0.2-1.5c-0.2-0.7-0.6-0.8-1.3-0.8V18.5z"/>
	</g>
</g>
</svg>
