<?xml version="1.0" encoding="utf-8"?>
<!-- Generator: Adobe Illustrator 15.0.0, SVG Export Plug-In . SVG Version: 6.00 Build 0)  -->
<!DOCTYPE svg PUBLIC "-//W3C//DTD SVG 1.1//EN" "http://www.w3.org/Graphics/SVG/1.1/DTD/svg11.dtd">
<svg version="1.1" id="Layer_1" xmlns="http://www.w3.org/2000/svg" xmlns:xlink="http://www.w3.org/1999/xlink" x="0px" y="0px"
	 width="200px" height="200px" viewBox="0 0 200 200" enable-background="new 0 0 200 200" xml:space="preserve">
<g>
	<g>
		<path d="M3.249,18.105h13.421v78.907h17.769v12.426H3.249V18.105z"/>
		<path d="M39.905,18.105h13.421v91.333H39.905V18.105z"/>
		<path d="M87.62,18.105h13.048l-13.917,91.333h-13.42L59.413,18.105H72.46l6.71,50.202l0.497,3.853h0.746l0.497-3.853L87.62,18.105
			z"/>
		<path d="M106.755,18.105h30.692v13.793h-17.271v23.982h12.426v14.663h-12.426v25.102h17.271v13.793h-30.692V18.105z"/>
	</g>
	<g>
		<path fill="#F4831F" d="M43.363,129.48c0,0.574-0.259,1.092-0.776,1.553c-0.172,0-0.905,0.574-2.197,1.723
			c-1.294,1.15-2.946,2.574-4.958,4.268c-2.012,1.695-4.268,3.521-6.767,5.474c-2.5,1.956-4.987,3.781-7.457,5.475
			c-2.472,1.695-4.843,3.104-7.112,4.225c-2.271,1.121-4.211,1.68-5.819,1.68c-2.702,0-4.728-0.833-6.078-2.499
			c-1.351-1.666-2.026-4.079-2.026-7.241c0.057-0.459,0.158-0.819,0.302-1.078c0.142-0.259,0.374-0.486,0.689-0.688
			c0.316-0.202,0.762-0.302,1.337-0.302c0.173,0.804,0.487,1.523,0.948,2.154c0.402,0.574,0.978,1.078,1.724,1.51
			c0.747,0.429,1.752,0.645,3.018,0.645c1.781,0,3.333-0.718,4.655-2.154c1.321-1.435,2.414-3.117,3.275-5.044
			c0.863-1.925,1.495-3.836,1.896-5.731c0.402-1.897,0.604-3.276,0.604-4.139c0-0.113-0.058-0.243-0.172-0.388
			c-0.116-0.144-0.345-0.216-0.689-0.216c-0.23,0-0.532,0.072-0.905,0.216c-0.375,0.145-0.791,0.388-1.25,0.732
			c-1.035,0.806-2.198,1.696-3.491,2.672c-1.294,0.979-2.515,1.928-3.664,2.845c-1.38,1.035-2.759,2.1-4.138,3.191
			c-0.806,0.461-1.724,0.688-2.759,0.688c-0.46,0-0.833-0.114-1.12-0.346C0.144,138.476,0,138.218,0,137.929
			c0-0.46,0.072-0.775,0.216-0.948c0.143-0.173,0.561-0.488,1.25-0.949c1.494-1.035,2.889-2.067,4.182-3.103
			c1.292-1.035,2.586-2.141,3.879-3.319c1.292-1.178,2.686-2.413,4.181-3.707c1.494-1.293,3.218-2.686,5.172-4.181
			c0.287-0.346,0.546-0.632,0.776-0.862c0.228-0.229,0.458-0.432,0.689-0.604c0.229-0.172,0.488-0.259,0.776-0.259
			c0.172,0,0.588,0.043,1.25,0.13c0.661,0.086,1.336,0.231,2.026,0.431c0.69,0.202,1.307,0.432,1.854,0.69
			c0.546,0.259,0.819,0.561,0.819,0.905c0,2.931-0.203,5.474-0.604,7.63c-0.403,2.154-0.849,3.966-1.336,5.43
			c-0.489,1.467-0.935,2.631-1.337,3.491c-0.403,0.863-0.603,1.41-0.603,1.639c0,0.116,0.056,0.173,0.172,0.173
			c0.114,0,0.344-0.086,0.689-0.259c1.608-0.804,3.045-1.58,4.311-2.327c1.263-0.746,2.5-1.522,3.707-2.328
			c1.207-0.804,2.485-1.681,3.836-2.629c1.35-0.949,2.888-2.082,4.612-3.405c0.287-0.286,0.617-0.545,0.992-0.776
			c0.374-0.229,0.733-0.488,1.077-0.776c0.115,0.116,0.229,0.259,0.345,0.432c0.115,0.115,0.215,0.259,0.302,0.432
			C43.32,129.049,43.363,129.251,43.363,129.48z"/>
		<path fill="#F4831F" d="M66.208,134.739c0,1.033-0.417,2.255-1.25,3.664c-0.834,1.407-1.94,2.845-3.319,4.309
			c-1.38,1.467-2.961,2.903-4.742,4.311c-1.782,1.41-3.65,2.66-5.604,3.75c-1.954,1.095-3.922,1.984-5.905,2.675
			c-1.983,0.688-3.836,1.032-5.56,1.032c-0.748,0-1.625-0.172-2.629-0.518c-1.007-0.345-1.798-0.919-2.371-1.723l-0.949-1.38h-0.086
			c-0.058,0-0.086-0.014-0.086-0.043c0-0.027-0.029-0.044-0.085-0.044c-0.403,0-1.25,0.562-2.543,1.683s-2.802,2.585-4.526,4.396
			c-1.724,1.81-3.562,3.821-5.517,6.034c-1.953,2.211-3.836,4.41-5.646,6.595c-1.811,2.184-3.434,4.237-4.871,6.165
			c-1.436,1.925-2.471,3.491-3.104,4.696c-0.114,0.288-0.229,0.547-0.344,0.776c-0.287,0.518-0.632,0.776-1.035,0.776
			c-0.345,0-0.66-0.115-0.948-0.345l-3.879-3.018l-0.173-0.172c-0.115-0.116-0.172-0.317-0.172-0.604
			c0-0.229,0.748-1.338,2.242-3.319c1.495-1.983,3.463-4.497,5.905-7.543c2.443-3.047,5.258-6.48,8.448-10.302
			c3.189-3.822,6.496-7.702,9.914-11.638c3.419-3.937,6.81-7.772,10.172-11.509c3.363-3.736,6.451-7.069,9.267-10
			c2.816-2.933,5.229-5.287,7.242-7.07c2.01-1.78,3.39-2.672,4.137-2.672c0.345,0,0.704,0.145,1.078,0.431
			c0.373,0.288,0.717,0.618,1.034,0.992c0.315,0.375,0.574,0.776,0.776,1.206c0.201,0.431,0.302,0.792,0.302,1.078
			c0,0.345-0.086,0.604-0.259,0.776c-3.392,2.931-6.438,5.763-9.138,8.491c-2.703,2.731-5.059,5.158-7.07,7.285
			c-2.299,2.472-4.368,4.799-6.207,6.982c-0.46,0.46-0.69,0.806-0.69,1.035c0,0.115,0.057,0.172,0.172,0.172
			c0.115,0,0.259-0.086,0.432-0.259c-0.058,0.058,0.271-0.229,0.991-0.862c0.718-0.631,1.681-1.437,2.889-2.413
			c1.207-0.979,2.585-2.041,4.138-3.191c1.551-1.148,3.174-2.225,4.87-3.232c1.695-1.004,3.39-1.839,5.086-2.499
			c1.695-0.661,3.29-0.992,4.785-0.992c0.689,0,1.321,0.202,1.896,0.604c1.149,0.979,1.925,1.868,2.327,2.672
			C66.006,132.785,66.208,133.705,66.208,134.739z M60.087,134.136c0-0.172-0.086-0.259-0.258-0.259
			c-0.69,0-1.783,0.375-3.276,1.119c-1.495,0.749-3.146,1.698-4.957,2.847c-1.811,1.15-3.664,2.399-5.561,3.75
			s-3.635,2.615-5.215,3.793c-1.582,1.179-2.875,2.17-3.879,2.974c-1.007,0.806-1.508,1.265-1.508,1.381
			c0,0.115,0.114,0.201,0.344,0.257c0.229,0.059,0.432,0.086,0.604,0.086c0.976,0,2.255-0.313,3.836-0.947
			c1.58-0.633,3.246-1.466,5-2.501c1.752-1.033,3.52-2.154,5.302-3.362c1.781-1.205,3.375-2.413,4.785-3.62
			c1.408-1.206,2.557-2.298,3.448-3.275C59.641,135.4,60.087,134.653,60.087,134.136z"/>
		<path fill="#F4831F" d="M109.57,128.531c0,0.576-0.259,1.092-0.776,1.553c-0.862,0.806-2.127,1.938-3.793,3.405
			c-1.669,1.464-3.507,2.931-5.518,4.396c-2.012,1.465-4.094,2.73-6.25,3.793c-2.155,1.064-4.153,1.594-5.991,1.594
			c-0.289,0-0.547-0.014-0.776-0.043c-0.23-0.027-0.489-0.07-0.775-0.129c-1.323,1.553-2.702,3.017-4.138,4.396
			c-1.437,1.38-2.888,2.574-4.354,3.578c-1.465,1.005-2.887,1.811-4.267,2.415c-1.38,0.602-2.702,0.903-3.965,0.903
			c-0.633-0.057-1.323-0.173-2.069-0.345c-0.748-0.173-1.453-0.488-2.112-0.947c-0.66-0.46-1.22-1.107-1.681-1.94
			c-0.46-0.831-0.69-1.938-0.69-3.318c0-1.726,0.532-3.75,1.595-6.077c1.063-2.329,2.586-4.686,4.569-7.069
			c1.983-2.386,4.397-4.655,7.241-6.812c2.845-2.154,6.048-3.892,9.612-5.215c0.746,0,1.164,0.13,1.25,0.389
			c0.086,0.259,0.359,0.417,0.819,0.475c0.401-0.058,0.703-0.202,0.905-0.432c0.201-0.229,0.618-0.374,1.251-0.432
			c0.286,0,0.616,0.073,0.991,0.216c0.374,0.144,0.789,0.445,1.25,0.904c0.229,0.23,0.46,0.489,0.69,0.775
			c0.172,0.289,0.33,0.591,0.474,0.906c0.143,0.315,0.216,0.676,0.216,1.078c0,1.609-0.446,3.505-1.337,5.688
			c-0.891,2.186-2.084,4.397-3.578,6.638c0.69,0,1.509-0.173,2.457-0.516c0.949-0.345,1.954-0.79,3.017-1.337
			c1.063-0.545,2.184-1.164,3.363-1.854c1.177-0.688,2.312-1.407,3.405-2.154c2.585-1.725,5.315-3.707,8.189-5.947
			c0.113,0.115,0.229,0.259,0.345,0.429c0.114,0.118,0.216,0.259,0.302,0.432C109.527,128.101,109.57,128.302,109.57,128.531z
			 M80.604,140.256c-0.461-0.345-0.876-0.819-1.25-1.423c-0.374-0.602-0.719-1.206-1.034-1.81c-0.317-0.604-0.576-1.121-0.776-1.553
			c-0.202-0.431-0.332-0.645-0.388-0.645c-1.495,1.378-2.758,2.844-3.793,4.395c-1.034,1.553-1.868,2.976-2.5,4.268
			c-0.633,1.294-1.078,2.372-1.337,3.232c-0.258,0.863-0.387,1.353-0.387,1.467c0,0.461,0.142,0.689,0.43,0.689
			c1.035,0,2.169-0.374,3.406-1.121c1.235-0.747,2.413-1.623,3.534-2.629c1.121-1.005,2.069-1.983,2.844-2.931
			C80.13,141.248,80.545,140.601,80.604,140.256z M88.362,127.928c0-0.113-0.058-0.173-0.172-0.173
			c-0.289,0-0.775,0.274-1.465,0.819c-0.689,0.547-1.394,1.165-2.112,1.854c-0.72,0.69-1.351,1.395-1.896,2.111
			c-0.547,0.72-0.818,1.251-0.818,1.596c0,0.173,0.172,0.518,0.517,1.033c0.344,0.518,0.603,0.776,0.775,0.776
			c0.574,0,1.164-0.388,1.767-1.162c0.604-0.776,1.165-1.653,1.681-2.631c0.518-0.977,0.934-1.882,1.25-2.715
			C88.204,128.604,88.362,128.101,88.362,127.928z"/>
		<path fill="#F4831F" d="M143.536,128.445c0,0.345-0.663,1.237-1.983,2.674c-1.323,1.437-3.033,3.117-5.131,5.042
			c-2.098,1.927-4.453,3.966-7.068,6.122c-2.615,2.154-5.201,4.136-7.759,5.947c-2.557,1.81-4.972,3.305-7.241,4.483
			c-2.271,1.176-4.096,1.766-5.474,1.766c-0.633,0-1.308-0.072-2.026-0.215c-0.72-0.144-1.379-0.432-1.982-0.861
			c-0.604-0.431-1.092-1.049-1.466-1.854c-0.375-0.804-0.561-1.838-0.561-3.103c0-0.977,0.129-1.94,0.388-2.888
			c0.259-0.949,0.79-1.983,1.596-3.105c0.804-1.119,1.952-2.37,3.448-3.75c1.494-1.378,3.505-2.987,6.034-4.826
			c-0.402,0-0.947-0.057-1.638-0.172c-0.689-0.116-1.409-0.288-2.156-0.518c-0.746-0.229-1.437-0.502-2.067-0.819
			c-0.634-0.316-1.064-0.647-1.294-0.992c-0.862,0.806-1.969,1.784-3.319,2.933s-2.83,2.386-4.439,3.707
			c-0.288,0.229-0.834,0.444-1.638,0.645c-0.806,0.204-1.551,0.302-2.242,0.302c-0.46,0-0.833-0.043-1.12-0.129
			c-0.288-0.086-0.431-0.271-0.431-0.559c0-0.173,0.1-0.418,0.302-0.733c0.201-0.315,0.561-0.646,1.077-0.992
			c1.494-1.092,3.061-2.211,4.699-3.361c1.638-1.149,3.375-2.384,5.216-3.707c-1.553-1.035-2.574-2.012-3.061-2.931
			c-0.49-0.92-0.733-1.467-0.733-1.639c0-1.263,0.416-2.055,1.249-2.37s1.998-0.475,3.491-0.475c0.518,0,1.28,0.245,2.286,0.733
			c1.004,0.488,2.098,1.021,3.275,1.594c1.178,0.576,2.327,1.107,3.448,1.596s2.055,0.732,2.801,0.732
			c1.035,0,2.098-0.244,3.189-0.732s2.271-0.733,3.537-0.733c0.917,0,1.58,0.202,1.981,0.604c0.977,1.265,1.58,2.068,1.812,2.413
			c0.228,0.346,0.343,0.634,0.343,0.863c0,0.517-0.343,1.005-1.033,1.466c-0.172,0.173-0.719,0.559-1.639,1.162
			c-0.919,0.604-1.997,1.353-3.232,2.243c-1.237,0.892-2.543,1.868-3.923,2.931c-1.38,1.064-2.658,2.143-3.836,3.232
			c-1.178,1.092-2.154,2.156-2.931,3.189c-0.776,1.035-1.164,1.954-1.164,2.758c0,0.173,0.143,0.259,0.431,0.259
			c0.804,0,2.154-0.473,4.052-1.421c1.896-0.949,4.225-2.255,6.983-3.923c2.758-1.666,5.862-3.65,9.311-5.949
			c3.448-2.298,7.126-4.826,11.035-7.587c0.057,0,0.143,0.032,0.259,0.087C143.418,127.7,143.536,127.986,143.536,128.445z"/>
		<path fill="#F4831F" d="M186.208,116.721c0,0.461-0.346,0.72-1.035,0.776c-0.402,0.059-1.208,0.173-2.413,0.345
			c-1.208,0.173-2.631,0.346-4.268,0.518c-1.639,0.173-3.392,0.359-5.26,0.561c-1.868,0.202-3.693,0.402-5.473,0.604
			c-1.782,0.201-3.421,0.358-4.915,0.472c-1.495,0.118-2.701,0.204-3.62,0.259c-0.577,0-1.553,0.561-2.931,1.683
			c-1.38,1.121-2.976,2.542-4.785,4.268c-1.812,1.723-3.68,3.634-5.604,5.731c-1.925,2.1-3.693,4.154-5.301,6.165
			c-1.609,2.012-2.931,3.88-3.966,5.603c-1.035,1.725-1.553,3.046-1.553,3.966c0,0.288,0.144,0.533,0.432,0.733
			c0.288,0.201,0.631,0.302,1.035,0.302c0.401,0,1.092-0.173,2.068-0.518c3.159-1.897,6.523-3.993,10.087-6.293
			c3.045-1.954,6.449-4.181,10.216-6.683c3.764-2.499,7.6-5.214,11.509-8.145c0.113,0.115,0.229,0.259,0.345,0.429
			c0.113,0.118,0.216,0.259,0.302,0.432s0.129,0.374,0.129,0.604c0,0.576-0.258,1.092-0.775,1.553
			c-4.54,4.254-8.881,8.161-13.019,11.725c-1.782,1.494-3.592,2.987-5.43,4.481c-1.841,1.495-3.637,2.875-5.39,4.138
			c-1.752,1.267-3.391,2.356-4.912,3.275c-1.525,0.92-2.833,1.553-3.923,1.898c-0.345,0.113-0.689,0.199-1.035,0.259
			c-0.288,0.057-0.633,0.1-1.034,0.129c-0.402,0.027-0.834,0.043-1.292,0.043c-1.496,0-2.86-0.662-4.096-1.983
			c-1.236-1.321-1.854-3.476-1.854-6.465c0-0.977,0.373-2.313,1.122-4.009c0.744-1.694,1.866-3.621,3.361-5.775
			c1.494-2.156,3.347-4.497,5.56-7.025c2.213-2.529,4.814-5.114,7.802-7.759l0.346-0.346c0.288-0.288,0.431-0.518,0.431-0.689
			c0-0.173-0.129-0.315-0.388-0.432c-0.259-0.113-0.733-0.173-1.422-0.173c-0.288,0-0.921,0.03-1.897,0.087
			c-0.978,0.059-2.154,0.086-3.534,0.086c-1.207,0-2.472-0.014-3.793-0.043c-1.323-0.027-2.572-0.13-3.75-0.302
			c-1.179-0.173-2.17-0.432-2.974-0.776c-0.806-0.345-1.237-0.831-1.294-1.465c-0.518-0.057-0.977-0.172-1.378-0.345
			c-0.346-0.115-0.647-0.272-0.906-0.475c-0.259-0.199-0.388-0.444-0.388-0.732c0-0.286,0.216-0.459,0.646-0.518
			c0.432-0.057,1.222-0.144,2.37-0.259c3.275-0.459,6.608-0.918,10-1.378c2.873-0.346,5.977-0.704,9.311-1.078
			c3.333-0.373,6.436-0.675,9.31-0.906l5.95-7.932c0.229-0.458,0.717-0.744,1.466-0.86c0.745-0.115,1.58-0.172,2.499-0.172
			c0.632,0,1.251,0.086,1.853,0.259c0.604,0.172,0.906,0.516,0.906,1.032c0,0.289-0.229,0.806-0.69,1.553l-2.154,3.018
			c-0.115,0.288-0.202,0.547-0.259,0.775c-0.059,0.229-0.115,0.461-0.173,0.69c-0.059,0.229-0.086,0.432-0.086,0.604
			c0,0.173,0.07,0.315,0.216,0.43c0.143,0.117,0.475,0.173,0.992,0.173c1.205,0,2.542-0.012,4.009-0.044
			c1.464-0.027,2.958,0.016,4.48,0.13c1.523,0.115,3.004,0.345,4.44,0.689c1.437,0.346,2.729,0.863,3.88,1.553
			c0.345,0.116,0.66,0.259,0.948,0.432c0.229,0.115,0.445,0.272,0.647,0.475C186.105,116.277,186.208,116.493,186.208,116.721z"/>
		<path fill="#F4831F" d="M200,129.48c0,0.574-0.259,1.092-0.776,1.553c-0.172,0-0.905,0.574-2.197,1.723
			c-1.294,1.15-2.946,2.574-4.957,4.268c-2.014,1.695-4.268,3.521-6.768,5.474c-2.501,1.956-4.986,3.781-7.457,5.475
			c-2.472,1.695-4.844,3.104-7.111,4.225c-2.272,1.121-4.211,1.68-5.82,1.68c-2.701,0-4.729-0.833-6.077-2.499
			c-1.351-1.666-2.026-4.079-2.026-7.241c0.057-0.459,0.158-0.819,0.302-1.078c0.143-0.259,0.374-0.486,0.689-0.688
			c0.316-0.202,0.761-0.302,1.337-0.302c0.173,0.804,0.486,1.523,0.947,2.154c0.401,0.574,0.979,1.078,1.725,1.51
			c0.747,0.429,1.753,0.645,3.018,0.645c1.781,0,3.332-0.718,4.655-2.154c1.321-1.435,2.413-3.117,3.275-5.044
			c0.863-1.925,1.494-3.836,1.896-5.731c0.402-1.897,0.604-3.276,0.604-4.139c0-0.113-0.058-0.243-0.173-0.388
			c-0.115-0.144-0.345-0.216-0.688-0.216c-0.23,0-0.533,0.072-0.905,0.216c-0.374,0.145-0.792,0.388-1.251,0.732
			c-1.035,0.806-2.197,1.696-3.491,2.672c-1.294,0.979-2.515,1.928-3.663,2.845c-1.381,1.035-2.759,2.1-4.139,3.191
			c-0.806,0.461-1.723,0.688-2.758,0.688c-0.461,0-0.833-0.114-1.121-0.346c-0.289-0.228-0.432-0.485-0.432-0.774
			c0-0.46,0.072-0.775,0.216-0.948c0.143-0.173,0.561-0.488,1.25-0.949c1.494-1.035,2.888-2.067,4.182-3.103
			c1.292-1.035,2.586-2.141,3.88-3.319c1.291-1.178,2.686-2.413,4.181-3.707c1.494-1.293,3.217-2.686,5.172-4.181
			c0.288-0.346,0.547-0.632,0.776-0.862c0.229-0.229,0.458-0.432,0.689-0.604c0.229-0.172,0.488-0.259,0.776-0.259
			c0.173,0,0.588,0.043,1.249,0.13c0.66,0.086,1.337,0.231,2.026,0.431c0.69,0.202,1.306,0.432,1.853,0.69s0.819,0.561,0.819,0.905
			c0,2.931-0.201,5.474-0.604,7.63c-0.401,2.154-0.849,3.966-1.335,5.43c-0.49,1.467-0.935,2.631-1.337,3.491
			c-0.403,0.863-0.604,1.41-0.604,1.639c0,0.116,0.057,0.173,0.172,0.173c0.114,0,0.346-0.086,0.69-0.259
			c1.607-0.804,3.044-1.58,4.311-2.327c1.263-0.746,2.499-1.522,3.707-2.328c1.205-0.804,2.485-1.681,3.836-2.629
			c1.349-0.949,2.888-2.082,4.611-3.405c0.288-0.286,0.617-0.545,0.991-0.776c0.375-0.229,0.733-0.488,1.078-0.776
			c0.114,0.116,0.229,0.259,0.346,0.432c0.113,0.115,0.215,0.259,0.302,0.432C199.957,129.049,200,129.251,200,129.48z"/>
	</g>
</g>
</svg>
