<?xml version="1.0" encoding="utf-8"?>
<!-- Generator: Adobe Illustrator 19.2.1, SVG Export Plug-In . SVG Version: 6.00 Build 0)  -->
<svg version="1.1" id="Capa_1" xmlns="http://www.w3.org/2000/svg" xmlns:xlink="http://www.w3.org/1999/xlink" x="0px" y="0px"
	 viewBox="0 0 400 400" style="enable-background:new 0 0 400 400;" xml:space="preserve">
<style type="text/css">
	.st0{fill:#F08100;}
</style>
<g>
	<g>
		<path d="M113.6,68.3h18V174h23.8v16.7h-41.8V68.3z"/>
		<path d="M162.7,68.3h18v122.4h-18V68.3z"/>
		<path d="M226.6,68.3h17.5l-18.6,122.4h-18L188.8,68.3h17.5l9,67.3l0.7,5.2h1l0.7-5.2L226.6,68.3z"/>
		<path d="M252.2,68.3h41.1v18.5h-23.1v32.1h16.7v19.6h-16.7v33.6h23.1v18.5h-41.1V68.3z"/>
	</g>
	<g>
		<path class="st0" d="M44.8,238.6c2.2-2.2,4.3-4.3,6.3-6.5c2-2.1,4-4.3,5.9-6.7c1.8-2.2,3.6-4.5,5.4-6.9c1.8-2.4,3.8-5.1,6-8.2
			c1-4.1,2.6-7.9,4.6-11.2c1.9-3,4.4-5.4,7.4-7.4c3-2,6.4-3,10.1-3c1.8,0,3.3,0.5,4.6,1.4c1.3,0.9,2,2.2,2.1,3.9
			c0,1.2-0.2,2.1-0.7,2.9c-0.5,0.8-1.1,1.4-1.8,2c-0.8,0.6-1.6,1.1-2.5,1.4c-0.9,0.4-1.7,0.8-2.5,1.4c-2.2,1.4-3.9,3.2-5.1,5.2
			c-1.2,2.1-2.1,4.2-2.6,6.4c-1.3,5.4-2,10.9-2.1,16.5c-0.1,5.6-0.5,11.2-1.2,16.7c-0.4,4.4-1.4,8.5-3.2,12.3c-1.7,3.8-4,7.1-6.7,10
			c-2.7,2.8-5.9,5.1-9.5,6.7c-3.6,1.6-7.6,2.3-12,2c-3.7-0.1-7.1-1-10.2-2.6c-3.1-1.6-5.6-3.7-7.6-6.2c-2-2.5-3.3-5.4-3.9-8.7
			c-0.6-3.3-0.2-6.7,1.1-10.1c0.5-1.5,1.5-2.6,3-3.1c1.5-0.5,2.9-0.6,4.3-0.3c1.4,0.3,2.5,1,3.4,2.1c0.9,1.1,1.1,2.4,0.6,4
			c-1.3,4.1-0.8,7.4,1.4,9.9c2.3,2.4,5.2,3.7,9,3.7c3,0,5.8-1.1,8.5-3.4c2.7-2.3,4.6-4.7,5.8-7.4c0.5-1,0.9-2.2,1.2-3.4
			c0.3-1.2,0.5-2.7,0.7-4.3c0.2-1.7,0.4-3.7,0.5-6.1c0.1-2.4,0.3-5.3,0.6-8.8c-2.3,2.8-4.6,5.5-6.9,7.9c-2.3,2.4-4.5,4.6-6.7,6.6
			c-1.3,1.2-2.6,1.6-4,1.3c-1.4-0.3-2.5-1-3.4-2c-0.9-1-1.4-2.3-1.5-3.8C43.2,241,43.7,239.7,44.8,238.6z"/>
		<path class="st0" d="M99.3,277.4c-2.1-0.1-4.1-0.7-6-1.6s-3.5-2.3-4.6-4c-6.4,7.7-13,15.8-19.8,24.2c-6.8,8.4-14.1,18.4-21.9,29.9
			c-0.6,0.9-1.2,1.9-1.7,2.9c-0.5,1-1.3,1.8-2.3,2.3c-1.7,0.6-3.4,0.7-5.1,0.3c-1.7-0.5-3.1-1.4-4.2-2.8c-1.3-1.8-1.7-3.5-1.2-5
			c0.4-1.2,0.9-2.3,1.6-3.3c0.7-1,1.4-2.1,2-3.1c7.7-12.1,15.9-23.5,24.6-34.1c8.7-10.6,17.4-21.2,26-31.6l30.3-37.1
			c0.5-0.8,1-1.4,1.5-1.9c0.5-0.5,1.3-0.8,2.3-1c1-0.1,2.1,0,3.1,0.4c1,0.4,2.3,1.2,3.7,2.5c3.3-1.9,6.3-3.4,8.9-4.3
			c2.6-1,5.4-1.3,8.5-0.9c3.1,0.3,5.7,1.4,7.8,3.5c2.1,2.1,3.4,4.4,3.8,7.1c0.5,3.7,0.2,7.4-1.1,10.9c-1.2,3.5-2.8,6.8-4.7,9.8
			c-4,6.2-8.7,12-14.1,17.6c-5.4,5.5-11.4,10.2-18,13.9c-3,1.7-6.1,3.1-9.3,4.2C106.3,277.2,102.9,277.7,99.3,277.4z M116.9,257.1
			c3.2-2.6,6.2-5.3,9-8.1c2.8-2.8,5.4-5.9,8-9.1c1.4-1.7,2.8-3.4,4.1-5.1c1.3-1.7,2.4-3.6,3.5-5.5c0.1-0.4,0.4-1,0.9-1.9
			c0.4-0.9,0.8-1.8,1-2.7c0.2-0.9,0.2-1.7,0.1-2.5c-0.1-0.8-0.6-1.3-1.5-1.5c-1-0.1-2.3,0.1-3.7,0.8c-1.4,0.6-2.9,1.5-4.3,2.6
			c-1.5,1.1-2.9,2.2-4.2,3.3c-1.3,1.1-2.3,2-3.1,2.6c-5.4,4.9-10.5,10-15.3,15.5c-4.8,5.4-9.4,11-13.9,16.8c-0.1,1,0,2,0.4,2.8
			c0.4,0.8,1.1,1.3,2.1,1.3c2.6,0,5.4-1,8.5-3C111.5,261.2,114.3,259.2,116.9,257.1z"/>
		<path class="st0" d="M203.7,255.4c-3.7,4.3-7.2,7.8-10.4,10.6c-3.2,2.8-6.5,5.2-9.9,7c-3.7,1.9-7.9,3.3-12.6,4.3
			c-4.6,0.9-8.8,0.3-12.6-1.9c-2.6-1.7-4.3-3.7-5.1-6.1c-0.8-2.4-1.2-4.9-1.1-7.5c0.1-2.6,0.6-5.3,1.5-7.9c0.9-2.6,1.9-5,2.9-7.1
			c3.6-7,8-13.4,13.1-19.3c5.2-5.9,11-10.6,17.6-13.9c3.7-2.2,7.9-3.6,12.5-4.2c4.6-0.6,8.7,0.1,12.5,2c2.4,1.5,4.1,3.5,5,6
			c0.9,2.4,1.3,5,1.1,7.6c-0.2,2.6-0.7,5.3-1.6,7.9c-0.9,2.6-1.9,4.9-2.9,6.9l-2.9,5.2c5.2-0.1,9.5-1.8,13.1-5c1-1,2.1-1.9,3.2-2.5
			c1.1-0.6,2.4-0.8,4-0.4c1.4,0.4,2.5,1.2,3.3,2.4c0.8,1.2,1,2.5,0.8,4c-0.3,1.5-1.1,2.9-2.4,4c-1.4,1.1-2.6,2.1-3.8,3
			c-4,3-8.2,4.8-12.6,5.5C212,256.6,207.8,256.4,203.7,255.4z M166,260.2c-0.8,2.6-0.9,4.2-0.3,5c0.6,0.8,1.5,1.1,2.7,0.9
			c1.2-0.2,2.6-0.7,4.2-1.6c1.5-0.9,2.9-1.7,4.1-2.5c3-2.1,5.7-4.3,8.1-6.7c2.4-2.4,4.8-4.9,7-7.4c-2.2-2.2-3.8-4.7-4.9-7.4
			c-1.1-2.8-1.8-5.6-2-8.6c-4,4.1-7.8,8.6-11.3,13.4C169.9,250.1,167.4,255.1,166,260.2z M196.9,222.5c-0.3,0.8-0.5,1.8-0.6,3
			c-0.1,1.2-0.2,2.6-0.2,4.1c0,1.5,0.2,3,0.6,4.5s1,3,1.7,4.2c1.7-2.2,2.9-4.3,3.8-6.3c0.8-2,1.5-3.9,2-5.7c0.4-1.7,0.4-3,0.2-3.9
			c-0.3-0.9-0.8-1.4-1.5-1.6c-0.8-0.2-1.7-0.1-2.8,0.2C199,221.4,197.9,221.9,196.9,222.5z"/>
		<path class="st0" d="M225.5,238.6c3.9-3.7,7.5-7.5,10.9-11.4c3.4-3.9,6.8-7.8,10.1-11.8c0.3-0.5,0.6-1,1.1-1.4
			c0.5-0.4,0.8-0.9,1.1-1.4c-0.3-1.3-0.3-2.7-0.1-4.2c0.2-1.5,0.6-3,1.2-4.3c0.6-1.3,1.4-2.3,2.5-3.2c1.1-0.8,2.4-1.3,4-1.4
			c1.9-0.1,3.6,0.5,5,1.7c1.4,1.3,2.3,2.9,2.5,4.8c0.1,1.3,0,2.5-0.4,3.8c-0.4,1.2-0.9,2.4-1.5,3.6l2.1,1c1.9,0.9,3.8,1.4,5.7,1.4
			c1.9,0.1,3.7,0.6,5.5,1.6c1.7,1,2.9,2.4,3.8,4.2c0.8,1.8,0.6,3.4-0.7,4.8c-4,4.5-7.6,8.8-10.9,12.8c-3.3,4.1-6.4,8.1-9.4,12.3
			c-0.5,0.8-1.3,2.1-2.3,4c-1,1.9-1.9,3.7-2.6,5.4c-0.7,1.7-1,3.1-0.8,4.2c0.2,1,1.3,1,3.2,0c3.9-2.1,7.6-5,11.2-8.7
			c3.6-3.7,8.2-8.4,13.9-14.1c0.8-0.9,1.6-1.8,2.5-2.8c0.9-1,1.9-1.7,2.9-2.2c2.1-0.8,4-0.5,5.7,0.9c1.7,1.4,2.4,3.1,2,5.3
			c-0.3,1.3-0.8,2.4-1.6,3.2c-0.8,0.8-1.6,1.7-2.4,2.6c-2.3,2.3-4.3,4.3-6,6.1c-1.7,1.7-3.2,3.2-4.4,4.4c-1.3,1.2-2.4,2.3-3.4,3.3
			c-1,1-1.9,1.9-2.8,2.8c-1.4,1.3-2.9,2.6-4.4,4s-3.2,2.6-4.9,3.8c-1.7,1.2-3.6,2.1-5.5,2.8c-1.9,0.7-3.9,1.1-6,1.1
			c-2.7,0-5-0.5-7-1.6c-1.9-1.1-3.4-2.5-4.4-4.3c-1-1.7-1.6-3.8-1.8-6.1s0-4.6,0.7-7c1.3-5,3.4-9.7,6.5-13.9c3-4.3,6.2-8.4,9.4-12.4
			c0.9-1.2,1.8-2.3,2.6-3.5c0.8-1.2,1.8-2.3,2.8-3.5c-0.8-0.3-1.7-0.6-2.8-1.2c-1.1-0.5-2-1-2.6-1.5c-0.9,1.2-1.9,2.4-2.9,3.6
			c-1,1.2-2.2,2.6-3.6,4.2c-1.4,1.5-3,3.4-4.8,5.4c-1.9,2.1-4.2,4.5-6.9,7.3c-0.8,0.8-1.5,1.6-2.3,2.5c-0.8,0.9-1.7,1.6-2.7,2.1
			c-1.4,0.8-2.8,0.9-4.1,0.5c-1.3-0.5-2.3-1.2-3.1-2.2c-0.8-1-1.2-2.2-1.2-3.6S224.5,239.7,225.5,238.6z"/>
		<path class="st0" d="M372.5,182.9c-0.4,0.4-1.4,0.8-2.9,1.3c-1.5,0.5-3.4,0.9-5.7,1.4c-2.3,0.5-4.8,1-7.7,1.4
			c-2.9,0.5-5.9,0.9-9,1.3c-5,5.4-9.8,10.6-14.4,15.6c-4.6,5-8.8,9.5-12.7,13.7c-3.9,4.2-7.3,7.9-10.2,11.2c-3,3.3-5.3,6-7,8
			c-3.2,3.7-6.3,7.6-9.2,11.7c-2.9,4.1-5.2,8.4-6.9,13c-0.8,2.6-0.6,4,0.4,4.2c1,0.2,2.3-0.2,4-1.1c1.6-0.9,3.2-2,4.7-3.2
			c1.5-1.2,2.5-2,2.9-2.4c1.8-1.7,3.8-3.6,5.9-5.8c2.1-2.2,5.2-5.5,9.4-10c0.8-0.9,1.6-1.9,2.5-2.9c0.9-1,1.9-1.9,2.9-2.5
			c1.8-1.2,3.6-1.3,5.5-0.4c1.9,0.9,2.9,2.4,3.2,4.4c0.1,1.2,0,2.2-0.5,3c-0.5,0.8-1.1,1.6-1.8,2.4c-2.2,2.3-4.1,4.3-5.6,6
			c-1.5,1.7-2.9,3.2-4.2,4.4c-1.2,1.3-2.3,2.4-3.2,3.4c-0.9,1-1.8,1.9-2.7,2.8c-3.1,3.2-6.5,6.2-10.3,9c-3.8,2.8-8.1,4.3-13,4.5
			c-4.1,0.3-7.5-1-10.2-3.7s-4-5.9-3.9-9.7c0.1-3.7,1-7.5,2.6-11.2c1.6-3.7,3.5-7.2,5.8-10.5c2.3-3.3,4.2-5.9,5.7-7.8
			c2.3-2.8,5.2-6.3,8.6-10.3c3.4-4.1,7-8.2,10.6-12.4c3.7-4.2,7.2-8.2,10.7-12.2c3.5-3.9,6.5-7.2,9.1-10l-11,1
			c-1,0.1-2.1,0.3-3.1,0.5c-1,0.2-1.9-0.2-2.7-1.3c-1.9-2.3-2.4-4.8-1.5-7.5c0.4-1.4,1.1-2.2,2.2-2.4c1.1-0.2,2.3-0.4,3.6-0.7
			c0.8-0.1,1.6-0.3,2.6-0.4c1-0.1,2.3-0.3,4.2-0.6c1.8-0.3,4.2-0.6,7.2-1.1c3-0.4,7-1,11.9-1.6l14.5-14.1c0.9-0.9,2.1-1.1,3.6-0.7
			c1.5,0.5,2.8,1.3,4.1,2.4c1.2,1.2,2.1,2.4,2.6,3.9c0.5,1.4,0.3,2.6-0.6,3.5l-3.1,3.1c4.6-0.9,7.8-1.4,9.4-1.5
			c1.6-0.1,2.7-0.1,3.2,0.2c0.5,0.3,0.9,0.8,1.2,1.6c0.3,0.8,0.4,1.8,0.4,2.9c0,1.1-0.2,2.2-0.5,3.3
			C373.7,181.2,373.2,182.1,372.5,182.9z"/>
		<path class="st0" d="M318.4,238.6c2.2-2.2,4.3-4.3,6.3-6.5c2-2.1,4-4.3,5.9-6.7c1.8-2.2,3.6-4.5,5.4-6.9c1.8-2.4,3.8-5.1,6-8.2
			c1-4.1,2.6-7.9,4.6-11.2c1.9-3,4.4-5.4,7.4-7.4c3-2,6.4-3,10.1-3c1.8,0,3.3,0.5,4.6,1.4c1.3,0.9,2,2.2,2.1,3.9
			c0,1.2-0.2,2.1-0.7,2.9c-0.5,0.8-1.1,1.4-1.8,2c-0.8,0.6-1.6,1.1-2.5,1.4c-0.9,0.4-1.7,0.8-2.5,1.4c-2.2,1.4-3.9,3.2-5.1,5.2
			c-1.2,2.1-2.1,4.2-2.6,6.4c-1.3,5.4-2,10.9-2.1,16.5c-0.1,5.6-0.5,11.2-1.2,16.7c-0.4,4.4-1.4,8.5-3.2,12.3c-1.7,3.8-4,7.1-6.7,10
			c-2.7,2.8-5.9,5.1-9.5,6.7c-3.6,1.6-7.6,2.3-12,2c-3.7-0.1-7.1-1-10.2-2.6c-3.1-1.6-5.6-3.7-7.6-6.2c-2-2.5-3.3-5.4-3.9-8.7
			c-0.6-3.3-0.2-6.7,1.1-10.1c0.5-1.5,1.5-2.6,3-3.1c1.5-0.5,2.9-0.6,4.2-0.3c1.4,0.3,2.5,1,3.4,2.1c0.9,1.1,1.1,2.4,0.6,4
			c-1.3,4.1-0.8,7.4,1.4,9.9c2.3,2.4,5.2,3.7,9,3.7c3,0,5.8-1.1,8.5-3.4c2.7-2.3,4.6-4.7,5.8-7.4c0.5-1,0.9-2.2,1.2-3.4
			c0.3-1.2,0.5-2.7,0.7-4.3c0.2-1.7,0.4-3.7,0.5-6.1c0.1-2.4,0.3-5.3,0.6-8.8c-2.3,2.8-4.6,5.5-6.9,7.9c-2.3,2.4-4.5,4.6-6.7,6.6
			c-1.3,1.2-2.6,1.6-4,1.3c-1.4-0.3-2.5-1-3.4-2c-0.9-1-1.4-2.3-1.5-3.8C316.8,241,317.3,239.7,318.4,238.6z"/>
	</g>
	<path class="st0" d="M85,322.9c-1.3,0-2.6-0.7-3.4-2.1c-1.4-2.3-1-5.6,0.9-7.2c33.5-30,82.3-24.4,134-18.6
		c44.9,5.1,91.4,10.4,136.9-3.9c2.2-0.7,4.5,1,5.1,3.7c0.6,2.8-0.8,5.6-3,6.3c-46.9,14.7-96.3,9.1-139.8,4.2
		c-52.2-5.9-97.3-11.1-128.3,16.6C86.7,322.6,85.8,322.9,85,322.9z"/>
</g>
</svg>
