<?xml version="1.0" encoding="utf-8"?>
<!-- Generator: Adobe Illustrator 19.2.1, SVG Export Plug-In . SVG Version: 6.00 Build 0)  -->
<svg version="1.1" id="Layer_1" xmlns="http://www.w3.org/2000/svg" xmlns:xlink="http://www.w3.org/1999/xlink" x="0px" y="0px"
	 viewBox="0 0 200 200" style="enable-background:new 0 0 200 200;" xml:space="preserve">
<style type="text/css">
	.st0{fill:#FFFFFF;}
</style>
<g>
	<g>
		<path class="st0" d="M4.7,77.4h11.1c6.8,0,10.4,3.5,10.4,9.2v10.7c0,5.7-3.6,9.2-10.4,9.2h-3.4v18.1H4.7V77.4z M18.5,86.6
			c0-1.8-0.9-2.8-2.8-2.8h-3.4V100h3.4c1.8,0,2.8-0.9,2.8-2.8V86.6z"/>
		<path class="st0" d="M30.6,124.6V77.4h7.6v47.2H30.6z"/>
		<path class="st0" d="M54,125c-6.9,0-10.7-3.7-10.7-9.4v-7.8h7.4v7.8c0,1.8,1.4,2.8,3.4,2.8c1.9,0,3.2-0.9,3.2-2.4v-4.2
			c0-7.6-13.8-7.7-13.8-20.6v-5.1c0-5.7,3.7-9.1,10.7-9.1c6.8,0,10.6,3.7,10.6,9.4v7.8h-7.4v-7.8c0-1.7-1.3-2.8-3.2-2.8
			c-2,0-3,0.8-3,2.4V91c0,4.2,5,6.6,9,9.9c2.7,2.2,4.9,5.9,4.9,10.5v4.2C65,121.4,61.1,125,54,125z"/>
		<path class="st0" d="M87.8,77.4v6.5H82v40.7h-7.6V83.9h-5.9v-6.5H87.8z"/>
		<path class="st0" d="M102.3,77c6.9,0,10.8,3.7,10.8,9.4v29.1c0,5.7-3.8,9.4-10.8,9.4c-6.9,0-10.8-3.8-10.8-9.4V86.4
			C91.6,80.8,95.4,77,102.3,77z M99.2,86.4v29.1c-0.5,3.6,6.7,3.6,6.3,0V86.4C105.9,82.8,98.8,82.8,99.2,86.4z"/>
		<path class="st0" d="M133.3,77.4h6.9v47.2h-8.1l-7.2-26.3c0.1,4.5,0.2,8.6,0.2,12.4v13.9h-6.9V77.4h8.3l7,25.8
			c-0.1-4.3-0.2-8.3-0.2-11.9V77.4z"/>
		<path class="st0" d="M164,83.9h-10.5v13.8h8.8v6.5h-8.8v14H164v6.5h-18.1V77.4H164V83.9z"/>
		<path class="st0" d="M177.7,125c-6.9,0-10.7-3.7-10.7-9.4v-7.8h7.4v7.8c0,1.8,1.4,2.8,3.4,2.8c1.9,0,3.2-0.9,3.2-2.4v-4.2
			c0-7.6-13.8-7.7-13.8-20.6v-5.1c0-5.7,3.7-9.1,10.7-9.1c6.8,0,10.6,3.7,10.6,9.4v7.8H181v-7.8c0-1.7-1.3-2.8-3.2-2.8
			c-2,0-3,0.8-3,2.4V91c0,4.2,5,6.6,9,9.9c2.7,2.2,4.9,5.9,4.9,10.5v4.2C188.6,121.4,184.7,125,177.7,125z"/>
	</g>
	<g>
		<g>
			<path class="st0" d="M194.7,75.7c-0.5-0.4-1-0.7-1.7-0.7c-0.7,0-1.2,0.2-1.7,0.7c-0.5,0.5-0.7,1-0.7,1.7c0,0.7,0.2,1.2,0.7,1.7
				c0.4,0.4,1,0.7,1.7,0.7c0.7,0,1.2-0.2,1.7-0.7c0.5-0.5,0.7-1,0.7-1.7C195.3,76.7,195.1,76.1,194.7,75.7 M194.3,78.7
				c-0.3,0.4-0.8,0.5-1.3,0.5c-0.5,0-1-0.2-1.3-0.5c-0.3-0.4-0.5-0.8-0.5-1.3c0-0.5,0.2-1,0.5-1.3c0.3-0.3,0.8-0.5,1.3-0.5
				c0.5,0,1,0.2,1.3,0.5c0.3,0.4,0.5,0.8,0.5,1.3S194.6,78.4,194.3,78.7"/>
			<path class="st0" d="M194.1,76.9c0-0.3-0.1-0.5-0.3-0.7c-0.2-0.2-0.4-0.2-0.8-0.2h-1v2.6h0.7v-0.8h0.2l0.4,0.8h0.8l-0.4-0.9
				C193.9,77.5,194.1,77.3,194.1,76.9 M193,77.3h-0.3v-0.6h0.3c0.2,0,0.4,0.1,0.4,0.3C193.3,77.2,193.2,77.3,193,77.3"/>
		</g>
	</g>
</g>
</svg>
