<?xml version="1.0" encoding="utf-8"?>
<!-- Generator: Adobe Illustrator 15.0.0, SVG Export Plug-In . SVG Version: 6.00 Build 0)  -->
<!DOCTYPE svg PUBLIC "-//W3C//DTD SVG 1.1//EN" "http://www.w3.org/Graphics/SVG/1.1/DTD/svg11.dtd">
<svg version="1.1" id="Layer_1" xmlns="http://www.w3.org/2000/svg" xmlns:xlink="http://www.w3.org/1999/xlink" x="0px" y="0px"
	 width="200px" height="200px" viewBox="0 0 200 200" enable-background="new 0 0 200 200" xml:space="preserve">
<g>
	<polygon fill="#FFFFFF" points="66.221,136.219 66.221,61.037 99.559,61.037 133.297,61.037 133.297,136.216 99.773,155.506 	"/>
	<path fill="#231F20" d="M99.773,156.204c-0.119,0-0.24-0.029-0.348-0.092l-33.553-19.288c-0.217-0.124-0.351-0.354-0.351-0.605
		v-75.18c0-0.388,0.313-0.7,0.7-0.7h67.075c0.388,0,0.7,0.312,0.7,0.7v75.177c0,0.253-0.134,0.482-0.351,0.606l-33.524,19.29
		C100.014,156.175,99.894,156.204,99.773,156.204 M66.919,135.814l32.854,18.884l32.825-18.886V61.737H66.919V135.814z"/>
	<polygon fill="#FFFFFF" points="133.297,51.312 133.297,78.89 99.958,78.89 66.22,78.89 66.22,51.312 99.746,44.495 	"/>
	<path fill="#231F20" d="M133.297,79.589H66.221c-0.387,0-0.7-0.312-0.7-0.699V51.312c0-0.333,0.234-0.62,0.561-0.685l33.524-6.819
		c0.09-0.018,0.186-0.018,0.278,0l33.552,6.818c0.326,0.066,0.56,0.352,0.56,0.685V78.89
		C133.996,79.276,133.684,79.589,133.297,79.589 M66.919,78.19h65.678V51.884l-32.852-6.675l-32.826,6.676V78.19z"/>
	<polygon fill="#231F20" points="85.309,113.943 85.309,143.469 87.542,144.742 87.542,113.943 	"/>
	<polygon fill="#231F20" points="78.652,113.943 78.652,139.667 80.885,140.942 80.885,113.943 	"/>
	<polygon fill="#231F20" points="81.98,113.943 81.98,141.568 84.212,142.843 84.212,113.943 	"/>
	<polygon fill="#231F20" points="130.573,134.123 130.573,113.943 128.58,113.943 128.58,135.263 	"/>
	<polygon fill="#231F20" points="88.638,113.943 88.638,145.37 90.87,146.645 90.87,113.943 	"/>
	<polygon fill="#231F20" points="71.995,113.943 71.995,135.864 74.228,137.14 74.228,113.943 	"/>
	<polygon fill="#231F20" points="68.945,113.943 68.945,134.123 70.898,135.239 70.898,113.943 	"/>
	<polygon fill="#231F20" points="75.323,113.943 75.323,137.767 77.556,139.042 77.556,113.943 	"/>
	<polygon fill="#231F20" points="115.267,113.943 115.267,142.872 117.499,141.596 117.499,113.943 	"/>
	<polygon fill="#231F20" points="99.559,113.943 98.624,113.943 98.624,151.071 99.771,151.728 100.856,151.108 100.856,113.943 	
		"/>
	<polygon fill="#231F20" points="108.609,113.943 108.609,146.676 110.842,145.399 110.842,113.943 	"/>
	<polygon fill="#231F20" points="105.28,113.943 105.28,148.579 107.514,147.303 107.514,113.943 	"/>
	<polygon fill="#231F20" points="111.938,113.943 111.938,144.774 114.171,143.499 114.171,113.943 	"/>
	<polygon fill="#231F20" points="118.595,113.943 118.595,140.97 120.827,139.695 120.827,113.943 	"/>
	<polygon fill="#231F20" points="121.924,113.943 121.924,139.066 124.156,137.792 124.156,113.943 	"/>
	<polygon fill="#231F20" points="91.966,113.943 91.966,147.271 94.198,148.545 94.198,113.943 	"/>
	<polygon fill="#231F20" points="101.953,113.943 101.953,150.48 104.185,149.205 104.185,113.943 	"/>
	<polygon fill="#231F20" points="125.252,113.943 125.252,137.164 127.485,135.89 127.485,113.943 	"/>
	<polygon fill="#231F20" points="95.295,113.943 95.295,149.17 97.527,150.447 97.527,113.943 	"/>
	<polygon fill="#231F20" points="68.943,53.502 68.943,78.647 70.898,78.647 70.898,53.12 	"/>
	<polygon fill="#231F20" points="104.185,78.647 104.185,48.354 101.953,47.919 101.953,78.647 	"/>
	<polygon fill="#231F20" points="107.514,78.647 107.514,49.003 105.28,48.568 105.28,78.647 	"/>
	<polygon fill="#231F20" points="97.527,78.647 97.527,47.922 95.295,48.357 95.295,78.647 	"/>
	<polygon fill="#231F20" points="94.198,78.647 94.198,48.572 91.966,49.006 91.966,78.647 	"/>
	<polygon fill="#231F20" points="90.87,78.647 90.87,49.221 88.638,49.657 88.638,78.647 	"/>
	<polygon fill="#231F20" points="128.58,78.647 130.573,78.647 130.573,53.502 128.58,53.113 	"/>
	<polygon fill="#231F20" points="120.827,78.647 120.827,51.602 118.595,51.166 118.595,78.647 	"/>
	<polygon fill="#231F20" points="127.485,78.647 127.485,52.899 125.252,52.463 125.252,78.647 	"/>
	<polygon fill="#231F20" points="124.156,78.647 124.156,52.25 121.924,51.813 121.924,78.647 	"/>
	<polygon fill="#231F20" points="110.842,78.647 110.842,49.653 108.609,49.217 108.609,78.647 	"/>
	<polygon fill="#231F20" points="117.499,78.647 117.499,50.951 115.267,50.516 115.267,78.647 	"/>
	<polygon fill="#231F20" points="114.171,78.647 114.171,50.302 111.938,49.867 111.938,78.647 	"/>
	<polygon fill="#231F20" points="99.959,78.647 100.856,78.647 100.856,47.705 99.746,47.489 98.624,47.708 98.624,78.647 	"/>
	<polygon fill="#231F20" points="80.885,78.647 80.885,51.171 78.652,51.607 78.652,78.647 	"/>
	<polygon fill="#231F20" points="84.212,78.647 84.212,50.521 81.98,50.957 81.98,78.647 	"/>
	<polygon fill="#231F20" points="77.556,78.647 77.556,51.821 75.323,52.257 75.323,78.647 	"/>
	<polygon fill="#231F20" points="74.228,78.647 74.228,52.471 71.995,52.906 71.995,78.647 	"/>
	<polygon fill="#231F20" points="87.542,78.647 87.542,49.871 85.309,50.308 85.309,78.647 	"/>
	<path fill="#231F20" d="M101.229,129.052c-0.717,0.079-1.157,0.113-1.474,0.113c-0.331,0-0.781-0.08-1.44-0.113
		c-0.233-0.01-0.712-0.072-0.885-0.09l-73.907-8.2c-1.886-0.415-3.667-2.095-4.191-4.389l-9.133-50.701
		c-0.296-1.29-0.296-2.494,0.255-3.487c0.566-1.015,1.879-1.504,2.549-1.601c0.672-0.095,1.635-0.201,1.727-0.191l82.936-5.021
		c0.494,0.047,1.681-0.107,2.097-0.054c0.415-0.053,1.589,0.103,2.095,0.057l84.242,5.115c0.198,0.025,0.473,0.065,0.559,0.084
		c1.153,0.236,1.837,0.486,2.403,1.502c0.551,0.994,0.541,2.042,0.261,3.595l-9.133,50.702c-0.524,2.294-2.26,4.07-4.19,4.389
		l-73.906,8.2C101.896,128.981,101.229,129.052,101.229,129.052"/>
	<g>
		<defs>
			<path id="SVGID_1_" d="M98.802,57.891c-0.303,0.019-0.615,0.039-0.87,0.039c-0.085,0-0.162-0.003-0.23-0.007l-81.59,4.712
				l-0.002-0.033c-0.273,0.021-0.714,0.059-0.988,0.083c-0.511,0.045-0.538,0.046-0.585,0.046c-0.642,0-1.508,0.169-1.975,0.986
				c-0.368,0.644-0.072,1.887,0.167,2.886l0.061,0.254l8.931,48.092c0.567,2.405,1.544,3.421,3.491,3.622l72.341,7.783
				c0.101,0.012,0.255,0.031,0.414,0.053c0.112,0.015,0.226,0.029,0.323,0.042c0.667,0.08,1.375,0.138,1.483,0.138
				c0.079,0,0.389-0.035,0.664-0.064c0.174-0.019,0.37-0.039,0.571-0.06c0,0,0.77-0.09,0.958-0.108l72.317-7.781
				c2.085-0.302,3.069-1.312,3.508-3.592l8.937-48.105c0.037-0.232,0.081-0.468,0.124-0.706c0.195-1.066,0.38-2.074-0.043-2.657
				c-0.407-0.557-0.786-0.609-1.928-0.688l-0.193-0.014c-1.231-0.088-80.519-4.748-82.869-4.888
				c-0.07,0.005-0.148,0.006-0.231,0.006c-0.26,0-0.572-0.02-0.876-0.039c-0.267-0.016-0.54-0.034-0.729-0.034
				c-0.053,0-0.099,0-0.136,0.004l-0.084,0.011l-0.084-0.011c-0.039-0.004-0.086-0.005-0.14-0.005
				C99.345,57.857,99.07,57.876,98.802,57.891"/>
		</defs>
		<clipPath id="SVGID_2_">
			<use xlink:href="#SVGID_1_"  overflow="visible"/>
		</clipPath>
		
			<radialGradient id="SVGID_3_" cx="-294.729" cy="407.0195" r="0.4703" gradientTransform="matrix(265.095 97.3191 -97.3191 265.095 117777.625 -79144.25)" gradientUnits="userSpaceOnUse">
			<stop  offset="0" style="stop-color:#F89A1C"/>
			<stop  offset="1" style="stop-color:#DD6E1D"/>
		</radialGradient>
		<polygon clip-path="url(#SVGID_2_)" fill="url(#SVGID_3_)" points="-10.04,118.425 166.441,183.212 209.465,66.02 32.982,1.232 		
			"/>
	</g>
	<path fill="#FFFFFF" d="M99.536,58.567h0.056l0.155,0.021l0.168-0.021c0.019,0,0.041,0,0.065,0c0.165,0,0.428,0.016,0.682,0.032
		c0.313,0.019,0.642,0.04,0.922,0.04c0.083,0,0.159-0.001,0.229-0.005c3.102,0.182,81.6,4.799,82.82,4.885l0.197,0.014
		c1.139,0.078,1.204,0.126,1.4,0.397c0.245,0.338,0.065,1.322-0.08,2.113c-0.043,0.236-0.086,0.471-0.123,0.703l-8.935,48.097
		c-0.384,1.995-1.114,2.762-2.893,3.028l-72.309,7.778c-0.178,0.019-0.859,0.098-0.958,0.108c-0.208,0.021-0.403,0.042-0.576,0.061
		c-0.223,0.025-0.496,0.052-0.59,0.059c-0.155-0.007-0.795-0.06-1.396-0.132c-0.093-0.012-0.205-0.025-0.313-0.041
		c-0.167-0.022-0.328-0.044-0.43-0.055l-72.348-7.783c-1.615-0.166-2.366-0.965-2.862-3.048l-8.934-48.089l-0.005-0.032
		l-0.009-0.034l-0.052-0.225c-0.175-0.736-0.47-1.969-0.242-2.366c0.24-0.419,0.698-0.632,1.36-0.632
		c0.082,0,0.112-0.002,0.648-0.048c0.248-0.022,0.695-0.061,0.966-0.083l0.002,0.032l81.549-4.708
		c0.07,0.003,0.147,0.005,0.23,0.005c0.276,0,0.601-0.02,0.913-0.04C99.102,58.583,99.366,58.567,99.536,58.567 M99.536,57.15
		c-0.432,0-1.145,0.07-1.604,0.07c-0.084,0-0.16-0.001-0.225-0.007l-81.635,4.713c0.255-0.033,0.318-0.045,0.259-0.045
		c-0.196,0-1.728,0.141-1.794,0.141c-1.034,0-2.035,0.379-2.59,1.345c-0.54,0.942-0.143,2.398,0.146,3.622l8.939,48.124
		c0.514,2.176,1.468,3.892,4.103,4.163l72.343,7.783c0.17,0.018,0.499,0.064,0.726,0.094c0.65,0.079,1.41,0.142,1.568,0.142
		c0.173,0,0.682-0.062,1.314-0.127c0,0,0.765-0.089,0.955-0.108l72.342-7.783c2.381-0.346,3.604-1.569,4.104-4.163l8.94-48.124
		c0.221-1.4,0.671-2.901-0.049-3.891c-0.654-0.9-1.41-0.903-2.642-0.991c-1.263-0.09-82.926-4.892-82.926-4.892
		c-0.065,0.005-0.14,0.008-0.226,0.008c-0.464,0-1.175-0.073-1.604-0.073c-0.087,0-0.162,0.002-0.221,0.01
		C99.701,57.152,99.624,57.15,99.536,57.15"/>
	<g>
		<path fill="#231F20" d="M32.141,105.703c-0.241,0-0.437-0.195-0.437-0.438V70.067c0-0.242,0.196-0.437,0.437-0.437h5.762
			c3.178,0,10.572,1.069,10.572,10.972c0,9.516-6.765,10.91-10.134,11.017v13.646c0,0.243-0.197,0.438-0.438,0.438H32.141z
			 M38.341,85.476c2.852-0.076,3.444-0.966,3.444-4.682c0-3.84-0.69-4.92-3.444-5.015V85.476z"/>
	</g>
	<g>
		<path fill="#231F20" d="M37.904,70.068c5.012,0,10.133,2.442,10.133,10.534c0,8.095-5.122,10.584-10.133,10.584v14.08h-5.762
			V70.068H37.904 M37.904,85.919c3.626,0,4.319-1.198,4.319-5.124c0-3.928-0.693-5.46-4.319-5.46V85.919 M37.904,69.192h-5.762
			c-0.484,0-0.875,0.392-0.875,0.876v35.198c0,0.482,0.391,0.873,0.875,0.873h5.762c0.483,0,0.875-0.391,0.875-0.873V92.037
			c2.659-0.15,4.941-0.986,6.641-2.443c2.317-1.986,3.492-5.011,3.492-8.991c0-3.977-1.175-6.995-3.495-8.969
			C43.539,70.038,40.941,69.192,37.904,69.192 M38.778,85.021v-8.779c2.112,0.178,2.571,1.164,2.571,4.553
			C41.349,84.055,40.963,84.88,38.778,85.021"/>
	</g>
	<g>
		<path fill="#231F20" d="M51.224,105.704c-0.242,0-0.438-0.197-0.438-0.438V70.068c0-0.242,0.196-0.438,0.438-0.438h5.761
			c0.242,0,0.436,0.196,0.436,0.438v35.199c0,0.24-0.194,0.438-0.436,0.438H51.224z"/>
	</g>
	<g>
		<path fill="#231F20" d="M56.984,105.266h-5.761V70.067h5.761V105.266z M56.984,69.193h-5.761c-0.483,0-0.875,0.391-0.875,0.875
			v35.198c0,0.483,0.391,0.874,0.875,0.874h5.761c0.483,0,0.875-0.391,0.875-0.874V70.067
			C57.859,69.583,57.468,69.193,56.984,69.193"/>
	</g>
	<g>
		<path fill="#231F20" d="M68.45,106.087c-7.764,0-8.812-5.402-8.812-10.687c0-0.227,0.174-0.416,0.4-0.436l5.655-0.478
			c0.012-0.001,0.024-0.001,0.037-0.001c0.109,0,0.215,0.041,0.297,0.114c0.09,0.082,0.142,0.2,0.142,0.322
			c0,3.888,0.682,5.548,2.282,5.548c1.579,0,1.911-1.872,1.911-3.441c0-1.844-1.724-4.123-3.547-6.537
			c-0.335-0.444-0.675-0.894-1.008-1.344c-2.935-3.875-5.367-7.398-5.367-11.229c0-4.246,2.458-8.576,7.951-8.672
			c0.09-0.002,0.181-0.004,0.27-0.004c5.384,0,8.229,3.382,8.229,9.778c0,0.227-0.174,0.417-0.4,0.436l-5.653,0.479
			c-0.012,0.001-0.024,0.001-0.038,0.001c-0.108,0-0.215-0.041-0.296-0.115c-0.089-0.083-0.141-0.199-0.141-0.321
			c0-2.117-0.321-4.639-1.857-4.639c-0.651,0.021-1.536,0.361-1.536,3.057c0,1.998,1.821,4.346,3.747,6.832
			c0.232,0.298,0.465,0.599,0.697,0.901l0.331,0.446c2.647,3.558,5.146,6.919,5.146,10.691
			C76.889,102.959,74.048,106.087,68.45,106.087"/>
	</g>
	<g>
		<path fill="#231F20" d="M68.661,69.682c6.7,0,7.792,5.463,7.792,9.339l-5.654,0.481c0-2.347-0.374-5.077-2.294-5.077
			c-1.493,0.047-1.973,1.484-1.973,3.496c0,2.395,2.294,5.076,4.534,7.998c2.667,3.592,5.388,7.088,5.388,10.87
			c0,4.693-1.707,8.858-8.002,8.858c-7.414,0-8.375-5.027-8.375-10.246l5.654-0.479c0,2.92,0.32,5.985,2.72,5.985
			c1.708,0,2.348-1.676,2.348-3.879c0-2.346-2.454-5.174-4.64-8.143c-2.722-3.591-5.283-7.182-5.283-10.966
			c0-3.831,2.081-8.141,7.522-8.237C68.485,69.682,68.575,69.682,68.661,69.682 M68.661,68.807L68.661,68.807
			c-0.093,0-0.187,0.001-0.281,0.002C62.593,68.912,60,73.459,60,77.921c0,3.965,2.473,7.552,5.46,11.493
			c0.328,0.445,0.667,0.896,1.004,1.341c1.778,2.354,3.459,4.577,3.459,6.274c0,1.37-0.257,3.005-1.474,3.005
			c-0.859,0-1.846-0.581-1.846-5.111c0-0.245-0.102-0.478-0.284-0.644c-0.161-0.149-0.373-0.231-0.591-0.231
			c-0.023,0-0.049,0-0.073,0.003l-5.655,0.479c-0.452,0.038-0.802,0.416-0.802,0.872c0,2.339,0.175,5.31,1.537,7.537
			c1.453,2.378,4.048,3.586,7.713,3.586c5.808,0,8.876-3.367,8.876-9.735c0-3.917-2.66-7.493-5.233-10.952l-0.327-0.439
			c-0.241-0.314-0.474-0.616-0.705-0.914c-1.881-2.425-3.657-4.716-3.657-6.563c0-2.542,0.792-2.61,1.11-2.621
			c1.271,0.018,1.41,2.942,1.41,4.202c0,0.245,0.103,0.479,0.282,0.644c0.162,0.148,0.374,0.23,0.591,0.23
			c0.025,0,0.05-0.002,0.074-0.004l5.654-0.479c0.452-0.039,0.801-0.417,0.801-0.873C77.327,72.435,74.25,68.807,68.661,68.807"/>
	</g>
	<g>
		<path fill="#231F20" d="M83.571,105.704c-0.242,0-0.438-0.197-0.438-0.438V75.819h-5.002c-0.242,0-0.437-0.195-0.437-0.438v-5.314
			c0-0.242,0.195-0.438,0.437-0.438h16.643c0.241,0,0.437,0.196,0.437,0.438v5.314c0,0.243-0.196,0.438-0.437,0.438h-5.005v29.447
			c0,0.24-0.195,0.438-0.437,0.438H83.571z"/>
	</g>
	<g>
		<path fill="#231F20" d="M94.773,70.067v5.316h-5.441v29.882h-5.761V75.383h-5.44v-5.316H94.773 M94.773,69.193H78.131
			c-0.482,0-0.875,0.391-0.875,0.875v5.316c0,0.482,0.392,0.874,0.875,0.874h4.565v29.008c0,0.483,0.392,0.874,0.875,0.874h5.761
			c0.483,0,0.875-0.391,0.875-0.874V76.257h4.567c0.483,0,0.874-0.392,0.874-0.874v-5.316
			C95.647,69.583,95.256,69.193,94.773,69.193"/>
	</g>
	<g>
		<path fill="#231F20" d="M105.089,106.087c-2.423,0-4.367-0.721-5.777-2.138c-2.34-2.36-2.344-5.772-2.342-5.918V77.299
			c-0.001-0.141,0.002-3.555,2.342-5.913c1.41-1.419,3.354-2.138,5.777-2.138c2.421,0,4.363,0.719,5.772,2.137
			c2.342,2.358,2.346,5.773,2.345,5.917v20.733c0.001,0.142-0.003,3.554-2.345,5.914
			C109.452,105.366,107.51,106.087,105.089,106.087 M105.089,75.151c-0.397,0-0.703,0.118-0.94,0.365
			c-0.575,0.6-0.545,1.754-0.545,1.765l0.002,20.754c-0.002,0.028-0.037,1.181,0.545,1.786c0.236,0.244,0.543,0.361,0.938,0.361
			s0.702-0.118,0.938-0.362c0.576-0.602,0.545-1.757,0.544-1.768V77.299c0-0.029,0.036-1.182-0.546-1.785
			C105.788,75.269,105.484,75.151,105.089,75.151"/>
	</g>
	<g>
		<path fill="#231F20" d="M105.089,69.686c7.733,0,7.68,7.614,7.68,7.614v20.736c0,0,0.054,7.613-7.68,7.613
			c-7.735,0-7.683-7.613-7.683-7.613V77.299C97.406,77.299,97.354,69.686,105.089,69.686 M105.089,100.62
			c2.025,0,1.919-2.585,1.919-2.585V77.299c0,0,0.106-2.586-1.919-2.586c-2.028,0-1.921,2.586-1.921,2.586v20.736
			C103.168,98.035,103.061,100.62,105.089,100.62 M105.089,68.81c-2.545,0-4.592,0.763-6.086,2.269
			c-2.468,2.486-2.473,6.074-2.471,6.226v20.731c-0.001,0.145,0.003,3.736,2.471,6.221c1.494,1.505,3.541,2.269,6.086,2.269
			c2.542,0,4.588-0.764,6.083-2.268c2.469-2.485,2.472-6.077,2.472-6.229V77.299c0-0.147-0.003-3.737-2.472-6.222
			C109.677,69.572,107.631,68.81,105.089,68.81 M105.089,99.745c-0.362,0-0.529-0.131-0.625-0.229
			c-0.383-0.399-0.43-1.242-0.421-1.444v-0.036V77.299v-0.037c-0.009-0.249,0.051-1.062,0.423-1.446
			c0.097-0.099,0.262-0.229,0.623-0.229c0.358,0,0.524,0.13,0.619,0.229c0.374,0.385,0.435,1.198,0.426,1.451v0.033v20.736v0.036
			c0.009,0.251-0.052,1.063-0.426,1.448C105.613,99.617,105.447,99.745,105.089,99.745"/>
	</g>
	<g>
		<path fill="#231F20" d="M128.189,105.704c-0.192,0-0.363-0.127-0.418-0.31l-5.547-18.163v18.035c0,0.24-0.195,0.438-0.438,0.438
			h-5.281c-0.242,0-0.437-0.197-0.437-0.438V70.068c0-0.242,0.194-0.438,0.437-0.438h5.122c0.191,0,0.361,0.126,0.418,0.309
			l5.545,18.162V70.068c0-0.242,0.196-0.438,0.438-0.438h5.28c0.24,0,0.437,0.196,0.437,0.438v35.199
			c0,0.24-0.196,0.438-0.437,0.438H128.189z"/>
	</g>
	<g>
		<path fill="#231F20" d="M133.31,70.067v35.198h-5.12l-5.602-18.341l-0.48-1.629h-0.32v1.629v18.341h-5.281V70.067h5.122
			l5.601,18.344l0.479,1.627h0.322v-1.627V70.067H133.31 M133.31,69.193h-5.28c-0.483,0-0.876,0.391-0.876,0.875v15.104l-4.69-15.36
			c-0.112-0.368-0.451-0.619-0.835-0.619h-5.122c-0.482,0-0.873,0.391-0.873,0.875v35.198c0,0.483,0.391,0.874,0.873,0.874h5.281
			c0.483,0,0.875-0.391,0.875-0.874V90.159l4.69,15.361c0.112,0.368,0.452,0.619,0.837,0.619h5.12c0.482,0,0.874-0.391,0.874-0.874
			V70.067C134.184,69.583,133.792,69.193,133.31,69.193"/>
	</g>
	<g>
		<path fill="#231F20" d="M137.112,105.704c-0.239,0-0.435-0.197-0.435-0.438V70.068c0-0.242,0.195-0.438,0.435-0.438h13.177
			c0.242,0,0.438,0.196,0.438,0.438v5.314c0,0.243-0.195,0.438-0.438,0.438h-6.979v8.369h4.9c0.24,0,0.436,0.196,0.436,0.438v5.649
			c0,0.242-0.195,0.438-0.436,0.438h-4.9v8.799h6.979c0.242,0,0.438,0.198,0.438,0.439v5.314c0,0.24-0.195,0.438-0.438,0.438
			H137.112z"/>
	</g>
	<g>
		<path fill="#231F20" d="M150.289,70.067v5.316h-7.415v9.243h5.337v5.649h-5.337v9.675h7.415v5.315h-13.177V70.067H150.289
			 M150.289,69.193h-13.177c-0.48,0-0.872,0.391-0.872,0.875v35.198c0,0.483,0.392,0.874,0.872,0.874h13.177
			c0.483,0,0.875-0.391,0.875-0.874V99.95c0-0.481-0.392-0.874-0.875-0.874h-6.54v-7.925h4.462c0.481,0,0.873-0.393,0.873-0.876
			v-5.649c0-0.483-0.392-0.875-0.873-0.875h-4.462v-7.495h6.54c0.483,0,0.875-0.392,0.875-0.874v-5.316
			C151.164,69.583,150.772,69.193,150.289,69.193"/>
	</g>
	<g>
		<path fill="#231F20" d="M160.576,106.087c-7.767,0-8.813-5.402-8.813-10.687c0-0.227,0.175-0.416,0.401-0.436l5.654-0.478
			c0.013-0.001,0.025-0.001,0.037-0.001c0.109,0,0.215,0.041,0.297,0.114c0.089,0.082,0.14,0.2,0.14,0.322
			c0,3.888,0.685,5.548,2.284,5.548c1.578,0,1.909-1.872,1.909-3.441c0-1.845-1.724-4.125-3.549-6.538
			c-0.335-0.444-0.672-0.893-1.007-1.343c-2.934-3.876-5.366-7.399-5.366-11.229c0-4.246,2.459-8.576,7.952-8.672
			c0.09-0.002,0.182-0.004,0.271-0.004c5.382,0,8.229,3.382,8.229,9.778c0,0.227-0.175,0.417-0.4,0.436l-5.655,0.479
			c-0.013,0.001-0.024,0.001-0.036,0.001c-0.109,0-0.214-0.041-0.297-0.115c-0.089-0.083-0.141-0.199-0.141-0.321
			c0-2.117-0.322-4.639-1.855-4.639c-0.652,0.021-1.538,0.361-1.538,3.057c0,1.998,1.82,4.344,3.748,6.83
			c0.23,0.299,0.464,0.601,0.698,0.903l0.329,0.444c2.647,3.559,5.147,6.919,5.147,10.693
			C169.015,102.959,166.175,106.087,160.576,106.087"/>
	</g>
	<g>
		<path fill="#231F20" d="M160.786,69.682c6.7,0,7.791,5.463,7.791,9.339l-5.654,0.481c0-2.347-0.373-5.077-2.293-5.077
			c-1.494,0.047-1.976,1.484-1.976,3.496c0,2.395,2.294,5.076,4.536,7.998c2.666,3.592,5.387,7.088,5.387,10.87
			c0,4.693-1.707,8.858-8.001,8.858c-7.415,0-8.375-5.027-8.375-10.246l5.654-0.479c0,2.92,0.32,5.985,2.721,5.985
			c1.708,0,2.347-1.676,2.347-3.879c0-2.346-2.452-5.174-4.64-8.143c-2.72-3.591-5.282-7.182-5.282-10.966
			c0-3.831,2.081-8.141,7.522-8.237C160.612,69.682,160.7,69.682,160.786,69.682 M160.788,68.807h-0.002
			c-0.093,0-0.187,0.001-0.279,0.002c-5.788,0.103-8.38,4.649-8.38,9.111c0,3.963,2.473,7.551,5.458,11.493
			c0.328,0.444,0.666,0.896,1.003,1.341c1.779,2.352,3.46,4.577,3.46,6.274c0,1.37-0.255,3.005-1.472,3.005
			c-0.86,0-1.846-0.581-1.846-5.111c0-0.245-0.104-0.478-0.284-0.644c-0.16-0.149-0.374-0.231-0.591-0.231
			c-0.024,0-0.049,0-0.073,0.003l-5.654,0.479c-0.454,0.038-0.801,0.416-0.801,0.872c0,2.339,0.173,5.31,1.535,7.537
			c1.453,2.378,4.048,3.586,7.714,3.586c5.805,0,8.875-3.367,8.875-9.735c0-3.917-2.66-7.494-5.232-10.954l-0.327-0.438
			c-0.239-0.316-0.476-0.617-0.707-0.917c-1.88-2.423-3.655-4.713-3.655-6.56c0-2.542,0.793-2.61,1.111-2.621
			c1.271,0.018,1.407,2.942,1.407,4.202c0,0.245,0.103,0.479,0.283,0.644c0.161,0.148,0.373,0.23,0.592,0.23
			c0.023,0,0.049-0.002,0.073-0.004l5.655-0.479c0.451-0.039,0.8-0.417,0.8-0.873C169.451,72.435,166.375,68.807,160.788,68.807"/>
	</g>
	<g>
		<path fill="#FFFFFF" d="M31.792,69.717h5.761c5.013,0,10.134,2.443,10.134,10.537c0,8.093-5.122,10.583-10.134,10.583v14.08
			h-5.761V69.717z M37.553,85.569c3.628,0,4.32-1.198,4.32-5.125s-0.692-5.459-4.32-5.459V85.569z"/>
	</g>
	<g>
		<path fill="#231F20" d="M37.553,105.229h-5.761c-0.173,0-0.313-0.14-0.313-0.312v-35.2c0-0.172,0.14-0.312,0.313-0.312h5.761
			C40.695,69.404,48,70.461,48,80.253c0,9.521-6.847,10.82-10.135,10.893v13.771C37.866,105.089,37.727,105.229,37.553,105.229z
			 M32.105,104.603h5.135V90.837c0-0.173,0.14-0.313,0.313-0.313c2.953,0,9.821-1.001,9.821-10.27
			c0-8.895-6.153-10.224-9.821-10.224h-5.448V104.603z M37.553,85.882c-0.173,0-0.313-0.14-0.313-0.313V74.986
			c0-0.173,0.14-0.312,0.313-0.312c3.94,0,4.633,1.861,4.633,5.771C42.187,84.279,41.543,85.882,37.553,85.882z M37.866,75.303
			v9.951c3.029-0.056,3.695-0.98,3.695-4.809C41.561,76.767,40.993,75.387,37.866,75.303z"/>
	</g>
	<g>
		<rect x="50.873" y="69.717" fill="#FFFFFF" width="5.761" height="35.2"/>
	</g>
	<g>
		<path fill="#231F20" d="M56.634,105.229h-5.761c-0.172,0-0.312-0.139-0.312-0.312v-35.2c0-0.172,0.14-0.313,0.312-0.313h5.761
			c0.174,0,0.313,0.141,0.313,0.313v35.2C56.947,105.09,56.808,105.229,56.634,105.229z M51.187,104.603h5.135V70.03h-5.135V104.603
			z"/>
	</g>
	<g>
		<path fill="#FFFFFF" d="M68.049,69.335c6.933-0.145,8.053,5.411,8.053,9.337l-5.653,0.48c0-2.347-0.375-5.077-2.294-5.077
			c-1.494,0.048-1.975,1.485-1.975,3.496c0,2.395,2.294,5.077,4.535,7.999c2.667,3.59,5.388,7.088,5.388,10.869
			c0,4.695-1.708,8.86-8.002,8.86c-7.413,0-8.374-5.027-8.374-10.248l5.655-0.478c0,2.92,0.32,5.985,2.719,5.985
			c1.708,0,2.349-1.677,2.349-3.879c0-2.348-2.454-5.174-4.642-8.143c-2.719-3.591-5.28-7.183-5.28-10.966
			C60.526,73.74,62.606,69.43,68.049,69.335"/>
	</g>
	<g>
		<path fill="#231F20" d="M68.1,105.612c-7.655,0-8.687-5.34-8.687-10.562c0-0.163,0.125-0.299,0.287-0.312l5.654-0.479
			c0.088-0.01,0.174,0.022,0.238,0.081c0.065,0.06,0.102,0.144,0.102,0.231c0,3.975,0.72,5.672,2.406,5.672
			c1.682,0,2.036-1.939,2.036-3.565c0-1.887-1.737-4.185-3.576-6.615c-0.335-0.443-0.673-0.891-1.005-1.341
			c-2.921-3.858-5.34-7.363-5.34-11.153c0-4.187,2.42-8.455,7.83-8.549c5.451-0.114,8.372,3.229,8.372,9.65
			c0,0.163-0.125,0.299-0.287,0.312l-5.654,0.48c-0.086,0.008-0.174-0.022-0.238-0.082c-0.064-0.059-0.101-0.143-0.101-0.231
			c0-3.161-0.666-4.764-1.981-4.764c-0.708,0.023-1.662,0.378-1.662,3.183c0,2.039,1.833,4.401,3.771,6.902
			c0.232,0.299,0.466,0.602,0.7,0.905l0.327,0.44c2.636,3.542,5.125,6.887,5.125,10.62C76.416,102.525,73.618,105.612,68.1,105.612z
			 M60.04,95.338c0.037,5.049,1.107,9.648,8.06,9.648c5.174,0,7.688-2.796,7.688-8.548c0-3.523-2.428-6.788-5-10.246l-0.325-0.437
			c-0.229-0.3-0.463-0.601-0.694-0.898c-2.006-2.589-3.902-5.034-3.902-7.287c0-2.479,0.767-3.76,2.278-3.808
			c1.684,0,2.56,1.698,2.614,5.049l5.029-0.427c-0.08-5.799-2.593-8.739-7.475-8.739c-0.084,0-0.171,0-0.257,0.002
			c-5.326,0.094-7.216,4.327-7.216,7.923c0,3.595,2.363,7.008,5.217,10.779c0.333,0.45,0.669,0.896,1.002,1.337
			c1.904,2.517,3.703,4.896,3.703,6.993c0,2.703-0.945,4.192-2.662,4.192c-2.575,0-3.003-2.958-3.031-5.959L60.04,95.338z"/>
	</g>
	<g>
		<polygon fill="#FFFFFF" points="77.781,75.032 77.781,69.716 94.424,69.716 94.424,75.032 88.983,75.032 88.983,104.917 
			83.222,104.917 83.222,75.032 		"/>
	</g>
	<g>
		<path fill="#231F20" d="M88.983,105.229h-5.761c-0.173,0-0.313-0.14-0.313-0.312V75.345h-5.127c-0.173,0-0.313-0.14-0.313-0.313
			v-5.315c0-0.172,0.141-0.312,0.313-0.312h16.643c0.173,0,0.313,0.141,0.313,0.312v5.315c0,0.173-0.141,0.313-0.313,0.313h-5.128
			v29.572C89.296,105.089,89.156,105.229,88.983,105.229z M83.535,104.603h5.135V75.032c0-0.173,0.14-0.313,0.313-0.313h5.127V70.03
			H78.095v4.689h5.127c0.174,0,0.313,0.14,0.313,0.313V104.603z"/>
	</g>
	<g>
		<path fill="#FFFFFF" d="M104.738,105.299c-7.734,0-7.681-7.614-7.681-7.614V76.949c0,0-0.053-7.614,7.681-7.614
			c7.733,0,7.681,7.614,7.681,7.614v20.735C112.419,97.685,112.472,105.299,104.738,105.299 M104.738,74.364
			c-2.027,0-1.921,2.585-1.921,2.585v20.735c0,0-0.106,2.587,1.921,2.587c2.026,0,1.919-2.587,1.919-2.587V76.949
			C106.657,76.949,106.765,74.364,104.738,74.364"/>
	</g>
	<g>
		<path fill="#231F20" d="M104.738,105.612c-2.388,0-4.301-0.707-5.686-2.102c-2.306-2.321-2.309-5.686-2.308-5.827V76.949
			c-0.001-0.141,0.002-3.504,2.308-5.826c1.385-1.395,3.299-2.102,5.687-2.102s4.3,0.707,5.685,2.102
			c2.307,2.321,2.311,5.685,2.309,5.828v20.733c0.002,0.141-0.002,3.505-2.309,5.826
			C109.038,104.905,107.126,105.612,104.738,105.612z M104.738,69.647c-2.215,0-3.978,0.645-5.242,1.917
			c-2.124,2.139-2.127,5.35-2.127,5.382v20.738c0,0.034,0.008,3.255,2.131,5.389c1.263,1.271,3.024,1.913,5.237,1.913
			c2.212,0,3.976-0.643,5.237-1.913c2.122-2.134,2.131-5.354,2.131-5.387V76.949c0-0.034-0.009-3.255-2.131-5.388
			C108.714,70.292,106.95,69.647,104.738,69.647z M104.738,100.585c-0.604,0-1.101-0.202-1.48-0.598
			c-0.805-0.837-0.756-2.255-0.753-2.315V76.949c-0.003-0.047-0.052-1.465,0.753-2.303c0.378-0.396,0.877-0.596,1.48-0.596
			c0.603,0,1.102,0.2,1.479,0.596c0.805,0.838,0.756,2.255,0.752,2.315v20.723c0.004,0.048,0.053,1.466-0.752,2.303
			C105.84,100.383,105.341,100.585,104.738,100.585z M104.738,74.677c-0.432,0-0.769,0.131-1.028,0.403
			c-0.621,0.647-0.58,1.844-0.579,1.856v20.748c-0.001,0.024-0.039,1.229,0.581,1.872c0.26,0.271,0.596,0.402,1.026,0.402
			s0.768-0.132,1.026-0.402c0.62-0.643,0.58-1.847,0.58-1.859V76.949c0-0.025,0.04-1.228-0.58-1.871
			C105.506,74.808,105.169,74.677,104.738,74.677z"/>
	</g>
	<g>
		<polygon fill="#FFFFFF" points="122.238,86.574 121.757,84.946 121.438,84.946 121.438,86.574 121.438,104.917 116.158,104.917 
			116.158,69.716 121.278,69.716 126.878,88.06 127.357,89.688 127.679,89.688 127.679,88.06 127.679,69.716 132.96,69.716 
			132.96,104.917 127.839,104.917 		"/>
	</g>
	<g>
		<path fill="#231F20" d="M132.96,105.229h-5.121c-0.138,0-0.259-0.09-0.3-0.222l-5.789-18.979v18.889
			c0,0.172-0.14,0.312-0.312,0.312h-5.28c-0.173,0-0.313-0.14-0.313-0.312V69.716c0-0.172,0.141-0.312,0.313-0.312h5.12
			c0.138,0,0.259,0.089,0.3,0.222l5.786,18.981v-18.89c0-0.172,0.142-0.312,0.314-0.312h5.281c0.172,0,0.312,0.141,0.312,0.312
			v35.201C133.272,105.089,133.132,105.229,132.96,105.229z M128.071,104.603h4.575V70.03h-4.655v19.659
			c0,0.174-0.14,0.312-0.312,0.312h-0.321c-0.139,0-0.261-0.091-0.301-0.225l-0.479-1.628l-5.531-18.119h-4.576v34.573h4.653V84.946
			c0-0.173,0.141-0.314,0.314-0.314h0.318c0.141,0,0.263,0.091,0.302,0.225l0.48,1.628L128.071,104.603z"/>
	</g>
	<g>
		<polygon fill="#FFFFFF" points="136.764,69.716 149.94,69.716 149.94,75.032 142.524,75.032 142.524,84.275 147.859,84.275 
			147.859,89.927 142.524,89.927 142.524,99.603 149.94,99.603 149.94,104.917 136.764,104.917 		"/>
	</g>
	<g>
		<path fill="#231F20" d="M149.94,105.229h-13.177c-0.174,0-0.312-0.14-0.312-0.312V69.716c0-0.172,0.139-0.312,0.312-0.312h13.177
			c0.172,0,0.312,0.141,0.312,0.312v5.315c0,0.173-0.14,0.313-0.312,0.313h-7.103v8.618h5.021c0.174,0,0.313,0.14,0.313,0.312v5.651
			c0,0.173-0.14,0.313-0.313,0.313h-5.021v9.05h7.103c0.172,0,0.312,0.14,0.312,0.312v5.314
			C150.252,105.089,150.112,105.229,149.94,105.229z M137.076,104.603h12.551v-4.687h-7.103c-0.172,0-0.312-0.141-0.312-0.313
			v-9.676c0-0.172,0.141-0.312,0.312-0.312h5.022v-5.026h-5.022c-0.172,0-0.312-0.141-0.312-0.313v-9.244
			c0-0.173,0.141-0.313,0.312-0.313h7.103V70.03h-12.551V104.603z"/>
	</g>
	<g>
		<path fill="#FFFFFF" d="M160.174,69.335c6.934-0.145,8.054,5.411,8.054,9.337l-5.655,0.48c0-2.347-0.373-5.077-2.292-5.077
			c-1.493,0.048-1.974,1.485-1.974,3.496c0,2.395,2.295,5.077,4.534,7.999c2.667,3.59,5.387,7.088,5.387,10.869
			c0,4.695-1.708,8.86-8.001,8.86c-7.415,0-8.374-5.027-8.374-10.248l5.652-0.478c0,2.92,0.321,5.985,2.722,5.985
			c1.707,0,2.346-1.677,2.346-3.879c0-2.348-2.452-5.174-4.64-8.143c-2.719-3.591-5.281-7.183-5.281-10.966
			C152.651,73.74,154.732,69.43,160.174,69.335"/>
	</g>
	<g>
		<path fill="#231F20" d="M160.227,105.612c-7.655,0-8.687-5.34-8.687-10.562c0-0.163,0.124-0.299,0.286-0.312l5.652-0.479
			c0.087-0.01,0.174,0.022,0.238,0.081c0.065,0.06,0.101,0.144,0.101,0.231c0,3.975,0.721,5.672,2.409,5.672
			c1.68,0,2.032-1.939,2.032-3.565c0-1.888-1.737-4.187-3.575-6.617c-0.334-0.442-0.673-0.89-1.004-1.339
			c-2.921-3.859-5.341-7.365-5.341-11.153c0-4.187,2.42-8.455,7.828-8.549c5.457-0.114,8.373,3.229,8.373,9.65
			c0,0.163-0.123,0.299-0.285,0.312l-5.656,0.48c-0.092,0.008-0.175-0.022-0.238-0.082c-0.065-0.059-0.102-0.143-0.102-0.231
			c0-3.161-0.665-4.764-1.979-4.764c-0.707,0.023-1.661,0.378-1.661,3.183c0,2.038,1.831,4.4,3.769,6.9
			c0.233,0.3,0.467,0.603,0.701,0.908l0.325,0.437c2.638,3.544,5.126,6.89,5.126,10.623
			C168.54,102.525,165.744,105.612,160.227,105.612z M152.166,95.338c0.038,5.049,1.107,9.648,8.061,9.648
			c5.174,0,7.689-2.796,7.689-8.548c0-3.526-2.432-6.792-5.004-10.25l-0.322-0.433c-0.23-0.301-0.466-0.602-0.696-0.902
			c-2.007-2.587-3.9-5.031-3.9-7.283c0-2.479,0.766-3.76,2.276-3.808c1.684,0,2.558,1.698,2.613,5.049l5.03-0.427
			c-0.08-5.799-2.593-8.739-7.477-8.739c-0.084,0-0.17,0-0.257,0.002c-5.326,0.094-7.215,4.327-7.215,7.923
			c0,3.593,2.363,7.007,5.217,10.779c0.332,0.449,0.668,0.894,1.001,1.335c1.904,2.518,3.702,4.897,3.702,6.995
			c0,2.703-0.943,4.192-2.658,4.192c-2.864,0-3.024-3.933-3.033-5.959L152.166,95.338z"/>
	</g>
	<polygon fill="#231F20" points="66.819,112.081 65.079,112.081 65.079,113.772 66.246,113.772 66.246,114.744 65.079,114.744 
		65.079,117.547 63.818,117.547 63.818,111.11 66.819,111.11 	"/>
	<path fill="#231F20" d="M68.64,117.616c-1.693,0-1.68-1.394-1.68-1.394v-3.79c0,0-0.013-1.393,1.68-1.393
		c1.691,0,1.68,1.393,1.68,1.393v3.79C70.32,116.223,70.332,117.616,68.64,117.616 M68.64,111.959c-0.443,0-0.42,0.474-0.42,0.474
		v3.79c0,0-0.023,0.474,0.42,0.474s0.42-0.474,0.42-0.474v-3.79C69.06,112.433,69.083,111.959,68.64,111.959"/>
	<path fill="#231F20" d="M72.481,117.616c-1.693,0-1.68-1.394-1.68-1.394v-3.79c0,0-0.013-1.393,1.68-1.393s1.681,1.393,1.681,1.393
		v3.79C74.162,116.223,74.174,117.616,72.481,117.616 M72.481,111.959c-0.443,0-0.42,0.474-0.42,0.474v3.79
		c0,0-0.023,0.474,0.42,0.474s0.42-0.474,0.42-0.474v-3.79C72.901,112.433,72.924,111.959,72.481,111.959"/>
	<path fill="#231F20" d="M75.716,117.547h-0.992v-6.437h0.992c2.334,0.009,2.51,0.7,2.51,3.222
		C78.226,116.846,78.05,117.537,75.716,117.547 M75.984,116.599c0.887,0,0.945-0.164,0.934-2.274
		c0.012-2.103-0.046-2.269-0.934-2.269V116.599z"/>
	<path fill="#231F20" d="M79.931,117.547l1.294-6.437h1.541l1.296,6.437h-1.225l-0.233-1.314h-1.213l-0.233,1.314H79.931z
		 M82.067,113.202l-0.035-0.165h-0.07l-0.035,0.165l-0.362,2.031h0.864L82.067,113.202z"/>
	<polygon fill="#231F20" points="85.687,114.193 85.582,113.894 85.512,113.894 85.512,114.193 85.512,117.547 84.356,117.547 
		84.356,111.11 85.476,111.11 86.703,114.463 86.807,114.762 86.877,114.762 86.877,114.463 86.877,111.11 88.033,111.11 
		88.033,117.547 86.913,117.547 	"/>
	<path fill="#231F20" d="M89.668,117.547h-0.992v-6.437h0.992c2.334,0.009,2.509,0.7,2.509,3.222
		C92.177,116.846,92.002,117.537,89.668,117.547 M89.938,116.599c0.886,0,0.944-0.164,0.933-2.274
		c0.011-2.103-0.046-2.269-0.933-2.269V116.599z"/>
	<path fill="#231F20" d="M95.226,117.547h-0.992v-6.437h0.992c2.335,0.009,2.51,0.7,2.51,3.222
		C97.736,116.846,97.561,117.537,95.226,117.547 M95.495,116.599c0.887,0,0.945-0.164,0.934-2.274
		c0.012-2.103-0.047-2.269-0.934-2.269V116.599z"/>
	<path fill="#231F20" d="M100.538,117.547l-0.653-2.715h-0.338v2.715h-1.261v-6.437h1.261c1.494,0,2.147,0.647,2.147,1.856
		c0,0.639-0.222,1.216-0.7,1.461l0.805,3.119H100.538z M99.546,112.047v1.909c0.35,0,0.933-0.035,0.933-0.954
		C100.479,112.081,99.896,112.047,99.546,112.047"/>
	<rect x="102.209" y="111.11" fill="#231F20" width="1.261" height="6.437"/>
	<polygon fill="#231F20" points="105.443,114.193 105.338,113.894 105.268,113.894 105.268,114.193 105.268,117.547 
		104.111,117.547 104.111,111.11 105.232,111.11 106.458,114.463 106.563,114.762 106.633,114.762 106.633,114.463 106.633,111.11 
		107.788,111.11 107.788,117.547 106.666,117.547 	"/>
	<polygon fill="#231F20" points="109.692,111.11 109.692,113.255 109.692,113.36 109.739,113.36 109.797,113.255 110.849,111.11 
		112.072,111.11 110.919,113.229 112.225,117.547 110.999,117.547 110.124,114.744 110.09,114.612 110.055,114.612 109.983,114.744 
		109.692,115.269 109.692,117.547 108.433,117.547 108.433,111.11 	"/>
	<path fill="#231F20" d="M116.044,113.422v-0.989c0,0,0.023-0.474-0.42-0.474s-0.42,0.474-0.42,0.474v3.87
		c0,0-0.023,0.472,0.42,0.472s0.42-0.472,0.42-0.472v-1.164h-0.501v-0.798h1.762v3.206h-0.747l-0.152-0.308
		c-0.233,0.22-0.582,0.377-0.98,0.377c-1.598,0-1.481-1.394-1.481-1.394v-3.79c0,0-0.012-1.393,1.681-1.393s1.681,1.393,1.681,1.393
		v0.989H116.044z"/>
	<path fill="#231F20" d="M117.585,117.547l1.296-6.437h1.54l1.295,6.437h-1.225l-0.233-1.314h-1.213l-0.234,1.314H117.585z
		 M119.723,113.202l-0.036-0.165h-0.07l-0.035,0.165l-0.361,2.031h0.864L119.723,113.202z"/>
	<path fill="#231F20" d="M124.263,117.547l-0.651-2.715h-0.34v2.715h-1.261v-6.437h1.261c1.494,0,2.147,0.647,2.147,1.856
		c0,0.639-0.222,1.216-0.7,1.461l0.805,3.119H124.263z M123.271,112.047v1.909c0.35,0,0.935-0.035,0.935-0.954
		C124.206,112.081,123.621,112.047,123.271,112.047"/>
	<path fill="#231F20" d="M125.583,117.547l1.296-6.437h1.541l1.295,6.437h-1.226l-0.232-1.314h-1.214l-0.234,1.314H125.583z
		 M127.72,113.202l-0.036-0.165h-0.069l-0.035,0.165l-0.362,2.031h0.864L127.72,113.202z"/>
	<path fill="#231F20" d="M132.028,113.422v-0.989c0,0,0.023-0.474-0.42-0.474c-0.444,0-0.421,0.474-0.421,0.474v3.87
		c0,0-0.023,0.472,0.421,0.472c0.443,0,0.42-0.472,0.42-0.472v-1.164h-0.502v-0.798h1.762v3.206h-0.747l-0.151-0.308
		c-0.233,0.22-0.583,0.377-0.981,0.377c-1.598,0-1.481-1.394-1.481-1.394v-3.79c0,0-0.012-1.393,1.682-1.393
		c1.692,0,1.68,1.393,1.68,1.393v0.989H132.028z"/>
	<polygon fill="#231F20" points="133.92,111.11 136.803,111.11 136.803,112.081 135.181,112.081 135.181,113.772 136.346,113.772 
		136.346,114.806 135.181,114.806 135.181,116.574 136.803,116.574 136.803,117.547 133.92,117.547 	"/>
	<path fill="#231F20" d="M188.985,116.729c-0.674,0.677-1.513,1.015-2.511,1.015c-0.999,0-1.83-0.334-2.493-0.997
		c-0.662-0.662-0.994-1.493-0.994-2.492s0.336-1.837,1.013-2.512s1.514-1.014,2.513-1.014c0.997,0,1.828,0.332,2.492,0.996
		c0.663,0.664,0.995,1.494,0.995,2.491C190,115.218,189.663,116.054,188.985,116.729 M186.513,116.992
		c0.779,0,1.416-0.254,1.918-0.771c0.498-0.513,0.748-1.169,0.748-1.967c0-0.804-0.256-1.467-0.764-1.99
		c-0.507-0.524-1.155-0.786-1.94-0.786c-0.779,0-1.418,0.259-1.917,0.773c-0.499,0.514-0.75,1.17-0.75,1.965
		c0,0.806,0.255,1.468,0.765,1.993C185.08,116.733,185.728,116.992,186.513,116.992 M185.06,116.054v-3.789h1.542
		c0.488,0,0.865,0.109,1.134,0.329c0.268,0.219,0.402,0.547,0.402,0.986c0,0.523-0.21,0.897-0.631,1.122l0.667,1.352h-1.151
		l-0.576-1.204h-0.301v1.204H185.06z M186.146,114.071h0.394c0.353,0,0.53-0.143,0.53-0.429c0-0.279-0.178-0.419-0.53-0.419h-0.394
		V114.071z"/>
</g>
</svg>
