<?xml version="1.0" encoding="utf-8"?>
<!-- Generator: Adobe Illustrator 19.2.1, SVG Export Plug-In . SVG Version: 6.00 Build 0)  -->
<svg version="1.1" id="Capa_1" xmlns="http://www.w3.org/2000/svg" xmlns:xlink="http://www.w3.org/1999/xlink" x="0px" y="0px"
	 viewBox="0 0 200 55.3" style="enable-background:new 0 0 200 55.3;" xml:space="preserve">
<style type="text/css">
	.st0{fill:#EF7E08;}
</style>
<g>
	<path class="st0" d="M59.2,4.1c0,0.3-0.3,0.8-0.9,1.7c-0.6,0.9-1.4,1.9-2.4,3.1c-1,1.2-2.2,2.6-3.4,4.1c-1.3,1.5-2.6,3.1-3.9,4.7
		c-1.4,1.6-2.7,3.2-3.9,4.8c-1.3,1.6-2.4,3.1-3.4,4.5c-1,1.4-1.8,2.7-2.4,3.8c-0.6,1.2-0.9,2.1-0.9,2.7c0,1,0,1.9,0.1,2.5
		c0.1,0.7,0.1,1.2,0.2,1.6c0.1,0.4,0.1,0.7,0.2,0.8c0.1,0.2,0.1,0.3,0.1,0.3c0,0.2-0.1,0.2-0.3,0.3c-0.2,0-0.4,0-0.7,0
		c-0.3,0-0.6,0-1-0.1c-0.4-0.1-0.7-0.2-1.1-0.5c-0.3-0.3-0.6-0.7-0.9-1.3c-0.3-0.6-0.5-1.5-0.6-2.6c0-1,0.1-2,0.4-3
		c0.2-1,0.7-2,1.2-3.1c0.6-1.1,1.3-2.3,2.3-3.5c0.9-1.3,2.1-2.7,3.5-4.4c1.4-1.7,3-3.6,4.9-5.7c1.9-2.1,4.1-4.6,6.5-7.3
		c0.1-0.1,0.1-0.2,0.2-0.3C52.9,7.1,53,7,53,6.9c0-0.1-0.1,0-0.3,0.2c-1,0.9-2,1.8-3.3,2.9c-1.2,1.1-2.5,2.3-3.8,3.5
		c-1.3,1.2-2.6,2.4-3.9,3.6c-1.3,1.2-2.5,2.3-3.6,3.4c-1.1,1-2.1,2-2.9,2.8c-0.8,0.8-1.4,1.5-1.8,1.9c-0.6,0.6-1.2,1.4-2,2.3
		c-0.8,0.9-1.5,1.7-2.2,2.6c-0.7,0.9-1.4,1.7-2,2.4c-0.6,0.8-1,1.3-1.3,1.7c-0.1,0.1-0.1,0.2-0.2,0.3c-0.1,0.2-0.3,0.3-0.5,0.3
		c-0.4,0-0.7-0.1-1-0.4c-0.2-0.3-0.4-0.7-0.6-1.1c-0.2-0.4-0.3-0.9-0.3-1.4c-0.1-0.5-0.1-0.9-0.1-1.3c0.3-1.2,0.8-2.5,1.4-4
		c0.6-1.5,1.3-3.1,2.1-4.8c0.8-1.7,1.8-3.3,2.8-5c1-1.7,2.1-3.3,3.3-4.8l2.2-2.8c0-0.1,0.1-0.2,0.1-0.3c0.1-0.2,0.2-0.3,0.2-0.4l0,0
		c0,0-0.2,0.2-0.5,0.5c-1.2,1.4-2.4,2.6-3.4,3.6c-0.4,0.5-0.9,0.9-1.3,1.4c-0.4,0.5-0.8,0.9-1.2,1.3c-0.4,0.4-0.7,0.7-0.9,1
		c-0.2,0.3-0.4,0.5-0.5,0.6c-0.1,0.1-0.3,0.3-0.6,0.7c-0.3,0.4-0.7,0.8-1.2,1.3c-0.5,0.5-1,1.1-1.6,1.8c-0.6,0.6-1.2,1.3-1.8,1.9
		c-1.4,1.5-3,3.2-4.7,5.1c-1.1,1.2-2.2,2.4-3.3,3.4c-0.9,0.9-1.8,1.8-2.8,2.6c-1,0.8-1.8,1.4-2.4,1.8C8.6,35.7,7.8,36,7,36.2
		c-0.6,0.2-1.2,0.4-1.8,0.6C4.7,36.9,4.3,37,4,37c-0.1,0-0.2,0-0.3,0c-0.1,0-0.2-0.1-0.2-0.2c0-0.1,0-0.1,0.1-0.2
		c0.1-0.1,0.2-0.2,0.3-0.3c1.3-1.3,2.5-2.5,3.6-3.6c1-1,1.9-1.9,2.8-2.9c0.9-0.9,1.6-1.6,2-2c0.2-0.1,0.6-0.5,1.3-1.2
		c0.7-0.7,1.6-1.5,2.7-2.6c1.1-1,2.3-2.2,3.6-3.6c1.4-1.3,2.8-2.7,4.2-4.1c1.5-1.4,3-2.8,4.5-4.2c1.5-1.4,3-2.7,4.3-3.9
		c1.4-1.2,2.6-2.2,3.8-3.1C38,4.1,39,3.5,39.8,3c0.3-0.1,0.7-0.2,1-0.3c0.3-0.1,0.6-0.1,0.9-0.2c0.3-0.1,0.6-0.1,0.8-0.1
		c0.2,0,0.3,0,0.6,0.1c0.2,0,0.3,0.2,0.3,0.4c0,0.2-0.1,0.5-0.4,0.7c-1.3,1.9-2.5,3.7-3.6,5.3c-0.5,0.7-0.9,1.4-1.4,2.1
		c-0.5,0.7-0.9,1.4-1.3,2.1c-0.4,0.6-0.8,1.2-1.1,1.8s-0.6,1-0.7,1.3L32,21.6l-0.1,0.2c0,0.1,0,0.2,0,0.3c0,0,0,0.1,0,0.1
		c0,0,0,0.1,0.1,0c2.7-2.2,5.3-4.4,7.7-6.6c2.4-2.2,4.7-4.2,6.7-5.9c2-1.8,3.8-3.2,5.3-4.3c1.5-1.1,2.7-1.7,3.6-1.7
		c0.2,0,0.2,0,0.3,0.1C55.6,3.9,55.7,4,56,4c0.2,0,0.4-0.1,0.6-0.3c0.1-0.1,0.2-0.2,0.4-0.3c0.1-0.1,0.2-0.1,0.4-0.2
		C57.5,3,57.6,3,57.8,3c0.1,0,0.1,0,0.2,0.1c0.1,0,0.4,0.2,0.9,0.6c0,0,0.1,0,0.1,0.1c0,0.1,0.1,0.1,0.1,0.2C59.2,4,59.2,4,59.2,4.1
		z"/>
	<path class="st0" d="M71.2,20.5c0,0.3-0.1,0.6-0.4,0.8c-0.6,0.6-1.5,1.4-2.5,2.3c-1,0.9-2.2,1.8-3.5,2.8c-1.3,1-2.6,1.9-4.1,2.9
		c-1.4,1-2.9,1.8-4.3,2.6c-1.4,0.8-2.8,1.4-4.1,1.8c-1.3,0.5-2.5,0.7-3.6,0.7c-2.4,0-3.5-1.4-3.5-4.3c0-1,0.2-1.9,0.7-2.9
		c0.4-1,1-2,1.8-2.9c0.7-1,1.6-1.8,2.5-2.7c1-0.8,1.9-1.6,2.9-2.2c1-0.6,2-1.1,3-1.5c1-0.4,1.9-0.6,2.7-0.6c0.4,0,0.8,0.1,1.1,0.3
		c0.4,0.2,0.7,0.4,0.9,0.6s0.5,0.5,0.7,0.9c0.2,0.3,0.3,0.6,0.3,0.8c0,0.6-0.2,1.1-0.6,1.7c-0.4,0.6-0.9,1.2-1.6,1.8
		c-0.6,0.6-1.4,1.1-2.1,1.6c-0.8,0.5-1.5,1-2.3,1.3c-0.7,0.4-1.4,0.7-2,0.9c-0.6,0.2-1,0.3-1.3,0.3c-0.2,0-0.3,0-0.5-0.1
		c-0.2-0.1-0.4-0.3-0.5-0.6c0,0-0.1,0-0.1,0c-0.1-0.1-0.2-0.1-0.3-0.1c-0.1,0-0.3,0.1-0.5,0.3c-0.2,0.2-0.4,0.5-0.6,0.9
		c-0.2,0.3-0.4,0.7-0.5,1.1c-0.2,0.4-0.2,0.7-0.2,1c0,0.4,0.2,0.7,0.6,0.8c1.2,0,2.4-0.2,3.7-0.5c1.2-0.3,2.6-0.9,4.1-1.6
		c1.5-0.8,3.1-1.7,5-2.9c1.8-1.2,3.9-2.6,6.2-4.2c0.4-0.3,0.9-0.6,1.3-1c0.5-0.3,0.9-0.7,1.4-1c0.1,0.1,0.1,0.1,0.2,0.2
		c0.1,0.1,0.1,0.1,0.2,0.2C71.1,20.3,71.2,20.4,71.2,20.5z M58.7,20c0-0.2-0.1-0.2-0.3-0.2c-0.5,0-1.1,0.3-1.8,0.8
		c-0.8,0.5-1.5,1.1-2.3,1.8c-0.8,0.6-1.4,1.3-2,1.8c-0.6,0.6-0.8,1-0.8,1.1c0,0.1,0,0.1,0.1,0.1c0.2,0,0.5-0.1,1-0.3
		c0.4-0.2,0.9-0.5,1.5-0.8c0.5-0.3,1.1-0.7,1.6-1.1c0.5-0.4,1-0.8,1.5-1.2c0.4-0.4,0.8-0.8,1.1-1.1C58.6,20.4,58.7,20.2,58.7,20z"/>
	<path class="st0" d="M90.9,21.4c0,0.3-0.1,0.6-0.4,0.8c-2.5,2.4-4.8,4.5-7,6.5c-1,0.8-1.9,1.6-2.9,2.4c-1,0.8-1.9,1.5-2.8,2.1
		c-0.9,0.6-1.7,1.1-2.5,1.5c-0.8,0.4-1.4,0.6-1.9,0.6c-0.4,0-0.8,0-1.2-0.1c-0.4-0.1-0.8-0.3-1.2-0.6c-0.4-0.3-0.6-0.7-0.9-1.2
		c-0.2-0.5-0.3-1.1-0.3-1.9c0-0.3,0.1-0.8,0.2-1.3c0.2-0.5,0.4-1.1,0.9-1.7l2-2.7c0-0.1,0.1-0.1,0.1-0.2c0-0.1,0.1-0.1,0.1-0.2
		c0,0,0-0.1,0-0.1c0,0-0.1,0-0.3,0.2c-1.2,1-2.4,2-3.5,2.9c-1.1,0.9-2.2,1.7-3.1,2.4c-0.9,0.7-1.7,1.3-2.3,1.7
		c-0.6,0.4-1.1,0.7-1.3,0.9c-0.1,0.1-0.2,0.1-0.3,0.1c-0.1,0-0.2,0.1-0.3,0.1c-0.1,0-0.2,0-0.4,0c-0.4,0-0.7-0.1-1-0.3
		c-0.3-0.2-0.5-0.6-0.5-1.1c0-0.3,0.1-0.6,0.2-0.8c0.6-0.6,1.3-1.2,1.8-1.8c0.5-0.5,1.1-1.1,1.6-1.7c0.5-0.6,1-1.1,1.4-1.6
		c0.6-0.7,1.3-1.5,1.8-2.4c0.6-0.9,1.1-1.7,1.6-2.5c0.5-0.8,0.9-1.4,1.3-2c0.4-0.5,0.8-0.8,1.1-0.8c0.1,0,0.2,0,0.4,0.1
		c0.2,0.1,0.4,0.1,0.7,0.2c0.2,0.1,0.5,0.2,0.7,0.4c0.2,0.2,0.3,0.3,0.3,0.5c0,0.2-0.1,0.4-0.2,0.6l-3.5,4.8
		c-0.1,0.1-0.2,0.2-0.3,0.4c-0.2,0.2-0.3,0.4-0.3,0.5l0,0l0.2-0.1c1.4-1,2.9-2.1,4.5-3.2c1.6-1.2,3-2.3,4.3-3.3
		c0.2-0.1,0.3-0.1,0.4-0.2c0.1-0.1,0.3-0.1,0.4-0.2c0.1,0,0.3-0.1,0.4-0.1c0.2,0,0.3,0,0.4,0.1l1.3,0.4c0.1,0.1,0.1,0.1,0.2,0.2
		c0.1,0.1,0.1,0.1,0.2,0.2c0,0.1,0.1,0.2,0.1,0.3c0,0.2-0.1,0.4-0.2,0.5c-1.5,1.7-2.7,3-3.6,4c-1,1-1.7,1.9-2.3,2.6
		c-0.6,0.7-0.9,1.4-1.2,1.9c-0.2,0.5-0.3,1.1-0.3,1.8c0,0.1,0,0.1,0.1,0.3c0,0.1,0.2,0.2,0.4,0.2c0.3,0,0.8-0.2,1.7-0.6
		c1-0.4,1.9-0.9,2.9-1.6c1-0.7,2.1-1.4,3.2-2.3c1.2-0.8,2.4-1.8,3.8-2.8c1.4-1,2.9-2.2,4.6-3.4c0.1,0.1,0.1,0.1,0.2,0.2
		c0.1,0.1,0.1,0.1,0.2,0.2C90.9,21.2,90.9,21.3,90.9,21.4z"/>
	<path class="st0" d="M109.8,20.5c0,0.3-0.1,0.6-0.4,0.8c-2.4,2.2-4.6,4.1-6.8,5.9c-0.9,0.8-1.9,1.5-2.8,2.3c-1,0.8-1.9,1.5-2.8,2.1
		c-0.9,0.6-1.8,1.2-2.6,1.7c-0.8,0.5-1.5,0.8-2.1,1c-0.2,0.1-0.4,0.1-0.6,0.1c-0.2,0-0.3,0.1-0.6,0.1c-0.2,0-0.4,0-0.7,0
		c-0.5,0-0.9-0.2-1.2-0.7c-0.3-0.5-0.4-1-0.4-1.8c0-0.4,0.1-0.9,0.4-1.3c0.2-0.4,0.4-0.9,0.6-1.5c0.1-0.1,0.1-0.2,0.2-0.3
		c0-0.1,0.1-0.1,0.1-0.2c0-0.1,0-0.1-0.1-0.1c-0.3,0-0.6,0.2-1.1,0.7c-0.2,0.1-0.5,0.4-1,0.9c-0.5,0.5-1.1,1-1.7,1.5
		c-0.6,0.5-1.3,1-2,1.4c-0.7,0.4-1.3,0.6-1.8,0.6c-0.7,0-1.2-0.2-1.4-0.5c-0.3-0.3-0.4-0.7-0.4-1.2c0-0.4,0.1-0.8,0.2-1.2
		c0.1-0.4,0.3-0.9,0.5-1.3c0.6-1.2,1.3-2.4,2.2-3.6c0.9-1.2,1.8-2.3,2.7-3.3c0.9-1,1.8-1.8,2.6-2.4c0.8-0.6,1.5-0.9,1.9-0.9
		c0.3,0,0.6,0.1,0.9,0.3c0.3,0.2,0.4,0.5,0.4,0.9c0,0.2-0.2,0.6-0.6,1s-0.9,0.9-1.4,1.4c-0.6,0.5-1.2,1.2-1.8,1.9
		c-0.6,0.7-1.2,1.5-1.7,2.3c-0.1,0.1-0.1,0.2-0.2,0.3c-0.1,0.2-0.1,0.4-0.1,0.6c0,0.2,0.1,0.3,0.3,0.3c0.1,0,0.3,0,0.5-0.1
		c0.2-0.1,0.5-0.2,0.9-0.5c0.7-0.5,1.6-1.1,2.7-1.9c1-0.8,2.1-1.6,3.1-2.4c1-0.8,1.9-1.6,2.8-2.3c0.8-0.7,1.5-1.3,1.8-1.7
		c0.1-0.2,0.2-0.3,0.3-0.4c0.1-0.1,0.2-0.2,0.4-0.3c0.2-0.1,0.4-0.1,0.7-0.1c0.5,0,1,0.1,1.5,0.2c0.5,0.1,0.7,0.3,0.7,0.6
		c0,0.2-0.2,0.5-0.6,0.9c-0.4,0.4-1,1-1.6,1.6c-0.6,0.6-1.3,1.3-2.1,2.1c-0.7,0.7-1.4,1.5-2.1,2.2c-0.6,0.7-1.2,1.4-1.6,2
		c-0.4,0.6-0.6,1.1-0.6,1.4c0,0.2,0.1,0.2,0.2,0.2c0.1,0,0.4-0.1,0.7-0.3c1.4-0.7,2.8-1.6,4.5-2.6c1.4-0.9,3-1.9,4.8-3.1
		c1.8-1.2,3.8-2.6,5.9-4.1c0.1,0.1,0.1,0.1,0.2,0.2c0.1,0.1,0.1,0.1,0.2,0.2C109.8,20.3,109.8,20.4,109.8,20.5z M104.3,9.4
		c0,0.2,0,0.3,0,0.4c0,0.1,0,0.2,0,0.3c0,0.1,0,0.2,0,0.3c-0.5,1-1.3,1.9-2.2,2.5c-1,0.7-1.9,1.2-2.9,1.5c-1,0.4-1.8,0.6-2.6,0.8
		c-0.8,0.2-1.2,0.2-1.3,0.2c-0.2,0-0.4-0.1-0.5-0.2c-0.1-0.2-0.2-0.3-0.2-0.5c0-0.2,0-0.3,0.1-0.4c0.1-0.1,0.2-0.2,0.3-0.4
		c0.1-0.1,0.3-0.3,0.4-0.4c1.1-0.7,2.1-1.4,2.9-2.1c0.8-0.7,1.4-1.4,1.9-2c0.6-0.7,1-1.4,1.3-2c0.2-0.2,0.4-0.4,0.5-0.5
		c0.2-0.1,0.3-0.1,0.5-0.1c0.4,0,0.7,0.1,0.9,0.3c0.2,0.2,0.4,0.4,0.6,0.6c0.2,0.2,0.3,0.5,0.3,0.8C104.2,8.9,104.3,9.2,104.3,9.4z"
		/>
	<path class="st0" d="M148.2,7.6c0,0.1-0.1,0.2-0.2,0.3c-0.1,0.1-0.4,0.1-0.9,0.1c-0.4,0-1,0-1.8,0c-0.8,0-1.8,0-2.8,0.1
		c-1,0-2.1,0.1-3.2,0.1c-1.1,0.1-2.1,0.1-3,0.3c-0.9,0.1-1.7,0.2-2.2,0.4c-0.6,0.2-0.9,0.3-0.9,0.6c0,0.1,0,0.2,0.1,0.3
		c0,0.1,0,0.2-0.1,0.3c0,0.1-0.1,0.2-0.3,0.3c-2.9,3.2-5.7,6.2-8.3,9.2c-1.1,1.3-2.2,2.6-3.3,3.9c-1.1,1.4-2.2,2.7-3.2,4
		c-1,1.3-2,2.5-2.8,3.7c-0.9,1.2-1.6,2.2-2.1,3.1c0,0.3-0.1,0.6-0.2,0.8c-0.1,0.2-0.2,0.4-0.3,0.6c-0.1,0.2-0.3,0.2-0.5,0.2
		c-0.1,0-0.3-0.1-0.6-0.2c-0.3-0.1-0.6-0.3-0.9-0.6c-0.3-0.3-0.5-0.6-0.8-1c-0.2-0.4-0.3-0.9-0.3-1.4c0-0.5,0.1-1.1,0.3-1.7
		c0.2-0.6,0.6-1.3,1.1-2.1c0.5-0.8,1.2-1.7,2.1-2.8c0.9-1.1,2-2.3,3.4-3.8c1.4-1.4,3-3.1,4.9-4.9c1.9-1.8,4.2-3.9,6.8-6.3
		c0.6-0.6,1-0.9,1.2-1.1c0.2-0.1,0.3-0.2,0.3-0.3c0-0.1-0.2-0.1-0.5-0.1c-0.1,0-0.3,0-0.4,0c-0.1,0-0.3,0-0.5,0.1L114.3,11
		c-0.1,0-0.1,0.1-0.2,0.1c-0.1,0-0.3,0-0.6,0c-0.2,0-0.6-0.1-1-0.3c-0.4-0.2-0.9-0.5-1.3-0.9c-0.4-0.3-0.8-0.7-1.2-1.1
		c-0.3-0.4-0.5-0.7-0.5-1c0-0.2,0.1-0.4,0.2-0.6c0.2-0.2,0.4-0.4,0.9-0.6c0.6-0.2,1.2-0.5,1.8-0.6c0.6-0.2,1.1-0.4,1.6-0.5
		c0.6-0.2,1.1-0.3,1.6-0.4c0,0,0.1,0,0.1,0c0.1,0,0.1,0,0.1,0c0,0,0.1,0,0.1,0c0.2,0,0.3,0.1,0.3,0.3c0,0.1,0,0.1,0.1,0.2
		c0,0.1,0.2,0.1,0.4,0.1c0.3,0,1.1-0.1,2.2-0.4c1.2-0.3,2.7-0.5,4.5-0.9c1.8-0.3,3.9-0.6,6.2-0.9c2.3-0.3,4.7-0.4,7.3-0.4
		c1.5,0,2.9,0.1,4.2,0.3c1.4,0.2,2.6,0.5,3.6,0.8c1,0.4,1.9,0.8,2.5,1.3C147.9,6.2,148.2,6.9,148.2,7.6z"/>
	<path class="st0" d="M146.8,20.8c0,0.3-0.1,0.6-0.4,0.8c-0.5,0.4-1.1,1-2,1.8c-0.9,0.8-1.9,1.6-2.9,2.4c-1.1,0.8-2.2,1.5-3.3,2
		c-1.2,0.6-2.2,0.9-3.2,0.9c-0.2,0-0.3,0-0.4,0c-0.1,0-0.3,0-0.4-0.1c-0.7,0.8-1.4,1.6-2.2,2.4c-0.8,0.7-1.5,1.4-2.3,1.9
		c-0.8,0.5-1.5,1-2.3,1.3c-0.7,0.3-1.4,0.5-2.1,0.5c-0.3,0-0.7-0.1-1.1-0.2c-0.4-0.1-0.8-0.3-1.1-0.5c-0.4-0.2-0.7-0.6-0.9-1
		c-0.2-0.4-0.4-1-0.4-1.8c0-0.9,0.3-2,0.9-3.2c0.6-1.2,1.4-2.5,2.4-3.8c1.1-1.3,2.4-2.5,3.9-3.6c1.5-1.2,3.2-2.1,5.1-2.8
		c0.4,0,0.6,0.1,0.7,0.2c0,0.1,0.2,0.2,0.4,0.3c0.2,0,0.4-0.1,0.5-0.2c0.1-0.1,0.3-0.2,0.7-0.2c0.2,0,0.3,0,0.5,0.1
		c0.2,0.1,0.4,0.2,0.7,0.5c0.1,0.1,0.2,0.3,0.4,0.4c0.1,0.2,0.2,0.3,0.3,0.5c0.1,0.2,0.1,0.4,0.1,0.6c0,0.9-0.2,1.9-0.7,3
		c-0.5,1.2-1.1,2.4-1.9,3.5c0.4,0,0.8-0.1,1.3-0.3c0.5-0.2,1-0.4,1.6-0.7c0.6-0.3,1.2-0.6,1.8-1c0.6-0.4,1.2-0.8,1.8-1.2
		c1.4-0.9,2.8-2,4.4-3.2c0.1,0.1,0.1,0.1,0.2,0.2c0.1,0.1,0.1,0.1,0.2,0.2C146.8,20.5,146.8,20.7,146.8,20.8z M131.3,27
		c-0.2-0.2-0.5-0.4-0.7-0.8c-0.2-0.3-0.4-0.6-0.6-1c-0.2-0.3-0.3-0.6-0.4-0.8c-0.1-0.2-0.2-0.3-0.2-0.3c-0.8,0.7-1.5,1.5-2,2.4
		c-0.6,0.8-1,1.6-1.3,2.3c-0.3,0.7-0.6,1.3-0.7,1.7c-0.1,0.5-0.2,0.7-0.2,0.8c0,0.2,0.1,0.4,0.2,0.4c0.6,0,1.2-0.2,1.8-0.6
		c0.7-0.4,1.3-0.9,1.9-1.4c0.6-0.5,1.1-1.1,1.5-1.6S131.3,27.2,131.3,27z M135.5,20.5C135.5,20.4,135.4,20.4,135.5,20.5
		c-0.2-0.1-0.5,0.1-0.9,0.3c-0.4,0.3-0.7,0.6-1.1,1c-0.4,0.4-0.7,0.7-1,1.1c-0.3,0.4-0.4,0.7-0.4,0.9c0,0.1,0.1,0.3,0.3,0.6
		c0.2,0.3,0.3,0.4,0.4,0.4c0.3,0,0.6-0.2,0.9-0.6c0.3-0.4,0.6-0.9,0.9-1.4c0.3-0.5,0.5-1,0.7-1.5C135.4,20.8,135.5,20.5,135.5,20.5z
		"/>
	<path class="st0" d="M185,9.2c0,0.2-0.1,0.5-0.3,0.9c-0.2,0.4-0.8,1.1-1.6,1.8c-1.5,1.7-3,3.4-4.4,5c-0.6,0.7-1.2,1.4-1.9,2.2
		c-0.6,0.8-1.2,1.5-1.8,2.3c-0.6,0.8-1.2,1.5-1.7,2.2c-0.5,0.7-1,1.4-1.4,2c-1.8,2.6-3.6,5.4-5.5,8.2c-1.9,2.8-3.9,5.5-6,8
		c-2.2,2.5-4.5,4.8-7.1,6.7c-2.6,2-5.5,3.4-8.7,4.3c-0.3,0-0.7,0-1.1-0.1c-0.4-0.1-0.8-0.2-1.1-0.4c-0.3-0.2-0.6-0.4-0.9-0.7
		c-0.2-0.3-0.3-0.6-0.3-1c0-0.7,0.3-1.5,0.9-2.6c0.6-1,1.4-2.1,2.6-3.2c1.2-1.1,2.7-2.2,4.4-3.3c1.8-1.1,3.8-1.9,6.2-2.7
		c0.1-0.1,0.3-0.1,0.6-0.1c0.2,0,0.5-0.2,0.7-0.6l13.2-15.7l0.7-0.9c0.1-0.1,0.1-0.2,0.1-0.2c0-0.1,0-0.1,0-0.1
		c-0.1,0-0.1,0.1-0.2,0.2c-0.8,0.8-1.5,1.5-2,2c-0.5,0.5-1,1-1.5,1.5s-0.8,0.8-0.9,0.9c-0.9,1-2,2.1-3.3,3.4
		c-1.3,1.3-2.7,2.5-4.2,3.7c-1.5,1.2-3,2.1-4.5,2.9c-1.5,0.8-2.9,1.2-4.1,1.2c-0.8,0-1.5-0.2-2-0.6s-0.9-0.9-1.2-1.5
		c-0.3-0.6-0.5-1.2-0.6-1.9c-0.1-0.7-0.2-1.3-0.2-1.8c0-1.9,0.6-3.9,1.7-6c1.1-2,2.6-4,4.4-6c1.8-1.9,3.9-3.8,6.3-5.5
		c2.4-1.7,4.8-3.2,7.3-4.5c2.5-1.3,5-2.3,7.5-3.1c2.5-0.8,4.8-1.1,6.9-1.1h0c0.6,0,1,0.1,1.5,0.3c0.4,0.2,0.8,0.5,1.1,0.8
		c0.3,0.3,0.5,0.6,0.7,0.9c0.2,0.3,0.2,0.6,0.2,0.7c0,0.2,0,0.3,0,0.3c0.4,0.2,0.7,0.3,0.9,0.4c0.2,0.1,0.4,0.3,0.5,0.3
		C184.9,9,184.9,9.1,185,9.2z M155.1,39.8C155.1,39.8,155,39.7,155.1,39.8c-1.3,0.3-2.5,1-3.8,2.1c-1.3,1.1-2.6,2.2-3.8,3.3
		c-1.2,1.2-2.1,2.3-2.9,3.3c-0.8,1-1.2,1.7-1.2,2c0,0.1,0,0.2,0.1,0.2c0.1,0,0.1,0,0.2,0c0.2,0,0.7-0.2,1.3-0.6
		c0.6-0.4,1.3-0.9,2.1-1.6c0.8-0.6,1.6-1.4,2.5-2.2c0.9-0.8,1.7-1.6,2.4-2.4c0.8-0.8,1.4-1.6,2-2.3
		C154.5,40.9,154.9,40.3,155.1,39.8z M182,8.4c0-0.1-0.1-0.2-0.4-0.2c-1.3,0-2.8,0.3-4.5,0.9c-1.7,0.6-3.6,1.4-5.5,2.4
		c-2,1-4,2.3-6.1,3.7c-2.1,1.5-4.1,3.1-6,4.9c-2,1.8-3.8,3.7-5.5,5.8c-1.7,2.1-3.1,4.2-4.3,6.5c-0.1,0.2-0.1,0.3-0.1,0.3
		c0,0.1,0.1,0.2,0.2,0.2c0.6,0,1.6-0.4,3-1.1c1.4-0.8,2.9-1.8,4.7-3c1.8-1.3,3.7-2.7,5.8-4.4c2.1-1.7,4.2-3.4,6.4-5.1
		c2.2-1.8,4.3-3.5,6.3-5.3c2.1-1.8,4-3.4,5.7-5C181.9,8.7,182,8.5,182,8.4z"/>
	<path class="st0" d="M196.5,20.8c0,0.3-0.1,0.6-0.4,0.8c-0.5,0.4-1.1,1-2,1.8c-0.9,0.8-1.9,1.6-2.9,2.4c-1.1,0.8-2.2,1.5-3.3,2
		c-1.2,0.6-2.2,0.9-3.2,0.9c-0.2,0-0.3,0-0.4,0c-0.1,0-0.3,0-0.4-0.1c-0.7,0.8-1.4,1.6-2.2,2.4c-0.8,0.7-1.5,1.4-2.3,1.9
		c-0.8,0.5-1.5,1-2.3,1.3c-0.7,0.3-1.4,0.5-2.1,0.5c-0.3,0-0.7-0.1-1.1-0.2c-0.4-0.1-0.8-0.3-1.1-0.5c-0.4-0.2-0.7-0.6-0.9-1
		c-0.2-0.4-0.4-1-0.4-1.8c0-0.9,0.3-2,0.9-3.2c0.6-1.2,1.4-2.5,2.4-3.8c1.1-1.3,2.4-2.5,3.9-3.6c1.5-1.2,3.2-2.1,5.1-2.8
		c0.4,0,0.6,0.1,0.7,0.2c0,0.1,0.2,0.2,0.4,0.3c0.2,0,0.4-0.1,0.5-0.2c0.1-0.1,0.3-0.2,0.7-0.2c0.2,0,0.3,0,0.5,0.1
		c0.2,0.1,0.4,0.2,0.7,0.5c0.1,0.1,0.2,0.3,0.4,0.4c0.1,0.2,0.2,0.3,0.3,0.5c0.1,0.2,0.1,0.4,0.1,0.6c0,0.9-0.2,1.9-0.7,3
		c-0.5,1.2-1.1,2.4-1.9,3.5c0.4,0,0.8-0.1,1.3-0.3c0.5-0.2,1-0.4,1.6-0.7c0.6-0.3,1.2-0.6,1.8-1c0.6-0.4,1.2-0.8,1.8-1.2
		c1.4-0.9,2.8-2,4.4-3.2c0.1,0.1,0.1,0.1,0.2,0.2c0.1,0.1,0.1,0.1,0.2,0.2C196.5,20.5,196.5,20.7,196.5,20.8z M181,27
		c-0.2-0.2-0.5-0.4-0.7-0.8c-0.2-0.3-0.4-0.6-0.6-1c-0.2-0.3-0.3-0.6-0.4-0.8c-0.1-0.2-0.2-0.3-0.2-0.3c-0.8,0.7-1.5,1.5-2,2.4
		c-0.6,0.8-1,1.6-1.3,2.3c-0.3,0.7-0.6,1.3-0.7,1.7c-0.1,0.5-0.2,0.7-0.2,0.8c0,0.2,0.1,0.4,0.2,0.4c0.6,0,1.2-0.2,1.8-0.6
		c0.7-0.4,1.3-0.9,1.9-1.4c0.6-0.5,1.1-1.1,1.5-1.6C180.8,27.6,181,27.2,181,27z M185.2,20.5C185.2,20.4,185.1,20.4,185.2,20.5
		c-0.2-0.1-0.5,0.1-0.9,0.3c-0.4,0.3-0.7,0.6-1.1,1c-0.4,0.4-0.7,0.7-1,1.1c-0.3,0.4-0.4,0.7-0.4,0.9c0,0.1,0.1,0.3,0.3,0.6
		c0.2,0.3,0.3,0.4,0.4,0.4c0.3,0,0.6-0.2,0.9-0.6c0.3-0.4,0.6-0.9,0.9-1.4c0.3-0.5,0.5-1,0.7-1.5C185.1,20.8,185.2,20.5,185.2,20.5z
		"/>
</g>
</svg>
