<?xml version="1.0" encoding="utf-8"?>
<!-- Generator: Adobe Illustrator 19.2.1, SVG Export Plug-In . SVG Version: 6.00 Build 0)  -->
<svg version="1.1" id="Layer_1" xmlns="http://www.w3.org/2000/svg" xmlns:xlink="http://www.w3.org/1999/xlink" x="0px" y="0px"
	 viewBox="0 0 200 200" style="enable-background:new 0 0 200 200;" xml:space="preserve">
<style type="text/css">
	.st0{fill:#FFFFFF;}
</style>
<g>
	<path class="st0" d="M93.7,85.8c-0.4-0.2-0.7-0.3-1.1-0.3c-0.3,0.1-0.5,0.2-0.7,0.3c-0.2,0.2-0.4,0.3-0.7,0.4
		c-0.9,0.5-1.8,1.1-2.8,1.8c-1,0.7-2.2,1.5-3.6,2.6c-0.1,0.1-0.3,0.2-0.4,0.4c-0.1,0.1-0.2,0.3-0.3,0.5c-0.1,0.4,0,0.7,0.2,1.1
		c0.2,0.4,0.5,0.6,0.9,0.8c0.4,0.2,0.7,0.2,1-0.1c0.3-0.2,0.6-0.4,0.9-0.6l5.5-3.2c0.3-0.2,0.6-0.4,1.1-0.6c0.5-0.2,0.7-0.5,0.8-0.9
		c0.1-0.4,0.1-0.9-0.1-1.3C94.4,86.4,94.1,86.1,93.7,85.8z"/>
	<path class="st0" d="M91.9,102c-0.3,0.1-0.5,0.3-0.8,0.6c-0.2,0.3-0.5,0.5-0.7,0.7l-4.2,4.2c-0.4,0.3-0.7,0.7-1.1,1
		c-0.4,0.3-0.8,0.6-1.2,0.8c-0.4,0.2-0.6,0.2-0.7,0.1c-0.1-0.1-0.2-0.3-0.1-0.5c0-0.2,0.1-0.5,0.2-0.8s0.2-0.5,0.3-0.7
		c0.5-1.1,1.2-2.1,1.9-3.1c0.8-1,1.7-2,2.7-3.1c0.5-0.6,1-1.1,1.4-1.6c0.5-0.5,1-1,1.4-1.5c0.2-0.2,0.3-0.4,0.4-0.5
		c0.1-0.2,0.1-0.4,0.1-0.6c-0.1-0.5-0.3-0.9-0.6-1.4c-0.3-0.4-0.8-0.7-1.4-0.7c-0.3,0-0.6,0.2-0.9,0.4c-0.3,0.2-0.5,0.5-0.7,0.7
		l-4,4.5c-1.2,1.4-2.5,2.8-3.7,4.1c-1.3,1.3-2.7,2.5-4.1,3.6c-0.8,0.6-1.4,0.9-1.8,1.1c-0.4,0.2-0.7,0.2-0.8,0.1s-0.2-0.3-0.1-0.6
		c0.1-0.3,0.3-0.7,0.5-1.1c0.2-0.4,0.5-0.8,0.8-1.3c0.3-0.4,0.6-0.8,0.9-1.2c1-1.3,2-2.5,3.1-3.6c1.1-1.1,2.2-2.3,3.3-3.5
		c0.3-0.3,0.5-0.7,0.5-1.2c0-0.4-0.2-0.8-0.6-1.3c-0.4-0.5-0.8-0.7-1.4-0.7c-0.3,0-0.6,0.2-0.9,0.4c-0.3,0.3-0.5,0.5-0.7,0.7
		c-0.7,0.7-1.4,1.4-2.2,2.3c-0.8,0.9-1.6,1.8-2.4,2.7c-0.4,0.5-0.8,1-1.1,1.4c0,0,0,0-0.1,0c-0.2,0.3-0.5,0.5-0.7,0.7l-1.6,1.6
		c-0.4,0.4-0.8,0.8-1.3,1.3c-0.5,0.4-0.9,0.9-1.4,1.3c-0.5,0.4-1,0.8-1.5,1.1c-0.5,0.3-1,0.6-1.4,0.8c-0.3,0.1-0.5,0.1-0.5,0
		c0-0.1,0-0.3,0.1-0.6c0.1-0.2,0.2-0.5,0.4-0.8c0.2-0.3,0.3-0.5,0.5-0.7c0.9-1.2,1.9-2.3,3-3.3c1.1-1,2.1-2.2,3.1-3.4
		c0.2-0.3,0.5-0.7,0.7-1.1c0.3-0.4,0.4-0.8,0.6-1.2c0.1-0.4,0.2-0.9,0.2-1.3c0-0.4-0.2-0.9-0.5-1.3c-0.3-0.4-0.6-0.7-1.1-0.9
		c-0.4-0.2-1-0.3-1.8-0.2c-1.1,0.2-2.1,0.5-3,0.9c-0.9,0.4-1.8,0.9-2.6,1.5c-0.1-0.6-0.3-1.1-0.8-1.5c-0.5-0.4-1-0.6-1.6-0.4
		c-0.2,0.1-0.3,0.2-0.5,0.3c-0.2,0.1-0.3,0.3-0.4,0.4c-1.2,1.4-2.3,2.6-3.2,3.7c-0.8,1-1.5,1.9-2.2,2.7c-0.2,0.1-0.3,0.2-0.5,0.4
		c-0.3,0.3-0.5,0.5-0.7,0.8c-0.5,0.5-1.2,1.1-2.1,1.9c-0.9,0.8-1.9,1.5-3,2.2c-1.1,0.7-2.2,1.3-3.3,1.7c-1.1,0.4-2.1,0.5-2.9,0.2
		c-0.5-0.2-0.8-0.4-1-0.7c-0.2-0.3-0.3-0.6-0.4-0.9c0-0.3,0-0.7,0.1-1c0.1-0.4,0.3-0.7,0.5-1.1c0.9,0.4,1.9,0.5,2.9,0.4
		c1-0.1,2-0.3,3-0.7c1.3-0.5,2.5-1.2,3.6-2.1c1.1-0.9,2.1-2,2.8-3.2c0.3-0.6,0.6-1.2,0.8-1.9c0.2-0.7,0.1-1.3-0.3-1.9
		c-0.4-0.7-1-1.1-1.7-1.3c-0.7-0.2-1.5-0.3-2.3-0.2c-0.8,0.1-1.7,0.3-2.5,0.6c-0.8,0.3-1.5,0.6-2.1,1c-0.8,0.5-1.5,1-2.3,1.6
		c-0.8,0.6-1.5,1.2-2.2,1.9c-0.7,0.7-1.3,1.4-1.9,2.2c-0.1,0.1-0.2,0.3-0.3,0.4c0,0-0.1,0.1-0.1,0.1c-0.2,0.3-0.7,0.7-1.4,1.4
		c-0.7,0.7-1.4,1.3-2.2,2c-0.7,0.7-1.5,1.3-2.3,1.9c-0.2,0.1-0.4,0.3-0.7,0.5c-0.3,0.2-0.6,0.4-0.9,0.6s-0.6,0.2-0.8,0.2
		c-0.2,0-0.3-0.2-0.3-0.6c0.2-1,0.7-2.1,1.5-3c0.8-1,1.6-2,2.5-3.1c1.3-1.5,2.6-3,4-4.4c1.4-1.4,2.6-2.9,3.8-4.5
		c0.6-0.8,1.1-1.6,1.7-2.3c0.6-0.8,1-1.6,1.4-2.5c0.2-0.4,0.4-0.8,0.5-1.3c0.1-0.5,0.2-0.9,0.2-1.4c0-0.5,0-0.9-0.2-1.3
		c-0.1-0.4-0.4-0.8-0.7-1.2c-0.3-0.4-0.7-0.7-1.2-0.9c-0.5-0.2-1-0.3-1.5-0.4c-0.5-0.1-1,0-1.5,0c-0.5,0.1-1,0.2-1.4,0.4
		c-1,0.4-1.9,0.9-2.8,1.4c-0.9,0.6-1.7,1.2-2.6,1.9c0-1-0.3-1.8-1-2.5c-0.7-0.7-1.5-1.1-2.4-1.2c-1.1-0.2-2.1-0.1-3.2,0.3
		c-1,0.4-2,0.9-2.9,1.4c-0.5,0.3-1.1,0.7-1.6,1.1c-0.5,0.4-1,0.7-1.5,1.1c0-0.6-0.1-1.1-0.3-1.5c-0.2-0.5-0.5-0.8-0.9-1.2
		C21,83.3,20.5,83,20,82.8c-0.5-0.2-1-0.3-1.5-0.4c-1.2-0.1-2.4,0-3.5,0.4c-1.2,0.4-2.3,0.9-3.3,1.4c-0.9,0.5-1.8,1.1-2.8,1.8
		c-0.9,0.7-1.8,1.5-2.5,2.4c-0.7,0.9-1.3,1.8-1.8,2.8S4,93.3,4,94.5c0,0.6,0.1,1.2,0.3,1.9c0.2,0.7,0.6,1.2,1.1,1.4
		c0.3,0.2,0.6,0.3,0.9,0.3s0.6-0.1,0.8-0.2c0.3-0.1,0.4-0.3,0.6-0.6c0.1-0.3,0.1-0.6,0-0.9c-0.1-0.3-0.2-0.6-0.2-1
		c-0.1-0.4,0-0.8,0-1.2c0.1-0.4,0.2-0.9,0.3-1.2c0.2-0.4,0.3-0.8,0.6-1.1c0.4-0.7,0.9-1.4,1.4-1.9c0.6-0.6,1.1-1.1,1.7-1.6
		c0.7-0.5,1.4-1,2.1-1.4c0.7-0.4,1.5-0.8,2.3-1.1c0.3-0.1,0.6-0.2,1.1-0.3c0.4-0.1,0.8-0.2,1.2-0.2s0.6,0.1,0.8,0.3
		c0.2,0.2,0.1,0.6-0.1,1.1c-0.3,0.8-0.7,1.5-1.2,2.2c-0.5,0.7-1,1.4-1.5,2.1c-0.5,0.7-1.1,1.4-1.6,2.1c-0.6,0.7-1.1,1.4-1.7,2
		c-1.1,1.4-2.3,2.8-3.4,4.2c-1.1,1.4-2.3,2.8-3.4,4.3c-0.6,0.7-1.1,1.4-1.6,2.1c-0.5,0.7-1.1,1.5-1.6,2.2c-0.2,0.3-0.4,0.6-0.7,1
		c-0.3,0.3-0.4,0.7-0.3,1.1c0.1,0.4,0.2,0.7,0.5,0.9c0.3,0.3,0.6,0.4,0.9,0.5c0.7,0.2,1.3,0.1,1.8-0.5c0.3-0.4,0.5-0.7,0.8-1.1
		c0.3-0.4,0.5-0.7,0.8-1.1c0.6-0.7,1.1-1.4,1.7-2.1c0.6-0.7,1.1-1.4,1.7-2.1c1.1-1.4,2.3-2.8,3.5-4.1c1.2-1.3,2.3-2.7,3.6-4
		c1.2-1.3,2.4-2.6,3.6-3.8c1.2-1.3,2.6-2.5,3.9-3.6c0.6-0.5,1.3-1.1,1.9-1.6c0.7-0.5,1.4-1,2.1-1.4c0.5-0.2,0.9-0.4,1.3-0.5
		c0.4-0.1,0.7-0.2,1-0.1c0.3,0.1,0.4,0.2,0.5,0.4c0.1,0.2,0,0.6-0.2,1.1c-0.3,0.8-0.7,1.5-1.1,2.2c-0.5,0.7-0.9,1.4-1.4,2.1
		c-1,1.4-2.1,2.8-3.2,4.1l-7.1,8.3c-0.3,0.3-0.6,0.7-1,1.1c-0.4,0.4-0.9,1.1-1.6,1.9c-0.1,0.2-0.2,0.3-0.3,0.5
		c-0.1,0.2-0.2,0.3-0.3,0.5c-0.1,0.4,0,0.7,0.3,1c0.2,0.3,0.5,0.6,0.9,0.7c0.4,0.2,0.7,0.2,1.1,0.2c0.4-0.1,0.7-0.2,1-0.5
		c2.4-2.8,4.7-5.5,7-8.3c2.3-2.8,4.8-5.5,7.3-8.1c0.6-0.6,1.2-1.3,1.8-1.9c0.6-0.6,1.3-1.2,1.9-1.8c0.6-0.6,1.3-1.1,2-1.6
		c0.7-0.5,1.4-1,2.1-1.4c0.3-0.2,0.6-0.4,1-0.6c0.4-0.2,0.7-0.3,1-0.3c0.3,0,0.5,0.1,0.7,0.3c0.1,0.2,0.1,0.6-0.1,1.3
		c-0.3,0.8-0.7,1.5-1.2,2.2s-0.9,1.4-1.4,2.1c-1,1.4-2.1,2.8-3.3,4c-1.2,1.3-2.3,2.5-3.5,3.8c-0.6,0.7-1.1,1.3-1.7,2s-1.1,1.3-1.6,2
		c-0.5,0.7-1,1.4-1.5,2.1c-0.5,0.7-0.8,1.5-1,2.4c-0.2,0.8-0.1,1.5,0.1,2.2c0.2,0.7,0.7,1.3,1.3,1.7c0.7,0.5,1.3,0.8,1.9,0.9
		c0.6,0.1,1.2-0.1,2-0.4c0.8-0.3,1.5-0.7,2.2-1.2c0.7-0.5,1.3-1,1.9-1.5c0.3-0.3,0.6-0.5,0.9-0.8c0.1,0.8,0.4,1.5,0.9,2.1
		c0.7,1,1.7,1.6,2.8,1.9s2.3,0.2,3.5,0c1.2-0.2,2.4-0.6,3.5-1.2c0.7-0.4,1.4-0.7,2-1.1c0,0.1,0,0.1,0,0.2c0.2,0.5,0.5,0.9,1.1,1.2
		c0.5,0.3,1.1,0.3,1.6,0.2c0.3-0.1,0.5-0.3,0.6-0.5c0.1-0.2,0.2-0.5,0.4-0.7c0.4-0.5,0.8-1.1,1.2-1.7s0.9-1.2,1.4-1.8
		c0.5-0.6,0.9-1.2,1.4-1.7c0.5-0.6,0.9-1,1.3-1.4c0.7-0.7,1.4-1.3,2.1-1.9s1.5-1.2,2.3-1.8c0.7-0.5,1.4-0.9,2.1-1.3
		c0.7-0.4,1.5-0.7,2.3-1c0.4-0.1,0.6-0.1,0.6,0.1c-0.1,0.2-0.3,0.5-0.6,0.8c-0.3,0.4-0.6,0.7-1,1.1c-0.4,0.4-0.6,0.6-0.8,0.7
		c-1,1-2,2-3,3.1c-1,1-1.8,2.2-2.3,3.5c-0.3,0.6-0.4,1.2-0.5,1.8c-0.1,0.6,0,1.2,0.2,1.7c0.2,0.5,0.5,1,1,1.3
		c0.5,0.3,1.1,0.5,1.9,0.4c1.2-0.1,2.3-0.4,3.3-1c0.9-0.5,1.7-1.1,2.4-1.8c0.1,0.4,0.2,0.9,0.4,1.3c0.3,0.5,0.7,0.9,1.3,1.1
		c0.5,0.3,1.1,0.4,1.7,0.4c0.7,0,1.3-0.1,1.9-0.4c0.6-0.3,1.1-0.5,1.6-0.8c1-0.6,1.9-1.3,2.7-2c0,0.3,0.1,0.5,0.1,0.8
		c0.1,0.3,0.2,0.5,0.3,0.8c0.3,0.5,0.7,0.9,1.3,1.2c0.6,0.3,1.1,0.4,1.7,0.4c0.6,0,1.1-0.1,1.6-0.3c0.5-0.2,1-0.5,1.4-0.8
		s0.9-0.6,1.3-1c0.4-0.4,0.8-0.7,1.2-1c0.7-0.7,1.5-1.4,2.1-2.1c0.7-0.7,1.4-1.4,2.2-2.2c0.2-0.2,0.4-0.5,0.6-0.7
		c0.2-0.2,0.4-0.5,0.4-0.8c0.1-0.6-0.1-1-0.6-1.4C92.9,101.9,92.4,101.8,91.9,102z M47.5,100.1c0.7-0.5,1.4-1,2.2-1.5
		c0.8-0.4,1.6-0.8,2.5-1c0.2,0.1,0.2,0.3,0.1,0.7c-0.1,0.3-0.3,0.7-0.6,1c-0.7,0.8-1.6,1.6-2.6,2.4c-1,0.7-2.2,1.2-3.4,1.4
		c-0.5,0.1-0.9,0.1-1.3,0C45.2,102,46.3,101,47.5,100.1z"/>
	<path class="st0" d="M129,102c-0.4-0.1-0.7-0.1-1,0.1c-0.3,0.2-0.6,0.4-0.8,0.7c-0.9,0.8-2.1,1.3-3.4,1.3l0.8-1.4
		c0.3-0.5,0.5-1.1,0.8-1.8c0.2-0.7,0.4-1.4,0.4-2.1c0.1-0.7,0-1.4-0.3-2c-0.2-0.6-0.7-1.2-1.3-1.6c-1-0.5-2.1-0.7-3.3-0.5
		c-1.2,0.2-2.3,0.5-3.3,1.1c-1.7,0.9-3.2,2.1-4.6,3.6c-0.8,0.9-1.6,2-2.2,3c-0.1,0.1-0.3,0.2-0.4,0.4c-0.2,0.3-0.5,0.5-0.7,0.8
		c-1.1,1.2-1.9,2.1-2.4,2.6c-0.6,0.6-1.1,1.1-1.5,1.5c-0.1,0.1-0.4,0.3-0.8,0.6c-0.4,0.3-0.8,0.6-1.2,0.8c-0.4,0.2-0.8,0.3-1,0.3
		c-0.3-0.1-0.3-0.4-0.1-1.1c0.4-1.2,1.1-2.3,1.9-3.4c0.9-1.1,1.7-2.1,2.6-3.1c0.4-0.5,0.9-1.1,1.4-1.7c0.5-0.6,1.1-1.2,1.8-2
		c0.7-0.7,1.5-1.6,2.4-2.6s2-2.2,3.3-3.6c1.6-0.2,3.3-0.4,5-0.5c1.7-0.1,3.4-0.3,5.2-0.4c0.3,0,0.6,0,1,0c0.4,0,0.7-0.1,0.9-0.4
		c0.1-0.2,0.2-0.4,0.3-0.7c0.1-0.3,0.1-0.6,0.1-1c0-0.3-0.1-0.6-0.2-0.9c-0.1-0.3-0.3-0.5-0.6-0.6c-0.2-0.1-0.4-0.1-0.6-0.1
		c-0.2,0-0.4,0.1-0.6,0.1c-0.9,0.1-1.9,0.1-2.9,0.2c-1,0.1-2.2,0.2-3.5,0.4l2.7-2.5c0.2-0.2,0.4-0.3,0.6-0.5s0.4-0.4,0.4-0.7
		c0.1-0.4,0-0.9-0.3-1.3c-0.3-0.4-0.6-0.7-0.9-0.9c-0.2-0.1-0.4-0.2-0.7-0.3c-0.2,0-0.5,0-0.7,0.2c-0.2,0.2-0.5,0.4-0.7,0.6
		c-0.2,0.2-0.4,0.4-0.7,0.6c-1,0.8-1.9,1.7-2.9,2.7c-0.9,0.9-1.8,1.9-2.8,2.8c-1.3,0.2-2.3,0.3-3.1,0.4c-0.8,0.1-1.4,0.2-1.9,0.3
		c-0.5,0.1-0.8,0.1-1.1,0.2c-0.3,0-0.5,0.1-0.7,0.1c-0.3,0.1-0.6,0.1-0.9,0.2c-0.3,0.1-0.5,0.3-0.6,0.6c-0.2,0.7-0.1,1.4,0.4,2
		c0.2,0.3,0.4,0.4,0.7,0.3c0.3-0.1,0.5-0.1,0.8-0.1l2.9-0.3c-1.3,1.4-2.7,2.9-4,4.3c-1.3,1.5-2.6,3-3.8,4.5c-0.4,0.5-0.9,1.2-1.5,2
		c-0.6,0.9-1.2,1.8-1.6,2.8c-0.5,1-0.7,2-0.8,2.9c-0.1,1,0.3,1.8,1,2.5s1.6,1,2.7,1c1.3-0.1,2.4-0.5,3.4-1.2
		c0.9-0.6,1.7-1.4,2.4-2.1c0,0.4,0.1,0.8,0.2,1.1c0.2,0.6,0.7,1.2,1.3,1.6c1,0.6,2.1,0.7,3.3,0.5c1.2-0.2,2.3-0.6,3.3-1.1
		c0.9-0.5,1.7-1.1,2.6-1.8c0.8-0.7,1.8-1.7,2.7-2.8c1.1,0.3,2.2,0.3,3.3,0.1c1.1-0.2,2.2-0.7,3.3-1.4c0.3-0.2,0.6-0.5,1-0.8
		c0.4-0.3,0.6-0.6,0.6-1c0.1-0.4,0-0.7-0.2-1C129.6,102.3,129.3,102.1,129,102z M116.9,106.7c-0.6,0.6-1.3,1.2-2.1,1.7
		c-0.3,0.2-0.7,0.4-1.1,0.7c-0.4,0.2-0.8,0.4-1.1,0.4c-0.3,0.1-0.6,0-0.7-0.2s-0.1-0.6,0.1-1.3c0.4-1.3,1-2.7,1.9-3.9
		c0.9-1.3,1.9-2.4,3-3.5c0.1,0.8,0.2,1.5,0.5,2.2c0.3,0.7,0.7,1.4,1.3,1.9C118.1,105.5,117.5,106.1,116.9,106.7z M122,99.2
		c-0.1,0.5-0.3,1-0.5,1.5c-0.2,0.5-0.5,1.1-1,1.6c-0.2-0.3-0.4-0.7-0.5-1.1c-0.1-0.4-0.2-0.8-0.2-1.2c0-0.4,0-0.7,0.1-1.1
		c0-0.3,0.1-0.6,0.2-0.8c0.3-0.2,0.5-0.3,0.8-0.4c0.3-0.1,0.5-0.1,0.7-0.1c0.2,0.1,0.3,0.2,0.4,0.4C122.1,98.4,122.1,98.7,122,99.2z
		"/>
	<path class="st0" d="M159.7,100.4c0.2-0.2,0.2-0.4,0.2-0.7c0-0.5-0.2-0.9-0.7-1.3c-0.3-0.2-0.7-0.3-1.1-0.4
		c-0.5-0.1-0.9,0.1-1.2,0.4c-0.2,0.2-0.3,0.4-0.5,0.6s-0.3,0.4-0.5,0.6c-1.4,1.9-3.1,3.8-5.2,5.7c-0.8,0.7-1.6,1.3-2.3,2
		c-0.8,0.6-1.6,1.2-2.6,1.7c-0.5,0.2-1,0.5-1.4,0.7c-0.5,0.2-1,0.3-1.5,0.3s-0.8-0.2-1-0.7c-0.2-0.5-0.3-0.9-0.3-1.3
		c0-1,0.1-2,0.5-2.9c0.4-1,0.8-1.9,1.3-2.8c0.5-0.9,1.1-1.7,1.7-2.5c0.6-0.8,1.2-1.6,1.9-2.3c1.3-1.5,2.8-2.9,4.3-4.2
		c1.5-1.3,3.2-2.5,4.9-3.6c1.7-1.1,3.5-2,5.5-2.8c1.9-0.8,3.9-1.3,6-1.4c0.3,0,0.5-0.1,0.8-0.1c0.3,0,0.5,0,0.8,0
		c0.2,0,0.4,0,0.6-0.1c0.2,0,0.4-0.1,0.6-0.3c0.3-0.3,0.5-0.6,0.5-1c0-0.4-0.2-0.7-0.4-1c-0.3-0.3-0.6-0.5-1-0.6
		c-0.4-0.1-0.8-0.1-1.2-0.1c-1,0.1-2,0.2-3,0.3c-2,0.3-3.9,0.8-5.8,1.6c-1.9,0.8-3.6,1.7-5.4,2.7c-1.7,1-3.3,2.2-4.9,3.5
		c-1.5,1.3-3,2.7-4.3,4.1c-1.3,1.4-2.6,3-3.8,4.7c-1.2,1.7-2,3.5-2.6,5.4c-0.3,0.9-0.4,1.8-0.5,2.7c0,0.9,0.1,1.8,0.5,2.6
		c0.4,0.9,0.9,1.6,1.7,2.1c0.8,0.5,1.6,0.8,2.6,0.9c0.5,0.1,1,0.1,1.5-0.1c0.5-0.1,1-0.2,1.5-0.4l-2.1,2.7c-0.1,0.2-0.3,0.3-0.4,0.5
		c-0.1,0.2-0.2,0.4-0.2,0.7c0,0.2,0.1,0.4,0.2,0.6c0.1,0.2,0.2,0.4,0.4,0.6c0.3,0.3,0.7,0.5,1.2,0.6c0.5,0.1,0.9,0,1.2-0.3
		c0.2-0.2,0.4-0.4,0.5-0.6c0.2-0.2,0.3-0.5,0.5-0.7c1-1.2,1.9-2.4,2.8-3.6c0.9-1.1,1.8-2.3,2.7-3.5c0.9-1.2,1.9-2.5,3-3.8
		c1-1.3,2.2-2.9,3.5-4.5C159.4,100.8,159.6,100.6,159.7,100.4z"/>
	<path class="st0" d="M179.5,104.7c0.4-0.3,0.6-0.6,0.6-1c0.1-0.4,0-0.7-0.2-1c-0.2-0.3-0.5-0.5-0.9-0.6c-0.4-0.1-0.7-0.1-1,0.1
		c-0.3,0.2-0.6,0.4-0.8,0.7c-0.9,0.8-2.1,1.3-3.4,1.3l0.8-1.4c0.3-0.5,0.5-1.1,0.8-1.8c0.2-0.7,0.4-1.4,0.4-2.1c0.1-0.7,0-1.4-0.3-2
		c-0.2-0.6-0.7-1.2-1.3-1.6c-1-0.5-2.1-0.7-3.3-0.5c-1.2,0.2-2.3,0.5-3.3,1.1c-1.7,0.9-3.2,2.1-4.6,3.6c-1.3,1.5-2.5,3.2-3.4,5.1
		c-0.3,0.5-0.5,1.2-0.8,1.8c-0.2,0.7-0.4,1.4-0.4,2.1c0,0.7,0.1,1.3,0.3,2c0.2,0.6,0.7,1.2,1.3,1.6c1,0.6,2.1,0.7,3.3,0.5
		c1.2-0.2,2.3-0.6,3.3-1.1c0.9-0.5,1.7-1.1,2.6-1.8c0.8-0.7,1.8-1.7,2.7-2.8c1.1,0.3,2.2,0.3,3.3,0.1c1.1-0.2,2.2-0.7,3.3-1.4
		C178.8,105.2,179.2,104.9,179.5,104.7z M167,106.7c-0.6,0.6-1.3,1.2-2.1,1.7c-0.3,0.2-0.7,0.4-1.1,0.7c-0.4,0.2-0.8,0.4-1.1,0.4
		c-0.3,0.1-0.6,0-0.7-0.2s-0.1-0.6,0.1-1.3c0.4-1.3,1-2.7,1.9-3.9c0.9-1.3,1.9-2.4,3-3.5c0.1,0.8,0.2,1.5,0.5,2.2
		c0.3,0.7,0.7,1.4,1.3,1.9C168.2,105.5,167.6,106.1,167,106.7z M172.1,99.2c-0.1,0.5-0.3,1-0.5,1.5c-0.2,0.5-0.5,1.1-1,1.6
		c-0.2-0.3-0.4-0.7-0.5-1.1c-0.1-0.4-0.2-0.8-0.2-1.2c0-0.4,0-0.7,0.1-1.1c0-0.3,0.1-0.6,0.2-0.8c0.3-0.2,0.5-0.3,0.8-0.4
		c0.3-0.1,0.5-0.1,0.7-0.1c0.2,0.1,0.3,0.2,0.4,0.4C172.2,98.4,172.2,98.7,172.1,99.2z"/>
	<path class="st0" d="M180.3,107.7c-0.5-0.2-1-0.1-1.4,0.2c-0.5,0.3-0.9,0.6-1.2,0.9c-0.2,0.2-0.3,0.4-0.5,0.6
		c-0.2,0.2-0.2,0.4-0.2,0.7c0,0.6,0.3,1.2,0.8,1.6c0.5,0.5,1.1,0.6,1.8,0.5c0.1,0,0.3-0.1,0.6-0.3c0.2-0.1,0.5-0.3,0.7-0.5
		c0.2-0.2,0.4-0.4,0.6-0.6c0.2-0.2,0.3-0.4,0.3-0.6c0.1-0.5,0-1.1-0.3-1.5C181.2,108.2,180.8,107.9,180.3,107.7z"/>
	<path class="st0" d="M197.9,86.6c-0.2-0.3-0.4-0.6-0.7-0.7c-0.3-0.2-0.6-0.3-1-0.3s-0.7,0.1-1,0.4c-1.2,1-2.4,2-3.4,3.2
		c-1.1,1.1-2.1,2.3-3.1,3.6c-1,1.3-2,2.6-2.9,4c-1,1.4-1.9,2.8-3,4.3c-0.2,0.3-0.4,0.5-0.6,0.8c-0.2,0.3-0.2,0.6-0.1,0.9
		c0.2,0.3,0.4,0.6,0.7,0.8c0.3,0.2,0.6,0.4,0.9,0.4c0.3,0.1,0.6,0,0.8-0.2c0.2-0.2,0.4-0.4,0.5-0.7c1.6-2.3,3.5-4.7,5.4-7.2
		s4.1-4.7,6.5-6.6c0.2-0.2,0.5-0.4,0.8-0.7c0.4-0.3,0.5-0.6,0.5-0.9C198.3,87.3,198.1,86.9,197.9,86.6z"/>
</g>
</svg>
