<?xml version="1.0" encoding="utf-8"?>
<!-- Generator: Adobe Illustrator 19.2.1, SVG Export Plug-In . SVG Version: 6.00 Build 0)  -->
<svg version="1.1" id="Capa_1" xmlns="http://www.w3.org/2000/svg" xmlns:xlink="http://www.w3.org/1999/xlink" x="0px" y="0px"
	 viewBox="0 0 400 400" style="enable-background:new 0 0 400 400;" xml:space="preserve">
<style type="text/css">
	.st0{fill:#FFFFFF;}
	.st1{fill:#F08100;}
</style>
<g>
	<g>
		<g>
			<path class="st0" d="M80.3,104.4h1.4v98.5H65.8v-29c0-9.3,0.1-18.3,0.6-26.9l-7,21.2H44.9l-7.7-24.3c0.4,9,0.7,19,0.7,30v29H23.3
				v-98.5h16.7L53,145.4l13.4-41.1H80.3z"/>
			<path class="st0" d="M131.1,117.9h-21.9v28.8h18.3v13.5h-18.3v29.1h21.9v13.5H93.2v-98.5h37.8V117.9z"/>
			<path class="st0" d="M176.5,104.4v13.5h-12.2v85h-15.9v-85H136v-13.5H176.5z"/>
			<path class="st0" d="M210.7,202.8l-3.4-24.1h-12.9l-3.4,24.1h-15.8l18-99.2h15.9l17.7,99.2H210.7z M196.3,165.3h9l-4.5-31.6
				L196.3,165.3z"/>
			<path class="st0" d="M264.7,104.4h14.5v98.5h-16.9L247.3,148c0.3,9.3,0.4,17.9,0.4,25.9v29h-14.5v-98.5h17.3l14.6,53.9
				c-0.3-9-0.4-17.3-0.4-24.9V104.4z"/>
			<path class="st0" d="M306.7,189.3h21.7v13.5h-37.6v-98.5h15.9V189.3z"/>
			<path class="st0" d="M373.1,117.9h-21.9v28.8h18.3v13.5h-18.3v29.1h21.9v13.5h-37.8v-98.5h37.8V117.9z"/>
		</g>
		<rect x="96.1" y="86.8" class="st0" width="32.5" height="8.6"/>
	</g>
	<g>
		<path class="st1" d="M90.8,203.4c-1.7-0.9-3.4-1.3-5-1.4c-1.7-0.1-3.4-0.2-5.2-0.2c-0.9,0-1.7,0-2.6,0c-0.9,0-1.5,0.1-1.7,0.3
			c-1.5,1.5-2.9,3-4.3,4.6c-1.4,1.5-2.8,3.1-4.2,4.6c-2.7,2.9-5.3,5.8-7.8,8.7c-2.6,2.9-5.1,5.9-7.5,8.9
			c-6.4,7.8-12.3,15.6-17.8,23.3c-5.5,7.8-10.5,15.8-15,24.1c-0.4,0.9-0.8,1.7-1.2,2.5c-0.4,0.8-0.7,1.6-1,2.5
			c-0.2,0.6-0.4,1.4-0.6,2.2c-0.2,0.8-0.5,1.5-1,2c-0.9,1.2-2,1.8-3.4,1.8c-1.4,0.1-2.7-0.2-3.8-0.9c-1.4-0.9-2.3-2-2.7-3.4
			c-0.2-0.9-0.2-1.7,0.1-2.5c0.3-0.8,0.5-1.6,0.7-2.3c1.2-3.5,2.7-6.9,4.6-10.2c1.9-3.2,3.8-6.4,5.8-9.5c2.1-3.2,4.3-6.4,6.5-9.6
			c2.2-3.2,4.4-6.3,6.6-9.4c4.6-6.2,9.3-12.2,14.2-18.1c4.8-5.9,9.9-11.8,15.1-17.5c-1.4,0.2-2.8,0.5-4.3,0.7
			c-1.5,0.3-3.2,0.5-5.1,0.7c-1.9,0.2-4.1,0.5-6.6,0.7c-2.5,0.3-5.5,0.6-8.9,0.9c-1.2,0-2.4,0.1-3.7,0.2c-1.3,0.1-2.5-0.1-3.5-0.6
			c-0.9-0.3-1.6-0.8-2.2-1.4c-0.6-0.6-1.1-1.3-1.4-2.1c-0.3-0.8-0.4-1.6-0.2-2.3c0.2-0.7,0.7-1.4,1.5-2.1c0.9-0.6,1.8-1,2.7-1
			c1,0,1.9-0.1,2.9-0.2c2.5,0,5-0.2,7.5-0.5c4.9-0.4,9.8-1,14.6-1.8c4.8-0.8,9.7-1.5,14.6-2c4.2-0.5,8.5-0.9,13-1
			c4.5-0.1,8.8,0.7,12.9,2.4c0.7,0.3,1.5,0.7,2.4,1.2c0.9,0.5,1.7,1,2.4,1.7c0.7,0.6,1.3,1.4,1.8,2.2c0.4,0.8,0.5,1.7,0.3,2.6
			c-0.2,1-0.7,1.7-1.4,2.2c-0.7,0.5-1.6,0.8-2.6,0.8c-0.9,0.1-1.8-0.1-2.9-0.5C92.1,204.5,91.3,204,90.8,203.4z"/>
		<path class="st1" d="M90.5,268c-1.9,0-3.8-0.4-5.5-1.2c-1.8-0.8-3.1-2.1-4.1-3.8c-0.5-0.9-0.9-1.7-1-2.6c-0.2-0.9-0.3-1.7-0.4-2.6
			c-2.5,2.1-5.3,4.2-8.5,6.2c-1.5,0.9-3.1,1.7-5,2.6c-1.8,0.9-3.8,1.3-5.9,1.3c-1.8,0-3.6-0.4-5.3-1.2c-1.7-0.8-3-2-4-3.6
			c-1.2-2.1-1.6-4.3-1.4-6.6c0.3-2.3,0.8-4.4,1.7-6.5c1.1-2.8,2.7-5.7,4.8-8.9c2.1-3.1,4.5-6.2,7-9.3c2.5-3,5.1-5.9,7.7-8.6
			c2.6-2.7,5-5.1,7.1-7.3c0.7-0.6,1.5-1.4,2.3-2.2c0.8-0.8,1.7-1.3,2.8-1.4c1.8,0,3.3,0.7,4.5,2.2c1.2,1.4,1.8,2.8,1.8,4.1
			c0,1.5-0.5,2.7-1.4,3.7c-3.5,3.8-7,7.6-10.5,11.2c-3.5,3.6-6.7,7.5-9.8,11.5c-1,1.1-1.9,2.3-2.9,3.7c-1,1.4-1.8,2.7-2.6,4
			c-0.7,1.3-1.3,2.4-1.6,3.4c-0.3,1-0.3,1.7,0.2,2c0.4,0.3,1.3,0.2,2.6-0.3c1.3-0.5,3.2-1.7,5.8-3.5c4.7-3.4,9.1-7.2,13.1-11.3
			c4-4.1,8-8.4,11.8-12.9l12.6-14.2c0.6-0.7,1.4-1.5,2.2-2.2c0.8-0.7,1.7-1.2,2.8-1.3c1.8,0,3.3,0.7,4.3,2.1
			c1.1,1.4,1.7,2.8,1.9,4.3c0,0.9-0.1,1.5-0.3,2c-0.2,0.5-0.6,1-1.3,1.7c-1.5,1.6-3,3.2-4.6,4.7c-1.5,1.5-3.1,3.2-4.6,5
			c-3.1,3.4-5.9,6.7-8.4,9.8c-2.5,3.1-4.6,6.4-6.2,9.8c-0.3,0.5-0.6,1.2-1,2.1c-0.3,0.9-0.5,1.7-0.6,2.4c-0.1,0.7,0,1.3,0.4,1.7
			c0.4,0.4,1.1,0.2,2.3-0.4c1.4-0.7,2.7-1.6,3.8-2.6c1.2-1,2.3-2,3.5-3l13.4-13.4c0.6-0.6,1.3-1.4,2.1-2.2c0.7-0.8,1.5-1.4,2.4-1.8
			c1.7-0.6,3.3-0.4,4.6,0.7c1.4,1.1,2,2.6,1.8,4.4c-0.2,1.1-0.7,1.9-1.4,2.6c-0.7,0.7-1.4,1.4-2,2.2c-2.5,2.5-4.8,4.8-7,7
			c-2.2,2.2-4.5,4.4-6.8,6.6c-1.2,1.1-2.4,2.2-3.7,3.3c-1.3,1.1-2.6,2.2-4.1,3.1c-1.4,1-3,1.8-4.6,2.4C94,267.7,92.3,268,90.5,268z"
			/>
		<path class="st1" d="M147.4,268c-1.9,0-3.8-0.4-5.5-1.2c-1.8-0.8-3.1-2.1-4.1-3.8c-0.5-0.9-0.9-1.7-1-2.6
			c-0.2-0.9-0.3-1.7-0.4-2.6c-2.5,2.1-5.3,4.2-8.5,6.2c-1.5,0.9-3.1,1.7-5,2.6c-1.8,0.9-3.8,1.3-5.9,1.3c-1.8,0-3.6-0.4-5.3-1.2
			c-1.7-0.8-3-2-4-3.6c-1.2-2.1-1.6-4.3-1.4-6.6c0.3-2.3,0.8-4.4,1.7-6.5c1.1-2.8,2.7-5.7,4.8-8.9c2.1-3.1,4.5-6.2,7-9.3
			c2.5-3,5.1-5.9,7.7-8.6c2.6-2.7,5-5.1,7.1-7.3c0.7-0.6,1.5-1.4,2.3-2.2c0.8-0.8,1.7-1.3,2.8-1.4c1.8,0,3.3,0.7,4.5,2.2
			c1.2,1.4,1.8,2.8,1.8,4.1c0,1.5-0.5,2.7-1.4,3.7c-3.5,3.8-7,7.6-10.5,11.2c-3.5,3.6-6.7,7.5-9.8,11.5c-1,1.1-1.9,2.3-2.9,3.7
			c-1,1.4-1.8,2.7-2.6,4c-0.7,1.3-1.3,2.4-1.6,3.4c-0.3,1-0.3,1.7,0.2,2c0.4,0.3,1.3,0.2,2.6-0.3c1.3-0.5,3.2-1.7,5.8-3.5
			c4.7-3.4,9.1-7.2,13.1-11.3c4-4.1,8-8.4,11.8-12.9l12.6-14.2c0.6-0.7,1.4-1.5,2.2-2.2c0.8-0.7,1.7-1.2,2.8-1.3
			c1.8,0,3.3,0.7,4.3,2.1c1.1,1.4,1.7,2.8,1.9,4.3c0,0.9-0.1,1.5-0.3,2c-0.2,0.5-0.6,1-1.3,1.7c-1.5,1.6-3,3.2-4.6,4.7
			c-1.5,1.5-3.1,3.2-4.6,5c-3.1,3.4-5.9,6.7-8.4,9.8c-2.5,3.1-4.6,6.4-6.2,9.8c-0.3,0.5-0.6,1.2-1,2.1c-0.3,0.9-0.5,1.7-0.6,2.4
			c-0.1,0.7,0,1.3,0.4,1.7c0.4,0.4,1.1,0.2,2.3-0.4c1.4-0.7,2.7-1.6,3.8-2.6c1.2-1,2.3-2,3.5-3l13.4-13.4c0.6-0.6,1.3-1.4,2.1-2.2
			c0.7-0.8,1.5-1.4,2.4-1.8c1.7-0.6,3.3-0.4,4.6,0.7c1.4,1.1,2,2.6,1.8,4.4c-0.2,1.1-0.7,1.9-1.4,2.6c-0.7,0.7-1.4,1.4-2,2.2
			c-2.5,2.5-4.8,4.8-7,7c-2.2,2.2-4.5,4.4-6.8,6.6c-1.2,1.1-2.4,2.2-3.7,3.3c-1.3,1.1-2.6,2.2-4.1,3.1c-1.4,1-3,1.8-4.6,2.4
			C150.9,267.7,149.2,268,147.4,268z"/>
		<path class="st1" d="M204.3,268c-1.9,0-3.8-0.4-5.5-1.2c-1.8-0.8-3.1-2.1-4.1-3.8c-0.5-0.9-0.9-1.7-1-2.6
			c-0.2-0.9-0.3-1.7-0.4-2.6c-2.5,2.1-5.3,4.2-8.5,6.2c-1.5,0.9-3.1,1.7-5,2.6c-1.8,0.9-3.8,1.3-5.9,1.3c-1.8,0-3.6-0.4-5.3-1.2
			c-1.7-0.8-3-2-4-3.6c-1.2-2.1-1.6-4.3-1.4-6.6c0.3-2.3,0.8-4.4,1.7-6.5c1.1-2.8,2.7-5.7,4.8-8.9c2.1-3.1,4.5-6.2,7-9.3
			c2.5-3,5.1-5.9,7.7-8.6c2.6-2.7,5-5.1,7.1-7.3c0.7-0.6,1.5-1.4,2.3-2.2c0.8-0.8,1.7-1.3,2.8-1.4c1.8,0,3.3,0.7,4.5,2.2
			c1.2,1.4,1.8,2.8,1.8,4.1c0,1.5-0.5,2.7-1.4,3.7c-3.5,3.8-7,7.6-10.5,11.2c-3.5,3.6-6.7,7.5-9.8,11.5c-1,1.1-1.9,2.3-2.9,3.7
			c-1,1.4-1.8,2.7-2.6,4c-0.7,1.3-1.3,2.4-1.6,3.4c-0.3,1-0.3,1.7,0.2,2c0.4,0.3,1.3,0.2,2.6-0.3c1.3-0.5,3.2-1.7,5.8-3.5
			c4.7-3.4,9.1-7.2,13.1-11.3c4-4.1,8-8.4,11.8-12.9l12.6-14.2c0.6-0.7,1.4-1.5,2.2-2.2c0.8-0.7,1.7-1.2,2.8-1.3
			c1.8,0,3.3,0.7,4.3,2.1c1.1,1.4,1.7,2.8,1.9,4.3c0,0.9-0.1,1.5-0.3,2c-0.2,0.5-0.6,1-1.3,1.7c-1.5,1.6-3,3.2-4.6,4.7
			c-1.5,1.5-3.1,3.2-4.6,5c-3.1,3.4-5.9,6.7-8.4,9.8c-2.5,3.1-4.6,6.4-6.2,9.8c-0.3,0.5-0.6,1.2-1,2.1c-0.3,0.9-0.5,1.7-0.6,2.4
			c-0.1,0.7,0,1.3,0.4,1.7c0.4,0.4,1.1,0.2,2.3-0.4c1.4-0.7,2.7-1.6,3.8-2.6c1.2-1,2.3-2,3.5-3l13.4-13.4c0.6-0.6,1.3-1.4,2.1-2.2
			c0.7-0.8,1.5-1.4,2.4-1.8c1.7-0.6,3.3-0.4,4.6,0.7c1.4,1.1,2,2.6,1.8,4.4c-0.2,1.1-0.7,1.9-1.4,2.6c-0.7,0.7-1.4,1.4-2,2.2
			c-2.5,2.5-4.8,4.8-7,7c-2.2,2.2-4.5,4.4-6.8,6.6c-1.2,1.1-2.4,2.2-3.7,3.3c-1.3,1.1-2.6,2.2-4.1,3.1c-1.4,1-3,1.8-4.6,2.4
			C207.9,267.7,206.2,268,204.3,268z"/>
		<path class="st1" d="M230.7,235.9c3.2-3.1,6.2-6.2,9-9.4c2.8-3.2,5.6-6.4,8.4-9.8c0.2-0.4,0.5-0.8,0.9-1.2
			c0.4-0.4,0.7-0.8,0.9-1.2c-0.2-1.1-0.2-2.2-0.1-3.5c0.2-1.3,0.5-2.5,1-3.5c0.5-1.1,1.2-1.9,2.1-2.6c0.9-0.7,2-1.1,3.3-1.2
			c1.6-0.1,3,0.4,4.2,1.4c1.2,1.1,1.9,2.4,2.1,4c0.1,1.1,0,2.1-0.3,3.1c-0.3,1-0.7,2-1.3,3l1.8,0.8c1.6,0.7,3.2,1.1,4.7,1.2
			c1.5,0.1,3.1,0.5,4.6,1.4c1.4,0.9,2.4,2,3.1,3.5c0.7,1.5,0.5,2.8-0.6,4c-3.3,3.7-6.3,7.3-9,10.6c-2.7,3.4-5.3,6.7-7.8,10.2
			c-0.4,0.6-1.1,1.7-1.9,3.3c-0.9,1.5-1.6,3-2.2,4.5c-0.6,1.4-0.8,2.6-0.6,3.4c0.2,0.9,1,0.9,2.6,0c3.2-1.7,6.3-4.1,9.3-7.2
			c3-3.1,6.8-7,11.5-11.7c0.6-0.7,1.3-1.5,2.1-2.3c0.7-0.8,1.5-1.4,2.4-1.8c1.7-0.6,3.3-0.4,4.7,0.7c1.4,1.1,2,2.6,1.7,4.4
			c-0.2,1.1-0.7,1.9-1.4,2.6c-0.7,0.7-1.4,1.4-2,2.2c-1.9,1.9-3.6,3.6-5,5c-1.4,1.4-2.6,2.7-3.7,3.7c-1.1,1-2,1.9-2.8,2.7
			c-0.8,0.8-1.6,1.6-2.3,2.3c-1.2,1.1-2.4,2.2-3.7,3.3c-1.3,1.1-2.6,2.2-4.1,3.1c-1.4,1-3,1.7-4.6,2.3c-1.6,0.6-3.3,0.9-5,0.9
			c-2.2,0-4.2-0.5-5.8-1.4c-1.6-0.9-2.8-2.1-3.7-3.5c-0.9-1.4-1.4-3.1-1.5-5c-0.2-1.9,0-3.8,0.6-5.8c1.1-4.2,2.9-8,5.4-11.5
			c2.5-3.5,5.1-6.9,7.8-10.2c0.7-1,1.5-1.9,2.2-2.9c0.7-1,1.5-1.9,2.3-2.9c-0.6-0.2-1.4-0.5-2.3-1c-0.9-0.4-1.6-0.9-2.2-1.3
			c-0.7,1-1.5,1.9-2.4,3c-0.9,1-1.8,2.2-3,3.4c-1.1,1.3-2.5,2.8-4,4.5c-1.5,1.7-3.4,3.7-5.7,6.1c-0.6,0.6-1.3,1.3-1.9,2.1
			c-0.6,0.7-1.4,1.3-2.2,1.8c-1.2,0.6-2.3,0.8-3.4,0.4c-1.1-0.4-1.9-1-2.6-1.8c-0.6-0.9-1-1.8-1-3
			C229.5,237.9,229.9,236.8,230.7,235.9z"/>
		<path class="st1" d="M320.9,251.1c-2.2,0-4.2-0.2-5.9-0.6c-5.4,5.4-11.2,9.8-17.4,13.1c-1.9,1-4.1,1.9-6.5,2.7
			c-2.4,0.9-4.8,1.4-7.2,1.7c-2.4,0.3-4.7,0.1-6.9-0.6c-2.2-0.6-4-2-5.4-4.2c-1.3-1.9-1.9-4.1-1.8-6.5c0.1-2.4,0.5-4.7,1.2-6.8
			c1.4-4.4,3.5-8.4,6.4-12c2.9-3.6,5.8-7.1,8.6-10.6c6.4-7.4,12.8-14.6,19.4-21.7c6.5-7.1,13.3-14,20.3-20.9c1.5-1.5,3-3,4.6-4.6
			c1.6-1.5,3.3-3.1,5-4.6c0.7-0.6,1.5-1.4,2.3-2.2c0.8-0.8,1.6-1.4,2.5-1.8c1.1-0.4,2.2-0.4,3.3,0.2c1.1,0.5,2,1.3,2.8,2.3
			c0.7,1,1.2,2.1,1.4,3.3c0.2,1.2,0,2.2-0.6,3c-0.6,0.7-1.4,1.4-2.2,2.1c-0.8,0.6-1.6,1.3-2.3,1.9c-6,6-11,11-15,15.1
			c-4.1,4.1-7.9,8.1-11.5,11.9c2.8-0.2,5.4,0.4,7.8,1.8c2.5,1.4,4.2,3.5,5.1,6.3c1.1,3.1,1.2,6.2,0.3,9.3c-0.9,3.1-2.1,5.9-3.8,8.5
			l-2.9,4.2c3.9-0.3,7.6-1.9,10.9-4.6c0.6-0.5,1.3-1,1.8-1.5c0.6-0.5,1.3-0.8,2.2-0.9c1.7-0.3,3.1,0.2,4.3,1.6c1,1.2,1.3,2.5,1,4
			c-0.2,0.9-0.6,1.6-1.2,2.2c-0.6,0.6-1.1,1.1-1.7,1.7c-2.7,2.2-5.6,4-8.9,5.2C327.7,250.4,324.3,251.1,320.9,251.1z M296.5,251.1
			c1.3-1,2.6-1.9,3.8-3c1.3-1,2.5-2.1,3.7-3.3c-1.8-1.6-3.3-3.5-4.5-5.7c-1.2-2.2-1.9-4.6-2.1-7.3l-8,9.3c-1,1.2-2,2.5-3.2,4.1
			c-1.2,1.5-2.3,3.1-3.4,4.6c-1.1,1.5-1.9,3-2.5,4.4c-0.6,1.4-0.7,2.5-0.4,3.2c0.3,0.9,1.1,1.2,2.4,1c1.3-0.2,2.7-0.6,4.3-1.4
			c1.6-0.8,3.3-1.8,5-2.9C293.5,253.1,295.1,252,296.5,251.1z M311.5,236.7c0.5-0.6,1.3-1.7,2.3-3c1-1.4,1.9-2.9,2.8-4.4
			c0.9-1.5,1.5-3,1.8-4.5c0.4-1.4,0.1-2.5-0.7-3.1c-0.9-0.6-1.8-0.9-2.8-0.7c-1,0.2-1.9,0.4-2.8,0.7c-2.5,1.1-4.1,3-4.9,5.8
			c-0.8,2.8-0.6,5.3,0.7,7.7c0.2,0.6,0.5,1.2,1,1.7c0.4,0.5,0.9,0.9,1.4,1.4C310.8,237.5,311.2,237,311.5,236.7z"/>
		<path class="st1" d="M327.5,258.6c-0.5-2.9-0.4-5.8,0.4-8.8c0.8-3,1.9-5.8,3.4-8.6c1.4-2.7,3.1-5.3,5-7.7c1.9-2.4,3.6-4.5,5.4-6.3
			c2.1-2.5,4.4-4.7,6.9-6.8c2.5-2.1,5.1-3.9,8-5.4c2-1.2,4.4-2.1,7-2.7c2.7-0.6,5.2-0.8,7.8-0.6c2.5,0.3,4.7,1.1,6.7,2.5
			c2,1.4,3.3,3.5,3.9,6.4c0.5,2.8,0.4,5.6-0.3,8.6c-0.7,2.9-1.8,5.8-3.3,8.5c-1.4,2.7-3.1,5.3-5,7.8c-1.9,2.5-3.7,4.6-5.4,6.6
			c-2.1,2.5-4.4,4.7-6.9,6.9c-2.5,2.1-5.1,3.9-8,5.4c-2.1,1.2-4.6,2.1-7.3,2.8c-2.7,0.7-5.4,0.9-7.9,0.6c-2.6-0.3-4.8-1.1-6.7-2.6
			C329.2,263.8,328,261.6,327.5,258.6z M362,224c-2.6,1.8-5,3.7-7.2,5.8c-3.6,3.5-6.9,7.3-9.7,11.3c-2.8,4-4.9,8.2-6.3,12.7
			c-0.7,2.1-0.9,3.5-0.3,4.2c0.5,0.6,1.4,0.8,2.5,0.6c1.1-0.3,2.3-0.7,3.6-1.4c1.3-0.7,2.3-1.3,3-1.8c1.3-0.9,2.5-1.8,3.7-2.8
			c1.2-1,2.3-2.1,3.5-3.1c2.3-2.2,4.5-4.7,6.4-7.3c1.9-2.6,3.7-5.3,5.4-8.1c0.7-1.3,1.5-2.6,2.2-3.9c0.7-1.3,1.3-2.7,1.7-4.2
			c0.4-2,0.4-3.4,0-4.1c-0.4-0.7-1.1-1-2-0.9c-0.9,0.1-1.9,0.5-3.1,1.2C364.2,222.7,363.1,223.4,362,224z"/>
	</g>
	<path class="st1" d="M34.4,313.2c-1.5,0-3.1-0.7-4-2.1c-1.6-2.2-1.1-5.3,1.1-7c39.7-28.9,97.5-23.5,158.7-17.9
		c53.2,4.9,108.3,10,162.2-3.8c2.7-0.7,5.4,0.9,6.1,3.6c0.7,2.7-0.9,5.4-3.6,6.1c-55.6,14.2-114,8.8-165.5,4
		c-61.8-5.7-115.2-10.6-151.9,16C36.5,312.9,35.4,313.2,34.4,313.2z"/>
	<g>
		<g>
			<path class="st0" d="M392.7,197.6c-1-1-2.3-1.5-3.8-1.5c-1.5,0-2.8,0.5-3.8,1.5c-1,1-1.5,2.3-1.5,3.8c0,1.5,0.5,2.8,1.5,3.8
				c1,1,2.3,1.5,3.8,1.5c1.5,0,2.8-0.5,3.8-1.5c1-1,1.5-2.3,1.5-3.8C394.3,199.8,393.8,198.6,392.7,197.6 M391.9,204.4
				c-0.8,0.8-1.7,1.2-2.9,1.2c-1.2,0-2.2-0.4-2.9-1.2c-0.8-0.8-1.2-1.8-1.2-3c0-1.2,0.4-2.2,1.1-3c0.8-0.8,1.7-1.2,2.9-1.2
				c1.2,0,2.2,0.4,3,1.2c0.8,0.8,1.2,1.8,1.2,3C393,202.6,392.6,203.6,391.9,204.4"/>
			<path class="st0" d="M391.4,200.4c0-0.7-0.2-1.2-0.6-1.5c-0.4-0.4-1-0.5-1.7-0.5h-2.3v5.8h1.6v-1.8h0.5l0.9,1.8h1.7l-1-2.1
				C391.1,201.8,391.4,201.2,391.4,200.4 M389,201.1h-0.6v-1.3h0.6c0.5,0,0.8,0.2,0.8,0.6C389.8,200.9,389.5,201.1,389,201.1"/>
		</g>
	</g>
</g>
</svg>
