<?xml version="1.0" encoding="utf-8"?>
<!-- Generator: Adobe Illustrator 15.0.0, SVG Export Plug-In . SVG Version: 6.00 Build 0)  -->
<!DOCTYPE svg PUBLIC "-//W3C//DTD SVG 1.1//EN" "http://www.w3.org/Graphics/SVG/1.1/DTD/svg11.dtd">
<svg version="1.1" id="Layer_1" xmlns="http://www.w3.org/2000/svg" xmlns:xlink="http://www.w3.org/1999/xlink" x="0px" y="0px"
	 width="200px" height="200px" viewBox="0 0 200 200" enable-background="new 0 0 200 200" xml:space="preserve">
<g>
	<path fill="#F5841F" d="M39.541,90.544c0,6.19-0.132,10.472-0.395,12.849c-0.038,0.53-0.207,0.906-0.51,1.134l-1.188,0.169
		c-3.698,0-6.323-0.133-7.871-0.396c-0.037-0.187-0.074-0.679-0.112-1.471v-0.227c-0.189-0.151-0.283-0.473-0.283-0.962v-0.682
		v-0.677v-0.454v-2.094c0-0.716-0.018-1.783-0.056-3.199c-0.037-1.417-0.058-2.482-0.058-3.198c0-0.076,0.039-0.171,0.114-0.283
		v-0.284c0-0.264-0.056-0.396-0.17-0.396h-0.17l-0.17,1.134l-0.456,0.622l-0.169,0.906c-0.342,0.339-0.74,1.395-1.193,3.168
		c-0.114,0.228-0.284,0.55-0.51,0.963c-0.078,0.682-0.456,1.963-1.136,3.85c-0.116,0.076-0.23,0.188-0.345,0.339
		c0,0.419-0.179,0.917-0.538,1.501c-0.361,0.584-0.73,0.973-1.107,1.16c-0.756,0.341-2.026,0.511-3.805,0.511
		c-1.29,0-2.113-0.084-2.475-0.255c-0.358-0.172-0.842-0.404-1.448-0.707c-0.417-1.471-1.003-3.094-1.762-4.867
		c0-0.19-0.169-0.568-0.51-1.135v-0.736c-0.147-0.225-0.313-0.566-0.499-1.019c-0.038-0.186-0.074-0.432-0.112-0.736
		c-0.222-1.207-0.573-2.169-1.055-2.885c0-0.569-0.038-0.907-0.111-1.021c-0.298-0.903-0.54-1.454-0.723-1.642
		c-0.225-0.035-0.39,0-0.5,0.114v4.189v4.13c0,3.74-0.339,6.059-1.02,6.965c-0.191,0-0.661,0.019-1.414,0.058
		c-0.568,0.036-1.039,0.057-1.417,0.057c0.037,0-0.565-0.057-1.811-0.171c-0.792,0-2.02-0.074-3.68-0.225
		c-0.265-0.492-0.396-2.039-0.396-4.642c0-0.19-0.021-0.474-0.057-0.849v-0.85c0-4.418-0.094-6.776-0.284-7.08
		c0-0.338,0.057-0.959,0.169-1.866c0.075-0.793,0.095-1.434,0.056-1.926v-0.34C0.177,87.015,0.084,86.9,0.084,86.75l0.226-0.567
		c0.075-0.263,0.114-1.962,0.114-5.094c0-1.887,0.019-4.717,0.057-8.493c0.037-3.772,0.056-6.604,0.056-8.492V62.52
		c0.036-0.868,0.058-1.358,0.058-1.469c0.113-0.682,0.282-1.078,0.508-1.192c0.681-0.037,1.378-0.055,2.096-0.055
		c4.224,0,6.549,0.112,6.962,0.341c0.526,1.018,2.093,4.039,4.698,9.055c0.339,0.568,0.811,1.416,1.416,2.548
		c0.453,1.059,1.224,2.587,2.319,4.585c0.305,0.606,0.794,1.454,1.475,2.547c0.149-0.188,0.32-0.318,0.507-0.397
		c0.377-1.055,0.566-1.562,0.566-1.526c0.189-0.225,0.437-0.566,0.737-1.02c0.113-0.301,0.302-0.735,0.566-1.302
		c0-0.3,0.093-0.621,0.283-0.961c0.302-0.527,0.452-0.812,0.452-0.847c0.229-0.604,0.624-1.51,1.191-2.72
		c0.263-0.488,0.639-1.225,1.131-2.208c0.036-0.3,0.151-0.736,0.339-1.303c0.15-0.186,0.358-0.506,0.624-0.96
		c0.075-0.189,0.188-0.471,0.339-0.849c0.376-0.756,0.792-1.945,1.246-3.566c0.15-0.301,0.283-0.529,0.396-0.68
		c0.488-0.338,1.359-0.51,2.604-0.51c0.943,0,1.869,0.018,2.775,0.057l0.621-0.057c0.113-0.113,0.32-0.246,0.624-0.396
		c0,0.265,0.114,0.396,0.34,0.396c0.035-0.264,0.131-0.396,0.281-0.396c0.115,0,0.264,0.093,0.454,0.283
		c0.981-0.037,1.378-0.057,1.189-0.057c0.792,0,1.358,0.211,1.7,0.624c0.074,0.454,0.149,1.113,0.227,1.981
		c0.149,2.529,0.225,5.586,0.225,9.173c0,0.037-0.019,0.074-0.054,0.111c0.036,0.605,0.054,4.737,0.054,12.398v3.168
		C39.524,88.752,39.541,89.827,39.541,90.544"/>
	<path fill="#F5841F" d="M63.374,64.615c0,1.358-0.208,2.208-0.623,2.547c-0.04,0-0.963,0.022-2.774,0.058
		c-0.113-0.036-0.737-0.058-1.868-0.058c-0.567,0-1.454-0.026-2.661-0.084c-1.208-0.057-2.112-0.083-2.717-0.083h-2.208h-3.961
		h-3.908c-0.301,0-0.565-0.265-0.794-0.79v-2.695c0-1.613,0.039-2.622,0.115-3.034c0.075-0.411,0.369-0.658,0.877-0.732
		c0.509-0.072,1.595-0.111,3.255-0.111l0.113,0.058c1.171,0,3.321,0.036,6.456,0.112c2.716,0.037,4.866,0.055,6.453,0.055
		c0.301,0,0.679,0.04,1.132,0.115c1.131,0.039,1.81,0.073,2.037,0.112c0.68,0.227,1.021,0.719,1.021,1.472v0.396
		c-0.039,0.153-0.057,0.267-0.057,0.342c0,0.265,0.018,0.651,0.057,1.159C63.354,63.963,63.374,64.351,63.374,64.615 M63.374,99.884
		c0,1.925-0.112,3.416-0.338,4.473l-0.225,0.228c-2.552,0.225-4.336,0.338-5.349,0.338h-0.225h-0.225h-4.984h-4.983h-0.646H45.75
		h-0.675h-0.734c-0.076,0-0.564-0.074-1.462-0.225c-0.152-0.074-0.3-0.244-0.451-0.508c-0.039-0.109-0.066-0.326-0.084-0.645
		c-0.021-0.317-0.029-0.552-0.029-0.701v-0.676v-0.564v-0.617v-0.676v-0.618v-2.025v-0.362v-0.367V96.43v-0.17V95.75v-5.8v-0.567
		V88.87c0-0.265-0.056-0.51-0.17-0.739c0.114-0.607,0.17-1.156,0.17-1.647c0-0.378-0.028-0.628-0.085-0.742
		c-0.17-4.81-0.255-7.558-0.255-8.24v-5.116c0-0.191-0.02-0.531-0.057-1.023c-0.037-0.492-0.058-0.853-0.058-1.08
		c0-0.153,0.021-0.359,0.058-0.626c0.038-0.265,0.057-0.472,0.057-0.625c4.379-0.076,10.474-0.115,18.287-0.115
		c1.093,0,1.943,0.132,2.547,0.397c0.189,0.528,0.282,2.265,0.282,5.208c0,1.018-0.038,1.699-0.112,2.038
		c-0.111,0.493-0.396,0.813-0.849,0.963c-0.114,0.036-0.549,0.076-1.303,0.11c-0.113,0.04-0.265,0.058-0.453,0.058
		c-0.076,0-0.209-0.018-0.396-0.058h-0.453c-0.19,0-0.339,0.021-0.452,0.058h-0.567c-0.225-0.036-0.396-0.058-0.509-0.058
		c-0.225,0-0.415,0.04-0.566,0.115c-2.076-0.037-4.322-0.019-6.736,0.056l-0.17,1.883c0,1.77,0.274,2.712,0.82,2.819
		c0.547,0.113,1.407,0.167,2.577,0.167h3.454h0.962h0.678h1.019c0.377,0,0.68,0.113,0.905,0.343v1.994
		c0,0.417,0.02,1.025,0.058,1.824c0.039,0.798,0.058,1.404,0.058,1.822c0,1.368-0.189,2.279-0.567,2.737h-0.225h-0.228h-1.046
		h-1.048c-3.02,0-5.094,0.056-6.227,0.167c-0.227,0.151-0.397,0.278-0.511,0.39c-0.075,0.637-0.113,1.401-0.113,2.295
		c0,0.263,0.02,0.897,0.057,1.906c0.075,0.186,0.434,0.278,1.076,0.278h0.734h0.792h0.454c1.171-0.035,2.057-0.056,2.662-0.056
		l0.283-0.114h0.341c0.337,0.114,0.735,0.17,1.186,0.17h0.963H60.6l0.623,0.115c1.019-0.04,1.66,0.299,1.925,1.017
		C63.298,97.94,63.374,98.715,63.374,99.884"/>
	<path fill="#F5841F" d="M92.416,61.908c0,0.15-0.028,0.351-0.086,0.597c-0.056,0.243-0.085,0.423-0.085,0.537v1.989
		c0.039,1.023,0.058,1.687,0.058,1.989c0,1.327-0.357,2.123-1.069,2.386c-0.899,0.038-1.818,0.095-2.753,0.17
		c-0.938,0.079-1.894,0.153-2.866,0.228c-0.94,0.264-1.409,1.023-1.409,2.271c0,0.153,0.031,0.391,0.086,0.711
		c0.057,0.322,0.086,0.559,0.086,0.711l-0.033,0.226c-0.095,0.229-0.14,0.606-0.14,1.137v1.704v0.512v0.113
		c-0.11,0-0.167,0.398-0.167,1.193c0,0.606,0.026,1.489,0.083,2.645c0.058,1.155,0.083,2.016,0.083,2.585
		c-0.036,0.494-0.091,1.06-0.167,1.706v1.362c0,0.115,0.026,0.277,0.083,0.483c0.058,0.21,0.083,0.352,0.083,0.427v0.398v0.168
		v0.228c0,0.342,0.057,2.881,0.172,7.616c0.075,3.106,0.017,5.663-0.172,7.67v0.229c-0.599,0.645-1.068,0.947-1.405,0.909
		l-0.281,0.112h-0.845h-1.463c-0.073-0.038-0.167-0.074-0.281-0.112c-0.789,0-1.931-0.075-3.432-0.229
		c-0.15,0-0.412-0.035-0.788-0.113c-0.113-0.188-0.207-0.357-0.281-0.51c-0.226-2.496-0.358-5.509-0.394-9.029
		c-0.1-5-0.232-12.478-0.396-22.433c-0.039-2.197-1.368-3.296-3.987-3.296h-0.4h-0.339c0.227,0-0.702-0.055-2.791-0.165
		c-0.343,0-0.798-0.11-1.367-0.336c-0.305-0.295-0.475-0.889-0.51-1.78c-0.079-1.185-0.116-1.834-0.116-1.945
		c-0.115-0.371-0.17-0.65-0.17-0.834c0-0.186,0.018-0.482,0.055-0.891v-0.891c0-0.519,0.152-1.057,0.453-1.612
		c0.301-0.559,0.679-0.852,1.132-0.891c1.51-0.147,2.772-0.223,3.793-0.223h2.066h2.065h2.011h2.01h0.225h0.172h0.849
		c5.395,0,9,0.094,10.812,0.286c0.452,0.075,0.868,0.312,1.246,0.711C92.227,61.026,92.416,61.452,92.416,61.908"/>
	<path fill="#F5841F" d="M116.646,103.62c0,0.226-0.039,0.51-0.114,0.849c-0.226,0-0.595,0.027-1.104,0.085
		c-0.511,0.058-0.898,0.087-1.162,0.087c-0.488,0-1.245-0.02-2.262-0.057h-2.323c-1.057,0-1.642-0.342-1.755-1.02
		c-0.34-0.454-0.651-1.171-0.934-2.153c-0.282-0.979-0.537-1.658-0.766-2.037c-0.905-0.224-2.887-0.339-5.943-0.339
		c-1.585,0-2.416,0.093-2.491,0.282c-0.038,0.453-0.226,1.323-0.567,2.604c0,0.906-0.168,1.906-0.507,3
		c-0.076,0.076-0.417,0.114-1.021,0.114c-0.643,0-1.708-0.068-3.199-0.196c-1.492-0.133-2.594-0.182-3.311-0.145
		c-0.113-0.037-0.623-0.074-1.529-0.111c-0.264-0.115-0.396-0.396-0.396-0.85c0-0.189,0.321-1.491,0.963-3.907
		c0.225-1.057,0.621-2.623,1.188-4.699c0.189-1.095,0.472-2.32,0.85-3.679c0.038-0.378,0.151-1.113,0.34-2.208
		c0.228-1.246,0.396-1.927,0.509-2.037c0.264-1.849,0.717-4.153,1.36-6.908c0.075-0.568,0.281-1.396,0.621-2.491v-0.17
		c0-0.414,0.076-0.961,0.228-1.641c0.188-0.828,0.292-1.377,0.311-1.642c0.021-0.264,0.162-0.85,0.426-1.755
		c0.113-0.454,0.264-1.114,0.452-1.981c0.189-0.867,0.472-2.208,0.85-4.021c0.036-0.374,0.131-0.942,0.281-1.697
		c0.343-1.168,0.511-1.736,0.511-1.696c0-1.057,0.188-2.153,0.567-3.286c5.923-0.189,9.075-0.283,9.453-0.283h1.077l0.168,0.114
		c0.037,0.339,0.15,0.774,0.341,1.302c0.037,0.112,0.282,1.264,0.735,3.451c0.149,0.454,0.339,1.135,0.566,2.042
		c0.227,0.339,0.396,0.896,0.51,1.668c0.112,0.774,0.245,1.312,0.396,1.614c0.037,0.453,0.169,1.114,0.396,1.981
		c0.075,0.493,0.207,1.246,0.396,2.265c0.453,1.888,0.886,3.812,1.302,5.773c0.037,0.079,0.095,0.229,0.17,0.454
		c0.113,0.567,0.227,1.227,0.339,1.98c0.189,0.379,0.321,0.84,0.396,1.39c0.077,0.545,0.172,0.933,0.285,1.158
		c0,0.229,0.226,1.438,0.679,3.625c0.038,0.303,0.094,0.736,0.171,1.302c0.15,0.983,0.452,2.188,0.905,3.623
		c0.111,0.453,0.245,1.134,0.396,2.037c0.112,0.606,0.265,1.473,0.453,2.604c0,0.19,0.038,0.492,0.112,0.907
		c0,0.113,0.075,0.302,0.229,0.567C116.493,102.018,116.646,103.393,116.646,103.62 M105.379,87.372c0-0.186-0.027-0.471-0.084-0.85
		c-0.058-0.375-0.084-0.659-0.084-0.848c0-0.187-0.021-0.471-0.057-0.85c0-0.151-0.134-0.678-0.396-1.584
		c-0.114-0.567-0.321-1.434-0.625-2.605c-0.148-1.13-0.434-2.811-0.85-5.038c-0.148-0.941-0.488-2.339-1.016-4.188
		c-0.078-0.225-0.191-0.338-0.34-0.338c-0.379,0-0.566,0.377-0.566,1.13c0,0.189-0.097,0.36-0.284,0.509
		c-0.266,0.528-0.396,1.132-0.396,1.813c-0.077,0.225-0.133,0.444-0.169,0.651c-0.039,0.207-0.171,0.461-0.397,0.762
		c-0.792,3.021-1.188,5.173-1.188,6.455c0,0.074-0.03,0.236-0.086,0.483c-0.056,0.243-0.066,0.422-0.027,0.537
		c-0.077,0.454-0.209,1.096-0.397,1.924c-0.301,1.021-0.452,1.944-0.452,2.776c0,0.298,0.018,0.506,0.056,0.621
		c0.189,0.378,1.434,0.547,3.736,0.509h0.736h1.416c0.375-0.036,0.793-0.228,1.246-0.568
		C105.304,88.335,105.379,87.904,105.379,87.372"/>
	<path fill="#F5841F" d="M166.519,103.564c0,0.83-0.982,1.244-2.943,1.244c-1.473,0-2.378,0.039-2.718,0.113h-0.17h-1.585h-3.085
		h-3.141c-2.077,0-3.55-0.092-4.417-0.281c-0.377-0.078-0.566-0.36-0.566-0.85V91.816V79.842v-0.338v-0.339v-0.453v-0.454v-5.888
		c0.152-0.189,0.227-1.962,0.227-5.322v-2.006V63.03c0-1.32,0.114-2.125,0.34-2.406c0.228-0.283,0.924-0.424,2.094-0.424
		c1.358-0.039,2.114-0.087,2.265-0.144c0.151-0.054,0.227-0.198,0.227-0.423c0.151,0.04,0.359,0.114,0.624,0.226
		c0.642,0,1.056,0.079,1.245,0.228h0.791c0.982-0.04,1.604,0.169,1.87,0.621l0.226,2.266c0,0.378-0.027,0.924-0.085,1.642
		c-0.056,0.717-0.085,1.226-0.085,1.531c0,0.715-0.021,1.809-0.056,3.283c-0.078,0.225-0.114,0.564-0.114,1.016
		c0,0.343,0.028,0.739,0.084,1.192c0.171,0.189,0.256,0.339,0.256,0.449c0,0.079-0.138,0.326-0.414,0.739
		c0,1.281-0.035,3.235-0.105,5.857c-0.068,2.626-0.102,4.597-0.102,5.917c0,0.981,0.035,3.869,0.113,8.66
		c0.189,0.342,0.477,0.681,0.857,1.02c0.956,0.15,2.065,0.228,3.325,0.228c1.567,0,2.771,0.111,3.609,0.34
		c0.382,0.075,0.766,0.207,1.146,0.396C166.424,96.489,166.519,99.26,166.519,103.564"/>
	<path fill="#F5841F" d="M194.372,98.582c0,2.416-0.133,4.286-0.399,5.606l-0.281,0.281c-3.252,0.305-5.523,0.453-6.809,0.453
		h-0.284h-0.283h-6.326h-6.324h-0.795h-0.852h-0.879h-0.879c-0.113,0-0.739-0.074-1.871-0.227c-0.152-0.115-0.343-0.321-0.568-0.624
		c-0.037-0.188-0.077-0.472-0.112-0.851c-0.039-0.377-0.058-0.681-0.058-0.908c0-0.343,0.058-0.624,0.17-0.852
		c0-0.152-0.058-0.379-0.17-0.682c0-0.149,0.027-0.414,0.085-0.795c0.056-0.378,0.085-0.661,0.085-0.851
		c0-0.341-0.058-0.604-0.17-0.794v-2.611c0-0.075,0.027-0.228,0.085-0.452c0.056-0.229,0.085-0.379,0.085-0.456
		c0-0.264-0.058-0.471-0.17-0.625V93.97c0-0.267,0.058-0.474,0.17-0.627c-0.112-4.046-0.17-6.488-0.17-7.319v-0.68
		c0.112-0.305,0.17-0.532,0.17-0.682c0-0.343-0.058-0.624-0.17-0.852v-2.102c0-0.491-0.016-0.795-0.044-0.907
		c-0.122-6.09-0.185-9.571-0.185-10.444v-6.357c0-0.263-0.017-0.698-0.055-1.304c-0.038-0.603-0.058-1.059-0.058-1.363
		c0-0.149,0.028-0.396,0.086-0.735c0.058-0.342,0.066-0.606,0.026-0.796c5.549-0.112,13.229-0.17,23.044-0.17
		c1.357,0,2.414,0.167,3.169,0.504c0.263,0.636,0.396,2.785,0.396,6.443c0,1.308-0.058,2.167-0.169,2.578
		c-0.15,0.635-0.491,1.029-1.021,1.179c-0.15,0.036-0.717,0.071-1.698,0.11c-0.149,0.077-0.321,0.113-0.508,0.113h-0.565h-0.568
		h-0.565h-0.68h-0.623c-0.302,0-0.548,0.057-0.737,0.17c-2.602,0.075-4.904,0.111-6.903,0.111c-0.115,0-0.303-0.017-0.567-0.053
		h-0.566c-0.151,0-0.282,0.018-0.396,0.053c-0.189,1.558-0.281,2.356-0.281,2.391c0,2.225,0.376,3.409,1.131,3.561
		c0.603,0.147,1.66,0.223,3.171,0.223h1.527h1.474h1.357c1.133-0.076,1.547-0.114,1.245-0.114c0.377,0,0.642,0.039,0.793,0.114
		c0.112,0,0.312-0.02,0.596-0.058c0.282-0.037,0.518-0.056,0.707-0.056c0.453,0,0.829,0.132,1.132,0.396v2.491
		c0,0.53,0.019,1.292,0.058,2.292c0.036,1.001,0.056,1.763,0.056,2.292c0,1.697-0.227,2.813-0.68,3.342
		c-0.038,0.035-0.133,0.066-0.281,0.083c-0.153,0.018-0.267,0.027-0.341,0.027c-0.266,0-0.69-0.019-1.274-0.057
		c-0.585-0.036-1.01-0.053-1.273-0.053c-3.849,0-6.473,0.075-7.87,0.228c-0.15,0.114-0.358,0.302-0.621,0.57
		c-0.113,0.8-0.172,1.77-0.172,2.911c0,0.345,0.019,1.165,0.059,2.456c0.113,0.229,0.566,0.343,1.358,0.343h0.99h0.933
		c0.075,0,0.265,0.039,0.567,0.114c1.51-0.017,2.623-0.03,3.341-0.03l0.338-0.084h0.453c0.417,0.078,0.906,0.114,1.474,0.114
		c0.301,0,0.716-0.017,1.246-0.057c0.526-0.036,0.924-0.057,1.188-0.057l0.849,0.171c1.473-0.039,2.321,0.51,2.549,1.642
		C194.332,96.338,194.372,97.188,194.372,98.582"/>
	<path fill="#FFFFFF" d="M0,113.924h2.756v-4.691l9.392-3.013v7.704h4.849v6.639h-4.849v9.084c0,1.734-0.357,4.086,1.634,4.086
		c0.663,0,2.246-0.459,3.214-0.867v6.531c-1.531,0.613-5.001,0.971-6.175,0.971c-7.657,0-7.913-4.188-8.065-10.721v-9.084H0V113.924
		z"/>
	<path fill="#FFFFFF" d="M18.018,113.924h12.352v12.303c0,4.391,0.665,6.434,2.757,6.434c1.787,0,3.217-1.584,3.217-3.879v-8.117
		h-3.369v-6.74h13.221v18.736h2.5v6.789h-9.649l-1.377-3.219c-1.123,1.279-2.91,3.932-7.248,3.932
		c-7.708,0-10.26-3.982-10.26-12.453v-7.045h-2.144V113.924z"/>
	<path fill="#FFFFFF" d="M49.715,113.924h12.354v12.303c0,4.391,0.664,6.434,2.756,6.434c1.787,0,3.214-1.584,3.214-3.879v-8.117
		h-3.368v-6.74h13.219v18.736h2.502v6.789h-9.647l-1.377-3.219c-1.123,1.279-2.91,3.932-7.249,3.932
		c-7.708,0-10.26-3.982-10.26-12.453v-7.045h-2.146V113.924z"/>
	<path fill="#FFFFFF" d="M81.415,113.924h12.354v12.303c0,4.391,0.663,6.434,2.755,6.434c1.785,0,3.216-1.584,3.216-3.879v-8.117
		h-3.371v-6.74h13.223v18.736h2.5v6.789h-9.648l-1.375-3.219c-1.125,1.279-2.912,3.932-7.251,3.932
		c-7.707,0-10.259-3.982-10.259-12.453v-7.045h-2.144V113.924z"/>
	<path fill="#FFFFFF" d="M128.068,139.449h-14.445v-6.686h2.247v-12.201h-2.196v-6.639h9.596l1.533,3.27
		c1.324-2.449,2.654-4.544,7.91-4.544v9.19c-4.593,0-7.197,1.172-7.197,5.666v5.258h2.553V139.449z"/>
	<path fill="none" d="M150.425,120.715c-1.989,0-3.829,2.504-3.624,6.533c0,3.471,1.737,6.127,3.676,6.127
		c2.145,0,3.623-2.502,3.623-6.379C154.1,123.932,152.671,120.715,150.425,120.715z"/>
	<path fill="#F5841F" d="M145.462,100.99c-0.153-0.075-0.228-0.205-0.228-0.469c0-0.149-0.192-0.423-0.118-0.854
		c0.075-0.436-0.116-0.745-0.116-0.971v-0.368v-0.37v-0.875v-0.88v-2.943v-2.887v-0.395c0-0.491,0.003-0.772,0.003-0.85
		c0-0.189-0.077-0.482-0.002-0.877c0.076-0.396-0.001-0.69-0.001-0.879v-0.479v-0.423V85.62c0-0.153,0.191-0.369,0.116-0.65
		c-0.074-0.287,0.002-0.484,0.002-0.597c0-0.226,0.097-0.529,0.171-0.904c0.076-0.378,0.145-0.66,0.145-0.848
		c0-0.115-0.143-0.265-0.218-0.454c-0.075-0.189-0.216-0.32-0.216-0.396v-3.115c0-0.188,0.345-0.396,0.345-0.625
		c0-0.185,0.027-0.43-0.027-0.734c-0.058-0.301-0.175-0.511-0.175-0.622c-0.036-0.341-0.143-1.152-0.143-2.435V72.54v-0.506v-0.484
		v-0.423v-0.905V69.37v-0.848v-0.823v-0.762v-0.624v-2.662c0-1.281,0.042-2.355-0.105-3.225l-0.055-0.057
		c-0.521,0-1.293-0.058-2.373-0.167c-1.08-0.116-1.865-0.173-2.387-0.173c-0.299,0-0.729,0.018-1.307,0.057
		c-0.579,0.04-1.012,0.058-1.31,0.058c-0.148-0.115-0.657-0.171-0.843-0.171c-0.187,0-0.621,0.474-0.621,1.416v0.564
		c0,4.492,0.031,7.839-0.094,10.049c-0.123,2.209-0.015,3.841-0.015,4.898c0,0.114,0.11,0.312,0.056,0.594
		c-0.058,0.285,0.053,0.502,0.053,0.65v0.625c0,0.263-0.294,0.23-0.331,1.23h-0.17c-0.374,0-0.562-0.513-0.562-0.926
		c-0.638-1.135-1.014-2.08-1.124-2.533c-0.339-0.489-0.601-1.11-0.789-1.717c-0.187-0.15-0.301-0.452-0.336-0.83
		c-0.752-1.435-1.257-2.567-1.521-3.359c-1.725-3.81-2.587-5.99-2.587-6.521c-0.375-0.792-0.618-1.382-0.732-1.756l-1.068-2.382
		c-0.226-0.151-0.394-0.265-0.506-0.341c-0.749,0.151-1.858,0.226-3.097,0.226c-3.262,0-5.178,0.21-5.178,0.623v0.51v1.444v1.385
		v0.765v0.709v1.299v1.303v2.152v2.209c0,2.115,0.002,3.717,0.002,4.812c0,0.036,0.039,0.111,0.001,0.226
		c-0.038,0.114-0.026,0.207-0.026,0.285c0,0.111-0.063,0.243,0.012,0.396c0.076,1.887,0.012,2.754,0.012,2.601v1.473v1.471v2.098
		v0.564v0.566c0,0.041,0.135,0.528,0.174,1.471c0.074,0.606,0.17,2.323,0.17,5.152c0,0.189-0.001,0.483-0.057,0.879
		c-0.057,0.396-0.071,0.705-0.071,0.932c0,0.114,0.036,0.313,0.094,0.595c0.055,0.283-0.026,0.501-0.026,0.652
		c0,0.188-0.283,0.338-0.283,0.453v0.792v0.793v0.567c0,2.002,0.191,3.717,0.342,5.152c0.152,0.189,0.32,0.357,0.397,0.508
		c1.018,0.113,1.859,0.188,2.463,0.227c0.15,0,0.503-0.038,1.033-0.113c0.415-0.035,0.763-0.057,1.025-0.057
		c0.416,0,0.778,0.057,1.082,0.17c1.092-0.074,1.547-0.113,1.359-0.113c0.565,0,0.98-0.039,1.245-0.113
		c0.075-0.832,0.006-1.267,0.028-1.306c0.017-0.04,0.024-1.059,0.024-3.068v-0.851v-1.759l0.044-0.057
		c-0.048-1.098-0.01-2.727-0.01-4.885c-0.098-0.114-0.115-0.208-0.115-0.283c0-0.078,0.136-0.152,0.325-0.226
		c0-0.154-0.244-0.38-0.244-0.683v-0.653v-0.483c0-0.189,0.259-0.339,0.259-0.454c-0.188-0.153-0.298-0.324-0.298-0.513
		c0-0.111,0.04-0.273,0.138-0.479c0.091-0.21,0.164-0.37,0.164-0.483c-0.189-0.229-0.263-0.532-0.263-0.91v-0.396v-0.4
		c0-0.224,0.315-0.338,0.656-0.338c0.151,0,0.232,0.035,0.27,0.11c0.115,0.418,0.184,0.625,0.222,0.625
		c0.643,1.623,1.171,2.812,1.588,3.565c0.265,0.263,0.451,0.641,0.565,1.134c0.076,0.264,0.149,0.678,0.226,1.245
		c0.113,0.076,0.267,0.151,0.455,0.226c0.265,0.716,0.472,1.188,0.622,1.416c0.265,0.378,0.634,1.171,1.107,2.376
		c0.475,1.209,0.919,2.094,1.336,2.662c0.115,0.414,0.189,0.56,0.228,0.596c0.166,0.329,0.277,0.576,0.341,0.576h10.84
		C145.457,101,145.46,101.021,145.462,100.99z"/>
	<path fill="#FFFFFF" d="M153.64,113.52c-2.503,0-5.64,1.068-6.64,2.398V101h-12v7h1v25h-1v7h11.037l0.764-2.011
		c1.429,1.225,2.859,2.159,6.737,2.159c7.197,0,11.663-5.328,11.817-13.186C165.508,120.121,161.397,113.52,153.64,113.52z
		 M150.477,133.375c-1.938,0-3.676-2.656-3.676-6.127c-0.205-4.029,1.635-6.533,3.624-6.533c2.246,0,3.675,3.217,3.675,6.281
		C154.1,130.873,152.621,133.375,150.477,133.375z"/>
	<path fill="#FFFFFF" d="M166.503,126.584c0.052-8.523,6.942-13.271,13.987-13.271c8.064,0.103,14.038,4.953,14.189,13.479
		c0.102,8.471-6.176,13.32-13.936,13.32C173.445,140.111,166.401,135.619,166.503,126.584 M184.217,126.791
		c0-3.832-1.327-6.79-3.727-6.842c-1.992,0-3.523,2.961-3.523,6.686c0,4.188,1.634,6.945,3.777,6.945
		C182.939,133.58,184.217,130.617,184.217,126.791"/>
	<path fill="#FFFFFF" d="M197.966,113.346c-0.017-0.061-0.021-0.171-0.021-0.334v-0.239c0-0.252-0.034-0.438-0.103-0.562
		s-0.187-0.217-0.352-0.285c0.199-0.066,0.34-0.183,0.426-0.348c0.085-0.164,0.128-0.33,0.128-0.501
		c0-0.141-0.022-0.267-0.066-0.378c-0.045-0.111-0.104-0.211-0.18-0.301c-0.092-0.109-0.203-0.194-0.336-0.252
		c-0.131-0.057-0.318-0.086-0.565-0.094h-1.715v3.587h0.732v-1.403h0.731c0.21,0,0.351,0.035,0.427,0.113
		c0.077,0.075,0.116,0.228,0.119,0.455l0.004,0.334c0.002,0.104,0.013,0.207,0.031,0.309c0.01,0.049,0.028,0.115,0.051,0.192h0.826
		v-0.091C198.031,113.504,197.985,113.438,197.966,113.346 M197.081,111.581c-0.08,0.039-0.201,0.062-0.361,0.062h-0.806v-0.964
		h0.826c0.154,0,0.271,0.021,0.346,0.062c0.139,0.076,0.207,0.219,0.207,0.439C197.293,111.381,197.223,111.516,197.081,111.581"/>
	<path fill="#FFFFFF" d="M196.573,108.389c-1.892,0-3.429,1.536-3.429,3.426c0,1.892,1.537,3.428,3.429,3.428
		c1.889,0,3.427-1.536,3.427-3.428C200,109.925,198.462,108.389,196.573,108.389 M196.573,114.669c-1.576,0-2.855-1.281-2.855-2.854
		c0-1.575,1.279-2.854,2.855-2.854c1.572,0,2.854,1.278,2.854,2.854C199.427,113.388,198.146,114.669,196.573,114.669"/>
</g>
</svg>
