<?xml version="1.0" encoding="utf-8"?>
<!-- Generator: Adobe Illustrator 19.2.1, SVG Export Plug-In . SVG Version: 6.00 Build 0)  -->
<svg version="1.1" id="Capa_1" xmlns="http://www.w3.org/2000/svg" xmlns:xlink="http://www.w3.org/1999/xlink" x="0px" y="0px"
	 viewBox="0 0 161.3 89.3" style="enable-background:new 0 0 161.3 89.3;" xml:space="preserve">
<style type="text/css">
	.st0{fill:#010202;}
	.st1{fill:#EF7E08;}
</style>
<g>
	<g>
		<path class="st0" d="M7.7,24.7l-0.5-2H6.9v24.3H1.1V4.2h5.6l6.1,22.4l0.5,2h0.4V4.2h5.8v42.9h-5.6L7.7,24.7z"/>
		<path class="st0" d="M40.9,4.2v34.1c-0.1,1.8-0.4,3.3-1.1,4.7c-0.5,1.2-1.3,2.3-2.5,3.2c-1.2,0.9-2.7,1.5-4.8,1.5
			s-3.7-0.5-4.9-1.5c-1.2-0.9-1.9-2-2.5-3.2c-0.6-1.3-1-2.9-1.1-4.7V4.2h6.3v34.1c0,1.2,0.3,2,0.9,2.7c0.3,0.3,0.7,0.5,1.2,0.5
			c1.1,0,1.6-0.7,1.9-1.6c0.2-0.4,0.2-0.9,0.2-1.6V4.2H40.9z"/>
		<path class="st0" d="M45.5,4.2h14.4v6.5h-8.1v11.3h5.8v6.9h-5.8v11.8h8.1v6.5H45.5V4.2z"/>
		<path class="st0" d="M73.9,15.7c0-1.4-0.1-3-0.5-4.2c-0.4-1.2-1.1-2-2-2c-1.6,0.1-2.2,1.8-2.2,4.3c0,1.5,0.6,3,1.6,4.6
			c0.9,1.6,2.2,3.3,3.4,5.1c1.5,2.2,2.9,4.4,4,6.5c1.1,2.2,1.9,4.4,1.9,6.7c0,2.9-0.5,5.5-1.8,7.5c-1.3,2-3.5,3.3-6.9,3.3
			c-4,0-6.3-1.5-7.6-3.9c-1.3-2.3-1.6-5.4-1.6-8.6l6.2-0.6c0,1.8,0.1,3.6,0.5,5c0.4,1.4,1.1,2.3,2.5,2.3c1.9,0,2.6-2,2.6-4.7
			c0-1.4-0.7-3-1.6-4.7c-0.5-0.8-1.1-1.7-1.6-2.6c-1.2-1.8-2.6-3.7-4-5.9c-1.4-2.2-2.5-4.4-3.1-6.7c-0.4-1.1-0.5-2.3-0.5-3.4
			c0-2.3,0.5-4.8,1.9-6.8c1.3-1.9,3.4-3.2,6.4-3.3c3.8-0.1,6,1.5,7.2,3.8c1.2,2.3,1.6,5.2,1.6,7.6L73.9,15.7z"/>
		<path class="st0" d="M81.2,10.7V4.2h18.2v6.5h-6v36.4h-6.3V10.7H81.2z"/>
		<path class="st0" d="M113.1,47.1L109.9,29h-1.7v18.1h-6.3V4.2h6.3c7.5,0,10.7,4.3,10.7,12.4c0,4.3-1.1,8.1-3.5,9.7l4,20.8H113.1z
			 M108.2,23.2c0.9,0,2-0.1,3-0.9c0.9-0.8,1.7-2.4,1.7-5.4s-0.8-4.7-1.7-5.5c-0.9-0.8-2.1-0.9-3-0.9V23.2z"/>
		<path class="st0" d="M139.4,38.3c-0.1,1.8-0.4,3.3-1.1,4.7c-0.5,1.2-1.3,2.3-2.5,3.2c-1.2,0.9-2.7,1.5-4.8,1.5
			c-2.1,0-3.7-0.5-4.9-1.5c-1.2-0.9-1.9-2-2.5-3.2c-0.6-1.3-1-2.9-1.1-4.7V13c0.1-1.7,0.4-3.3,1.1-4.6c0.5-1.2,1.3-2.3,2.5-3.2
			c1.2-0.9,2.8-1.5,4.9-1.5c2.1,0,3.7,0.6,4.8,1.5c1.2,0.9,2,2,2.5,3.2c0.6,1.3,1,2.9,1.1,4.6V38.3z M133.1,13c0-1.2-0.2-2-0.8-2.7
			c-0.3-0.3-0.8-0.5-1.3-0.5c-1.1,0-1.6,0.8-1.9,1.6c-0.2,0.5-0.2,1-0.2,1.6v25.3c0,1.2,0.3,2,0.9,2.7c0.3,0.3,0.7,0.5,1.2,0.5
			c1.1,0,1.6-0.7,1.9-1.6c0.2-0.4,0.2-0.9,0.2-1.6V13z"/>
		<path class="st0" d="M154.1,15.7c0-1.4-0.1-3-0.5-4.2c-0.4-1.2-1.1-2-2-2c-1.6,0.1-2.2,1.8-2.2,4.3c0,1.5,0.6,3,1.6,4.6
			c0.9,1.6,2.2,3.3,3.4,5.1c1.5,2.2,2.9,4.4,4,6.5s1.9,4.4,1.9,6.7c0,2.9-0.5,5.5-1.8,7.5c-1.3,2-3.5,3.3-6.9,3.3
			c-4,0-6.3-1.5-7.6-3.9c-1.3-2.3-1.6-5.4-1.6-8.6l6.2-0.6c0,1.8,0.1,3.6,0.5,5c0.4,1.4,1.1,2.3,2.5,2.3c1.9,0,2.6-2,2.6-4.7
			c0-1.4-0.7-3-1.6-4.7c-0.5-0.8-1.1-1.7-1.6-2.6c-1.2-1.8-2.6-3.7-4-5.9c-1.4-2.2-2.5-4.4-3.1-6.7c-0.4-1.1-0.5-2.3-0.5-3.4
			c0-2.3,0.5-4.8,1.9-6.8c1.3-1.9,3.4-3.2,6.4-3.3c3.8-0.1,6,1.5,7.2,3.8c1.2,2.3,1.6,5.2,1.6,7.6L154.1,15.7z"/>
	</g>
	<g>
		<path class="st1" d="M32.2,54.2c0,0.3-0.1,0.6-0.4,0.9c-0.5,0.5-1.2,1.1-2.1,1.9c-0.9,0.8-2,1.6-3.1,2.5c-1.1,0.8-2.3,1.5-3.5,2.1
			c-1.2,0.6-2.3,0.9-3.4,0.9c-0.2,0-0.3,0-0.4,0c-0.1,0-0.3,0-0.4-0.1c-0.7,0.9-1.5,1.7-2.3,2.5c-0.8,0.8-1.6,1.4-2.4,2
			c-0.8,0.6-1.6,1-2.4,1.4c-0.8,0.3-1.5,0.5-2.2,0.5c-0.4,0-0.7-0.1-1.2-0.2c-0.4-0.1-0.8-0.3-1.2-0.5c-0.4-0.3-0.7-0.6-0.9-1.1
			c-0.3-0.5-0.4-1.1-0.4-1.9c0-1,0.3-2.1,0.9-3.4c0.6-1.3,1.5-2.6,2.6-4c1.1-1.3,2.5-2.6,4.1-3.8c1.6-1.2,3.4-2.2,5.4-2.9
			c0.4,0,0.7,0.1,0.7,0.2c0,0.1,0.2,0.2,0.5,0.3c0.2,0,0.4-0.1,0.5-0.2c0.1-0.1,0.3-0.2,0.7-0.2c0.2,0,0.3,0,0.6,0.1
			c0.2,0.1,0.4,0.3,0.7,0.5c0.1,0.1,0.3,0.3,0.4,0.4c0.1,0.2,0.2,0.3,0.3,0.5c0.1,0.2,0.1,0.4,0.1,0.6c0,0.9-0.3,2-0.7,3.2
			c-0.5,1.2-1.2,2.5-2,3.7c0.4,0,0.8-0.1,1.4-0.3c0.5-0.2,1.1-0.4,1.7-0.7c0.6-0.3,1.2-0.7,1.9-1c0.7-0.4,1.3-0.8,1.9-1.2
			c1.5-1,3-2.1,4.6-3.3c0.1,0.1,0.1,0.1,0.2,0.2c0.1,0.1,0.1,0.1,0.2,0.2C32.2,53.9,32.2,54,32.2,54.2z M16,60.8
			c-0.3-0.2-0.5-0.5-0.7-0.8c-0.2-0.3-0.4-0.7-0.6-1c-0.2-0.3-0.3-0.6-0.4-0.9c-0.1-0.2-0.2-0.4-0.2-0.4c-0.8,0.8-1.5,1.6-2.1,2.5
			c-0.6,0.9-1,1.7-1.4,2.4c-0.4,0.7-0.6,1.3-0.7,1.8c-0.1,0.5-0.2,0.8-0.2,0.8c0,0.3,0.1,0.4,0.2,0.4c0.6,0,1.2-0.2,1.9-0.6
			c0.7-0.4,1.4-0.9,2-1.5c0.6-0.6,1.2-1.1,1.6-1.6C15.7,61.3,15.9,61,16,60.8z M20.3,53.8C20.3,53.8,20.3,53.7,20.3,53.8
			c-0.3-0.1-0.5,0.1-0.9,0.4c-0.4,0.3-0.8,0.7-1.2,1c-0.4,0.4-0.8,0.8-1.1,1.2c-0.3,0.4-0.5,0.7-0.5,0.9c0,0.1,0.1,0.3,0.3,0.6
			c0.2,0.3,0.3,0.4,0.4,0.4c0.3,0,0.7-0.2,1-0.7c0.3-0.4,0.7-0.9,0.9-1.5c0.3-0.5,0.5-1.1,0.7-1.5C20.2,54.2,20.3,53.9,20.3,53.8z"
			/>
		<path class="st1" d="M49.5,54.2c0,0.3-0.1,0.6-0.4,0.9c-0.5,0.5-1.2,1.1-2.1,1.9c-0.9,0.8-2,1.6-3.1,2.5c-1.1,0.8-2.3,1.5-3.5,2.1
			c-1.2,0.6-2.3,0.9-3.4,0.9c-0.2,0-0.3,0-0.4,0c-0.1,0-0.3,0-0.4-0.1l0.1-0.1c-0.9,0.9-1.8,1.7-2.7,2.5c-1,0.8-1.9,1.5-2.8,2.1
			c-0.9,0.6-1.8,1.1-2.6,1.4c-0.8,0.4-1.6,0.5-2.2,0.5c-1.4,0-2.5-0.2-3.3-0.7c-0.8-0.4-1.2-1.2-1.2-2.4c0-0.9,0.2-1.9,0.7-3
			c0.5-1.1,1.1-2.2,1.8-3.3c0.7-1.1,1.5-2.2,2.3-3.2c0.8-1,1.6-2,2.3-2.8c0.7-0.8,1.6-1.7,2.5-2.6c2.1-2.5,3.9-4.6,5.2-6.4
			c1.3-1.8,2.4-3.2,3.2-4.4c0.8-1.2,1.4-2.1,1.9-2.8c0.4-0.7,0.8-1.2,1.2-1.5c0.3-0.3,0.7-0.6,1.1-0.7c0.4-0.1,1-0.1,1.8-0.1
			c0.2,0,0.4,0.1,0.7,0.1c0.3,0,0.6,0.1,0.8,0.1c0.3,0.1,0.5,0.2,0.7,0.4c0.2,0.2,0.3,0.4,0.3,0.8c0,0.6-0.2,1.3-0.7,2
			c-0.4,0.8-1,1.6-1.7,2.4c-0.7,0.9-1.5,1.7-2.4,2.6C41.9,44.1,41,45,40,45.9c-2.3,2-4.8,4.1-7.6,6.3c-0.1,0.1-0.1,0.1-0.1,0.2
			c-0.1,0.1-0.1,0.2-0.1,0.3c0,0.1,0.1,0.2,0.2,0.2c1.2-0.8,2.4-1.4,3.6-1.8c1.2-0.5,2.3-0.7,3.3-0.7c0.4,0,0.7,0.1,1.1,0.3
			c0.6,0.5,1.1,1,1.3,1.5c0.2,0.5,0.3,1,0.3,1.5c0,0.6-0.3,1.5-1,2.6c-0.7,1.1-1.6,2.3-2.6,3.5c0.9-0.2,1.9-0.6,3.1-1.4
			c1.2-0.7,2.4-1.5,3.5-2.2c1.3-0.9,2.6-1.9,4.1-3c0.1,0.1,0.1,0.1,0.2,0.2c0.1,0.1,0.1,0.1,0.2,0.2C49.5,53.9,49.5,54,49.5,54.2z
			 M38.5,53.4c0-0.1,0-0.1-0.1-0.1c-0.9,0-1.9,0.3-2.9,0.8c-1,0.5-2,1.2-3,2c-1,0.8-1.9,1.7-2.8,2.7c-0.9,1-1.6,1.9-2.3,2.9
			c-0.7,0.9-1.2,1.8-1.6,2.5c-0.4,0.7-0.6,1.3-0.6,1.6c0,0.2,0.1,0.3,0.3,0.3c0.7,0,1.5-0.3,2.5-0.8c0.9-0.5,1.9-1.2,2.8-2.1
			c1-0.8,1.9-1.8,2.8-2.8c0.9-1,1.7-2,2.4-2.9c0.7-0.9,1.3-1.8,1.7-2.5C38.3,54.2,38.5,53.7,38.5,53.4z"/>
		<path class="st1" d="M52.3,51.8c0,0.2-0.1,0.4-0.3,0.6c-3.8,5.1-7.1,9.6-9.9,13.7c-2.8,4.1-5.3,7.6-7.6,10.5
			c-2.3,2.9-4.4,5.1-6.3,6.7c-1.9,1.6-3.9,2.3-5.8,2.3c-0.1,0-0.3,0-0.6-0.1c-0.3-0.1-0.6-0.3-0.9-0.5c-0.3-0.2-0.6-0.5-0.9-0.8
			c-0.3-0.4-0.4-0.8-0.4-1.3c0-0.5,0.2-1.2,0.7-2c0.5-0.8,1.1-1.7,1.9-2.7c0.8-1,1.7-2,2.8-3c1-1,2.1-1.9,3.2-2.7
			c1.1-0.8,2.1-1.5,3.2-2c1-0.5,2-0.8,2.8-0.8c0.1,0,0.2,0,0.2,0.1c0,0,0,0,0,0c0,0,0,0,0.1,0c0,0,0.1,0,0.2-0.1L48.2,52
			c0.1-0.1,0.2-0.3,0.3-0.4c0.2-0.2,0.6-0.3,1.1-0.3l2.1,0.1l0.3,0.1C52.2,51.5,52.3,51.6,52.3,51.8z M34,70.6
			C34,70.5,33.9,70.5,34,70.6c-0.3-0.1-0.7,0.2-1.4,0.7c-0.6,0.5-1.4,1.1-2.2,1.9c-0.8,0.8-1.7,1.6-2.6,2.6c-0.9,1-1.7,1.9-2.5,2.8
			c-0.8,0.9-1.4,1.7-1.9,2.4c-0.5,0.7-0.7,1.3-0.7,1.6c0,0.1,0,0.1,0.1,0.1c0.3,0,0.8-0.3,1.5-0.9c0.7-0.6,1.4-1.3,2.2-2.2
			c0.8-0.9,1.7-1.8,2.5-2.9c0.9-1,1.7-2,2.4-2.9c0.7-0.9,1.3-1.7,1.8-2.3C33.7,71,34,70.6,34,70.6z M57.4,44.2c0,0.2,0,0.3,0,0.5
			c0,0.1-0.1,0.3-0.3,0.5c-0.4,0.5-0.9,1-1.4,1.5c-0.5,0.4-1,0.7-1.5,1C53.6,47.8,53,48,52.3,48c-0.2,0-0.3-0.1-0.4-0.2
			c-0.3-0.2-0.4-0.5-0.4-0.9c0-0.5,0.2-1,0.5-1.5c0.4-0.5,0.8-1,1.3-1.4c0.5-0.4,1-0.7,1.5-0.9c0.5-0.2,0.9-0.4,1.3-0.4
			c0.1,0,0.1,0,0.2,0c0.1,0,0.1,0,0.2,0c0.1,0,0.1,0,0.2,0.1c0.3,0.3,0.4,0.6,0.5,0.7C57.3,43.8,57.4,44,57.4,44.2z"/>
		<path class="st1" d="M76,53.9c0,0.3-0.1,0.6-0.4,0.9c-0.7,0.7-1.6,1.5-2.7,2.4c-1.1,1-2.3,1.9-3.7,3c-1.3,1-2.8,2-4.3,3
			c-1.5,1-3,1.9-4.5,2.7c-1.5,0.8-3,1.5-4.4,1.9c-1.4,0.5-2.7,0.7-3.8,0.7c-2.5,0-3.7-1.5-3.7-4.5c0-1,0.2-2,0.7-3.1
			c0.5-1,1.1-2.1,1.9-3.1c0.8-1,1.7-1.9,2.7-2.8c1-0.9,2-1.6,3.1-2.3c1.1-0.7,2.1-1.2,3.2-1.6c1-0.4,2-0.6,2.9-0.6
			c0.4,0,0.8,0.1,1.2,0.3c0.4,0.2,0.7,0.4,1,0.7c0.3,0.3,0.5,0.6,0.7,0.9c0.2,0.3,0.3,0.6,0.3,0.9c0,0.6-0.2,1.2-0.7,1.8
			c-0.4,0.6-1,1.2-1.7,1.8c-0.7,0.6-1.4,1.2-2.2,1.7c-0.8,0.5-1.6,1-2.4,1.4c-0.8,0.4-1.5,0.7-2.1,1c-0.6,0.2-1.1,0.4-1.4,0.4
			c-0.2,0-0.3,0-0.5-0.1c-0.2-0.1-0.4-0.3-0.5-0.6c0,0-0.1,0-0.1,0c-0.1-0.1-0.2-0.1-0.3-0.1c-0.1,0-0.3,0.1-0.5,0.4
			c-0.2,0.2-0.4,0.5-0.6,0.9c-0.2,0.4-0.4,0.7-0.6,1.1c-0.2,0.4-0.2,0.8-0.2,1.1c0,0.5,0.2,0.7,0.6,0.9c1.3,0,2.5-0.2,3.8-0.5
			c1.3-0.4,2.7-0.9,4.3-1.7c1.6-0.8,3.3-1.8,5.2-3c1.9-1.2,4.1-2.7,6.5-4.5c0.5-0.3,0.9-0.7,1.4-1c0.5-0.4,1-0.7,1.5-1.1
			c0.1,0.1,0.1,0.1,0.2,0.2c0.1,0.1,0.1,0.1,0.2,0.2C76,53.7,76,53.8,76,53.9z M63,53.4c0-0.2-0.1-0.2-0.3-0.2
			c-0.5,0-1.1,0.3-1.9,0.8c-0.8,0.5-1.6,1.2-2.4,1.8c-0.8,0.7-1.5,1.3-2.1,1.9c-0.6,0.6-0.9,1-0.9,1.2c0,0.1,0,0.1,0.1,0.1
			c0.2,0,0.6-0.1,1-0.3c0.5-0.2,1-0.5,1.5-0.9c0.5-0.4,1.1-0.7,1.7-1.2c0.6-0.4,1.1-0.8,1.5-1.3c0.5-0.4,0.9-0.8,1.2-1.2
			C62.8,53.8,63,53.5,63,53.4z"/>
		<path class="st1" d="M98,47.6c0,0.3-0.2,0.4-0.6,0.4c-0.2,0-0.7,0.1-1.4,0.2c-0.7,0.1-1.5,0.2-2.4,0.3c-0.9,0.1-1.9,0.2-3,0.3
			c-1,0.1-2.1,0.2-3.1,0.3c-1,0.1-1.9,0.2-2.8,0.3c-0.8,0.1-1.5,0.1-2,0.1c-0.3,0-0.9,0.3-1.6,0.9c-0.8,0.6-1.7,1.4-2.7,2.4
			c-1,1-2.1,2-3.1,3.2c-1.1,1.2-2.1,2.3-3,3.5c-0.9,1.1-1.6,2.2-2.2,3.1c-0.6,1-0.9,1.7-0.9,2.2c0,0.2,0.1,0.3,0.2,0.4
			c0.2,0.1,0.4,0.2,0.6,0.2c0.2,0,0.6-0.1,1.2-0.3c1.8-1.1,3.7-2.2,5.7-3.5c1.7-1.1,3.6-2.3,5.7-3.7c2.1-1.4,4.3-2.9,6.5-4.6
			c0.1,0.1,0.1,0.1,0.2,0.2c0.1,0.1,0.1,0.1,0.2,0.2s0.1,0.2,0.1,0.3c0,0.3-0.1,0.6-0.4,0.9c-2.5,2.4-5,4.6-7.3,6.6
			c-1,0.8-2,1.7-3,2.5c-1,0.8-2,1.6-3,2.3c-1,0.7-1.9,1.3-2.8,1.8c-0.9,0.5-1.6,0.9-2.2,1.1c-0.2,0.1-0.4,0.1-0.6,0.1
			c-0.2,0-0.4,0.1-0.6,0.1c-0.2,0-0.5,0-0.7,0c-0.8,0-1.6-0.4-2.3-1.1c-0.7-0.7-1-2-1-3.6c0-0.5,0.2-1.3,0.6-2.2c0.4-1,1-2,1.9-3.2
			c0.8-1.2,1.9-2.5,3.1-3.9c1.2-1.4,2.7-2.9,4.4-4.4l0.2-0.2c0.2-0.2,0.2-0.3,0.2-0.4c0-0.1-0.1-0.2-0.2-0.2
			c-0.1-0.1-0.4-0.1-0.8-0.1c-0.2,0-0.5,0-1.1,0c-0.5,0-1.2,0-2,0c-0.7,0-1.4,0-2.1,0c-0.7,0-1.4-0.1-2.1-0.2
			c-0.7-0.1-1.2-0.2-1.7-0.4c-0.5-0.2-0.7-0.5-0.7-0.8c-0.3,0-0.5-0.1-0.8-0.2c-0.2-0.1-0.4-0.2-0.5-0.3c-0.1-0.1-0.2-0.2-0.2-0.4
			c0-0.2,0.1-0.3,0.4-0.3c0.2,0,0.7-0.1,1.3-0.1c1.8-0.3,3.7-0.5,5.6-0.8c1.6-0.2,3.4-0.4,5.2-0.6c1.9-0.2,3.6-0.4,5.2-0.5l3.3-4.5
			c0.1-0.3,0.4-0.4,0.8-0.5c0.4-0.1,0.9-0.1,1.4-0.1c0.4,0,0.7,0,1,0.1s0.5,0.3,0.5,0.6c0,0.2-0.1,0.5-0.4,0.9l-1.2,1.7
			C87,44,87,44.2,87,44.3c0,0.1-0.1,0.3-0.1,0.4c0,0.1,0,0.2,0,0.3c0,0.1,0,0.2,0.1,0.2c0.1,0.1,0.3,0.1,0.6,0.1c0.7,0,1.4,0,2.2,0
			c0.8,0,1.7,0,2.5,0.1c0.9,0.1,1.7,0.2,2.5,0.4c0.8,0.2,1.5,0.5,2.2,0.9c0.2,0.1,0.4,0.1,0.5,0.2c0.1,0.1,0.2,0.2,0.4,0.3
			C97.9,47.3,98,47.4,98,47.6z"/>
		<path class="st1" d="M105.3,54c0,0.3-0.1,0.6-0.4,0.9c-2.5,2.3-4.9,4.3-7.1,6.2c-1,0.8-2,1.6-3,2.4c-1,0.8-2,1.5-3,2.2
			c-1,0.7-1.9,1.2-2.7,1.7c-0.8,0.5-1.6,0.8-2.2,1c-0.2,0.1-0.4,0.1-0.6,0.1c-0.2,0-0.4,0.1-0.6,0.1c-0.2,0-0.5,0-0.7,0
			c-0.4,0-0.8,0-1.3-0.1c-0.4-0.1-0.8-0.3-1.2-0.6c-0.4-0.3-0.7-0.7-0.9-1.2c-0.2-0.5-0.3-1.2-0.3-2c0-0.5,0.2-1.2,0.5-2
			c0.3-0.8,0.7-1.6,1.2-2.5c0.5-0.9,1.1-1.7,1.7-2.6c0.6-0.9,1.2-1.6,1.8-2.3c0.6-0.7,1.1-1.3,1.5-1.7c0.4-0.5,0.7-0.7,0.9-0.8
			c0.2-0.1,0.3-0.1,0.5-0.2c0.2-0.1,0.3-0.1,0.5-0.2c0.2-0.1,0.4-0.1,0.6-0.1c0.2,0,0.6,0,1,0.1c0.5,0.1,0.8,0.2,1.1,0.3
			c0,0,0.1,0.1,0.1,0.1c0,0.1,0.1,0.1,0.1,0.2c0,0,0,0.1,0,0.2c0,0.1-0.1,0.3-0.3,0.5c-1.1,1.1-2,2.2-3,3.2c-0.8,0.9-1.5,1.9-2.3,3
			c-0.7,1.1-1.3,2.1-1.6,3.1c-0.1,0.1-0.1,0.3-0.2,0.4c-0.1,0.3-0.2,0.6-0.2,0.8c0,0.4,0.2,0.5,0.6,0.5c0.2,0,0.6-0.1,1.2-0.3
			c1.8-1,3.6-2,5.6-3.2c1.7-1,3.6-2.2,5.7-3.5c2.1-1.3,4.2-2.8,6.4-4.5c0.1,0.1,0.1,0.1,0.2,0.2c0.1,0.1,0.1,0.1,0.2,0.2
			C105.3,53.7,105.3,53.9,105.3,54z M98.7,45.3c0,0.2,0,0.3,0,0.5c0,0.1-0.1,0.3-0.3,0.5c-0.4,0.5-0.9,1-1.4,1.5
			c-0.5,0.4-1,0.7-1.5,1c-0.5,0.3-1.1,0.4-1.8,0.4c-0.2,0-0.3-0.1-0.4-0.2c-0.3-0.2-0.4-0.5-0.4-0.9c0-0.5,0.2-1,0.5-1.5
			c0.4-0.5,0.8-1,1.3-1.4c0.5-0.4,1-0.7,1.5-0.9c0.5-0.2,0.9-0.4,1.3-0.4c0.1,0,0.1,0,0.2,0c0.1,0,0.1,0,0.2,0c0.1,0,0.1,0,0.2,0.1
			c0.3,0.3,0.4,0.6,0.5,0.7C98.7,44.9,98.7,45.1,98.7,45.3z"/>
		<path class="st1" d="M113.5,52.2c0,0.9-0.3,1.9-0.9,3.1c-0.6,1.1-1.4,2.3-2.4,3.6c-1,1.2-2.1,2.4-3.4,3.6
			c-1.2,1.2-2.5,2.2-3.7,3.1c-1.3,0.9-2.5,1.6-3.6,2.2c-1.2,0.6-2.1,0.8-3,0.8c-0.3,0-0.5,0-0.8-0.1c-0.3-0.1-0.6-0.2-0.8-0.3
			c-0.3-0.2-0.5-0.4-0.6-0.7c-0.2-0.3-0.2-0.7-0.2-1.2c0-0.5,0.1-1.1,0.4-1.8c0.3-0.7,0.6-1.4,1-2.1c0.4-0.7,0.9-1.5,1.4-2.2
			c0.5-0.7,1.1-1.5,1.7-2.1c1.3-1.6,2.8-3.3,4.5-5c0.2-0.2,0.4-0.4,0.5-0.6c0.2-0.2,0.3-0.3,0.5-0.4c0.2-0.1,0.3-0.2,0.5-0.2
			c0.1,0,0.3,0,0.5,0c0.2,0,0.5,0.1,0.7,0.2c0.2,0.1,0.5,0.2,0.6,0.3c0.2,0.1,0.3,0.3,0.3,0.6c0,0.1,0,0.3-0.1,0.4
			c-0.1,0.1-0.2,0.3-0.4,0.5c-1,1-1.9,2.1-2.8,3.1c-0.8,0.9-1.6,2-2.4,3.1c-0.8,1.1-1.5,2.2-2.1,3.2c-0.1,0.2-0.2,0.4-0.2,0.5
			c-0.1,0.2-0.1,0.3-0.1,0.5c0,0.2,0,0.3,0,0.4c0,0.2,0.1,0.3,0.2,0.3c0.3,0,0.8-0.2,1.6-0.8c0.7-0.5,1.6-1.2,2.5-2
			c1-0.8,2-1.8,3-2.9c1.1-1.1,2-2.2,2.9-3.3c0.9-1.1,1.6-2.3,2.2-3.4c0.6-1.1,0.9-2.2,1-3.1c0-0.1,0-0.3,0-0.5
			c0-0.2,0.1-0.3,0.2-0.3c0.1,0,0.2,0.1,0.3,0.4c0.3,0.5,0.5,0.9,0.7,1.4C113.4,51,113.5,51.6,113.5,52.2z"/>
		<path class="st1" d="M135.9,54.2c0,0.3-0.1,0.6-0.4,0.9c-0.5,0.5-1.2,1.1-2.1,1.9c-0.9,0.8-2,1.6-3.1,2.5
			c-1.1,0.8-2.3,1.5-3.5,2.1c-1.2,0.6-2.3,0.9-3.4,0.9c-0.2,0-0.3,0-0.4,0c-0.1,0-0.3,0-0.4-0.1c-0.7,0.9-1.5,1.7-2.3,2.5
			c-0.8,0.8-1.6,1.4-2.4,2c-0.8,0.6-1.6,1-2.4,1.4s-1.5,0.5-2.2,0.5c-0.4,0-0.7-0.1-1.2-0.2c-0.4-0.1-0.8-0.3-1.2-0.5
			c-0.4-0.3-0.7-0.6-0.9-1.1c-0.3-0.5-0.4-1.1-0.4-1.9c0-1,0.3-2.1,0.9-3.4s1.5-2.6,2.6-4c1.1-1.3,2.5-2.6,4.1-3.8
			c1.6-1.2,3.4-2.2,5.4-2.9c0.4,0,0.7,0.1,0.7,0.2s0.2,0.2,0.5,0.3c0.2,0,0.4-0.1,0.5-0.2c0.1-0.1,0.3-0.2,0.7-0.2
			c0.2,0,0.3,0,0.6,0.1c0.2,0.1,0.4,0.3,0.7,0.5c0.1,0.1,0.3,0.3,0.4,0.4c0.1,0.2,0.2,0.3,0.3,0.5c0.1,0.2,0.1,0.4,0.1,0.6
			c0,0.9-0.3,2-0.7,3.2c-0.5,1.2-1.2,2.5-2,3.7c0.4,0,0.8-0.1,1.4-0.3c0.5-0.2,1.1-0.4,1.7-0.7c0.6-0.3,1.2-0.7,1.9-1
			c0.7-0.4,1.3-0.8,1.9-1.2c1.5-1,3-2.1,4.6-3.3c0.1,0.1,0.1,0.1,0.2,0.2c0.1,0.1,0.1,0.1,0.2,0.2C135.9,53.9,135.9,54,135.9,54.2z
			 M119.7,60.8c-0.3-0.2-0.5-0.5-0.7-0.8c-0.2-0.3-0.4-0.7-0.6-1c-0.2-0.3-0.3-0.6-0.4-0.9c-0.1-0.2-0.2-0.4-0.2-0.4
			c-0.8,0.8-1.5,1.6-2.1,2.5c-0.6,0.9-1,1.7-1.4,2.4c-0.4,0.7-0.6,1.3-0.8,1.8c-0.1,0.5-0.2,0.8-0.2,0.8c0,0.3,0.1,0.4,0.2,0.4
			c0.6,0,1.2-0.2,1.9-0.6c0.7-0.4,1.4-0.9,2-1.5c0.6-0.6,1.2-1.1,1.6-1.6C119.4,61.3,119.6,61,119.7,60.8z M124,53.8
			C124,53.8,124,53.7,124,53.8c-0.3-0.1-0.5,0.1-0.9,0.4c-0.4,0.3-0.8,0.7-1.2,1c-0.4,0.4-0.8,0.8-1.1,1.2c-0.3,0.4-0.5,0.7-0.5,0.9
			c0,0.1,0.1,0.3,0.3,0.6c0.2,0.3,0.3,0.4,0.4,0.4c0.3,0,0.7-0.2,1-0.7c0.3-0.4,0.7-0.9,0.9-1.5c0.3-0.5,0.5-1.1,0.7-1.5
			C123.9,54.2,124,53.9,124,53.8z"/>
		<path class="st1" d="M151.9,54.7c0,0.3-0.1,0.6-0.4,0.9c-0.1,0-0.5,0.3-1.2,1c-0.7,0.6-1.7,1.4-2.8,2.4c-1.1,1-2.4,2-3.8,3.1
			c-1.4,1.1-2.8,2.1-4.2,3.1c-1.4,1-2.7,1.7-4,2.4c-1.3,0.6-2.4,0.9-3.3,0.9c-1.5,0-2.7-0.5-3.4-1.4c-0.8-0.9-1.1-2.3-1.1-4.1
			c0-0.3,0.1-0.5,0.2-0.6c0.1-0.1,0.2-0.3,0.4-0.4c0.2-0.1,0.4-0.2,0.7-0.2c0.1,0.5,0.3,0.9,0.5,1.2c0.2,0.3,0.5,0.6,1,0.8
			c0.4,0.2,1,0.4,1.7,0.4c1,0,1.9-0.4,2.6-1.2c0.7-0.8,1.4-1.7,1.8-2.8c0.5-1.1,0.8-2.2,1.1-3.2c0.2-1.1,0.3-1.8,0.3-2.3
			c0-0.1,0-0.1-0.1-0.2c-0.1-0.1-0.2-0.1-0.4-0.1c-0.1,0-0.3,0-0.5,0.1c-0.2,0.1-0.4,0.2-0.7,0.4c-0.6,0.5-1.2,1-2,1.5
			c-0.7,0.5-1.4,1.1-2.1,1.6c-0.8,0.6-1.5,1.2-2.3,1.8c-0.5,0.3-1,0.4-1.5,0.4c-0.3,0-0.5-0.1-0.6-0.2c-0.2-0.1-0.2-0.3-0.2-0.4
			c0-0.3,0-0.4,0.1-0.5c0.1-0.1,0.3-0.3,0.7-0.5c0.8-0.6,1.6-1.2,2.3-1.7c0.7-0.6,1.5-1.2,2.2-1.9c0.7-0.7,1.5-1.4,2.3-2.1
			c0.8-0.7,1.8-1.5,2.9-2.3c0.2-0.2,0.3-0.4,0.4-0.5c0.1-0.1,0.3-0.2,0.4-0.3c0.1-0.1,0.3-0.1,0.4-0.1c0.1,0,0.3,0,0.7,0.1
			c0.4,0,0.7,0.1,1.1,0.2c0.4,0.1,0.7,0.2,1,0.4c0.3,0.1,0.5,0.3,0.5,0.5c0,1.6-0.1,3.1-0.3,4.3c-0.2,1.2-0.5,2.2-0.8,3
			c-0.3,0.8-0.5,1.5-0.7,2c-0.2,0.5-0.3,0.8-0.3,0.9c0,0.1,0,0.1,0.1,0.1c0.1,0,0.2,0,0.4-0.1c0.9-0.5,1.7-0.9,2.4-1.3
			c0.7-0.4,1.4-0.9,2.1-1.3c0.7-0.5,1.4-0.9,2.2-1.5c0.8-0.5,1.6-1.2,2.6-1.9c0.2-0.2,0.3-0.3,0.6-0.4c0.2-0.1,0.4-0.3,0.6-0.4
			c0.1,0.1,0.1,0.1,0.2,0.2c0.1,0.1,0.1,0.1,0.2,0.2C151.9,54.5,151.9,54.6,151.9,54.7z"/>
	</g>
</g>
</svg>
