<?xml version="1.0" encoding="utf-8"?>
<!-- Generator: Adobe Illustrator 19.2.1, SVG Export Plug-In . SVG Version: 6.00 Build 0)  -->
<svg version="1.1" id="Capa_1" xmlns="http://www.w3.org/2000/svg" xmlns:xlink="http://www.w3.org/1999/xlink" x="0px" y="0px"
	 viewBox="0 0 400 400" style="enable-background:new 0 0 400 400;" xml:space="preserve">
<style type="text/css">
	.st0{fill:#F08100;}
</style>
<g>
	<g>
		<path d="M72.6,139.7l-1-3.6H71v44.6H60.4v-78.5h10.3L81.9,143l1,3.6h0.6v-44.6h10.6v78.5H83.8L72.6,139.7z"/>
		<path d="M133.3,102.1v62.4c-0.1,3.2-0.7,6.1-1.9,8.5c-1,2.1-2.5,4.2-4.6,5.8c-2.1,1.7-5,2.7-8.9,2.7c-3.8,0-6.8-1-9-2.7
			c-2.1-1.6-3.5-3.6-4.5-5.8c-1.2-2.5-1.8-5.3-1.9-8.5v-62.4h11.5v62.4c0,2.2,0.5,3.7,1.6,4.9c0.5,0.5,1.3,0.9,2.2,0.9
			c2,0,3-1.3,3.4-2.9c0.3-0.7,0.4-1.7,0.4-2.9v-62.4H133.3z"/>
		<path d="M141.7,102.1h26.4V114h-14.9v20.6H164v12.6h-10.7v21.6h14.9v11.9h-26.4V102.1z"/>
		<path d="M193.7,123.1c0-2.6-0.1-5.4-0.9-7.7c-0.7-2.1-1.9-3.6-3.7-3.6c-3,0.1-4,3.2-4,7.8c0,2.7,1.2,5.4,2.9,8.4
			c1.7,3,4,6.1,6.2,9.4c2.7,4,5.3,8,7.4,12c2,4,3.4,8,3.4,12.3c0,5.2-0.9,10.1-3.3,13.8s-6.4,6-12.7,6c-7.4,0-11.5-2.8-13.9-7.1
			c-2.4-4.3-2.9-9.9-2.9-15.8l11.3-1.1c0,3.3,0.1,6.6,1,9.1c0.7,2.6,2,4.3,4.5,4.3c3.4,0,4.7-3.6,4.7-8.7c0-2.6-1.3-5.6-3-8.7
			c-1-1.5-1.9-3.1-3-4.7c-2.2-3.2-4.7-6.8-7.3-10.8c-2.6-4-4.5-8-5.7-12.2c-0.6-2-1-4.2-1-6.3c0-4.3,1-8.9,3.4-12.4
			c2.5-3.4,6.2-5.9,11.6-6c6.9-0.1,11,2.8,13.2,6.9c2.2,4.3,2.9,9.5,2.9,13.9L193.7,123.1z"/>
		<path d="M207.1,114v-11.9h33.3V114h-10.9v66.7H218V114H207.1z"/>
		<path d="M265.6,180.6l-6-33.1h-3.1v33.1h-11.5v-78.5h11.5c13.8,0,19.7,7.8,19.7,22.7c0,7.8-2,14.9-6.4,17.8l7.4,38H265.6z
			 M256.5,136.8c1.6,0,3.7-0.2,5.4-1.7c1.7-1.5,3.1-4.4,3.1-9.9c0-5.6-1.4-8.5-3.1-10c-1.7-1.5-3.8-1.6-5.4-1.6V136.8z"/>
		<path d="M313.5,164.5c-0.1,3.2-0.7,6.1-1.9,8.5c-1,2.1-2.5,4.2-4.6,5.8c-2.1,1.7-5,2.7-8.9,2.7s-6.8-1-9-2.7
			c-2.1-1.6-3.5-3.6-4.5-5.8c-1.2-2.5-1.8-5.3-1.9-8.5v-46.3c0.1-3.1,0.7-6,1.9-8.4c1-2.1,2.4-4.3,4.5-5.9c2.1-1.6,5.1-2.7,9-2.7
			s6.7,1.1,8.9,2.7c2.1,1.6,3.6,3.7,4.6,5.9c1.2,2.5,1.8,5.3,1.9,8.4V164.5z M302,118.2c0-2.1-0.4-3.6-1.5-4.9
			c-0.5-0.5-1.4-0.9-2.4-0.9c-2,0-3,1.5-3.4,2.9c-0.3,0.9-0.4,1.8-0.4,2.9v46.3c0,2.2,0.5,3.7,1.6,4.9c0.5,0.5,1.3,0.9,2.2,0.9
			c2,0,3-1.3,3.4-2.9c0.3-0.7,0.4-1.7,0.4-2.9V118.2z"/>
		<path d="M340.5,123.1c0-2.6-0.1-5.4-0.9-7.7c-0.7-2.1-1.9-3.6-3.7-3.6c-3,0.1-4,3.2-4,7.8c0,2.7,1.2,5.4,2.9,8.4
			c1.7,3,4,6.1,6.2,9.4c2.7,4,5.3,8,7.4,12s3.4,8,3.4,12.3c0,5.2-0.9,10.1-3.3,13.8c-2.5,3.6-6.4,6-12.7,6c-7.4,0-11.5-2.8-13.9-7.1
			c-2.4-4.3-2.9-9.9-2.9-15.8l11.3-1.1c0,3.3,0.1,6.6,1,9.1c0.7,2.6,2,4.3,4.5,4.3c3.4,0,4.7-3.6,4.7-8.7c0-2.6-1.3-5.6-3-8.7
			c-1-1.5-1.9-3.1-3-4.7c-2.2-3.2-4.7-6.8-7.3-10.8c-2.6-4-4.5-8-5.7-12.2c-0.6-2-1-4.2-1-6.3c0-4.3,1-8.9,3.4-12.4
			c2.5-3.4,6.2-5.9,11.6-6c6.9-0.1,11,2.8,13.2,6.9c2.2,4.3,2.9,9.5,2.9,13.9L340.5,123.1z"/>
	</g>
	<g>
		<path class="st0" d="M91.6,199.3c-2.1,4-4.6,7.8-7.3,11.3c-2.7,3.5-5.6,7-8.5,10.3c-2.9,3.4-5.9,6.6-9.1,9.8s-6.5,6.3-9.8,9.2
			c-3.2,2.9-6.5,5.7-10,8.3c-3.5,2.7-7.3,4.9-11.3,6.7c-1.9,0.9-4,1.5-6.1,2c-2.1,0.5-4.2,0.7-6.2,0.6c-2-0.1-3.9-0.5-5.7-1.3
			c-1.8-0.8-3.4-2-4.8-3.6c-1.5-1.7-2.6-3.6-3-5.6c-0.5-2-0.6-4-0.4-6.1c0.2-2.1,0.7-4.2,1.4-6.3c0.7-2.1,1.5-4,2.4-5.9
			c1.9-3.9,4.2-7.7,6.8-11.2c2.6-3.5,5.3-6.9,8.1-10.2c2.9-3.5,5.9-6.8,9-10c3.1-3.2,6.4-6.3,9.8-9.2c3.1-2.7,6.4-5.2,9.8-7.6
			c3.5-2.4,7.1-4.4,11-6c3.2-1.3,6.6-2.3,10.3-2.9c3.7-0.6,7.2,0,10.6,1.7c1.6,0.9,3.1,2,4.4,3.5s2.2,3.1,2.7,4.9
			c0.8,3.2,0.6,6.2-0.4,9.2C94.1,194.1,92.9,196.8,91.6,199.3z M86,183c-0.2-0.9-0.6-1.5-1.2-1.9c-0.6-0.4-1.3-0.7-2-0.8
			c-0.8-0.1-1.6-0.1-2.4,0c-0.8,0.1-1.5,0.3-2.1,0.4c-1.6,0.4-3.2,0.9-4.7,1.5c-1.5,0.6-3,1.3-4.4,2.1c-3,1.5-5.8,3.3-8.5,5.2
			c-2.7,1.9-5.2,4-7.7,6.2c-2.5,2.2-4.9,4.6-7.3,7c-2.4,2.5-4.6,4.9-6.9,7.4c-2.2,2.5-4.4,5.1-6.5,7.7c-2.1,2.7-4.1,5.4-5.9,8.2
			c-1.7,2.6-3.4,5.4-4.9,8.4c-1.5,3-2.4,6.1-2.6,9.2c-0.2,1.7,0.1,3.2,0.9,4.3c0.8,1.1,2.1,1.6,3.9,1.4c1.6-0.2,3.2-0.6,4.8-1.2
			c1.5-0.6,3-1.3,4.5-2.1c2.9-1.6,5.6-3.4,8.2-5.4c2.6-2,5.1-4.1,7.6-6.3c2.5-2.2,5-4.5,7.4-6.9c2.4-2.4,4.8-4.8,7.1-7.3
			c2.3-2.5,4.6-5,6.8-7.5c2.2-2.5,4.3-5.2,6.4-7.9c1.6-2.2,3.2-4.6,4.6-7.1c1.4-2.5,2.7-5.1,3.9-7.7c0.3-0.7,0.6-1.8,0.9-3.3
			C86.1,185.1,86.2,183.9,86,183z"/>
		<path class="st0" d="M119.7,242.8c-2,0-3.8-0.2-5.3-0.6c-4.9,4.9-10.2,8.9-15.8,11.9c-1.7,0.9-3.7,1.7-5.9,2.5
			c-2.2,0.8-4.3,1.3-6.5,1.5c-2.2,0.2-4.2,0.1-6.2-0.5s-3.6-1.8-4.8-3.8c-1.2-1.7-1.7-3.7-1.7-5.9c0-2.2,0.4-4.2,1.1-6.1
			c1.3-3.9,3.2-7.6,5.8-10.8c2.6-3.3,5.2-6.5,7.8-9.5c5.8-6.6,11.6-13.2,17.5-19.6c5.9-6.4,12-12.7,18.4-18.9
			c1.3-1.3,2.7-2.7,4.2-4.1c1.4-1.4,2.9-2.8,4.5-4.1c0.7-0.6,1.4-1.2,2.1-2s1.5-1.3,2.2-1.7c1-0.4,2-0.3,3,0.1
			c1,0.5,1.9,1.2,2.5,2.1c0.7,0.9,1.1,1.9,1.3,3c0.2,1.1,0,2-0.6,2.7c-0.6,0.7-1.2,1.3-2,1.9s-1.4,1.2-2.1,1.7
			c-5.4,5.4-9.9,10-13.6,13.7c-3.7,3.7-7.1,7.3-10.4,10.8c2.5-0.2,4.9,0.4,7.1,1.7c2.2,1.3,3.8,3.2,4.6,5.7c1,2.8,1.1,5.6,0.3,8.4
			c-0.8,2.8-1.9,5.3-3.5,7.7l-2.6,3.8c3.6-0.3,6.8-1.7,9.8-4.2c0.6-0.5,1.1-0.9,1.7-1.4c0.5-0.4,1.2-0.7,2-0.8
			c1.5-0.3,2.8,0.2,3.9,1.4c0.9,1.1,1.2,2.3,0.9,3.6c-0.2,0.8-0.6,1.4-1.1,2c-0.5,0.5-1,1-1.5,1.5c-2.4,2-5.1,3.6-8,4.7
			C125.8,242.2,122.8,242.8,119.7,242.8z M97.6,242.8c1.2-0.9,2.3-1.8,3.5-2.7c1.2-0.9,2.3-1.9,3.3-3c-1.6-1.4-3-3.2-4-5.1
			c-1.1-2-1.7-4.2-1.9-6.6l-7.2,8.4c-0.9,1.1-1.8,2.3-2.9,3.7c-1.1,1.4-2.1,2.8-3,4.2c-1,1.4-1.7,2.7-2.2,4
			c-0.5,1.3-0.7,2.2-0.4,2.9c0.3,0.8,1,1.1,2.2,0.9s2.5-0.6,3.9-1.3s3-1.6,4.6-2.6S96.3,243.7,97.6,242.8z M111.2,229.8
			c0.5-0.6,1.2-1.5,2.1-2.7c0.9-1.3,1.8-2.6,2.5-4c0.8-1.4,1.3-2.7,1.7-4c0.3-1.3,0.1-2.2-0.7-2.8c-0.8-0.6-1.6-0.8-2.5-0.7
			c-0.9,0.1-1.8,0.4-2.5,0.7c-2.2,1-3.7,2.7-4.4,5.2c-0.7,2.5-0.5,4.8,0.7,6.9c0.2,0.6,0.5,1.1,0.9,1.5c0.4,0.4,0.8,0.8,1.3,1.2
			C110.5,230.5,110.9,230.1,111.2,229.8z"/>
		<path class="st0" d="M160.3,214.5c-0.1,0.9-0.5,1.6-1.1,2.1c-0.6,0.5-1.2,1-1.8,1.5l-4,3.9c-3.7,3.6-6.8,6.7-9.4,9.5
			c-2.6,2.7-4.8,5.2-6.7,7.4s-3.5,4.1-5,5.9c-1.4,1.8-2.9,3.5-4.3,5.1c-2.8,3.3-5.6,6.6-8.3,9.9s-5.5,6.8-8.4,10.4
			c-2.8,3.6-5.8,7.5-8.7,11.6c-3,4.1-6,8.5-9.1,13.2c-0.5,0.7-0.9,1.3-1.3,2c-0.4,0.7-1,1.2-1.7,1.4c-1.3,0.5-2.7,0.4-4.1-0.1
			c-1.4-0.6-2.4-1.5-3.1-2.9c-0.5-1.3-0.3-2.6,0.4-3.9c0.5-0.8,0.9-1.5,1.4-2.3c0.4-0.8,0.9-1.5,1.4-2.3c5.8-9.2,12-17.9,18.7-26.2
			c6.7-8.3,13.6-16.4,20.6-24.4c2.9-3.2,5.8-6.3,8.7-9.5c2.9-3.1,5.9-6.2,9-9.3c1.3-1.3,2.7-2.7,4-4c1.3-1.3,2.7-2.6,4.2-3.8
			c0.7-0.5,1.3-0.9,1.9-1.2c0.6-0.3,1.3-0.4,2.2-0.2c1.5,0.3,2.7,1.1,3.5,2.3C159.9,211.8,160.3,213.1,160.3,214.5z M171.4,198.1
			c-1.7,0-3.2-0.7-4.5-2c-1.3-1.3-1.9-2.8-1.9-4.4c0-1.7,0.6-3.2,1.9-4.5c1.3-1.3,2.7-1.9,4.5-1.9s3.2,0.6,4.5,1.9
			c1.3,1.3,1.9,2.7,1.9,4.5c0,1.6-0.6,3.1-1.9,4.4C174.7,197.5,173.2,198.1,171.4,198.1z"/>
		<path class="st0" d="M154.4,252.5c-1.8-2.5-2.7-5.3-2.6-8.3c0.1-3,0.7-5.9,1.9-8.7c1.2-2.6,2.6-5,4.2-7.3c1.6-2.3,3.4-4.4,5.4-6.4
			c2-2,4.1-3.8,6.3-5.4c2.2-1.6,4.4-3.1,6.6-4.5c1.6-1,3.6-1.9,5.9-2.7s4.7-1.4,7.1-1.7c2.4-0.3,4.6-0.1,6.7,0.4
			c2.1,0.6,3.7,1.8,4.8,3.8c1.1,1.7,1.3,3.6,0.7,5.5c-0.6,1.9-1.4,3.7-2.3,5.3c-2.1,3.4-4.8,6.4-8.1,9c-3.3,2.7-6.7,4.7-10.4,6.1
			c-2.8,1.1-5.6,1.7-8.5,2s-5.7-0.1-8.4-1.2c-0.6,1.1-1,2.1-1.4,3.1c-0.3,1-0.5,2-0.4,3c0.1,1,0.4,1.9,1,2.7c0.6,0.8,1.5,1.5,2.9,2
			c2.4,0.9,5.2,0.7,8.4-0.4s6.3-2.7,9.5-4.8c3.1-2,6-4.2,8.7-6.4c2.6-2.3,4.7-4.1,6.1-5.4c0.7-0.7,1.4-1.4,2.1-2.2
			c0.7-0.8,1.5-1.4,2.4-1.8c0.9-0.3,1.7-0.3,2.5-0.1c0.8,0.2,1.4,0.6,2,1.2s1,1.2,1.2,2c0.2,0.7,0.2,1.4-0.1,2.1
			c-0.3,0.9-0.8,1.7-1.7,2.5c-0.8,0.8-1.6,1.6-2.2,2.2c-3.7,3.5-6.5,6-8.5,7.6c-2,1.6-3.8,3-5.4,4.1c-2.4,1.7-5.3,3.4-8.6,5
			s-6.7,2.7-10.1,3.3c-3.4,0.6-6.7,0.6-9.9-0.1C159.1,257.1,156.5,255.4,154.4,252.5z M173,231.1c3.6-0.6,6.8-1.9,9.8-4
			c3-2.1,5.5-4.4,7.5-6.8c0.8-0.9,1.3-1.8,1.7-2.7c0.3-1,0.3-1.6-0.2-1.9c-2.5,0.7-4.9,1.6-7.1,2.9c-2.2,1.3-4.3,2.7-6.4,4.2
			c-3.5,2.5-6.5,5.3-9.1,8.4C170.4,231.3,171.7,231.3,173,231.1z"/>
		<path class="st0" d="M250.3,197.1c-0.5,0.8-1.3,1.3-2.5,1.6s-3.5,0.5-7.1,0.7c-3.8,4-6.9,7.5-9.5,10.4c-2.6,2.9-4.8,5.4-6.6,7.5
			c-1.9,2.1-3.5,4-4.9,5.6c-1.4,1.6-2.7,3.2-4,4.8c-2.4,2.8-4.7,5.7-6.9,8.7s-3.9,6.3-5.1,9.8c-0.6,1.9-0.5,3,0.3,3.1
			c0.8,0.1,1.8-0.1,3-0.8c1.2-0.7,2.4-1.5,3.5-2.4c1.2-0.9,1.9-1.5,2.2-1.8c1.3-1.3,2.8-2.7,4.4-4.3c1.6-1.6,3.9-4.1,7-7.5
			c0.6-0.7,1.2-1.4,1.9-2.2c0.7-0.8,1.4-1.4,2.2-1.9c1.3-0.9,2.7-1,4.1-0.3c1.4,0.7,2.2,1.8,2.4,3.3c0.1,0.9,0,1.6-0.4,2.2
			c-0.3,0.6-0.8,1.2-1.4,1.8c-1.6,1.7-3,3.2-4.2,4.5c-1.2,1.3-2.2,2.4-3.1,3.3c-0.9,1-1.7,1.8-2.4,2.5c-0.7,0.7-1.3,1.4-2,2.1
			c-2.3,2.4-4.9,4.6-7.7,6.7c-2.8,2.1-6.1,3.2-9.8,3.4c-3.1,0.2-5.6-0.7-7.7-2.7s-3-4.4-2.9-7.2c0.1-2.8,0.7-5.6,2-8.4
			c1.2-2.8,2.7-5.4,4.3-7.9c1.7-2.5,3.1-4.4,4.3-5.9c3.6-4.3,7-8.7,10.3-13s6.9-8.5,10.8-12.6l-8.2,0.7c-0.8,0.1-1.5,0.2-2.3,0.4
			c-0.8,0.1-1.4-0.2-2-0.9c-1.4-1.7-1.8-3.6-1.2-5.6c0.3-1.1,0.8-1.7,1.7-1.8c0.8-0.1,1.7-0.3,2.7-0.5c0.6-0.1,1.2-0.2,2-0.3
			c0.7-0.1,1.8-0.2,3.1-0.4c1.3-0.2,3.2-0.5,5.4-0.8c2.3-0.3,5.2-0.7,8.9-1.2c3.2-3.4,6.4-6.7,9.8-10.1c3.3-3.4,6.4-6.2,9.2-8.4
			c0.6-0.5,1.2-0.7,2-0.6c0.7,0.1,1.4,0.3,2,0.7c1.1,0.6,2,1.4,2.7,2.6s1,2.4,0.8,3.6c-0.2,0.8-0.6,1.4-1.2,2
			c-0.6,0.5-1.2,1-1.7,1.5l-7.7,7.2c1.8-0.2,2.7,0.6,2.7,2.3S252.3,194.6,250.3,197.1z"/>
		<path class="st0" d="M229.2,258.1c-1.8,0.1-3.6-0.2-5.2-0.9s-2.9-1.9-3.8-3.5c-1.1-1.7-1.5-3.6-1.4-5.6s0.6-4,1.2-5.8
			c1.3-4.1,3.4-8,6.1-11.5c2.7-3.5,5.5-6.9,8.3-10.2c1.3-1.6,2.7-3.3,4.1-4.8c1.4-1.6,2.9-3.1,4.4-4.6c0.7-0.7,1.4-1.3,2.1-2
			c0.7-0.7,1.6-1.1,2.5-1.2c1.6,0,2.9,0.6,3.9,1.9c1,1.3,1.5,2.6,1.7,3.9c0,0.8-0.1,1.4-0.4,1.8c-0.2,0.4-0.6,0.9-1.1,1.5
			c-3.2,3.4-6.3,6.7-9.2,10c-3,3.3-5.8,6.7-8.4,10.4c-1.8,2.5-3.1,4.7-3.9,6.5c-0.8,1.8-1,3.1-0.7,3.9c0.3,0.8,1.1,0.9,2.5,0.3
			c1.4-0.6,3.3-2,5.9-4.3c1.3-1.2,2.9-2.7,4.6-4.4c1.7-1.7,4.2-4.2,7.6-7.6c0.7-0.7,1.3-1.4,2-2.1c0.6-0.7,1.4-1.3,2.2-1.7
			c1.5-0.6,3-0.4,4.3,0.7s1.8,2.3,1.5,4c-0.2,1-0.6,1.8-1.2,2.4c-0.6,0.6-1.3,1.3-2,2l-4.2,4.3c-1.3,1.4-2.7,2.7-4,4
			c-1.3,1.4-2.7,2.7-4.2,4c-2.9,2.8-5.5,4.9-7.9,6.4C234.3,257.2,231.8,258,229.2,258.1z M262.9,198.1c-1.7,0-3.2-0.7-4.5-2
			c-1.3-1.3-1.9-2.8-1.9-4.4c0-1.7,0.6-3.2,1.9-4.5c1.3-1.3,2.7-1.9,4.5-1.9c1.6,0,3.1,0.6,4.4,1.9c1.3,1.3,2,2.7,2,4.5
			c0,1.6-0.6,3.1-1.9,4.4S264.6,198.1,262.9,198.1z"/>
		<path class="st0" d="M246.4,252.5c-1.3-2.3-1.7-4.8-1.4-7.4c0.3-2.6,1-5.1,2.1-7.3c2.2-4.6,5.1-8.8,8.7-12.6
			c3.6-3.8,7.1-7.5,10.3-11.1c0.8-0.9,1.5-1.7,2.3-2.5c0.8-0.8,1.6-1.5,2.5-2.3c1.6-1.3,3.3-1.5,5.1-0.6c1.7,1.1,2.7,2.6,2.9,4.6
			c0.1,0.8,0.1,1.4-0.1,1.9c-0.1,0.5-0.5,1-0.9,1.6c-3.6,4-7.1,7.8-10.5,11.3c-3.4,3.5-6.5,7.2-9.3,11.3c-1.4,1.7-2.2,3.4-2.7,4.9
			c-0.4,1.5-0.5,2.7-0.1,3.6c0.3,0.9,1.1,1.3,2.4,1.2c1.2,0,2.9-0.7,4.9-2.1c1.9-1.3,3.8-2.8,5.7-4.3c1.9-1.5,3.7-3.1,5.4-4.8
			c2-2,4-4.2,6.1-6.5c-0.6-2.6-0.4-5.4,0.6-8.4c1.4-4.4,4-8.2,7.7-11.4c0.7-0.6,1.5-1.2,2.5-1.9c1-0.7,2.1-1.2,3.2-1.5
			c1.1-0.3,2.2-0.5,3.3-0.4c1.1,0.1,2.2,0.6,3.3,1.6c1.4,1.4,2,3.2,1.5,5.5s-1.3,4.7-2.5,7.2s-2.7,4.7-4.3,6.8
			c-1.6,2.1-2.8,3.6-3.5,4.6c1.1,0.5,2.2,0.7,3.3,0.5s2.3-0.5,3.3-0.9c1.2-0.5,2.2-1.1,3-2c0.9-0.8,1.8-1.6,2.9-2.4
			c1.1-0.8,2.2-1,3.4-0.8c1.2,0.2,2.1,0.9,2.8,2c0.8,1.4,0.9,2.6,0.4,3.6c-0.5,1.1-1.3,2-2.2,2.9c-1.9,1.7-4.1,3.2-6.6,4.3
			s-5,1.7-7.7,1.7c-3.1,0-5.9-0.8-8.4-2.5c-2.4,2.5-4.9,4.9-7.5,7.2c-2.6,2.3-5.3,4.4-8.2,6.3c-1.8,1.2-3.9,2.2-6.1,3
			c-2.3,0.9-4.5,1.4-6.6,1.6c-2.2,0.2-4.2-0.1-6.1-0.9C249.1,256.2,247.6,254.7,246.4,252.5z"/>
		<path class="st0" d="M335.2,241.6c-2.8,3.2-5.4,5.8-7.8,8c-2.4,2.1-4.9,3.9-7.4,5.2c-2.8,1.4-5.9,2.5-9.4,3.2
			c-3.5,0.7-6.6,0.2-9.4-1.4c-1.9-1.3-3.2-2.8-3.8-4.6c-0.6-1.8-0.9-3.7-0.8-5.6c0.1-2,0.5-4,1.2-5.9c0.7-2,1.4-3.7,2.2-5.3
			c2.7-5.2,6-10,9.8-14.5c3.9-4.4,8.2-7.9,13.2-10.4c2.8-1.6,5.9-2.7,9.3-3.1c3.4-0.4,6.5,0.1,9.3,1.5c1.8,1.2,3.1,2.7,3.8,4.5
			c0.7,1.8,0.9,3.7,0.8,5.7c-0.1,2-0.6,4-1.2,5.9c-0.7,2-1.4,3.7-2.2,5.1l-2.2,3.9c3.9-0.1,7.1-1.3,9.8-3.8c0.8-0.8,1.6-1.4,2.4-1.9
			c0.8-0.5,1.8-0.6,3-0.3c1.1,0.3,1.9,0.9,2.5,1.8c0.6,0.9,0.8,1.9,0.6,3c-0.2,1.2-0.8,2.1-1.8,3c-1,0.8-2,1.6-2.8,2.2
			c-3,2.2-6.1,3.6-9.4,4.1C341.4,242.5,338.3,242.4,335.2,241.6z M307,245.2c-0.6,1.9-0.7,3.2-0.2,3.8s1.1,0.8,2,0.7s2-0.6,3.1-1.2
			c1.2-0.7,2.2-1.3,3-1.9c2.2-1.5,4.2-3.2,6.1-5c1.8-1.8,3.6-3.6,5.2-5.6c-1.6-1.6-2.9-3.5-3.7-5.6c-0.8-2.1-1.3-4.2-1.5-6.4
			c-3,3.1-5.8,6.4-8.5,10S308.1,241.4,307,245.2z M330.1,217.1c-0.2,0.6-0.3,1.3-0.4,2.2c-0.1,0.9-0.1,1.9-0.1,3
			c0,1.1,0.1,2.2,0.4,3.4s0.7,2.2,1.3,3.2c1.2-1.6,2.2-3.2,2.8-4.7c0.6-1.5,1.1-2.9,1.5-4.3c0.3-1.3,0.3-2.2,0.1-2.9
			c-0.2-0.7-0.6-1.1-1.2-1.2s-1.3-0.1-2.1,0.1C331.7,216.2,330.9,216.6,330.1,217.1z"/>
		<path class="st0" d="M351.5,229.1c1.6-1.6,3.2-3.3,4.7-4.8c1.5-1.6,3-3.3,4.4-5c1.3-1.6,2.7-3.3,4-5.1c1.3-1.8,2.8-3.8,4.5-6.1
			c0.8-3.1,1.9-5.9,3.5-8.4c1.4-2.2,3.3-4.1,5.6-5.6c2.3-1.5,4.8-2.2,7.6-2.2c1.3,0,2.5,0.3,3.5,1c1,0.7,1.5,1.6,1.6,2.9
			c0,0.9-0.2,1.6-0.5,2.2s-0.8,1.1-1.4,1.5s-1.2,0.8-1.9,1.1c-0.7,0.3-1.3,0.6-1.9,1c-1.6,1.1-2.9,2.4-3.8,3.9
			c-0.9,1.5-1.6,3.1-2,4.8c-1,4-1.5,8.2-1.6,12.4c-0.1,4.2-0.4,8.4-0.9,12.5c-0.3,3.3-1.1,6.3-2.4,9.2c-1.3,2.8-3,5.3-5,7.4
			c-2,2.1-4.4,3.8-7.1,5c-2.7,1.2-5.7,1.7-9,1.5c-2.8-0.1-5.3-0.7-7.7-2c-2.3-1.2-4.2-2.7-5.7-4.6s-2.5-4-2.9-6.5
			c-0.4-2.5-0.2-5,0.8-7.6c0.4-1.2,1.1-1.9,2.2-2.3c1.1-0.4,2.2-0.5,3.2-0.2c1,0.2,1.9,0.8,2.5,1.6c0.7,0.8,0.8,1.8,0.4,3
			c-1,3.1-0.6,5.5,1.1,7.4c1.7,1.8,3.9,2.7,6.7,2.7c2.2,0,4.3-0.8,6.4-2.5c2-1.7,3.5-3.5,4.3-5.6c0.4-0.8,0.7-1.6,0.9-2.5
			c0.2-0.9,0.4-2,0.5-3.3c0.1-1.2,0.3-2.8,0.4-4.6c0.1-1.8,0.2-4,0.4-6.6c-1.7,2.1-3.4,4.1-5.1,5.9c-1.7,1.8-3.3,3.5-5,4.9
			c-1,0.9-2,1.2-3,0.9c-1-0.2-1.9-0.7-2.5-1.5c-0.7-0.8-1.1-1.7-1.2-2.8C350.3,230.9,350.6,229.9,351.5,229.1z"/>
	</g>
	<path class="st0" d="M123.8,292.9c-1.2,0-2.4-0.6-3.2-1.6c-1.3-1.8-0.9-4.2,0.9-5.5c31.5-22.9,77.4-18.7,125.9-14.2
		c42.2,3.9,85.9,7.9,128.7-3c2.1-0.5,4.3,0.7,4.8,2.9c0.5,2.1-0.7,4.3-2.9,4.8c-44.1,11.3-90.5,7-131.4,3.2
		c-49.1-4.5-91.4-8.4-120.5,12.7C125.5,292.6,124.7,292.9,123.8,292.9z"/>
</g>
</svg>
