<?xml version="1.0" encoding="utf-8"?>
<!-- Generator: Adobe Illustrator 19.2.1, SVG Export Plug-In . SVG Version: 6.00 Build 0)  -->
<svg version="1.1" id="Capa_1" xmlns="http://www.w3.org/2000/svg" xmlns:xlink="http://www.w3.org/1999/xlink" x="0px" y="0px"
	 viewBox="0 0 400 400" style="enable-background:new 0 0 400 400;" xml:space="preserve">
<style type="text/css">
	.st0{fill:#FFFFFF;}
	.st1{fill:#F08100;}
</style>
<g>
	<g>
		<path class="st0" d="M129.8,243.5h4.7c2,0,4.1,0.5,5.6,2s2.6,3.9,2.6,7.5c0,3.6-1,6-2.6,7.5s-3.6,2.1-5.6,2.1v12.7h-4.7V243.5z
			 M134.5,257.9c1.4,0,2.3-0.3,2.9-1c0.5-0.7,0.6-1.9,0.6-3.6s-0.1-3-0.6-3.8s-1.4-1.1-2.9-1.1V257.9z"/>
		<path class="st0" d="M157.3,268.8c0,1.3-0.3,2.5-0.8,3.5c-0.4,0.9-1,1.7-1.9,2.3c-0.9,0.7-2,1.1-3.6,1.1c-1.6,0-2.8-0.4-3.6-1.1
			c-0.9-0.7-1.4-1.5-1.8-2.3c-0.5-1-0.7-2.2-0.8-3.5v-18.8c0-1.3,0.3-2.4,0.8-3.4c0.4-0.9,1-1.7,1.8-2.4c0.9-0.6,2.1-1.1,3.6-1.1
			c1.6,0,2.7,0.4,3.6,1.1c0.9,0.7,1.5,1.5,1.9,2.4c0.5,1,0.7,2.2,0.8,3.4V268.8z M152.6,250.1c0-0.9-0.2-1.5-0.6-2
			c-0.2-0.2-0.6-0.3-1-0.3c-0.8,0-1.2,0.6-1.4,1.2c-0.1,0.3-0.2,0.7-0.2,1.2v18.8c0,0.9,0.2,1.5,0.6,2c0.2,0.2,0.5,0.3,0.9,0.3
			c0.8,0,1.2-0.5,1.4-1.2c0.1-0.3,0.2-0.7,0.2-1.2V250.1z"/>
		<path class="st0" d="M165.4,258.8l-0.4-1.5h-0.3v18.1h-4.3v-31.8h4.2l4.5,16.6l0.4,1.5h0.3v-18.1h4.3v31.8h-4.2L165.4,258.8z"/>
		<path class="st0" d="M175.9,248.4v-4.8h13.5v4.8H185v27h-4.7v-27H175.9z"/>
		<path class="st0" d="M191.2,243.5h10.7v4.8h-6v8.4h4.3v5.1h-4.3v8.7h6v4.8h-10.7V243.5z"/>
		<path class="st0" d="M211.2,243.5h10.7v4.8h-6v8.4h4.3v5.1h-4.3v8.7h6v4.8h-10.7V243.5z"/>
		<path class="st0" d="M229.4,258.8l-0.4-1.5h-0.3v18.1h-4.3v-31.8h4.2l4.5,16.6l0.4,1.5h0.3v-18.1h4.3v31.8H234L229.4,258.8z"/>
		<path class="st0" d="M260.4,264.5v4.4c0,1.3-0.3,2.5-0.8,3.5c-0.4,0.9-1,1.7-1.9,2.3c-0.9,0.7-2,1.1-3.6,1.1s-2.8-0.4-3.6-1.1
			c-0.9-0.7-1.4-1.5-1.8-2.3c-0.5-1-0.7-2.2-0.8-3.5v-18.8c0-1.3,0.3-2.4,0.8-3.4c0.4-0.9,1-1.7,1.8-2.4c0.9-0.6,2.1-1.1,3.6-1.1
			s2.7,0.4,3.6,1.1c0.9,0.7,1.5,1.5,1.9,2.4c0.5,1,0.7,2.2,0.8,3.4v4.4H256v-4.4c0-0.9-0.2-1.5-0.7-2c-0.2-0.2-0.6-0.3-1.1-0.3
			c-0.8,0-1.2,0.6-1.4,1.2c-0.1,0.3-0.2,0.7-0.2,1.2v18.8c0,0.9,0.3,1.5,0.7,2c0.2,0.2,0.5,0.3,0.9,0.3c1,0,1.4-0.5,1.6-1.2
			c0.1-0.3,0.2-0.7,0.2-1.2v-4.4H260.4z"/>
		<path class="st0" d="M275.4,268.8c0,1.3-0.3,2.5-0.8,3.5c-0.4,0.9-1,1.7-1.9,2.3c-0.9,0.7-2,1.1-3.6,1.1c-1.6,0-2.8-0.4-3.6-1.1
			c-0.9-0.7-1.4-1.5-1.8-2.3c-0.5-1-0.7-2.2-0.8-3.5v-18.8c0-1.3,0.3-2.4,0.8-3.4c0.4-0.9,1-1.7,1.8-2.4c0.9-0.6,2.1-1.1,3.6-1.1
			c1.6,0,2.7,0.4,3.6,1.1c0.9,0.7,1.5,1.5,1.9,2.4c0.5,1,0.7,2.2,0.8,3.4V268.8z M270.7,250.1c0-0.9-0.2-1.5-0.6-2
			c-0.2-0.2-0.6-0.3-1-0.3c-0.8,0-1.2,0.6-1.4,1.2c-0.1,0.3-0.2,0.7-0.2,1.2v18.8c0,0.9,0.2,1.5,0.7,2c0.2,0.2,0.5,0.3,0.9,0.3
			c0.8,0,1.2-0.5,1.4-1.2c0.1-0.3,0.2-0.7,0.2-1.2V250.1z"/>
		<path class="st0" d="M283.5,258.8l-0.4-1.5h-0.3v18.1h-4.3v-31.8h4.2l4.5,16.6l0.4,1.5h0.3v-18.1h4.3v31.8H288L283.5,258.8z"/>
		<path class="st0" d="M294,248.4v-4.8h13.5v4.8h-4.4v27h-4.7v-27H294z"/>
		<path class="st0" d="M307.1,275.4l4.8-31.8h5.7l4.8,31.8h-4.5l-0.9-6.5h-4.5l-0.9,6.5H307.1z M315,253.9l-0.1-0.8h-0.3l-0.1,0.8
			l-1.3,10h3.2L315,253.9z"/>
		<path class="st0" d="M336.8,264.5v4.4c0,1.3-0.3,2.5-0.8,3.5c-0.4,0.9-1,1.7-1.9,2.3c-0.9,0.7-2,1.1-3.6,1.1s-2.8-0.4-3.6-1.1
			c-0.9-0.7-1.4-1.5-1.8-2.3c-0.5-1-0.7-2.2-0.8-3.5v-18.8c0-1.3,0.3-2.4,0.8-3.4c0.4-0.9,1-1.7,1.8-2.4c0.9-0.6,2.1-1.1,3.6-1.1
			s2.7,0.4,3.6,1.1c0.9,0.7,1.5,1.5,1.9,2.4c0.5,1,0.7,2.2,0.8,3.4v4.4h-4.4v-4.4c0-0.9-0.2-1.5-0.7-2c-0.2-0.2-0.6-0.3-1.1-0.3
			c-0.8,0-1.2,0.6-1.4,1.2c-0.1,0.3-0.2,0.7-0.2,1.2v18.8c0,0.9,0.3,1.5,0.7,2c0.2,0.2,0.5,0.3,0.9,0.3c1,0,1.4-0.5,1.6-1.2
			c0.1-0.3,0.2-0.7,0.2-1.2v-4.4H336.8z"/>
		<path class="st0" d="M337.9,248.4v-4.8h13.5v4.8H347v27h-4.7v-27H337.9z"/>
		<path class="st0" d="M365.4,268.8c0,1.3-0.3,2.5-0.8,3.5c-0.4,0.9-1,1.7-1.9,2.3c-0.9,0.7-2,1.1-3.6,1.1c-1.6,0-2.8-0.4-3.6-1.1
			c-0.9-0.7-1.4-1.5-1.8-2.3c-0.5-1-0.7-2.2-0.8-3.5v-18.8c0-1.3,0.3-2.4,0.8-3.4c0.4-0.9,1-1.7,1.8-2.4c0.9-0.6,2.1-1.1,3.6-1.1
			c1.6,0,2.7,0.4,3.6,1.1c0.9,0.7,1.5,1.5,1.9,2.4c0.5,1,0.7,2.2,0.8,3.4V268.8z M360.8,250.1c0-0.9-0.2-1.5-0.6-2
			c-0.2-0.2-0.6-0.3-1-0.3c-0.8,0-1.2,0.6-1.4,1.2c-0.1,0.3-0.2,0.7-0.2,1.2v18.8c0,0.9,0.2,1.5,0.7,2c0.2,0.2,0.5,0.3,0.9,0.3
			c0.8,0,1.2-0.5,1.4-1.2c0.1-0.3,0.2-0.7,0.2-1.2V250.1z"/>
	</g>
	<g>
		<path class="st1" d="M88.8,148.9c0.6,1.4,0.8,2.9,0.7,4.4c-0.1,1.5-0.4,3-0.9,4.5c-0.5,1.5-1.2,2.9-2,4.3
			c-0.8,1.4-1.7,2.7-2.5,3.8c-1.7,2.3-3.6,4.5-5.6,6.6c-2,2.1-4.1,4.1-6.3,6c-0.5,0.5-1,0.9-1.5,1.4c-0.5,0.4-1.2,0.7-2,0.9
			c-0.5,0.2-1,0.2-1.6,0.1c-0.6-0.1-1.1-0.2-1.6-0.4c-1.1-0.5-2-1.2-2.7-2.1c-0.7-0.9-1-2-0.8-3.1c0.1-0.8,0.4-1.3,0.9-1.7
			c0.5-0.4,1-0.8,1.5-1.3l2.9-2.7c1.1-1.1,2.1-2.1,3-3.1c1-1,1.9-2,2.9-3.1c0.9-1.1,1.7-2.1,2.5-3.3c0.8-1.1,1.6-2.3,2.2-3.5
			c1-2.3,1.4-4,1.2-5s-0.7-1.6-1.6-1.7c-0.9-0.1-2.1,0-3.5,0.6c-1.4,0.5-2.9,1.2-4.5,2c-2.8,1.4-5.4,3-7.8,5.1
			c-2.4,2-4.6,4.2-6.5,6.6c-1.1,1.2-2,2.4-2.7,3.6c-0.8,1.3-1.4,2.6-1.9,4c-0.5,1.4-0.7,2.8-0.7,4.4c0,1.6,0.5,2.9,1.6,4
			c0.9,0.9,2.1,1.4,3.7,1.7c1.6,0.2,2.9,0.7,4,1.4c2.2,1.2,4,2.9,5.3,5.3c1.5,2.7,2.1,5.6,1.7,8.7c-0.4,3.1-1.3,6-2.5,8.7
			c-1.2,2.6-2.6,5.1-4.4,7.4c-1.8,2.4-3.8,4.5-6,6.5c-2.2,2-4.6,3.6-7.3,4.9c-2.7,1.3-5.4,2.1-8.3,2.5c-2.8,0.4-5.7,0.2-8.6-0.4
			c-2.9-0.7-5.5-1.9-7.7-3.6c-2.2-1.6-3.8-3.7-4.8-6.3c-1-2.6-1.5-5.2-1.4-7.9c0.2-3.1,1-6,2.3-8.8c1.3-2.8,3-5.3,4.9-7.7
			c1.6-2,3.7-3.9,6.2-5.6c1.2-0.8,2.3-1.3,3.5-1.7c1.2-0.3,2.5-0.1,3.8,0.7c1,0.5,1.8,1.2,2.4,2.2c0.6,1,0.7,2,0.2,3.1
			c-0.2,0.7-0.5,1.2-1,1.4c-0.5,0.3-1,0.6-1.4,0.9c-0.8,0.4-1.4,0.8-2,1.3c-0.6,0.5-1.2,1-1.7,1.4c-2.1,2-4,4.6-5.6,7.6
			s-2.2,6-1.8,9c0.3,1.7,0.9,3,1.8,3.9c0.9,0.9,2.2,1.5,3.8,1.9c1.4,0.3,2.9,0.3,4.4,0c1.5-0.3,2.9-0.7,4.3-1.3
			c2.8-1.3,5.3-3.1,7.7-5.3s4.2-4.6,5.8-7.2c1.3-1.9,2.3-4.1,3.2-6.5c0.9-2.4,1-4.7,0.3-6.9c-0.3-0.8-0.7-1.3-1.3-1.5
			c-0.6-0.2-1.3-0.5-2-0.7c-2.6-0.6-5-1.7-7.1-3.4c-2.1-1.7-3.7-3.8-4.6-6.4c-1.1-2.8-1.3-5.7-0.6-8.7c0.7-3,1.8-5.8,3.5-8.3
			c1.7-2.7,3.7-5.2,5.9-7.4c2.2-2.2,4.6-4.2,7.1-6.1c2.5-1.9,5.2-3.5,8.1-4.8c2.9-1.3,5.9-2.1,9.1-2.5c3.2-0.4,6.1,0,8.7,1.2
			C85.7,144.1,87.6,146.1,88.8,148.9z"/>
		<path class="st1" d="M76.9,228c-1.8,0.1-3.6-0.2-5.2-0.9c-1.6-0.7-2.9-1.9-3.8-3.5c-1.1-1.7-1.5-3.6-1.4-5.6s0.6-3.9,1.2-5.8
			c1.4-4.1,3.4-8,6.1-11.5c2.7-3.5,5.5-6.9,8.3-10.2c1.3-1.6,2.7-3.3,4.1-4.8c1.4-1.6,2.9-3.1,4.4-4.6c0.7-0.7,1.4-1.3,2.1-2
			c0.7-0.7,1.6-1.1,2.5-1.2c1.6,0,2.9,0.6,3.9,1.9c1,1.3,1.5,2.6,1.7,3.9c0,0.8-0.1,1.4-0.4,1.8c-0.2,0.4-0.6,0.9-1.1,1.5
			c-3.2,3.4-6.3,6.7-9.2,10c-3,3.3-5.8,6.7-8.4,10.4c-1.8,2.5-3.1,4.7-3.9,6.5c-0.8,1.8-1,3.1-0.7,3.9c0.3,0.8,1.1,0.9,2.5,0.3
			c1.4-0.6,3.3-2,5.9-4.3c1.3-1.3,2.9-2.7,4.6-4.4c1.7-1.7,4.2-4.2,7.6-7.6c0.7-0.7,1.3-1.4,2-2.1c0.6-0.7,1.4-1.3,2.2-1.7
			c1.5-0.6,3-0.4,4.3,0.7s1.8,2.3,1.5,4c-0.2,1-0.6,1.8-1.2,2.4c-0.6,0.6-1.3,1.3-2,2l-4.2,4.3c-1.4,1.4-2.7,2.7-4,4
			c-1.4,1.4-2.7,2.7-4.2,4c-2.9,2.8-5.5,4.9-7.9,6.4C82,227.1,79.5,227.9,76.9,228z M125.1,158.2c-0.3,1.1-1.1,1.9-2.4,2.5
			c-1.3,0.6-2.3,1.2-3.1,1.7l-15.6,9.1c-0.9,0.6-1.7,1.2-2.6,1.7s-1.8,0.6-2.9,0.1c-1.1-0.5-1.9-1.3-2.5-2.3
			c-0.6-1.1-0.8-2.1-0.7-3.2c0.2-0.5,0.5-0.9,0.8-1.3c0.3-0.4,0.7-0.7,1.1-1c4.1-3.1,7.6-5.6,10.3-7.4c2.7-1.9,5.4-3.6,7.9-5.1
			c0.7-0.4,1.3-0.8,2-1.2c0.6-0.4,1.3-0.7,2.1-0.9c1-0.2,2,0,3,0.7c1.1,0.8,1.8,1.8,2.3,3C125.3,155.7,125.4,156.9,125.1,158.2z"/>
		<path class="st1" d="M155.1,184.3c0,0.8-0.3,1.4-0.9,1.9c-0.6,0.5-1.1,1-1.6,1.4c-3.2,3.4-5.6,6-7.2,7.8c-1.6,1.8-3,3.5-4.3,4.9
			c-2.7,3.2-5.3,6.4-7.8,9.6c-2.5,3.2-5,6.5-7.5,9.8c-2.5,3.4-5,6.7-7.4,10.1c-2.4,3.4-4.8,6.7-7.1,10.1c-2.2,3.3-4.4,6.6-6.5,9.9
			c-2.1,3.3-4.1,6.7-6.1,10.2c-0.5,0.8-0.9,1.6-1.4,2.4c-0.4,0.8-0.8,1.6-1.2,2.4c-0.4,0.7-0.7,1.3-1,1.9s-0.8,1-1.4,1.3
			c-1.3,0.5-2.7,0.5-4,0.1c-1.3-0.4-2.4-1.2-3.2-2.4c-0.9-1.3-0.9-2.6-0.1-4c0.4-0.8,0.7-1.5,1.1-2.2c0.3-0.7,0.7-1.5,1.2-2.2
			c0.9-1.6,1.7-3.3,2.6-5c0.9-1.7,1.8-3.3,2.9-5c4.1-7,8.6-13.8,13.3-20.4c-1.9,0.8-3.9,1.2-5.9,1.2c-2,0-3.8-0.4-5.6-1.2
			c-2.1-1.1-3.6-2.7-4.3-5.1c-0.9-2.5-0.9-5-0.2-7.6c0.7-2.6,1.7-4.9,3-7.2c2.6-4.1,5.6-8,9-11.6c3.4-3.6,7-6.7,10.6-9.5
			c3.6-2.7,7.3-5,11.1-6.8c3.9-1.8,7.7-2.6,11.4-2.2c1.6,0.2,3.2,0.6,4.6,1.3c1.4,0.7,2.5,1.7,3.3,3c1.6-1.4,2.8-2.4,3.5-2.8
			c0.7-0.4,1.4-0.6,2.2-0.4c1.4,0.3,2.6,1.1,3.5,2.3C154.7,181.7,155.1,183,155.1,184.3z M122,192.9c-3.8,2.9-7.2,6-10.3,9.3
			c-3.1,3.3-5.9,6.7-8.2,10.4c-2.4,3.9-3,6-1.7,6.4s3.6-0.4,7.1-2.5c5.7-4,10.8-8.5,15.3-13.4c4.5-4.9,9-9.8,13.3-14.7
			c0.2-0.6,0.3-1.2,0.2-1.8c0-0.6-0.5-1-1.2-1.1c-1.2,0-2.4,0.2-3.6,0.7c-1.3,0.5-2.5,1.1-3.8,1.9c-1.3,0.8-2.6,1.6-3.8,2.5
			C124.1,191.4,123,192.2,122,192.9z"/>
		<path class="st1" d="M178.5,228c-1.7,0-3.4-0.4-5-1.1s-2.8-1.9-3.7-3.4c-0.5-0.8-0.8-1.5-0.9-2.3c-0.1-0.8-0.3-1.5-0.4-2.3
			c-2.2,1.9-4.8,3.8-7.7,5.6c-1.4,0.8-2.8,1.5-4.5,2.3c-1.6,0.8-3.4,1.2-5.3,1.2c-1.6,0-3.2-0.4-4.8-1.1c-1.5-0.7-2.7-1.8-3.6-3.3
			c-1.1-1.9-1.5-3.9-1.2-6c0.2-2.1,0.7-4,1.5-5.9c1-2.5,2.4-5.2,4.3-8c1.9-2.8,4-5.6,6.3-8.4c2.3-2.7,4.6-5.3,6.9-7.8
			c2.4-2.5,4.5-4.6,6.4-6.6c0.7-0.6,1.4-1.2,2.1-2s1.6-1.1,2.5-1.2c1.6,0,3,0.7,4,2c1.1,1.3,1.6,2.5,1.6,3.7c0,1.4-0.4,2.5-1.3,3.3
			c-3.2,3.5-6.3,6.8-9.5,10.1c-3.1,3.3-6.1,6.7-8.9,10.4c-0.9,1-1.7,2.1-2.6,3.3c-0.9,1.3-1.6,2.5-2.3,3.6c-0.7,1.2-1.2,2.2-1.4,3.1
			c-0.3,0.9-0.2,1.5,0.1,1.8s1.2,0.2,2.3-0.3c1.2-0.5,2.9-1.5,5.2-3.2c4.2-3.1,8.2-6.5,11.9-10.2c3.7-3.7,7.2-7.6,10.7-11.6
			l11.4-12.9c0.6-0.7,1.2-1.3,2-2c0.7-0.7,1.6-1.1,2.5-1.2c1.6,0,2.9,0.6,3.9,1.9c1,1.3,1.5,2.6,1.7,3.9c0,0.8-0.1,1.4-0.3,1.8
			s-0.6,0.9-1.2,1.5c-1.4,1.4-2.7,2.9-4.1,4.3c-1.4,1.4-2.8,2.9-4.1,4.6c-2.8,3.1-5.3,6-7.6,8.9c-2.3,2.8-4.1,5.8-5.6,8.9
			c-0.3,0.5-0.6,1.1-0.9,1.9c-0.3,0.8-0.5,1.5-0.6,2.2c-0.1,0.7,0,1.2,0.4,1.5c0.3,0.3,1,0.2,2.1-0.4c1.3-0.7,2.4-1.4,3.5-2.3
			c1.1-0.9,2.1-1.8,3.2-2.7l12.1-12.1c0.6-0.6,1.2-1.2,1.9-2s1.4-1.3,2.2-1.7c1.5-0.6,2.9-0.4,4.2,0.7s1.8,2.3,1.6,4
			c-0.2,1-0.6,1.8-1.2,2.4c-0.6,0.6-1.2,1.3-1.8,2c-2.2,2.2-4.3,4.3-6.3,6.4c-2,2-4,4-6.1,5.9c-1.1,1-2.2,2-3.3,3s-2.4,2-3.7,2.8
			s-2.7,1.6-4.1,2.2S180.2,228,178.5,228z"/>
		<path class="st1" d="M199.5,222.3c-1.8-2.5-2.7-5.3-2.6-8.3c0.1-3,0.7-5.9,1.9-8.7c1.2-2.6,2.6-5,4.2-7.3c1.6-2.3,3.4-4.4,5.4-6.4
			c2-2,4.1-3.8,6.3-5.4c2.2-1.6,4.4-3.1,6.6-4.5c1.6-1,3.6-1.9,5.9-2.7s4.7-1.4,7.1-1.7c2.4-0.3,4.6-0.1,6.7,0.4
			c2.1,0.6,3.7,1.8,4.8,3.8c1.1,1.7,1.3,3.6,0.7,5.5c-0.6,1.9-1.4,3.7-2.3,5.3c-2.1,3.4-4.8,6.4-8.1,9c-3.3,2.7-6.7,4.7-10.4,6.1
			c-2.8,1.1-5.6,1.7-8.5,2s-5.7-0.1-8.4-1.2c-0.6,1.1-1,2.1-1.4,3.1s-0.5,2-0.4,3c0.1,1,0.4,1.9,1,2.7c0.6,0.8,1.5,1.5,2.9,2
			c2.4,0.9,5.2,0.7,8.4-0.4c3.2-1.2,6.3-2.7,9.5-4.8c3.1-2,6-4.2,8.7-6.4c2.6-2.3,4.7-4.1,6.1-5.4c0.7-0.7,1.4-1.4,2.1-2.2
			c0.7-0.8,1.5-1.4,2.4-1.8c0.9-0.3,1.7-0.3,2.5-0.1c0.8,0.2,1.4,0.6,2,1.2s1,1.2,1.2,2c0.2,0.7,0.2,1.4-0.1,2.1
			c-0.3,0.9-0.8,1.7-1.7,2.5c-0.8,0.8-1.6,1.6-2.2,2.2c-3.7,3.5-6.5,6-8.5,7.6c-2,1.6-3.8,3-5.4,4.1c-2.4,1.7-5.3,3.4-8.6,5
			s-6.7,2.7-10.1,3.3c-3.4,0.6-6.7,0.6-9.9-0.1C204.3,227,201.6,225.2,199.5,222.3z M218.1,201c3.6-0.6,6.8-1.9,9.8-4
			c3-2.1,5.5-4.4,7.5-6.8c0.8-0.9,1.3-1.8,1.7-2.7c0.3-1,0.3-1.6-0.2-1.9c-2.5,0.7-4.9,1.6-7.1,2.9c-2.2,1.3-4.3,2.7-6.4,4.2
			c-3.5,2.5-6.5,5.3-9.1,8.4C215.5,201.1,216.8,201.1,218.1,201z"/>
		<path class="st1" d="M271.6,227.8c-2.2,0.1-4-0.3-5.4-1.2c-1.4-0.9-2.4-2.1-3-3.7c-0.6-1.5-0.8-3.2-0.7-5c0.1-1.8,0.6-3.5,1.4-5.1
			c1.6-3.8,3.9-7.1,6.7-10.1c2.8-3,5.7-5.9,8.5-8.8c0.4-0.4,1.1-1.1,2.2-2.1c1.1-1,2-2,2.9-3s1.4-1.8,1.6-2.4s-0.3-0.7-1.6-0.3
			c-2.2,0.8-4.4,1.7-6.5,2.9c-2.1,1.2-4.1,2.4-6.1,3.8c-2.2,1.6-4.4,3.3-6.6,5.1s-4.2,3.6-6.1,5.5c-1.2,1.1-2.4,2.4-3.8,4
			c-1.4,1.6-2.7,3.3-4,5c-1.4,1.7-2.7,3.5-4,5.3c-1.3,1.8-2.5,3.4-3.5,4.8c-0.5,0.6-0.9,1.2-1.2,1.9c-0.3,0.7-0.8,1.2-1.6,1.4
			c-1.4,0.5-2.9,0.3-4.5-0.4c-1.5-0.8-2.6-1.9-3-3.3c-0.3-0.8-0.3-1.5,0-2.2c0.3-0.7,0.6-1.3,1-1.9l3.3-5.6c1.3-2,2.6-4.1,4-6.2
			c1.4-2.1,3.1-4.4,5-6.9s4.1-5.2,6.6-8.3c2.6-3.1,5.6-6.6,9-10.6c0.4-0.4,0.8-0.8,1.2-1.2c0.4-0.4,0.9-0.7,1.4-0.9
			c1.6-0.6,3.2-0.2,4.6,1c1.4,1.3,2.2,2.7,2.4,4.3c2.4-1.6,4.9-3.1,7.5-4.3c2.6-1.2,5.4-2,8.5-2.5c2.2-0.3,4-0.1,5.2,0.4
			s2.3,1.4,3,2.5c0.9,1.2,1.3,2.4,1.4,3.6c0,1.3-0.1,2.5-0.5,3.7c-0.4,1.2-0.9,2.4-1.7,3.5c-0.7,1.1-1.4,2.1-2.1,3.1
			c-2.8,3.6-5.7,6.8-8.8,9.8c-3.1,2.9-5.9,6.1-8.5,9.5c-0.4,0.6-0.8,1.3-1.4,2.1c-0.5,0.8-0.9,1.6-1.2,2.2c-0.3,0.7-0.4,1.2-0.3,1.6
			c0.1,0.4,0.6,0.4,1.4,0c1.3-0.5,2.6-1.2,4-2.2c1.4-1,2.8-2,4.2-3.2s2.7-2.4,4-3.6c1.3-1.3,2.5-2.5,3.7-3.6l4.5-4.5
			c0.6-0.6,1.2-1.3,1.9-2c0.7-0.8,1.4-1.3,2.3-1.7c1.5-0.6,3-0.4,4.3,0.7c1.3,1,1.8,2.3,1.5,4c-0.2,1-0.6,1.8-1.2,2.4
			c-0.6,0.6-1.3,1.3-2,2l-4.3,4.5c-1.3,1.4-2.7,2.7-4.1,4s-2.8,2.6-4.3,3.8c-2.4,2.1-5,4-7.9,5.8
			C278.2,226.7,275.1,227.6,271.6,227.8z"/>
		<path class="st1" d="M329.1,211.5c-2.8,3.2-5.4,5.8-7.8,7.9c-2.4,2.1-4.9,3.9-7.4,5.2c-2.8,1.4-5.9,2.5-9.4,3.2
			c-3.5,0.7-6.6,0.2-9.4-1.4c-1.9-1.3-3.2-2.8-3.8-4.6c-0.6-1.8-0.9-3.7-0.8-5.6c0.1-2,0.5-3.9,1.2-5.9c0.7-2,1.4-3.7,2.2-5.3
			c2.7-5.2,6-10,9.8-14.5c3.9-4.4,8.2-7.9,13.2-10.4c2.8-1.6,5.9-2.7,9.3-3.1c3.4-0.4,6.5,0.1,9.3,1.5c1.8,1.2,3.1,2.7,3.8,4.5
			c0.7,1.8,0.9,3.7,0.8,5.7c-0.1,2-0.6,4-1.2,5.9c-0.7,2-1.4,3.7-2.2,5.1l-2.2,3.9c3.9-0.1,7.1-1.3,9.8-3.8c0.8-0.8,1.6-1.4,2.4-1.9
			c0.8-0.5,1.8-0.6,3-0.3c1.1,0.3,1.9,0.9,2.5,1.8c0.6,0.9,0.8,1.9,0.6,3c-0.2,1.2-0.8,2.1-1.8,3c-1,0.8-2,1.6-2.8,2.2
			c-3,2.2-6.1,3.6-9.4,4.1C335.4,212.4,332.2,212.3,329.1,211.5z M301,215.1c-0.6,1.9-0.7,3.2-0.2,3.8s1.1,0.8,2,0.7
			c0.9-0.1,2-0.6,3.1-1.2c1.2-0.7,2.2-1.3,3-1.9c2.2-1.5,4.2-3.2,6.1-5c1.8-1.8,3.6-3.6,5.2-5.6c-1.6-1.6-2.9-3.5-3.7-5.6
			c-0.8-2.1-1.3-4.2-1.5-6.4c-3,3.1-5.8,6.4-8.5,10C303.9,207.5,302,211.3,301,215.1z M324.1,186.9c-0.2,0.6-0.3,1.3-0.4,2.2
			c-0.1,0.9-0.1,1.9-0.1,3c0,1.1,0.1,2.2,0.4,3.4c0.3,1.2,0.7,2.2,1.3,3.2c1.3-1.6,2.2-3.2,2.8-4.7c0.6-1.5,1.1-2.9,1.5-4.3
			c0.3-1.3,0.3-2.2,0.1-2.9c-0.2-0.7-0.6-1.1-1.2-1.2s-1.3-0.1-2.1,0.1C325.6,186.1,324.9,186.5,324.1,186.9z"/>
		<path class="st1" d="M345.5,198.9c1.6-1.6,3.2-3.3,4.7-4.8c1.5-1.6,3-3.3,4.4-5c1.3-1.6,2.7-3.3,4-5.1c1.3-1.8,2.8-3.8,4.5-6.1
			c0.8-3.1,1.9-5.9,3.5-8.4c1.4-2.2,3.3-4.1,5.6-5.6c2.3-1.5,4.8-2.2,7.6-2.2c1.3,0,2.5,0.3,3.5,1c1,0.7,1.5,1.6,1.6,2.9
			c0,0.9-0.2,1.6-0.5,2.2c-0.3,0.6-0.8,1.1-1.4,1.5s-1.2,0.8-1.9,1.1c-0.7,0.3-1.3,0.6-1.9,1c-1.6,1.1-2.9,2.4-3.8,3.9
			c-0.9,1.5-1.6,3.1-2,4.8c-1,4-1.5,8.2-1.6,12.4c-0.1,4.2-0.4,8.4-0.9,12.5c-0.3,3.3-1.1,6.3-2.4,9.2c-1.3,2.8-3,5.3-5,7.4
			c-2,2.1-4.4,3.8-7.1,5c-2.7,1.2-5.7,1.7-9,1.5c-2.8-0.1-5.3-0.7-7.7-2c-2.3-1.2-4.2-2.7-5.7-4.6c-1.5-1.9-2.5-4-2.9-6.5
			s-0.2-5,0.8-7.6c0.4-1.2,1.1-1.9,2.2-2.3c1.1-0.4,2.2-0.5,3.2-0.2c1,0.2,1.9,0.8,2.5,1.6c0.7,0.8,0.8,1.8,0.4,3
			c-1,3.1-0.6,5.5,1.1,7.4c1.7,1.8,3.9,2.7,6.7,2.7c2.2,0,4.3-0.8,6.4-2.5c2-1.7,3.5-3.5,4.3-5.6c0.4-0.8,0.7-1.6,0.9-2.5
			c0.2-0.9,0.4-2,0.5-3.3c0.1-1.3,0.3-2.8,0.4-4.6c0.1-1.8,0.2-4,0.4-6.6c-1.7,2.1-3.4,4.1-5.1,5.9c-1.7,1.8-3.3,3.5-5,4.9
			c-1,0.9-2,1.2-3,0.9c-1-0.2-1.9-0.7-2.5-1.5c-0.7-0.8-1.1-1.7-1.2-2.8C344.2,200.8,344.6,199.8,345.5,198.9z"/>
	</g>
</g>
</svg>
