<?xml version="1.0" encoding="utf-8"?>
<!-- Generator: Adobe Illustrator 15.0.0, SVG Export Plug-In . SVG Version: 6.00 Build 0)  -->
<!DOCTYPE svg PUBLIC "-//W3C//DTD SVG 1.1//EN" "http://www.w3.org/Graphics/SVG/1.1/DTD/svg11.dtd">
<svg version="1.1" id="Layer_1" xmlns="http://www.w3.org/2000/svg" xmlns:xlink="http://www.w3.org/1999/xlink" x="0px" y="0px"
	 width="200px" height="200px" viewBox="0 0 200 200" enable-background="new 0 0 200 200" xml:space="preserve">
<g>
	<g>
		<path fill="#F37920" d="M54.544,78.197c1.06-0.611,1.852-1.253,2.372-1.925c0.521-0.672,0.781-1.253,0.781-1.742
			c0-1.262-0.289-2.343-0.868-3.239c-0.578-0.896-1.321-1.65-2.228-2.262c-0.907-0.611-1.891-1.09-2.952-1.436
			s-2.083-0.611-3.066-0.794c-0.984-0.184-1.843-0.295-2.576-0.336c-0.732-0.041-1.215-0.062-1.446-0.062
			c-3.742,0.122-7.1,0.571-10.069,1.345c-2.972,0.774-5.595,1.711-7.871,2.812c-2.276,1.1-4.225,2.292-5.844,3.575
			c-1.621,1.284-2.943,2.517-3.965,3.698c-1.022,1.183-1.766,2.241-2.229,3.178c-0.463,0.938-0.694,1.61-0.694,2.018
			c0,1.793,0.559,3.178,1.679,4.155c1.118,0.979,2.479,1.69,4.08,2.139c1.601,0.449,3.26,0.714,4.977,0.795
			c1.716,0.082,3.191,0.122,4.427,0.122c1.234,0,2.334-0.04,3.299-0.122c0.964-0.081,1.832-0.122,2.604-0.122
			c0.732,0,1.418,0.113,2.055,0.336c0.636,0.225,0.954,0.561,0.954,1.009c0,1.019-0.656,2.007-1.968,2.964
			c-1.312,0.958-2.971,1.864-4.977,2.72c-2.007,0.855-4.205,1.65-6.597,2.384c-2.393,0.732-4.697,1.365-6.916,1.895
			c-2.219,0.53-4.187,0.938-5.902,1.223c-1.717,0.284-2.884,0.428-3.502,0.428c-0.501,0-0.752-0.041-0.752-0.123
			c0-0.244,0.31-0.448,0.926-0.611c0.617-0.162,1.312-0.467,2.083-0.916c0.463-0.367,0.695-0.632,0.695-0.795
			c0-0.081-0.097-0.122-0.29-0.122c-0.077,0-0.153,0.011-0.231,0.031c-0.076,0.021-0.153,0.03-0.231,0.03
			c-0.116,0.041-0.211,0.061-0.289,0.061c-0.501,0.244-1.225,0.47-2.171,0.672c-0.944,0.205-1.918,0.389-2.922,0.551
			c-1.157,0.163-2.373,0.326-3.646,0.488c-0.501,0.042-0.839,0.144-1.012,0.307C0.087,102.685,0,102.868,0,103.07
			c0,0.897,0.357,1.713,1.07,2.445c0.715,0.733,1.572,1.354,2.575,1.864c1.004,0.509,2.075,0.896,3.212,1.161
			c1.139,0.265,2.151,0.397,3.038,0.397c2.122,0,4.398-0.205,6.829-0.611c2.431-0.408,4.841-0.969,7.234-1.681
			c2.392-0.714,4.696-1.559,6.915-2.537c2.218-0.977,4.176-2.066,5.874-3.269c1.697-1.202,3.047-2.496,4.051-3.882
			c1.003-1.384,1.505-2.83,1.505-4.339c0-1.181-0.31-2.169-0.926-2.964c-0.618-0.795-1.438-1.415-2.46-1.864
			c-1.022-0.448-2.18-0.773-3.473-0.979c-1.292-0.203-2.614-0.305-3.964-0.305c-0.926,0-2.074-0.02-3.443-0.062
			c-1.369-0.04-2.69-0.132-3.964-0.275c-1.273-0.142-2.363-0.346-3.27-0.61c-0.907-0.265-1.36-0.621-1.36-1.07
			c0-0.325,0.105-0.661,0.318-1.008c0.212-0.346,0.472-0.683,0.781-1.009c0.348-0.366,0.732-0.712,1.158-1.039
			c2.777-2.117,5.603-3.789,8.478-5.011c2.874-1.222,5.604-2.139,8.188-2.75c2.585-0.611,4.938-0.998,7.061-1.161
			c2.121-0.163,3.819-0.245,5.093-0.245c1.003,0,1.679,0.082,2.025,0.245c0.348,0.163,0.521,0.347,0.521,0.55
			c0,0.571-0.328,1.09-0.983,1.558c-0.656,0.469-1.486,0.897-2.488,1.283c-1.004,0.387-2.074,0.734-3.212,1.039
			c-1.139,0.305-2.209,0.601-3.212,0.886c-1.004,0.286-1.833,0.571-2.488,0.855c-0.657,0.286-0.984,0.571-0.984,0.855
			c0,0.205,0.183,0.367,0.55,0.489c0.366,0.122,0.811,0.516,1.331,0.577S42.631,81,43.172,81c0.54,0,0.983,0,1.331,0
			c2.314,0,4.302-0.516,5.96-0.944C52.122,79.628,53.481,78.809,54.544,78.197z"/>
		<path fill="#F37920" d="M58.971,81.008c0.153,0,0.703-0.101,1.649-0.305c0.944-0.204,2.025-0.551,3.24-1.039
			c1.216-0.489,2.421-1.171,3.617-2.048c1.195-0.876,2.121-1.986,2.778-3.331c0-0.123,0.019-0.265,0.058-0.428
			c0-0.123,0.009-0.265,0.028-0.428c0.02-0.162,0.029-0.346,0.029-0.55c0-0.284-0.039-0.631-0.115-1.039
			c-0.079-0.407-0.213-0.774-0.405-1.1c-0.194-0.326-0.444-0.611-0.753-0.855c-0.309-0.245-0.694-0.367-1.157-0.367
			c-0.193,0-0.386,0.061-0.579,0.183s-0.405,0.347-0.636,0.672c-0.426,0.856-0.984,1.753-1.679,2.69
			c-0.617,0.815-1.409,1.701-2.372,2.658c-0.966,0.958-2.162,1.885-3.589,2.78c-0.193,0.205-0.367,0.389-0.521,0.551
			c-0.116,0.163-0.223,0.326-0.318,0.488c-0.097,0.163-0.145,0.347-0.145,0.551s0.066,0.407,0.202,0.611
			C58.439,80.907,58.661,81.008,58.971,81.008z"/>
		<path fill="#F37920" d="M80.439,93.445c0.771-1.079,1.418-1.976,1.938-2.689c0.521-0.713,0.84-1.13,0.955-1.253
			c0.27-0.284,0.405-0.569,0.405-0.855c0-0.203-0.068-0.397-0.203-0.581c-0.135-0.183-0.28-0.376-0.434-0.58
			c-0.193-0.203-0.405-0.407-0.637-0.611c-0.271-0.244-0.56-0.366-0.868-0.366c-0.077,0-0.136-0.274-0.174-0.254
			C81.385,86.275,81.346,86,81.308,86H81.25c-0.193,0-0.454-0.305-0.781-0.509c-0.329-0.203-0.666-0.246-1.014-0.409
			c-0.425-0.162-0.849-0.232-1.272-0.355c-1.93,0.244-3.752,0.83-5.469,1.686c-1.718,0.854-3.299,1.882-4.745,3.043
			c-1.447,1.161-2.76,2.413-3.936,3.736c-0.012,0.014-0.023,0.031-0.035,0.044c-1.976,1.319-3.793,2.506-5.433,3.538
			c-2.354,1.467-4.592,2.812-6.713,4.034c-0.657,0.245-1.12,0.368-1.39,0.368c-0.463,0-0.694-0.223-0.694-0.672
			c0-0.285,0.077-0.631,0.231-1.039c0.077-0.162,0.154-0.325,0.231-0.488c0.386-1.223,1.021-2.516,1.91-3.881
			c0.887-1.364,1.794-2.638,2.72-3.819c1.08-1.346,2.257-2.71,3.53-4.096c0.27-0.284,0.405-0.509,0.405-0.672
			c0-0.081-0.021-0.153-0.058-0.214c-0.039-0.062-0.078-0.132-0.116-0.214c-0.077-0.04-0.136-0.081-0.174-0.122
			c-0.347-0.163-0.801-0.285-1.359-0.367c-0.56-0.081-0.976-0.122-1.244-0.122c-0.232,0-0.463,0.041-0.695,0.122
			c-0.23,0.082-0.443,0.163-0.636,0.244c-0.231,0.123-0.444,0.225-0.637,0.306c-0.193,0.082-0.55,0.419-1.071,1.009
			c-0.521,0.592-1.119,1.324-1.794,2.199c-0.675,0.878-1.379,1.855-2.112,2.935c-0.733,1.08-1.398,2.169-1.996,3.27
			c-0.599,1.101-1.091,2.149-1.476,3.147c-0.386,0.999-0.579,1.845-0.579,2.536c0,1.046,0.135,1.892,0.405,2.536
			c0.27,0.645,0.626,1.147,1.07,1.509c0.443,0.362,0.926,0.604,1.447,0.726c0.521,0.119,1.031,0.18,1.533,0.18
			c0.309,0,0.598-0.01,0.868-0.029c0.27-0.021,0.501-0.051,0.694-0.091c0.231-0.041,0.463-0.101,0.694-0.182
			c0.732-0.242,1.601-0.664,2.604-1.268c1.003-0.604,2.084-1.327,3.24-2.174c0.426-0.311,0.856-0.635,1.29-0.966
			c-0.087,0.282-0.133,0.51-0.133,0.676c0,0.938,0.28,1.793,0.839,2.566c0.56,0.774,1.36,1.161,2.401,1.161
			c0.887,0,1.881-0.336,2.98-1.008s2.15-1.415,3.154-2.231c1.118-0.937,2.257-2.016,3.415-3.238
			c0.308-0.326,0.521-0.489,0.636-0.489c0.038,0,0.02,0.071-0.058,0.214c-0.077,0.144-0.174,0.315-0.29,0.52
			c-0.154,0.204-0.328,0.449-0.521,0.733c-0.849,0.896-1.641,1.794-2.372,2.688c-0.657,0.774-1.322,1.58-1.997,2.415
			c-0.676,0.834-1.226,1.559-1.649,2.169c-0.463,0.651-1.109,1.498-1.938,2.537c-0.83,1.039-1.649,2.047-2.46,3.024
			c-0.964,1.141-1.967,2.343-3.009,3.606c-2.546,3.137-4.659,5.316-6.337,6.539c-1.679,1.223-2.711,1.834-3.097,1.834
			c-0.192,0-0.289-0.082-0.289-0.244c0-0.611,0.396-1.468,1.187-2.567c0.791-1.101,1.804-2.292,3.038-3.575
			c1.235-1.283,2.633-2.588,4.195-3.912c1.562-1.323,3.136-2.557,4.717-3.697c0.386-0.285,0.579-0.489,0.579-0.61
			c0-0.123-0.154-0.184-0.463-0.184c-0.617,0-1.427,0.203-2.431,0.611c-1.003,0.406-2.084,0.957-3.241,1.65
			c-1.157,0.691-2.323,1.485-3.501,2.383c-1.176,0.896-2.247,1.834-3.212,2.812c-0.964,0.978-1.745,1.956-2.344,2.934
			c-0.598,0.978-0.897,1.895-0.897,2.75c0,0.979,0.194,1.762,0.579,2.353c0.387,0.591,0.839,1.039,1.36,1.345
			c0.521,0.306,1.052,0.499,1.591,0.581c0.541,0.081,0.946,0.121,1.216,0.121c1.273-0.285,2.518-0.773,3.732-1.466
			c1.216-0.693,2.402-1.508,3.559-2.445c1.158-0.938,2.257-1.977,3.299-3.117s2.025-2.281,2.952-3.422
			c2.121-2.649,4.128-5.603,6.018-8.861c0.656-1.02,1.438-2.181,2.345-3.484c0.905-1.304,1.832-2.647,2.777-4.033
			c0.945-1.385,1.89-2.74,2.836-4.064C78.81,95.728,79.667,94.525,80.439,93.445z M73.697,94.423
			c-1.138,0.958-2.267,1.854-3.385,2.689c-1.12,0.836-2.162,1.538-3.126,2.108c-0.964,0.571-1.716,0.877-2.257,0.916
			c-0.154,0-0.23-0.061-0.23-0.183c0-0.203,0.221-0.601,0.665-1.191c0.442-0.591,1.031-1.273,1.765-2.048
			c0.732-0.772,1.601-1.609,2.604-2.505c1.003-0.896,2.063-1.752,3.183-2.568c1.118-0.813,2.267-1.527,3.443-2.139
			s2.306-1.039,3.386-1.283c0.153,0,0.231,0.041,0.231,0.122c0,0.122-0.3,0.499-0.897,1.131c-0.598,0.633-1.359,1.375-2.285,2.231
			C75.868,92.56,74.835,93.467,73.697,94.423z"/>
		<path fill="#F37920" d="M199.913,88.22c-0.059-0.122-0.126-0.224-0.203-0.306c-0.078-0.122-0.155-0.224-0.231-0.306
			c-0.232,0.205-0.473,0.388-0.724,0.551c-0.252,0.163-0.473,0.347-0.665,0.549c-1.157,0.938-2.19,1.743-3.097,2.415
			s-1.765,1.293-2.575,1.864c-0.811,0.57-1.64,1.121-2.488,1.649c-0.849,0.53-1.813,1.08-2.894,1.65
			c-0.231,0.122-0.386,0.184-0.463,0.184c-0.078,0-0.116-0.041-0.116-0.123c0-0.161,0.135-0.55,0.405-1.161
			c0.27-0.61,0.569-1.436,0.897-2.475c0.327-1.039,0.626-2.322,0.896-3.851c0.27-1.527,0.405-3.331,0.405-5.408
			c0-0.245-0.184-0.458-0.55-0.642c-0.367-0.184-0.781-0.346-1.244-0.489c-0.463-0.143-0.917-0.245-1.359-0.306
			c-0.445-0.062-0.724-0.092-0.84-0.092c-0.193,0-0.367,0.062-0.521,0.184c-0.155,0.122-0.31,0.265-0.463,0.428
			c-0.155,0.163-0.329,0.366-0.521,0.611c-1.312,1.06-2.471,2.047-3.474,2.964c-1.003,0.916-1.938,1.794-2.807,2.628
			c-0.867,0.836-1.735,1.619-2.604,2.354c-0.485,0.41-0.998,0.82-1.525,1.23c-0.186,0.118-0.368,0.241-0.558,0.357
			c-0.791,0.489-1.543,0.928-2.257,1.314c-0.715,0.388-1.389,0.703-2.025,0.947s-1.187,0.366-1.649,0.366
			c1.002-1.589,1.803-3.156,2.401-4.706c0.598-1.547,0.897-2.892,0.897-4.032c0-0.285-0.05-0.54-0.145-0.765
			c-0.098-0.224-0.203-0.437-0.319-0.642c-0.154-0.203-0.309-0.387-0.462-0.55c-0.31-0.326-0.589-0.54-0.84-0.642
			s-0.473-0.153-0.665-0.153c-0.426,0.041-0.704,0.144-0.839,0.306c-0.136,0.163-0.339,0.266-0.608,0.306
			c-0.309-0.04-0.491-0.152-0.55-0.336c-0.058-0.184-0.338-0.275-0.839-0.275c-2.393,0.938-4.543,2.17-6.452,3.698
			c-1.91,1.527-3.531,3.137-4.861,4.828c-0.862,1.095-1.593,2.18-2.196,3.258c-0.174,0.136-0.353,0.276-0.523,0.408
			c-1.447,1.121-2.798,2.119-4.052,2.995c-1.254,0.877-2.479,1.579-3.674,2.108c-1.042,0.489-1.736,0.733-2.083,0.733
			c-0.31,0-0.492-0.07-0.551-0.214c-0.058-0.143-0.086-0.254-0.086-0.336c0-0.896,0.134-1.701,0.404-2.415
			c0.27-0.712,0.753-1.547,1.447-2.505c0.694-0.957,1.639-2.108,2.835-3.453c1.195-1.345,2.721-3.116,4.572-5.317
			c0.154-0.203,0.231-0.428,0.231-0.672c0-0.162-0.029-0.295-0.087-0.397c-0.058-0.102-0.126-0.192-0.202-0.274
			c-0.115-0.082-0.213-0.163-0.29-0.245l-1.619-0.489c-0.117-0.08-0.29-0.122-0.521-0.122c-0.193,0-0.377,0.031-0.55,0.092
			c-0.174,0.062-0.339,0.133-0.492,0.214c-0.154,0.122-0.328,0.225-0.521,0.306c-1.62,1.427-3.414,2.902-5.383,4.432
			c-1.967,1.527-3.857,2.943-5.671,4.247l-0.289,0.184l-0.058-0.062c0-0.122,0.115-0.346,0.347-0.673
			c0.116-0.162,0.25-0.325,0.406-0.488l4.339-6.355c0.193-0.285,0.29-0.57,0.29-0.856c0-0.244-0.126-0.468-0.377-0.673
			c-0.251-0.203-0.53-0.366-0.839-0.488c-0.31-0.122-0.599-0.224-0.868-0.306c-0.27-0.081-0.443-0.122-0.521-0.122
			c-0.387,0-0.83,0.357-1.331,1.07c-0.502,0.713-1.052,1.589-1.649,2.628c-0.022,0.038-0.046,0.079-0.068,0.118
			c-0.261,0.198-0.519,0.394-0.771,0.584c-2.933,2.2-5.536,4.074-7.812,5.623c-2.276,1.548-4.351,2.821-6.221,3.819
			c-1.873,0.999-3.588,1.722-5.151,2.17c-1.562,0.449-3.096,0.672-4.6,0.672c-0.464-0.162-0.695-0.529-0.695-1.1
			c0-0.407,0.096-0.866,0.29-1.376c0.192-0.509,0.413-0.987,0.665-1.437c0.251-0.447,0.501-0.824,0.752-1.13
			s0.453-0.458,0.607-0.458c0.116,0,0.252,0.041,0.405,0.122c0.077,0.041,0.135,0.061,0.174,0.061
			c0.193,0.367,0.405,0.611,0.637,0.733c0.231,0.123,0.443,0.184,0.636,0.184c0.348,0,0.898-0.153,1.649-0.458
			c0.753-0.306,1.593-0.712,2.519-1.223c0.926-0.509,1.881-1.1,2.864-1.772c0.983-0.672,1.881-1.385,2.69-2.139
			c0.812-0.754,1.477-1.527,1.997-2.322c0.521-0.795,0.781-1.56,0.781-2.292c0-0.326-0.106-0.692-0.317-1.101
			c-0.214-0.406-0.492-0.784-0.84-1.13s-0.743-0.632-1.187-0.856c-0.444-0.224-0.917-0.336-1.417-0.336
			c-1.043,0-2.191,0.245-3.444,0.733c-1.253,0.489-2.518,1.152-3.791,1.986c-1.272,0.836-2.508,1.803-3.703,2.903
			c-0.261,0.24-0.513,0.485-0.761,0.733c-1.071,0.79-2.113,1.539-3.116,2.23c-2.277,1.568-4.283,2.924-6.019,4.064
			c-2.045,1.345-3.916,2.506-5.613,3.483c-0.463,0.244-0.772,0.367-0.926,0.367c-0.194,0-0.29-0.102-0.29-0.306
			c0-0.448,0.271-1.07,0.811-1.864c0.54-0.795,1.215-1.659,2.024-2.598c0.812-0.937,1.68-1.895,2.605-2.872
			c0.926-0.979,1.794-1.885,2.604-2.72c0.811-0.835,1.484-1.548,2.025-2.139s0.811-0.988,0.811-1.192
			c0-0.407-0.31-0.682-0.926-0.825c-0.617-0.143-1.235-0.214-1.852-0.214c-0.387,0-0.686,0.062-0.897,0.184
			c-0.213,0.122-0.376,0.244-0.491,0.366c-0.155,0.164-0.271,0.347-0.348,0.55c-0.464,0.571-1.226,1.336-2.286,2.292
			c-1.062,0.958-2.228,1.967-3.501,3.026c-1.272,1.06-2.565,2.098-3.877,3.116c-1.312,1.019-2.432,1.854-3.357,2.506
			c-0.463,0.326-0.839,0.541-1.128,0.642c-0.289,0.103-0.512,0.153-0.666,0.153c-0.231,0-0.347-0.123-0.347-0.367
			s0.058-0.489,0.174-0.733c0.076-0.162,0.153-0.306,0.231-0.428c0.616-1.1,1.321-2.118,2.112-3.056
			c0.79-0.938,1.542-1.763,2.257-2.475c0.713-0.713,1.311-1.335,1.794-1.864c0.482-0.529,0.724-0.957,0.724-1.284
			c0-0.528-0.175-0.947-0.521-1.253c-0.348-0.306-0.733-0.458-1.158-0.458c-0.541,0-1.331,0.418-2.372,1.253
			c-1.042,0.836-2.151,1.915-3.328,3.239c-1.178,1.324-2.325,2.791-3.443,4.4c-1.12,1.609-2.025,3.188-2.72,4.736
			c-0.27,0.571-0.482,1.142-0.637,1.711c-0.154,0.57-0.231,1.1-0.231,1.59c0,0.651,0.174,1.19,0.521,1.619
			c0.348,0.428,0.946,0.642,1.794,0.642c0.617,0,1.351-0.275,2.199-0.825s1.679-1.182,2.488-1.895
			c0.811-0.712,1.524-1.385,2.142-2.017c0.616-0.632,1.021-1.029,1.216-1.192c0.578-0.651,1.041-0.978,1.389-0.978
			c0.115,0,0.174,0.062,0.174,0.184c0,0.082-0.029,0.163-0.087,0.244c-0.059,0.082-0.126,0.205-0.203,0.366
			c-0.193,0.693-0.443,1.335-0.752,1.926c-0.31,0.592-0.463,1.171-0.463,1.742c0,0.938,0.164,1.711,0.492,2.321
			c0.326,0.611,0.818,0.917,1.476,0.917c0.309,0,0.598-0.01,0.867-0.03s0.501-0.052,0.695-0.091
			c0.231-0.042,0.463-0.104,0.694-0.185c0.732-0.244,1.601-0.672,2.604-1.283c1.002-0.611,2.082-1.345,3.24-2.2
			c1.157-0.855,2.343-1.782,3.559-2.78c1.013-0.831,1.999-1.671,2.971-2.517c-0.417,1.137-0.627,2.251-0.627,3.342
			c0,3.83,1.484,5.744,4.456,5.744c1.35,0,2.865-0.306,4.543-0.917c1.679-0.61,3.415-1.426,5.208-2.444
			c1.794-1.018,3.588-2.159,5.382-3.422s3.492-2.536,5.093-3.82c0.203-0.162,0.396-0.321,0.595-0.483
			c-0.45,0.627-0.994,1.307-1.636,2.042c-0.677,0.774-1.342,1.508-1.997,2.2c-0.733,0.815-1.504,1.631-2.314,2.444
			c-0.193,0.326-0.29,0.693-0.29,1.101c0,0.733,0.202,1.222,0.608,1.467c0.405,0.244,0.839,0.366,1.301,0.366
			c0.194,0,0.348-0.009,0.464-0.03c0.115-0.021,0.231-0.051,0.348-0.092c0.115-0.04,0.231-0.101,0.347-0.183
			c0.309-0.162,0.857-0.54,1.649-1.132c0.79-0.59,1.756-1.344,2.894-2.26c1.138-0.918,2.421-1.978,3.849-3.179
			c1.427-1.201,2.912-2.476,4.456-3.82c0.231-0.203,0.347-0.284,0.347-0.244c0,0.041-0.02,0.092-0.058,0.152
			c-0.039,0.062-0.078,0.133-0.116,0.214c-0.077,0.123-0.136,0.226-0.173,0.306l-2.489,3.606c-0.54,0.815-0.906,1.568-1.099,2.261
			c-0.193,0.693-0.289,1.264-0.289,1.711c0,1.061,0.134,1.916,0.404,2.567c0.27,0.651,0.627,1.161,1.071,1.528
			c0.442,0.366,0.925,0.611,1.446,0.733c0.521,0.122,1.031,0.184,1.533,0.184c0.617,0,1.409-0.245,2.373-0.733
			c0.964-0.489,2.006-1.131,3.125-1.926c1.118-0.794,2.296-1.711,3.53-2.75c0.161-0.135,0.318-0.271,0.479-0.408
			c-0.01,0.149-0.016,0.295-0.016,0.439c0,0.977,0.154,1.762,0.462,2.353c0.31,0.591,0.687,1.049,1.129,1.375
			c0.443,0.325,0.916,0.55,1.418,0.673c0.501,0.121,0.964,0.203,1.389,0.244c0.849,0,1.736-0.214,2.663-0.642
			c0.926-0.429,1.88-0.999,2.864-1.712c0.983-0.712,1.958-1.559,2.923-2.536c0.964-0.978,1.889-2.017,2.777-3.117
			c0.192,0.041,0.366,0.071,0.521,0.092c0.153,0.021,0.328,0.03,0.521,0.03c1.233,0,2.575-0.376,4.021-1.13
			c1.199-0.624,2.362-1.354,3.495-2.173c0.12-0.056,0.239-0.112,0.353-0.181c0.926-0.773,1.853-1.528,2.778-2.262
			c0.771-0.65,1.591-1.322,2.459-2.016c0.869-0.692,1.65-1.324,2.344-1.895c0.309-0.245,0.589-0.418,0.84-0.521
			c0.25-0.102,0.453-0.152,0.607-0.152c0.231,0,0.385,0.051,0.463,0.152c0.077,0.103,0.116,0.194,0.116,0.275
			c0,0.611-0.136,1.589-0.405,2.934c-0.271,1.345-0.694,2.7-1.273,4.064c-0.579,1.365-1.312,2.557-2.199,3.575
			c-0.888,1.019-1.93,1.528-3.124,1.528c-0.851,0-1.525-0.153-2.026-0.459c-0.502-0.306-0.889-0.661-1.157-1.069
			c-0.31-0.448-0.521-0.957-0.637-1.528c-0.386,0-0.686,0.072-0.896,0.214c-0.214,0.144-0.367,0.306-0.464,0.488
			c-0.096,0.185-0.164,0.439-0.202,0.765c0,2.241,0.452,3.952,1.359,5.135c0.906,1.18,2.267,1.771,4.08,1.771
			c1.08,0,2.382-0.397,3.906-1.191c1.523-0.795,3.115-1.793,4.775-2.995c1.657-1.201,3.327-2.495,5.006-3.881
			c1.678-1.385,3.191-2.679,4.542-3.881c1.351-1.201,2.46-2.209,3.328-3.025c0.868-0.814,1.36-1.222,1.476-1.222
			c0.347-0.326,0.521-0.692,0.521-1.101C200,88.485,199.97,88.342,199.913,88.22z M115.826,89.992c0.945-0.855,1.9-1.63,2.865-2.323
			c0.964-0.692,1.736-1.038,2.315-1.038c0.23,0,0.347,0.103,0.347,0.306c0,0.244-0.184,0.591-0.55,1.039
			c-0.367,0.448-0.83,0.938-1.389,1.467c-0.56,0.53-1.178,1.06-1.852,1.589c-0.676,0.529-1.342,1.019-1.997,1.467
			c-0.656,0.448-1.264,0.815-1.823,1.101s-0.975,0.427-1.244,0.427c-0.116,0-0.174-0.04-0.174-0.122
			c0-0.203,0.347-0.692,1.042-1.467C114.062,91.663,114.882,90.848,115.826,89.992z M160.618,97.662
			c-0.521,0.673-1.157,1.366-1.91,2.078c-0.752,0.713-1.543,1.335-2.372,1.864c-0.83,0.529-1.591,0.794-2.286,0.794
			c-0.193,0-0.289-0.162-0.289-0.488c0-0.081,0.086-0.428,0.261-1.039c0.173-0.611,0.472-1.376,0.896-2.292
			c0.424-0.917,0.983-1.925,1.679-3.025c0.693-1.101,1.542-2.14,2.546-3.117c0.038,0,0.125,0.153,0.261,0.458
			c0.135,0.307,0.308,0.674,0.521,1.101c0.212,0.428,0.443,0.856,0.694,1.283c0.251,0.428,0.53,0.765,0.84,1.009
			C161.419,96.531,161.139,96.989,160.618,97.662z M165.509,90.542c-0.348,0.693-0.724,1.313-1.128,1.864
			c-0.405,0.551-0.802,0.825-1.187,0.825c-0.117,0-0.29-0.184-0.521-0.551c-0.231-0.365-0.347-0.61-0.347-0.732
			c0-0.244,0.182-0.621,0.55-1.131c0.365-0.509,0.79-1.008,1.272-1.498c0.482-0.488,0.955-0.926,1.418-1.313
			c0.464-0.387,0.79-0.581,0.983-0.581c0.077,0,0.116,0.042,0.116,0.123c0,0.121-0.106,0.479-0.318,1.069
			C166.136,89.208,165.855,89.85,165.509,90.542z"/>
	</g>
	<g>
		<path fill="#FFFFFF" d="M70.213,115.969h2.562c1.116,0,2.231,0.284,3.085,1.091c0.854,0.808,1.424,2.137,1.424,4.129
			c0,1.994-0.569,3.298-1.424,4.105c-0.854,0.807-1.969,1.139-3.085,1.139v6.977h-2.562V115.969z M72.774,123.823
			c0.784,0,1.282-0.144,1.567-0.547c0.284-0.379,0.355-1.02,0.355-1.992c0-0.974-0.071-1.661-0.355-2.088
			c-0.285-0.428-0.783-0.617-1.567-0.617V123.823z"/>
		<path fill="#FFFFFF" d="M85.232,129.825c-0.023,0.712-0.166,1.354-0.427,1.899c-0.214,0.475-0.546,0.925-1.021,1.28
			c-0.475,0.38-1.115,0.594-1.97,0.594s-1.519-0.214-1.993-0.594c-0.475-0.355-0.783-0.806-0.997-1.28
			c-0.261-0.546-0.402-1.188-0.427-1.899v-10.273c0.024-0.688,0.166-1.329,0.427-1.875c0.214-0.475,0.522-0.949,0.997-1.305
			s1.139-0.594,1.993-0.594s1.495,0.238,1.97,0.594s0.807,0.83,1.021,1.305c0.261,0.546,0.403,1.187,0.427,1.875V129.825z
			 M82.67,119.552c0-0.475-0.095-0.807-0.333-1.092c-0.117-0.119-0.308-0.189-0.521-0.189c-0.451,0-0.664,0.332-0.759,0.641
			c-0.071,0.189-0.096,0.403-0.096,0.641v10.273c0,0.499,0.119,0.831,0.356,1.093c0.118,0.118,0.285,0.189,0.498,0.189
			c0.451,0,0.665-0.284,0.76-0.641c0.07-0.166,0.095-0.38,0.095-0.642V119.552z"/>
		<path fill="#FFFFFF" d="M89.669,124.321l-0.213-0.807h-0.144v9.895h-2.349v-17.44h2.278l2.492,9.088l0.213,0.808h0.143v-9.896
			h2.349v17.44H92.16L89.669,124.321z"/>
		<path fill="#FFFFFF" d="M95.435,118.603v-2.634h7.403v2.634h-2.42v14.807h-2.562v-14.807H95.435z"/>
		<path fill="#FFFFFF" d="M103.835,115.969h5.86v2.634h-3.298v4.58h2.373v2.8h-2.373v4.793h3.298v2.634h-5.86V115.969z"/>
		<path fill="#FFFFFF" d="M114.773,115.969h5.861v2.634h-3.299v4.58h2.373v2.8h-2.373v4.793h3.299v2.634h-5.861V115.969z"/>
		<path fill="#FFFFFF" d="M124.762,124.321l-0.213-0.807h-0.143v9.895h-2.349v-17.44h2.277l2.492,9.088l0.214,0.808h0.142v-9.896
			h2.35v17.44h-2.278L124.762,124.321z"/>
		<path fill="#FFFFFF" d="M141.752,127.43v2.396c-0.023,0.712-0.166,1.354-0.427,1.899c-0.214,0.475-0.546,0.925-1.021,1.28
			c-0.475,0.38-1.115,0.594-1.969,0.594c-0.854,0-1.52-0.214-1.994-0.594c-0.475-0.355-0.782-0.806-0.996-1.28
			c-0.262-0.546-0.403-1.188-0.428-1.899v-10.273c0.024-0.688,0.166-1.329,0.428-1.875c0.214-0.475,0.521-0.949,0.996-1.305
			s1.14-0.594,1.994-0.594c0.854,0,1.494,0.238,1.969,0.594s0.807,0.83,1.021,1.305c0.261,0.546,0.403,1.187,0.427,1.875v2.396
			h-2.396v-2.396c0-0.475-0.118-0.807-0.38-1.092c-0.118-0.119-0.332-0.189-0.594-0.189c-0.45,0-0.663,0.332-0.782,0.641
			c-0.071,0.189-0.095,0.403-0.118,0.641v10.273c0.023,0.499,0.165,0.831,0.402,1.093c0.119,0.118,0.285,0.189,0.498,0.189
			c0.547,0,0.761-0.284,0.879-0.641c0.071-0.166,0.095-0.38,0.095-0.642v-2.396H141.752z"/>
		<path fill="#FFFFFF" d="M149.962,129.825c-0.024,0.712-0.166,1.354-0.428,1.899c-0.213,0.475-0.546,0.925-1.021,1.28
			c-0.474,0.38-1.115,0.594-1.969,0.594c-0.854,0-1.519-0.214-1.993-0.594c-0.475-0.355-0.783-0.806-0.997-1.28
			c-0.261-0.546-0.403-1.188-0.427-1.899v-10.273c0.023-0.688,0.166-1.329,0.427-1.875c0.214-0.475,0.522-0.949,0.997-1.305
			s1.139-0.594,1.993-0.594c0.854,0,1.495,0.238,1.969,0.594c0.475,0.355,0.808,0.83,1.021,1.305
			c0.262,0.546,0.403,1.187,0.428,1.875V129.825z M147.398,119.552c0-0.475-0.095-0.807-0.332-1.092
			c-0.118-0.119-0.309-0.189-0.521-0.189c-0.45,0-0.664,0.332-0.759,0.641c-0.071,0.189-0.096,0.403-0.096,0.641v10.273
			c0,0.499,0.119,0.831,0.355,1.093c0.119,0.118,0.285,0.189,0.499,0.189c0.45,0,0.665-0.284,0.759-0.641
			c0.071-0.166,0.095-0.38,0.095-0.642V119.552z"/>
		<path fill="#FFFFFF" d="M154.398,124.321l-0.213-0.807h-0.144v9.895h-2.349v-17.44h2.278l2.491,9.088l0.213,0.808h0.143v-9.896
			h2.35v17.44h-2.278L154.398,124.321z"/>
		<path fill="#FFFFFF" d="M160.164,118.603v-2.634h7.403v2.634h-2.42v14.807h-2.562v-14.807H160.164z"/>
		<path fill="#FFFFFF" d="M167.331,133.409l2.634-17.44h3.132l2.634,17.44h-2.491l-0.475-3.56h-2.468l-0.475,3.56H167.331z
			 M171.673,121.64l-0.071-0.451h-0.143l-0.07,0.451l-0.736,5.505h1.757L171.673,121.64z"/>
		<path fill="#FFFFFF" d="M183.585,127.43v2.396c-0.024,0.712-0.167,1.354-0.428,1.899c-0.214,0.475-0.546,0.925-1.02,1.28
			c-0.475,0.38-1.115,0.594-1.97,0.594s-1.519-0.214-1.993-0.594c-0.475-0.355-0.783-0.806-0.997-1.28
			c-0.261-0.546-0.403-1.188-0.427-1.899v-10.273c0.023-0.688,0.166-1.329,0.427-1.875c0.214-0.475,0.522-0.949,0.997-1.305
			s1.139-0.594,1.993-0.594s1.495,0.238,1.97,0.594c0.474,0.355,0.806,0.83,1.02,1.305c0.261,0.546,0.403,1.187,0.428,1.875v2.396
			h-2.397v-2.396c0-0.475-0.118-0.807-0.379-1.092c-0.119-0.119-0.333-0.189-0.593-0.189c-0.452,0-0.665,0.332-0.783,0.641
			c-0.072,0.189-0.096,0.403-0.119,0.641v10.273c0.023,0.499,0.166,0.831,0.403,1.093c0.119,0.118,0.285,0.189,0.499,0.189
			c0.545,0,0.759-0.284,0.877-0.641c0.071-0.166,0.095-0.38,0.095-0.642v-2.396H183.585z"/>
		<path fill="#FFFFFF" d="M184.226,118.603v-2.634h7.402v2.634h-2.42v14.807h-2.562v-14.807H184.226z"/>
		<path fill="#FFFFFF" d="M199.293,129.825c-0.023,0.712-0.167,1.354-0.428,1.899c-0.213,0.475-0.545,0.925-1.02,1.28
			c-0.476,0.38-1.116,0.594-1.97,0.594c-0.854,0-1.519-0.214-1.994-0.594c-0.474-0.355-0.782-0.806-0.996-1.28
			c-0.261-0.546-0.402-1.188-0.428-1.899v-10.273c0.025-0.688,0.167-1.329,0.428-1.875c0.214-0.475,0.522-0.949,0.996-1.305
			c0.476-0.355,1.14-0.594,1.994-0.594c0.854,0,1.494,0.238,1.97,0.594c0.475,0.355,0.807,0.83,1.02,1.305
			c0.261,0.546,0.404,1.187,0.428,1.875V129.825z M196.729,119.552c0-0.475-0.095-0.807-0.332-1.092
			c-0.118-0.119-0.309-0.189-0.521-0.189c-0.451,0-0.665,0.332-0.76,0.641c-0.07,0.189-0.095,0.403-0.095,0.641v10.273
			c0,0.499,0.118,0.831,0.355,1.093c0.119,0.118,0.286,0.189,0.499,0.189c0.45,0,0.664-0.284,0.759-0.641
			c0.071-0.166,0.095-0.38,0.095-0.642V119.552z"/>
	</g>
</g>
</svg>
