<?xml version="1.0" encoding="utf-8"?>
<!-- Generator: Adobe Illustrator 19.2.1, SVG Export Plug-In . SVG Version: 6.00 Build 0)  -->
<svg version="1.1" id="Layer_1" xmlns="http://www.w3.org/2000/svg" xmlns:xlink="http://www.w3.org/1999/xlink" x="0px" y="0px"
	 viewBox="0 0 200 200" style="enable-background:new 0 0 200 200;" xml:space="preserve">
<style type="text/css">
	.st0{fill:#FFFFFF;}
</style>
<g>
	<path class="st0" d="M23.3,102c-0.6-1-1.3-1.8-2.3-2.3c-0.4-0.3-1-0.5-1.7-0.6c-0.7-0.1-1.2-0.3-1.6-0.7c-0.4-0.4-0.7-1-0.7-1.7
		s0.1-1.3,0.3-1.9c0.2-0.6,0.5-1.2,0.8-1.7c0.3-0.5,0.7-1,1.2-1.5c0.8-1,1.7-2,2.7-2.8c1-0.9,2.1-1.6,3.3-2.1
		c0.7-0.3,1.3-0.6,1.9-0.8c0.6-0.2,1.1-0.3,1.5-0.2c0.4,0.1,0.6,0.3,0.7,0.7c0.1,0.4-0.1,1.1-0.5,2.1c-0.3,0.5-0.6,1-0.9,1.5
		c-0.3,0.5-0.7,0.9-1.1,1.4c-0.4,0.4-0.8,0.9-1.2,1.3c-0.4,0.4-0.8,0.9-1.3,1.3l-1.2,1.2c-0.2,0.2-0.4,0.4-0.6,0.5
		c-0.2,0.2-0.4,0.4-0.4,0.7c-0.1,0.5,0,0.9,0.3,1.3c0.3,0.4,0.7,0.7,1.1,0.9c0.2,0.1,0.4,0.1,0.7,0.2c0.2,0,0.5,0,0.7-0.1
		c0.3-0.1,0.6-0.2,0.8-0.4c0.2-0.2,0.4-0.4,0.6-0.6c0.9-0.8,1.8-1.7,2.7-2.5c0.8-0.9,1.6-1.8,2.4-2.8c0.4-0.5,0.7-1,1.1-1.6
		c0.3-0.6,0.6-1.2,0.9-1.8c0.2-0.6,0.4-1.3,0.4-1.9c0-0.6-0.1-1.3-0.3-1.9c-0.5-1.2-1.3-2-2.4-2.5c-1.1-0.5-2.4-0.7-3.7-0.5
		c-1.3,0.2-2.6,0.5-3.8,1.1c-1.2,0.5-2.4,1.2-3.4,2c-1.1,0.8-2.1,1.6-3,2.6c-0.9,0.9-1.8,2-2.5,3.1c-0.7,1.1-1.2,2.2-1.5,3.5
		c-0.3,1.3-0.2,2.5,0.2,3.7c0.4,1.1,1.1,2,2,2.7c0.9,0.7,1.9,1.2,3,1.4c0.3,0.1,0.6,0.2,0.9,0.3c0.2,0.1,0.4,0.3,0.5,0.6
		c0.3,0.9,0.2,1.9-0.1,2.9c-0.4,1-0.8,1.9-1.3,2.7c-0.7,1.1-1.5,2.1-2.4,3s-2.1,1.7-3.2,2.2c-0.6,0.2-1.2,0.4-1.8,0.5
		c-0.6,0.1-1.3,0.1-1.9,0c-0.7-0.2-1.2-0.4-1.6-0.8c-0.4-0.4-0.6-0.9-0.8-1.6c-0.2-1.3,0.1-2.5,0.8-3.8c0.7-1.3,1.5-2.4,2.4-3.2
		c0.2-0.2,0.5-0.4,0.7-0.6c0.2-0.2,0.5-0.4,0.9-0.5c0.2-0.1,0.4-0.2,0.6-0.4c0.2-0.1,0.3-0.3,0.4-0.6c0.2-0.4,0.2-0.9-0.1-1.3
		c-0.3-0.4-0.6-0.7-1-0.9c-0.6-0.3-1.1-0.4-1.6-0.3c-0.5,0.1-1,0.4-1.5,0.7c-1.1,0.7-1.9,1.5-2.6,2.4c-0.8,1-1.5,2.1-2.1,3.2
		c-0.6,1.2-0.9,2.4-1,3.7c0,1.1,0.2,2.2,0.6,3.3c0.4,1.1,1.1,2,2,2.7c0.9,0.7,2,1.2,3.3,1.5c1.2,0.3,2.5,0.3,3.6,0.2
		c1.2-0.2,2.4-0.5,3.5-1.1c1.1-0.5,2.1-1.2,3.1-2.1c0.9-0.8,1.8-1.8,2.5-2.7c0.8-1,1.4-2,1.9-3.1c0.5-1.1,0.9-2.4,1.1-3.7
		C24.2,104.4,24,103.2,23.3,102z"/>
	<path class="st0" d="M121.9,94.7c0.2-0.2,0.5-0.3,0.8-0.4c0.3-0.1,0.5-0.3,0.8-0.5c0.2-0.2,0.4-0.4,0.6-0.6s0.2-0.5,0.2-0.9
		c0-0.5-0.3-0.9-0.7-1.2c-0.4-0.3-0.9-0.4-1.5-0.4c-1.2,0-2.2,0.3-3.2,0.9c-1,0.6-1.7,1.4-2.4,2.4c-0.7,1.1-1.1,2.2-1.5,3.5
		c-0.7,1-1.3,1.8-1.9,2.6c-0.6,0.8-1.1,1.5-1.7,2.2c-0.6,0.7-1.2,1.4-1.9,2.1c-0.6,0.7-1.3,1.4-2,2c-0.1,0.1-0.1,0.1-0.2,0.2
		c0,0,0,0-0.1,0.1c-0.3,0.3-0.6,0.6-0.8,0.9c-0.6,0.6-1.1,1.1-1.7,1.7c-0.2-0.2-0.4-0.3-0.7-0.3c-0.4-0.1-0.9-0.1-1.3,0.1
		c-0.5,0.2-0.8,0.5-0.9,1c-0.3,0.9-0.5,1.8-0.4,2.7c-0.9,0.9-1.9,1.6-2.9,2.1c-0.6,0.3-0.9,0.3-1,0c-0.1-0.3,0-0.8,0.2-1.3
		c0.2-0.5,0.5-1.1,0.8-1.7c0.3-0.6,0.6-1,0.7-1.3c0.9-1.3,1.9-2.6,3-3.9c1-1.3,2.2-2.6,3.4-4.1c0.4-0.4,0.5-1,0.2-1.5
		c-0.3-0.6-0.7-1-1.2-1.3c-0.6-0.3-1.2-0.5-1.7-0.5s-1.2-0.2-1.8-0.5l-0.7-0.3c0.2-0.4,0.4-0.7,0.5-1.1s0.2-0.8,0.1-1.2
		c-0.1-0.6-0.3-1.1-0.8-1.5c-0.4-0.4-1-0.6-1.6-0.5c-0.5,0-0.9,0.2-1.3,0.5c-0.3,0.3-0.6,0.6-0.8,1c-0.2,0.4-0.3,0.9-0.4,1.3
		c-0.1,0.5-0.1,0.9,0,1.3c-0.1,0.2-0.2,0.3-0.3,0.5c-0.1,0.1-0.3,0.3-0.3,0.5c-1.1,1.3-2.1,2.5-3.2,3.7c-1.1,1.2-2.2,2.4-3.5,3.6
		c0,0.1-0.1,0.1-0.1,0.2c0,0-0.1,0.1-0.1,0.1c-0.3,0.3-0.5,0.6-0.8,0.8l-5.1,5.1c-0.4,0.4-0.9,0.8-1.3,1.2c-0.4,0.4-0.9,0.7-1.5,1
		c-0.4,0.2-0.7,0.3-0.9,0.2c-0.1-0.1-0.2-0.4-0.2-0.6c0-0.3,0.1-0.6,0.2-0.9c0.1-0.3,0.2-0.6,0.4-0.8c0.6-1.3,1.4-2.6,2.4-3.8
		c1-1.2,2-2.5,3.2-3.8c0.6-0.7,1.1-1.3,1.7-1.9c0.6-0.6,1.2-1.2,1.7-1.8c0.2-0.2,0.4-0.5,0.5-0.6c0.1-0.2,0.1-0.4,0.1-0.8
		c-0.1-0.6-0.3-1.1-0.7-1.6c-0.4-0.5-1-0.8-1.6-0.8c-0.4,0-0.8,0.2-1.1,0.5s-0.6,0.6-0.8,0.9l-4.8,5.4c-1.5,1.7-3,3.3-4.5,4.9
		c-1.5,1.6-3.2,3-5,4.3c-1,0.7-1.7,1.1-2.2,1.3s-0.8,0.2-1,0.1s-0.2-0.4-0.1-0.8c0.1-0.4,0.3-0.8,0.6-1.3c0.3-0.5,0.6-1,1-1.5
		c0.4-0.5,0.7-1,1.1-1.4c1.2-1.5,2.4-3,3.8-4.4c1.3-1.4,2.7-2.8,4-4.3c0.4-0.4,0.5-0.8,0.5-1.4c0-0.5-0.2-1-0.7-1.6
		c-0.4-0.5-1-0.8-1.7-0.8c-0.4,0-0.8,0.2-1.1,0.5c-0.3,0.3-0.6,0.6-0.9,0.8c-0.8,0.8-1.7,1.7-2.7,2.8c-1,1-2,2.1-2.9,3.3
		c-0.5,0.6-0.9,1.2-1.4,1.7c0,0-0.1,0.1-0.1,0.1c-0.3,0.3-0.6,0.7-0.9,0.9c-2.2,2.1-4.1,3.7-5.7,4.8c-1.6,1.1-3.2,1.9-4.7,2.3
		c-0.4,0.1-1,0.2-1.7,0.4c-0.7,0.1-1.3,0-1.7-0.2c-0.6-0.3-0.9-0.8-0.9-1.4c0-0.6,0.1-1.2,0.2-1.7c0.2-0.7,0.5-1.3,0.9-1.9
		c0.4-0.6,0.8-1.2,1.2-1.7c1.1-1.5,2.4-2.8,3.7-4c0.2-0.2,0.5-0.4,1-0.9c0.5-0.4,1.1-0.8,1.6-1.2c0.6-0.4,1.2-0.7,1.7-1
		c0.6-0.3,1-0.3,1.2-0.2c0.1,0.1,0.1,0.2,0,0.5s-0.3,0.5-0.6,0.9c-0.3,0.3-0.6,0.7-1,1.1c-0.4,0.4-0.9,0.8-1.3,1.1
		c-0.2,0.2-0.4,0.3-0.6,0.5c-0.2,0.2-0.4,0.4-0.5,0.6c-0.2,0.3-0.2,0.6-0.2,0.9c0.1,0.3,0.2,0.6,0.3,0.9c0.2,0.4,0.5,0.7,0.8,0.9
		c0.3,0.3,0.7,0.4,1.1,0.5c0.4,0.1,0.9,0,1.2-0.3c0.4-0.3,0.7-0.6,1-0.8c0.4-0.4,0.7-0.7,1.1-1.1c0.3-0.4,0.7-0.8,1-1.3
		c0.3-0.4,0.6-0.8,0.8-1.2c0.3-0.4,0.5-0.9,0.6-1.4c0.2-0.5,0.3-1,0.3-1.5c0.1-0.5,0-1-0.2-1.5c-0.3-0.9-0.8-1.6-1.6-1.9
		c-0.8-0.3-1.6-0.5-2.5-0.6c-1.1-0.1-2.2,0.1-3.3,0.5c-1.1,0.4-2,1-2.9,1.5c-1.7,1.2-3.3,2.6-4.8,4.2c-0.9,1-1.7,2.1-2.4,3.2
		c-0.1,0.1-0.1,0.1-0.2,0.2c-0.3,0.3-0.5,0.6-0.8,0.8l-5.1,5.1c-0.4,0.4-0.9,0.8-1.3,1.2c-0.4,0.4-0.9,0.7-1.5,1
		c-0.4,0.2-0.7,0.3-0.9,0.2c-0.1-0.1-0.2-0.4-0.2-0.6c0-0.3,0.1-0.6,0.2-0.9c0.1-0.3,0.2-0.6,0.4-0.8c0.6-1.3,1.4-2.6,2.4-3.8
		c1-1.2,2-2.5,3.2-3.8c0.6-0.7,1.1-1.3,1.7-1.9c0.6-0.6,1.2-1.2,1.7-1.8c0.2-0.2,0.4-0.5,0.5-0.6c0.1-0.2,0.1-0.4,0.1-0.8
		c-0.1-0.6-0.3-1.1-0.7-1.6c-0.4-0.5-1-0.8-1.6-0.8c-0.4,0-0.8,0.2-1.1,0.5s-0.6,0.6-0.8,0.9l-4.8,5.4c-1.5,1.7-3,3.3-4.5,4.9
		c-1.5,1.6-3.2,3-5,4.3c-1,0.7-1.7,1.1-2.2,1.3s-0.8,0.2-1,0.1s-0.2-0.4-0.1-0.8c0.1-0.4,0.3-0.8,0.6-1.3c0.3-0.5,0.6-1,1-1.5
		c0.4-0.5,0.7-1,1.1-1.4c1.2-1.5,2.4-3,3.8-4.4c1.3-1.4,2.7-2.8,4-4.3c0.4-0.4,0.5-0.8,0.5-1.4c0-0.5-0.2-1-0.7-1.6
		c-0.4-0.5-1-0.8-1.7-0.8c-0.4,0-0.8,0.2-1.1,0.5c-0.3,0.3-0.6,0.6-0.9,0.8c-0.8,0.8-1.7,1.7-2.7,2.8c-1,1-2,2.1-2.9,3.3
		c-1,1.2-1.8,2.3-2.7,3.5c-0.8,1.2-1.4,2.3-1.8,3.4c-0.3,0.8-0.5,1.6-0.6,2.5c-0.1,0.9,0.1,1.7,0.5,2.5c0.4,0.6,0.9,1.1,1.5,1.4
		c0.7,0.3,1.3,0.5,2,0.5c0.8,0,1.6-0.2,2.3-0.5c0.7-0.3,1.3-0.7,1.9-1c1.2-0.8,2.3-1.6,3.2-2.4c0,0.3,0.1,0.7,0.2,1
		c0.1,0.3,0.2,0.7,0.4,1c0.4,0.7,0.9,1.1,1.6,1.4c0.7,0.3,1.4,0.5,2.1,0.5c0.7,0,1.3-0.1,2-0.4c0.6-0.2,1.2-0.5,1.7-0.9
		c0.5-0.4,1.1-0.8,1.6-1.2c0.5-0.4,1-0.8,1.4-1.3c0.4-0.4,0.8-0.8,1.2-1.1c0.1,0.7,0.3,1.4,0.6,2.1c0.7,1.3,1.8,2.2,3.1,2.5
		c1.3,0.3,2.7,0.3,4.2,0.1c1.5-0.3,2.9-0.8,4.3-1.4c1.4-0.7,2.6-1.3,3.6-2c0.2-0.1,0.3-0.2,0.4-0.3c0,0.7,0.2,1.4,0.5,2.1
		c0.4,0.6,0.9,1.1,1.5,1.4c0.7,0.3,1.3,0.5,2,0.5c0.8,0,1.6-0.2,2.3-0.5c0.7-0.3,1.3-0.7,1.9-1c1.2-0.8,2.3-1.6,3.2-2.4
		c0,0.3,0.1,0.7,0.2,1c0.1,0.3,0.2,0.7,0.4,1c0.4,0.7,0.9,1.1,1.6,1.4c0.7,0.3,1.4,0.5,2.1,0.5c0.7,0,1.3-0.1,2-0.4
		c0.6-0.2,1.2-0.5,1.7-0.9c0.5-0.4,1.1-0.8,1.6-1.2c0.5-0.4,1-0.8,1.4-1.3c0.9-0.8,1.8-1.6,2.6-2.5c0.8-0.9,1.7-1.8,2.7-2.7
		c0.2-0.2,0.4-0.5,0.7-0.7c0.2-0.1,0.3-0.3,0.5-0.4c0.2-0.3,0.5-0.5,0.7-0.8c0.9-0.9,1.6-1.7,2.2-2.3c0.6-0.7,1.1-1.2,1.5-1.7
		c0.4-0.5,0.8-0.9,1.1-1.3c0.3-0.4,0.6-0.8,0.9-1.1c0.2,0.2,0.5,0.3,0.8,0.5c0.3,0.2,0.6,0.3,0.9,0.4c-0.3,0.4-0.6,0.7-0.9,1.1
		c-0.3,0.4-0.5,0.7-0.8,1.1c-1,1.3-2,2.6-3,3.9c-1,1.3-1.6,2.8-2,4.4c-0.2,0.7-0.3,1.5-0.2,2.2c0.1,0.7,0.3,1.4,0.6,1.9
		c0.3,0.5,0.8,1,1.4,1.3c0.6,0.3,1.3,0.5,2.2,0.5c0.7,0,1.3-0.1,1.9-0.3c0.6-0.2,1.2-0.5,1.7-0.9c0.5-0.4,1.1-0.8,1.6-1.2
		c0.1-0.1,0.1-0.1,0.2-0.2c0.6,0.7,1.3,1.3,2.2,1.8c1,0.5,2.1,0.8,3.2,0.8c1.4,0.1,2.6-0.1,3.8-0.6c1.1-0.5,2.1-1.2,3-2.1
		c0.9-0.9,1.6-1.9,2.1-3.1c0.5-1.2,0.9-2.5,1-3.9c0.2-1.8,0.3-3.5,0.4-5.3c0-1.8,0.3-3.5,0.7-5.2c0.2-0.7,0.4-1.4,0.8-2
		C120.6,95.7,121.2,95.2,121.9,94.7z M114,107.3c0,0.8-0.1,1.4-0.2,1.9c-0.1,0.5-0.1,1-0.2,1.4c-0.1,0.4-0.2,0.7-0.4,1.1
		c-0.4,0.9-1,1.6-1.8,2.4c-0.9,0.7-1.8,1.1-2.7,1.1c-1.2,0-2.1-0.4-2.8-1.2c-0.1-0.1-0.2-0.2-0.3-0.4c0.1-0.1,0.3-0.3,0.5-0.5
		c0.4-0.4,0.9-0.9,1.4-1.4c0.5-0.5,1.2-1.2,1.9-1.9c0.2-0.3,0.5-0.6,0.8-0.8c0.1-0.1,0.2-0.2,0.2-0.3c0.5-0.5,1.1-1,1.6-1.6
		c0.7-0.8,1.4-1.6,2.2-2.5C114.1,105.6,114.1,106.5,114,107.3z"/>
	<path class="st0" d="M196.9,91.1c-0.4-0.3-0.9-0.4-1.5-0.4c-1.2,0-2.2,0.3-3.2,0.9c-1,0.6-1.7,1.4-2.4,2.4
		c-0.7,1.1-1.1,2.2-1.5,3.5c-0.7,1-1.3,1.8-1.9,2.6c-0.6,0.8-1.1,1.5-1.7,2.2c-0.6,0.7-1.2,1.4-1.9,2.1c-0.6,0.7-1.3,1.4-2,2
		c0,0-0.1,0.1-0.1,0.1c-0.1,0.1-0.2,0.1-0.3,0.2c-0.3,0.3-0.6,0.7-0.9,0.9c-0.4,0.4-1,0.9-1.6,1.4c-0.2-0.1-0.4-0.2-0.6-0.2
		c-0.4-0.1-0.9-0.1-1.3,0.1c-0.5,0.2-0.8,0.5-0.9,1c-0.2,0.6-0.3,1.2-0.4,1.8c-0.5,0.3-0.9,0.7-1.4,1c-1.3,0.9-2.7,1.5-4,2
		c-1.3,0.5-2.5,0.5-3.5,0.2c-0.6-0.2-1-0.5-1.2-0.8c-0.2-0.3-0.4-0.7-0.4-1.1c0-0.4,0-0.8,0.2-1.3c0.1-0.4,0.3-0.9,0.6-1.3
		c1.1,0.4,2.3,0.6,3.5,0.5s2.4-0.4,3.6-0.9c1.5-0.6,3-1.5,4.4-2.6c1.4-1.1,2.5-2.4,3.4-3.8c0.4-0.7,0.7-1.4,1-2.3s0.1-1.6-0.3-2.3
		c-0.5-0.8-1.2-1.3-2-1.6c-0.9-0.2-1.8-0.3-2.8-0.2s-2,0.4-3,0.7c-1,0.4-1.8,0.8-2.5,1.2c-0.9,0.6-1.9,1.2-2.8,1.9
		c-0.9,0.7-1.8,1.5-2.7,2.3c-0.8,0.8-1.6,1.7-2.3,2.7c-0.1,0.2-0.2,0.3-0.3,0.5c0,0-0.1,0-0.1,0.1c-0.3,0.3-0.5,0.5-0.8,0.8
		c-1.3,1.3-2.5,2.4-3.6,3.4c-1.2,1-2.2,1.8-3.2,2.4c-1,0.6-1.8,1.1-2.6,1.4c-0.8,0.3-1.3,0.3-1.7,0.2c-0.5-0.2-0.9-0.8-1-1.7
		s0.2-2.1,0.9-3.5c0.2-0.4,0.4-0.7,0.7-1.1c0.2-0.4,0.5-0.8,0.9-1.2c0.9-0.4,1.8-0.9,2.8-1.5c1-0.6,2-1.2,3-1.9c1-0.7,2-1.4,3-2.1
		c1-0.7,1.9-1.5,2.8-2.2c1.4-1.2,2.7-2.4,4-3.6c1.3-1.2,2.5-2.6,3.7-4c0.4-0.5,0.9-1.1,1.4-1.9c0.5-0.7,1-1.5,1.4-2.3
		c0.4-0.8,0.6-1.6,0.7-2.4c0.1-0.8-0.1-1.6-0.6-2.4c-0.4-0.7-1-1.2-1.7-1.4c-0.7-0.2-1.4-0.3-2.1-0.2c-0.8,0.1-1.5,0.3-2.3,0.5
		c-0.8,0.3-1.4,0.6-1.9,0.9c-1.5,0.9-3,1.9-4.3,3.1c-1.3,1.2-2.5,2.5-3.7,3.8c-1.1,1.2-2.3,2.6-3.5,4.2c-1.2,1.6-2.4,3.2-3.5,5
		c-1.1,1.8-2.2,3.5-3.1,5.4c-0.4,0.8-0.8,1.6-1.1,2.3c-0.1,0.1-0.2,0.1-0.2,0.2c-0.3,0.3-0.5,0.6-0.8,0.8l-5.1,5.1
		c-0.4,0.4-0.9,0.9-1.3,1.3c-0.4,0.4-0.9,0.7-1.5,1c-0.4,0.2-0.8,0.3-1,0.2c-0.2-0.1-0.3-0.3-0.3-0.5c0-0.2,0-0.5,0.1-0.9
		c0.1-0.4,0.3-0.7,0.5-1c0.6-1.2,1.4-2.3,2.2-3.5c0.9-1.1,2-2.5,3.3-4.1c0.6-0.7,1.2-1.3,1.8-1.9c0.6-0.6,1.2-1.2,1.8-1.8
		c0.4-0.4,0.6-1,0.5-1.6c0-0.6-0.3-1.1-0.7-1.6c-0.5-0.5-1-0.7-1.6-0.7c-0.3,0-0.7,0.2-1.1,0.5c-0.4,0.3-0.7,0.6-0.9,0.9
		c-0.8-1.1-2-1.7-3.6-1.8c-1.1-0.1-2.1,0.1-3.1,0.4c-1,0.3-2,0.8-2.9,1.3c-2.1,1.2-4,2.6-5.6,4.4c-1.7,1.8-3.2,3.6-4.5,5.6
		c-0.4,0.6-0.7,1.3-1.1,2.2c-0.4,0.9-0.6,1.8-0.7,2.7c-0.1,0.9,0,1.8,0.3,2.6c0.3,0.8,0.8,1.4,1.7,1.9c0.9,0.5,1.9,0.7,3,0.5
		s2-0.4,3-1c0.6-0.4,1.2-0.8,1.8-1.2c0.6-0.4,1.1-0.9,1.7-1.3c0.1,0.7,0.2,1.2,0.5,1.6c0.4,0.7,1,1.2,1.7,1.5
		c0.7,0.3,1.6,0.4,2.6,0.4c1.3-0.1,2.5-0.6,3.6-1.4s2-1.6,2.8-2.4c0.4-0.4,1-1,1.5-1.5c0,0.6,0.1,1.1,0.3,1.6c0.2,0.8,0.6,1.5,1.2,2
		c0.5,0.5,1.3,0.9,2.2,1.2c0.7,0.2,1.4,0.2,2.4,0.2c0.9,0,2-0.3,3.3-0.9c1.3-0.6,2.7-1.5,4.3-2.7c0.5-0.3,0.9-0.7,1.4-1.2
		c0.1,1,0.5,1.9,1.1,2.7c0.9,1.2,2,2,3.4,2.3c1.3,0.3,2.7,0.3,4.2,0c1.4-0.3,2.9-0.7,4.3-1.4c1.1-0.5,2.1-1.1,3-1.7
		c0.1,0.1,0.2,0.3,0.3,0.4c0.6,0.8,1.4,1.4,2.4,2c1,0.5,2.1,0.8,3.2,0.8c1.4,0.1,2.6-0.1,3.8-0.6c1.1-0.5,2.1-1.2,3-2.1
		c0.9-0.9,1.6-1.9,2.1-3.1c0.5-1.2,0.9-2.5,1-3.9c0.2-1.8,0.3-3.5,0.4-5.3c0-1.8,0.3-3.5,0.7-5.2c0.2-0.7,0.4-1.4,0.8-2
		c0.4-0.7,0.9-1.2,1.6-1.6c0.2-0.2,0.5-0.3,0.8-0.4c0.3-0.1,0.5-0.3,0.8-0.5c0.2-0.2,0.4-0.4,0.6-0.6s0.2-0.5,0.2-0.9
		C197.5,91.8,197.3,91.4,196.9,91.1z M157.4,97.8c0.8-1.1,1.6-2.1,2.4-3.2c1.2-1.5,2.5-3,3.8-4.4c1.4-1.4,2.8-2.6,4.4-3.8
		c0.2-0.2,0.5-0.3,0.9-0.5c0.4-0.2,0.7-0.4,1-0.5c0.3-0.1,0.5-0.2,0.7-0.2c0.2,0,0.2,0.2,0.1,0.5c-0.3,0.8-0.7,1.6-1.3,2.2
		c-0.5,0.7-1,1.4-1.6,2c-1.4,1.6-2.8,3.1-4.4,4.5c-1.5,1.4-3.2,2.8-4.8,4.1c-0.6,0.4-1.1,0.9-1.7,1.3c-0.6,0.4-1.1,0.8-1.7,1.2
		C155.9,100,156.6,98.9,157.4,97.8z M135.1,107.2c-1.5,1.7-3.1,3.4-4.8,5c-0.6,0.5-1.3,1.1-2.2,1.8c-0.8,0.7-1.7,1-2.7,1.1
		c-0.3,0-0.5-0.1-0.5-0.4c0-0.2,0-0.5,0.1-0.8c0.1-0.3,0.2-0.6,0.3-0.9c0.1-0.3,0.3-0.5,0.3-0.6c0.8-1.5,1.9-3.1,3.4-4.7
		s2.9-3,4.4-4.2c0.2-0.2,0.7-0.5,1.3-1c0.7-0.5,1.4-0.9,2.1-1.2c0.7-0.3,1.4-0.5,1.9-0.5s0.8,0.4,0.7,1.2
		C138,103.7,136.6,105.4,135.1,107.2z M171.2,103.7c0.9-0.7,1.8-1.2,2.7-1.8c0.9-0.5,1.9-0.9,3-1.2c0.2,0.1,0.2,0.4,0.1,0.8
		c-0.1,0.4-0.4,0.8-0.7,1.2c-0.9,1-1.9,2-3.2,2.9c-1.3,0.9-2.6,1.5-4.2,1.7c-0.6,0.1-1.1,0.1-1.6,0
		C168.5,106,169.7,104.8,171.2,103.7z M187.4,107.3c0,0.8-0.1,1.4-0.2,1.9c-0.1,0.5-0.1,1-0.2,1.4c-0.1,0.4-0.2,0.7-0.4,1.1
		c-0.4,0.9-1,1.6-1.8,2.4c-0.9,0.7-1.8,1.1-2.7,1.1c-1.2,0-2.1-0.4-2.8-1.2c-0.2-0.2-0.3-0.4-0.4-0.6c0.8-0.7,2-1.7,3.5-3.2
		c0.3-0.3,0.6-0.6,0.9-0.9c0.2-0.2,0.3-0.3,0.4-0.5c0.5-0.5,1.1-1,1.6-1.6c0.7-0.8,1.4-1.6,2.2-2.5
		C187.5,105.6,187.4,106.5,187.4,107.3z"/>
</g>
</svg>
