<?xml version="1.0" encoding="utf-8"?>
<!-- Generator: Adobe Illustrator 15.0.0, SVG Export Plug-In . SVG Version: 6.00 Build 0)  -->
<!DOCTYPE svg PUBLIC "-//W3C//DTD SVG 1.1//EN" "http://www.w3.org/Graphics/SVG/1.1/DTD/svg11.dtd">
<svg version="1.1" id="Layer_1" xmlns="http://www.w3.org/2000/svg" xmlns:xlink="http://www.w3.org/1999/xlink" x="0px" y="0px"
	 width="200px" height="200px" viewBox="0 0 200 200" enable-background="new 0 0 200 200" xml:space="preserve">
<g>
	<path fill="#EF8022" d="M47.051,90.266c0,0.362-0.204,0.792-0.611,1.29c-0.407,0.498-1.026,0.974-1.856,1.427
		c-0.831,0.452-1.895,0.837-3.192,1.154c-1.298,0.317-2.853,0.476-4.664,0.476c-0.271,0-0.619,0-1.042,0
		c-0.423,0-0.837-0.022-1.245-0.068c-0.407-0.045-0.755-0.113-1.041-0.203c-0.288-0.091-0.43-0.211-0.43-0.362
		c0-0.211,0.256-0.423,0.77-0.634c0.513-0.211,1.162-0.423,1.947-0.634c0.785-0.211,1.622-0.431,2.513-0.657
		c0.89-0.226,1.728-0.482,2.513-0.77c0.784-0.286,1.433-0.604,1.947-0.95c0.513-0.347,0.77-0.731,0.77-1.155
		c0-0.15-0.136-0.286-0.407-0.407c-0.272-0.12-0.8-0.181-1.585-0.181c-0.996,0-2.325,0.061-3.984,0.181
		c-1.661,0.121-3.502,0.407-5.524,0.86c-2.022,0.453-4.158,1.132-6.406,2.037c-2.249,0.906-4.46,2.144-6.633,3.713
		c-0.333,0.242-0.634,0.498-0.905,0.77c-0.242,0.242-0.446,0.491-0.611,0.747c-0.166,0.257-0.249,0.506-0.249,0.747
		c0,0.333,0.354,0.597,1.064,0.792c0.709,0.197,1.562,0.348,2.558,0.453c0.996,0.106,2.03,0.174,3.102,0.204
		c1.071,0.03,1.969,0.045,2.694,0.045c1.056,0,2.09,0.076,3.102,0.227c1.011,0.151,1.916,0.393,2.716,0.725
		c0.799,0.332,1.441,0.792,1.924,1.381c0.482,0.588,0.724,1.32,0.724,2.195c0,1.117-0.393,2.189-1.177,3.215
		c-0.786,1.026-1.842,1.985-3.169,2.875c-1.329,0.891-2.86,1.698-4.596,2.422c-1.736,0.725-3.539,1.351-5.41,1.879
		c-1.872,0.528-3.758,0.943-5.66,1.245s-3.683,0.453-5.342,0.453c-0.694,0-1.486-0.099-2.377-0.294
		c-0.89-0.197-1.728-0.483-2.513-0.86c-0.785-0.378-1.456-0.838-2.015-1.381c-0.558-0.544-0.837-1.146-0.837-1.812
		c0-0.15,0.068-0.286,0.204-0.407c0.136-0.12,0.4-0.196,0.792-0.227c0.996-0.12,1.947-0.241,2.852-0.362
		c0.785-0.12,1.547-0.256,2.287-0.407c0.74-0.15,1.306-0.316,1.698-0.498c0.061,0,0.136-0.015,0.227-0.045
		c0.061,0,0.121-0.008,0.181-0.022c0.061-0.016,0.121-0.023,0.181-0.023c0.151,0,0.227,0.03,0.227,0.091
		c0,0.121-0.181,0.317-0.543,0.589c-0.604,0.332-1.146,0.559-1.63,0.679c-0.482,0.121-0.724,0.271-0.724,0.453
		c0,0.061,0.196,0.091,0.588,0.091c0.483,0,1.396-0.105,2.739-0.317c1.343-0.211,2.882-0.513,4.618-0.905
		c1.735-0.393,3.539-0.86,5.41-1.403c1.872-0.544,3.592-1.133,5.162-1.767c1.569-0.634,2.867-1.305,3.894-2.015
		c1.026-0.709,1.54-1.44,1.54-2.195c0-0.332-0.249-0.581-0.747-0.747s-1.034-0.249-1.607-0.249c-0.604,0-1.283,0.03-2.037,0.09
		c-0.755,0.062-1.615,0.091-2.581,0.091c-0.966,0-2.121-0.029-3.463-0.091c-1.343-0.06-2.642-0.256-3.894-0.588
		c-1.253-0.332-2.317-0.86-3.192-1.585c-0.876-0.725-1.313-1.75-1.313-3.079c0-0.301,0.181-0.799,0.543-1.494
		c0.362-0.693,0.943-1.479,1.743-2.354c0.799-0.875,1.833-1.789,3.102-2.739c1.268-0.951,2.792-1.834,4.573-2.649
		c1.781-0.814,3.833-1.509,6.158-2.082c2.324-0.573,4.95-0.905,7.878-0.996c0.181,0,0.558,0.016,1.132,0.045
		c0.573,0.03,1.245,0.113,2.015,0.249s1.569,0.333,2.399,0.589c0.83,0.257,1.6,0.611,2.309,1.063
		c0.709,0.453,1.291,1.012,1.743,1.676C46.825,88.53,47.051,89.33,47.051,90.266z"/>
	<path fill="#EF8022" d="M63.396,100c0,0.302-0.136,0.573-0.408,0.814c-2.325,2.113-4.543,4.046-6.655,5.796
		c-0.906,0.755-1.834,1.502-2.785,2.241c-0.951,0.74-1.879,1.426-2.785,2.06c-0.905,0.634-1.75,1.178-2.535,1.63
		c-0.785,0.453-1.464,0.771-2.038,0.951c-0.181,0.061-0.362,0.105-0.543,0.136c-0.151,0.029-0.332,0.053-0.543,0.068
		c-0.211,0.015-0.438,0.022-0.679,0.022c-0.514,0-0.898-0.227-1.155-0.68c-0.256-0.452-0.385-1.025-0.385-1.72
		c0-0.423,0.121-0.853,0.362-1.291c0.241-0.437,0.437-0.912,0.588-1.426c0.061-0.12,0.113-0.211,0.159-0.271
		s0.068-0.121,0.068-0.182c0-0.091-0.045-0.136-0.136-0.136c-0.271,0-0.634,0.242-1.086,0.725c-0.152,0.121-0.469,0.415-0.951,0.883
		c-0.483,0.469-1.041,0.967-1.675,1.494c-0.634,0.528-1.284,0.996-1.947,1.403c-0.664,0.407-1.238,0.611-1.72,0.611
		c-0.664,0-1.132-0.158-1.404-0.476c-0.271-0.316-0.407-0.717-0.407-1.199c0-0.362,0.061-0.755,0.181-1.178
		c0.121-0.422,0.287-0.845,0.498-1.268c0.543-1.146,1.252-2.316,2.128-3.509c0.875-1.192,1.772-2.278,2.694-3.26
		c0.92-0.98,1.788-1.78,2.604-2.399c0.815-0.618,1.433-0.929,1.856-0.929c0.332,0,0.634,0.113,0.906,0.34
		c0.271,0.227,0.407,0.536,0.407,0.928c0,0.242-0.189,0.56-0.566,0.951c-0.377,0.393-0.845,0.854-1.403,1.381
		c-0.559,0.528-1.147,1.14-1.766,1.834s-1.17,1.448-1.652,2.264c-0.061,0.091-0.121,0.196-0.181,0.316
		c-0.09,0.182-0.136,0.362-0.136,0.544c0,0.181,0.09,0.271,0.271,0.271c0.121,0,0.294-0.037,0.521-0.113
		c0.226-0.075,0.521-0.233,0.883-0.476c0.724-0.482,1.6-1.102,2.626-1.856c1.026-0.754,2.037-1.523,3.033-2.309
		c0.996-0.784,1.909-1.531,2.739-2.241c0.83-0.709,1.426-1.274,1.789-1.698c0.06-0.15,0.15-0.286,0.271-0.407
		c0.091-0.091,0.219-0.181,0.385-0.271c0.166-0.091,0.4-0.136,0.702-0.136c0.482,0,0.965,0.053,1.449,0.158
		c0.482,0.106,0.724,0.31,0.724,0.611c0,0.151-0.211,0.445-0.634,0.883c-0.423,0.438-0.951,0.967-1.584,1.585
		c-0.634,0.619-1.313,1.29-2.038,2.015c-0.724,0.725-1.403,1.434-2.037,2.128c-0.634,0.694-1.163,1.336-1.585,1.924
		c-0.423,0.589-0.634,1.05-0.634,1.381c0,0.151,0.075,0.227,0.227,0.227c0.12,0,0.362-0.091,0.724-0.271
		c1.328-0.725,2.792-1.585,4.392-2.581c1.358-0.845,2.927-1.849,4.708-3.011c1.781-1.161,3.697-2.513,5.75-4.052
		c0.06,0.061,0.12,0.136,0.181,0.227c0.06,0.061,0.113,0.136,0.159,0.226C63.373,99.773,63.396,99.88,63.396,100z"/>
	<path fill="#EF8022" d="M80.374,100c0,0.302-0.136,0.573-0.408,0.814c-0.634,0.635-1.464,1.396-2.49,2.287
		c-1.026,0.891-2.166,1.811-3.418,2.762s-2.581,1.895-3.984,2.83c-1.404,0.936-2.807,1.781-4.211,2.535
		c-1.403,0.755-2.762,1.358-4.075,1.811c-1.313,0.453-2.498,0.68-3.554,0.68c-0.393,0-0.792-0.046-1.2-0.136
		c-0.408-0.091-0.785-0.271-1.132-0.544c-0.348-0.271-0.627-0.648-0.838-1.132c-0.211-0.482-0.317-1.116-0.317-1.901
		c0-1.207,0.264-2.361,0.792-3.464c0.528-1.102,1.237-2.135,2.128-3.101c0.89-0.966,1.894-1.834,3.011-2.604
		s2.264-1.434,3.441-1.992c1.177-0.559,2.332-0.988,3.464-1.291c1.132-0.301,2.15-0.452,3.056-0.452c0.724,0,1.275,0.09,1.652,0.271
		c0.377,0.181,0.657,0.393,0.838,0.634c0.21,0.271,0.332,0.574,0.362,0.905c0,0.483-0.174,1.004-0.521,1.562
		c-0.347,0.559-0.815,1.079-1.403,1.562c-0.589,0.483-1.298,0.883-2.128,1.2c-0.831,0.316-1.743,0.476-2.739,0.476
		c-0.212,0-0.46-0.03-0.747-0.091c-0.287-0.061-0.43-0.256-0.43-0.589c0-0.181,0.136-0.316,0.407-0.407
		c0.513-0.271,0.996-0.573,1.449-0.905c0.392-0.241,0.776-0.521,1.154-0.838c0.377-0.317,0.657-0.596,0.837-0.838l0.045-0.09
		c0-0.03,0.007-0.068,0.023-0.113c0.015-0.046,0.022-0.098,0.022-0.159c0-0.181-0.076-0.271-0.227-0.271
		c-1.419,0.212-2.777,0.74-4.075,1.585c-1.298,0.846-2.445,1.788-3.441,2.83c-0.996,1.041-1.796,2.075-2.399,3.101
		c-0.604,1.027-0.906,1.827-0.906,2.4c0,0.634,0.241,0.95,0.725,0.95c1.177,0,2.354-0.165,3.531-0.498
		c1.177-0.332,2.468-0.867,3.871-1.607c1.404-0.739,2.966-1.682,4.686-2.829c1.721-1.147,3.728-2.536,6.022-4.166
		c0.422-0.301,0.86-0.618,1.313-0.95c0.453-0.332,0.92-0.664,1.403-0.996c0.06,0.061,0.12,0.136,0.181,0.227
		c0.06,0.061,0.113,0.136,0.159,0.226C80.351,99.773,80.374,99.88,80.374,100z"/>
	<path fill="#EF8022" d="M98.937,100c0,0.302-0.136,0.573-0.408,0.814c-2.325,2.113-4.543,4.046-6.655,5.796
		c-0.906,0.755-1.834,1.502-2.785,2.241c-0.951,0.74-1.879,1.426-2.785,2.06c-0.905,0.634-1.75,1.178-2.535,1.63
		c-0.785,0.453-1.464,0.771-2.038,0.951c-0.181,0.061-0.362,0.105-0.543,0.136c-0.151,0.029-0.332,0.053-0.543,0.068
		c-0.211,0.015-0.438,0.022-0.679,0.022c-0.514,0-0.898-0.227-1.155-0.68c-0.256-0.452-0.385-1.025-0.385-1.72
		c0-0.423,0.121-0.853,0.362-1.291c0.241-0.437,0.437-0.912,0.588-1.426c0.061-0.12,0.113-0.211,0.159-0.271
		s0.068-0.121,0.068-0.182c0-0.091-0.045-0.136-0.136-0.136c-0.271,0-0.634,0.242-1.086,0.725c-0.152,0.121-0.469,0.415-0.951,0.883
		c-0.483,0.469-1.041,0.967-1.675,1.494c-0.634,0.528-1.284,0.996-1.947,1.403c-0.664,0.407-1.238,0.611-1.72,0.611
		c-0.664,0-1.132-0.158-1.404-0.476c-0.271-0.316-0.407-0.717-0.407-1.199c0-0.362,0.061-0.755,0.181-1.178
		c0.121-0.422,0.287-0.845,0.498-1.268c0.543-1.146,1.252-2.316,2.128-3.509c0.875-1.192,1.772-2.278,2.694-3.26
		c0.92-0.98,1.788-1.78,2.604-2.399c0.815-0.618,1.433-0.929,1.856-0.929c0.332,0,0.634,0.113,0.906,0.34
		c0.271,0.227,0.407,0.536,0.407,0.928c0,0.242-0.189,0.56-0.566,0.951c-0.377,0.393-0.845,0.854-1.403,1.381
		c-0.559,0.528-1.147,1.14-1.766,1.834s-1.17,1.448-1.652,2.264c-0.061,0.091-0.121,0.196-0.181,0.316
		c-0.09,0.182-0.136,0.362-0.136,0.544c0,0.181,0.09,0.271,0.271,0.271c0.121,0,0.294-0.037,0.521-0.113
		c0.226-0.075,0.521-0.233,0.883-0.476c0.724-0.482,1.6-1.102,2.626-1.856c1.026-0.754,2.037-1.523,3.033-2.309
		c0.996-0.784,1.909-1.531,2.739-2.241c0.83-0.709,1.426-1.274,1.789-1.698c0.06-0.15,0.15-0.286,0.271-0.407
		c0.091-0.091,0.219-0.181,0.385-0.271c0.166-0.091,0.4-0.136,0.702-0.136c0.482,0,0.965,0.053,1.449,0.158
		c0.482,0.106,0.724,0.31,0.724,0.611c0,0.151-0.211,0.445-0.634,0.883c-0.423,0.438-0.951,0.967-1.584,1.585
		c-0.634,0.619-1.313,1.29-2.038,2.015c-0.724,0.725-1.403,1.434-2.037,2.128c-0.634,0.694-1.163,1.336-1.585,1.924
		c-0.423,0.589-0.634,1.05-0.634,1.381c0,0.151,0.075,0.227,0.227,0.227c0.12,0,0.362-0.091,0.724-0.271
		c1.328-0.725,2.792-1.585,4.392-2.581c1.358-0.845,2.927-1.849,4.708-3.011c1.781-1.161,3.697-2.513,5.75-4.052
		c0.06,0.061,0.12,0.136,0.181,0.227c0.06,0.061,0.113,0.136,0.159,0.226C98.914,99.773,98.937,99.88,98.937,100z"/>
	<path fill="#EF8022" d="M116.865,100.181c0,0.182-0.348,0.649-1.041,1.404c-0.695,0.755-1.593,1.638-2.694,2.648
		c-1.103,1.012-2.34,2.083-3.713,3.215s-2.731,2.173-4.074,3.124c-1.344,0.95-2.611,1.735-3.804,2.354
		c-1.192,0.619-2.15,0.929-2.875,0.929c-0.333,0-0.687-0.038-1.064-0.113c-0.378-0.076-0.725-0.227-1.042-0.453
		c-0.317-0.226-0.574-0.55-0.77-0.973c-0.197-0.423-0.294-0.966-0.294-1.631c0-0.513,0.068-1.019,0.204-1.517
		s0.415-1.041,0.838-1.63c0.422-0.588,1.025-1.245,1.811-1.969c0.784-0.725,1.84-1.569,3.169-2.536c-0.212,0-0.498-0.029-0.86-0.09
		c-0.362-0.061-0.74-0.151-1.132-0.272c-0.393-0.12-0.755-0.264-1.086-0.43c-0.333-0.166-0.559-0.34-0.679-0.521
		c-0.453,0.423-1.034,0.936-1.743,1.539c-0.709,0.604-1.487,1.253-2.332,1.947c-0.151,0.121-0.438,0.233-0.86,0.339
		c-0.423,0.106-0.815,0.159-1.177,0.159c-0.242,0-0.438-0.023-0.588-0.068c-0.151-0.045-0.227-0.143-0.227-0.294
		c0-0.091,0.052-0.219,0.159-0.385c0.105-0.166,0.294-0.34,0.566-0.521c0.785-0.572,1.607-1.161,2.467-1.766
		c0.86-0.604,1.773-1.252,2.739-1.946c-0.815-0.544-1.351-1.057-1.607-1.54c-0.256-0.482-0.385-0.77-0.385-0.859
		c0-0.664,0.219-1.079,0.657-1.245c0.437-0.166,1.048-0.249,1.833-0.249c0.271,0,0.671,0.128,1.2,0.385
		c0.528,0.257,1.102,0.536,1.721,0.837c0.618,0.303,1.222,0.582,1.811,0.838c0.589,0.257,1.079,0.385,1.472,0.385
		c0.543,0,1.102-0.128,1.675-0.385c0.573-0.256,1.192-0.385,1.856-0.385c0.482,0,0.83,0.106,1.041,0.317
		c0.514,0.664,0.83,1.086,0.951,1.268c0.12,0.181,0.181,0.332,0.181,0.452c0,0.271-0.181,0.528-0.543,0.77
		c-0.091,0.091-0.378,0.295-0.86,0.611c-0.483,0.317-1.049,0.71-1.697,1.178c-0.649,0.468-1.336,0.981-2.061,1.539
		c-0.725,0.559-1.396,1.125-2.015,1.698c-0.619,0.573-1.132,1.132-1.54,1.675c-0.407,0.543-0.611,1.026-0.611,1.449
		c0,0.09,0.075,0.136,0.227,0.136c0.422,0,1.131-0.249,2.128-0.747c0.996-0.498,2.218-1.185,3.667-2.061
		c1.449-0.875,3.079-1.916,4.89-3.124c1.812-1.207,3.742-2.535,5.795-3.984c0.03,0,0.075,0.016,0.137,0.046
		C116.805,99.789,116.865,99.939,116.865,100.181z"/>
	<path fill="#EF8022" d="M132.35,100.725c0,0.302-0.137,0.573-0.408,0.814c-0.09,0-0.476,0.303-1.154,0.906s-1.547,1.351-2.604,2.24
		c-1.057,0.892-2.241,1.85-3.554,2.875c-1.313,1.027-2.619,1.985-3.917,2.875c-1.298,0.892-2.543,1.631-3.734,2.219
		c-1.193,0.589-2.212,0.883-3.057,0.883c-1.419,0-2.483-0.438-3.192-1.312s-1.063-2.143-1.063-3.804
		c0.029-0.241,0.083-0.43,0.158-0.565s0.196-0.256,0.362-0.362c0.166-0.105,0.399-0.158,0.702-0.158
		c0.09,0.423,0.256,0.8,0.498,1.132c0.211,0.302,0.513,0.565,0.905,0.792c0.392,0.227,0.92,0.34,1.585,0.34
		c0.935,0,1.75-0.377,2.444-1.132c0.694-0.754,1.268-1.638,1.721-2.648c0.453-1.012,0.784-2.016,0.996-3.012
		c0.211-0.996,0.317-1.72,0.317-2.173c0-0.061-0.031-0.128-0.091-0.204c-0.061-0.074-0.182-0.112-0.362-0.112
		c-0.121,0-0.279,0.038-0.476,0.112c-0.196,0.076-0.415,0.204-0.656,0.385c-0.544,0.424-1.154,0.892-1.834,1.404
		c-0.679,0.514-1.32,1.012-1.924,1.494c-0.725,0.543-1.449,1.102-2.174,1.675c-0.423,0.242-0.905,0.362-1.448,0.362
		c-0.242,0-0.438-0.061-0.589-0.181c-0.151-0.121-0.227-0.257-0.227-0.408c0-0.241,0.038-0.407,0.113-0.498
		c0.075-0.09,0.295-0.256,0.656-0.498c0.785-0.543,1.518-1.086,2.196-1.63c0.679-0.543,1.358-1.124,2.037-1.743
		c0.68-0.618,1.411-1.268,2.196-1.946c0.784-0.68,1.689-1.411,2.717-2.196c0.15-0.181,0.286-0.332,0.407-0.452
		c0.12-0.121,0.241-0.227,0.362-0.317c0.12-0.091,0.256-0.136,0.407-0.136c0.091,0,0.31,0.022,0.656,0.067
		c0.347,0.046,0.702,0.121,1.064,0.227c0.362,0.106,0.686,0.227,0.974,0.362c0.286,0.136,0.43,0.295,0.43,0.476
		c0,1.539-0.106,2.875-0.316,4.007c-0.212,1.132-0.446,2.083-0.702,2.853c-0.257,0.77-0.491,1.381-0.702,1.834
		c-0.211,0.452-0.316,0.739-0.316,0.859c0,0.062,0.029,0.091,0.09,0.091s0.182-0.045,0.362-0.136c0.845-0.422,1.6-0.83,2.264-1.223
		c0.664-0.392,1.313-0.799,1.947-1.223c0.634-0.422,1.306-0.883,2.015-1.381s1.517-1.094,2.423-1.788
		c0.15-0.15,0.323-0.286,0.521-0.407c0.195-0.12,0.385-0.256,0.565-0.407c0.061,0.061,0.12,0.136,0.182,0.226
		c0.06,0.062,0.113,0.137,0.158,0.227C132.326,100.498,132.35,100.604,132.35,100.725z"/>
	<path fill="#EF8022" d="M151.229,100c0,0.302-0.137,0.573-0.408,0.814c-2.687,2.354-5.177,4.468-7.471,6.339
		c-0.966,0.785-1.939,1.562-2.92,2.332c-0.981,0.77-1.895,1.448-2.739,2.037s-1.592,1.064-2.241,1.427s-1.125,0.543-1.426,0.543
		c-0.514,0-0.898-0.174-1.154-0.521c-0.257-0.347-0.385-1.003-0.385-1.97c0-0.211,0.015-0.468,0.045-0.77
		c0.029-0.302,0.067-0.596,0.113-0.883c0.045-0.287,0.091-0.544,0.136-0.77c0.045-0.227,0.067-0.385,0.067-0.476
		s-0.016-0.136-0.045-0.136c-0.061,0-0.151,0.061-0.271,0.181c-0.996,1.057-1.978,1.992-2.943,2.808
		c-0.845,0.694-1.728,1.335-2.648,1.924s-1.773,0.883-2.558,0.883c-0.362-0.091-0.694-0.242-0.996-0.452
		c-0.241-0.182-0.468-0.431-0.68-0.747c-0.211-0.317-0.316-0.763-0.316-1.336c0-0.604,0.271-1.381,0.814-2.332
		c0.544-0.95,1.268-1.954,2.174-3.011c0.905-1.056,1.938-2.12,3.101-3.191s2.369-2.038,3.622-2.898s2.506-1.554,3.759-2.082
		c1.252-0.528,2.406-0.793,3.463-0.793c0.332,0,0.604,0.121,0.815,0.362c0.211,0.242,0.392,0.528,0.543,0.86
		c0.061-0.06,0.15-0.136,0.271-0.227c0.091-0.06,0.188-0.113,0.295-0.158c0.105-0.045,0.218-0.068,0.339-0.068
		c0.151,0,0.272,0.039,0.362,0.113c0.091,0.076,0.227,0.22,0.408,0.431c0.15,0.03,0.323,0.129,0.521,0.294
		c0.195,0.166,0.294,0.37,0.294,0.611c0,0.121-0.038,0.271-0.113,0.453c-0.075,0.181-0.249,0.393-0.521,0.634
		c-1.057,1.298-1.97,2.399-2.739,3.305s-1.411,1.684-1.924,2.332c-0.514,0.649-0.898,1.2-1.155,1.652
		c-0.257,0.453-0.4,0.876-0.43,1.268c1.721-0.814,3.826-2.06,6.316-3.735c2.489-1.675,5.229-3.614,8.217-5.817
		c0.061,0.061,0.12,0.136,0.182,0.227c0.06,0.061,0.113,0.136,0.158,0.226C151.206,99.773,151.229,99.88,151.229,100z
		 M139.186,99.955c0-0.03-0.045-0.046-0.136-0.046c-0.604,0-1.306,0.189-2.105,0.566c-0.8,0.378-1.623,0.868-2.468,1.472
		s-1.668,1.26-2.467,1.969c-0.801,0.71-1.51,1.404-2.128,2.083c-0.619,0.679-1.125,1.29-1.517,1.834
		c-0.394,0.543-0.589,0.936-0.589,1.177c0,0.061,0.029,0.091,0.091,0.091c0.15,0,0.422-0.128,0.814-0.385
		c0.392-0.257,0.867-0.589,1.426-0.996c0.559-0.408,1.162-0.883,1.812-1.427c0.648-0.543,1.306-1.086,1.97-1.63
		c1.539-1.297,3.244-2.776,5.116-4.437C139.125,100.106,139.186,100.016,139.186,99.955z"/>
	<path fill="#EF8022" d="M169.294,87.097c0,0.241-0.061,0.482-0.182,0.724c-0.121,0.272-0.543,0.884-1.268,1.834
		c-0.725,0.951-1.826,2.166-3.305,3.645c-1.479,1.479-3.381,3.162-5.705,5.049s-5.132,3.887-8.421,5.999
		c-1.178,0.755-1.978,1.486-2.4,2.195c-0.423,0.71-0.634,1.366-0.634,1.97c0,0.574,0.075,0.951,0.227,1.132
		c0.151,0.182,0.332,0.271,0.544,0.271c0.422,0,0.996-0.15,1.72-0.452c0.725-0.302,1.54-0.702,2.445-1.2s1.871-1.071,2.897-1.721
		c1.025-0.648,2.037-1.305,3.033-1.969c2.324-1.569,4.829-3.351,7.517-5.343c0.06,0.061,0.12,0.136,0.181,0.227
		c0.061,0.061,0.113,0.136,0.158,0.226c0.046,0.091,0.068,0.197,0.068,0.317c0,0.302-0.136,0.573-0.407,0.814
		c-2.325,2.113-4.544,4.046-6.656,5.796c-0.905,0.755-1.833,1.502-2.784,2.241c-0.951,0.74-1.879,1.426-2.784,2.06
		c-0.906,0.634-1.751,1.178-2.536,1.63c-0.785,0.453-1.464,0.771-2.037,0.951c-0.181,0.061-0.362,0.105-0.543,0.136
		c-0.151,0.029-0.333,0.053-0.544,0.068c-0.211,0.015-0.438,0.022-0.679,0.022c-0.423,0-0.838-0.046-1.245-0.136
		c-0.407-0.091-0.785-0.311-1.132-0.657c-0.348-0.347-0.627-0.859-0.838-1.539c-0.211-0.679-0.316-1.622-0.316-2.83
		c0-0.482,0.195-1.245,0.588-2.286s0.996-2.248,1.812-3.622c0.814-1.373,1.841-2.853,3.079-4.437
		c1.237-1.585,2.686-3.154,4.346-4.709s3.547-3.033,5.66-4.438c2.112-1.403,4.467-2.618,7.062-3.645
		c0.15-0.029,0.287-0.06,0.407-0.09c0.121-0.03,0.257-0.061,0.408-0.091c0.15-0.03,0.301-0.046,0.452-0.046
		c0.271,0,0.521,0.099,0.747,0.295s0.415,0.415,0.566,0.656C168.977,86.447,169.143,86.765,169.294,87.097z M164.812,88.771
		c0-0.029-0.016-0.06-0.045-0.091c-0.062,0-0.212,0.062-0.453,0.182c-0.121,0.061-0.227,0.121-0.317,0.181
		c-0.785,0.514-1.735,1.245-2.852,2.196c-1.117,0.95-2.249,1.962-3.396,3.033c-1.147,1.072-2.218,2.136-3.214,3.192
		s-1.736,1.932-2.219,2.626c-0.121,0.151-0.182,0.271-0.182,0.362c0,0.061,0.03,0.09,0.091,0.09c0.271,0,0.77-0.271,1.494-0.814
		c0.725-0.544,1.555-1.229,2.49-2.061c0.936-0.829,1.909-1.743,2.92-2.739c1.012-0.996,1.939-1.924,2.785-2.784
		c0.845-0.86,1.539-1.607,2.082-2.241C164.54,89.27,164.812,88.893,164.812,88.771z"/>
	<path fill="#EF8022" d="M183.51,100c0,0.302-0.136,0.573-0.407,0.814c-0.634,0.635-1.464,1.396-2.49,2.287
		s-2.166,1.811-3.418,2.762c-1.253,0.951-2.581,1.895-3.984,2.83s-2.808,1.781-4.211,2.535c-1.403,0.755-2.762,1.358-4.074,1.811
		c-1.313,0.453-2.498,0.68-3.555,0.68c-2.324,0-3.486-1.419-3.486-4.256c0-0.936,0.219-1.895,0.657-2.875
		c0.437-0.98,1.019-1.939,1.742-2.875c0.725-0.936,1.555-1.812,2.49-2.626c0.936-0.815,1.902-1.532,2.898-2.151
		c0.996-0.618,1.984-1.108,2.965-1.471s1.879-0.544,2.694-0.544c0.392,0,0.762,0.084,1.109,0.249
		c0.347,0.167,0.656,0.378,0.928,0.634c0.271,0.257,0.49,0.536,0.656,0.838s0.249,0.574,0.249,0.815c0,0.543-0.203,1.108-0.61,1.697
		c-0.408,0.589-0.929,1.162-1.562,1.721s-1.336,1.087-2.105,1.585s-1.517,0.936-2.241,1.312c-0.725,0.378-1.381,0.68-1.97,0.905
		c-0.588,0.227-1.019,0.34-1.29,0.34c-0.151,0-0.316-0.045-0.498-0.136c-0.181-0.091-0.348-0.271-0.498-0.543
		c-0.03,0-0.075-0.016-0.136-0.046c-0.121-0.06-0.227-0.09-0.316-0.09c-0.121,0-0.28,0.113-0.476,0.339
		c-0.197,0.227-0.393,0.506-0.589,0.838c-0.196,0.333-0.37,0.687-0.521,1.064c-0.151,0.377-0.227,0.717-0.227,1.019
		c0,0.423,0.182,0.694,0.543,0.814c1.178,0,2.377-0.165,3.6-0.498c1.223-0.332,2.565-0.867,4.029-1.607
		c1.464-0.739,3.086-1.682,4.867-2.829s3.818-2.536,6.112-4.166c0.423-0.301,0.86-0.618,1.313-0.95
		c0.452-0.332,0.92-0.664,1.403-0.996c0.061,0.061,0.12,0.136,0.182,0.227c0.06,0.061,0.112,0.136,0.158,0.226
		C183.487,99.773,183.51,99.88,183.51,100z M171.286,99.457c0-0.151-0.091-0.227-0.272-0.227c-0.452,0-1.057,0.257-1.811,0.77
		c-0.755,0.514-1.502,1.087-2.241,1.721c-0.74,0.634-1.381,1.237-1.924,1.811c-0.544,0.574-0.815,0.937-0.815,1.087
		c0,0.061,0.045,0.091,0.136,0.091c0.211,0,0.535-0.105,0.974-0.317c0.438-0.211,0.912-0.482,1.426-0.814
		c0.513-0.332,1.034-0.694,1.562-1.087c0.527-0.392,1.011-0.784,1.448-1.178c0.438-0.392,0.8-0.754,1.087-1.086
		C171.142,99.895,171.286,99.638,171.286,99.457z"/>
	<path fill="#EF8022" d="M198.089,100.725c0,0.302-0.137,0.573-0.408,0.814c-0.09,0-0.476,0.303-1.154,0.906
		s-1.547,1.351-2.604,2.24c-1.057,0.892-2.241,1.85-3.554,2.875c-1.313,1.027-2.619,1.985-3.917,2.875
		c-1.298,0.892-2.543,1.631-3.734,2.219c-1.193,0.589-2.212,0.883-3.057,0.883c-1.419,0-2.483-0.438-3.192-1.312
		s-1.063-2.143-1.063-3.804c0.029-0.241,0.083-0.43,0.158-0.565s0.196-0.256,0.362-0.362c0.166-0.105,0.399-0.158,0.702-0.158
		c0.09,0.423,0.256,0.8,0.498,1.132c0.211,0.302,0.513,0.565,0.905,0.792c0.392,0.227,0.92,0.34,1.585,0.34
		c0.935,0,1.75-0.377,2.444-1.132c0.694-0.754,1.268-1.638,1.721-2.648c0.453-1.012,0.784-2.016,0.996-3.012
		c0.211-0.996,0.317-1.72,0.317-2.173c0-0.061-0.031-0.128-0.091-0.204c-0.061-0.074-0.182-0.112-0.362-0.112
		c-0.121,0-0.279,0.038-0.476,0.112c-0.196,0.076-0.415,0.204-0.656,0.385c-0.544,0.424-1.154,0.892-1.834,1.404
		c-0.679,0.514-1.32,1.012-1.924,1.494c-0.725,0.543-1.449,1.102-2.174,1.675c-0.423,0.242-0.905,0.362-1.448,0.362
		c-0.242,0-0.438-0.061-0.589-0.181c-0.151-0.121-0.227-0.257-0.227-0.408c0-0.241,0.038-0.407,0.113-0.498
		c0.075-0.09,0.295-0.256,0.656-0.498c0.785-0.543,1.518-1.086,2.196-1.63c0.679-0.543,1.358-1.124,2.037-1.743
		c0.68-0.618,1.411-1.268,2.196-1.946c0.784-0.68,1.689-1.411,2.717-2.196c0.15-0.181,0.286-0.332,0.407-0.452
		c0.12-0.121,0.241-0.227,0.362-0.317c0.12-0.091,0.256-0.136,0.407-0.136c0.091,0,0.31,0.022,0.656,0.067
		c0.347,0.046,0.702,0.121,1.064,0.227c0.362,0.106,0.686,0.227,0.974,0.362c0.286,0.136,0.43,0.295,0.43,0.476
		c0,1.539-0.106,2.875-0.316,4.007c-0.212,1.132-0.446,2.083-0.702,2.853c-0.257,0.77-0.491,1.381-0.702,1.834
		c-0.211,0.452-0.316,0.739-0.316,0.859c0,0.062,0.029,0.091,0.09,0.091s0.182-0.045,0.362-0.136c0.845-0.422,1.6-0.83,2.264-1.223
		c0.664-0.392,1.313-0.799,1.947-1.223c0.634-0.422,1.306-0.883,2.015-1.381s1.517-1.094,2.423-1.788
		c0.15-0.15,0.323-0.286,0.521-0.407c0.195-0.12,0.385-0.256,0.565-0.407c0.061,0.061,0.12,0.136,0.182,0.226
		c0.06,0.062,0.113,0.137,0.158,0.227C198.065,100.498,198.089,100.604,198.089,100.725z"/>
</g>
</svg>
