<?xml version="1.0" encoding="utf-8"?>
<!-- Generator: Adobe Illustrator 19.2.1, SVG Export Plug-In . SVG Version: 6.00 Build 0)  -->
<svg version="1.1" id="Capa_1" xmlns="http://www.w3.org/2000/svg" xmlns:xlink="http://www.w3.org/1999/xlink" x="0px" y="0px"
	 viewBox="0 0 400 400" style="enable-background:new 0 0 400 400;" xml:space="preserve">
<style type="text/css">
	.st0{fill:#F08100;}
	.st1{fill:#FFFFFF;}
</style>
<g>
	<g>
		<g>
			<g>
				<path d="M185.8,89.2c0.6,1.3,1.2,2.5,2.2,3.5c0.4,0.6,0.9,1,1.3,1.4c0.5,0.5,1,0.9,1.5,1.3c2,1.5,4.3,2.4,6.4,2.7
					c2.1,0.3,4.1,0.2,5.8-0.2c1.7-0.4,3.1-1,4.2-1.6c0.5-0.3,1-0.6,1.4-0.9c0.4-0.3,0.7-0.5,1-0.8c0.5-0.4,0.7-0.7,0.7-0.7l0,0
					c0,0,0.2-0.3,0.7-0.8c0.2-0.2,0.5-0.6,0.8-1c0.3-0.4,0.6-0.9,0.9-1.4c0.6-1.1,1.3-2.5,1.6-4.2c0.4-1.7,0.5-3.7,0.2-5.8
					c-0.4-2.1-1.2-4.4-2.8-6.5c-1.4-2-3.6-3.8-6.2-4.9c-1.3-0.6-2.7-0.9-4.1-1.1c-1.5-0.2-2.9-0.1-4.4,0.1c-1.5,0.3-3,0.7-4.3,1.4
					c-0.7,0.4-1.4,0.7-2,1.2c-0.3,0.2-0.7,0.5-0.9,0.7l-0.4,0.3l-0.2,0.2l-0.1,0.1l-0.2,0.2c-1,1.2-2,2.4-2.6,3.8
					c-0.7,1.4-1.1,2.9-1.4,4.3c-0.2,1.5-0.3,3-0.1,4.4C184.8,86.5,185.2,87.9,185.8,89.2z M192.9,88.9c-0.6,1.5-0.8,3-0.8,4.6
					c0,0,0,0,0,0.1c-0.3-0.2-0.5-0.4-0.7-0.7c0-2.7,0.9-5.2,2.8-7.9c1.7-2.5,2.4-4.3,2.4-6.7c1-0.2,2-0.3,3-0.3v18.4
					c-0.3,0-0.5,0-0.7-0.1v-5.2C196.6,90.9,194.6,90.1,192.9,88.9z M188.6,82.8c-0.2,0.2-0.5,0.4-0.7,0.6c-0.1,0.1-0.1,0.1-0.2,0.1
					c0-0.4,0.1-0.7,0.1-1c2.3-2,5-3.3,7.9-4c-0.1,2.1-0.7,3.7-2.2,6.1c-1.8,2.6-2.7,5-2.9,7.5c-0.2-0.3-0.5-0.6-0.7-0.9
					c0.2-1.3,0.6-2.6,1.2-3.9C190,85.9,189.1,84.4,188.6,82.8z M189.9,91.1c-0.3-0.5-0.7-1-0.9-1.6
					C189.3,90.1,189.6,90.6,189.9,91.1z M196.5,77.4c-0.1-1.6-1.1-3.2-2.7-4c1.7-1,3.6-1.6,5.7-1.6v5.3
					C198.6,77.2,197.5,77.3,196.5,77.4z M193,74c1.7,0.5,2.6,2.1,2.7,3.6c-2.8,0.6-5.4,1.8-7.7,3.6C188.8,78.2,190.6,75.7,193,74z
					 M206.5,84.5c-1.6-2.3-2.2-3.9-2.2-6.1c2.9,0.7,5.6,2,7.9,4c0,0.3,0.1,0.7,0.1,1.1c0,0-0.1,0-0.1-0.1c-0.3-0.2-0.5-0.5-0.8-0.7
					c-0.5,1.7-1.4,3.2-2.5,4.4c0.6,1.3,1,2.6,1.2,3.9c-0.2,0.3-0.4,0.6-0.7,0.9C209.2,89.5,208.3,87.1,206.5,84.5z M204.3,77.6
					c0.1-1.5,1-3.1,2.7-3.6c2.4,1.7,4.2,4.2,4.9,7.2C209.7,79.4,207.1,78.2,204.3,77.6z M203.5,77.4c-1-0.2-2-0.3-3-0.3v-5.3
					c2.1,0.1,4,0.7,5.7,1.6C204.5,74.2,203.6,75.9,203.5,77.4z M200.4,78c1,0,2,0.1,3,0.3c0,2.4,0.7,4.2,2.4,6.7
					c1.9,2.7,2.7,5.2,2.8,7.9c-0.2,0.2-0.5,0.5-0.7,0.7c0,0,0,0,0-0.1c0.1-1.6-0.2-3.1-0.8-4.6c-1.7,1.3-3.7,2.1-5.9,2.3v5.2
					c-0.2,0-0.5,0-0.7,0.1V78z"/>
				<polygon points="37.2,219.4 46.4,219.4 46.4,216.1 41.1,216.1 41.1,209.1 45.5,209.1 45.5,205.8 41.1,205.8 41.1,198.9 
					46.4,198.9 46.4,195.6 37.2,195.6 				"/>
				<path d="M56.3,207.4c-2-1.7-4.5-2.9-4.5-5V200c0-0.8,0.5-1.2,1.5-1.2c1,0,1.6,0.5,1.6,1.4v3.9h3.7v-3.9c0-2.9-1.9-4.8-5.3-4.8
					c-3.5,0-5.4,1.7-5.4,4.6v2.5c0,6.5,7,6.6,7,10.4v2.1c0,0.8-0.6,1.2-1.6,1.2c-1,0-1.7-0.5-1.7-1.4v-3.9h-3.7v3.9
					c0,2.9,1.9,4.8,5.4,4.8c3.5,0,5.5-1.8,5.5-4.7v-2.1C58.8,210.4,57.7,208.5,56.3,207.4z"/>
				<polygon points="60.2,198.9 63.2,198.9 63.2,219.4 67,219.4 67,198.9 70,198.9 70,195.6 60.2,195.6 				"/>
				<rect x="70.9" y="215.6" width="3.4" height="3.8"/>
				<path d="M320.6,196.6c-3.4,0-5.3,1.9-5.3,4.8v3.9h3.7v-3.9c-0.2-1.8,3.4-1.8,3.2,0v2.5c0,2-2.5,3.7-4.6,5.7
					c-1.4,1.3-2.5,3.4-2.5,5.7v5.3h10.9v-3.3h-7v-2.1c0-2.1,2.5-3.8,4.5-5.6c1.4-1.3,2.5-3.3,2.5-5.7v-2.5
					C326.1,198.5,324.1,196.6,320.6,196.6z"/>
				<path d="M333.8,196.6c-3.5,0-5.4,1.9-5.4,4.8V216c0,2.9,1.9,4.8,5.4,4.8c3.5,0,5.4-1.9,5.4-4.8v-14.7
					C339.2,198.5,337.3,196.6,333.8,196.6z M335.4,216c0.2,1.8-3.4,1.8-3.2,0v-14.7c-0.2-1.8,3.4-1.8,3.2,0V216z"/>
				<polygon points="347.8,196.8 341.4,196.8 341.4,200 343.9,200 343.9,217.3 341.4,217.3 341.4,220.5 350.4,220.5 350.4,217.3 
					347.8,217.3 				"/>
				<path d="M360.2,209.6c1.4-1.3,2.5-3.3,2.5-5.7v-2.5c0-2.9-1.9-4.8-5.4-4.8c-3.4,0-5.3,1.9-5.3,4.8v3.9h3.7v-3.9
					c-0.2-1.8,3.4-1.8,3.2,0v2.5c0,2-2.5,3.7-4.5,5.7c-1.4,1.3-2.5,3.4-2.5,5.7v5.3h10.9v-3.3h-7v-2.1
					C355.7,213.1,358.3,211.4,360.2,209.6z"/>
				<path d="M175.6,300c2.1,0,3.1-1.1,3.1-2.8V294c0-1.7-1.1-2.8-3.1-2.8h-3.3v14.3h2.3V300H175.6z M174.5,293.2h1
					c0.6,0,0.8,0.3,0.8,0.8v3.2c0,0.6-0.3,0.8-0.8,0.8h-1V293.2z"/>
				<rect x="180.1" y="291.2" width="2.3" height="14.3"/>
				<path d="M183.9,300.4v2.4c0,1.7,1.1,2.9,3.2,2.9c2.1,0,3.3-1.1,3.3-2.8v-1.3c0-1.4-0.7-2.5-1.5-3.2c-1.2-1-2.7-1.7-2.7-3v-1.5
					c0-0.5,0.3-0.7,0.9-0.7c0.6,0,1,0.3,1,0.8v2.4h2.2v-2.4c0-1.7-1.1-2.9-3.2-2.9c-2.1,0-3.2,1-3.2,2.7v1.5c0,3.9,4.2,3.9,4.2,6.2
					v1.3c0,0.5-0.4,0.7-1,0.7c-0.6,0-1-0.3-1-0.8v-2.4H183.9z"/>
				<polygon points="195.6,305.5 195.6,293.2 197.3,293.2 197.3,291.2 191.5,291.2 191.5,293.2 193.3,293.2 193.3,305.5 				"/>
				<path d="M205,302.7v-8.8c0-1.7-1.2-2.9-3.3-2.9c-2.1,0-3.3,1.1-3.3,2.9v8.8c0,1.7,1.2,2.9,3.3,2.9
					C203.8,305.6,205,304.5,205,302.7z M200.8,302.7v-8.8c-0.1-1.1,2-1.1,1.9,0v8.8C202.8,303.8,200.6,303.8,200.8,302.7z"/>
				<path d="M206.5,291.2v14.3h2.1v-4.2c0-1.2,0-2.4-0.1-3.7l2.2,7.9h2.4v-14.3h-2.1v4.2c0,1.1,0,2.3,0.1,3.6l-2.1-7.8H206.5z"/>
				<polygon points="220.3,293.2 220.3,291.2 214.9,291.2 214.9,305.5 220.3,305.5 220.3,303.5 217.2,303.5 217.2,299.3 
					219.8,299.3 219.8,297.3 217.2,297.3 217.2,293.2 				"/>
				<path d="M221.2,300.4v2.4c0,1.7,1.1,2.9,3.2,2.9c2.1,0,3.3-1.1,3.3-2.8v-1.3c0-1.4-0.6-2.5-1.5-3.2c-1.2-1-2.7-1.7-2.7-3v-1.5
					c0-0.5,0.3-0.7,0.9-0.7c0.6,0,1,0.3,1,0.8v2.4h2.2v-2.4c0-1.7-1.1-2.9-3.2-2.9c-2.1,0-3.2,1-3.2,2.7v1.5c0,3.9,4.2,3.9,4.2,6.2
					v1.3c0,0.5-0.4,0.7-1,0.7c-0.6,0-1-0.3-1-0.8v-2.4H221.2z"/>
				<path d="M218.1,323.9c-5.2-4-11.6-6.2-18.1-6.2h0c-2.4,0-4.8,0.3-7.1,0.9c-15.9,3.9-25.6,20-21.6,35.9
					c1.6,6.6,5.3,12.2,10.6,16.3c5.2,4,11.6,6.2,18.1,6.2c2.4,0,4.8-0.3,7.1-0.9c7.7-1.9,14.2-6.7,18.2-13.4
					c4.1-6.8,5.3-14.7,3.4-22.4C227.1,333.7,223.4,328,218.1,323.9z M218.9,328.3C218.9,328.4,218.9,328.4,218.9,328.3
					c0.2,0.2,0.3,0.4,0.5,0.5c-0.4-0.5-0.9-0.9-1.4-1.4C218.3,327.8,218.6,328,218.9,328.3z M201.8,335.2c-0.3-2.6-0.6-5-0.9-7.5
					c3.1-1.7,6.4-2.6,9.4-2.6c2.2,1,4.6,2.5,6.6,4.4c0.9,3.1,1.4,6.5,1.2,9.3c-2.3,0.7-5.8,2-7.2,2.5
					C207.8,338.6,204.4,336.6,201.8,335.2z M209.6,352.5c-2.8,1.8-6.4,3.7-9.7,5c-3.3-1.7-6.4-3.7-8.4-5.4c-0.4-3.9-0.2-8,0.5-11.1
					c2.9-1.7,5.6-3.1,9-4.5c0,0,0,0,0,0c2.6,1.4,6,3.4,9,6C210.1,346,210,349.2,209.6,352.5z M213.7,324.4c0,0,0.1,0.1,0.1,0.1
					c0.2,0.1,0.3,0.2,0.4,0.3c-0.4-0.2-0.8-0.5-1.2-0.7C213.3,324.1,213.5,324.2,213.7,324.4z M211.4,323.1c0.1,0,0.2,0.1,0.3,0.1
					c0.2,0.1,0.3,0.2,0.5,0.3c-0.4-0.2-0.8-0.4-1.2-0.6C211.1,323,211.3,323.1,211.4,323.1z M207.4,321.6c0.2,0.1,0.5,0.1,0.7,0.2
					c0.1,0,0.2,0.1,0.3,0.1c-0.5-0.2-1-0.3-1.4-0.4C207.1,321.5,207.2,321.6,207.4,321.6z M193.6,321.3c1.1-0.3,2.1-0.5,3.2-0.6
					c0.1,0,0.1,0,0.2,0c0.4-0.1,0.9-0.1,1.3-0.1c0.1,0,0.2,0,0.3,0c0.4,0,0.8,0,1.1,0c0.1,0,0.2,0,0.3,0c0,0,0.1,0,0.1,0
					c0.6,0,1.2,0,1.9,0.1c0.2,0,0.4,0,0.6,0.1c0.6,0.1,1.1,0.1,1.6,0.2c0.3,0,0.5,0.1,0.8,0.1c0.3,0.1,0.7,0.1,1,0.2
					c0.2,0,0.4,0.1,0.6,0.2c0.7,0.6,1.3,1.3,1.7,2.2c-3.4,0.3-6.3,1.6-8.5,2.8c-2.5-0.5-6.3-0.9-9.4-0.4c-0.6-1.1-1.2-2-1.8-2.9
					C190.1,322.4,191.8,321.8,193.6,321.3z M189.9,352.1c-2,1.3-5.2,3.6-6.5,4.5c-2.6-1.3-5.9-4.3-7.3-6.7c-0.4-2.7-0.1-5.7,0.4-7.9
					c0,0,0.1,0,0.1-0.1c2.2-2.4,5-4.4,7.9-5.9c0.6,0.5,1.2,1,1.8,1.5c1.4,1.1,2.8,2.2,4.2,3.4C189.7,344.1,189.6,348.2,189.9,352.1z
					 M187.2,323.8C187.2,323.8,187.2,323.8,187.2,323.8c0.6,0.9,1.2,1.9,1.8,2.9c-2.1,2-4.1,5.1-5.1,7.8c-2.8,1.4-5.4,3.2-7.6,5.4
					c-0.6-0.6-1-1.5-1.2-2.5C177.4,331.7,181.6,326.8,187.2,323.8z M185,369.5c-0.3-0.2-0.6-0.4-0.8-0.6c0,0,0,0,0,0
					c-3.9-2.9-7-6.8-8.9-11.5c-0.1-0.3-0.2-0.6-0.3-0.8c-0.2-0.6-0.4-1.3-0.6-1.9c0.3-1,0.8-1.8,1.5-2.5c1.9,2.3,4.8,4.8,7.1,6
					c0.8,2.5,2.3,5.9,4.1,8.2c-0.5,0.8-1,1.6-1.5,2.3L185,369.5z M204.1,373.8c-1.4,0.2-2.8,0.3-4.1,0.3c-4.5,0-8.8-1.1-12.6-3.2
					c0,0-0.1-0.1-0.1-0.1c-0.3-0.2-0.6-0.4-0.9-0.5l0.5-0.8c0.5-0.7,1-1.6,1.5-2.3c2.7,0.7,6,0.9,9.5,0.6c0,0,0,0,0,0
					c1.9,1.5,5,3.2,8,3.9C205.5,372.4,204.9,373.1,204.1,373.8z M207.5,370.4c-2.9-0.5-6.4-2.2-8.5-3.8c0.6-2.8,1.2-5.5,1.6-7.7
					c3.4-1.4,7-3.2,9.8-5.1c2,0.9,4.7,2.2,6.8,3.2c0.1,2.8-0.5,6.6-2,9.3C212.7,368.2,210,369.5,207.5,370.4z M219.3,365.9
					c-0.7,0.2-1.5,0.2-2.1,0.1c1.3-2.9,1.7-6.5,1.6-9.2c2.2-2.6,3.8-5.1,4.8-7.8l3.2,0.3c0,0,0,0,0,0
					C226.2,355.6,223.6,361.5,219.3,365.9z M226.8,347.8l-3.2-0.3c-1.1-3.1-2.1-5.5-4-8.3c0.2-3.4-0.4-6.7-1-9
					c0.7-0.1,1.4,0,2.2,0.4c0.7,0.9,1.4,1.8,2,2.7c0.1,0.1,0.1,0.2,0.2,0.3c0.4,0.6,0.7,1.2,1,1.8c0.1,0.1,0.1,0.3,0.2,0.4
					c0.2,0.3,0.3,0.7,0.5,1.1c0.1,0.4,0.3,0.7,0.4,1.1c0.1,0.4,0.3,0.8,0.4,1.2c0.1,0.3,0.2,0.7,0.3,1c0.1,0.2,0.1,0.4,0.2,0.6
					c0.6,2.2,0.8,4.5,0.8,6.7C226.8,347.7,226.8,347.7,226.8,347.8z"/>
				<polygon points="121.7,324.7 126.3,323.5 128.3,321.4 124.3,321.7 				"/>
				<path d="M117.2,338.2c1.6,0.1,3.2,0.2,3.8,0.2l-0.2-0.7c0,0-1.5-0.2-3.9-0.6L117.2,338.2z"/>
				<path d="M116.5,334.6l0.2,0.9c1.7,0.3,3.1,0.6,3.8,1c0,0-0.5-1.2-0.9-1.6C119.6,334.9,118.2,334.7,116.5,334.6z"/>
				<polygon points="119.1,332.3 121.2,329.6 117.7,330.6 				"/>
				<polygon points="118.1,329.1 123.1,327.3 125.5,324.8 121.2,325.6 				"/>
				<path d="M149.9,292.3c0.4,0.2,0.9,0.3,1.5,0.4l2.9-3l10.9-14.2l-4.1,3.3L149.9,292.3z"/>
				<polygon points="125.4,320.3 129.4,319.6 131.1,318 127.5,317.9 				"/>
				<polygon points="129,315.9 132.6,315.8 133.9,314.6 130.6,314.1 				"/>
				<path d="M136.7,306.7l-3.3,4.8l1.9,0.3l15.2-17.6c-0.5-0.2-1.1-0.3-1.6-0.5L136.7,306.7z"/>
				<polygon points="117.3,340.8 119.6,341.8 121,341.1 120.8,340.7 				"/>
				<path d="M118.3,333.9l-2.4-2.4c0,0-5.4-1.7-9,0l1.4,1.6C108.2,333.1,112,331.4,118.3,333.9z"/>
				<path d="M110.5,336.2l1.4,1.6c0,0,2,0.2,4.2,0.3L116,337C114.4,336.8,112.5,336.5,110.5,336.2z"/>
				<path d="M115.7,334.5c-2.5-0.2-5.3-0.4-6,0c0,0,3.2,0.4,6.1,0.9L115.7,334.5z"/>
				<polygon points="314.9,92.1 319.3,89.7 317.2,87.8 				"/>
				<polygon points="303.3,105.3 300.9,104.8 304.9,94.7 295.7,110.3 				"/>
				<path d="M313.3,99.8c0,0-19.7,15.1-23.5,15.8L308,84.6c0,0-21.4,27.5-25,36.6C283,121.1,293.2,122.4,313.3,99.8z"/>
				<polygon points="306.7,121.4 330.2,94.4 327.3,93.9 				"/>
				<path d="M277,119.1c0.9,0.2,1.8,0.3,2.6,0.5L299,91.6C299,91.6,288.9,103.9,277,119.1z"/>
				<path d="M338.4,95.2l0.3-0.4l0.1-0.1l0.1,0l0-0.1l0,0l0.1-0.7l0.1-0.9l0,0c0.5-7.1-2.8-14.5-9.1-19.7
					c-6.6-5.4-14.9-7.1-21.9-4.9l-0.5,0.1l-0.3,0.1l-0.5,0.6c-6.4,7.4-15,17.5-24.4,29c-11.2,13.6-23.6,29.2-35,44.8
					c-9.9-1.5-20.7-2.7-32.1-3.3c0.9-15.1,2.6-26,3.4-30.5c23.4,0.2,28.4,3.1,29.2,3.7c0.4,1,1.4,1.7,2.6,1.7c1.5,0,2.8-1.2,2.8-2.8
					V30.3c0-1.1-0.7-2.1-1.7-2.6c-10.3-4.3-39.5-4.7-51.5-4.7c-12,0-41.2,0.5-51.5,4.7c-1,0.4-1.7,1.5-1.7,2.6v81.3
					c0,1.5,1.2,2.8,2.8,2.8c1.2,0,2.2-0.7,2.6-1.7c0.8-0.6,5.8-3.5,29.2-3.7c0.8,4.4,2.5,15.2,3.4,30.2c-10.5,0.4-21.4,1.4-32.5,3.1
					c-11.3-15.3-23.5-30.7-34.6-44.2c-9.4-11.5-18-21.5-24.4-29l-0.5-0.6l-0.3-0.1L92,68.4c-7-2.2-15.4-0.5-21.9,4.9
					c-6.3,5.2-9.6,12.6-9.1,19.7l0,0l0.1,0.9l0.1,0.7l0,0l0,0.1l0.1,0l0.1,0.1l0.3,0.4c6,7.7,14.2,18.1,23.7,29.6
					c7.3,8.9,15.3,18.4,23.6,27.9c-0.4,0.1-0.8,0.2-1.1,0.4c-0.4,0.1-0.9,0.2-1.3,0.3c-5.9,2.3-11.7,4.9-17.6,7.7l15.8,13.8
					c0,0-4,13.4-6.1,20.3c11-4.7,24.2-8.5,38.9-11.4c4.8,4.9,9.6,9.5,14.1,13.7c-1.8,2-3.3,4.1-4.5,6.1c-0.6,1.1-1,2.3-1,3.5
					c0,0.1,0,0.2,0,0.3c0,1.2,0.4,2.4,1,3.5c2.3,4,6.3,8.4,11.3,12.5c7.8,6.3,17.3,10.7,27.7,12.8c0,0.1-0.1,0.1-0.1,0.2
					c-35.4-1.5-66.7-8.2-88.5-18.1l8,22.7l-17.2,14c0,0,4.7,2.2,13,5.2c12.3,3.9,32.7,9.4,58.1,12.7c-20.5,25.7-44.7,54-44.7,54
					c-3.7-1.1-6.3-1.7-9.7,0.6l-3.1,3.7c0.1,1.7,0.9,3.2,1.7,4.4l0,0c1.5,2.2,3.6,4.3,5.9,6.2c2.4,1.9,4.9,3.6,7.3,4.6
					c1.3,0.5,3,1.1,4.7,0.8l3.1-3.7c1.6-3.6,0.3-6.5-1.3-9.6c0,0,26.5-33.6,48.9-59.7c17.2,1.6,36.1,2,56.1,0.4
					c22.3,26,48.6,59.4,48.6,59.4c-1.6,3.1-2.8,6-1.3,9.6l3.1,3.7c1.6,0.2,3.3-0.3,4.7-0.8c2.4-1,4.9-2.7,7.3-4.6
					c2.3-1.9,4.5-4.1,5.9-6.2l0,0c0.8-1.2,1.6-2.7,1.7-4.4l-3.1-3.7c-3.4-2.3-6-1.7-9.7-0.6c0,0-23.9-28-44.3-53.6
					c16.5-2.1,33.5-5.8,50.6-11.5c0.4-0.1,0.9-0.2,1.3-0.3c5.9-2.3,11.7-4.9,17.6-7.7l-15.8-13.8c0,0,4-13.4,6.1-20.3
					c-21.9,9.3-52.4,15.5-86.8,16.8c0-0.1-0.1-0.1-0.1-0.2c10.3-2.1,19.9-6.4,27.7-12.8c5-4,9-8.5,11.3-12.5c0.6-1.1,1-2.3,1-3.5
					c0-0.1,0-0.2,0-0.3c0-1.2-0.4-2.4-1-3.5c-1.1-2-2.7-4-4.5-6.1c4.5-4.1,9.1-8.6,13.8-13.4c15.3,3.1,28.8,7.3,39.8,12.3l-8-22.7
					l17.2-14c0,0-4.7-2.2-13-5.2c-2.1-0.7-4.4-1.4-7-2.1c8.2-9.4,16.2-18.9,23.4-27.7C324.2,113.3,332.4,102.9,338.4,95.2z
					 M129.7,321.4c-4,4.9-7.2,8.9-9.2,11.4l-0.7,0.9l-0.1,0.1c4.1,4.4,1.4,9.6,1.4,9.6c-10.7-1.8-15.7-11.9-15.7-11.9
					c3.3-3.4,7.8-2,9.7-1l1-1.2c2.1-2.4,5.4-6.4,9.4-11.3c10.9-13.1,26.9-32.6,36.9-44.8c0.6,0.1,1.2,0.1,1.8,0.2l-0.2,0.1l-1.9,2.5
					l3.6-2.4c0.9,0.1,1.8,0.2,2.7,0.3C158.9,285.7,141.3,307.1,129.7,321.4z M234.7,273.9l3,2l-1.6-2.2c0.6-0.1,1.2-0.1,1.7-0.2
					c10.1,12.2,25.8,31.4,36.6,44.4c4,4.8,7.3,8.8,9.4,11.3l1,1.2c2-0.9,6.4-2.3,9.7,1c0,0-5.1,10.1-15.7,11.9c0,0-2.7-5.2,1.4-9.6
					l-0.1-0.1l-0.7-0.9c-2-2.5-5.2-6.5-9.2-11.4c-11.4-14.1-28.7-35.2-38.5-47.1C232.7,274.1,233.7,274,234.7,273.9z M249.3,181.8
					c0.9,0.1,1.8,0.3,2.7,0.4c-3.1,1.9-8.2,4.8-12.7,7c-0.6-0.4-1.2-0.9-1.9-1.3C241.9,186,245.9,183.9,249.3,181.8z M246.7,181.4
					c-4.1,2.8-7.5,5.1-9.5,6.3c-0.7-0.5-1.4-0.9-2.1-1.3c2.4-1.4,5.3-3.2,8.6-5.4C244.7,181.1,245.7,181.2,246.7,181.4z M229,179.3
					c1.3,0.1,2.5,0.2,3.8,0.4l-1.2,1.7c0,0,1-0.4,3.1-1.5c1.5,0.2,3,0.3,4.5,0.5c-2.8,1.7-5.4,3.1-7.7,4c-1.4-0.7-2.8-1.4-4.2-2
					C227.8,181.3,228.4,180.3,229,179.3z M223,178.9c-0.3,0.5-0.6,1-0.9,1.5c-2.3-0.8-4.7-1.4-7.1-1.9c0,0,0-0.1,0-0.1
					C217.7,178.5,220.4,178.7,223,178.9z M190,132.7c-0.2-5.3-0.5-10.5-0.8-14.8c3.7-0.1,11.2,0.2,21.5,3.4
					c-0.2,3.5-0.4,7.4-0.6,11.3c-0.1,2.2-0.2,4.5-0.2,6.6c-6.4-0.3-13-0.3-19.7-0.2C190.1,137,190.1,134.8,190,132.7z M212.4,139.4
					c-0.3,0-0.6,0-0.9,0c0.3-2.1,0.5-4.3,0.8-6.5c0.5-3.6,1-7.2,1.6-10.4C213.4,127.2,212.8,132.9,212.4,139.4z M242.1,105.8
					c-0.8-0.1-1.6-0.3-2.5-0.5V55.1c0.8,0.1,1.7,0.2,2.5,0.3V105.8z M250.7,46.7c0,3.6,0.1,7.8,0.1,12.3c0,4.5,0,9.3,0.1,14.1
					c0,4.8,0,9.6-0.1,14.1c0,4.5-0.1,8.7-0.1,12.3c-0.1,3.6-0.1,6.6-0.2,8.7c-0.1,2.1-0.1,3.3-0.1,3.3s0-1.2-0.1-3.3
					c0-2.1-0.1-5.1-0.2-8.7c0-3.6-0.1-7.8-0.1-12.3c0-4.5,0-9.3-0.1-14.1c0-4.8,0-9.6,0.1-14.1c0-4.5,0.1-8.7,0.1-12.3
					c0-3.6,0.1-6.6,0.2-8.7c0.1-2.1,0.1-3.3,0.1-3.3s0,1.2,0.1,3.3C250.6,40.1,250.7,43.1,250.7,46.7z M149.5,38.5
					C149.5,38.5,149.6,38.4,149.5,38.5l0.1-8.1c9.6-4,37.8-4.5,50.4-4.5c12.7,0,40.8,0.5,50.4,4.5v0.8c-0.7-0.2-1.5-0.4-2.5-0.6
					c-2.8-0.6-6.9-1.2-11.6-1.6c-9.6-0.9-22.3-1.1-35-0.9c-12.7,0.2-25.4,1-34.9,2.2c-4.7,0.6-8.7,1.3-11.4,2.1
					c-1.3,0.4-2.4,0.8-3.1,1.1c-0.7,0.3-1,0.5-1,0.5V38c0.5-0.2,1-0.3,1.7-0.5c1-0.3,2.1-0.5,3.4-0.8V33c0.4-0.1,0.8-0.1,1.2-0.2
					v3.6c0.1,0,0.2,0,0.3,0c0.9-0.2,1.8-0.3,2.7-0.5v-3.5c1.9-0.3,4-0.5,6.3-0.7c4.7-0.4,10.2-0.7,16.2-0.8
					c5.9-0.1,12.2-0.1,18.5,0.1v2.6c1.8,0,3.6,0,5.4,0.1v-2.5c0.7,0,1.5,0,2.2,0.1v2.5c2.9,0.1,5.7,0.2,8.4,0.3c0.2,0,0.4,0,0.6,0
					v-2.4c0.7,0,1.3,0.1,2,0.1V34c2.1,0.1,4.1,0.2,6,0.4c2.7,0.2,5.3,0.4,7.6,0.7c2.3,0.3,4.4,0.5,6.2,0.9v-2.5
					c0.9,0.1,1.7,0.3,2.5,0.4v2.5c0.1,0,0.3,0.1,0.4,0.1c0.8,0.2,1.6,0.3,2.2,0.5c1.4,0.3,2.4,0.6,3.1,0.8c0.7,0.2,1.1,0.3,1.1,0.3
					s-0.4-0.1-1.1-0.2c-0.4-0.1-0.8-0.2-1.3-0.3c-0.5-0.1-1.1-0.2-1.8-0.3c-0.7-0.1-1.4-0.2-2.3-0.3c-0.8-0.1-1.7-0.2-2.7-0.3
					c-1-0.1-2-0.2-3.1-0.3c-1.1-0.1-2.2-0.2-3.4-0.2c-2.4-0.2-4.9-0.3-7.6-0.4c-2.7-0.1-5.6-0.2-8.5-0.3c-3,0-6-0.1-9.1-0.1
					c-3.1,0-6.3-0.1-9.4,0c-3.2,0-6.3,0-9.4,0.1c-3.1,0.1-6.2,0.1-9.1,0.2c-3,0.1-5.8,0.2-8.5,0.3c-1.4,0.1-2.7,0.1-3.9,0.2
					c-1.3,0.1-2.5,0.1-3.7,0.2c-1.2,0.1-2.3,0.2-3.4,0.3c-1.1,0.1-2.1,0.2-3,0.3c-1.9,0.2-3.6,0.5-4.9,0.8c-0.7,0.1-1.3,0.3-1.8,0.4
					C150.3,38.3,149.9,38.5,149.5,38.5c-0.7,0.3-1.1,0.4-1.1,0.4S148.8,38.7,149.5,38.5z M149.5,46C149.5,46,149.6,45.9,149.5,46
					l0.1-3.6c0.4-0.2,0.9-0.3,1.3-0.4v3.5c0.5-0.2,1-0.3,1.7-0.5c1-0.3,2.1-0.5,3.4-0.8v-3.4c0.4-0.1,0.8-0.1,1.2-0.2v3.3
					c0.1,0,0.2,0,0.3,0c0.9-0.2,1.8-0.3,2.7-0.5v-3.2c13.5-1.8,32.8-2,39.8-2c0.4,0,0.7,0,1.2,0V41c1.8,0,3.6,0,5.4,0.1v-2.8
					c0.7,0,1.5,0,2.2,0v2.8c2.9,0.1,5.7,0.2,8.4,0.3c0.2,0,0.4,0,0.6,0v-2.9c0.6,0,1.3,0,2,0.1v2.9c2.1,0.1,4.1,0.2,6,0.4
					c2.7,0.2,5.3,0.4,7.6,0.7c2.3,0.2,4.4,0.5,6.2,0.9v-3.4c0.8,0.1,1.7,0.2,2.5,0.3v3.5c0.1,0,0.3,0.1,0.4,0.1
					c0.8,0.2,1.6,0.3,2.2,0.5c1.4,0.3,2.4,0.6,3.1,0.8c0.7,0.2,1.1,0.3,1.1,0.3s-0.4-0.1-1.1-0.2c-0.4-0.1-0.8-0.2-1.3-0.3
					c-0.5-0.1-1.1-0.2-1.8-0.3c-0.7-0.1-1.4-0.2-2.3-0.3c-0.8-0.1-1.7-0.2-2.7-0.3c-1-0.1-2-0.2-3.1-0.3c-1.1-0.1-2.2-0.2-3.4-0.2
					c-2.4-0.2-4.9-0.3-7.6-0.4c-2.7-0.1-5.6-0.2-8.5-0.3c-3,0-6-0.1-9.1-0.1c-3.1,0-6.3,0-9.4,0c-3.2,0-6.3,0-9.4,0.1
					c-3.1,0.1-6.2,0.1-9.1,0.2c-3,0.1-5.8,0.2-8.5,0.3c-1.4,0.1-2.7,0.1-3.9,0.2c-1.3,0.1-2.5,0.2-3.7,0.3c-1.2,0.1-2.3,0.2-3.4,0.3
					c-1.1,0.1-2.1,0.2-3,0.3c-1.9,0.2-3.6,0.5-4.9,0.8c-0.7,0.1-1.3,0.3-1.8,0.4C150.3,45.8,149.9,46,149.5,46
					c-0.7,0.3-1.1,0.4-1.1,0.4S148.8,46.2,149.5,46z M150.9,110.2c-0.1,0.1-0.1,0.1-0.2,0.2c-1.1,0.8-1.1,1.3-1.1,1.3V57.4
					c0.4-0.2,0.9-0.3,1.3-0.4V110.2z M157.2,106.7c-0.4,0.1-0.8,0.3-1.2,0.5V55.8c0.4-0.1,0.8-0.1,1.2-0.2V106.7z M152.7,52.8
					c-0.7,0.1-1.3,0.3-1.8,0.4c-0.5,0.1-1,0.3-1.3,0.4c-0.7,0.2-1.1,0.3-1.1,0.3s0.4-0.1,1.1-0.4c0,0,0,0,0.1,0v-3.5
					c0.4-0.2,0.9-0.3,1.3-0.4v3.5c0.5-0.2,1-0.3,1.7-0.5c1-0.2,2.1-0.5,3.4-0.8v-3.3c0.4-0.1,0.8-0.1,1.2-0.2v3.3c0.1,0,0.2,0,0.3,0
					c0.9-0.2,1.8-0.3,2.7-0.5v-3.2c13.5-1.8,32.8-2,39.8-2c0.4,0,0.7,0,1.2,0v2.8c1.8,0,3.6,0,5.4,0.1v-2.8c0.7,0,1.5,0,2.2,0v2.8
					c2.9,0.1,5.7,0.2,8.4,0.3c0.2,0,0.4,0,0.6,0V46c0.6,0,1.3,0.1,2,0.1V49c2.1,0.1,4.1,0.2,6,0.4c2.7,0.2,5.3,0.4,7.6,0.7
					c2.3,0.2,4.4,0.5,6.2,0.9v-3.4c0.8,0.1,1.7,0.2,2.5,0.3v3.5c0.1,0,0.3,0,0.4,0.1c0.8,0.2,1.6,0.3,2.2,0.5
					c1.4,0.3,2.4,0.6,3.1,0.8c0.7,0.2,1.1,0.3,1.1,0.3s-0.4-0.1-1.1-0.2c-0.4-0.1-0.8-0.2-1.3-0.3c-0.5-0.1-1.1-0.2-1.8-0.3
					c-0.7-0.1-1.4-0.2-2.3-0.3c-0.8-0.1-1.7-0.2-2.7-0.3c-1-0.1-2-0.2-3-0.3c-1.1-0.1-2.2-0.2-3.4-0.2c-2.4-0.2-4.9-0.3-7.6-0.4
					c-2.7-0.1-5.6-0.2-8.5-0.3c-3-0.1-6-0.1-9.1-0.2c-3.1,0-6.3,0-9.4,0c-3.2,0-6.3,0-9.4,0.1c-3.1,0.1-6.2,0.1-9.1,0.2
					c-3,0.1-5.8,0.2-8.5,0.3c-1.4,0.1-2.7,0.1-3.9,0.2c-1.3,0.1-2.5,0.1-3.7,0.3c-1.2,0.1-2.3,0.2-3.4,0.3c-1.1,0.1-2.1,0.2-3,0.3
					C155.7,52.2,154,52.5,152.7,52.8z M219.8,53.6v7.3h-2v-7.4C218.5,53.5,219.1,53.6,219.8,53.6z M208.8,53.3v7.7h-2.2v-7.7
					C207.3,53.2,208,53.2,208.8,53.3z M169.1,104.1c-3.3,0.5-6.3,1-8.9,1.7V55.1c13.5-1.8,32.8-2,39.8-2c0.4,0,0.7,0,1.2,0v7.7
					h-24.7c-4.6,0-8.3,3.7-8.3,8.3v31.2C168.2,101.7,168.5,102.9,169.1,104.1z M171.1,103.8c-0.1-0.1-0.1-0.2-0.1-0.2
					c0.3-3.9,1.6-21.4,5.1-34.2l9.9,4.4l-6.8-6.3c4.9-0.7,11.7-1.3,20.2-1.3c7.2,0,14,0.9,19.4,1.8l-6.2,5.7l10.7-4.8
					c2.7,0.6,4.8,1.1,5.9,1.4V100c-0.2,0-0.5,0-0.7-0.1c-1.6-0.1-3.9-0.3-6.7-0.4c-2.8-0.1-6-0.2-9.4-0.2c-3.4,0-7.1,0-10.8,0.2
					c-1.8,0.1-3.7,0.2-5.5,0.3c-1.8,0.1-3.6,0.3-5.3,0.4c-1.7,0.1-3.4,0.3-4.9,0.5c-1.6,0.1-3,0.3-4.4,0.5c-1.4,0.2-2.6,0.3-3.7,0.5
					c-1.1,0.2-2.1,0.3-2.9,0.4c-1.6,0.2-2.5,0.4-2.5,0.4s0.9-0.1,2.5-0.2c0.8-0.1,1.8-0.1,2.9-0.2c1.1-0.1,2.4-0.1,3.7-0.2
					c1.4-0.1,2.8-0.1,4.4-0.2c1.6,0,3.2-0.1,4.9-0.1c1.7,0,3.5,0,5.3,0c1.8,0,3.6,0.1,5.4,0.2c3.6,0.1,7.3,0.4,10.7,0.7
					c1.2,0.1,2.3,0.2,3.4,0.3c-4.6-0.2-9.8-0.4-15.5-0.4C188.8,102.5,179.1,102.8,171.1,103.8z M186.1,122.5
					c0.5,3.2,1.1,6.8,1.6,10.4c0.3,2.1,0.6,4.2,0.8,6.3c-0.3,0-0.6,0-0.9,0C187.1,132.8,186.6,127.2,186.1,122.5z M185,178.3
					c0,0.1,0,0.2,0,0.3c-2.4,0.5-4.7,1.2-7,1.9c-0.4-0.6-0.7-1.2-1.1-1.8C179.6,178.5,182.3,178.4,185,178.3z M165,179.7
					c2.3,1.3,3.4,1.7,3.4,1.7l-1.4-1.9c1.3-0.1,2.5-0.2,3.8-0.3c0.7,1.1,1.4,2.2,2,3.3c-1.4,0.6-2.8,1.3-4.1,1.9
					c-2.5-0.9-5.2-2.4-8.3-4.3C162,180,163.5,179.8,165,179.7z M155.9,180.7c3.5,2.4,6.6,4.3,9.1,5.8c-0.7,0.4-1.4,0.9-2.1,1.3
					c-2.1-1.3-5.7-3.7-10-6.7C153.9,180.9,154.9,180.8,155.9,180.7z M150.2,181.5c3.6,2.2,7.7,4.4,12.4,6.5
					c-0.6,0.4-1.3,0.8-1.9,1.3c-4.8-2.4-10.2-5.5-13.3-7.4C148.3,181.7,149.3,181.6,150.2,181.5z M125.8,122.5
					c-1,0.2-1.9,0.4-2.9,0.6l15.1,21.7c-0.9,0.2-1.8,0.4-2.7,0.6l-15.4-20.2c-10.1-2.1-17.8-8.2-17.8-8.2l33,28.4
					c-0.9,0.2-1.8,0.4-2.8,0.6c-15.6-13-38.4-34.7-38.4-34.7c14,15.8,25.4,27.3,34.4,35.6c-2,0.5-4,1-6.1,1.5
					c-14.9-14.2-26.9-27-26.9-27c8.7,10.8,16.9,19.9,24.4,27.7c-1.8,0.5-3.6,1-5.4,1.6c-8.8-10-17.3-20.1-25-29.5
					c-9.1-11.1-17.1-21.2-23.1-28.8c-0.3-5.1,2.1-11,7.2-15.1c4.4-3.7,9.8-5.1,14.4-4.5c-1.4,4.2-4.5,11-11,15.7l0.4,0.9
					c0,0,2.8-1.9,5.9-4.9l6.9,11.9c0,0-6.1-2.9-11.8-6.3c2.6,2.5,9.2,8.3,17.9,12.2L84.9,83c0.3-0.3,0.6-0.7,1-1.1l8.1,9.8
					l-6.6-11.7c0.5-0.6,0.9-1.3,1.4-2l8.2,8.6l-7-10.5c0.3-0.6,0.5-1.1,0.8-1.7c6.2,7.2,14.1,16.6,22.8,27.1
					c10.5,12.7,22,27.2,32.7,41.7c-1.3,0.2-2.7,0.5-4,0.7C137,137,131.3,129.6,125.8,122.5z M143.7,182.5c1-0.2,2-0.3,3-0.5
					c3.8,3.2,7.9,6.3,11.8,8.9c0,0-0.1,0.1-0.1,0.1c-0.5,0.4-1,0.8-1.5,1.2c-0.1,0-0.1-0.1-0.1-0.1c0,0,0.1,0,0.1,0.1
					c-0.5,0.5-1.1,0.9-1.6,1.4C151.5,190.2,147.7,186.4,143.7,182.5z M250.3,206.9c0,0.1,0,0.2,0,0.3c0,0,0,0,0,0.1
					c0,0.6-0.2,1.2-0.5,1.7c-0.2,0.4-0.5,0.8-0.7,1.2c-0.1,0.2-0.3,0.4-0.4,0.6c-0.2,0.2-0.3,0.4-0.5,0.7c-0.2,0.2-0.3,0.4-0.5,0.7
					c-0.2,0.2-0.4,0.5-0.5,0.7c-0.2,0.2-0.4,0.4-0.6,0.7c-0.2,0.2-0.4,0.5-0.6,0.7c-0.2,0.2-0.4,0.4-0.6,0.6
					c-0.2,0.3-0.5,0.5-0.7,0.8c-0.2,0.2-0.4,0.4-0.6,0.6c-0.3,0.3-0.6,0.6-0.8,0.8c-0.2,0.2-0.4,0.4-0.6,0.6c-0.3,0.3-0.7,0.6-1,0.9
					c-0.2,0.2-0.3,0.3-0.5,0.5c-0.5,0.5-1.1,0.9-1.6,1.4c-7,5.7-16.3,10.3-27.4,12.3c0,0,0,0,0-0.1c-0.1,0-0.3,0-0.4,0.1
					c-1.8,0.3-3.7,0.6-5.6,0.7c0,0,0,0,0,0c-1,0.1-1.9,0.1-2.9,0.2c0,0-0.1,0-0.1,0l0,0c-0.9,0-1.8,0.1-2.6,0.1l0,0c0,0-0.1,0-0.1,0
					c-0.1,0-0.1,0-0.2,0c0,0,0,0,0,0c-0.1,0-0.1,0-0.2,0c0,0-0.1,0-0.1,0c-0.9,0-1.8,0-2.7-0.1c0,0-0.1,0-0.1,0
					c-1,0-1.9-0.1-2.9-0.2c-1.9-0.2-3.7-0.4-5.5-0.7c-0.2,0-0.3-0.1-0.5-0.1c-4.7-0.8-9-2.1-13-3.8c-5.4-2.2-10.2-5.1-14.2-8.4
					c0,0-0.1-0.1-0.1-0.1c-0.6-0.5-1.1-0.9-1.6-1.4c-0.2-0.2-0.4-0.3-0.5-0.5c-0.3-0.3-0.7-0.6-1-0.9c-0.2-0.2-0.4-0.4-0.6-0.6
					c-0.3-0.3-0.5-0.5-0.8-0.8c-0.2-0.2-0.4-0.4-0.6-0.7c-0.2-0.2-0.5-0.5-0.7-0.7c-0.2-0.2-0.4-0.5-0.6-0.7
					c-0.2-0.2-0.4-0.5-0.6-0.7c-0.2-0.2-0.4-0.5-0.6-0.7c-0.2-0.2-0.3-0.4-0.5-0.6c-0.2-0.2-0.4-0.5-0.5-0.7
					c-0.1-0.2-0.3-0.4-0.4-0.6c-0.2-0.2-0.3-0.5-0.5-0.7c-0.2-0.3-0.4-0.7-0.6-1c0-0.1-0.1-0.1-0.1-0.2c-0.3-0.4-0.4-0.9-0.5-1.4
					c0-0.1,0-0.1,0-0.2c0-0.1,0-0.1,0-0.2c0,0,0-0.1,0-0.1c0,0,0,0,0,0c0,0,0,0,0,0l0,0c0.2-0.1,0.3-0.2,0.5-0.3
					c0.5-0.3,1.1-0.7,1.7-1.1c0.2-0.1,0.5-0.3,0.7-0.4c1.1-0.7,2.5-1.4,4-2.1c0.2-0.1,0.4-0.2,0.7-0.3c0.7-0.3,1.4-0.7,2.2-1
					c1-0.4,2.1-0.8,3.2-1.3c0.1,0,0.2-0.1,0.3-0.1c0.8-0.3,1.7-0.6,2.5-0.8c0.5-0.2,1-0.3,1.5-0.5c1-0.3,1.9-0.6,2.9-0.8
					c0.3-0.1,0.6-0.2,0.9-0.2c0.2,0,0.3-0.1,0.5-0.1c0.6-0.1,1.2-0.3,1.7-0.4c0.4-0.1,0.8-0.2,1.2-0.2c1-0.2,2-0.4,3-0.6
					c0.9-0.2,1.8-0.3,2.7-0.5c0.4-0.1,0.7-0.1,1.1-0.2c0.2,0,0.5-0.1,0.7-0.1c0.1,0,0.1,0,0.2,0c0.6-0.1,1.2-0.2,1.8-0.2
					c-0.1-0.4-0.1-0.9-0.1-1.4c0,0,0-0.1,0-0.1c0-0.1,0-0.2,0-0.4c0-0.6,0-1.3,0.1-1.9c0-0.1,0-0.2,0-0.2c0-0.4,0.1-0.8,0.2-1.2
					c0.1-0.3,0.2-0.7,0.2-0.9c0-0.1,0.1-0.2,0.1-0.3c0.2-0.5,0.4-0.9,0.6-1.2c0.2-0.3,0.4-0.5,0.4-0.5s0,0,0,0.1
					c-0.2,1-0.3,2.5-0.4,4.2c0,0.1,0,0.1,0,0.2c0,0.6,0,1.1,0,1.7c0,0.2,0,0.3,0,0.5c0,0.5,0,0.9,0,1.4c0,0.9,0.1,1.8,0.1,2.5
					c0,0.1,0,0.1,0,0.2c0.1,1,0.2,1.8,0.3,2.5c0,0.2,0.1,0.4,0.1,0.5c0,0,0-0.1,0-0.2c0-0.1,0-0.3,0.1-0.5c0-0.2,0.1-0.4,0.1-0.7
					c0-0.2,0.1-0.4,0.1-0.7c0-0.1,0-0.1,0-0.2c0-0.3,0.1-0.7,0.1-1c0,0,0,0,0,0c0-0.4,0.1-0.8,0.1-1.2c0-0.4,0.1-0.8,0.1-1.3
					c0,0,0-0.1,0-0.2c0.3,0,0.6-0.1,0.9-0.1c0.2,0,0.4,0,0.6-0.1c0.1,0,0.2,0,0.3,0c0.1,0,0.1,0,0.2,0c0.4,0,0.9-0.1,1.3-0.1
					c0.1,0,0.1,0,0.2,0c0.1,0,0.1,0,0.2,0c0.4,0,0.9-0.1,1.3-0.1c0.1,0,0.1,0,0.2,0c0-0.4-0.1-0.8-0.1-1.3c0-0.1,0-0.1,0-0.2
					c0-0.2,0-0.3,0-0.5c0-0.2,0-0.5,0-0.7c0-0.4,0-0.9,0.1-1.3c0,0,0,0,0-0.1c0.1-0.9,0.2-1.7,0.4-2.3c0.2-0.7,0.4-1.3,0.6-1.6
					c0.1-0.2,0.2-0.3,0.2-0.4c0,0,0.1-0.1,0.1-0.1c-0.1,0.8-0.1,2.5-0.2,4.5c0,0.6,0,1.3,0,2c0,0.2,0,0.3,0,0.5c0,0.5,0,1,0,1.5
					c0,0.9,0,1.8,0.1,2.7c0,1.6,0.1,2.9,0.2,3.4c0,0,0,0,0,0.1c0,0,0-0.1,0-0.2c0-0.1,0-0.1,0-0.2c0-0.1,0-0.2,0.1-0.3
					c0-0.2,0.1-0.4,0.1-0.7c0.1-0.3,0.1-0.6,0.2-0.9c0,0,0-0.1,0-0.1c0-0.3,0.1-0.7,0.1-1v0c0-0.2,0-0.4,0.1-0.6
					c0-0.2,0-0.4,0.1-0.6c0-0.4,0.1-0.9,0.1-1.3c0,0,0-0.1,0-0.1c0.5,0,0.9,0,1.4-0.1c0.1,0,0.2,0,0.4,0c0.1,0,0.1,0,0.2,0
					c0.5,0,1,0,1.5,0c0.1,0,0.1,0,0.2,0c0.1,0,0.2,0,0.2,0c0.5,0,1.1,0,1.7,0c0-0.5-0.1-0.9-0.1-1.4c0,0,0-0.1,0-0.1
					c0-0.2,0-0.3,0-0.5c0-0.7,0-1.3,0.1-2c0-0.1,0-0.2,0-0.3c0.1-0.9,0.2-1.8,0.4-2.5c0.2-0.7,0.3-1.3,0.5-1.8
					c0.1-0.4,0.3-0.7,0.3-0.7v5.3v2v0.5v1.5v2.7v3.7v0.2c0,0,0.1-0.3,0.2-0.7c0.1-0.4,0.3-1.1,0.4-1.8c0.1-0.4,0.1-0.8,0.2-1.2
					c0-0.1,0-0.1,0-0.2c0.1-0.4,0.1-0.7,0.1-1.1c0-0.5,0.1-1,0.1-1.4c0,0,0-0.1,0-0.1c0.6,0,1.2,0,1.8,0c0.1,0,0.1,0,0.2,0
					c0.5,0,1.1,0,1.6,0c0.1,0,0.1,0,0.2,0c0.4,0,0.8,0,1.3,0.1c0.2,0,0.3,0,0.5,0c0-0.4,0-0.8,0-1.2c0-0.1,0-0.2,0-0.3
					c0-0.1,0-0.3,0-0.4c0-0.2,0-0.4,0-0.6c0-0.4,0-0.9,0.1-1.3c0,0,0-0.1,0-0.1c0.1-0.8,0.2-1.6,0.3-2.2c0.1-0.7,0.3-1.2,0.4-1.6
					c0.1-0.4,0.2-0.6,0.2-0.6s0,0,0.1,0.1c0.1,0.8,0.2,2.5,0.2,4.5c0,0.6,0,1.3,0,1.9c0,0.1,0,0.3,0,0.4c0,0.5,0,1,0,1.5
					c0,0.9,0,1.8-0.1,2.6c0,1.5-0.1,2.7-0.2,3.3c0,0.1,0,0.2-0.1,0.3c0,0,0-0.1,0.1-0.2c0.1-0.1,0.1-0.2,0.2-0.5
					c0-0.1,0.1-0.2,0.1-0.3c0-0.1,0.1-0.3,0.1-0.4c0.1-0.2,0.1-0.5,0.2-0.8c0-0.1,0-0.1,0.1-0.2c0.1-0.3,0.2-0.7,0.2-1.1
					c0,0,0-0.1,0-0.1c0.1-0.4,0.1-0.7,0.2-1.1c0.1-0.4,0.1-0.9,0.1-1.4c0,0,0-0.1,0-0.1c0.3,0,0.7,0,1,0.1c0.2,0,0.4,0,0.6,0.1
					c0.1,0,0.1,0,0.2,0c0.4,0,0.9,0.1,1.3,0.1c0,0,0,0,0,0c0.1,0,0.1,0,0.2,0c0.1,0,0.2,0,0.3,0c0.5,0.1,1.1,0.1,1.6,0.2
					c0,0,0,0,0,0c0-0.4,0-0.8,0-1.2c0-0.1,0-0.2,0-0.3c0-0.1,0-0.3,0-0.4c0-0.2,0-0.5,0-0.7c0-0.3,0-0.7,0-1c0,0,0-0.1,0-0.1
					c0-0.7,0.1-1.4,0.2-2c0-0.3,0.1-0.6,0.2-0.9c0.1-0.3,0.1-0.5,0.2-0.7c0.1-0.4,0.2-0.6,0.2-0.6s0,0,0.1,0.1
					c0.2,0.8,0.3,2,0.3,3.3c0,0.3,0,0.6,0,0.9c0,0.5,0,1,0,1.6c0,0.1,0,0.2,0,0.3c0,0.1,0,0.3,0,0.4c0,0.5,0,1,0,1.5
					c0,0.9-0.1,1.7-0.1,2.4c-0.1,1.1-0.2,2.1-0.4,2.7c0,0.1-0.1,0.2-0.1,0.3c0,0,0,0,0.1-0.1c0.1-0.1,0.2-0.2,0.2-0.4
					c0.1-0.2,0.2-0.4,0.3-0.7c0.1-0.3,0.2-0.5,0.3-0.9c0.1-0.3,0.2-0.6,0.3-0.9c0,0,0-0.1,0-0.1c0-0.2,0.1-0.4,0.1-0.6
					c0-0.2,0.1-0.4,0.1-0.6c0-0.2,0.1-0.4,0.1-0.6c0-0.1,0-0.3,0.1-0.5c0.5,0.1,1.1,0.1,1.6,0.2c0.1,0,0.1,0,0.2,0
					c0.1,0,0.1,0,0.2,0c0.4,0.1,0.9,0.1,1.3,0.2c0.9,0.1,1.7,0.3,2.5,0.4c1,0.2,2,0.4,3,0.6c0.4,0.1,0.7,0.1,1.1,0.2
					c0.6,0.1,1.2,0.3,1.8,0.4c0.2,0,0.4,0.1,0.6,0.1c0.3,0.1,0.6,0.2,0.9,0.2c1,0.3,2,0.5,2.9,0.8c0.5,0.1,1,0.3,1.5,0.5
					c0.9,0.3,1.8,0.6,2.6,0.9c0.1,0,0.2,0.1,0.3,0.1c1.1,0.4,2.1,0.8,3.1,1.2c0.9,0.3,1.7,0.7,2.4,1.1c0.2,0.1,0.5,0.2,0.7,0.3
					c1.3,0.7,2.5,1.3,3.5,1.9c0.4,0.2,0.8,0.5,1.2,0.7c0.7,0.4,1.3,0.9,1.8,1.2C250.2,206.8,250.2,206.9,250.3,206.9
					C250.3,206.9,250.3,206.9,250.3,206.9z M249.8,205.4c0.1,0.2,0.2,0.4,0.3,0.6c0,0,0,0.1,0,0.1c0,0,0,0,0,0.1c0,0,0,0,0,0
					c-0.4-0.4-0.8-0.8-1.3-1.2c-1-0.9-2.3-1.8-3.8-2.8c-0.2-0.3-0.5-0.5-0.7-0.8c-1.1-1.3-2.4-2.5-3.8-3.8c-0.2-0.2-0.4-0.3-0.6-0.5
					c0,0.3,0.1,0.6,0.1,0.9c0.1,0.4,0.1,0.9,0.2,1.4c-0.4-0.2-0.7-0.4-1.1-0.6c-0.4-0.2-0.8-0.4-1.2-0.6c-0.4-0.2-0.9-0.4-1.3-0.6
					c-0.3-0.1-0.7-0.3-1-0.4c-0.7-0.3-1.5-0.6-2.3-0.9c-1-0.4-1.9-0.7-3-1c-0.1,0-0.2-0.1-0.3-0.1c-0.8-0.3-1.6-0.5-2.4-0.7
					c-0.4-0.1-0.7-0.2-1.1-0.3c0-0.3-0.1-0.6-0.1-0.9c-0.2-2.3-0.5-4.1-0.8-5.3c-0.5-0.2-0.9-0.4-1.4-0.6c-1.7-0.7-3.4-1.3-5.2-1.8
					c-1.2-0.4-2.5-0.7-3.8-1c-0.2,0-0.3-0.1-0.5-0.1c0,0,0,0,0,0l-0.2-0.2l-0.1,0.1c-0.8-0.2-1.6-0.3-2.4-0.5
					c-1.2-0.2-2.4-0.4-3.6-0.6c-0.3,0-0.6-0.1-0.9-0.1c0,0,0,0,0,0l-0.2-0.2l-0.1,0.1c-0.2,0-0.4,0-0.6-0.1c-2-0.2-4-0.3-6-0.3
					c-0.2-0.2-0.3-0.4-0.3-0.4l-0.2-0.2l-0.1,0.2c-0.1,0.1-0.2,0.2-0.3,0.4c-2.2,0-4.5,0.1-6.7,0.4l-0.1-0.1l-0.1,0.1l0,0
					c-0.5,0.1-1.1,0.1-1.6,0.2c-1.2,0.2-2.3,0.4-3.5,0.6c-0.6,0.1-1.3,0.3-1.9,0.4l0-0.1l-0.1,0.1c-0.4,0.1-0.8,0.2-1.2,0.3
					c-1.2,0.3-2.5,0.7-3.7,1c-1.7,0.5-3.5,1.2-5.1,1.9c-0.5,0.2-1,0.4-1.5,0.6c-0.2,1.2-0.5,2.9-0.7,5.1c0,0.3-0.1,0.7-0.1,1.1
					c-0.3,0.1-0.7,0.2-1,0.3c-0.8,0.2-1.6,0.5-2.3,0.7c-0.2,0.1-0.3,0.1-0.5,0.2c-1,0.3-1.9,0.7-2.9,1c-0.8,0.3-1.6,0.6-2.3,0.9
					c-0.3,0.1-0.7,0.3-1,0.4c-0.4,0.2-0.9,0.4-1.3,0.6c-0.4,0.2-0.8,0.4-1.2,0.6c-0.4,0.2-0.9,0.4-1.3,0.7c0.1-0.6,0.1-1.2,0.2-1.7
					c0-0.3,0.1-0.7,0.1-1c-0.2,0.2-0.4,0.4-0.6,0.6c-1.4,1.2-2.7,2.5-3.8,3.8c-0.4,0.5-0.8,1-1.2,1.5c-1.2,0.8-2.2,1.6-3,2.3
					c-0.6,0.5-1.2,1-1.6,1.5c0,0,0,0,0,0c0-0.1,0-0.1,0.1-0.2c0,0,0,0,0,0c0-0.1,0.1-0.3,0.1-0.4c0,0,0-0.1,0-0.1
					c0.1-0.1,0.1-0.2,0.2-0.3c0.2-0.3,0.4-0.6,0.6-0.9c0.1-0.1,0.1-0.2,0.2-0.3c0.1-0.2,0.3-0.4,0.4-0.7c0.1-0.1,0.2-0.2,0.3-0.4
					c0.1-0.2,0.3-0.4,0.5-0.6c0.1-0.1,0.2-0.3,0.3-0.4c0.2-0.2,0.3-0.4,0.5-0.6c0.1-0.1,0.2-0.3,0.3-0.4c0.2-0.2,0.4-0.4,0.5-0.6
					c0.1-0.1,0.2-0.3,0.3-0.4c0,0,0.1-0.1,0.1-0.1c0.2-0.2,0.4-0.4,0.5-0.6c0.1-0.1,0.2-0.2,0.3-0.4c0.3-0.3,0.6-0.6,0.9-1
					c0.4-0.4,0.8-0.8,1.2-1.2c0.3-0.2,0.5-0.5,0.8-0.7c0.6-0.5,1.2-1,1.8-1.6c0.1-0.1,0.2-0.2,0.3-0.3c0.2-0.1,0.3-0.2,0.4-0.4
					c0,0,0.1-0.1,0.1-0.1c0.3-0.3,0.7-0.5,1-0.8c0.9-0.7,1.9-1.3,2.8-2c1.4-0.9,2.8-1.8,4.3-2.6c0.8-0.4,1.7-0.9,2.5-1.3
					c1.1-0.5,2.2-1.1,3.4-1.5c0,0,0,0,0.1,0c1.6-0.7,3.3-1.3,5.1-1.9c1.6-0.5,3.2-1,4.8-1.4c1-0.2,2.1-0.5,3.1-0.7
					c1.1-0.2,2.3-0.4,3.5-0.6c0.5-0.1,1-0.1,1.6-0.2c2.3-0.3,4.6-0.4,7-0.4c2.1,0,4.1,0.1,6.1,0.3c0.3,0,0.5,0.1,0.7,0.1
					c0.6,0.1,1.2,0.1,1.7,0.2c1.2,0.1,2.4,0.3,3.5,0.5c1.1,0.2,2.1,0.4,3.1,0.6c1.7,0.4,3.3,0.8,4.9,1.3c1.8,0.6,3.5,1.2,5.1,1.9
					c1.2,0.5,2.3,1,3.4,1.5c0.9,0.4,1.8,0.9,2.6,1.4c1.5,0.8,2.9,1.7,4.2,2.6c0.2,0.1,0.4,0.2,0.5,0.4c0.8,0.5,1.5,1.1,2.2,1.6
					c0.3,0.3,0.7,0.5,1,0.8c0,0,0.1,0.1,0.1,0.1c0.2,0.1,0.3,0.2,0.4,0.4c0.1,0.1,0.2,0.2,0.3,0.3c0.6,0.5,1.2,1.1,1.8,1.6
					c1.4,1.3,2.7,2.5,3.8,3.8C247.4,201.9,248.8,203.7,249.8,205.4z M244.7,193.6c-0.5-0.5-1-1-1.6-1.4c0,0,0.1-0.1,0.1-0.1
					c0,0-0.1,0-0.1,0.1c-0.5-0.4-0.9-0.8-1.4-1.2c-0.1-0.1-0.1-0.1-0.2-0.2c3.7-2.5,7.7-5.4,11.3-8.5c1,0.2,2,0.3,3,0.5
					C252.1,186.7,248.3,190.3,244.7,193.6z M285.6,150.9c-1.8-0.5-3.6-1-5.5-1.4c7.6-7.8,15.8-17,24.5-27.9c0,0-12.1,13-27.2,27.2
					c-2-0.5-4.1-1-6.2-1.4c9.1-8.4,20.6-19.9,34.8-35.9c0,0-23.3,22.1-38.9,35.1c-0.9-0.2-1.9-0.4-2.8-0.6l33.5-28.9
					c0,0-7.7,6.1-17.8,8.2l-15.8,20.7c-0.9-0.2-1.8-0.4-2.7-0.5l15.4-22.2c-1-0.2-1.9-0.4-2.9-0.6c-5.7,7.2-11.6,14.9-16.9,22
					c-1.3-0.2-2.6-0.5-4-0.7c10.9-14.7,22.6-29.4,33.2-42.3c8.7-10.6,16.6-19.9,22.8-27.1c0.2,0.6,0.5,1.1,0.8,1.7l-7,10.5l8.2-8.6
					c0.4,0.7,0.9,1.3,1.4,2l-6.6,11.7l8.1-9.8c0.3,0.4,0.6,0.7,1,1.1l-11.4,19.6c8.7-3.9,15.3-9.7,17.9-12.2
					c-5.7,3.3-11.8,6.3-11.8,6.3l6.9-11.9c3.1,3,5.9,4.9,5.9,4.9l0.4-0.9c-6.5-4.7-9.6-11.5-11-15.7c4.6-0.6,10,0.8,14.4,4.5
					c5,4.1,7.5,10,7.2,15.1c-6,7.6-14,17.7-23.1,28.8C302.9,130.7,294.4,140.9,285.6,150.9z"/>
				<path d="M325.1,78.9l2.2,5.4c0,0-3.5-1.9-5.6-8.2l-3.3-1c0,0,0.1,7.8,12.9,13.5C331.4,88.6,329.2,82.2,325.1,78.9z"/>
				<path d="M322.9,92.7c0,0-23.7,31.6-37.4,43.5c0,0,20.4-16.1,39.4-42.6L322.9,92.7z"/>
				<path d="M326.4,88.4l-0.3,0.5c3.1,2.5,6.8,3.1,6.8,3.1l-0.8-1.8C329.8,90.2,326.4,88.4,326.4,88.4z"/>
				<path d="M315,74.3c0,0,0.9,6,7.2,10c0,0-4.8-5-5.2-9.5L315,74.3z"/>
				<polygon points="96.7,105.3 104.3,110.3 95.1,94.7 99.1,104.8 				"/>
				<path d="M81.6,75.1l-3.3,1c-2,6.3-5.6,8.2-5.6,8.2l2.2-5.4c-4.1,3.4-6.2,9.7-6.2,9.7C81.4,82.9,81.6,75.1,81.6,75.1z"/>
				<path d="M85,74.3l-2.1,0.5c-0.4,4.5-5.2,9.5-5.2,9.5C84.1,80.4,85,74.3,85,74.3z"/>
				<path d="M73.6,88.4c0,0-3.4,1.8-5.7,1.8l-0.8,1.8c0,0,3.6-0.6,6.8-3.1L73.6,88.4z"/>
				<polygon points="69.8,94.4 93.3,121.4 72.7,93.9 				"/>
				<path d="M75,93.6c19,26.5,39.4,42.6,39.4,42.6c-13.7-11.8-37.4-43.5-37.4-43.5L75,93.6z"/>
				<polygon points="82.8,87.8 80.7,89.7 85.1,92.1 				"/>
				<path d="M120.4,119.5c0.9-0.1,1.8-0.3,2.6-0.5c-11.9-15.1-22-27.4-22-27.4L120.4,119.5z"/>
				<path d="M110.2,115.7c-3.8-0.7-23.5-15.8-23.5-15.8c20.1,22.6,30.3,21.3,30.3,21.3c-3.6-9.1-25-36.6-25-36.6L110.2,115.7z"/>
				<path d="M291.8,333.1l1.4-1.6c-3.6-1.7-9,0-9,0l-2.4,2.4C288,331.4,291.8,333.1,291.8,333.1z"/>
				<path d="M239,278.9l-4.1-3.3l10.9,14.2l2.9,3c0.6-0.1,1-0.2,1.5-0.4L239,278.9z"/>
				<path d="M263.3,306.7l-12.1-13c-0.5,0.2-1.1,0.3-1.6,0.5l15.2,17.6l1.9-0.3L263.3,306.7z"/>
				<polygon points="274.6,320.3 272.5,317.9 268.9,318 270.6,319.6 				"/>
				<polygon points="273.7,323.5 278.3,324.7 275.7,321.7 271.7,321.4 				"/>
				<polygon points="276.9,327.3 281.9,329.1 278.8,325.6 274.5,324.8 				"/>
				<polygon points="269.4,314.1 266.1,314.6 267.4,315.8 271,315.9 				"/>
				<polygon points="280.9,332.3 282.3,330.6 278.8,329.6 				"/>
				<path d="M283.9,338.2c2.2-0.2,4.2-0.3,4.2-0.3l1.4-1.6c-2,0.3-3.9,0.6-5.5,0.8L283.9,338.2z"/>
				<path d="M284.3,334.5l-0.1,0.8c2.9-0.5,6.1-0.9,6.1-0.9C289.7,334.1,286.8,334.3,284.3,334.5z"/>
				<path d="M278.9,338.4c0.7,0,2.2-0.1,3.8-0.2l0.2-1.1c-2.4,0.4-3.9,0.6-3.9,0.6L278.9,338.4z"/>
				<path d="M279.6,336.5c0.6-0.3,2.1-0.7,3.8-1l0.2-0.9c-1.7,0.2-3.1,0.3-3.1,0.3C280,335.3,279.6,336.5,279.6,336.5z"/>
				<polygon points="279,341.1 280.4,341.8 282.7,340.8 279.2,340.7 				"/>
				<path d="M247.8,205.9c-1.3-0.6-2.8-1.3-4.6-2.1c-0.4-0.2-0.8-0.3-1.2-0.5c-0.5-0.2-1-0.4-1.5-0.5c0,0.6,0.1,1.2,0.1,1.8
					c0,0.8,0,1.5,0,2.4c0,2-0.1,3.8-0.2,5.3c0,0,0,0,0,0l0,0c0,0,0,0.1,0,0.1c0,0,0-0.1,0-0.1c-0.2,0.1-0.4,0.2-0.5,0.2
					c-0.6,0.3-1.1,0.5-1.7,0.8c-0.5,0.2-0.9,0.4-1.4,0.6c-0.6,0.3-1.3,0.5-1.9,0.8c-0.4,0.2-0.9,0.3-1.3,0.5
					c-1.1,0.4-2.1,0.7-3.2,1.1c-0.4,0.1-0.8,0.2-1.3,0.4c-0.6,0.2-1.2,0.4-1.8,0.5c-0.1,0-0.2,0.1-0.3,0.1c-0.1,0-0.2,0.1-0.3,0.1
					c0,0.1,0,0.1,0,0.2c0-0.1,0-0.1,0-0.2c0.2-2.1,0.3-4.6,0.3-7.3c0-1,0-2,0-3.1c0-0.3,0-0.6,0-0.9c0-1,0-1.9,0-2.8
					c0-1.4-0.1-2.8-0.1-4c-0.8-0.1-1.6-0.3-2.5-0.4c-1-0.2-2.1-0.3-3.1-0.4c-0.5-0.1-0.9-0.1-1.4-0.2c-0.5-0.1-1.1-0.1-1.6-0.2
					c-0.6,2.3-1.6,4.2-3.4,6.1l-0.4,0.4l-0.3-0.5c-0.1-0.2-0.2-0.3-0.3-0.5c-0.6-1.2-1-2.5-1.2-4.1c-0.1-0.6-0.2-1.2-0.2-1.8
					c0,0,0,0,0,0c-0.4,0-0.7,0-1.1-0.1c-0.2,0-0.4,0-0.6,0c-0.1,0.5-0.2,1-0.3,1.5c-0.4,1.7-1,3.1-1.8,4.3c-0.2,0.4-0.5,0.7-0.8,1
					l-0.4,0.5l-0.3-0.5c0,0,0,0,0,0c-0.3-0.6-0.6-1.1-0.8-1.7c-0.7-1.7-1-3.4-1.2-5.3c-0.7,0-1.3,0-2,0c-0.4,3.1-1.3,5.4-2.6,6.9
					l-0.3,0.4l-0.3-0.4c-1.5-1.9-2.2-4.5-2.5-6.9c-0.6,0-1.3,0-1.9,0.1c-0.2,2.5-0.7,4.7-2,7l-0.1,0.1l-0.2,0.3l0,0.1l-0.4-0.5
					c-0.6-0.7-1.2-1.6-1.6-2.5c-0.2-0.3-0.3-0.7-0.4-1.1c-0.4-1-0.6-2-0.8-3.2c-0.4,0-0.8,0.1-1.2,0.1c-0.2,0-0.4,0-0.6,0
					c-0.2,2.6-0.7,4.7-1.7,6.4c0,0,0,0,0,0l-0.3,0.5l-0.4-0.4c-1.7-1.8-2.8-3.6-3.4-5.9c-0.6,0.1-1.3,0.1-1.9,0.2
					c-0.5,0.1-1,0.2-1.6,0.2c-1,0.2-2.1,0.3-3.1,0.5c-0.9,0.2-1.8,0.3-2.7,0.5c0,1.1-0.1,2.3-0.1,3.6c0,0.9,0,1.9,0,2.8
					c0,0.3,0,0.6,0,0.9c0,1.1,0,2.1,0,3.1c0.1,2.8,0.2,5.3,0.3,7.5c0,0,0,0,0,0c-0.1,0-0.2-0.1-0.4-0.1c0,0-0.1,0-0.1,0
					c-0.7-0.2-1.4-0.4-2.1-0.6c-0.4-0.1-0.9-0.2-1.3-0.4c-1-0.3-1.9-0.6-2.8-0.9c-0.3-0.1-0.7-0.2-1-0.4c-0.9-0.3-1.7-0.6-2.6-1
					c-0.4-0.2-0.8-0.3-1.2-0.5c-0.6-0.3-1.3-0.5-1.9-0.8c-0.1-0.1-0.3-0.1-0.4-0.2c0,0.3,0,0.6,0.1,0.8c0-0.3,0-0.6-0.1-0.9
					c-0.1-1.6-0.2-3.5-0.2-5.6c0-0.8,0-1.6,0-2.4c0-0.5,0-1,0-1.4c-0.4,0.1-0.8,0.3-1.1,0.4c-0.4,0.2-0.9,0.3-1.3,0.5
					c-1.9,0.7-3.6,1.4-4.9,2c-0.1,0-0.1,0-0.2,0.1c0,0,0,0.1-0.1,0.1c-0.2,0.3-0.3,0.6-0.3,0.8c0,0.3,0.1,0.5,0.3,0.8
					c0.2,0.3,0.4,0.6,0.6,0.9c1.7,2.7,4.4,5.7,7.7,8.6c0.6,0.5,1.1,1,1.7,1.5c3.8,3.1,8,5.6,12.6,7.6c-0.1-0.6-0.1-0.5,0,0.1
					c3.7,1.6,7.6,2.8,11.6,3.7c1,0.2,2.1,0.4,3.1,0.6c1.9,0.3,3.7,0.5,5.6,0.6c0.1,0,0.3,0,0.4,0c1,0.1,2.1,0.1,3.2,0.1
					c0.4,0,0.7,0,1.1,0c0.2,0,0.3,0,0.5,0c0.1,0,0.2,0,0.4,0c0.4,0,0.7,0,1.1,0c1.1,0,2.1-0.1,3.1-0.2c0.2,0,0.3,0,0.5,0
					c0.5,0,1.1-0.1,1.6-0.1c0,0,0,0,0.1,0c1.1-0.1,2.2-0.3,3.2-0.4c0.2,0,0.4-0.1,0.6-0.1c0,0,0.1,0,0.1,0c0.8-0.1,1.7-0.3,2.5-0.5
					c0.2-0.1,0.5-0.1,0.7-0.2c0.4-0.1,0.7-0.2,1.1-0.3c0.4-0.1,0.9-0.2,1.3-0.3c0.8-0.2,1.5-0.4,2.3-0.7c0.3-0.1,0.6-0.2,0.8-0.2
					c0.9-0.3,1.8-0.6,2.7-1c0.1,0,0.2-0.1,0.3-0.1c1-0.4,2-0.8,3-1.2c0,0,0,0.1,0,0.1c0,0,0,0,0,0c4.6-2,8.8-4.6,12.6-7.6
					c0.6-0.5,1.1-1,1.7-1.4c0,0,0,0,0.1,0c0-0.1,0-0.2,0-0.2c0-0.2,0.1-0.4,0.1-0.6c0.1-0.7,0.2-1.5,0.3-2.5
					c-0.1,0.9-0.2,1.8-0.3,2.5c0,0.2-0.1,0.4-0.1,0.6c0,0.1,0,0.2,0,0.2c3.6-3.1,6.4-6.4,8.1-9.3c0-0.1,0.1-0.1,0.1-0.2
					c0.1-0.2,0.2-0.3,0.2-0.5c0-0.1,0.1-0.2,0.1-0.3c0-0.3-0.1-0.5-0.3-0.8C248,206.2,247.9,206.1,247.8,205.9z M159.7,213.8
					c0.1,0.7,0.1,1.4,0.2,2C159.8,215.2,159.7,214.5,159.7,213.8z M226.5,219.3c0,0.1,0,0.2,0,0.3c0,0.5-0.1,0.9-0.1,1.3
					c0,0,0,0.1,0,0.1c-0.1,0.5-0.1,0.9-0.2,1.4c0,0.4-0.1,0.8-0.1,1.1c0,0.3-0.1,0.6-0.1,0.9c0,0,0,0.1,0,0.1c0,0,0,0,0,0
					c0-0.1,0-0.3,0.1-0.4c0.1-0.5,0.2-1.1,0.2-1.8c0.1-0.4,0.1-0.9,0.1-1.4c0,0,0-0.1,0-0.1c0-0.4,0.1-0.9,0.1-1.3
					c0-0.1,0-0.2,0-0.3c0-0.4,0.1-0.8,0.1-1.2c0,0,0,0,0,0C226.6,218.4,226.5,218.8,226.5,219.3z"/>
			</g>
		</g>
		<g>
			<g>
				<g>
					<path d="M135.4,154.4c-2.2,0.4-4.4,0.8-6.5,1.3c0.5,2.6,1.1,5.3,1.6,7.9c1.8-0.4,3.5-0.7,5.3-1.1c0.2,1.2,0.5,2.5,0.7,3.7
						c-1.8,0.3-3.5,0.7-5.3,1.1c0.6,2.7,1.1,5.3,1.7,8c2-0.4,4.1-0.8,6.2-1.2c0.2,1.2,0.5,2.5,0.7,3.7c-3.5,0.7-7,1.4-10.5,2.2
						c-2-9-4-17.9-6-26.9c3.8-0.8,7.6-1.6,11.4-2.3C134.9,151.9,135.2,153.2,135.4,154.4z"/>
					<path d="M145.9,172.8c2-0.3,4.1-0.7,6.1-1c0.2,1.2,0.4,2.5,0.6,3.7c-3.5,0.5-7,1.1-10.5,1.7c-1.6-9-3.3-18.1-4.9-27.1
						c1.6-0.3,3.2-0.6,4.8-0.8C143.3,157.2,144.6,165,145.9,172.8z"/>
					<path d="M168,146c0.1,1.3,0.2,2.5,0.3,3.8c-1.2,0.1-2.5,0.2-3.7,0.4c0.8,7.9,1.6,15.8,2.4,23.6c-1.5,0.2-3,0.3-4.5,0.5
						c-0.9-7.9-1.8-15.7-2.8-23.6c-1.2,0.1-2.5,0.3-3.7,0.5c-0.2-1.2-0.3-2.5-0.5-3.7C159.8,146.8,163.9,146.4,168,146z"/>
					<path d="M180.1,172.7c-0.5-2.2-0.9-4.4-1.4-6.7c-1.2,0.1-2.5,0.2-3.7,0.3c-0.2,2.3-0.3,4.5-0.4,6.8c-1.5,0.1-2.9,0.2-4.4,0.4
						c0.8-9.4,1.8-18.7,2.9-28.1c1.6-0.1,3.2-0.2,4.8-0.3c2.4,9.1,4.6,18.2,6.7,27.4C183.1,172.5,181.6,172.6,180.1,172.7z
						 M175.3,162.5c0.9-0.1,1.7-0.1,2.6-0.2c-0.6-2.9-1.3-5.8-1.9-8.7C175.7,156.6,175.5,159.5,175.3,162.5z"/>
					<path d="M190.8,168.4c2.1-0.1,4.1-0.1,6.2-0.1c0,1.3,0,2.5,0,3.8c-3.5,0-7,0.1-10.6,0.3c-0.4-9.2-0.8-18.3-1.2-27.5
						c1.6-0.1,3.2-0.1,4.8-0.2C190.3,152.6,190.6,160.5,190.8,168.4z"/>
					<path d="M203.4,168.3c2.1,0,4.1,0.1,6.2,0.1c0,1.3-0.1,2.5-0.1,3.8c-3.5-0.1-7-0.1-10.6-0.1c0-9.2-0.1-18.4-0.1-27.5
						c1.6,0,3.2,0,4.9,0C203.6,152.5,203.5,160.4,203.4,168.3z"/>
					<path d="M223.6,149.1c-2.2-0.1-4.4-0.3-6.6-0.4c-0.1,2.7-0.3,5.4-0.4,8.1c1.8,0.1,3.6,0.2,5.4,0.3c-0.1,1.3-0.2,2.5-0.2,3.8
						c-1.8-0.1-3.5-0.2-5.3-0.3c-0.1,2.7-0.3,5.4-0.4,8.1c2.1,0.1,4.2,0.2,6.2,0.4c-0.1,1.3-0.2,2.5-0.3,3.8
						c-3.5-0.2-7.1-0.4-10.6-0.5c0.3-9.2,0.6-18.3,0.9-27.5c3.8,0.1,7.7,0.3,11.5,0.6C223.8,146.6,223.7,147.8,223.6,149.1z"/>
					<path d="M237.4,174.2c-1.5-0.2-3-0.3-4.5-0.5c0.1-3.2,0.2-6.5,0.2-9.7c0-1.3-0.6-2-1.8-2.1c-0.5,0-1-0.1-1.5-0.1
						c-0.3,3.9-0.7,7.7-1,11.6c-1.5-0.1-3-0.3-4.5-0.4c0.7-9.2,1.4-18.3,2-27.5c2.4,0.2,4.9,0.4,7.3,0.6c4.3,0.4,6.1,2.7,5.7,5.8
						c-0.2,1.4-0.3,2.8-0.5,4.2c-0.3,2.4-1.3,3.8-3.1,4.4c1.2,0.7,1.7,2,1.7,3.8C237.5,167.6,237.5,170.9,237.4,174.2z M231,149.7
						c-0.2,2.8-0.5,5.5-0.7,8.3c0.7,0.1,1.5,0.1,2.2,0.2c1.1,0.1,1.7-0.4,1.8-1.3c0.2-1.8,0.4-3.6,0.5-5.3c0.1-1-0.4-1.5-1.5-1.6
						C232.5,149.8,231.7,149.7,231,149.7z"/>
					<path d="M249.2,147.9c2.4,0.3,4.7,0.7,7.1,1.1c4.3,0.7,6.2,3.1,5.6,6.4c-1,5.5-2,11-3,16.5c-0.6,3.3-3,4.9-7,4.3
						c-2.2-0.3-4.3-0.7-6.5-1C246.7,166.1,247.9,157,249.2,147.9z M257.1,154.6c0.2-1-0.3-1.7-1.5-1.9c-0.7-0.1-1.5-0.2-2.2-0.4
						c-1,6.6-2,13.2-3,19.7c0.7,0.1,1.4,0.2,2.1,0.3c1.1,0.2,1.7-0.3,1.9-1.3C255.3,165.6,256.2,160.1,257.1,154.6z"/>
					<path d="M276.5,156.7c-2.2-0.5-4.3-0.9-6.5-1.4c-0.5,2.6-1.1,5.3-1.6,7.9c1.8,0.4,3.5,0.7,5.3,1.1c-0.3,1.2-0.5,2.5-0.8,3.7
						c-1.7-0.4-3.5-0.8-5.2-1.1c-0.5,2.7-1.1,5.3-1.6,8c2.1,0.4,4.1,0.9,6.1,1.3c-0.3,1.2-0.5,2.5-0.8,3.7c-3.5-0.8-7-1.5-10.5-2.2
						c1.7-9,3.4-18,5.1-27.1c3.8,0.7,7.6,1.5,11.4,2.3C277.1,154.3,276.8,155.5,276.5,156.7z"/>
				</g>
				<g>
					<path d="M118.9,254.8c2.2,0.6,4.3,1.2,6.5,1.8c-0.3,1.2-0.6,2.4-1,3.7c-3.8-1-7.6-2.1-11.4-3.3c2.7-8.8,5.4-17.5,8.1-26.3
						c1.5,0.4,2.9,0.9,4.4,1.3C123.3,239.6,121.1,247.2,118.9,254.8z"/>
					<path d="M139.3,235.4c4,0.9,5.8,3.5,5.1,6.8c-1.2,5.5-2.3,11.1-3.5,16.6c-0.7,3.3-3.6,4.9-8,3.9c-4.4-1-6.3-3.8-5.5-7
						c1.4-5.5,2.8-11,4.3-16.5C132.5,236,135.3,234.4,139.3,235.4z M136.2,240.3c-1.3,5.5-2.6,11-4,16.5c-0.8,2,3.7,3.1,3.9,0.9
						c1.2-5.5,2.5-11,3.7-16.6C140.6,239.1,136.4,238.2,136.2,240.3z"/>
					<path d="M149.3,266c-4.5-0.8-6.4-3.4-5.8-6.7c0.3-1.5,0.6-3,0.9-4.5c1.5,0.3,3.1,0.6,4.6,0.9c-0.3,1.5-0.5,3-0.8,4.5
						c-0.2,1,0.6,1.8,1.9,2c1.2,0.2,2.1-0.2,2.2-1.1c0.1-0.8,0.3-1.6,0.4-2.4c0.7-4.3-7.8-6-6.3-13.4c0.2-1,0.4-1.9,0.6-2.9
						c0.7-3.2,3.2-4.8,7.2-4.1c4,0.7,5.8,3.1,5.4,6.5c-0.2,1.5-0.5,3-0.7,4.5c-1.5-0.2-3-0.5-4.5-0.7c0.3-1.5,0.5-3,0.8-4.5
						c0.2-1-0.5-1.7-1.6-1.9c-1.2-0.2-1.9,0.1-2,1.1c-0.2,0.9-0.3,1.9-0.5,2.8c-0.4,2.4,2.3,4.3,4.5,6.6c1.4,1.5,2.5,3.8,2.1,6.5
						c-0.1,0.8-0.2,1.6-0.4,2.5C156.6,265,153.8,266.7,149.3,266z"/>
					<path d="M168.6,240.8c2.2,0.3,4.4,0.5,6.6,0.7c4,0.4,6,2.5,5.7,5.9c-0.4,5.6-0.8,11.1-1.2,16.7c-0.2,3.3-2.7,5.2-7.1,4.8
						c-2.4-0.2-4.8-0.5-7.3-0.8C166.4,259,167.5,249.9,168.6,240.8z M176.3,247c0.1-1.1-0.4-1.7-1.5-1.8c-0.7-0.1-1.4-0.1-2.1-0.2
						c-0.7,6.6-1.4,13.2-2,19.9c0.8,0.1,1.5,0.2,2.3,0.2c1.2,0.1,1.8-0.4,1.9-1.4C175.4,258.1,175.8,252.5,176.3,247z"/>
					<path d="M194.9,246.4c-2.1,0-4.2-0.1-6.3-0.2c-0.1,2.7-0.2,5.4-0.4,8.1c1.8,0.1,3.6,0.1,5.4,0.2c0,1.3-0.1,2.5-0.1,3.8
						c-1.8,0-3.6-0.1-5.5-0.2c-0.1,2.7-0.2,5.4-0.4,8.1c2.3,0.1,4.5,0.2,6.8,0.2c0,1.3-0.1,2.5-0.1,3.8c-3.9-0.1-7.9-0.2-11.8-0.5
						c0.6-9.2,1.1-18.3,1.7-27.5c3.6,0.2,7.1,0.4,10.7,0.4C195,243.9,194.9,245.1,194.9,246.4z"/>
					<path d="M197.4,242.6c2.2,0,4.4,0,6.5,0c4-0.1,6.2,1.9,6.3,5.2c0.1,2.1,0.1,4.1,0.2,6.2c0.1,3.3-2,5.5-6.3,5.5
						c-0.7,0-1.4,0-2.2,0c0,3.5,0,7,0,10.5c-1.7,0-3.3,0-5,0C197.1,261,197.3,251.8,197.4,242.6z M205.6,248c0-1.1-0.6-1.6-1.7-1.6
						c-0.7,0-1.4,0-2.1,0c0,3.1,0,6.3,0,9.4c0.7,0,1.4,0,2.1,0c1.1,0,1.7-0.6,1.7-1.6C205.7,252.1,205.7,250.1,205.6,248z"/>
					<path d="M218.3,241.8c4.1-0.3,6.5,1.7,6.8,5c0.5,5.6,1,11.3,1.5,16.9c0.3,3.3-2,5.7-6.5,6c-4.5,0.3-7.1-1.8-7.2-5.1
						c-0.2-5.7-0.5-11.3-0.7-17C212,244.4,214.2,242.1,218.3,241.8z M216.8,247.5c0.3,5.7,0.7,11.3,1,17c-0.2,2.1,4.4,1.9,4-0.3
						c-0.4-5.6-0.8-11.3-1.2-16.9C220.6,245.1,216.4,245.4,216.8,247.5z"/>
					<path d="M244.7,266.9c-1.6,0.2-3.3,0.5-4.9,0.7c-0.7-3.2-1.4-6.4-2-9.5c-0.3-1.3-1.1-1.8-2.3-1.7c-0.5,0.1-1,0.1-1.5,0.2
						c0.4,3.9,0.9,7.7,1.4,11.6c-1.6,0.2-3.3,0.4-4.9,0.5c-0.9-9.1-1.8-18.3-2.7-27.4c2.3-0.2,4.5-0.5,6.8-0.8
						c3.9-0.5,6.1,1.2,6.6,4.3c0.2,1.4,0.4,2.8,0.6,4.2c0.4,2.4-0.3,4-2,5c1.3,0.4,2.2,1.5,2.7,3.2
						C243.1,260.5,243.9,263.7,244.7,266.9z M232.5,244.6c0.3,2.8,0.6,5.5,1,8.3c0.7-0.1,1.5-0.2,2.2-0.3c1.1-0.1,1.5-0.7,1.4-1.7
						c-0.2-1.8-0.5-3.5-0.7-5.3c-0.1-1-0.7-1.4-1.8-1.3C234,244.4,233.3,244.5,232.5,244.6z"/>
					<path d="M253.3,237.5c0.2,1.2,0.5,2.5,0.7,3.7c-1.2,0.2-2.3,0.5-3.5,0.7c1.4,7.8,2.9,15.6,4.3,23.4c-1.6,0.3-3.3,0.6-4.9,0.9
						c-1.3-7.8-2.6-15.6-3.9-23.4c-1.2,0.2-2.3,0.4-3.5,0.6c-0.2-1.2-0.4-2.5-0.6-3.7C245.7,238.9,249.5,238.2,253.3,237.5z"/>
					<path d="M266.9,238.3c-2.1,0.5-4.1,1-6.2,1.5c0.6,2.6,1.2,5.2,1.8,7.9c1.8-0.4,3.5-0.8,5.3-1.2c0.3,1.2,0.6,2.4,0.9,3.7
						c-1.8,0.4-3.6,0.9-5.4,1.3c0.6,2.6,1.2,5.3,1.8,7.9c2.2-0.5,4.4-1,6.6-1.6c0.3,1.2,0.6,2.4,0.9,3.7c-3.8,1-7.7,1.8-11.6,2.6
						c-1.9-9-3.7-18-5.6-27c3.5-0.7,7-1.5,10.5-2.4C266.3,235.9,266.6,237.1,266.9,238.3z"/>
					<path d="M281.4,259.3c-4.4,1.2-7.3-0.3-8.1-3.5c-0.4-1.5-0.8-2.9-1.1-4.4c1.5-0.4,3-0.8,4.5-1.2c0.4,1.5,0.8,2.9,1.2,4.4
						c0.3,1,1.3,1.3,2.5,1c1.2-0.3,1.8-1.1,1.6-1.9c-0.2-0.8-0.5-1.6-0.7-2.3c-1.2-4.2-9.7-2-11.5-9.3c-0.2-1-0.5-1.9-0.7-2.9
						c-0.8-3.2,0.8-5.7,4.8-6.8c3.9-1.1,6.7,0.3,7.7,3.5c0.4,1.5,0.9,2.9,1.3,4.4c-1.5,0.4-2.9,0.9-4.4,1.3
						c-0.4-1.5-0.8-2.9-1.3-4.4c-0.3-0.9-1.2-1.3-2.3-1c-1.2,0.3-1.6,0.9-1.4,1.9c0.3,0.9,0.5,1.8,0.8,2.8c0.7,2.4,4,2.9,6.9,4
						c2,0.7,3.9,2.4,4.7,5c0.2,0.8,0.5,1.6,0.7,2.4C287.7,255.2,285.8,258,281.4,259.3z"/>
				</g>
			</g>
		</g>
		<g>
			<g>
				<path d="M285.6,165.2c-2.7-0.6-5.3,1-6,3.6c-0.6,2.7,1,5.3,3.6,6c2.7,0.6,5.3-1,6-3.7C289.9,168.5,288.2,165.8,285.6,165.2z
					 M280.1,168.9c0.3-1.4,1.3-2.5,2.5-3c-0.3,0.3-0.5,0.7-0.6,1.2c-0.1,0.7,0,1.3,0.3,2c0.3,0.6,0.4,1.1,0.3,1.7
					c-0.2,0.6-0.6,1.2-1.2,1.5c-0.2,0.1-0.4,0.2-0.6,0.2C280,171.5,279.8,170.2,280.1,168.9z M281,172.8c0.2,0,0.3-0.1,0.5-0.2
					c0.7-0.4,1.2-1,1.4-1.8c0.2-0.7,0.1-1.3-0.3-2c-0.3-0.6-0.4-1.1-0.3-1.7c0.1-0.6,0.5-1.1,1-1.4c0.2-0.1,0.4-0.2,0.6-0.3
					c0.5-0.1,1,0,1.5,0.1c0.5,0.1,1,0.3,1.4,0.6c0.2,0.1,0.3,0.3,0.4,0.5c0.3,0.5,0.4,1.1,0.3,1.7c-0.2,0.6-0.5,1-1,1.4
					c-0.6,0.4-1,1-1.2,1.6c-0.2,0.8,0,1.6,0.4,2.2c0.1,0.1,0.2,0.3,0.4,0.4c-0.9,0.4-1.8,0.5-2.8,0.2
					C282.4,174.1,281.5,173.5,281,172.8z M286.6,173.9c-0.2-0.1-0.3-0.3-0.4-0.4c-0.4-0.5-0.5-1.2-0.4-1.9c0.1-0.6,0.5-1,1-1.4
					c0.6-0.4,1-1,1.2-1.6c0.1-0.4,0.1-0.9,0-1.3c0.8,1,1.2,2.4,0.8,3.8C288.4,172.3,287.6,173.3,286.6,173.9z"/>
				<path d="M284.4,175.4C284.4,175.4,284.4,175.4,284.4,175.4c-0.4,0-0.9-0.1-1.3-0.2c-1.4-0.3-2.6-1.2-3.3-2.4
					c-0.7-1.2-1-2.7-0.6-4.1c0.6-2.4,2.7-4.1,5.2-4.1c0.4,0,0.9,0.1,1.3,0.2c1.4,0.3,2.6,1.2,3.3,2.4c0.7,1.2,1,2.7,0.6,4.1
					C289,173.7,286.9,175.4,284.4,175.4z M281.7,173c0.5,0.5,1.1,0.8,1.8,0.9c0.7,0.2,1.4,0.2,2,0c-0.5-0.7-0.7-1.7-0.5-2.5
					c0.2-0.8,0.6-1.4,1.3-1.8c0.5-0.3,0.7-0.7,0.9-1.2c0.1-0.5,0.1-1-0.2-1.4c-0.1-0.2-0.2-0.3-0.3-0.4c-0.3-0.2-0.8-0.4-1.2-0.5
					c-0.5-0.1-0.9-0.1-1.4-0.1c-0.1,0-0.3,0.1-0.4,0.2c-0.4,0.3-0.7,0.7-0.8,1.1c-0.1,0.5,0,0.9,0.2,1.4c0.4,0.8,0.5,1.5,0.3,2.2
					C283,171.8,282.5,172.6,281.7,173z M288.3,168.8c-0.2,0.7-0.6,1.3-1.3,1.7c-0.5,0.3-0.7,0.7-0.8,1.1c-0.1,0.5,0,1.1,0.3,1.5
					c0,0.1,0.1,0.1,0.1,0.2c0.9-0.6,1.5-1.4,1.7-2.4C288.5,170.2,288.5,169.5,288.3,168.8z M281.5,167.2c-0.5,0.5-0.9,1.2-1,1.9
					c-0.2,1-0.1,2.1,0.4,3c0.1,0,0.1-0.1,0.2-0.1c0.5-0.3,0.9-0.7,1-1.2c0.1-0.5,0-0.9-0.2-1.4C281.5,168.6,281.4,167.9,281.5,167.2
					z"/>
			</g>
			<g>
				<path d="M110.8,171.2c0.6,2.7,3.3,4.3,6,3.7c2.7-0.6,4.3-3.3,3.6-6c-0.6-2.7-3.3-4.3-6-3.6C111.8,165.8,110.1,168.5,110.8,171.2
					z M119.3,172.5c-0.2,0-0.4-0.1-0.6-0.2c-0.6-0.3-1-0.9-1.2-1.5c-0.1-0.6-0.1-1.1,0.3-1.7c0.4-0.7,0.5-1.3,0.3-2
					c-0.1-0.4-0.3-0.9-0.6-1.2c1.2,0.6,2.1,1.6,2.5,3C120.2,170.2,120,171.5,119.3,172.5z M116.6,174.3c-1,0.2-2,0.1-2.8-0.2
					c0.1-0.1,0.3-0.3,0.4-0.4c0.5-0.6,0.6-1.4,0.4-2.2c-0.2-0.7-0.5-1.2-1.2-1.6c-0.5-0.4-0.9-0.8-1-1.4c-0.2-0.6-0.1-1.2,0.3-1.7
					c0.1-0.2,0.3-0.4,0.4-0.5c0.4-0.3,0.9-0.5,1.4-0.6c0.5-0.1,1-0.2,1.5-0.1c0.2,0.1,0.4,0.1,0.6,0.3c0.5,0.3,0.9,0.8,1,1.4
					c0.1,0.6,0,1.1-0.3,1.7c-0.3,0.7-0.4,1.3-0.3,2c0.2,0.8,0.7,1.4,1.4,1.8c0.2,0.1,0.3,0.1,0.5,0.2
					C118.5,173.5,117.6,174.1,116.6,174.3z M111.2,171c-0.3-1.4,0-2.8,0.8-3.8c-0.1,0.4-0.1,0.9,0,1.3c0.2,0.7,0.6,1.2,1.2,1.6
					c0.5,0.4,0.9,0.8,1,1.4c0.2,0.6,0,1.3-0.4,1.9c-0.1,0.2-0.3,0.3-0.4,0.4C112.4,173.3,111.6,172.3,111.2,171z"/>
				<path d="M115.6,175.4c-2.5,0-4.6-1.7-5.2-4.1c-0.3-1.4-0.1-2.8,0.6-4.1c0.7-1.2,1.9-2.1,3.3-2.4c0.4-0.1,0.8-0.2,1.3-0.2
					c2.5,0,4.6,1.7,5.2,4.1c0.3,1.4,0.1,2.8-0.6,4.1c-0.7,1.2-1.9,2.1-3.3,2.4C116.4,175.3,116,175.4,115.6,175.4z M114.5,173.9
					c0.7,0.2,1.4,0.2,2,0c0.7-0.2,1.3-0.5,1.8-0.9c-0.8-0.4-1.4-1.1-1.6-2c-0.2-0.8-0.1-1.5,0.3-2.2c0.3-0.5,0.3-1,0.2-1.4
					c-0.1-0.5-0.4-0.9-0.8-1.1c-0.2-0.1-0.3-0.2-0.5-0.2c-0.1,0-0.2,0-0.4,0c-0.3,0-0.6,0-1,0.1c-0.5,0.1-0.9,0.3-1.3,0.6
					c-0.1,0.1-0.2,0.2-0.3,0.4c-0.3,0.4-0.3,0.9-0.2,1.4c0.1,0.5,0.4,0.8,0.9,1.2c0.7,0.5,1.1,1.1,1.3,1.8
					C115.2,172.3,115.1,173.2,114.5,173.9z M111.7,168.8c-0.2,0.7-0.2,1.4-0.1,2.1c0.2,1,0.9,1.9,1.7,2.4c0.1-0.1,0.1-0.1,0.1-0.2
					c0.3-0.5,0.4-1,0.3-1.5c-0.1-0.5-0.4-0.8-0.8-1.1C112.3,170.1,111.9,169.5,111.7,168.8z M118.5,167.2c0.1,0.7,0,1.4-0.4,2.1
					c-0.3,0.5-0.3,0.9-0.2,1.4c0.1,0.5,0.5,1,1,1.2c0.1,0,0.1,0.1,0.2,0.1c0.5-0.9,0.7-2,0.4-3C119.4,168.3,119,167.7,118.5,167.2z"
					/>
			</g>
		</g>
	</g>
	<g>
		<g>
			<path class="st0" d="M311.5,253.7l-15.9-13.9c0,0,4-13.5,6.1-20.4C277,230,241,236.6,201,236.6c-41.7,0-79-7.2-103.8-18.5l8,22.8
				L87.9,255c0,0,4.7,2.2,13,5.2c30.5,9.6,109.9,28.8,191.5,1.6c0.4-0.1,0.9-0.2,1.4-0.3C299.7,259.2,305.6,256.6,311.5,253.7z"/>
		</g>
		<g>
			<path class="st0" d="M88.5,161.1l15.9,13.9c0,0-4,13.5-6.1,20.4C123,184.8,159,178.2,199,178.2c41.7,0,79,7.2,103.8,18.5l-8-22.8
				l17.3-14.1c0,0-4.7-2.2-13-5.2c-30.5-9.6-109.9-28.8-191.5-1.6c-0.4,0.1-0.9,0.2-1.4,0.3C100.3,155.6,94.4,158.2,88.5,161.1z"/>
		</g>
		<g>
			<g>
				<g>
					<path class="st1" d="M135.4,154.3c-2.2,0.4-4.4,0.8-6.6,1.3c0.6,2.6,1.1,5.3,1.7,7.9c1.8-0.4,3.6-0.7,5.3-1.1
						c0.2,1.2,0.5,2.5,0.7,3.7c-1.8,0.3-3.5,0.7-5.3,1.1c0.6,2.7,1.1,5.3,1.7,8c2.1-0.4,4.1-0.8,6.2-1.2c0.2,1.2,0.5,2.5,0.7,3.7
						c-3.5,0.7-7,1.4-10.5,2.2c-2-9-4-18-6-27c3.8-0.8,7.6-1.6,11.4-2.4C134.9,151.8,135.1,153.1,135.4,154.3z"/>
					<path class="st1" d="M146,172.8c2-0.3,4.1-0.7,6.1-1c0.2,1.3,0.4,2.5,0.6,3.8c-3.5,0.5-7,1.1-10.5,1.7
						c-1.6-9.1-3.3-18.1-4.9-27.2c1.6-0.3,3.2-0.6,4.8-0.8C143.4,157.1,144.7,165,146,172.8z"/>
					<path class="st1" d="M168.1,145.9c0.1,1.3,0.2,2.5,0.3,3.8c-1.2,0.1-2.5,0.2-3.7,0.4c0.8,7.9,1.6,15.8,2.4,23.7
						c-1.5,0.2-3,0.3-4.5,0.5c-0.9-7.9-1.8-15.8-2.8-23.7c-1.2,0.1-2.5,0.3-3.7,0.5c-0.2-1.3-0.3-2.5-0.5-3.8
						C159.9,146.7,164,146.3,168.1,145.9z"/>
					<path class="st1" d="M180.3,172.7c-0.5-2.2-0.9-4.5-1.4-6.7c-1.2,0.1-2.5,0.2-3.7,0.3c-0.2,2.3-0.3,4.5-0.4,6.8
						c-1.5,0.1-3,0.2-4.4,0.4c0.8-9.4,1.8-18.8,2.9-28.2c1.6-0.1,3.2-0.2,4.9-0.3c2.4,9.2,4.7,18.3,6.8,27.5
						C183.3,172.5,181.8,172.6,180.3,172.7z M175.5,162.5c0.9-0.1,1.7-0.1,2.6-0.2c-0.6-2.9-1.3-5.9-1.9-8.8
						C175.9,156.5,175.7,159.5,175.5,162.5z"/>
					<path class="st1" d="M191,168.4c2.1-0.1,4.1-0.1,6.2-0.1c0,1.3,0,2.5,0,3.8c-3.5,0-7.1,0.1-10.6,0.3
						c-0.4-9.2-0.8-18.4-1.2-27.6c1.6-0.1,3.2-0.1,4.9-0.2C190.6,152.5,190.8,160.5,191,168.4z"/>
					<path class="st1" d="M203.7,168.3c2.1,0,4.1,0.1,6.2,0.1c0,1.3-0.1,2.5-0.1,3.8c-3.5-0.1-7.1-0.1-10.6-0.1
						c0-9.2-0.1-18.4-0.1-27.7c1.6,0,3.3,0,4.9,0C203.9,152.4,203.8,160.3,203.7,168.3z"/>
					<path class="st1" d="M224,149c-2.2-0.1-4.4-0.3-6.6-0.4c-0.1,2.7-0.3,5.4-0.4,8.1c1.8,0.1,3.6,0.2,5.4,0.3
						c-0.1,1.3-0.2,2.5-0.2,3.8c-1.8-0.1-3.6-0.2-5.3-0.3c-0.1,2.7-0.3,5.4-0.4,8.2c2.1,0.1,4.2,0.2,6.3,0.4
						c-0.1,1.3-0.2,2.5-0.3,3.8c-3.6-0.2-7.1-0.4-10.7-0.5c0.3-9.2,0.6-18.4,0.9-27.6c3.9,0.1,7.7,0.3,11.6,0.6
						C224.2,146.5,224.1,147.7,224,149z"/>
					<path class="st1" d="M237.9,174.2c-1.5-0.2-3-0.3-4.5-0.5c0.1-3.3,0.2-6.5,0.2-9.8c0-1.3-0.6-2-1.8-2.1c-0.5,0-1-0.1-1.5-0.1
						c-0.3,3.9-0.7,7.8-1,11.7c-1.5-0.1-3-0.3-4.5-0.4c0.7-9.2,1.4-18.4,2-27.6c2.5,0.2,4.9,0.4,7.4,0.6c4.3,0.4,6.1,2.7,5.7,5.8
						c-0.2,1.4-0.3,2.8-0.5,4.2c-0.3,2.4-1.3,3.8-3.2,4.4c1.2,0.8,1.7,2,1.7,3.8C238,167.6,237.9,170.9,237.9,174.2z M231.4,149.6
						c-0.2,2.8-0.5,5.6-0.7,8.3c0.7,0.1,1.5,0.1,2.2,0.2c1.1,0.1,1.7-0.4,1.8-1.3c0.2-1.8,0.4-3.6,0.5-5.3c0.1-1-0.4-1.6-1.5-1.7
						C232.9,149.7,232.2,149.6,231.4,149.6z"/>
					<path class="st1" d="M249.7,147.8c2.4,0.3,4.7,0.7,7.1,1.1c4.3,0.7,6.2,3.1,5.6,6.4c-1,5.5-2,11-3,16.6c-0.6,3.3-3,4.9-7,4.3
						c-2.2-0.3-4.4-0.7-6.5-1C247.2,166.1,248.4,157,249.7,147.8z M257.7,154.5c0.2-1-0.3-1.7-1.5-1.9c-0.7-0.1-1.5-0.2-2.2-0.4
						c-1,6.6-2,13.2-3,19.8c0.7,0.1,1.4,0.2,2.1,0.3c1.1,0.2,1.7-0.3,1.9-1.3C255.8,165.6,256.8,160.1,257.7,154.5z"/>
					<path class="st1" d="M277.2,156.7c-2.2-0.5-4.4-1-6.5-1.4c-0.5,2.6-1.1,5.3-1.6,7.9c1.8,0.4,3.6,0.7,5.3,1.1
						c-0.3,1.2-0.5,2.5-0.8,3.7c-1.8-0.4-3.5-0.8-5.3-1.1c-0.5,2.7-1.1,5.3-1.6,8c2.1,0.4,4.1,0.9,6.2,1.3c-0.3,1.2-0.6,2.5-0.8,3.7
						c-3.5-0.8-7-1.5-10.5-2.2c1.7-9.1,3.4-18.1,5.1-27.2c3.8,0.7,7.6,1.5,11.4,2.4C277.7,154.2,277.4,155.4,277.2,156.7z"/>
				</g>
				<g>
					<path class="st1" d="M118.8,255.2c2.2,0.6,4.3,1.2,6.5,1.8c-0.3,1.2-0.6,2.4-1,3.7c-3.8-1-7.6-2.1-11.4-3.3
						c2.7-8.8,5.4-17.6,8.1-26.4c1.5,0.4,2.9,0.9,4.4,1.3C123.3,239.9,121,247.6,118.8,255.2z"/>
					<path class="st1" d="M139.3,235.7c4,0.9,5.8,3.5,5.1,6.8c-1.2,5.6-2.3,11.1-3.5,16.7c-0.7,3.3-3.6,4.9-8.1,3.9
						c-4.5-1-6.4-3.8-5.5-7.1c1.4-5.5,2.8-11,4.3-16.5C132.5,236.3,135.3,234.7,139.3,235.7z M136.2,240.6c-1.3,5.5-2.7,11.1-4,16.6
						c-0.8,2,3.7,3.1,3.9,0.9c1.3-5.5,2.5-11.1,3.8-16.7C140.6,239.5,136.4,238.5,136.2,240.6z"/>
					<path class="st1" d="M149.3,266.4c-4.5-0.8-6.5-3.4-5.8-6.7c0.3-1.5,0.6-3,0.9-4.5c1.5,0.3,3.1,0.6,4.6,0.9
						c-0.3,1.5-0.5,3-0.8,4.5c-0.2,1,0.6,1.8,1.9,2c1.2,0.2,2.1-0.2,2.3-1.1c0.1-0.8,0.3-1.6,0.4-2.4c0.7-4.3-7.9-6-6.3-13.4
						c0.2-1,0.4-1.9,0.6-2.9c0.7-3.3,3.2-4.8,7.3-4.1c4,0.7,5.9,3.2,5.4,6.5c-0.2,1.5-0.5,3-0.7,4.5c-1.5-0.2-3-0.5-4.5-0.7
						c0.3-1.5,0.5-3,0.8-4.5c0.2-1-0.5-1.7-1.6-1.9c-1.2-0.2-1.9,0.1-2.1,1.1c-0.2,0.9-0.3,1.9-0.5,2.8c-0.5,2.4,2.3,4.4,4.5,6.7
						c1.5,1.5,2.5,3.9,2.1,6.6c-0.1,0.8-0.2,1.6-0.4,2.5C156.7,265.4,153.9,267.2,149.3,266.4z"/>
					<path class="st1" d="M168.8,241.1c2.2,0.3,4.4,0.5,6.6,0.7c4,0.4,6,2.6,5.8,5.9c-0.4,5.6-0.8,11.2-1.2,16.8
						c-0.2,3.3-2.7,5.3-7.2,4.8c-2.4-0.2-4.9-0.5-7.3-0.8C166.6,259.4,167.7,250.2,168.8,241.1z M176.5,247.3
						c0.1-1.1-0.4-1.7-1.5-1.8c-0.7-0.1-1.4-0.1-2.1-0.2c-0.7,6.7-1.4,13.3-2,20c0.8,0.1,1.5,0.2,2.3,0.2c1.2,0.1,1.8-0.4,1.9-1.5
						C175.5,258.5,176,252.9,176.5,247.3z"/>
					<path class="st1" d="M195.2,246.7c-2.1,0-4.2-0.1-6.3-0.2c-0.1,2.7-0.2,5.4-0.4,8.1c1.8,0.1,3.6,0.1,5.4,0.2
						c0,1.3-0.1,2.5-0.1,3.8c-1.8,0-3.7-0.1-5.5-0.2c-0.1,2.7-0.2,5.4-0.4,8.2c2.3,0.1,4.5,0.2,6.8,0.2c0,1.3-0.1,2.5-0.1,3.8
						c-4-0.1-7.9-0.2-11.8-0.5c0.6-9.2,1.1-18.4,1.7-27.6c3.6,0.2,7.2,0.4,10.8,0.4C195.2,244.2,195.2,245.5,195.2,246.7z"/>
					<path class="st1" d="M197.6,243c2.2,0,4.4,0,6.6,0c4-0.1,6.2,1.9,6.3,5.3c0.1,2.1,0.1,4.2,0.2,6.2c0.1,3.3-2.1,5.5-6.4,5.6
						c-0.7,0-1.4,0-2.2,0c0,3.5,0,7.1,0,10.6c-1.7,0-3.3,0-5,0C197.4,261.4,197.5,252.2,197.6,243z M205.9,248.4
						c0-1.1-0.6-1.6-1.7-1.6c-0.7,0-1.4,0-2.1,0c0,3.2,0,6.3,0,9.5c0.7,0,1.4,0,2.1,0c1.1,0,1.7-0.6,1.7-1.6
						C206,252.5,206,250.4,205.9,248.4z"/>
					<path class="st1" d="M218.7,242.2c4.1-0.3,6.6,1.7,6.9,5c0.5,5.7,1,11.3,1.5,17c0.3,3.3-2,5.7-6.6,6.1
						c-4.5,0.3-7.1-1.8-7.3-5.2c-0.2-5.7-0.5-11.4-0.7-17.1C212.4,244.7,214.6,242.4,218.7,242.2z M217.1,247.8
						c0.3,5.7,0.7,11.4,1,17c-0.2,2.2,4.4,1.9,4-0.3c-0.4-5.7-0.8-11.4-1.2-17C221,245.4,216.7,245.7,217.1,247.8z"/>
					<path class="st1" d="M245.2,267.4c-1.6,0.2-3.3,0.5-4.9,0.7c-0.7-3.2-1.4-6.4-2-9.6c-0.3-1.3-1.1-1.8-2.3-1.7
						c-0.5,0.1-1,0.1-1.5,0.2c0.5,3.9,0.9,7.7,1.4,11.6c-1.7,0.2-3.3,0.4-5,0.5c-0.9-9.2-1.8-18.3-2.8-27.5c2.3-0.2,4.5-0.5,6.8-0.8
						c4-0.5,6.1,1.2,6.6,4.4c0.2,1.4,0.4,2.8,0.6,4.2c0.4,2.4-0.3,4-2,5c1.3,0.5,2.2,1.5,2.7,3.2
						C243.6,260.9,244.4,264.2,245.2,267.4z M233,244.9c0.3,2.8,0.7,5.5,1,8.3c0.7-0.1,1.5-0.2,2.2-0.3c1.1-0.1,1.6-0.7,1.4-1.7
						c-0.2-1.8-0.5-3.6-0.7-5.3c-0.1-1-0.7-1.4-1.8-1.3C234.4,244.7,233.7,244.8,233,244.9z"/>
					<path class="st1" d="M253.8,237.8c0.2,1.2,0.5,2.5,0.7,3.7c-1.2,0.2-2.3,0.5-3.5,0.7c1.4,7.8,2.9,15.6,4.3,23.5
						c-1.6,0.3-3.3,0.6-4.9,0.9c-1.3-7.8-2.6-15.7-4-23.5c-1.2,0.2-2.4,0.4-3.5,0.6c-0.2-1.2-0.4-2.5-0.6-3.7
						C246.2,239.2,250,238.5,253.8,237.8z"/>
					<path class="st1" d="M267.5,238.6c-2.1,0.5-4.1,1-6.2,1.5c0.6,2.6,1.2,5.3,1.8,7.9c1.8-0.4,3.5-0.8,5.3-1.3
						c0.3,1.2,0.6,2.5,0.9,3.7c-1.8,0.4-3.6,0.9-5.4,1.3c0.6,2.7,1.2,5.3,1.8,8c2.2-0.5,4.4-1,6.7-1.6c0.3,1.2,0.6,2.5,0.9,3.7
						c-3.9,1-7.7,1.8-11.6,2.7c-1.9-9-3.7-18.1-5.6-27.1c3.5-0.7,7.1-1.5,10.6-2.4C266.9,236.2,267.2,237.4,267.5,238.6z"/>
					<path class="st1" d="M282.1,259.7c-4.4,1.2-7.3-0.3-8.2-3.5c-0.4-1.5-0.8-3-1.1-4.4c1.5-0.4,3-0.8,4.6-1.2
						c0.4,1.5,0.8,2.9,1.2,4.4c0.3,1,1.3,1.3,2.5,1c1.2-0.3,1.8-1.1,1.6-1.9c-0.2-0.8-0.5-1.6-0.7-2.4c-1.2-4.2-9.7-2-11.6-9.3
						c-0.2-1-0.5-1.9-0.7-2.9c-0.8-3.2,0.8-5.7,4.8-6.8c3.9-1.1,6.7,0.3,7.7,3.5c0.4,1.5,0.9,2.9,1.3,4.4c-1.5,0.5-2.9,0.9-4.4,1.3
						c-0.4-1.5-0.9-2.9-1.3-4.4c-0.3-0.9-1.2-1.3-2.3-1c-1.2,0.3-1.6,0.9-1.4,1.9c0.3,0.9,0.5,1.9,0.8,2.8c0.7,2.4,4,2.9,7,4.1
						c2,0.7,3.9,2.4,4.7,5c0.2,0.8,0.5,1.6,0.7,2.4C288.4,255.6,286.5,258.4,282.1,259.7z"/>
				</g>
			</g>
		</g>
		<g>
			<g>
				<path class="st1" d="M286.3,164.3c-2.7-0.6-5.4,1-6,3.7c-0.6,2.7,1,5.4,3.7,6c2.7,0.6,5.4-1,6-3.7
					C290.6,167.7,288.9,165,286.3,164.3z M280.7,168.1c0.3-1.4,1.3-2.5,2.5-3c-0.3,0.3-0.5,0.7-0.6,1.2c-0.1,0.7,0,1.3,0.3,2
					c0.3,0.6,0.4,1.1,0.3,1.7c-0.2,0.6-0.6,1.2-1.2,1.5c-0.2,0.1-0.4,0.2-0.6,0.2C280.7,170.7,280.4,169.4,280.7,168.1z M281.6,172
					c0.2,0,0.3-0.1,0.5-0.2c0.7-0.4,1.2-1,1.4-1.8c0.2-0.7,0.1-1.3-0.3-2c-0.3-0.6-0.4-1.1-0.3-1.7c0.1-0.6,0.5-1.1,1-1.4
					c0.2-0.1,0.4-0.2,0.6-0.3c0.5-0.1,1,0,1.5,0.1c0.5,0.1,1,0.3,1.4,0.6c0.2,0.1,0.3,0.3,0.4,0.5c0.3,0.5,0.4,1.1,0.3,1.7
					c-0.2,0.6-0.5,1-1,1.4c-0.6,0.4-1,1-1.2,1.6c-0.2,0.8,0,1.6,0.4,2.2c0.1,0.1,0.2,0.3,0.4,0.4c-0.9,0.4-1.9,0.5-2.8,0.2
					C283,173.3,282.2,172.7,281.6,172z M287.3,173.1c-0.2-0.1-0.3-0.3-0.4-0.4c-0.4-0.6-0.5-1.2-0.4-1.9c0.1-0.6,0.5-1,1-1.4
					c0.6-0.4,1-1,1.2-1.6c0.1-0.4,0.1-0.9,0-1.3c0.8,1,1.2,2.4,0.8,3.8C289.1,171.5,288.3,172.5,287.3,173.1z"/>
				<path class="st1" d="M285.1,174.6L285.1,174.6c-0.4,0-0.9-0.1-1.3-0.2c-1.4-0.3-2.6-1.2-3.3-2.4c-0.8-1.2-1-2.7-0.6-4.1
					c0.6-2.4,2.7-4.1,5.2-4.1c0.4,0,0.9,0.1,1.3,0.2c1.4,0.3,2.6,1.2,3.3,2.4c0.7,1.2,1,2.7,0.6,4.1
					C289.7,172.9,287.6,174.6,285.1,174.6z M282.3,172.2c0.5,0.5,1.1,0.8,1.8,1c0.7,0.2,1.4,0.2,2,0c-0.5-0.7-0.7-1.7-0.5-2.5
					c0.2-0.8,0.6-1.4,1.3-1.9c0.5-0.3,0.7-0.7,0.9-1.2c0.1-0.5,0.1-1-0.2-1.4c-0.1-0.2-0.2-0.3-0.3-0.4c-0.3-0.2-0.8-0.4-1.2-0.5
					c-0.5-0.1-0.9-0.1-1.4-0.1c-0.1,0-0.3,0.1-0.4,0.2c-0.4,0.3-0.7,0.7-0.8,1.1c-0.1,0.5,0,0.9,0.2,1.5c0.4,0.8,0.5,1.5,0.3,2.3
					C283.7,171,283.1,171.8,282.3,172.2z M289,168c-0.2,0.7-0.6,1.3-1.3,1.7c-0.5,0.3-0.7,0.7-0.8,1.1c-0.1,0.5,0,1.1,0.3,1.5
					c0,0.1,0.1,0.1,0.1,0.2c0.9-0.6,1.5-1.4,1.7-2.5C289.2,169.4,289.2,168.7,289,168z M282.2,166.3c-0.5,0.5-0.9,1.2-1,1.9
					c-0.2,1-0.1,2.1,0.4,3c0.1,0,0.1-0.1,0.2-0.1c0.5-0.3,0.9-0.7,1-1.2c0.1-0.5,0-0.9-0.2-1.4C282.2,167.7,282,167.1,282.2,166.3z"
					/>
			</g>
			<g>
				<path class="st1" d="M110.6,170.3c0.6,2.7,3.3,4.3,6,3.7c2.7-0.6,4.3-3.3,3.7-6c-0.6-2.7-3.3-4.3-6-3.7
					C111.6,165,110,167.7,110.6,170.3z M119.2,171.7c-0.2,0-0.4-0.1-0.6-0.2c-0.6-0.3-1-0.9-1.2-1.5c-0.1-0.6-0.1-1.1,0.3-1.7
					c0.4-0.7,0.5-1.3,0.3-2c-0.1-0.5-0.3-0.9-0.6-1.2c1.2,0.6,2.1,1.6,2.5,3C120.2,169.4,119.9,170.7,119.2,171.7z M116.5,173.5
					c-1,0.2-2,0.1-2.8-0.2c0.1-0.1,0.3-0.3,0.4-0.4c0.5-0.6,0.6-1.5,0.4-2.2c-0.2-0.7-0.5-1.2-1.2-1.6c-0.5-0.4-0.9-0.8-1-1.4
					c-0.2-0.6-0.1-1.2,0.3-1.7c0.1-0.2,0.3-0.4,0.4-0.5c0.4-0.3,0.9-0.5,1.4-0.6c0.5-0.1,1-0.2,1.5-0.1c0.2,0.1,0.4,0.1,0.6,0.3
					c0.5,0.3,0.9,0.8,1,1.4c0.1,0.6,0,1.1-0.3,1.7c-0.4,0.7-0.4,1.3-0.3,2c0.2,0.8,0.7,1.4,1.4,1.8c0.2,0.1,0.3,0.1,0.5,0.2
					C118.4,172.7,117.5,173.3,116.5,173.5z M111.1,170.2c-0.3-1.4,0-2.8,0.8-3.8c-0.1,0.4-0.1,0.9,0,1.3c0.2,0.7,0.6,1.2,1.2,1.6
					c0.5,0.4,0.9,0.8,1,1.4c0.2,0.6,0,1.3-0.4,1.9c-0.1,0.2-0.3,0.3-0.4,0.4C112.3,172.5,111.4,171.5,111.1,170.2z"/>
				<path class="st1" d="M115.5,174.6c-2.5,0-4.7-1.7-5.2-4.1c-0.3-1.4-0.1-2.8,0.6-4.1c0.8-1.2,1.9-2.1,3.3-2.4
					c0.4-0.1,0.8-0.2,1.3-0.2c2.5,0,4.6,1.7,5.2,4.1c0.3,1.4,0.1,2.8-0.6,4.1c-0.8,1.2-1.9,2.1-3.3,2.4
					C116.3,174.5,115.9,174.6,115.5,174.6z M114.4,173.1c0.7,0.2,1.4,0.2,2,0c0.7-0.2,1.3-0.5,1.8-1c-0.8-0.4-1.4-1.2-1.6-2
					c-0.2-0.8-0.1-1.5,0.3-2.3c0.3-0.5,0.3-1,0.2-1.5c-0.1-0.5-0.4-0.9-0.8-1.1c-0.2-0.1-0.3-0.2-0.5-0.2c-0.1,0-0.2,0-0.4,0
					c-0.3,0-0.6,0-1,0.1c-0.5,0.1-0.9,0.3-1.3,0.6c-0.1,0.1-0.2,0.2-0.3,0.4c-0.3,0.4-0.3,0.9-0.2,1.4c0.1,0.5,0.4,0.9,0.9,1.2
					c0.7,0.5,1.1,1.1,1.3,1.9C115.1,171.4,114.9,172.4,114.4,173.1z M111.6,168c-0.2,0.7-0.2,1.4-0.1,2.1c0.2,1,0.9,1.9,1.7,2.5
					c0.1-0.1,0.1-0.1,0.1-0.2c0.3-0.5,0.4-1,0.3-1.5c-0.1-0.5-0.4-0.8-0.8-1.1C112.2,169.2,111.8,168.7,111.6,168z M118.4,166.3
					c0.1,0.7,0,1.4-0.4,2.1c-0.3,0.5-0.3,1-0.2,1.4c0.1,0.5,0.5,1,1,1.2c0.1,0,0.1,0.1,0.2,0.1c0.5-0.9,0.7-2,0.4-3
					C119.3,167.5,118.9,166.8,118.4,166.3z"/>
			</g>
		</g>
	</g>
</g>
</svg>
