<?xml version="1.0" encoding="utf-8"?>
<!-- Generator: Adobe Illustrator 15.0.0, SVG Export Plug-In . SVG Version: 6.00 Build 0)  -->
<!DOCTYPE svg PUBLIC "-//W3C//DTD SVG 1.1//EN" "http://www.w3.org/Graphics/SVG/1.1/DTD/svg11.dtd">
<svg version="1.1" id="Layer_1" xmlns="http://www.w3.org/2000/svg" xmlns:xlink="http://www.w3.org/1999/xlink" x="0px" y="0px"
	 width="200px" height="200px" viewBox="0 0 200 200" enable-background="new 0 0 200 200" xml:space="preserve">
<g>
	<path d="M121.112,156.073c-0.223,0.227-0.503,0.34-0.836,0.34s-0.608-0.113-0.829-0.332c-0.22-0.222-0.333-0.496-0.333-0.832
		c0-0.332,0.113-0.61,0.34-0.834c0.224-0.226,0.503-0.339,0.835-0.339c0.334,0,0.609,0.112,0.833,0.333
		c0.22,0.221,0.331,0.498,0.331,0.83C121.453,155.572,121.34,155.851,121.112,156.073 M120.289,156.159
		c0.261,0,0.475-0.082,0.639-0.255c0.167-0.173,0.252-0.389,0.252-0.655c0-0.266-0.085-0.484-0.254-0.661
		c-0.173-0.177-0.385-0.264-0.649-0.264c-0.257,0-0.47,0.087-0.638,0.256c-0.167,0.175-0.249,0.394-0.249,0.659
		s0.084,0.488,0.254,0.662C119.814,156.073,120.031,156.159,120.289,156.159 M119.807,155.851v-1.263h0.512
		c0.165,0,0.291,0.034,0.381,0.11c0.089,0.071,0.135,0.181,0.135,0.327c0,0.174-0.07,0.3-0.211,0.375l0.219,0.45h-0.381l-0.194-0.4
		h-0.1v0.4H119.807z M120.167,155.189h0.135c0.115,0,0.174-0.049,0.174-0.144c0-0.092-0.059-0.139-0.174-0.139h-0.135V155.189z"/>
	<path d="M105.746,125.676l2.132-2.031l3.01,3.155c-0.066,0.048-0.129,0.097-0.186,0.152c-0.332,0.315-0.52,0.738-0.528,1.195
		c-0.013,0.454,0.155,0.888,0.47,1.216c0.345,0.36,0.827,0.554,1.325,0.525c0.404-0.02,0.79-0.188,1.087-0.467
		c0.056-0.056,0.11-0.115,0.16-0.179l3.012,3.155l-2.13,2.032L105.746,125.676z"/>
	<polygon points="109.093,123.136 110.885,121.425 118.584,129.503 116.794,131.207 	"/>
	<path d="M94.242,125.676l-2.133-2.031l-3.007,3.155c0.063,0.048,0.128,0.097,0.185,0.152c0.331,0.315,0.52,0.738,0.529,1.195
		c0.01,0.454-0.156,0.888-0.469,1.216c-0.346,0.36-0.828,0.554-1.327,0.525c-0.406-0.02-0.79-0.188-1.085-0.467
		c-0.058-0.056-0.112-0.115-0.163-0.179l-3.009,3.155l2.129,2.032L94.242,125.676z"/>
	<polygon points="90.897,123.136 89.105,121.425 81.403,129.503 83.194,131.207 	"/>
	<path d="M94.141,131.263l-1.604-1.518l-2.598,2.809l1.723,1.632C92.272,133.051,93.119,132.057,94.141,131.263"/>
	<path d="M118.582,151.638c-0.044-1.483-0.664-2.864-1.747-3.883c-0.955-0.897-2.202-1.432-3.513-1.503
		c-0.806-0.041-1.624,0.092-2.37,0.392l-0.327,0.234l-3.173-3.006c-0.413,0.532-0.883,1.026-1.409,1.464v2.47l1.988,1.884
		l-0.286,0.373c-0.678,2.042-0.103,4.318,1.467,5.793c0.955,0.901,2.203,1.435,3.511,1.505c1.64,0.087,3.226-0.548,4.351-1.742
		C118.091,154.536,118.626,153.122,118.582,151.638 M115.515,154.15c-0.693,0.736-1.667,1.128-2.677,1.074
		c-0.806-0.044-1.572-0.374-2.161-0.927c-0.664-0.627-1.047-1.476-1.074-2.389c-0.028-0.913,0.302-1.782,0.928-2.448
		c0.694-0.735,1.669-1.125,2.677-1.071c0.807,0.044,1.572,0.372,2.162,0.925c0.665,0.626,1.047,1.475,1.073,2.389
		C116.472,152.615,116.141,153.484,115.515,154.15"/>
	<path d="M91.957,149.689l1.938-1.837v-2.517c-0.516-0.429-0.979-0.913-1.388-1.437l-3.145,2.979l-0.325-0.234
		c-0.747-0.3-1.568-0.433-2.374-0.392c-1.307,0.071-2.556,0.605-3.512,1.503c-1.081,1.019-1.701,2.399-1.747,3.883
		c-0.046,1.484,0.491,2.898,1.51,3.98c1.123,1.194,2.708,1.829,4.349,1.742c1.308-0.07,2.555-0.604,3.512-1.505
		c1.566-1.475,2.145-3.751,1.467-5.793L91.957,149.689z M90.386,151.909c-0.027,0.913-0.41,1.762-1.076,2.389
		c-0.589,0.553-1.355,0.883-2.161,0.927c-1.008,0.054-1.984-0.338-2.675-1.074c-0.627-0.666-0.958-1.535-0.929-2.447
		c0.027-0.914,0.41-1.763,1.076-2.389c0.587-0.553,1.356-0.881,2.16-0.925c1.009-0.054,1.986,0.336,2.677,1.071
		C90.083,150.127,90.413,150.996,90.386,151.909"/>
	<path d="M108.294,134.217l1.754-1.663l-2.598-2.809l-1.626,1.54C106.844,132.082,107.688,133.079,108.294,134.217"/>
	<path d="M96.941,136.307c-1.136,0-2.057,0.922-2.057,2.058c0,1.137,0.921,2.058,2.057,2.058c1.135,0,2.058-0.921,2.058-2.058
		C98.999,137.229,98.076,136.307,96.941,136.307"/>
	<path d="M102.984,136.307c-1.137,0-2.058,0.922-2.058,2.058c0,1.137,0.921,2.058,2.058,2.058c1.136,0,2.057-0.921,2.057-2.058
		C105.041,137.229,104.12,136.307,102.984,136.307"/>
	<path d="M97.661,149.846c-1.526,0-1.856,0.006-2.77,0.006v-5.008c-2.053-1.528-3.28-3.932-3.28-6.44
		c0-4.471,3.749-8.108,8.357-8.108c4.61,0,8.36,3.638,8.36,8.108c0,2.509-1.225,4.911-3.28,6.44v5.008c0,0-1.24-0.006-2.769-0.006
		H97.661z M103.109,145.486v3.088h0.649v-4.378l0.276-0.185c1.879-1.286,3.003-3.382,3.003-5.608c0-3.778-3.172-6.853-7.07-6.853
		c-3.896,0-7.067,3.074-7.067,6.853c0,2.227,1.122,4.322,3.005,5.608l0.274,0.185v4.378h0.649v-3.088h1.108v3.101h0.616v-3.101
		h1.105v3.101h0.619v-3.101h1.104v3.101h0.621v-3.101H103.109z"/>
	<path d="M99.963,141.677c-0.396,0-0.718,0.321-0.718,0.721s0.322,0.721,0.718,0.721c0.397,0,0.72-0.321,0.72-0.721
		S100.36,141.677,99.963,141.677"/>
</g>
<g>
	<g>
		<path d="M49.979,51.231c1.865-0.294,2.8-0.434,4.672-0.702c-0.008,0.822-0.011,1.23-0.02,2.056
			c-1.05,0.154-1.574,0.232-2.621,0.395c-0.007,1.44-0.013,2.202-0.013,3.636c0.752-0.117,1.125-0.173,1.877-0.284
			c0,0.887,0,1.316,0.002,2.17c-0.752,0.099-1.127,0.148-1.877,0.25c0.001,1.436,0.001,2.125,0.002,3.582
			c1.043-0.103,1.565-0.152,2.612-0.249c0.002,0.818,0.004,1.232,0.006,2.088c-1.864,0.149-2.792,0.227-4.641,0.396
			C49.979,58.999,49.979,56.711,49.979,51.231z"/>
		<path d="M55.79,50.368c0.82-0.114,1.229-0.172,2.049-0.282c-0.066,4.684-0.059,7.109-0.053,11.924
			c1.083-0.089,1.626-0.13,2.709-0.212c0.002,0.771,0.004,1.16,0.006,1.947c-1.907,0.127-2.857,0.196-4.751,0.342
			C55.743,58.393,55.728,55.801,55.79,50.368z"/>
		<path d="M63.648,47.576c0.021-1.092,0.03-1.643,0.05-2.759c3.175-0.362,4.763-0.527,7.935-0.821
			c-0.019,1.118-0.027,1.666-0.047,2.757c-1.041,0.096-1.558,0.145-2.597,0.248c-0.109,6.133-0.107,9.603-0.094,16.255
			c-1.101,0.055-1.652,0.083-2.75,0.145c-0.014-6.625-0.016-9.979,0.099-16.114C65.204,47.399,64.687,47.456,63.648,47.576z"/>
		<path d="M71.237,63.145c1.117-7.911,1.717-11.881,2.962-19.376c1.343-0.114,2.012-0.168,3.355-0.269
			c1.027,7.323,1.584,11.456,2.729,19.307c-1.076,0.03-1.613,0.049-2.688,0.085c-0.207-1.603-0.309-2.466-0.518-4.175
			c-1.062,0.052-1.593,0.08-2.657,0.139c-0.201,1.705-0.302,2.559-0.504,4.173C72.846,63.074,72.307,63.095,71.237,63.145z
			 M75.943,49.514c-0.028-0.184-0.043-0.275-0.072-0.459c-0.061,0.004-0.09,0.008-0.152,0.012c-0.031,0.188-0.05,0.282-0.082,0.472
			c-0.353,2.301-0.525,3.46-0.838,6.081c0.757-0.057,1.135-0.083,1.893-0.134C76.369,52.888,76.224,51.767,75.943,49.514z"/>
		<path d="M81.646,43.22c1.097-0.068,1.647-0.102,2.745-0.16c-0.053,6.421-0.075,9.437-0.069,16.836
			c1.464-0.039,2.196-0.058,3.659-0.085c0,1.179,0,1.756,0,2.822c-2.566,0.042-3.851,0.07-6.419,0.14
			C81.551,54.892,81.571,50.643,81.646,43.22z"/>
		<path d="M89.143,42.843c1.097-0.042,1.647-0.06,2.745-0.092c-0.016,6.447-0.023,9.447-0.023,17
			c1.463-0.018,2.192-0.024,3.651-0.032c0,1.198,0,1.783,0,2.831c-2.56,0.013-3.843,0.025-6.41,0.064
			C89.101,54.8,89.109,50.294,89.143,42.843z"/>
		<path d="M96.64,42.655c2.513-0.03,3.771-0.029,6.282-0.006c0,1.129,0,1.68,0,2.78c-1.414-0.013-2.12-0.016-3.535-0.013
			c0,1.912,0,2.845,0,4.771c1.019-0.001,1.527,0,2.545,0.007c0,1.177,0,1.732,0,3.063c-1.018-0.01-1.526-0.016-2.545-0.011
			c0,2.277,0,3.685,0,6.136c1.415,0.003,2.121-0.004,3.535,0c0,1.341,0,2,0,3.158c-2.514-0.009-3.767-0.01-6.284,0.001
			C96.636,54.871,96.638,50.128,96.64,42.655z"/>
		<path d="M109.346,62.589c-0.567-3.294-0.851-5.6-1.419-9.128c-0.294-0.009-0.441-0.011-0.736-0.021
			c-0.002,3.515-0.002,5.854-0.002,9.125c-1.099-0.009-1.647-0.014-2.744-0.021c0-7.7,0-12.412-0.002-19.878
			c1.096,0.017,1.646,0.028,2.742,0.054c3.271,0.078,4.669,1.99,4.675,5.432c0.003,1.808-0.477,3.417-1.519,4.125
			c0.7,3.821,1.05,6.55,1.747,10.351C110.99,62.611,110.441,62.603,109.346,62.589z M107.19,50.807
			c0.381,0.01,0.889-0.027,1.295-0.364c0.406-0.337,0.736-1,0.734-2.286c-0.002-1.288-0.333-1.99-0.74-2.349
			c-0.404-0.359-0.912-0.396-1.294-0.404C107.188,47.568,107.188,48.621,107.19,50.807z"/>
		<path d="M116.285,62.711c0.009-5.886,0.015-9.572-0.001-15.043c0.646,0.036,0.972,0.056,1.616,0.096
			c1.906,0.115,2.944,0.565,3.488,1.65c0.542,1.075,0.625,2.723,0.62,5.745c-0.007,3.019-0.081,5.008-0.62,6.141
			c-0.544,1.141-1.582,1.5-3.485,1.45C117.256,62.733,116.933,62.727,116.285,62.711z M118.343,60.524
			c0.705,0.023,1.109-0.048,1.315-0.808c0.099-0.357,0.172-0.919,0.193-1.673c0.02-0.756,0.022-1.779,0.025-3.048
			c0.001-1.269,0.004-2.223-0.019-2.889c-0.021-0.645-0.095-1.15-0.194-1.486c-0.198-0.663-0.613-0.772-1.317-0.816
			C118.358,53.685,118.351,56.11,118.343,60.524z"/>
		<path d="M123.363,48.141c1.882,0.146,2.82,0.229,4.702,0.404c0.006,0.833,0.008,1.25,0.012,2.084
			c-1.057-0.1-1.589-0.149-2.647-0.24c0.007,1.45,0.015,2.146,0.011,3.713c0.764,0.065,1.145,0.099,1.906,0.169
			c-0.002,0.951-0.004,1.434-0.007,2.404c-0.761-0.059-1.142-0.089-1.903-0.145c-0.005,1.682-0.007,2.541-0.012,4.208
			c1.061,0.049,1.59,0.074,2.648,0.129c-0.002,0.905-0.002,1.353-0.007,2.237c-1.88-0.084-2.821-0.122-4.703-0.188
			C123.377,57.034,123.391,53.638,123.363,48.141z"/>
		<path d="M132.144,48.951c0.825,0.086,1.238,0.13,2.062,0.222c0.027,4.787,0.021,7.294,0.005,12.277
			c1.092,0.07,1.64,0.106,2.729,0.185c-0.002,0.771-0.002,1.16-0.004,1.944c-1.916-0.119-2.875-0.173-4.79-0.274
			C132.163,57.484,132.178,54.483,132.144,48.951z"/>
		<path d="M143.151,61.186c-0.021,0.544-0.143,1.037-0.348,1.446c-0.176,0.354-0.451,0.698-0.824,0.959
			c-0.381,0.269-0.901,0.42-1.588,0.372c-0.689-0.049-1.222-0.271-1.603-0.596c-0.371-0.319-0.627-0.71-0.801-1.099
			c-0.2-0.454-0.319-0.985-0.34-1.558c0.01-3.303,0.028-4.997,0.008-8.279c0.018-0.548,0.139-1.047,0.337-1.454
			c0.17-0.349,0.414-0.703,0.796-0.938c0.381-0.237,0.913-0.36,1.603-0.271c0.687,0.091,1.207,0.348,1.59,0.684
			c0.383,0.335,0.65,0.757,0.826,1.155c0.205,0.462,0.328,0.996,0.35,1.548C143.17,56.449,143.159,58.031,143.151,61.186z
			 M141.094,52.874c-0.002-0.379-0.078-0.67-0.272-0.907c-0.089-0.106-0.248-0.184-0.421-0.207
			c-0.364-0.048-0.528,0.206-0.608,0.432c-0.05,0.142-0.074,0.311-0.072,0.501c0.015,3.288,0.001,4.938-0.009,8.186
			c0,0.394,0.095,0.676,0.285,0.89c0.091,0.103,0.229,0.17,0.402,0.183c0.361,0.029,0.52-0.21,0.611-0.455
			c0.043-0.121,0.076-0.292,0.076-0.498C141.094,57.787,141.109,56.162,141.094,52.874z"/>
		<path d="M147.979,54.743c0-0.458-0.018-0.983-0.154-1.398c-0.132-0.399-0.35-0.705-0.672-0.749
			c-0.525-0.069-0.705,0.466-0.704,1.283c0.002,0.476,0.212,1.004,0.521,1.584c0.305,0.58,0.705,1.188,1.107,1.808
			c0.477,0.737,0.953,1.466,1.318,2.147c0.362,0.679,0.612,1.344,0.612,2.023c0,0.831-0.153,1.617-0.595,2.196
			c-0.441,0.579-1.149,0.941-2.283,0.845c-1.32-0.112-2.067-0.677-2.487-1.457c-0.419-0.779-0.513-1.748-0.511-2.734
			c0.811,0.014,1.216,0.021,2.029,0.04c-0.002,0.545,0.031,1.1,0.17,1.519c0.141,0.427,0.362,0.753,0.803,0.795
			c0.612,0.058,0.844-0.531,0.844-1.346c0.001-0.417-0.221-0.951-0.535-1.462c-0.157-0.261-0.342-0.551-0.535-0.832
			c-0.39-0.575-0.84-1.237-1.296-1.978c-0.459-0.742-0.793-1.539-1.014-2.296c-0.109-0.375-0.175-0.766-0.176-1.147
			c-0.003-0.761,0.164-1.563,0.604-2.118c0.43-0.544,1.109-0.887,2.086-0.76c1.244,0.165,1.981,0.796,2.378,1.603
			c0.405,0.819,0.518,1.777,0.518,2.56C149.196,54.815,148.791,54.792,147.979,54.743z"/>
	</g>
</g>
<g>
	<path d="M112.847,108.66v0.758c34.892,1.144,63.662,6.754,63.982,6.817l0.145-0.743
		C176.656,115.429,147.815,109.804,112.847,108.66z"/>
	<path d="M87.249,108.707c-34.598,1.243-63.796,6.722-64.126,6.784l0.143,0.745c0.327-0.062,29.461-5.528,63.984-6.771V108.707z"/>
</g>
<g>
	<path d="M90.288,105.967h1.929v0.866h-1.086v1.507h0.78v0.922h-0.78v1.578h1.086v0.866h-1.929V105.967z"/>
	<path d="M94.082,107.505c0-0.187-0.008-0.399-0.062-0.562c-0.056-0.157-0.141-0.266-0.273-0.266
		c-0.219,0.008-0.289,0.234-0.289,0.569c0,0.195,0.087,0.399,0.212,0.617c0.125,0.22,0.288,0.445,0.452,0.688
		c0.194,0.289,0.39,0.585,0.541,0.874c0.146,0.291,0.248,0.587,0.248,0.898c0,0.385-0.062,0.742-0.24,1.01
		c-0.181,0.264-0.47,0.436-0.931,0.436c-0.538,0-0.843-0.203-1.015-0.516c-0.172-0.312-0.211-0.726-0.211-1.156l0.826-0.077
		c0,0.242,0.011,0.483,0.072,0.664c0.055,0.187,0.148,0.312,0.327,0.312c0.25,0,0.343-0.264,0.343-0.631
		c0-0.188-0.093-0.409-0.217-0.635c-0.07-0.109-0.141-0.226-0.22-0.343c-0.165-0.234-0.345-0.499-0.53-0.789
		c-0.188-0.289-0.329-0.586-0.414-0.891c-0.048-0.147-0.072-0.304-0.072-0.461c0-0.312,0.072-0.647,0.25-0.905
		c0.18-0.249,0.454-0.43,0.852-0.438c0.51-0.008,0.805,0.203,0.97,0.509c0.163,0.312,0.21,0.693,0.21,1.015L94.082,107.505z"/>
	<path d="M95.065,106.833v-0.866h2.437v0.866h-0.795v4.873h-0.846v-4.873H95.065z"/>
	<path d="M97.721,110.84h0.819v0.866h-0.819V110.84z"/>
	<path d="M100.183,107.786v-0.398c0-0.382,0.053-0.757,0.216-1.031c0.164-0.272,0.445-0.453,0.908-0.453
		c0.43,0,0.719,0.164,0.889,0.415c0.172,0.257,0.234,0.616,0.234,1.015c0,0.586-0.219,1.28-0.492,1.929
		c-0.279,0.656-0.609,1.241-0.828,1.608h1.336v0.836h-2.288v-0.836c0.258-0.396,0.492-0.804,0.702-1.21
		c0.18-0.345,0.352-0.734,0.484-1.134c0.135-0.397,0.234-0.787,0.242-1.139c0-0.156-0.008-0.336-0.047-0.47
		c-0.037-0.133-0.109-0.233-0.232-0.233c-0.117,0-0.189,0.086-0.228,0.211c-0.04,0.132-0.056,0.304-0.056,0.492v0.398H100.183z"/>
	<path d="M105.24,110.527c-0.007,0.233-0.055,0.445-0.143,0.624c-0.068,0.157-0.18,0.306-0.334,0.423
		c-0.155,0.124-0.365,0.194-0.647,0.194s-0.499-0.07-0.655-0.194c-0.156-0.117-0.258-0.266-0.33-0.423
		c-0.084-0.179-0.133-0.391-0.141-0.624v-3.381c0.008-0.229,0.057-0.438,0.141-0.618c0.072-0.157,0.174-0.312,0.33-0.43
		c0.156-0.116,0.373-0.195,0.655-0.195s0.492,0.079,0.647,0.195c0.154,0.118,0.266,0.272,0.334,0.43
		c0.088,0.18,0.136,0.39,0.143,0.618V110.527z M104.398,107.146c0-0.157-0.031-0.267-0.11-0.361
		c-0.039-0.037-0.103-0.061-0.172-0.061c-0.148,0-0.22,0.108-0.25,0.21c-0.024,0.062-0.032,0.133-0.032,0.212v3.381
		c0,0.163,0.04,0.274,0.118,0.359c0.04,0.038,0.095,0.062,0.164,0.062c0.147,0,0.218-0.095,0.251-0.212
		c0.022-0.054,0.031-0.125,0.031-0.21V107.146z"/>
	<path d="M105.592,107.207v-0.539c0.35-0.069,0.562-0.249,0.711-0.405c0.078-0.094,0.141-0.195,0.188-0.296h0.507v5.739h-0.844
		v-4.499H105.592z"/>
	<path d="M107.544,107.786v-0.398c0-0.382,0.055-0.757,0.22-1.031c0.162-0.272,0.443-0.453,0.904-0.453
		c0.431,0,0.719,0.164,0.891,0.415c0.173,0.257,0.233,0.616,0.233,1.015c0,0.586-0.219,1.28-0.49,1.929
		c-0.282,0.656-0.609,1.241-0.828,1.608h1.334v0.836h-2.286v-0.836c0.257-0.396,0.49-0.804,0.701-1.21
		c0.181-0.345,0.352-0.734,0.484-1.134c0.133-0.397,0.234-0.787,0.242-1.139c0-0.156-0.008-0.336-0.046-0.47
		c-0.039-0.133-0.11-0.233-0.235-0.233c-0.117,0-0.188,0.086-0.226,0.211c-0.039,0.132-0.057,0.304-0.057,0.492v0.398H107.544z"/>
</g>
<g>
	<path fill="#F5841F" d="M117.94,80.319c-0.013-1.323-0.236-2.663-1.15-3.732c0.401,0.858,0.543,1.835,0.554,2.869
		c0.024,2.22-4.139,3.979-4.139,3.979c0,0.008,0.373,0.23,0.886,0.609C114.86,83.687,117.958,82.139,117.94,80.319z"/>
	<path fill="#F5841F" d="M33.438,83.724c-0.658-0.673-1.511-0.957-2.567-0.844l-0.92,0.103c-0.077,4.671-0.102,7.063-0.104,12.253
		c0.034-0.005,0.063-0.007,0.1-0.012c3.003-0.396,4.174-3.99,4.263-7.654c0.033-1.359-0.174-2.681-0.663-3.715
		C33.51,83.814,33.476,83.764,33.438,83.724z"/>
	<path fill="#F5841F" d="M88.842,95.354c-2.202,0.062-4.181-0.519-5.804-1.625c1.758,1.564,4.023,2.372,6.585,2.298
		c5.925-0.164,9.907-4.925,9.907-11.85c0-2.93-0.672-5.275-1.956-6.983c0.91,1.657,1.358,3.727,1.358,6.121
		C98.933,89.837,95.328,95.177,88.842,95.354z"/>
	<path fill="#F5841F" d="M109.009,77.046c-0.573-0.01-0.858-0.016-1.431-0.025c0.003,1.937,0.005,2.908,0.011,4.843
		c0.516,0.008,0.773,0.012,1.29,0.021c1.667,0.032,2.758-0.731,2.75-2.242C111.621,77.963,110.669,77.082,109.009,77.046z"/>
	<path fill="#F5841F" d="M101.053,77.656l0.627,0.002c0-0.22,0-0.439,0-0.67c-0.246,0-0.439-0.001-0.627-0.002V77.656z"/>
	<path fill="#F5841F" d="M86.252,84.279c0.023-3.694,1.324-6.301,3.168-6.338l0.056-0.001c0.366,0,0.702,0.075,1.01,0.214
		c-0.475-0.574-1.084-0.901-1.85-0.885c-1.728,0.035-2.961,2.598-2.98,6.15c-0.016,2.599,0.637,4.923,1.649,6.09
		C86.637,88.193,86.24,86.299,86.252,84.279z"/>
	<path fill="#F5841F" d="M107.589,85.176c-0.002,1.985-0.004,3.122-0.008,5.253c0.232,0.004,0.419,0.008,0.6,0.011l0.005-4.595
		l0.192,0.003c0.713,0.011,1.261,0.079,1.682,0.227C109.681,85.406,108.958,85.197,107.589,85.176z"/>
	<path fill="#F5841F" d="M117.636,90.479c0.006,0,0.011-0.005,0.015-0.005c-0.079-0.441-0.1-0.97-0.097-1.5
		c0.005-0.769-0.39-1.517-0.93-2.185c0.208,0.423,0.336,0.869,0.332,1.325C116.949,89.587,117.118,90.461,117.636,90.479z"/>
	<path fill="#F5841F" d="M49.539,83.912c0.221-0.021,0.424-0.042,0.624-0.061l0.104-3.381l0.166-0.017
		c1.544-0.149,2.444-0.232,3.784-0.356c0.007-0.225,0.014-0.466,0.023-0.744c-1.832,0.166-2.746,0.251-4.576,0.428
		C49.613,81.436,49.587,82.269,49.539,83.912z"/>
	<path fill="#F5841F" d="M69.055,79.208l-0.082,3.988c0.091-0.006,0.186-0.014,0.293-0.021c1.668-0.125,2.833-1.074,2.858-2.62
		c0.007-0.382-0.045-0.713-0.133-1.01c-0.408-0.32-0.971-0.469-1.681-0.422L69.055,79.208z"/>
	<path fill="#F5841F" d="M49.468,93.184c0.21-0.021,0.406-0.04,0.596-0.058v-4.595l0.168-0.017c2.121-0.21,3.21-0.314,5.275-0.51
		c0.002-1.453,0.023-2.182,0.062-3.546c-0.219,0.021-0.424,0.04-0.624,0.058c-0.023,0.902-0.036,1.603-0.036,2.799
		c-2.179,0.206-3.267,0.31-5.441,0.525C49.468,89.852,49.468,91.012,49.468,93.184z"/>
	<path fill="#F5841F" d="M89.427,78.319c-1.599,0.032-2.776,2.54-2.796,5.962c-0.014,2.481,0.597,4.739,1.566,5.9
		c0.208,0.084,0.424,0.126,0.646,0.119c1.808-0.053,2.927-3.303,2.927-6.88c0-1.732-0.234-3.27-0.734-4.374
		c-0.43-0.472-0.953-0.728-1.559-0.728L89.427,78.319z"/>
	<path fill="#F5841F" d="M77.201,76.95c0.42,0.901,0.555,1.952,0.541,3.056c-0.046,3.826-3.497,6.007-7.608,6.306
		c-0.876,0.063-1.312,0.095-2.186,0.161c0,1.954,0,3.069,0,5.162c0.229-0.017,0.418-0.029,0.598-0.042V87.16l0.175-0.014
		c0.712-0.055,1.133-0.086,1.739-0.13l0.449-0.031c4.472-0.326,7.39-2.729,7.431-6.119C78.361,79.089,77.995,77.841,77.201,76.95z"
		/>
	<path fill="#F5841F" d="M68.683,78.854l1.6-0.11c0.56-0.039,1.037,0.041,1.443,0.212c-0.432-0.647-1.195-0.955-2.214-0.885
		c-0.572,0.04-0.858,0.058-1.431,0.099c-0.04,2.043-0.061,3.071-0.105,5.103c0.246-0.019,0.433-0.032,0.619-0.047L68.683,78.854z"/>
	<path fill="#F5841F" d="M61.6,79.426l0.6-0.049c0.007-0.241,0.013-0.484,0.02-0.737c-0.234,0.019-0.421,0.034-0.601,0.048
		L61.6,79.426z"/>
	<path fill="#F5841F" d="M149.132,92.688c0.218,0.02,0.42,0.039,0.613,0.057l0.02-0.961c0.024-1.242,0.044-2.253,0.075-3.693
		l0.004-0.204l0.204,0.019c2.109,0.199,3.195,0.306,5.235,0.518c0.026-1.458,0.002-2.129-0.052-3.461
		c-0.2-0.021-0.384-0.039-0.564-0.058c0.032,0.913,0.04,1.601,0.015,2.867c-2.173-0.227-3.259-0.333-5.438-0.539
		C149.198,89.286,149.177,90.469,149.132,92.688z"/>
	<path fill="#F5841F" d="M168.211,84.153c-0.022-0.093-0.053-0.184-0.056-0.284c-0.011-0.379,0.12-0.72,0.378-0.984
		c0.339-0.35,0.896-0.559,1.49-0.559c0.089,0,0.179,0.005,0.265,0.016c0.688,0.079,1.306,0.3,1.844,0.619
		c-0.679-0.713-1.619-1.172-2.652-1.292c-0.824-0.095-1.949,0.305-1.921,1.335C167.571,83.434,167.812,83.807,168.211,84.153z"/>
	<path fill="#F5841F" d="M32.91,82.875c-0.662-0.759-1.596-1.183-2.847-1.044c-0.435,0.049-0.651,0.071-1.086,0.12
		c-0.086,5.201-0.106,7.612-0.106,13.392c0.24-0.025,0.416-0.045,0.597-0.063c0.003-5.285,0.028-7.674,0.106-12.47l0.004-0.167
		l1.252-0.137C31.628,82.415,32.315,82.553,32.91,82.875z"/>
	<path fill="#F5841F" d="M173.067,80.566c-0.005-0.006-0.013-0.012-0.017-0.02c0.003,0.011,0.01,0.018,0.017,0.027
		C173.067,80.571,173.067,80.568,173.067,80.566z"/>
	<path fill="#F5841F" d="M164.984,98.662c-1.633-0.191-2.608-0.303-4-0.457c-0.004,0.194-0.008,0.38-0.013,0.582
		c1.826,0.201,2.821,0.314,4.641,0.527c0.124-0.788,0.193-1.27,0.326-2.194l0.007-0.05c-0.224-0.259-0.433-0.522-0.607-0.785
		C165.197,97.279,165.127,97.762,164.984,98.662z"/>
	<path fill="#F5841F" d="M163.829,88.167c1.49,1.298,3.408,2.154,5.02,2.866c0.869,0.386,1.646,0.736,2.254,1.101
		C170.106,90.903,166.566,90.071,163.829,88.167z"/>
	<path fill="#F5841F" d="M200,117.42l-6.54-20.474l4.076-15.639l-11.469-1.043v-6.73c-32.134-8.72-86.066-8.025-86.066-8.025
		s-53.934-0.695-86.067,8.025v6.73L2.465,81.307l4.075,15.639L0,117.42l20.948-3.317l-8.911-3.791c0,0,36.905-7.899,87.964-7.899
		c51.059,0,87.961,7.899,87.961,7.899l-8.908,3.791L200,117.42z M30.64,100.505c-3.411,0.384-5.112,0.58-8.5,0.975l-0.211,0.026
		v-0.363l0.379-0.063c3.251-0.379,4.951-0.576,8.291-0.951c6.529-0.735,10.549-5.367,10.757-12.393
		c0.068-2.302-0.528-4.3-1.728-5.832c0.793,1.414,1.184,3.109,1.131,4.975c-0.199,6.708-3.957,11.792-10.926,12.577
		c-3.413,0.383-5.114,0.58-8.502,0.976c0-1.573,0-2.472,0-4.254c0.697-0.078,1.047-0.114,1.747-0.194
		c0-5.359,0.006-7.825,0.022-12.231l-1.171,0.133v-1.144c-0.18,0.021-0.369,0.043-0.598,0.067c0-1.564,0-2.349,0-3.87
		c3.53-0.424,5.289-0.63,8.805-1.032c3.543-0.404,6.269,0.476,8.075,2.172c0.419,0.287,0.817,0.601,1.171,0.965
		c1.596,1.644,2.433,4.023,2.352,6.702C41.521,94.979,37.374,99.747,30.64,100.505z M60.087,82.599l-0.169,0.017
		c-1.98,0.172-2.972,0.261-4.953,0.445l-0.213,0.021l0.033-1.128c-0.199,0.019-0.403,0.037-0.624,0.058
		c0.019-0.619,0.03-1.061,0.045-1.53c-1.27,0.116-2.144,0.198-3.572,0.334l-0.092,2.999c1.56-0.153,2.622-0.254,4.435-0.424
		c-0.008,0.273-0.014,0.516-0.021,0.747c0.248-0.023,0.51-0.049,0.791-0.074l0.215-0.021l-0.011,0.37
		c-0.044,1.453-0.064,2.181-0.064,3.765v0.174l-0.171,0.017c-2.122,0.199-3.209,0.305-5.272,0.509v4.215
		c1.244-0.119,2.129-0.202,3.606-0.339c0-1.242,0-1.882,0-3.11c1.983-0.187,2.977-0.277,4.962-0.453c0,0.26,0,0.5,0,0.742
		c0.244-0.022,0.496-0.044,0.77-0.068l0.208-0.019v7.737l-0.174,0.016c-6.81,0.565-10.283,0.9-17.261,1.622l-0.209,0.021v-0.376
		l0.379-0.044c6.784-0.699,10.253-1.035,16.885-1.587v-6.972c-0.209,0.019-0.406,0.035-0.599,0.053c0,2.339,0,3.942,0,6.233
		c-6.922,0.575-10.38,0.911-17.263,1.623c0-1.547,0-2.438,0-4.206c0.718-0.074,1.079-0.111,1.798-0.187
		c0-5.334,0.033-7.806,0.162-12.271l-1.178,0.122l0.035-1.137c-0.188,0.02-0.385,0.039-0.626,0.064
		c0.048-1.589,0.069-2.383,0.116-3.941c6.912-0.712,10.356-1.04,17.235-1.594c-0.069,2.591-0.106,3.924-0.177,6.546
		c-1.615,0.141-2.579,0.227-3.948,0.352l-0.022,0.746c1.788-0.164,2.771-0.253,4.573-0.41l0.167-6.167v-0.379
		c0.062-0.004,0.12-0.009,0.18-0.015l0.212-0.017L60.087,82.599z M70.934,87.364l-0.447,0.031c-0.552,0.041-0.954,0.071-1.562,0.116
		v4.054c0.231-0.016,0.468-0.033,0.776-0.055c0,0.262,0,0.5,0,0.728l0.976-0.068v4.616l-0.176,0.011
		c-3.675,0.243-5.491,0.378-9.251,0.682l-0.205,0.017v-0.372l0.379-0.04c3.563-0.286,5.38-0.42,8.875-0.652v-3.855l-0.598,0.043
		c0,1.123,0,1.933,0,3.128c-3.702,0.246-5.556,0.382-9.253,0.68c0-1.542,0.001-2.434,0.001-4.206
		c0.642-0.054,0.964-0.08,1.609-0.133c0-5.417,0.026-7.906,0.132-12.33l-0.98,0.081l0.027-1.119
		c-0.185,0.016-0.376,0.031-0.62,0.051c0.042-1.553,0.061-2.33,0.102-3.864c3.696-0.29,5.544-0.424,9.235-0.658
		c3.436-0.216,5.405,0.458,6.507,1.615c0.325,0.197,0.627,0.416,0.881,0.673c0.963,0.975,1.399,2.351,1.376,4.333
		C78.676,84.474,75.621,87.022,70.934,87.364z M89.634,96.406c-0.106,0.003-0.214,0.004-0.319,0.004
		c-2.748,0-5.157-0.969-6.971-2.804c-0.58-0.585-1.077-1.258-1.503-1.994c-1.473-1.97-2.318-4.641-2.282-7.84
		c0.071-6.219,4.22-10.763,10.124-10.916c3.154-0.081,5.543,0.726,7.222,2.226c2.616,1.713,4.005,4.8,4.005,9.095
		C99.909,91.322,95.779,96.237,89.634,96.406z M178.862,79.348l0.363,0.04l0.011,7.924l-0.214-0.03
		c-2.028-0.279-3.045-0.416-5.085-0.681l-0.162-0.021l-0.003-0.165c0-0.081-0.021-0.157-0.026-0.237l0.398,0.066
		c1.863,0.243,2.877,0.38,4.714,0.632l-0.012-7.147L178.862,79.348z M159.217,77.285l0.165,0.017l0.006,0.165
		c0.07,1.816,0.117,3.013,0.174,4.535l0.077,2.027l-0.219-0.023c-1.973-0.212-2.96-0.315-4.938-0.514l-0.163-0.016l-0.016-0.376
		l0.381,0.029c1.799,0.182,2.78,0.284,4.559,0.477l-0.061-1.589c-0.057-1.477-0.1-2.647-0.168-4.37l-0.025-0.383
		C159.065,77.27,159.139,77.277,159.217,77.285z M121.202,91.098c-0.022,3.428-1.479,5.24-4.21,5.24c-0.066,0-0.136,0-0.208-0.003
		c-2.435-0.079-4.099-0.995-4.983-2.726c-0.906-1.042-1.352-2.566-1.347-4.575c0.002-1.099-0.039-1.892-0.196-2.466
		c-0.374-0.233-0.912-0.314-1.694-0.336l-0.004,4.214c0.23,0.004,0.467,0.01,0.771,0.016c0,0.232,0,0.451,0,0.657
		c0.236,0.003,0.477,0.008,0.792,0.015l0.187,0.004l-0.008,4.677l-0.193-0.004c-3.734-0.069-5.549-0.087-9.246-0.087h-0.188v-0.377
		l0.378-0.003c3.51,0.002,5.326,0.02,8.87,0.085l0.007-3.921c-0.226-0.004-0.415-0.007-0.599-0.01
		c-0.001,1.186-0.003,2.022-0.007,3.262c-3.703-0.069-5.552-0.088-9.247-0.088c0-1.569,0-2.485,0-4.301c0.642,0,0.961,0,1.603,0.003
		c0-5.56,0-8.048,0-12.335l-1.005-0.003v-1.051c-0.178,0-0.364-0.001-0.598-0.001c0-1.491,0-2.237,0-3.733
		c3.72-0.001,5.576,0.021,9.293,0.104c3.362,0.074,5.355,0.812,6.508,1.942c2.027,1.216,2.425,3.134,2.442,5.019
		c0.02,1.945-2.85,3.492-3.891,3.99c0.141,0.111,0.287,0.231,0.436,0.362c1.267,0.92,3.075,2.543,3.067,4.31
		c-0.004,0.598,0.029,1.027,0.077,1.348c0.184-0.172,0.29-0.48,0.293-0.924c0.001-0.457,0.004-0.685,0.007-1.137
		c0.771,0.029,1.156,0.043,1.93,0.076c-0.005,0.753-0.007,1.136-0.013,1.895c-0.02,2.858-1.041,5.15-4.222,5.049
		c-1.267-0.039-2.305-0.31-3.133-0.797c0.89,0.925,2.19,1.414,3.924,1.469c2.666,0.101,4.006-1.55,4.028-4.86l0.011-1.713v-0.379
		c0.068,0.003,0.124,0.005,0.198,0.008l0.184,0.008L121.202,91.098z M136.95,93.198c-0.02,1.375-0.035,2.241-0.059,3.604l-0.002,0.2
		l-0.199-0.014c-4.261-0.294-6.355-0.417-10.67-0.632l-0.182-0.009l0.002-0.184c0.002-0.064,0.002-0.126,0.004-0.188l0.377,0.012
		c4.128,0.205,6.224,0.329,10.295,0.609c0.022-1.252,0.036-2.1,0.055-3.404l0.01-0.534h-0.004v-0.382
		c0.072,0.006,0.133,0.011,0.209,0.015l0.178,0.013L136.95,93.198z M141.051,83.385c-1.691-0.135-2.534-0.197-4.228-0.319
		l-0.171-0.012l-0.03-0.999c-0.182-0.012-0.369-0.025-0.573-0.041c-0.032-1.076-0.052-1.759-0.079-2.639
		c-0.484-0.035-0.89-0.062-1.457-0.102c0.127,4.617,0.145,6.996,0.074,12.248c0.432,0.03,0.831,0.057,1.399,0.097
		c-0.028,1.818-0.042,2.732-0.068,4.318c-4.27-0.293-6.406-0.419-10.675-0.631c0.02-1.585,0.025-2.504,0.043-4.329
		c0.943,0.049,1.416,0.074,2.358,0.125c0.06-5.526,0.056-7.975-0.032-12.255c-0.5-0.028-0.917-0.052-1.508-0.083l0.068,3.638
		l-0.203-0.011c-1.693-0.089-2.538-0.129-4.231-0.203l-0.18-0.008l-0.005-0.397l0.38,0.035c1.51,0.065,2.35,0.104,3.854,0.185
		l-0.069-3.639l0.203,0.01c0.688,0.036,1.141,0.061,1.685,0.092c-0.005-0.206-0.01-0.411-0.013-0.628
		c-0.986-0.055-1.482-0.084-2.468-0.136c0.028,1.458,0.042,2.187,0.069,3.638c-1.695-0.089-2.541-0.128-4.235-0.203
		c-0.042-2.949-0.062-4.454-0.103-7.383c7.667,0.356,11.497,0.616,19.167,1.216c0.104,2.892,0.153,4.423,0.255,7.365
		c-1.341-0.106-2.154-0.169-3.275-0.25l0.019,0.615c1.511,0.109,2.352,0.173,3.849,0.292l-0.243-6.984v-0.381
		c0.067,0.006,0.13,0.011,0.199,0.017l0.169,0.014l0.268,7.746L141.051,83.385z M143.14,79.922l-1.236-0.1l-0.035-0.992
		c-0.17-0.013-0.352-0.027-0.568-0.044c-0.053-1.506-0.079-2.26-0.133-3.728c6.894,0.552,10.34,0.872,17.244,1.553
		c0.096,2.466,0.146,3.792,0.244,6.342c-1.975-0.212-2.964-0.315-4.941-0.514c-0.024-0.642-0.043-1.083-0.062-1.578
		c-1.314-0.128-2.191-0.211-3.631-0.344l0.117,2.963c1.591,0.153,2.66,0.259,4.49,0.447c0.009,0.214,0.017,0.407,0.024,0.593
		c0.245,0.024,0.505,0.052,0.781,0.079l0.164,0.018l0.008,0.234c0.061,1.465,0.086,2.132,0.051,3.785l-0.005,0.205l-0.204-0.02
		c-2.103-0.221-3.187-0.327-5.231-0.521c-0.028,1.333-0.048,2.306-0.072,3.488l-0.019,0.989c1.234,0.116,2.12,0.203,3.586,0.352
		c0.026-1.264,0.038-1.915,0.063-3.163c1.979,0.202,2.966,0.307,4.939,0.524c-0.061,3.028-0.09,4.761-0.151,7.448
		c-6.887-0.738-10.342-1.062-17.257-1.604c0.034-1.585,0.052-2.5,0.082-4.314c0.725,0.057,1.086,0.088,1.811,0.146
		C143.299,86.659,143.289,84.223,143.14,79.922z M159.642,93.845c-0.033,1.695-0.061,3.1-0.102,4.964l-0.004,0.205l-0.205-0.021
		c-7.021-0.754-10.408-1.069-17.251-1.605l-0.179-0.015l0.004-0.179c0.002-0.073,0.002-0.14,0.004-0.21l0.378,0.04
		c6.664,0.521,10.053,0.837,16.878,1.57c0.04-1.762,0.066-3.124,0.098-4.756l0.045-2.313l0.022-0.378
		c0.065,0.006,0.122,0.014,0.19,0.021l0.172,0.019L159.642,93.845z M173.38,101.007c-0.45,0-0.913-0.03-1.378-0.088
		c-3.136-0.398-4.94-2.2-5.756-3.274c-0.102,0.703-0.171,1.164-0.288,1.91l-0.03,0.181l-0.18-0.023
		c-1.993-0.233-2.992-0.346-4.989-0.564l-0.174-0.02l0.004-0.173c0.007-0.277,0.012-0.53,0.018-0.791
		c-0.198-0.022-0.398-0.044-0.615-0.068c0.065-2.996,0.099-4.991,0.164-8.305c2.115,0.24,3.172,0.363,5.278,0.623
		c-0.004,0.203,0.011,0.395,0.033,0.579c0.244,0.029,0.502,0.06,0.777,0.094l0.17,0.021l-0.003,0.171
		c-0.017,1.052,0.338,1.801,0.823,2.333c0.616,0.356,1.263,0.536,1.72,0.607c0.959,0.149,2.406,0.031,2.422-1.381
		c0-0.025-0.008-0.048-0.01-0.071c-0.602-0.466-1.59-0.904-2.672-1.383c-2.396-1.061-5.459-2.421-6.883-5.077
		c-0.797-1.025-1.328-2.277-1.385-3.851c-0.158-4.294,3.78-5.76,6.591-5.468c1.8,0.187,3.626,0.786,4.928,2.056
		c0.441,0.295,0.832,0.633,1.174,1.008c0.064-0.662,0.114-1.129,0.194-1.892c1.972,0.213,2.96,0.322,4.937,0.539
		c0.005,2.903,0.007,4.524,0.012,7.535c-2.027-0.277-3.047-0.416-5.087-0.683c-0.009-0.54-0.12-1.037-0.309-1.482
		c-0.624-0.727-1.533-1.224-2.621-1.35c-0.534-0.062-1.133,0.115-1.441,0.432c-0.187,0.191-0.276,0.43-0.27,0.71
		c0.008,0.278,0.139,0.534,0.354,0.777c1.84,1.112,5.192,2.07,7.478,4.119c1.884,1.349,3.376,3.228,3.376,6.133
		C179.741,100.412,175.293,101.007,173.38,101.007z"/>
	<path fill="#F5841F" d="M22.308,83.459l0.797-0.09c0.002-0.248,0.002-0.5,0.003-0.761c-0.318,0.036-0.561,0.064-0.8,0.091V83.459z"
		/>
	<path fill="#F5841F" d="M165.531,91.382c0.145,0.638,0.445,1.138,0.817,1.533c-0.188-0.428-0.305-0.915-0.315-1.472
		C165.857,91.421,165.693,91.4,165.531,91.382z"/>
	<path fill="#F5841F" d="M171.239,99.869c-1.476-0.189-2.71-0.709-3.709-1.387c0.963,0.878,2.43,1.794,4.521,2.06
		c0.447,0.057,0.896,0.086,1.328,0.086c1.799,0,5.982-0.56,5.982-5.74c0-1.72-0.543-3.055-1.387-4.132
		c0.492,0.917,0.79,1.99,0.79,3.269C178.766,99.258,174.627,100.298,171.239,99.869z"/>
	<path fill="#F5841F" d="M149.754,83.445l-0.133-3.344l0.219,0.02c1.55,0.142,2.448,0.227,3.796,0.359
		c-0.008-0.184-0.016-0.378-0.023-0.598c-1.831-0.178-2.744-0.268-4.577-0.434c0.061,1.58,0.094,2.38,0.154,3.943
		C149.389,83.411,149.572,83.427,149.754,83.445z"/>
	<path fill="#F5841F" d="M42.923,81.205l0.798-0.081c0.008-0.247,0.016-0.496,0.023-0.754c-0.316,0.03-0.561,0.056-0.797,0.081
		L42.923,81.205z"/>
	<path fill="#F5841F" d="M133.53,78.208c0.139,4.939,0.152,7.312,0.069,13.25c0.226,0.015,0.423,0.026,0.608,0.039
		c0.07-5.313,0.054-7.678-0.08-12.421l-0.007-0.207l0.21,0.013c0.665,0.046,1.104,0.076,1.627,0.113
		c-0.007-0.194-0.014-0.395-0.018-0.618C134.976,78.308,134.493,78.274,133.53,78.208z"/>
	<path fill="#F5841F" d="M142.249,78.861l0.021,0.611l0.856,0.068c-0.007-0.2-0.013-0.399-0.021-0.609
		C142.764,78.902,142.505,78.881,142.249,78.861z"/>
</g>
</svg>
